%FSAX24Y24*%
%MOIN*%
G70*
G01*
G75*
G04 Layer_Color=65535*
%ADD10C,0.0120*%
%ADD11C,0.0250*%
%ADD12C,0.0500*%
%ADD13C,0.0591*%
%ADD14R,0.0591X0.0591*%
%ADD15R,0.0591X0.0591*%
%ADD16C,0.0600*%
%ADD17R,0.0600X0.0600*%
%ADD18C,0.0650*%
%ADD19C,0.0400*%
%ADD20C,0.0500*%
%ADD21C,0.0079*%
%ADD22C,0.0197*%
%ADD23C,0.0080*%
%ADD24C,0.0100*%
D21*
X030000Y038000D02*
X038000D01*
X030000Y036000D02*
X038000D01*
Y038000D01*
X030000Y036000D02*
Y038000D01*
X040000D02*
X048000D01*
X040000Y036000D02*
X048000D01*
Y038000D01*
X040000Y036000D02*
Y038000D01*
X049250Y032500D02*
X051250D01*
X049250Y050500D02*
X051250D01*
Y032500D02*
Y050500D01*
X049250Y032500D02*
Y050500D01*
X025500Y030500D02*
X031500D01*
X025500Y031500D02*
X031500D01*
X025500Y030500D02*
Y031500D01*
X031500Y030500D02*
Y031500D01*
X041500D02*
X049500D01*
X041500Y030500D02*
Y031500D01*
Y030500D02*
X049500D01*
Y031500D01*
X032500D02*
X040500D01*
X032500Y030500D02*
Y031500D01*
Y030500D02*
X040500D01*
Y031500D01*
X039250Y049500D02*
X047250D01*
Y050500D01*
X039250D02*
X047250D01*
X039250Y049500D02*
Y050500D01*
X030250Y049500D02*
X038250D01*
Y050500D01*
X030250D02*
X038250D01*
X030250Y049500D02*
Y050500D01*
X021750Y049500D02*
X029750D01*
Y050500D01*
X021750D02*
X029750D01*
X021750Y049500D02*
Y050500D01*
X052000Y035500D02*
Y043500D01*
Y035500D02*
X053000D01*
Y043500D01*
X052000D02*
X053000D01*
X037500Y042750D02*
Y044750D01*
X027500Y042750D02*
X037500D01*
X027500D02*
Y044750D01*
X037500D01*
X028996Y032120D02*
Y033380D01*
X031004Y032120D02*
Y033380D01*
X028996Y032120D02*
X031004D01*
X028996Y033380D02*
X031004D01*
X033996Y032120D02*
Y033380D01*
X036004Y032120D02*
Y033380D01*
X033996Y032120D02*
X036004D01*
X033996Y033380D02*
X036004D01*
X031496Y032120D02*
Y033380D01*
X033504Y032120D02*
Y033380D01*
X031496Y032120D02*
X033504D01*
X031496Y033380D02*
X033504D01*
X034254Y034120D02*
Y035380D01*
X032246Y034120D02*
Y035380D01*
X034254D01*
X032246Y034120D02*
X034254D01*
X036754D02*
Y035380D01*
X034746Y034120D02*
Y035380D01*
X036754D01*
X034746Y034120D02*
X036754D01*
X036496Y032120D02*
Y033380D01*
X038504Y032120D02*
Y033380D01*
X036496Y032120D02*
X038504D01*
X036496Y033380D02*
X038504D01*
X039254Y034120D02*
Y035380D01*
X037246Y034120D02*
Y035380D01*
X039254D01*
X037246Y034120D02*
X039254D01*
X031754D02*
Y035380D01*
X029746Y034120D02*
Y035380D01*
X031754D01*
X029746Y034120D02*
X031754D01*
D22*
X039000Y032250D02*
Y033250D01*
X040000Y032250D02*
Y033250D01*
X039000Y032250D02*
X040000D01*
X039000D02*
X048000D01*
Y033250D01*
X039000D02*
X048000D01*
X039000Y032350D02*
Y033250D01*
D23*
X029500Y036300D02*
X029667D01*
X029583D01*
Y036800D01*
X029500Y036717D01*
X028233Y037717D02*
X028150Y037800D01*
X027983D01*
X027900Y037717D01*
Y037383D01*
X027983Y037300D01*
X028150D01*
X028233Y037383D01*
Y037550D01*
X028067D01*
X028400Y037300D02*
Y037800D01*
X028733Y037300D01*
Y037800D01*
X028900D02*
Y037300D01*
X029150D01*
X029233Y037383D01*
Y037717D01*
X029150Y037800D01*
X028900D01*
X037800Y043500D02*
Y043167D01*
X037967Y043000D01*
X038133Y043167D01*
Y043500D01*
X038300Y043000D02*
Y043500D01*
X038550D01*
X038633Y043417D01*
Y043250D01*
X038550Y043167D01*
X038300D01*
X038800Y043000D02*
Y043500D01*
X039050D01*
X039133Y043417D01*
Y043250D01*
X039050Y043167D01*
X038800D01*
X038966D02*
X039133Y043000D01*
X039633Y043417D02*
X039549Y043500D01*
X039383D01*
X039300Y043417D01*
Y043083D01*
X039383Y043000D01*
X039549D01*
X039633Y043083D01*
Y043250D01*
X039466D01*
X027900Y036300D02*
Y036633D01*
X028067Y036800D01*
X028233Y036633D01*
Y036300D01*
Y036550D01*
X027900D01*
X028400Y036800D02*
Y036300D01*
X028650D01*
X028733Y036383D01*
Y036717D01*
X028650Y036800D01*
X028400D01*
X029233Y036717D02*
X029150Y036800D01*
X028983D01*
X028900Y036717D01*
Y036383D01*
X028983Y036300D01*
X029150D01*
X029233Y036383D01*
X038133Y044417D02*
X038050Y044500D01*
X037883D01*
X037800Y044417D01*
Y044083D01*
X037883Y044000D01*
X038050D01*
X038133Y044083D01*
Y044250D01*
X037967D01*
X038300Y044000D02*
Y044500D01*
X038633Y044000D01*
Y044500D01*
X038800D02*
Y044000D01*
X039050D01*
X039133Y044083D01*
Y044417D01*
X039050Y044500D01*
X038800D01*
D24*
X021950Y047550D02*
Y046950D01*
X022250D01*
X022350Y047050D01*
Y047450D01*
X022250Y047550D01*
X021950D01*
X022850Y046950D02*
X022650D01*
X022550Y047050D01*
Y047250D01*
X022650Y047350D01*
X022850D01*
X022950Y047250D01*
Y047150D01*
X022550D01*
X023150Y046950D02*
X023450D01*
X023549Y047050D01*
X023450Y047150D01*
X023250D01*
X023150Y047250D01*
X023250Y047350D01*
X023549D01*
X023749Y046950D02*
X023949D01*
X023849D01*
Y047350D01*
X023749D01*
X024449Y046750D02*
X024549D01*
X024649Y046850D01*
Y047350D01*
X024349D01*
X024249Y047250D01*
Y047050D01*
X024349Y046950D01*
X024649D01*
X024849D02*
Y047350D01*
X025149D01*
X025249Y047250D01*
Y046950D01*
X025749D02*
X025549D01*
X025449Y047050D01*
Y047250D01*
X025549Y047350D01*
X025749D01*
X025849Y047250D01*
Y047150D01*
X025449D01*
X026449Y047550D02*
Y046950D01*
X026149D01*
X026049Y047050D01*
Y047250D01*
X026149Y047350D01*
X026449D01*
X027248Y047550D02*
Y046950D01*
X027548D01*
X027648Y047050D01*
Y047150D01*
Y047250D01*
X027548Y047350D01*
X027248D01*
X027848D02*
Y047050D01*
X027948Y046950D01*
X028248D01*
Y046850D01*
X028148Y046750D01*
X028048D01*
X028248Y046950D02*
Y047350D01*
X029348Y047550D02*
X029148D01*
X029048Y047450D01*
Y047050D01*
X029148Y046950D01*
X029348D01*
X029448Y047050D01*
Y047450D01*
X029348Y047550D01*
X029648Y047350D02*
Y047050D01*
X029747Y046950D01*
X029847Y047050D01*
X029947Y046950D01*
X030047Y047050D01*
Y047350D01*
X030547Y046950D02*
X030347D01*
X030247Y047050D01*
Y047250D01*
X030347Y047350D01*
X030547D01*
X030647Y047250D01*
Y047150D01*
X030247D01*
X030847Y046950D02*
Y047350D01*
X031147D01*
X031247Y047250D01*
Y046950D01*
X032047Y047550D02*
Y047150D01*
X032247Y046950D01*
X032447Y047150D01*
Y047550D01*
X032747Y047350D02*
X032946D01*
X033046Y047250D01*
Y046950D01*
X032747D01*
X032647Y047050D01*
X032747Y047150D01*
X033046D01*
X033246Y046950D02*
X033446D01*
X033346D01*
Y047550D01*
X033246D01*
X033746Y046950D02*
X033946D01*
X033846D01*
Y047550D01*
X033746D01*
X034246Y046950D02*
X034446D01*
X034346D01*
Y047350D01*
X034246D01*
X034746Y046950D02*
X035046D01*
X035146Y047050D01*
X035046Y047150D01*
X034846D01*
X034746Y047250D01*
X034846Y047350D01*
X035146D01*
X036345Y046950D02*
X035945D01*
X036345Y047350D01*
Y047450D01*
X036245Y047550D01*
X036045D01*
X035945Y047450D01*
X036545D02*
X036645Y047550D01*
X036845D01*
X036945Y047450D01*
Y047050D01*
X036845Y046950D01*
X036645D01*
X036545Y047050D01*
Y047450D01*
X037145Y046950D02*
X037345D01*
X037245D01*
Y047550D01*
X037145Y047450D01*
X037645Y046950D02*
X037845D01*
X037745D01*
Y047550D01*
X037645Y047450D01*
X022350Y048500D02*
X022250Y048600D01*
X022050D01*
X021950Y048500D01*
Y048100D01*
X022050Y048000D01*
X022250D01*
X022350Y048100D01*
X022550Y048600D02*
Y048000D01*
Y048300D01*
X022650Y048400D01*
X022850D01*
X022950Y048300D01*
Y048000D01*
X023150Y048400D02*
Y048000D01*
Y048200D01*
X023250Y048300D01*
X023350Y048400D01*
X023450D01*
X023849Y048000D02*
X024049D01*
X024149Y048100D01*
Y048300D01*
X024049Y048400D01*
X023849D01*
X023749Y048300D01*
Y048100D01*
X023849Y048000D01*
X024349D02*
Y048400D01*
X024649D01*
X024749Y048300D01*
Y048000D01*
X025049D02*
X025249D01*
X025349Y048100D01*
Y048300D01*
X025249Y048400D01*
X025049D01*
X024949Y048300D01*
Y048100D01*
X025049Y048000D01*
X025549D02*
Y048400D01*
X025649D01*
X025749Y048300D01*
Y048000D01*
Y048300D01*
X025849Y048400D01*
X025949Y048300D01*
Y048000D01*
X026449D02*
X026249D01*
X026149Y048100D01*
Y048300D01*
X026249Y048400D01*
X026449D01*
X026549Y048300D01*
Y048200D01*
X026149D01*
X027748Y048500D02*
X027648Y048600D01*
X027448D01*
X027348Y048500D01*
Y048400D01*
X027448Y048300D01*
X027648D01*
X027748Y048200D01*
Y048100D01*
X027648Y048000D01*
X027448D01*
X027348Y048100D01*
X027948Y048600D02*
Y048000D01*
Y048300D01*
X028048Y048400D01*
X028248D01*
X028348Y048300D01*
Y048000D01*
X028548D02*
X028748D01*
X028648D01*
Y048400D01*
X028548D01*
X029348Y048000D02*
X029148D01*
X029048Y048100D01*
Y048300D01*
X029148Y048400D01*
X029348D01*
X029448Y048300D01*
Y048200D01*
X029048D01*
X029648Y048000D02*
X029847D01*
X029747D01*
Y048600D01*
X029648D01*
X030547D02*
Y048000D01*
X030247D01*
X030147Y048100D01*
Y048300D01*
X030247Y048400D01*
X030547D01*
X031347Y048600D02*
Y048200D01*
X031547Y048000D01*
X031747Y048200D01*
Y048600D01*
X032347Y048000D02*
X031947D01*
X032347Y048400D01*
Y048500D01*
X032247Y048600D01*
X032047D01*
X031947Y048500D01*
X032547Y048000D02*
Y048100D01*
X032647D01*
Y048000D01*
X032547D01*
X033446D02*
X033046D01*
X033446Y048400D01*
Y048500D01*
X033346Y048600D01*
X033146D01*
X033046Y048500D01*
X052800Y043800D02*
X052400D01*
X052200Y044000D01*
X052400Y044200D01*
X052800D01*
X052500D01*
Y043800D01*
X052200Y044400D02*
X052800D01*
Y044700D01*
X052700Y044800D01*
X052300D01*
X052200Y044700D01*
Y044400D01*
X052300Y045399D02*
X052200Y045300D01*
Y045100D01*
X052300Y045000D01*
X052700D01*
X052800Y045100D01*
Y045300D01*
X052700Y045399D01*
X052800Y046199D02*
X052200D01*
Y046499D01*
X052300Y046599D01*
X052500D01*
X052600Y046499D01*
Y046199D01*
Y046399D02*
X052800Y046599D01*
Y046899D02*
Y047099D01*
X052700Y047199D01*
X052500D01*
X052400Y047099D01*
Y046899D01*
X052500Y046799D01*
X052700D01*
X052800Y046899D01*
X052400Y047399D02*
X052700D01*
X052800Y047499D01*
X052700Y047599D01*
X052800Y047699D01*
X052700Y047799D01*
X052400D01*
X052200Y048898D02*
Y048698D01*
X052300Y048598D01*
X052700D01*
X052800Y048698D01*
Y048898D01*
X052700Y048998D01*
X052300D01*
X052200Y048898D01*
X052400Y049198D02*
X052700D01*
X052800Y049298D01*
Y049598D01*
X052400D01*
X052300Y049898D02*
X052400D01*
Y049798D01*
Y049998D01*
Y049898D01*
X052700D01*
X052800Y049998D01*
X040000Y038500D02*
Y038900D01*
X040200Y039100D01*
X040400Y038900D01*
Y038500D01*
Y038800D01*
X040000D01*
X040600Y038900D02*
Y038600D01*
X040700Y038500D01*
X041000D01*
Y038900D01*
X041200D02*
X041599Y038500D01*
X041400Y038700D01*
X041599Y038900D01*
X041200Y038500D01*
X042399D02*
Y038900D01*
X042599Y039100D01*
X042799Y038900D01*
Y038500D01*
Y038800D01*
X042399D01*
X042999Y038500D02*
Y038900D01*
X043299D01*
X043399Y038800D01*
Y038500D01*
X043699Y038900D02*
X043899D01*
X043999Y038800D01*
Y038500D01*
X043699D01*
X043599Y038600D01*
X043699Y038700D01*
X043999D01*
X044199Y038500D02*
X044399D01*
X044299D01*
Y039100D01*
X044199D01*
X044798Y038500D02*
X044998D01*
X045098Y038600D01*
Y038800D01*
X044998Y038900D01*
X044798D01*
X044698Y038800D01*
Y038600D01*
X044798Y038500D01*
X045498Y038300D02*
X045598D01*
X045698Y038400D01*
Y038900D01*
X045398D01*
X045298Y038800D01*
Y038600D01*
X045398Y038500D01*
X045698D01*
X030000D02*
Y038900D01*
X030200Y039100D01*
X030400Y038900D01*
Y038500D01*
Y038800D01*
X030000D01*
X030600Y039100D02*
Y038500D01*
X030900D01*
X031000Y038600D01*
Y039000D01*
X030900Y039100D01*
X030600D01*
X031599Y039000D02*
X031500Y039100D01*
X031300D01*
X031200Y039000D01*
Y038600D01*
X031300Y038500D01*
X031500D01*
X031599Y038600D01*
X032799Y039000D02*
X032699Y039100D01*
X032499D01*
X032399Y039000D01*
Y038600D01*
X032499Y038500D01*
X032699D01*
X032799Y038600D01*
X033099Y038500D02*
X033299D01*
X033399Y038600D01*
Y038800D01*
X033299Y038900D01*
X033099D01*
X032999Y038800D01*
Y038600D01*
X033099Y038500D01*
X033599D02*
X033799D01*
X033699D01*
Y039100D01*
X033599D01*
X034698D02*
X034898D01*
X034798D01*
Y038500D01*
X034698D01*
X034898D01*
X035198D02*
Y038900D01*
X035498D01*
X035598Y038800D01*
Y038500D01*
X035798Y038300D02*
Y038900D01*
X036098D01*
X036198Y038800D01*
Y038600D01*
X036098Y038500D01*
X035798D01*
X036398Y038900D02*
Y038600D01*
X036498Y038500D01*
X036798D01*
Y038900D01*
X037098Y039000D02*
Y038900D01*
X036998D01*
X037198D01*
X037098D01*
Y038600D01*
X037198Y038500D01*
X037498D02*
X037797D01*
X037897Y038600D01*
X037797Y038700D01*
X037598D01*
X037498Y038800D01*
X037598Y038900D01*
X037897D01*
X052800Y034900D02*
Y035100D01*
Y035000D01*
X052200D01*
X052300Y034900D01*
X027600Y045300D02*
Y045900D01*
X027900D01*
X028000Y045800D01*
Y045600D01*
X027900Y045500D01*
X027600D01*
X027800D02*
X028000Y045300D01*
X028600Y045800D02*
X028500Y045900D01*
X028300D01*
X028200Y045800D01*
Y045400D01*
X028300Y045300D01*
X028500D01*
X028600Y045400D01*
Y045600D01*
X028400D01*
X028800Y045900D02*
Y045300D01*
X029100D01*
X029199Y045400D01*
Y045500D01*
X029100Y045600D01*
X028800D01*
X029100D01*
X029199Y045700D01*
Y045800D01*
X029100Y045900D01*
X028800D01*
X029999D02*
Y045300D01*
X030399D01*
X030999Y045900D02*
X030599D01*
Y045300D01*
X030999D01*
X030599Y045600D02*
X030799D01*
X031199Y045900D02*
Y045300D01*
X031499D01*
X031599Y045400D01*
Y045800D01*
X031499Y045900D01*
X031199D01*
X032199Y045800D02*
X032099Y045900D01*
X031899D01*
X031799Y045800D01*
Y045700D01*
X031899Y045600D01*
X032099D01*
X032199Y045500D01*
Y045400D01*
X032099Y045300D01*
X031899D01*
X031799Y045400D01*
M02*
