%FSAX24Y24*%
%MOIN*%
G70*
G01*
G75*
%ADD10C,0.0120*%
%ADD11C,0.0250*%
%ADD12C,0.0500*%
%ADD13C,0.0591*%
%ADD14R,0.0591X0.0591*%
%ADD15R,0.0591X0.0591*%
%ADD16C,0.0600*%
%ADD17R,0.0600X0.0600*%
%ADD18C,0.0650*%
%ADD19C,0.0400*%
%ADD20C,0.0500*%
%ADD21C,0.0079*%
%ADD22C,0.0197*%
%ADD23C,0.0080*%
%ADD24C,0.0100*%
%ADD25C,0.0671*%
%ADD26R,0.0671X0.0671*%
%ADD27R,0.0671X0.0671*%
%ADD28C,0.0680*%
%ADD29R,0.0680X0.0680*%
%ADD30C,0.0730*%
%ADD31C,0.0480*%
%ADD32C,0.0580*%
%ADD33C,0.0067*%
D33*
X037323Y037500D02*
X037677D01*
X037500Y037323D02*
Y037677D01*
X036323Y037500D02*
X036677D01*
X036500Y037323D02*
Y037677D01*
X035323Y037500D02*
X035677D01*
X035500Y037323D02*
Y037677D01*
X034323Y037500D02*
X034677D01*
X034500Y037323D02*
Y037677D01*
X033323Y037500D02*
X033677D01*
X033500Y037323D02*
Y037677D01*
X032323Y037500D02*
X032677D01*
X032500Y037323D02*
Y037677D01*
X031323Y037500D02*
X031677D01*
X031500Y037323D02*
Y037677D01*
X030323Y037500D02*
X030677D01*
X030500Y037323D02*
Y037677D01*
X037323Y036500D02*
X037677D01*
X037500Y036323D02*
Y036677D01*
X036323Y036500D02*
X036677D01*
X036500Y036323D02*
Y036677D01*
X035323Y036500D02*
X035677D01*
X035500Y036323D02*
Y036677D01*
X034323Y036500D02*
X034677D01*
X034500Y036323D02*
Y036677D01*
X033323Y036500D02*
X033677D01*
X033500Y036323D02*
Y036677D01*
X032323Y036500D02*
X032677D01*
X032500Y036323D02*
Y036677D01*
X031323Y036500D02*
X031677D01*
X031500Y036323D02*
Y036677D01*
X030323Y036500D02*
X030677D01*
X030500Y036323D02*
Y036677D01*
X047323Y037500D02*
X047677D01*
X047500Y037323D02*
Y037677D01*
X046323Y037500D02*
X046677D01*
X046500Y037323D02*
Y037677D01*
X045323Y037500D02*
X045677D01*
X045500Y037323D02*
Y037677D01*
X044323Y037500D02*
X044677D01*
X044500Y037323D02*
Y037677D01*
X043323Y037500D02*
X043677D01*
X043500Y037323D02*
Y037677D01*
X042323Y037500D02*
X042677D01*
X042500Y037323D02*
Y037677D01*
X041323Y037500D02*
X041677D01*
X041500Y037323D02*
Y037677D01*
X040323Y037500D02*
X040677D01*
X040500Y037323D02*
Y037677D01*
X047323Y036500D02*
X047677D01*
X047500Y036323D02*
Y036677D01*
X046323Y036500D02*
X046677D01*
X046500Y036323D02*
Y036677D01*
X045323Y036500D02*
X045677D01*
X045500Y036323D02*
Y036677D01*
X044323Y036500D02*
X044677D01*
X044500Y036323D02*
Y036677D01*
X043323Y036500D02*
X043677D01*
X043500Y036323D02*
Y036677D01*
X042323Y036500D02*
X042677D01*
X042500Y036323D02*
Y036677D01*
X041323Y036500D02*
X041677D01*
X041500Y036323D02*
Y036677D01*
X040323Y036500D02*
X040677D01*
X040500Y036323D02*
Y036677D01*
X049573Y050000D02*
X049927D01*
X049750Y049823D02*
Y050177D01*
X050573Y050000D02*
X050927D01*
X050750Y049823D02*
Y050177D01*
X049573Y049000D02*
X049927D01*
X049750Y048823D02*
Y049177D01*
X050573Y049000D02*
X050927D01*
X050750Y048823D02*
Y049177D01*
X049573Y048000D02*
X049927D01*
X049750Y047823D02*
Y048177D01*
X050573Y048000D02*
X050927D01*
X050750Y047823D02*
Y048177D01*
X049573Y047000D02*
X049927D01*
X049750Y046823D02*
Y047177D01*
X050573Y047000D02*
X050927D01*
X050750Y046823D02*
Y047177D01*
X049573Y046000D02*
X049927D01*
X049750Y045823D02*
Y046177D01*
X050573Y046000D02*
X050927D01*
X050750Y045823D02*
Y046177D01*
X049573Y045000D02*
X049927D01*
X049750Y044823D02*
Y045177D01*
X050573Y045000D02*
X050927D01*
X050750Y044823D02*
Y045177D01*
X049573Y044000D02*
X049927D01*
X049750Y043823D02*
Y044177D01*
X050573Y044000D02*
X050927D01*
X050750Y043823D02*
Y044177D01*
X049573Y043000D02*
X049927D01*
X049750Y042823D02*
Y043177D01*
X050573Y043000D02*
X050927D01*
X050750Y042823D02*
Y043177D01*
X049573Y042000D02*
X049927D01*
X049750Y041823D02*
Y042177D01*
X050573Y042000D02*
X050927D01*
X050750Y041823D02*
Y042177D01*
X049573Y041000D02*
X049927D01*
X049750Y040823D02*
Y041177D01*
X050573Y041000D02*
X050927D01*
X050750Y040823D02*
Y041177D01*
X049573Y040000D02*
X049927D01*
X049750Y039823D02*
Y040177D01*
X050573Y040000D02*
X050927D01*
X050750Y039823D02*
Y040177D01*
X049573Y039000D02*
X049927D01*
X049750Y038823D02*
Y039177D01*
X050573Y039000D02*
X050927D01*
X050750Y038823D02*
Y039177D01*
X049573Y038000D02*
X049927D01*
X049750Y037823D02*
Y038177D01*
X050573Y038000D02*
X050927D01*
X050750Y037823D02*
Y038177D01*
X049573Y037000D02*
X049927D01*
X049750Y036823D02*
Y037177D01*
X050573Y037000D02*
X050927D01*
X050750Y036823D02*
Y037177D01*
X049573Y036000D02*
X049927D01*
X049750Y035823D02*
Y036177D01*
X050573Y036000D02*
X050927D01*
X050750Y035823D02*
Y036177D01*
X049573Y035000D02*
X049927D01*
X049750Y034823D02*
Y035177D01*
X050573Y035000D02*
X050927D01*
X050750Y034823D02*
Y035177D01*
X049573Y034000D02*
X049927D01*
X049750Y033823D02*
Y034177D01*
X050573Y034000D02*
X050927D01*
X050750Y033823D02*
Y034177D01*
X049573Y033000D02*
X049927D01*
X049750Y032823D02*
Y033177D01*
X050573Y033000D02*
X050927D01*
X050750Y032823D02*
Y033177D01*
X030823Y031000D02*
X031177D01*
X031000Y030823D02*
Y031177D01*
X029823Y031000D02*
X030177D01*
X030000Y030823D02*
Y031177D01*
X028823Y031000D02*
X029177D01*
X029000Y030823D02*
Y031177D01*
X027823Y031000D02*
X028177D01*
X028000Y030823D02*
Y031177D01*
X026823Y031000D02*
X027177D01*
X027000Y030823D02*
Y031177D01*
X025823Y031000D02*
X026177D01*
X026000Y030823D02*
Y031177D01*
X048823Y031000D02*
X049177D01*
X049000Y030823D02*
Y031177D01*
X047823Y031000D02*
X048177D01*
X048000Y030823D02*
Y031177D01*
X046823Y031000D02*
X047177D01*
X047000Y030823D02*
Y031177D01*
X045823Y031000D02*
X046177D01*
X046000Y030823D02*
Y031177D01*
X044823Y031000D02*
X045177D01*
X045000Y030823D02*
Y031177D01*
X043823Y031000D02*
X044177D01*
X044000Y030823D02*
Y031177D01*
X042823Y031000D02*
X043177D01*
X043000Y030823D02*
Y031177D01*
X041823Y031000D02*
X042177D01*
X042000Y030823D02*
Y031177D01*
X039823Y031000D02*
X040177D01*
X040000Y030823D02*
Y031177D01*
X038823Y031000D02*
X039177D01*
X039000Y030823D02*
Y031177D01*
X037823Y031000D02*
X038177D01*
X038000Y030823D02*
Y031177D01*
X036823Y031000D02*
X037177D01*
X037000Y030823D02*
Y031177D01*
X035823Y031000D02*
X036177D01*
X036000Y030823D02*
Y031177D01*
X034823Y031000D02*
X035177D01*
X035000Y030823D02*
Y031177D01*
X033823Y031000D02*
X034177D01*
X034000Y030823D02*
Y031177D01*
X032823Y031000D02*
X033177D01*
X033000Y030823D02*
Y031177D01*
X039573Y050000D02*
X039927D01*
X039750Y049823D02*
Y050177D01*
X040573Y050000D02*
X040927D01*
X040750Y049823D02*
Y050177D01*
X041573Y050000D02*
X041927D01*
X041750Y049823D02*
Y050177D01*
X042573Y050000D02*
X042927D01*
X042750Y049823D02*
Y050177D01*
X043573Y050000D02*
X043927D01*
X043750Y049823D02*
Y050177D01*
X044573Y050000D02*
X044927D01*
X044750Y049823D02*
Y050177D01*
X045573Y050000D02*
X045927D01*
X045750Y049823D02*
Y050177D01*
X046573Y050000D02*
X046927D01*
X046750Y049823D02*
Y050177D01*
X030573Y050000D02*
X030927D01*
X030750Y049823D02*
Y050177D01*
X031573Y050000D02*
X031927D01*
X031750Y049823D02*
Y050177D01*
X032573Y050000D02*
X032927D01*
X032750Y049823D02*
Y050177D01*
X033573Y050000D02*
X033927D01*
X033750Y049823D02*
Y050177D01*
X034573Y050000D02*
X034927D01*
X034750Y049823D02*
Y050177D01*
X035573Y050000D02*
X035927D01*
X035750Y049823D02*
Y050177D01*
X036573Y050000D02*
X036927D01*
X036750Y049823D02*
Y050177D01*
X037573Y050000D02*
X037927D01*
X037750Y049823D02*
Y050177D01*
X022073Y050000D02*
X022427D01*
X022250Y049823D02*
Y050177D01*
X023073Y050000D02*
X023427D01*
X023250Y049823D02*
Y050177D01*
X024073Y050000D02*
X024427D01*
X024250Y049823D02*
Y050177D01*
X025073Y050000D02*
X025427D01*
X025250Y049823D02*
Y050177D01*
X026073Y050000D02*
X026427D01*
X026250Y049823D02*
Y050177D01*
X027073Y050000D02*
X027427D01*
X027250Y049823D02*
Y050177D01*
X028073Y050000D02*
X028427D01*
X028250Y049823D02*
Y050177D01*
X029073Y050000D02*
X029427D01*
X029250Y049823D02*
Y050177D01*
X047350Y032750D02*
X047650D01*
X047500Y032600D02*
Y032900D01*
X046350Y032750D02*
X046650D01*
X046500Y032600D02*
Y032900D01*
X045350Y032750D02*
X045650D01*
X045500Y032600D02*
Y032900D01*
X044350Y032750D02*
X044650D01*
X044500Y032600D02*
Y032900D01*
X043350Y032750D02*
X043650D01*
X043500Y032600D02*
Y032900D01*
X042350Y032750D02*
X042650D01*
X042500Y032600D02*
Y032900D01*
X041350Y032750D02*
X041650D01*
X041500Y032600D02*
Y032900D01*
X040350Y032750D02*
X040650D01*
X040500Y032600D02*
Y032900D01*
X039350Y032750D02*
X039650D01*
X039500Y032600D02*
Y032900D01*
X052323Y043000D02*
X052677D01*
X052500Y042823D02*
Y043177D01*
X052323Y042000D02*
X052677D01*
X052500Y041823D02*
Y042177D01*
X052323Y041000D02*
X052677D01*
X052500Y040823D02*
Y041177D01*
X052323Y040000D02*
X052677D01*
X052500Y039823D02*
Y040177D01*
X052323Y039000D02*
X052677D01*
X052500Y038823D02*
Y039177D01*
X052323Y038000D02*
X052677D01*
X052500Y037823D02*
Y038177D01*
X052323Y037000D02*
X052677D01*
X052500Y036823D02*
Y037177D01*
X052323Y036000D02*
X052677D01*
X052500Y035823D02*
Y036177D01*
X027823Y043250D02*
X028177D01*
X028000Y043073D02*
Y043427D01*
X028823Y043250D02*
X029177D01*
X029000Y043073D02*
Y043427D01*
X029823Y043250D02*
X030177D01*
X030000Y043073D02*
Y043427D01*
X030823Y043250D02*
X031177D01*
X031000Y043073D02*
Y043427D01*
X031823Y043250D02*
X032177D01*
X032000Y043073D02*
Y043427D01*
X032823Y043250D02*
X033177D01*
X033000Y043073D02*
Y043427D01*
X033823Y043250D02*
X034177D01*
X034000Y043073D02*
Y043427D01*
X034823Y043250D02*
X035177D01*
X035000Y043073D02*
Y043427D01*
X035823Y043250D02*
X036177D01*
X036000Y043073D02*
Y043427D01*
X036823Y043250D02*
X037177D01*
X037000Y043073D02*
Y043427D01*
X027823Y044250D02*
X028177D01*
X028000Y044073D02*
Y044427D01*
X028823Y044250D02*
X029177D01*
X029000Y044073D02*
Y044427D01*
X029823Y044250D02*
X030177D01*
X030000Y044073D02*
Y044427D01*
X030823Y044250D02*
X031177D01*
X031000Y044073D02*
Y044427D01*
X031823Y044250D02*
X032177D01*
X032000Y044073D02*
Y044427D01*
X032823Y044250D02*
X033177D01*
X033000Y044073D02*
Y044427D01*
X033823Y044250D02*
X034177D01*
X034000Y044073D02*
Y044427D01*
X034823Y044250D02*
X035177D01*
X035000Y044073D02*
Y044427D01*
X035823Y044250D02*
X036177D01*
X036000Y044073D02*
Y044427D01*
X036823Y044250D02*
X037177D01*
X037000Y044073D02*
Y044427D01*
X030303Y032750D02*
X030697D01*
X030500Y032553D02*
Y032947D01*
X029303Y032750D02*
X029697D01*
X029500Y032553D02*
Y032947D01*
X035303Y032750D02*
X035697D01*
X035500Y032553D02*
Y032947D01*
X034303Y032750D02*
X034697D01*
X034500Y032553D02*
Y032947D01*
X032803Y032750D02*
X033197D01*
X033000Y032553D02*
Y032947D01*
X031803Y032750D02*
X032197D01*
X032000Y032553D02*
Y032947D01*
X032553Y034750D02*
X032947D01*
X032750Y034553D02*
Y034947D01*
X033553Y034750D02*
X033947D01*
X033750Y034553D02*
Y034947D01*
X035053Y034750D02*
X035447D01*
X035250Y034553D02*
Y034947D01*
X036053Y034750D02*
X036447D01*
X036250Y034553D02*
Y034947D01*
X037803Y032750D02*
X038197D01*
X038000Y032553D02*
Y032947D01*
X036803Y032750D02*
X037197D01*
X037000Y032553D02*
Y032947D01*
X037553Y034750D02*
X037947D01*
X037750Y034553D02*
Y034947D01*
X038553Y034750D02*
X038947D01*
X038750Y034553D02*
Y034947D01*
X030053Y034750D02*
X030447D01*
X030250Y034553D02*
Y034947D01*
X031053Y034750D02*
X031447D01*
X031250Y034553D02*
Y034947D01*
X045400Y041000D02*
X045600D01*
X045500Y040900D02*
Y041100D01*
X038607Y040503D02*
X038887D01*
X038747Y040363D02*
Y040643D01*
X037607Y040503D02*
X037887D01*
X037747Y040363D02*
Y040643D01*
M02*
