%FSAX24Y24*%
%MOIN*%
G70*
G01*
G75*
G04 Layer_Physical_Order=2*
G04 Layer_Color=16711680*
%ADD10C,0.0120*%
%ADD11C,0.0250*%
%ADD12C,0.0500*%
%ADD13C,0.0591*%
%ADD14R,0.0591X0.0591*%
%ADD15R,0.0591X0.0591*%
%ADD16C,0.0600*%
%ADD17R,0.0600X0.0600*%
%ADD18C,0.0650*%
%ADD19C,0.0400*%
%ADD20C,0.0500*%
D10*
X050250Y040500D02*
X050750Y041000D01*
X037250Y040000D02*
X049750D01*
X050250Y039500D02*
X050750Y040000D01*
X036750Y039500D02*
X050250D01*
X029000Y031000D02*
X029100D01*
X045500Y040900D02*
Y041000D01*
X045475Y041025D02*
X046950Y042500D01*
X050250D01*
X050750Y043000D01*
X033000Y043250D02*
X036750Y039500D01*
X034000Y043250D02*
X037250Y040000D01*
X039750Y040500D02*
X050250D01*
X036900Y043200D02*
X037100D01*
X037000Y043250D02*
X039750Y040500D01*
X035000Y043250D02*
X037747Y040503D01*
X036000Y043250D02*
X038747Y040503D01*
D11*
X047500Y032750D02*
Y036500D01*
X046500Y032750D02*
Y036500D01*
X045500Y032750D02*
Y036500D01*
X044500Y032750D02*
Y036500D01*
X043500Y032750D02*
Y036500D01*
X042500Y032750D02*
Y036500D01*
X041500Y032750D02*
Y036500D01*
X040500Y032750D02*
Y036500D01*
D12*
X030500Y037500D02*
X031500D01*
X032500D01*
X033500D01*
X034500D01*
X035500D01*
X036500D01*
X037500D01*
X032750Y034750D02*
X033000Y034500D01*
X035250Y034750D02*
X035500Y034500D01*
X037750Y034750D02*
X038000Y034500D01*
X030250Y034750D02*
X030500Y034500D01*
Y033750D02*
Y034500D01*
Y033750D02*
X033000D01*
X035500D01*
Y032750D02*
Y033750D01*
Y034500D01*
X033000Y032750D02*
Y033750D01*
Y034500D01*
X029000Y035200D02*
X029450Y034750D01*
X030250D01*
X029000Y035200D02*
Y037050D01*
X029450Y037500D01*
X030500D01*
X030000Y031000D02*
X030500Y031500D01*
X029100Y031000D02*
X030000D01*
X038000Y032750D02*
Y033750D01*
X035500D02*
X038000D01*
Y034500D01*
Y033750D02*
X038500D01*
X030500Y031500D02*
Y032750D01*
Y033750D01*
X038500D02*
X039500Y032750D01*
X036000Y044250D02*
X037000D01*
X035000D02*
X036000D01*
X034000D02*
X035000D01*
X033000D02*
X034000D01*
X032280Y044925D02*
X032955Y044250D01*
X028325Y044925D02*
X032280D01*
X023250Y050000D02*
X028325Y044925D01*
D13*
X037500Y037500D02*
D03*
X036500D02*
D03*
X035500D02*
D03*
X034500D02*
D03*
X033500D02*
D03*
X032500D02*
D03*
X031500D02*
D03*
X030500D02*
D03*
X037500Y036500D02*
D03*
X036500D02*
D03*
X035500D02*
D03*
X034500D02*
D03*
X033500D02*
D03*
X032500D02*
D03*
X031500D02*
D03*
X047500Y037500D02*
D03*
X046500D02*
D03*
X045500D02*
D03*
X044500D02*
D03*
X043500D02*
D03*
X042500D02*
D03*
X041500D02*
D03*
X040500D02*
D03*
X047500Y036500D02*
D03*
X046500D02*
D03*
X045500D02*
D03*
X044500D02*
D03*
X043500D02*
D03*
X042500D02*
D03*
X041500D02*
D03*
X050750Y050000D02*
D03*
X049750Y049000D02*
D03*
X050750D02*
D03*
X049750Y048000D02*
D03*
X050750D02*
D03*
X049750Y047000D02*
D03*
X050750D02*
D03*
X049750Y046000D02*
D03*
X050750D02*
D03*
X049750Y045000D02*
D03*
X050750D02*
D03*
X049750Y044000D02*
D03*
X050750D02*
D03*
X049750Y043000D02*
D03*
X050750D02*
D03*
X049750Y042000D02*
D03*
X050750D02*
D03*
X049750Y041000D02*
D03*
X050750D02*
D03*
X049750Y040000D02*
D03*
X050750D02*
D03*
X049750Y039000D02*
D03*
X050750D02*
D03*
X049750Y038000D02*
D03*
X050750D02*
D03*
X049750Y037000D02*
D03*
X050750D02*
D03*
X049750Y036000D02*
D03*
X050750D02*
D03*
X049750Y035000D02*
D03*
X050750D02*
D03*
X049750Y034000D02*
D03*
X050750D02*
D03*
X049750Y033000D02*
D03*
X050750D02*
D03*
X031000Y031000D02*
D03*
X030000D02*
D03*
X029000D02*
D03*
X028000D02*
D03*
X027000D02*
D03*
X049000D02*
D03*
X048000D02*
D03*
X047000D02*
D03*
X046000D02*
D03*
X045000D02*
D03*
X044000D02*
D03*
X043000D02*
D03*
X040000D02*
D03*
X039000D02*
D03*
X038000D02*
D03*
X037000D02*
D03*
X036000D02*
D03*
X035000D02*
D03*
X034000D02*
D03*
X039750Y050000D02*
D03*
X040750D02*
D03*
X041750D02*
D03*
X042750D02*
D03*
X043750D02*
D03*
X044750D02*
D03*
X045750D02*
D03*
X030750D02*
D03*
X031750D02*
D03*
X032750D02*
D03*
X033750D02*
D03*
X034750D02*
D03*
X035750D02*
D03*
X036750D02*
D03*
X022250D02*
D03*
X023250D02*
D03*
X024250D02*
D03*
X025250D02*
D03*
X026250D02*
D03*
X027250D02*
D03*
X028250D02*
D03*
X052500Y043000D02*
D03*
Y042000D02*
D03*
Y041000D02*
D03*
Y040000D02*
D03*
Y039000D02*
D03*
Y038000D02*
D03*
Y037000D02*
D03*
X029000Y043250D02*
D03*
X030000D02*
D03*
X031000D02*
D03*
X032000D02*
D03*
X033000D02*
D03*
X034000D02*
D03*
X035000D02*
D03*
X036000D02*
D03*
X037000D02*
D03*
X028000Y044250D02*
D03*
X029000D02*
D03*
X030000D02*
D03*
X031000D02*
D03*
X032000D02*
D03*
X033000D02*
D03*
X034000D02*
D03*
X035000D02*
D03*
X036000D02*
D03*
X037000D02*
D03*
D14*
X030500Y036500D02*
D03*
X040500D02*
D03*
X026000Y031000D02*
D03*
X042000D02*
D03*
X033000D02*
D03*
X046750Y050000D02*
D03*
X037750D02*
D03*
X029250D02*
D03*
X028000Y043250D02*
D03*
D15*
X049750Y050000D02*
D03*
X052500Y036000D02*
D03*
D16*
X047500Y032750D02*
D03*
X046500D02*
D03*
X045500D02*
D03*
X044500D02*
D03*
X043500D02*
D03*
X042500D02*
D03*
X041500D02*
D03*
X040500D02*
D03*
D17*
X039500D02*
D03*
D18*
X030500D02*
D03*
X029500D02*
D03*
X035500D02*
D03*
X034500D02*
D03*
X033000D02*
D03*
X032000D02*
D03*
X032750Y034750D02*
D03*
X033750D02*
D03*
X035250D02*
D03*
X036250D02*
D03*
X038000Y032750D02*
D03*
X037000D02*
D03*
X037750Y034750D02*
D03*
X038750D02*
D03*
X030250D02*
D03*
X031250D02*
D03*
D19*
X045500Y041000D02*
D03*
D20*
X038747Y040503D02*
D03*
X037747Y040503D02*
D03*
M02*
