%FSAX24Y24*%
%MOIN*%
G70*
G01*
G75*
G04 Layer_Physical_Order=1*
G04 Layer_Color=255*
%ADD10C,0.0120*%
%ADD11C,0.0250*%
%ADD12C,0.0500*%
%ADD13C,0.0591*%
%ADD14R,0.0591X0.0591*%
%ADD15R,0.0591X0.0591*%
%ADD16C,0.0600*%
%ADD17R,0.0600X0.0600*%
%ADD18C,0.0650*%
%ADD19C,0.0400*%
%ADD20C,0.0500*%
D10*
X044400Y048000D02*
X049750D01*
X044300Y049000D02*
X049750D01*
X050000Y047500D02*
X050235Y047735D01*
Y048485D01*
X050750Y049000D01*
X045000Y047500D02*
X050000D01*
X051500Y040500D02*
Y041000D01*
X051240Y040240D02*
X051500Y040500D01*
X051240Y039490D02*
Y040240D01*
X051010Y037510D02*
X052500Y039000D01*
X049750Y038000D02*
X050260Y038510D01*
X050000Y036000D02*
X050500Y036500D01*
X049750Y036000D02*
X050000D01*
X050500Y036500D02*
X051270D01*
X049750Y037000D02*
X050260Y037510D01*
X051000Y040515D02*
X051235Y040750D01*
Y041735D01*
X050000Y042490D02*
X050250Y042740D01*
X050240Y041490D02*
X050750Y042000D01*
Y039000D02*
X051240Y039490D01*
X032750Y031000D02*
X033000D01*
X050500Y040515D02*
X051000D01*
X050250Y040265D02*
X050500Y040515D01*
X050250Y039500D02*
Y040265D01*
X049750Y039000D02*
X050250Y039500D01*
X050260Y037510D02*
X051010D01*
X050250Y043500D02*
X050750Y044000D01*
X050250Y042740D02*
Y043500D01*
Y044500D02*
X050750Y045000D01*
X045500Y037550D02*
Y041000D01*
X043000Y037250D02*
X043250Y037000D01*
X044000D01*
X044500Y037500D01*
X046020Y043000D02*
X049750D01*
X043000Y037250D02*
Y039980D01*
X046020Y043000D01*
X041000Y034000D02*
X049750D01*
X038500Y036500D02*
X041000Y034000D01*
X050250Y034500D02*
X050750Y035000D01*
X041200Y034500D02*
X050250D01*
X039000Y036700D02*
X041200Y034500D01*
X039000Y036700D02*
Y040250D01*
X038747Y040503D02*
X039000Y040250D01*
X038747Y040503D02*
Y040503D01*
X038500Y036500D02*
Y039750D01*
X037747Y040503D02*
X038500Y039750D01*
X050260Y038510D02*
X051000D01*
X051580Y039090D01*
X050750Y038000D02*
X050900D01*
X051910Y039010D01*
Y039410D01*
X037300Y042000D02*
X044300Y049000D01*
X032250Y042000D02*
X037300D01*
X031750Y041500D02*
X037900D01*
X044400Y048000D01*
X031000Y043250D02*
X032250Y042000D01*
X030000Y043250D02*
X031750Y041500D01*
X038500Y041000D02*
X045000Y047500D01*
X029000Y043250D02*
X031250Y041000D01*
X038500D01*
X026250Y050000D02*
X026750Y049500D01*
X032000Y043250D02*
X032485Y043735D01*
X026750Y049500D02*
X027700D01*
X032485Y044715D01*
Y043735D02*
Y044715D01*
X050750Y036000D02*
X052500D01*
X050500Y036500D02*
X052000D01*
X052500Y037000D01*
X050750D02*
X051500D01*
X052500Y038000D01*
X051910Y039410D02*
X052500Y040000D01*
X051580Y040080D02*
X052500Y041000D01*
X051580Y039090D02*
Y040080D01*
X051500Y041000D02*
X052500Y042000D01*
X051235Y041735D02*
X052500Y043000D01*
X042500Y037500D02*
Y040000D01*
X046500Y044000D01*
X049750D01*
X041500Y037500D02*
Y040000D01*
X046000Y044500D01*
X050250D01*
X043500Y037500D02*
Y040000D01*
X045990Y042490D01*
X050000D01*
X040500Y037500D02*
Y040000D01*
X045500Y045000D01*
X049750D01*
X046500Y037500D02*
Y040000D01*
X048500Y042000D01*
X049750D01*
X047500Y037500D02*
Y040000D01*
X048990Y041490D01*
X050240D01*
D11*
X037028Y032750D02*
X038778Y031000D01*
X037028Y032750D02*
Y034458D01*
X036500Y036500D02*
X037028Y035972D01*
Y034458D02*
Y035972D01*
X035500Y036500D02*
X036250Y035750D01*
Y032680D02*
X037930Y031000D01*
X036250Y032680D02*
Y034750D01*
Y035750D01*
X034500Y032750D02*
Y036500D01*
X035778Y032000D02*
X036778Y031000D01*
X035450Y031550D02*
X036000Y031000D01*
X033500Y036000D02*
Y036500D01*
Y036000D02*
X033750Y035750D01*
Y032680D02*
Y035750D01*
X032500Y036000D02*
Y036500D01*
X032000Y035500D02*
X032500Y036000D01*
X032000Y032750D02*
Y035500D01*
X034500Y032750D02*
X035250Y032000D01*
X035778D01*
X033750Y032680D02*
X034880Y031550D01*
X035450D01*
X033608Y032170D02*
X034778Y031000D01*
X032000Y032750D02*
X032580Y032170D01*
X033608D01*
X033210Y031790D02*
X034000Y031000D01*
X031250Y032680D02*
Y035750D01*
X031500Y036000D01*
Y036500D01*
X029500Y035500D02*
X030500Y036500D01*
X029500Y032750D02*
Y035500D01*
X031250Y032680D02*
X032140Y031790D01*
X033210D01*
X032000Y031000D02*
X033000D01*
X029500Y032750D02*
X030250Y032000D01*
X031000D01*
X032000Y031000D01*
X038750Y032250D02*
X040000Y031000D01*
X038750Y032250D02*
Y035000D01*
X037500Y036250D02*
X038750Y035000D01*
X040500Y032750D02*
X042000Y031250D01*
X041500Y032750D02*
X043000Y031250D01*
Y031000D02*
Y031250D01*
X042500Y032750D02*
X044000Y031250D01*
Y031000D02*
Y031250D01*
X043500Y032750D02*
X045000Y031250D01*
X044500Y032750D02*
X046000Y031250D01*
X045500Y032750D02*
X047000Y031250D01*
X046500Y032750D02*
X048000Y031250D01*
X047500Y032750D02*
X049000Y031250D01*
D12*
X028000Y031000D02*
Y043250D01*
Y044250D01*
X029000D01*
X030000D01*
X031000D01*
X032000D01*
X032955D02*
X033000D01*
D13*
X037500Y037500D02*
D03*
X036500D02*
D03*
X035500D02*
D03*
X034500D02*
D03*
X033500D02*
D03*
X032500D02*
D03*
X031500D02*
D03*
X030500D02*
D03*
X037500Y036500D02*
D03*
X036500D02*
D03*
X035500D02*
D03*
X034500D02*
D03*
X033500D02*
D03*
X032500D02*
D03*
X031500D02*
D03*
X047500Y037500D02*
D03*
X046500D02*
D03*
X045500D02*
D03*
X044500D02*
D03*
X043500D02*
D03*
X042500D02*
D03*
X041500D02*
D03*
X040500D02*
D03*
X047500Y036500D02*
D03*
X046500D02*
D03*
X045500D02*
D03*
X044500D02*
D03*
X043500D02*
D03*
X042500D02*
D03*
X041500D02*
D03*
X050750Y050000D02*
D03*
X049750Y049000D02*
D03*
X050750D02*
D03*
X049750Y048000D02*
D03*
X050750D02*
D03*
X049750Y047000D02*
D03*
X050750D02*
D03*
X049750Y046000D02*
D03*
X050750D02*
D03*
X049750Y045000D02*
D03*
X050750D02*
D03*
X049750Y044000D02*
D03*
X050750D02*
D03*
X049750Y043000D02*
D03*
X050750D02*
D03*
X049750Y042000D02*
D03*
X050750D02*
D03*
X049750Y041000D02*
D03*
X050750D02*
D03*
X049750Y040000D02*
D03*
X050750D02*
D03*
X049750Y039000D02*
D03*
X050750D02*
D03*
X049750Y038000D02*
D03*
X050750D02*
D03*
X049750Y037000D02*
D03*
X050750D02*
D03*
X049750Y036000D02*
D03*
X050750D02*
D03*
X049750Y035000D02*
D03*
X050750D02*
D03*
X049750Y034000D02*
D03*
X050750D02*
D03*
X049750Y033000D02*
D03*
X050750D02*
D03*
X031000Y031000D02*
D03*
X030000D02*
D03*
X029000D02*
D03*
X028000D02*
D03*
X027000D02*
D03*
X049000D02*
D03*
X048000D02*
D03*
X047000D02*
D03*
X046000D02*
D03*
X045000D02*
D03*
X044000D02*
D03*
X043000D02*
D03*
X040000D02*
D03*
X039000D02*
D03*
X038000D02*
D03*
X037000D02*
D03*
X036000D02*
D03*
X035000D02*
D03*
X034000D02*
D03*
X039750Y050000D02*
D03*
X040750D02*
D03*
X041750D02*
D03*
X042750D02*
D03*
X043750D02*
D03*
X044750D02*
D03*
X045750D02*
D03*
X030750D02*
D03*
X031750D02*
D03*
X032750D02*
D03*
X033750D02*
D03*
X034750D02*
D03*
X035750D02*
D03*
X036750D02*
D03*
X022250D02*
D03*
X023250D02*
D03*
X024250D02*
D03*
X025250D02*
D03*
X026250D02*
D03*
X027250D02*
D03*
X028250D02*
D03*
X052500Y043000D02*
D03*
Y042000D02*
D03*
Y041000D02*
D03*
Y040000D02*
D03*
Y039000D02*
D03*
Y038000D02*
D03*
Y037000D02*
D03*
X029000Y043250D02*
D03*
X030000D02*
D03*
X031000D02*
D03*
X032000D02*
D03*
X033000D02*
D03*
X034000D02*
D03*
X035000D02*
D03*
X036000D02*
D03*
X037000D02*
D03*
X028000Y044250D02*
D03*
X029000D02*
D03*
X030000D02*
D03*
X031000D02*
D03*
X032000D02*
D03*
X033000D02*
D03*
X034000D02*
D03*
X035000D02*
D03*
X036000D02*
D03*
X037000D02*
D03*
D14*
X030500Y036500D02*
D03*
X040500D02*
D03*
X026000Y031000D02*
D03*
X042000D02*
D03*
X033000D02*
D03*
X046750Y050000D02*
D03*
X037750D02*
D03*
X029250D02*
D03*
X028000Y043250D02*
D03*
D15*
X049750Y050000D02*
D03*
X052500Y036000D02*
D03*
D16*
X047500Y032750D02*
D03*
X046500D02*
D03*
X045500D02*
D03*
X044500D02*
D03*
X043500D02*
D03*
X042500D02*
D03*
X041500D02*
D03*
X040500D02*
D03*
D17*
X039500D02*
D03*
D18*
X030500D02*
D03*
X029500D02*
D03*
X035500D02*
D03*
X034500D02*
D03*
X033000D02*
D03*
X032000D02*
D03*
X032750Y034750D02*
D03*
X033750D02*
D03*
X035250D02*
D03*
X036250D02*
D03*
X038000Y032750D02*
D03*
X037000D02*
D03*
X037750Y034750D02*
D03*
X038750D02*
D03*
X030250D02*
D03*
X031250D02*
D03*
D19*
X045500Y041000D02*
D03*
D20*
X038747Y040503D02*
D03*
X037747Y040503D02*
D03*
M02*
