%FSTAX23Y23*%
%MOIN*%
%SFA1B1*%

%IPPOS*%
%AMD10*
4,1,8,-0.082000,-0.035000,0.082000,-0.035000,0.100000,-0.017000,0.100000,0.017000,0.082000,0.035000,-0.082000,0.035000,-0.100000,0.017000,-0.100000,-0.017000,-0.082000,-0.035000,0.0*
1,1,0.036000,-0.082000,-0.017000*
1,1,0.036000,0.082000,-0.017000*
1,1,0.036000,0.082000,0.017000*
1,1,0.036000,-0.082000,0.017000*
%
G04~CAMADD=10~8~0.0~0.0~2000.0~700.0~180.0~0.0~15~0.0~0.0~0.0~0.0~0~0.0~0.0~0.0~0.0~0~0.0~0.0~0.0~180.0~2000.0~700.0*
%ADD10D10*%
%ADD11R,0.200000X0.070000*%
%LNchronomepcbv2_2-1*%
%LPD*%
G54D10*
X09476Y03561D03*
Y10451D03*
X0888D03*
X07895D03*
X06911D03*
X05927D03*
X04943D03*
X03958D03*
X02974D03*
X09476Y09467D03*
X0888D03*
X07895D03*
X06911D03*
X05927D03*
X04943D03*
X03958D03*
X02974D03*
X09476Y08482D03*
X0888D03*
X07895D03*
X06911D03*
X05927D03*
X04943D03*
X03958D03*
X02974D03*
X09476Y07498D03*
X0888D03*
X07895D03*
X06911D03*
X05927D03*
X04943D03*
X03958D03*
X02974D03*
X09476Y06514D03*
X0888D03*
X07895D03*
X06911D03*
X05927D03*
X04943D03*
X03958D03*
X02974D03*
X09476Y0553D03*
X0888D03*
X07895D03*
X06911D03*
X05927D03*
X04943D03*
X03958D03*
X02974D03*
X09476Y04545D03*
X0888D03*
X07895D03*
X06911D03*
X05927D03*
X04943D03*
X03958D03*
X02974D03*
X0888Y03561D03*
X07895D03*
X06911D03*
X05927D03*
X04943D03*
X03958D03*
X02974D03*
G54D11*
X09819Y03561D03*
Y10451D03*
X08537D03*
X07552D03*
X06568D03*
X05584D03*
X046D03*
X03615D03*
X02631D03*
X09819Y09467D03*
X08537D03*
X07552D03*
X06568D03*
X05584D03*
X046D03*
X03615D03*
X02631D03*
X09819Y08482D03*
X08537D03*
X07552D03*
X06568D03*
X05584D03*
X046D03*
X03615D03*
X02631D03*
X09819Y07498D03*
X08537D03*
X07552D03*
X06568D03*
X05584D03*
X046D03*
X03615D03*
X02631D03*
X09819Y06514D03*
X08537D03*
X07552D03*
X06568D03*
X05584D03*
X046D03*
X03615D03*
X02631D03*
X09819Y0553D03*
X08537D03*
X07552D03*
X06568D03*
X05584D03*
X046D03*
X03615D03*
X02631D03*
X09819Y04545D03*
X08537D03*
X07552D03*
X06568D03*
X05584D03*
X046D03*
X03615D03*
X02631D03*
X08537Y03561D03*
X07552D03*
X06568D03*
X05584D03*
X046D03*
X03615D03*
X02631D03*
M02*