%FSTAX23Y23*%
%MOIN*%
%SFA1B1*%

%IPPOS*%
%ADD32C,0.008000*%
%ADD33C,0.010000*%
%ADD34C,0.020000*%
%ADD35C,0.012000*%
%ADD36C,0.008000*%
%ADD37C,0.006000*%
%LNchronomepcbv2_2-1*%
%LPD*%
G54D32*
X06933Y11172D02*
D01*
X06935Y11167*
X06938Y11162*
X06941Y11157*
X06944Y11153*
X06948Y11149*
X06952Y11145*
X06956Y11142*
X06961Y11138*
X06966Y11135*
X06971Y11133*
X06976Y11131*
X06981Y11129*
X06986Y11127*
X06992Y11126*
X06997Y11126*
X07003Y11125*
X07008Y11125*
X07014Y11126*
X07019Y11127*
X07024Y11128*
X0703Y11129*
X07035Y11131*
X0704Y11134*
X07045Y11136*
X0705Y11139*
X07054Y11143*
X07058Y11146*
X07062Y1115*
X07066Y11154*
X07069Y11159*
X07071Y11163*
Y11247D02*
D01*
X07067Y11251*
X07064Y11255*
X0706Y11259*
X07056Y11263*
X07052Y11267*
X07048Y1127*
X07043Y11273*
X07038Y11275*
X07033Y11277*
X07028Y11279*
X07023Y11281*
X07017Y11282*
X07012Y11282*
X07007Y11283*
X07001Y11283*
X06996Y11282*
X0699Y11281*
X06985Y1128*
X0698Y11279*
X06975Y11277*
X0697Y11275*
X06965Y11272*
X0696Y11269*
X06956Y11266*
X06952Y11262*
X06948Y11258*
X06944Y11254*
X06941Y1125*
X06938Y11245*
X06935Y11241*
X06933Y11238*
X07391Y11177D02*
D01*
X07396Y11173*
X07402Y11169*
X07408Y11166*
X07414Y11163*
X07421Y11161*
X07427Y11159*
X07434Y11158*
X07441Y11157*
X07448Y11157*
X07454Y11157*
X07461Y11157*
X07468Y11158*
X07475Y1116*
X07481Y11162*
X07488Y11164*
X07494Y11167*
X075Y11171*
X07505Y11174*
X07511Y11178*
X07516Y11183*
X07521Y11188*
X07525Y11193*
X0753Y11198*
X07533Y11204*
X07537Y1121*
X07539Y11216*
X07542Y11222*
X07544Y11229*
X07545Y11236*
X07547Y11242*
X07547Y11249*
X07547Y11256*
X07547Y11263*
X07546Y1127*
X07545Y11276*
X07543Y11283*
X07541Y11289*
X07538Y11296*
X07535Y11302*
X07532Y11308*
X07528Y11313*
X07523Y11319*
X07519Y11324*
X07514Y11328*
X07509Y11333*
X07503Y11336*
X07497Y1134*
X07491Y11343*
X07485Y11346*
X07478Y11348*
X07472Y1135*
X07465Y11351*
X07458Y11352*
X07451Y11352*
X07445Y11352*
X07438Y11352*
X07431Y11351*
X07424Y11349*
X07418Y11347*
X07411Y11345*
X07405Y11342*
X07399Y11338*
X07394Y11335*
X07391Y11333*
X08391Y11177D02*
D01*
X08396Y11173*
X08402Y11169*
X08408Y11166*
X08414Y11163*
X08421Y11161*
X08427Y11159*
X08434Y11158*
X08441Y11157*
X08448Y11157*
X08454Y11157*
X08461Y11157*
X08468Y11158*
X08475Y1116*
X08481Y11162*
X08488Y11164*
X08494Y11167*
X085Y11171*
X08505Y11174*
X08511Y11178*
X08516Y11183*
X08521Y11188*
X08525Y11193*
X0853Y11198*
X08533Y11204*
X08537Y1121*
X08539Y11216*
X08542Y11222*
X08544Y11229*
X08545Y11236*
X08547Y11242*
X08547Y11249*
X08547Y11256*
X08547Y11263*
X08546Y1127*
X08545Y11276*
X08543Y11283*
X08541Y11289*
X08538Y11296*
X08535Y11302*
X08532Y11308*
X08528Y11313*
X08523Y11319*
X08519Y11324*
X08514Y11328*
X08509Y11333*
X08503Y11336*
X08497Y1134*
X08491Y11343*
X08485Y11346*
X08478Y11348*
X08472Y1135*
X08465Y11351*
X08458Y11352*
X08451Y11352*
X08445Y11352*
X08438Y11352*
X08431Y11351*
X08424Y11349*
X08418Y11347*
X08411Y11345*
X08405Y11342*
X08399Y11338*
X08394Y11335*
X08391Y11333*
X09391Y11177D02*
D01*
X09396Y11173*
X09402Y11169*
X09408Y11166*
X09414Y11163*
X09421Y11161*
X09427Y11159*
X09434Y11158*
X09441Y11157*
X09448Y11157*
X09454Y11157*
X09461Y11157*
X09468Y11158*
X09475Y1116*
X09481Y11162*
X09488Y11164*
X09494Y11167*
X095Y11171*
X09505Y11174*
X09511Y11178*
X09516Y11183*
X09521Y11188*
X09525Y11193*
X0953Y11198*
X09533Y11204*
X09537Y1121*
X09539Y11216*
X09542Y11222*
X09544Y11229*
X09545Y11236*
X09547Y11242*
X09547Y11249*
X09547Y11256*
X09547Y11263*
X09546Y1127*
X09545Y11276*
X09543Y11283*
X09541Y11289*
X09538Y11296*
X09535Y11302*
X09532Y11308*
X09528Y11313*
X09523Y11319*
X09519Y11324*
X09514Y11328*
X09509Y11333*
X09503Y11336*
X09497Y1134*
X09491Y11343*
X09485Y11346*
X09478Y11348*
X09472Y1135*
X09465Y11351*
X09458Y11352*
X09451Y11352*
X09445Y11352*
X09438Y11352*
X09431Y11351*
X09424Y11349*
X09418Y11347*
X09411Y11345*
X09405Y11342*
X09399Y11338*
X09394Y11335*
X09391Y11333*
X0538Y0278D02*
X0618D01*
X0538Y0298D02*
X0618D01*
X0538Y0278D02*
Y0298D01*
X0618Y0278D02*
Y0298D01*
X0575Y11155D02*
X0675D01*
Y11355*
X0575D02*
X0675D01*
X0575Y11155D02*
Y11355D01*
X077Y11105D02*
X0773D01*
Y11305*
X0767D02*
X0773D01*
X0767Y11105D02*
Y11305D01*
Y11105D02*
X077D01*
Y11305D02*
Y11314D01*
Y11096D02*
Y11105D01*
X07391Y11177D02*
Y11333D01*
X087Y11105D02*
X0873D01*
Y11305*
X0867D02*
X0873D01*
X0867Y11105D02*
Y11305D01*
Y11105D02*
X087D01*
Y11305D02*
Y11314D01*
Y11096D02*
Y11105D01*
X08391Y11177D02*
Y11333D01*
X097Y11105D02*
X0973D01*
Y11305*
X0967D02*
X0973D01*
X0967Y11105D02*
Y11305D01*
Y11105D02*
X097D01*
Y11305D02*
Y11314D01*
Y11096D02*
Y11105D01*
X09391Y11177D02*
Y11333D01*
X102Y0502D02*
Y0505D01*
Y0502D02*
X104D01*
Y0508*
X102D02*
X104D01*
X102Y0505D02*
Y0508D01*
X104Y0505D02*
X10409D01*
X10191D02*
X102D01*
Y06985D02*
Y07015D01*
Y06985D02*
X104D01*
Y07045*
X102D02*
X104D01*
X102Y07015D02*
Y07045D01*
X104Y07015D02*
X10409D01*
X10191D02*
X102D01*
Y08955D02*
Y08985D01*
Y08955D02*
X104D01*
Y09015*
X102D02*
X104D01*
X102Y08985D02*
Y09015D01*
X104Y08985D02*
X10409D01*
X10191D02*
X102D01*
Y10925D02*
Y10955D01*
Y10925D02*
X104D01*
Y10985*
X102D02*
X104D01*
X102Y10955D02*
Y10985D01*
X104Y10955D02*
X10409D01*
X10191D02*
X102D01*
X021Y0675D02*
X022D01*
X021D02*
Y0755D01*
X022*
Y0675D02*
Y0755D01*
X10213Y10705D02*
Y10905D01*
X10087Y10705D02*
Y10905D01*
Y10705D02*
X10213D01*
X10087Y10905D02*
X10213D01*
X10615Y094D02*
X10645D01*
Y096*
X10585D02*
X10645D01*
X10585Y094D02*
Y096D01*
Y094D02*
X10615D01*
Y096D02*
Y09609D01*
Y09391D02*
Y094D01*
X10213Y08735D02*
Y08935D01*
X10087Y08735D02*
Y08935D01*
Y08735D02*
X10213D01*
X10087Y08935D02*
X10213D01*
Y06765D02*
Y06965D01*
X10087Y06765D02*
Y06965D01*
Y06765D02*
X10213D01*
X10087Y06965D02*
X10213D01*
Y048D02*
Y05D01*
X10087Y048D02*
Y05D01*
Y048D02*
X10213D01*
X10087Y05D02*
X10213D01*
G54D33*
X10275Y04725D02*
D01*
X10275Y04723*
X10275Y04721*
X10275Y04719*
X10275Y04718*
X10276Y04716*
X10277Y04714*
X10277Y04713*
X10278Y04711*
X10279Y0471*
X1028Y04708*
X10282Y04707*
X10283Y04706*
X10284Y04705*
X10286Y04704*
X10287Y04703*
X10289Y04702*
X1029Y04701*
X10292Y04701*
X10293Y047*
X10295Y047*
X10297Y047*
X10299Y047*
X103*
X10302Y047*
X10304Y047*
X10306Y047*
X10307Y04701*
X10309Y04701*
X1031Y04702*
X10312Y04703*
X10313Y04704*
X10315Y04705*
X10316Y04706*
X10317Y04707*
X10319Y04708*
X1032Y0471*
X10321Y04711*
X10322Y04713*
X10322Y04714*
X10323Y04716*
X10324Y04718*
X10324Y04719*
X10324Y04721*
X10324Y04723*
X10325Y04725*
X10275Y0669D02*
D01*
X10275Y06688*
X10275Y06686*
X10275Y06684*
X10275Y06683*
X10276Y06681*
X10277Y06679*
X10277Y06678*
X10278Y06676*
X10279Y06675*
X1028Y06673*
X10282Y06672*
X10283Y06671*
X10284Y0667*
X10286Y06669*
X10287Y06668*
X10289Y06667*
X1029Y06666*
X10292Y06666*
X10293Y06665*
X10295Y06665*
X10297Y06665*
X10299Y06665*
X103*
X10302Y06665*
X10304Y06665*
X10306Y06665*
X10307Y06666*
X10309Y06666*
X1031Y06667*
X10312Y06668*
X10313Y06669*
X10315Y0667*
X10316Y06671*
X10317Y06672*
X10319Y06673*
X1032Y06675*
X10321Y06676*
X10322Y06678*
X10322Y06679*
X10323Y06681*
X10324Y06683*
X10324Y06684*
X10324Y06686*
X10324Y06688*
X10325Y0669*
X10275Y0866D02*
D01*
X10275Y08658*
X10275Y08656*
X10275Y08654*
X10275Y08653*
X10276Y08651*
X10277Y08649*
X10277Y08648*
X10278Y08646*
X10279Y08645*
X1028Y08643*
X10282Y08642*
X10283Y08641*
X10284Y0864*
X10286Y08639*
X10287Y08638*
X10289Y08637*
X1029Y08636*
X10292Y08636*
X10293Y08635*
X10295Y08635*
X10297Y08635*
X10299Y08635*
X103*
X10302Y08635*
X10304Y08635*
X10306Y08635*
X10307Y08636*
X10309Y08636*
X1031Y08637*
X10312Y08638*
X10313Y08639*
X10315Y0864*
X10316Y08641*
X10317Y08642*
X10319Y08643*
X1032Y08645*
X10321Y08646*
X10322Y08648*
X10322Y08649*
X10323Y08651*
X10324Y08653*
X10324Y08654*
X10324Y08656*
X10324Y08658*
X10325Y0866*
X10275Y1063D02*
D01*
X10275Y10628*
X10275Y10626*
X10275Y10624*
X10275Y10623*
X10276Y10621*
X10277Y10619*
X10277Y10618*
X10278Y10616*
X10279Y10615*
X1028Y10613*
X10282Y10612*
X10283Y10611*
X10284Y1061*
X10286Y10609*
X10287Y10608*
X10289Y10607*
X1029Y10606*
X10292Y10606*
X10293Y10605*
X10295Y10605*
X10297Y10605*
X10299Y10605*
X103*
X10302Y10605*
X10304Y10605*
X10306Y10605*
X10307Y10606*
X10309Y10606*
X1031Y10607*
X10312Y10608*
X10313Y10609*
X10315Y1061*
X10316Y10611*
X10317Y10612*
X10319Y10613*
X1032Y10615*
X10321Y10616*
X10322Y10618*
X10322Y10619*
X10323Y10621*
X10324Y10623*
X10324Y10624*
X10324Y10626*
X10324Y10628*
X10325Y1063*
X10215Y03325D02*
Y04725D01*
Y03325D02*
X10385D01*
Y04725*
X10325D02*
X10385D01*
X10215D02*
X10275D01*
X10215Y0529D02*
Y0669D01*
Y0529D02*
X10385D01*
Y0669*
X10325D02*
X10385D01*
X10215D02*
X10275D01*
X10215Y0726D02*
Y0866D01*
Y0726D02*
X10385D01*
Y0866*
X10325D02*
X10385D01*
X10215D02*
X10275D01*
X10215Y0923D02*
Y1063D01*
Y0923D02*
X10385D01*
Y1063*
X10325D02*
X10385D01*
X10215D02*
X10275D01*
X06926Y11368D02*
X06916Y11378D01*
X06896*
X06886Y11368*
Y11328*
X06896Y11318*
X06916*
X06926Y11328*
X06986Y11378D02*
X06966Y11368D01*
X06946Y11348*
Y11328*
X06956Y11318*
X06976*
X06986Y11328*
Y11338*
X06976Y11348*
X06946*
X10545Y09245D02*
Y09305D01*
X10575*
X10585Y09295*
Y09275*
X10575Y09265*
X10545*
X10565D02*
X10585Y09245D01*
X10605Y09295D02*
X10615Y09305D01*
X10635*
X10645Y09295*
Y09285*
X10635Y09275*
X10645Y09265*
Y09255*
X10635Y09245*
X10615*
X10605Y09255*
Y09265*
X10615Y09275*
X10605Y09285*
Y09295*
X10615Y09275D02*
X10635D01*
X10128Y05114D02*
Y05174D01*
X10158*
X10168Y05164*
Y05144*
X10158Y05134*
X10128*
X10148D02*
X10168Y05114D01*
X10188Y05174D02*
X10228D01*
Y05164*
X10188Y05124*
Y05114*
X10128Y07079D02*
Y07139D01*
X10158*
X10168Y07129*
Y07109*
X10158Y07099*
X10128*
X10148D02*
X10168Y07079D01*
X10228Y07139D02*
X10208Y07129D01*
X10188Y07109*
Y07089*
X10198Y07079*
X10218*
X10228Y07089*
Y07099*
X10218Y07109*
X10188*
X10128Y09049D02*
Y09109D01*
X10158*
X10168Y09099*
Y09079*
X10158Y09069*
X10128*
X10148D02*
X10168Y09049D01*
X10228Y09109D02*
X10188D01*
Y09079*
X10208Y09089*
X10218*
X10228Y09079*
Y09059*
X10218Y09049*
X10198*
X10188Y09059*
X10128Y11019D02*
Y11079D01*
X10158*
X10168Y11069*
Y11049*
X10158Y11039*
X10128*
X10148D02*
X10168Y11019D01*
X10218D02*
Y11079D01*
X10188Y11049*
X10228*
X09676Y11417D02*
Y11477D01*
X09706*
X09716Y11467*
Y11447*
X09706Y11437*
X09676*
X09696D02*
X09716Y11417D01*
X09736Y11467D02*
X09746Y11477D01*
X09766*
X09776Y11467*
Y11457*
X09766Y11447*
X09756*
X09766*
X09776Y11437*
Y11427*
X09766Y11417*
X09746*
X09736Y11427*
X08676Y11417D02*
Y11477D01*
X08706*
X08716Y11467*
Y11447*
X08706Y11437*
X08676*
X08696D02*
X08716Y11417D01*
X08776D02*
X08736D01*
X08776Y11457*
Y11467*
X08766Y11477*
X08746*
X08736Y11467*
X07676Y11417D02*
Y11477D01*
X07706*
X07716Y11467*
Y11447*
X07706Y11437*
X07676*
X07696D02*
X07716Y11417D01*
X07736D02*
X07756D01*
X07746*
Y11477*
X07736Y11467*
X1001Y0492D02*
X1Y0493D01*
X0998*
X0997Y0492*
Y0488*
X0998Y0487*
X1*
X1001Y0488*
X1007Y0493D02*
X1003D01*
Y049*
X1005Y0491*
X1006*
X1007Y049*
Y0488*
X1006Y0487*
X1004*
X1003Y0488*
X1002Y06885D02*
X1001Y06895D01*
X0999*
X0998Y06885*
Y06845*
X0999Y06835*
X1001*
X1002Y06845*
X1007Y06835D02*
Y06895D01*
X1004Y06865*
X1008*
X1001Y08855D02*
X1Y08865D01*
X0998*
X0997Y08855*
Y08815*
X0998Y08805*
X1*
X1001Y08815*
X1003Y08855D02*
X1004Y08865D01*
X1006*
X1007Y08855*
Y08845*
X1006Y08835*
X1005*
X1006*
X1007Y08825*
Y08815*
X1006Y08805*
X1004*
X1003Y08815*
X10005Y1083D02*
X09995Y1084D01*
X09975*
X09965Y1083*
Y1079*
X09975Y1078*
X09995*
X10005Y1079*
X10065Y1078D02*
X10025D01*
X10065Y1082*
Y1083*
X10055Y1084*
X10035*
X10025Y1083*
X02605Y1134D02*
X02595Y1135D01*
X02575*
X02565Y1134*
Y113*
X02575Y1129*
X02595*
X02605Y113*
X02625Y1135D02*
Y1129D01*
Y1132*
X02635Y1133*
X02655*
X02665Y1132*
Y1129*
X02685Y1133D02*
Y1129D01*
Y1131*
X02695Y1132*
X02705Y1133*
X02715*
X02755Y1129D02*
X02775D01*
X02785Y113*
Y1132*
X02775Y1133*
X02755*
X02745Y1132*
Y113*
X02755Y1129*
X02805D02*
Y1133D01*
X02835*
X02845Y1132*
Y1129*
X02875D02*
X02895D01*
X02905Y113*
Y1132*
X02895Y1133*
X02875*
X02865Y1132*
Y113*
X02875Y1129*
X02925D02*
Y1133D01*
X02935*
X02945Y1132*
Y1129*
Y1132*
X02955Y1133*
X02965Y1132*
Y1129*
X03015D02*
X02995D01*
X02985Y113*
Y1132*
X02995Y1133*
X03015*
X03025Y1132*
Y1131*
X02985*
X03105Y1135D02*
Y1131D01*
X03125Y1129*
X03145Y1131*
Y1135*
X03205Y1129D02*
X03165D01*
X03205Y1133*
Y1134*
X03195Y1135*
X03175*
X03165Y1134*
X03225Y1129D02*
Y113D01*
X03235*
Y1129*
X03225*
X03315D02*
X03275D01*
X03315Y1133*
Y1134*
X03305Y1135*
X03285*
X03275Y1134*
X03395Y1135D02*
Y1129D01*
X03425*
X03435Y113*
Y1131*
Y1132*
X03425Y1133*
X03395*
X03455D02*
Y113D01*
X03465Y1129*
X03495*
Y1128*
X03485Y1127*
X03475*
X03495Y1129D02*
Y1133D01*
X03605Y1135D02*
X03585D01*
X03575Y1134*
Y113*
X03585Y1129*
X03605*
X03615Y113*
Y1134*
X03605Y1135*
X03635Y1133D02*
Y113D01*
X03645Y1129*
X03655Y113*
X03665Y1129*
X03675Y113*
Y1133*
X03725Y1129D02*
X03705D01*
X03695Y113*
Y1132*
X03705Y1133*
X03725*
X03735Y1132*
Y1131*
X03695*
X03754Y1129D02*
Y1133D01*
X03784*
X03794Y1132*
Y1129*
X03874Y1135D02*
Y1131D01*
X03894Y1129*
X03914Y1131*
Y1135*
X03944Y1133D02*
X03964D01*
X03974Y1132*
Y1129*
X03944*
X03934Y113*
X03944Y1131*
X03974*
X03994Y1129D02*
X04014D01*
X04004*
Y1135*
X03994*
X04044Y1129D02*
X04064D01*
X04054*
Y1135*
X04044*
X04094Y1129D02*
X04114D01*
X04104*
Y1133*
X04094*
X04144Y1129D02*
X04174D01*
X04184Y113*
X04174Y1131*
X04154*
X04144Y1132*
X04154Y1133*
X04184*
X04304Y1129D02*
X04264D01*
X04304Y1133*
Y1134*
X04294Y1135*
X04274*
X04264Y1134*
X04324D02*
X04334Y1135D01*
X04354*
X04364Y1134*
Y113*
X04354Y1129*
X04334*
X04324Y113*
Y1134*
X04384Y1129D02*
X04404D01*
X04394*
Y1135*
X04384Y1134*
X04434Y1129D02*
X04454D01*
X04444*
Y1135*
X04434Y1134*
X1033Y04235D02*
Y04195D01*
Y04215*
X1027*
X1033Y04175D02*
X1027D01*
Y04135*
X1032Y04075D02*
X1033Y04085D01*
Y04105*
X1032Y04115*
X1028*
X1027Y04105*
Y04085*
X1028Y04075*
X1033Y04015D02*
Y04055D01*
X103*
X1031Y04035*
Y04025*
X103Y04015*
X1028*
X1027Y04025*
Y04045*
X1028Y04055*
Y03995D02*
X1027Y03985D01*
Y03965*
X1028Y03955*
X1032*
X1033Y03965*
Y03985*
X1032Y03995*
X1031*
X103Y03985*
Y03955*
X1027Y03905D02*
X1033D01*
X103Y03935*
Y03895*
X1032Y03875D02*
X1033Y03865D01*
Y03845*
X1032Y03835*
X1028*
X1027Y03845*
Y03865*
X1028Y03875*
X1032*
X1033Y062D02*
Y0616D01*
Y0618*
X1027*
X1033Y0614D02*
X1027D01*
Y061*
X1032Y0604D02*
X1033Y0605D01*
Y0607*
X1032Y0608*
X1028*
X1027Y0607*
Y0605*
X1028Y0604*
X1033Y0598D02*
Y0602D01*
X103*
X1031Y06*
Y0599*
X103Y0598*
X1028*
X1027Y0599*
Y0601*
X1028Y0602*
Y0596D02*
X1027Y0595D01*
Y0593*
X1028Y0592*
X1032*
X1033Y0593*
Y0595*
X1032Y0596*
X1031*
X103Y0595*
Y0592*
X1027Y0587D02*
X1033D01*
X103Y059*
Y0586*
X1032Y0584D02*
X1033Y0583D01*
Y0581*
X1032Y058*
X1028*
X1027Y0581*
Y0583*
X1028Y0584*
X1032*
X1033Y0817D02*
Y0813D01*
Y0815*
X1027*
X1033Y0811D02*
X1027D01*
Y0807*
X1032Y0801D02*
X1033Y0802D01*
Y0804*
X1032Y0805*
X1028*
X1027Y0804*
Y0802*
X1028Y0801*
X1033Y0795D02*
Y0799D01*
X103*
X1031Y0797*
Y0796*
X103Y0795*
X1028*
X1027Y0796*
Y0798*
X1028Y0799*
Y0793D02*
X1027Y0792D01*
Y079*
X1028Y0789*
X1032*
X1033Y079*
Y0792*
X1032Y0793*
X1031*
X103Y0792*
Y0789*
X1027Y0784D02*
X1033D01*
X103Y0787*
Y0783*
X1032Y0781D02*
X1033Y078D01*
Y0778*
X1032Y0777*
X1028*
X1027Y0778*
Y078*
X1028Y0781*
X1032*
X1033Y1014D02*
Y101D01*
Y1012*
X1027*
X1033Y1008D02*
X1027D01*
Y1004*
X1032Y0998D02*
X1033Y0999D01*
Y1001*
X1032Y1002*
X1028*
X1027Y1001*
Y0999*
X1028Y0998*
X1033Y0992D02*
Y0996D01*
X103*
X1031Y0994*
Y0993*
X103Y0992*
X1028*
X1027Y0993*
Y0995*
X1028Y0996*
Y099D02*
X1027Y0989D01*
Y0987*
X1028Y0986*
X1032*
X1033Y0987*
Y0989*
X1032Y099*
X1031*
X103Y0989*
Y0986*
X1027Y0981D02*
X1033D01*
X103Y0984*
Y098*
X1032Y0978D02*
X1033Y0977D01*
Y0975*
X1032Y0974*
X1028*
X1027Y0975*
Y0977*
X1028Y0978*
X1032*
X07175Y11205D02*
X07215D01*
X07195Y11225D02*
Y11185D01*
G54D34*
X0628Y0301D02*
Y031D01*
X0538Y0301D02*
X0628D01*
X0538D02*
Y0311D01*
X0628*
X0618D02*
X0628D01*
X0618Y0301D02*
Y0311D01*
X0628Y0301D02*
Y0311D01*
G54D35*
X09705Y03528D02*
Y03594D01*
X0959D02*
X09705D01*
X0959Y03528D02*
Y03594D01*
Y03528D02*
X09705D01*
X0963Y03529D02*
Y03594D01*
X09705Y10418D02*
Y10484D01*
X0959D02*
X09705D01*
X0959Y10418D02*
Y10484D01*
Y10418D02*
X09705D01*
X0963Y10419D02*
Y10484D01*
X08726Y10418D02*
Y10483D01*
X08651Y10484D02*
X08766D01*
Y10418D02*
Y10484D01*
X08651Y10418D02*
X08766D01*
X08651D02*
Y10484D01*
X07666Y10418D02*
Y10484D01*
Y10418D02*
X07781D01*
Y10484*
X07666D02*
X07781D01*
X07741Y10418D02*
Y10483D01*
X06757Y10418D02*
Y10483D01*
X06682Y10484D02*
X06797D01*
Y10418D02*
Y10484D01*
X06682Y10418D02*
X06797D01*
X06682D02*
Y10484D01*
X05698Y10418D02*
Y10484D01*
Y10418D02*
X05813D01*
Y10484*
X05698D02*
X05813D01*
X05773Y10418D02*
Y10483D01*
X04789Y10418D02*
Y10483D01*
X04714Y10484D02*
X04829D01*
Y10418D02*
Y10484D01*
X04714Y10418D02*
X04829D01*
X04714D02*
Y10484D01*
X03729Y10418D02*
Y10484D01*
Y10418D02*
X03844D01*
Y10484*
X03729D02*
X03844D01*
X03804Y10418D02*
Y10483D01*
X0282Y10418D02*
Y10483D01*
X02745Y10484D02*
X0286D01*
Y10418D02*
Y10484D01*
X02745Y10418D02*
X0286D01*
X02745D02*
Y10484D01*
X09705Y09434D02*
Y095D01*
X0959D02*
X09705D01*
X0959Y09434D02*
Y095D01*
Y09434D02*
X09705D01*
X0963Y09435D02*
Y095D01*
X08726Y09434D02*
Y09499D01*
X08651Y095D02*
X08766D01*
Y09434D02*
Y095D01*
X08651Y09434D02*
X08766D01*
X08651D02*
Y095D01*
X07666Y09434D02*
Y095D01*
Y09434D02*
X07781D01*
Y095*
X07666D02*
X07781D01*
X07741Y09434D02*
Y09499D01*
X06757Y09434D02*
Y09499D01*
X06682Y095D02*
X06797D01*
Y09434D02*
Y095D01*
X06682Y09434D02*
X06797D01*
X06682D02*
Y095D01*
X05698Y09434D02*
Y095D01*
Y09434D02*
X05813D01*
Y095*
X05698D02*
X05813D01*
X05773Y09434D02*
Y09499D01*
X04789Y09434D02*
Y09499D01*
X04714Y095D02*
X04829D01*
Y09434D02*
Y095D01*
X04714Y09434D02*
X04829D01*
X04714D02*
Y095D01*
X03729Y09434D02*
Y095D01*
Y09434D02*
X03844D01*
Y095*
X03729D02*
X03844D01*
X03804Y09434D02*
Y09499D01*
X0282Y09434D02*
Y09499D01*
X02745Y095D02*
X0286D01*
Y09434D02*
Y095D01*
X02745Y09434D02*
X0286D01*
X02745D02*
Y095D01*
X09705Y08449D02*
Y08515D01*
X0959D02*
X09705D01*
X0959Y08449D02*
Y08515D01*
Y08449D02*
X09705D01*
X0963Y0845D02*
Y08515D01*
X08726Y08449D02*
Y08514D01*
X08651Y08515D02*
X08766D01*
Y08449D02*
Y08515D01*
X08651Y08449D02*
X08766D01*
X08651D02*
Y08515D01*
X07666Y08449D02*
Y08515D01*
Y08449D02*
X07781D01*
Y08515*
X07666D02*
X07781D01*
X07741Y08449D02*
Y08514D01*
X06757Y08449D02*
Y08514D01*
X06682Y08515D02*
X06797D01*
Y08449D02*
Y08515D01*
X06682Y08449D02*
X06797D01*
X06682D02*
Y08515D01*
X05698Y08449D02*
Y08515D01*
Y08449D02*
X05813D01*
Y08515*
X05698D02*
X05813D01*
X05773Y08449D02*
Y08514D01*
X04789Y08449D02*
Y08514D01*
X04714Y08515D02*
X04829D01*
Y08449D02*
Y08515D01*
X04714Y08449D02*
X04829D01*
X04714D02*
Y08515D01*
X03729Y08449D02*
Y08515D01*
Y08449D02*
X03844D01*
Y08515*
X03729D02*
X03844D01*
X03804Y08449D02*
Y08514D01*
X0282Y08449D02*
Y08514D01*
X02745Y08515D02*
X0286D01*
Y08449D02*
Y08515D01*
X02745Y08449D02*
X0286D01*
X02745D02*
Y08515D01*
X09705Y07465D02*
Y07531D01*
X0959D02*
X09705D01*
X0959Y07465D02*
Y07531D01*
Y07465D02*
X09705D01*
X0963Y07466D02*
Y07531D01*
X08726Y07465D02*
Y0753D01*
X08651Y07531D02*
X08766D01*
Y07465D02*
Y07531D01*
X08651Y07465D02*
X08766D01*
X08651D02*
Y07531D01*
X07666Y07465D02*
Y07531D01*
Y07465D02*
X07781D01*
Y07531*
X07666D02*
X07781D01*
X07741Y07465D02*
Y0753D01*
X06757Y07465D02*
Y0753D01*
X06682Y07531D02*
X06797D01*
Y07465D02*
Y07531D01*
X06682Y07465D02*
X06797D01*
X06682D02*
Y07531D01*
X05698Y07465D02*
Y07531D01*
Y07465D02*
X05813D01*
Y07531*
X05698D02*
X05813D01*
X05773Y07465D02*
Y0753D01*
X04789Y07465D02*
Y0753D01*
X04714Y07531D02*
X04829D01*
Y07465D02*
Y07531D01*
X04714Y07465D02*
X04829D01*
X04714D02*
Y07531D01*
X03729Y07465D02*
Y07531D01*
Y07465D02*
X03844D01*
Y07531*
X03729D02*
X03844D01*
X03804Y07465D02*
Y0753D01*
X0282Y07465D02*
Y0753D01*
X02745Y07531D02*
X0286D01*
Y07465D02*
Y07531D01*
X02745Y07465D02*
X0286D01*
X02745D02*
Y07531D01*
X09705Y06481D02*
Y06547D01*
X0959D02*
X09705D01*
X0959Y06481D02*
Y06547D01*
Y06481D02*
X09705D01*
X0963Y06482D02*
Y06547D01*
X08726Y06481D02*
Y06546D01*
X08651Y06547D02*
X08766D01*
Y06481D02*
Y06547D01*
X08651Y06481D02*
X08766D01*
X08651D02*
Y06547D01*
X07666Y06481D02*
Y06547D01*
Y06481D02*
X07781D01*
Y06547*
X07666D02*
X07781D01*
X07741Y06481D02*
Y06546D01*
X06757Y06481D02*
Y06546D01*
X06682Y06547D02*
X06797D01*
Y06481D02*
Y06547D01*
X06682Y06481D02*
X06797D01*
X06682D02*
Y06547D01*
X05698Y06481D02*
Y06547D01*
Y06481D02*
X05813D01*
Y06547*
X05698D02*
X05813D01*
X05773Y06481D02*
Y06546D01*
X04789Y06481D02*
Y06546D01*
X04714Y06547D02*
X04829D01*
Y06481D02*
Y06547D01*
X04714Y06481D02*
X04829D01*
X04714D02*
Y06547D01*
X03729Y06481D02*
Y06547D01*
Y06481D02*
X03844D01*
Y06547*
X03729D02*
X03844D01*
X03804Y06481D02*
Y06546D01*
X0282Y06481D02*
Y06546D01*
X02745Y06547D02*
X0286D01*
Y06481D02*
Y06547D01*
X02745Y06481D02*
X0286D01*
X02745D02*
Y06547D01*
X09705Y05497D02*
Y05563D01*
X0959D02*
X09705D01*
X0959Y05497D02*
Y05563D01*
Y05497D02*
X09705D01*
X0963Y05498D02*
Y05563D01*
X08726Y05497D02*
Y05562D01*
X08651Y05563D02*
X08766D01*
Y05497D02*
Y05563D01*
X08651Y05497D02*
X08766D01*
X08651D02*
Y05563D01*
X07666Y05497D02*
Y05563D01*
Y05497D02*
X07781D01*
Y05563*
X07666D02*
X07781D01*
X07741Y05497D02*
Y05562D01*
X06757Y05497D02*
Y05562D01*
X06682Y05563D02*
X06797D01*
Y05497D02*
Y05563D01*
X06682Y05497D02*
X06797D01*
X06682D02*
Y05563D01*
X05698Y05497D02*
Y05563D01*
Y05497D02*
X05813D01*
Y05563*
X05698D02*
X05813D01*
X05773Y05497D02*
Y05562D01*
X04789Y05497D02*
Y05562D01*
X04714Y05563D02*
X04829D01*
Y05497D02*
Y05563D01*
X04714Y05497D02*
X04829D01*
X04714D02*
Y05563D01*
X03729Y05497D02*
Y05563D01*
Y05497D02*
X03844D01*
Y05563*
X03729D02*
X03844D01*
X03804Y05497D02*
Y05562D01*
X0282Y05497D02*
Y05562D01*
X02745Y05563D02*
X0286D01*
Y05497D02*
Y05563D01*
X02745Y05497D02*
X0286D01*
X02745D02*
Y05563D01*
X09705Y04512D02*
Y04578D01*
X0959D02*
X09705D01*
X0959Y04512D02*
Y04578D01*
Y04512D02*
X09705D01*
X0963Y04513D02*
Y04578D01*
X08726Y04512D02*
Y04577D01*
X08651Y04578D02*
X08766D01*
Y04512D02*
Y04578D01*
X08651Y04512D02*
X08766D01*
X08651D02*
Y04578D01*
X07666Y04512D02*
Y04578D01*
Y04512D02*
X07781D01*
Y04578*
X07666D02*
X07781D01*
X07741Y04512D02*
Y04577D01*
X06757Y04512D02*
Y04577D01*
X06682Y04578D02*
X06797D01*
Y04512D02*
Y04578D01*
X06682Y04512D02*
X06797D01*
X06682D02*
Y04578D01*
X05698Y04512D02*
Y04578D01*
Y04512D02*
X05813D01*
Y04578*
X05698D02*
X05813D01*
X05773Y04512D02*
Y04577D01*
X04789Y04512D02*
Y04577D01*
X04714Y04578D02*
X04829D01*
Y04512D02*
Y04578D01*
X04714Y04512D02*
X04829D01*
X04714D02*
Y04578D01*
X03729Y04512D02*
Y04578D01*
Y04512D02*
X03844D01*
Y04578*
X03729D02*
X03844D01*
X03804Y04512D02*
Y04577D01*
X0282Y04512D02*
Y04577D01*
X02745Y04578D02*
X0286D01*
Y04512D02*
Y04578D01*
X02745Y04512D02*
X0286D01*
X02745D02*
Y04578D01*
X08651Y03528D02*
Y03594D01*
Y03528D02*
X08766D01*
Y03594*
X08651D02*
X08766D01*
X08726Y03528D02*
Y03593D01*
X07741Y03528D02*
Y03593D01*
X07666Y03594D02*
X07781D01*
Y03528D02*
Y03594D01*
X07666Y03528D02*
X07781D01*
X07666D02*
Y03594D01*
X06682Y03528D02*
Y03594D01*
Y03528D02*
X06797D01*
Y03594*
X06682D02*
X06797D01*
X06757Y03528D02*
Y03593D01*
X05773Y03528D02*
Y03593D01*
X05698Y03594D02*
X05813D01*
Y03528D02*
Y03594D01*
X05698Y03528D02*
X05813D01*
X05698D02*
Y03594D01*
X04714Y03528D02*
Y03594D01*
Y03528D02*
X04829D01*
Y03594*
X04714D02*
X04829D01*
X04789Y03528D02*
Y03593D01*
X03804Y03528D02*
Y03593D01*
X03729Y03594D02*
X03844D01*
Y03528D02*
Y03594D01*
X03729Y03528D02*
X03844D01*
X03729D02*
Y03594D01*
X02745Y03528D02*
Y03594D01*
Y03528D02*
X0286D01*
Y03594*
X02745D02*
X0286D01*
X0282Y03528D02*
Y03593D01*
G54D36*
X0212Y076D02*
Y07583D01*
Y07592*
X0217*
X02162Y076*
X0625Y02905D02*
Y02938D01*
X06267Y02955*
X06283Y02938*
Y02905*
Y0293*
X0625*
X063Y02955D02*
Y02905D01*
X06325*
X06333Y02913*
Y02947*
X06325Y02955*
X063*
X06383Y02947D02*
X06375Y02955D01*
X06358*
X0635Y02947*
Y02913*
X06358Y02905*
X06375*
X06383Y02913*
X06283Y02842D02*
X06275Y0285D01*
X06258*
X0625Y02842*
Y02808*
X06258Y028*
X06275*
X06283Y02808*
Y02825*
X06267*
X063Y028D02*
Y0285D01*
X06333Y028*
Y0285*
X0635D02*
Y028D01*
X06375*
X06383Y02808*
Y02842*
X06375Y0285*
X0635*
X06205Y02905D02*
X06222D01*
X06213*
Y02955*
X06205Y02947*
X05535Y11335D02*
Y11302D01*
X05552Y11285*
X05568Y11302*
Y11335*
X05585Y11285D02*
Y11335D01*
X0561*
X05618Y11327*
Y1131*
X0561Y11302*
X05585*
X05635Y11285D02*
Y11335D01*
X0566*
X05668Y11327*
Y1131*
X0566Y11302*
X05635*
X05652D02*
X05668Y11285D01*
X05718Y11327D02*
X0571Y11335D01*
X05693*
X05685Y11327*
Y11293*
X05693Y11285*
X0571*
X05718Y11293*
Y1131*
X05702*
X05608Y11217D02*
X056Y11225D01*
X05583*
X05575Y11217*
Y11183*
X05583Y11175*
X056*
X05608Y11183*
Y112*
X05592*
X05625Y11175D02*
Y11225D01*
X05658Y11175*
Y11225*
X05675D02*
Y11175D01*
X057*
X05708Y11183*
Y11217*
X057Y11225*
X05675*
G54D37*
X0735Y11285D02*
X0737D01*
X0736*
Y11344*
X0735Y11334*
X08345Y1128D02*
X08365D01*
X08355*
Y11339*
X08345Y11329*
X0935Y1128D02*
X0937D01*
X0936*
Y11339*
X0935Y11329*
M02*