%FSTAX23Y23*%
%MOIN*%
%SFA1B1*%

%IPPOS*%
%AMD10*
4,1,8,-0.082000,-0.035000,0.082000,-0.035000,0.100000,-0.017000,0.100000,0.017000,0.082000,0.035000,-0.082000,0.035000,-0.100000,0.017000,-0.100000,-0.017000,-0.082000,-0.035000,0.0*
1,1,0.036000,-0.082000,-0.017000*
1,1,0.036000,0.082000,-0.017000*
1,1,0.036000,0.082000,0.017000*
1,1,0.036000,-0.082000,0.017000*
%
G04~CAMADD=10~8~0.0~0.0~2000.0~700.0~180.0~0.0~15~0.0~0.0~0.0~0.0~0~0.0~0.0~0.0~0.0~0~0.0~0.0~0.0~180.0~2000.0~700.0*
%ADD10D10*%
%ADD11R,0.200000X0.070000*%
%ADD12C,0.030000*%
%ADD13C,0.050000*%
%ADD14C,0.020000*%
%ADD15C,0.059000*%
%ADD16R,0.059000X0.059000*%
%ADD17C,0.053000*%
%ADD18R,0.053000X0.053000*%
%ADD19C,0.050000*%
%ADD20O,0.080000X0.040000*%
%ADD21R,0.080000X0.040000*%
%ADD22C,0.055000*%
%ADD23O,0.079000X0.039000*%
%ADD24O,0.079000X0.039000*%
%ADD25C,0.060000*%
%ADD26R,0.060000X0.060000*%
%ADD27R,0.059000X0.059000*%
%ADD28R,0.060000X0.060000*%
%ADD29C,0.065000*%
%ADD30C,0.040000*%
%LNchronomepcbv2_2-1*%
%LPD*%
G54D10*
X09476Y03561D03*
Y10451D03*
X0888D03*
X07895D03*
X06911D03*
X05927D03*
X04943D03*
X03958D03*
X02974D03*
X09476Y09467D03*
X0888D03*
X07895D03*
X06911D03*
X05927D03*
X04943D03*
X03958D03*
X02974D03*
X09476Y08482D03*
X0888D03*
X07895D03*
X06911D03*
X05927D03*
X04943D03*
X03958D03*
X02974D03*
X09476Y07498D03*
X0888D03*
X07895D03*
X06911D03*
X05927D03*
X04943D03*
X03958D03*
X02974D03*
X09476Y06514D03*
X0888D03*
X07895D03*
X06911D03*
X05927D03*
X04943D03*
X03958D03*
X02974D03*
X09476Y0553D03*
X0888D03*
X07895D03*
X06911D03*
X05927D03*
X04943D03*
X03958D03*
X02974D03*
X09476Y04545D03*
X0888D03*
X07895D03*
X06911D03*
X05927D03*
X04943D03*
X03958D03*
X02974D03*
X0888Y03561D03*
X07895D03*
X06911D03*
X05927D03*
X04943D03*
X03958D03*
X02974D03*
G54D11*
X09819Y03561D03*
Y10451D03*
X08537D03*
X07552D03*
X06568D03*
X05584D03*
X046D03*
X03615D03*
X02631D03*
X09819Y09467D03*
X08537D03*
X07552D03*
X06568D03*
X05584D03*
X046D03*
X03615D03*
X02631D03*
X09819Y08482D03*
X08537D03*
X07552D03*
X06568D03*
X05584D03*
X046D03*
X03615D03*
X02631D03*
X09819Y07498D03*
X08537D03*
X07552D03*
X06568D03*
X05584D03*
X046D03*
X03615D03*
X02631D03*
X09819Y06514D03*
X08537D03*
X07552D03*
X06568D03*
X05584D03*
X046D03*
X03615D03*
X02631D03*
X09819Y0553D03*
X08537D03*
X07552D03*
X06568D03*
X05584D03*
X046D03*
X03615D03*
X02631D03*
X09819Y04545D03*
X08537D03*
X07552D03*
X06568D03*
X05584D03*
X046D03*
X03615D03*
X02631D03*
X08537Y03561D03*
X07552D03*
X06568D03*
X05584D03*
X046D03*
X03615D03*
X02631D03*
G54D12*
X09387Y11305D02*
X0954D01*
X09545Y113*
X095Y11255D02*
X097Y11055D01*
X0945Y11255D02*
X095D01*
X08363Y11302D02*
X08772D01*
X07388D02*
X07722D01*
X07385Y11305D02*
X07388Y11302D01*
X06695Y11305D02*
X067D01*
X05175Y03689D02*
Y0375D01*
Y03689D02*
X05225Y03639D01*
X05307Y038D02*
X05753D01*
X05296Y03811D02*
X05307Y038D01*
X05225Y03811D02*
X05296D01*
X05214Y038D02*
X05225Y03811D01*
X04769Y038D02*
X05214D01*
X05157Y0365D02*
X05208Y03599D01*
X04769Y0365D02*
X05157D01*
X10055Y03437D02*
X1007Y03452D01*
X10015Y03453D02*
X1003Y03468D01*
X09975Y0347D02*
X0999Y03485D01*
Y03615*
X1003Y03468D02*
Y03555D01*
X1007Y03452D02*
Y03495D01*
X1015Y03575*
X1003Y03555D02*
X1015Y03675D01*
X0999Y03615D02*
X1015Y03775D01*
X0995Y03675D02*
X1015Y03875D01*
X0995Y03522D02*
Y03675D01*
X0993Y03502D02*
X0995Y03522D01*
X0993Y0343D02*
Y03502D01*
X099Y034D02*
X0993Y0343D01*
X09975Y03405D02*
Y0347D01*
X10015Y03388D02*
Y03453D01*
X10055Y03372D02*
Y03437D01*
X10095Y0342D02*
X1015Y03475D01*
X10095Y03355D02*
Y0342D01*
X0993Y0336D02*
X09975Y03405D01*
X08475Y0336D02*
X0993D01*
X09947Y0332D02*
X10015Y03388D01*
X07531Y0332D02*
X09947D01*
X09963Y0328D02*
X10055Y03372D01*
X06587Y0328D02*
X09963D01*
X0998Y0324D02*
X10095Y03355D01*
X0657Y0324D02*
X0998D01*
X10149Y03353D02*
Y03356D01*
X09996Y032D02*
X10149Y03353D01*
X06554Y032D02*
X09996D01*
X06537Y0316D02*
X10013D01*
X09419Y034D02*
X099D01*
X0939Y03429D02*
X09419Y034D01*
X0939Y03429D02*
Y0343D01*
X09359Y03461D02*
X0939Y0343D01*
X0906Y03461D02*
X09359D01*
X0969Y037D02*
X09749D01*
X10021Y03971*
X10013Y0316D02*
X10228Y03375D01*
X10149Y03356D02*
X1015Y03357D01*
Y03375*
X1003Y0552D02*
X1015Y0564D01*
X1003Y0543D02*
Y0552D01*
X0999Y0558D02*
X1015Y0574D01*
X0999Y0545D02*
Y0558D01*
X09906Y05246D02*
X1007Y0541D01*
X09886Y05286D02*
X1003Y0543D01*
X09866Y05326D02*
X0999Y0545D01*
X1007Y0541D02*
Y0546D01*
X1015Y0554*
X0995Y0564D02*
X1015Y0584D01*
X0995Y0547D02*
Y0564D01*
X09846Y05366D02*
X0995Y0547D01*
X09419Y05366D02*
X09846D01*
X0906Y05426D02*
X09359D01*
X08475Y05326D02*
X09866D01*
X08458Y05286D02*
X09886D01*
X09922Y05206D02*
X1015Y05433D01*
X10113Y0534D02*
X1015D01*
X09939Y05166D02*
X10113Y0534D01*
X08442Y05246D02*
X09906D01*
X08425Y05206D02*
X09922D01*
X1015Y05433D02*
Y0544D01*
X08409Y05166D02*
X09939D01*
X09418Y07337D02*
X0983D01*
X08475Y07297D02*
X09846D01*
X08458Y07257D02*
X09863D01*
X09406Y07216D02*
X09878D01*
X09863Y07257D02*
X10095Y07489D01*
X10055Y07506D02*
Y07615D01*
X09846Y07297D02*
X10055Y07506D01*
X1001Y07517D02*
Y0768D01*
X0983Y07337D02*
X1001Y07517D01*
X09422Y07176D02*
X09926D01*
X09976Y07136D02*
X1015Y0731D01*
X09439Y07136D02*
X09976D01*
X09926Y07176D02*
X1015Y074D01*
X09878Y09186D02*
X09979Y09287D01*
X10064Y09371*
Y09372*
X1015Y09458*
Y0948*
X10024Y09388D02*
D01*
X09962Y09327D02*
X10024Y09388D01*
X09962Y09327D02*
D01*
X09984Y09405D02*
D01*
X09946Y09367D02*
X09984Y09405D01*
X09946Y09367D02*
D01*
X09944Y09421D02*
D01*
X09929Y09407D02*
X09944Y09421D01*
X09929Y09407D02*
D01*
X08442Y09186D02*
X09878D01*
X10024Y09388D02*
X1009Y09454D01*
X09861Y09226D02*
X09962Y09327D01*
X08458Y09226D02*
X09861D01*
X1005Y09471D02*
Y0958D01*
X09984Y09405D02*
X1005Y09471D01*
X09845Y09266D02*
X09946Y09367D01*
X08475Y09266D02*
X09845D01*
X1001Y09487D02*
Y0964D01*
X09944Y09421D02*
X1001Y09487D01*
X09828Y09306D02*
X09929Y09407D01*
X09419Y09306D02*
X09828D01*
X1009Y09454D02*
Y0952D01*
X09916Y09146D02*
X1014Y0937D01*
X08425Y09146D02*
X09916D01*
X1014Y0937D02*
X1016D01*
X09976Y09106D02*
X1015Y0928D01*
X08409Y09106D02*
X09976D01*
X1015Y074D02*
Y0741D01*
X1014Y0781D02*
X1015D01*
X1001Y0768D02*
X1014Y0781D01*
X09878Y07216D02*
X10155Y07493D01*
X10095Y07489D02*
Y07555D01*
X10155Y07493D02*
Y07495D01*
X10013Y07096D02*
X10228Y0731D01*
X09456Y07096D02*
X10013D01*
X10055Y07615D02*
X1015Y0771D01*
X10095Y07555D02*
X1015Y0761D01*
X1009Y0952D02*
X1015Y0958D01*
X1005D02*
X1015Y0968D01*
X1001Y0964D02*
X1015Y0978D01*
X10015Y09066D02*
X10175Y09226D01*
X08312Y09146D02*
X08392Y09066D01*
X08375Y09366D02*
X08475Y09266D01*
X08378Y09306D02*
X08458Y09226D01*
X08362Y09266D02*
X08442Y09186D01*
X08345Y09226D02*
X08425Y09146D01*
X08329Y09186D02*
X08409Y09106D01*
X08392Y09066D02*
X10015D01*
X09359Y09366D02*
X09419Y09306D01*
X10175Y09227D02*
X10228Y0928D01*
X10175Y09226D02*
Y09227D01*
X08313Y07176D02*
X08392Y07097D01*
X0833Y07216D02*
X08409Y07137D01*
X0838Y07336D02*
X08458Y07257D01*
X08376Y07396D02*
X08475Y07297D01*
X08363Y07296D02*
X08442Y07217D01*
X09023*
X08347Y07256D02*
X08425Y07177D01*
X09006*
X08409Y07137D02*
X0899D01*
X08392Y07097D02*
X08973D01*
X09106Y06964*
X0899Y07137D02*
X09123Y07004D01*
X09006Y07177D02*
X09139Y07044D01*
X09023Y07217D02*
X09156Y07084D01*
X06473Y07216D02*
X0833D01*
X0649Y07256D02*
X08347D01*
X06506Y07296D02*
X08363D01*
X07451Y07336D02*
X0838D01*
X08076Y07396D02*
X08376D01*
X06457Y07176D02*
X08313D01*
X09156Y07084D02*
X09274D01*
X09139Y07044D02*
X09291D01*
X09123Y07004D02*
X09307D01*
X09106Y06964D02*
X09324D01*
X09274Y07084D02*
X09406Y07216D01*
X09291Y07044D02*
X09422Y07176D01*
X09307Y07004D02*
X09439Y07136D01*
X09324Y06964D02*
X09456Y07096D01*
X09359Y07396D02*
X09418Y07337D01*
X0906Y07396D02*
X09359D01*
X03595Y03315D02*
X06382D01*
X03449Y03461D02*
X03595Y03315D01*
X08374Y03461D02*
X08475Y0336D01*
X07451Y034D02*
X07531Y0332D01*
X06467Y034D02*
X06587Y0328D01*
X0645Y0336D02*
X0657Y0324D01*
X06434Y0332D02*
X06554Y032D01*
X06417Y0328D02*
X06537Y0316D01*
X08076Y03461D02*
X08374D01*
X07451Y034D02*
D01*
X07421Y03429D02*
X07451Y034D01*
X07421Y03429D02*
Y0343D01*
X0739Y03461D02*
X07421Y0343D01*
X05541Y03361D02*
X06393D01*
X0554Y0336D02*
X05541Y03361D01*
X05465Y0336D02*
X0554D01*
X05465Y03361D02*
Y0336D01*
X04534Y03361D02*
X05465D01*
X05524Y03401D02*
X06409D01*
X05523Y034D02*
X05524Y03401D01*
X05482Y034D02*
X05523D01*
X05453Y03429D02*
X05482Y034D01*
X05453Y03429D02*
Y0343D01*
X05422Y03461D02*
X05453Y0343D01*
X06417Y0328D02*
D01*
X06382Y03315D02*
X06417Y0328D01*
X06433Y0332D02*
X06434D01*
X06393Y03361D02*
X06433Y0332D01*
X0645Y0336D02*
D01*
X06409Y03401D02*
X0645Y0336D01*
X06466Y034D02*
X06467D01*
X06437Y03429D02*
X06466Y034D01*
X06437Y03429D02*
Y0343D01*
X06406Y03461D02*
X06437Y0343D01*
X04434Y03461D02*
X04534Y03361D01*
X09416Y04384D02*
X09863D01*
X09355Y04445D02*
X09416Y04384D01*
X0906Y04445D02*
X09355D01*
X09979Y04304D02*
X1015Y04475D01*
X08369Y04384D02*
X08449Y04304D01*
X09919Y04344D02*
X1015Y04575D01*
X08365Y04445D02*
X08466Y04344D01*
X09863Y04384D02*
X09989Y0451D01*
X08466Y04344D02*
X09919D01*
X08449Y04304D02*
X09979D01*
X09989Y04511D02*
X1015Y04672D01*
X09989Y0451D02*
Y04511D01*
X09283Y04011D02*
X09604D01*
X09283D02*
D01*
X09112D02*
X09283D01*
X09112D02*
D01*
X08791D02*
X09112D01*
X09267Y04051D02*
X09621D01*
X09266D02*
X09267D01*
X09129D02*
X09266D01*
X09128D02*
X09129D01*
X08775D02*
X09128D01*
X0925Y04091D02*
X09637D01*
X0925D02*
D01*
X09145D02*
X0925D01*
X09145D02*
D01*
X08758D02*
X09145D01*
X09234Y04131D02*
X09654D01*
X09233D02*
X09234D01*
X09162D02*
X09233D01*
X09162D02*
D01*
X08742D02*
X09162D01*
X08791Y04011D02*
D01*
X0862D02*
X08791D01*
X0862D02*
D01*
X08524D02*
X0862D01*
X08774Y04051D02*
X08775D01*
X08637D02*
X08774D01*
X08636D02*
X08637D01*
X08758Y04091D02*
D01*
X08653D02*
X08758D01*
X08653D02*
D01*
X08549D02*
X08653D01*
X08741Y04131D02*
X08742D01*
X0867D02*
X08741D01*
X08669D02*
X0867D01*
X08565D02*
X08669D01*
X09775Y04011D02*
X10043D01*
X09775D02*
D01*
X09604D02*
X09775D01*
X09604D02*
D01*
X09759Y04051D02*
X10026D01*
X09759D02*
D01*
X09621D02*
X09759D01*
X09621D02*
D01*
X09742Y04091D02*
X09966D01*
X09742D02*
D01*
X09638D02*
X09742D01*
X09637D02*
X09638D01*
X09726Y04131D02*
X09906D01*
X09725D02*
X09726D01*
X09654D02*
X09725D01*
X09654D02*
D01*
X08516Y04011D02*
X08524D01*
X08442Y04085D02*
X08516Y04011D01*
X0566Y04085D02*
X08442D01*
X08532Y04051D02*
X08636D01*
X08459Y04125D02*
X08532Y04051D01*
X0568Y04125D02*
X08459D01*
X08353Y04344D02*
X08565Y04131D01*
X08337Y04304D02*
X08549Y04091D01*
X06506Y04344D02*
X08353D01*
X05561Y04304D02*
X08337D01*
X07451Y04384D02*
X08369D01*
X08076Y04445D02*
X08365D01*
X06405D02*
X06506Y04344D01*
X07421Y04414D02*
X07451Y04384D01*
X07421Y04414D02*
D01*
X0739Y04445D02*
X07421Y04414D01*
X06107Y04445D02*
X06405D01*
X05405Y0434D02*
X0566Y04085D01*
X03555Y0434D02*
X05405D01*
X0345Y04445D02*
X03555Y0434D01*
X04495Y0438D02*
X05425D01*
X0443Y04445D02*
X04495Y0438D01*
X05425D02*
X0568Y04125D01*
X0981Y061D02*
X1015Y0644D01*
X09654Y061D02*
X0981D01*
X07091Y07396D02*
X0739D01*
X0845Y0605D02*
X08561Y05939D01*
X08468Y0609D02*
X08579Y05979D01*
X08343Y06272D02*
X08595Y06019D01*
X0836Y06312D02*
X08612Y06059D01*
X08376Y06352D02*
X08629Y06099D01*
X08741*
X08612Y06059D02*
X08758D01*
X08595Y06019D02*
X08774D01*
X08579Y05979D02*
X08791D01*
X08561Y05939D02*
X08807D01*
X08808Y0594D02*
X09587D01*
X08807Y05939D02*
X08808Y0594D01*
X08791Y0598D02*
X09604D01*
X08791Y05979D02*
Y0598D01*
X08775Y0602D02*
X09621D01*
X08774Y06019D02*
X08775Y0602D01*
X08758Y0606D02*
X09637D01*
X08758Y06059D02*
Y0606D01*
X08742Y061D02*
X09654D01*
X08741Y06099D02*
X08742Y061D01*
X09587Y0594D02*
X09588D01*
X09604Y0598D02*
D01*
X09621Y0602D02*
D01*
X09637Y0606D02*
X09638D01*
X09654Y061D02*
D01*
X08475Y0631D02*
X0992D01*
X09419Y0635D02*
X09863D01*
X0992Y0631D02*
X1015Y0654D01*
X08375Y0641D02*
X08475Y0631D01*
X09863Y0635D02*
X1015Y06637D01*
X09359Y0641D02*
X09419Y0635D01*
X0906Y0641D02*
X09359D01*
X07686Y06272D02*
X08343D01*
X07669Y06312D02*
X0836D01*
X07652Y06352D02*
X08376D01*
X0579Y0627D02*
X067D01*
X05788Y06272D02*
X0579Y0627D01*
X05717Y06272D02*
X05788D01*
X05715Y0627D02*
X05717Y06272D01*
X0556Y0627D02*
X05715D01*
X07651Y0635D02*
X07652Y06352D01*
X0745Y0635D02*
X07651D01*
X07667Y0631D02*
X07669Y06312D01*
X06791Y0631D02*
X07667D01*
X07684Y0627D02*
X07686Y06272D01*
X06774Y0627D02*
X07684D01*
X06789Y06312D02*
X06791Y0631D01*
X06685Y06312D02*
X06789D01*
X06683Y0631D02*
X06685Y06312D01*
X06506Y0631D02*
X06683D01*
X06773Y06272D02*
X06774Y0627D01*
X06701Y06272D02*
X06773D01*
X067Y0627D02*
X06701Y06272D01*
X0739Y0641D02*
X0745Y0635D01*
X06406Y0641D02*
X06506Y0631D01*
X0542Y0641D02*
X0556Y0627D01*
X07091Y0641D02*
X0739D01*
X05422Y07396D02*
X05482Y07336D01*
X04434Y07396D02*
X04534Y07296D01*
X03484Y07365D02*
X03593Y07256D01*
X06409Y07336D02*
X0649Y07256D01*
X06393Y07296D02*
X06473Y07216D01*
X06376Y07256D02*
X06457Y07176D01*
X03593Y07256D02*
X06376D01*
X04534Y07296D02*
X06393D01*
X05482Y07336D02*
X06409D01*
X08345Y0824D02*
X08558Y08026D01*
X08378Y0832D02*
X08458Y0824D01*
X08361Y0828D02*
X08575Y08066D01*
X07686Y0824D02*
X08345D01*
X07669Y0828D02*
X08361D01*
X07652Y0832D02*
X08378D01*
X05789Y0824D02*
X06701D01*
X05788D02*
X05789D01*
X05717D02*
X05788D01*
X05717D02*
D01*
X0556D02*
X05717D01*
X07652Y0832D02*
D01*
X0745D02*
X07652D01*
X07669Y0828D02*
D01*
X06789D02*
X07669D01*
X07685Y0824D02*
X07686D01*
X06773D02*
X07685D01*
X06789Y0828D02*
D01*
X06685D02*
X06789D01*
X06685D02*
D01*
X06506D02*
X06685D01*
X06773Y0824D02*
D01*
X06701D02*
X06773D01*
X06701D02*
D01*
X0739Y0838D02*
X0745Y0832D01*
X06406Y0838D02*
X06506Y0828D01*
X0542Y0838D02*
X0556Y0824D01*
X07091Y0838D02*
X0739D01*
X08375D02*
X08475Y0828D01*
X08758D02*
X09637D01*
X08758D02*
D01*
X08653D02*
X08758D01*
X08653D02*
D01*
X08475D02*
X08653D01*
X08741Y0824D02*
X09654D01*
X08741D02*
D01*
X0867D02*
X08741D01*
X0867D02*
D01*
X08458D02*
X0867D01*
X09759Y0832D02*
X09863D01*
X09759D02*
D01*
X09621D02*
X09759D01*
X09621D02*
D01*
X09419D02*
X09621D01*
X09742Y0828D02*
X0992D01*
X09742D02*
D01*
X09638D02*
X09742D01*
X09637D02*
X09638D01*
X09726Y0824D02*
X0998D01*
X09725D02*
X09726D01*
X09654D02*
X09725D01*
X09654D02*
D01*
X09863Y0832D02*
X1015Y08607D01*
X09359Y0838D02*
X09419Y0832D01*
X0992Y0828D02*
X1015Y0851D01*
X0998Y0824D02*
X1015Y0841D01*
X0906Y0838D02*
X09359D01*
X10245Y04675D02*
X1045D01*
X1019Y0473D02*
X10245Y04675D01*
X1011Y0473D02*
X1019D01*
X10064Y04685D02*
X1011Y0473D01*
X0969Y04685D02*
X10064D01*
X07091Y04445D02*
X0739D01*
X10107Y04075D02*
X1015D01*
X05123Y04445D02*
X0542D01*
X05561Y04304*
X04139Y04445D02*
X0443D01*
X03154D02*
X0345D01*
X09906Y04131D02*
X1015Y04375D01*
X09966Y04091D02*
X1015Y04275D01*
X10026Y04051D02*
X1015Y04175D01*
X10043Y04011D02*
X10107Y04075D01*
X10021Y03971D02*
X10146D01*
X06107Y03461D02*
X06406D01*
X05123D02*
X05422D01*
X10228Y03375D02*
X1045D01*
X04139Y03461D02*
X04434D01*
X10245Y0664D02*
X1045D01*
X1019Y06695D02*
X10245Y0664D01*
X1011Y06695D02*
X1019D01*
X10064Y0665D02*
X1011Y06695D01*
X0969Y0665D02*
X10064D01*
X08076Y0641D02*
X08375D01*
X06107D02*
X06406D01*
X05123D02*
X0542D01*
X04139D02*
X0443D01*
X04539Y0635D02*
X0542D01*
X04556Y0631D02*
D01*
X0443Y0641D02*
X0449Y0635D01*
X04539*
X03154Y0641D02*
X0345D01*
X0355Y0631*
X04556*
X054D01*
X0566Y0605*
X0845*
X0542Y0635D02*
X0568Y0609D01*
X08468*
X09359Y05426D02*
X09419Y05366D01*
X08375Y05426D02*
X08475Y05326D01*
X08076Y05426D02*
X08375D01*
X08378Y05366D02*
X08458Y05286D01*
X07451Y05366D02*
X08378D01*
X0739Y05426D02*
X07451Y05366D01*
X07091Y05426D02*
X0739D01*
X08362Y05326D02*
X08442Y05246D01*
X06506Y05326D02*
X08362D01*
X06406Y05426D02*
X06506Y05326D01*
X06107Y05426D02*
X06406D01*
X08345Y05286D02*
X08425Y05206D01*
X0649Y05286D02*
X08345D01*
X05123Y05426D02*
X05422D01*
X08329Y05246D02*
X08409Y05166D01*
X06473Y05246D02*
X08329D01*
X10228Y0534D02*
X1045D01*
X10013Y05126D02*
X10228Y0534D01*
X08392Y05126D02*
X10013D01*
X08312Y05206D02*
X08392Y05126D01*
X06457Y05206D02*
X08312D01*
X03154Y05426D02*
X03454D01*
X03484Y05396*
X04139Y05426D02*
X04434D01*
X06393Y05326D02*
X06473Y05246D01*
X0641Y05366D02*
X0649Y05286D01*
X05422Y05426D02*
X05482Y05366D01*
X0641*
X04534Y05326D02*
X06393D01*
X03484Y05395D02*
X03599Y0528D01*
X06382*
X06457Y05206*
X04434Y05426D02*
X04534Y05326D01*
X10245Y0861D02*
X1045D01*
X1019Y08665D02*
X10245Y0861D01*
X1011Y08665D02*
X1019D01*
X10064Y0862D02*
X1011Y08665D01*
X0969Y0862D02*
X10064D01*
X08076Y0838D02*
X08375D01*
X06107D02*
X06406D01*
X10107Y0801D02*
X1015D01*
X05123Y0838D02*
X0542D01*
X04139D02*
X0443D01*
X04539Y0832D02*
X0542D01*
X04556Y0828D02*
D01*
X0443Y0838D02*
X0449Y0832D01*
X04539*
X03154Y0838D02*
X0345D01*
X0355Y0828*
X04556*
X09906Y08066D02*
X1015Y0831D01*
X09966Y08026D02*
X1015Y0821D01*
X10026Y07986D02*
X1015Y0811D01*
X10043Y07946D02*
X10107Y0801D01*
X08575Y08066D02*
X09906D01*
X08558Y08026D02*
X09966D01*
X08542Y07986D02*
X10026D01*
X08524Y07946D02*
X10043D01*
X04556Y0828D02*
X054D01*
X0566Y0802*
X0845*
X08524Y07946*
X0542Y0832D02*
X0568Y0806D01*
X08468*
X08542Y07986*
X10021Y07906D02*
X10146D01*
X09755Y07641D02*
X10021Y07906D01*
X09695Y07641D02*
X09755D01*
X0739Y07396D02*
X07451Y07336D01*
X06406Y07396D02*
X06506Y07296D01*
X06107Y07396D02*
X06406D01*
X05123D02*
X05422D01*
X10228Y0731D02*
X1045D01*
X03154Y07396D02*
X03454D01*
X03484Y07366*
X04139Y07396D02*
X04434D01*
Y09366D02*
X04534Y09266D01*
X06382Y0922D02*
X06457Y09146D01*
X03599Y0922D02*
X06382D01*
X03484Y09335D02*
X03599Y0922D01*
X04534Y09266D02*
X06393D01*
X05482Y09306D02*
X0641D01*
X05422Y09366D02*
X05482Y09306D01*
X0641D02*
X0649Y09226D01*
X06393Y09266D02*
X06473Y09186D01*
X04139Y09366D02*
X04434D01*
X1015Y08608D02*
Y0861D01*
X03484Y09335D02*
Y09336D01*
X03454Y09366D02*
X03484Y09336D01*
X03154Y09366D02*
X03454D01*
X06457Y09146D02*
X08312D01*
X10228Y0928D02*
X1045D01*
X06473Y09186D02*
X08329D01*
X05123Y09366D02*
X05422D01*
X0649Y09226D02*
X08345D01*
X06107Y09366D02*
X06406D01*
X06506Y09266*
X08362*
X07091Y09366D02*
X0739D01*
X07451Y09306*
X08378*
X08076Y09366D02*
X08375D01*
X0906D02*
X09359D01*
X0969Y09606D02*
X09695Y09611D01*
X09755*
X10021Y09876*
X10146*
X1015Y0988*
X08468Y1003D02*
X08542Y09956D01*
X0568Y1003D02*
X08468D01*
X0542Y1029D02*
X0568Y1003D01*
X0845Y0999D02*
X08524Y09916D01*
X0566Y0999D02*
X0845D01*
X054Y1025D02*
X0566Y0999D01*
X04556Y1025D02*
X054D01*
X08524Y09916D02*
X10043D01*
X08542Y09956D02*
X10026D01*
X08558Y09996D02*
X09966D01*
X08346Y10209D02*
X08558Y09996D01*
X08575Y10036D02*
X09906D01*
X08362Y1025D02*
X08575Y10036D01*
X10043Y09916D02*
X10107Y0998D01*
X10026Y09956D02*
X1015Y1008D01*
X09966Y09996D02*
X1015Y1018D01*
X09906Y10036D02*
X1015Y1028D01*
X0355Y1025D02*
X04556D01*
X0345Y1035D02*
X0355Y1025D01*
X03154Y1035D02*
X0345D01*
X0449Y1029D02*
X04539D01*
X0443Y1035D02*
X0449Y1029D01*
X04556Y1025D02*
D01*
X04539Y1029D02*
D01*
X0542*
X04139Y1035D02*
X0443D01*
X05561Y10209D02*
X08346D01*
X0542Y1035D02*
X05561Y10209D01*
X05123Y1035D02*
X0542D01*
X10107Y0998D02*
X1015D01*
X06406Y1035D02*
X06506Y1025D01*
X06107Y1035D02*
X06406D01*
X06506Y1025D02*
X08362D01*
X07091Y1035D02*
X0739D01*
X08458Y1021D02*
X0998D01*
X1015Y1038*
X0739Y1035D02*
X07451Y1029D01*
X08378*
X08458Y1021*
X0906Y1035D02*
X09359D01*
X09419Y1029D02*
X09863D01*
X1015Y10577*
X09359Y1035D02*
X09419Y1029D01*
X1015Y10577D02*
Y1058D01*
X08076Y1035D02*
X08375D01*
X08475Y1025*
X0992*
X1015Y1048*
X08706Y037D02*
X0906D01*
X07721D02*
X08076D01*
X06737D02*
X07091D01*
X05753D02*
X06107D01*
X04769D02*
X05123D01*
X03784D02*
X04139D01*
X028D02*
X03154D01*
X028Y04684D02*
X03154D01*
X03784D02*
X04139D01*
X04769D02*
X05123D01*
X05753D02*
X06107D01*
X06737D02*
X07091D01*
X07721D02*
X08076D01*
X08706D02*
X0906D01*
X08706Y05669D02*
X0906D01*
X07721D02*
X08076D01*
X06737D02*
X07091D01*
X05753D02*
X06107D01*
X04769D02*
X05123D01*
X03784D02*
X04139D01*
X028D02*
X03154D01*
X028Y06653D02*
X03154D01*
X03784D02*
X04139D01*
X04769D02*
X05123D01*
X05753D02*
X06107D01*
X06737D02*
X07091D01*
X07721D02*
X08076D01*
X08706D02*
X0906D01*
X08706Y07637D02*
X0906D01*
X07721D02*
X08076D01*
X06737D02*
X07091D01*
X05753D02*
X06107D01*
X04769D02*
X05123D01*
X03784D02*
X04139D01*
X028D02*
X03154D01*
X028Y08621D02*
X03154D01*
X03784D02*
X04139D01*
X04769D02*
X05123D01*
X05753D02*
X06107D01*
X06737D02*
X07091D01*
X07721D02*
X08076D01*
X08706D02*
X0906D01*
X08706Y09606D02*
X0906D01*
X07721D02*
X08076D01*
X06737D02*
X07091D01*
X05753D02*
X06107D01*
X04769D02*
X05123D01*
X03784D02*
X04139D01*
X028D02*
X03154D01*
X028Y1059D02*
X03154D01*
X03784D02*
X04139D01*
X04769D02*
X05123D01*
X05753D02*
X06107D01*
X06737D02*
X07091D01*
X07721D02*
X08076D01*
X08706Y1064D02*
X09112D01*
Y10579D02*
Y1064D01*
Y10579D02*
X09162Y10529D01*
X08706Y1069D02*
X09151D01*
X08706Y1054D02*
X09094D01*
X08706Y1059D02*
X0906D01*
X0969D02*
X10064D01*
X1011Y10635*
X1019*
X10245Y1058*
X1045*
X08706Y0365D02*
X09094D01*
X07721D02*
X08706D01*
X07332D02*
X07721D01*
X06737D02*
X07126D01*
X05364D02*
X05753D01*
X03784D02*
X04769D01*
X03395D02*
X03784D01*
X09301D02*
X0969D01*
X0925Y03599D02*
X09301Y0365D01*
X09145Y03599D02*
X0925D01*
X09094Y0365D02*
X09145Y03599D01*
X07281D02*
X07332Y0365D01*
X07177Y03599D02*
X07281D01*
X07126Y0365D02*
X07177Y03599D01*
X05313D02*
X05364Y0365D01*
X05208Y03599D02*
X05313D01*
X03344D02*
X03395Y0365D01*
X0324Y03599D02*
X03344D01*
X03189Y0365D02*
X0324Y03599D01*
X028Y0365D02*
X03189D01*
X06737Y04634D02*
X07126D01*
X05753D02*
X06737D01*
X05364D02*
X05753D01*
X04769D02*
X05157D01*
X03784D02*
X04769D01*
X03395D02*
X03784D01*
X028D02*
X03189D01*
X0324Y04583*
X03344*
X03395Y04634*
X05157D02*
X05208Y04583D01*
X05313*
X05364Y04634*
X07126D02*
X07177Y04583D01*
X07281*
X07332Y04634*
X07721*
X08706D02*
X09094D01*
X07721D02*
X08706D01*
X09094D02*
X09145Y04583D01*
X0925*
X09301Y04634*
X0969*
X08706Y05619D02*
X09094D01*
X07721D02*
X08706D01*
X07332D02*
X07721D01*
X06737D02*
X07126D01*
X05753D02*
X06737D01*
X05364D02*
X05753D01*
X04769D02*
X05157D01*
X03784D02*
X04769D01*
X03395D02*
X03784D01*
X09301D02*
X0969D01*
X0925Y05567D02*
X09301Y05619D01*
X09145Y05567D02*
X0925D01*
X09094Y05619D02*
X09145Y05567D01*
X07281D02*
X07332Y05619D01*
X05313Y05567D02*
X05364Y05619D01*
X05208Y05567D02*
X05313D01*
X05157Y05619D02*
X05208Y05567D01*
X03344D02*
X03395Y05619D01*
X0324Y05567D02*
X03344D01*
X03189Y05619D02*
X0324Y05567D01*
X028Y05619D02*
X03189D01*
X08706Y06603D02*
X09094D01*
X07721D02*
X08706D01*
X07332D02*
X07721D01*
X06737D02*
X07126D01*
X05753D02*
X06737D01*
X05364D02*
X05753D01*
X04769D02*
X05157D01*
X03784D02*
X04769D01*
X03395D02*
X03784D01*
X028D02*
X03189D01*
X0324Y06552*
X03344*
X03395Y06603*
X05157D02*
X05208Y06552D01*
X05313*
X05364Y06603*
X07126D02*
X07177Y06552D01*
X07281*
X07332Y06603*
X09094D02*
X09145Y06552D01*
X0925*
X09301Y06603*
X0969*
X08706Y07587D02*
X09094D01*
X07721D02*
X08706D01*
X07332D02*
X07721D01*
X06737D02*
X07126D01*
X05753D02*
X06737D01*
X05364D02*
X05753D01*
X04769D02*
X05157D01*
X03784D02*
X04769D01*
X03395D02*
X03784D01*
X09301D02*
X0969D01*
X0925Y07536D02*
X09301Y07587D01*
X09145Y07536D02*
X0925D01*
X09094Y07587D02*
X09145Y07536D01*
X07281D02*
X07332Y07587D01*
X05313Y07536D02*
X05364Y07587D01*
X05208Y07536D02*
X05313D01*
X05157Y07587D02*
X05208Y07536D01*
X03344D02*
X03395Y07587D01*
X0324Y07536D02*
X03344D01*
X03189Y07587D02*
X0324Y07536D01*
X028Y07587D02*
X03189D01*
X08706Y08571D02*
X09094D01*
X07721D02*
X08706D01*
X07332D02*
X07721D01*
X06737D02*
X07126D01*
X05753D02*
X06737D01*
X05364D02*
X05753D01*
X04769D02*
X05157D01*
X03784D02*
X04769D01*
X03395D02*
X03784D01*
X028D02*
X03189D01*
X0324Y0852*
X03344*
X03395Y08571*
X05157D02*
X05208Y0852D01*
X05313*
X05364Y08571*
X07126D02*
X07177Y0852D01*
X07281*
X07332Y08571*
X09094D02*
X09145Y0852D01*
X0925*
X09301Y08571*
X0969*
X08706Y09556D02*
X09094D01*
X07721D02*
X08706D01*
X07332D02*
X07721D01*
X06737D02*
X07126D01*
X05753D02*
X06737D01*
X05364D02*
X05753D01*
X04769D02*
X05157D01*
X03784D02*
X04769D01*
X03395D02*
X03784D01*
X09301D02*
X0969D01*
X0925Y09504D02*
X09301Y09556D01*
X09145Y09504D02*
X0925D01*
X09094Y09556D02*
X09145Y09504D01*
X07281D02*
X07332Y09556D01*
X05313Y09504D02*
X05364Y09556D01*
X05208Y09504D02*
X05313D01*
X05157Y09556D02*
X05208Y09504D01*
X03344D02*
X03395Y09556D01*
X0324Y09504D02*
X03344D01*
X03189Y09556D02*
X0324Y09504D01*
X028Y09556D02*
X03189D01*
X07721Y1054D02*
X08706D01*
X07332D02*
X07721D01*
X06737D02*
X07126D01*
X05753D02*
X06737D01*
X05364D02*
X05753D01*
X04769D02*
X05157D01*
X03784D02*
X04769D01*
X03395D02*
X03784D01*
X028D02*
X03189D01*
X0324Y10489*
X03344*
X03395Y1054*
X05157D02*
X05208Y10489D01*
X05313*
X05364Y1054*
X07126D02*
X07177Y10489D01*
X07281D02*
X07332Y1054D01*
X09094D02*
X09145Y10489D01*
X0925*
X09301Y1054*
X0969*
X03378Y1064D02*
X03784D01*
X03378Y10579D02*
Y1064D01*
X03328Y10529D02*
X03378Y10579D01*
X03256Y10529D02*
X03328D01*
X03206Y10579D02*
X03256Y10529D01*
X03206Y10579D02*
Y1064D01*
X028D02*
X03206D01*
X05347D02*
X05753D01*
X05347Y10579D02*
Y1064D01*
X05296Y10529D02*
X05347Y10579D01*
X05225Y10529D02*
X05296D01*
X05175Y10579D02*
X05225Y10529D01*
X05175Y10579D02*
Y1064D01*
X04769D02*
X05175D01*
X07143Y10579D02*
Y1064D01*
X06737D02*
X07143D01*
X07315D02*
X07721D01*
X07315Y10579D02*
Y1064D01*
X09162Y10529D02*
X09233D01*
X09284Y1064D02*
X0969D01*
X09284Y10579D02*
Y1064D01*
X09233Y10529D02*
X09284Y10579D01*
X07721Y1064D02*
X08706D01*
X05753D02*
X06737D01*
X03784D02*
X04769D01*
X03256Y09544D02*
X03328D01*
X03206Y09595D02*
X03256Y09544D01*
X03206Y09595D02*
Y09656D01*
X028D02*
X03206D01*
X03378D02*
X03784D01*
X03378Y09595D02*
Y09656D01*
X03328Y09544D02*
X03378Y09595D01*
X05225Y09544D02*
X05296D01*
X05175Y09595D02*
X05225Y09544D01*
X05175Y09595D02*
Y09656D01*
X04769D02*
X05175D01*
X05347D02*
X05753D01*
X05347Y09595D02*
Y09656D01*
X05296Y09544D02*
X05347Y09595D01*
X07143D02*
Y09656D01*
X06737D02*
X07143D01*
X07315D02*
X07721D01*
X07315Y09595D02*
Y09656D01*
X09162Y09544D02*
X09233D01*
X09112Y09595D02*
X09162Y09544D01*
X09112Y09595D02*
Y09656D01*
X08706D02*
X09112D01*
X09284D02*
X0969D01*
X09284Y09595D02*
Y09656D01*
X09233Y09544D02*
X09284Y09595D01*
X07721Y09656D02*
X08706D01*
X05753D02*
X06737D01*
X03784D02*
X04769D01*
X03378Y08671D02*
X03784D01*
X03378Y08611D02*
Y08671D01*
X03328Y0856D02*
X03378Y08611D01*
X03256Y0856D02*
X03328D01*
X03206Y08611D02*
X03256Y0856D01*
X03206Y08611D02*
Y08671D01*
X028D02*
X03206D01*
X05225Y0856D02*
X05296D01*
X05175Y08611D02*
X05225Y0856D01*
X05175Y08611D02*
Y08671D01*
X04769D02*
X05175D01*
X05347D02*
X05753D01*
X05347Y08611D02*
Y08671D01*
X05296Y0856D02*
X05347Y08611D01*
X07194Y0856D02*
X07265D01*
X07143Y08611D02*
X07194Y0856D01*
X07143Y08611D02*
Y08671D01*
X06737D02*
X07143D01*
X07315D02*
X07721D01*
X07315Y08611D02*
Y08671D01*
X07265Y0856D02*
X07315Y08611D01*
X09162Y0856D02*
X09233D01*
X09112Y08611D02*
X09162Y0856D01*
X09112Y08611D02*
Y08671D01*
X08706D02*
X09112D01*
X09284D02*
X0969D01*
X09284Y08611D02*
Y08671D01*
X09233Y0856D02*
X09284Y08611D01*
X07721Y08671D02*
X08706D01*
X05753D02*
X06737D01*
X03784D02*
X04769D01*
X03256Y07576D02*
X03328D01*
X03206Y07626D02*
X03256Y07576D01*
X03206Y07626D02*
Y07687D01*
X028D02*
X03206D01*
X03378Y07686D02*
X03379Y07687D01*
X03378Y07626D02*
Y07686D01*
X03328Y07576D02*
X03378Y07626D01*
X03379Y07687D02*
X03784D01*
X05225Y07576D02*
X05296D01*
X05175Y07626D02*
X05225Y07576D01*
X05175Y07626D02*
Y07687D01*
X04769D02*
X05175D01*
X05347D02*
X05753D01*
X05347Y07626D02*
Y07687D01*
X05296Y07576D02*
X05347Y07626D01*
X07143D02*
Y07687D01*
X06737D02*
X07143D01*
X07315D02*
X07721D01*
X07315Y07626D02*
Y07687D01*
X09162Y07576D02*
X09233D01*
X09112Y07626D02*
X09162Y07576D01*
X09112Y07626D02*
Y07687D01*
X08706D02*
X09112D01*
X09284D02*
X0969D01*
X09284Y07626D02*
Y07687D01*
X09233Y07576D02*
X09284Y07626D01*
X07721Y07687D02*
X08706D01*
X05753D02*
X06737D01*
X03784D02*
X04769D01*
X03378Y06703D02*
X03784D01*
X03378Y06642D02*
Y06703D01*
X03328Y06592D02*
X03378Y06642D01*
X03256Y06592D02*
X03328D01*
X03206Y06642D02*
X03256Y06592D01*
X03206Y06642D02*
Y06703D01*
X028D02*
X03206D01*
X05225Y06592D02*
X05296D01*
X05175Y06642D02*
X05225Y06592D01*
X05175Y06642D02*
Y06703D01*
X04769D02*
X05175D01*
X05347D02*
X05753D01*
X05347Y06642D02*
Y06703D01*
X05296Y06592D02*
X05347Y06642D01*
X07194Y06592D02*
X07265D01*
X07143Y06642D02*
X07194Y06592D01*
X07143Y06642D02*
Y06703D01*
X06737D02*
X07143D01*
X07315D02*
X07721D01*
X07315Y06642D02*
Y06703D01*
X07265Y06592D02*
X07315Y06642D01*
X09162Y06592D02*
X09233D01*
X09112Y06642D02*
X09162Y06592D01*
X09112Y06642D02*
Y06703D01*
X08706D02*
X09112D01*
X09284D02*
X0969D01*
X09284Y06642D02*
Y06703D01*
X09233Y06592D02*
X09284Y06642D01*
X07721Y06703D02*
X08706D01*
X05753D02*
X06737D01*
X03784D02*
X04769D01*
X03256Y05607D02*
X03328D01*
X03206Y05658D02*
X03256Y05607D01*
X03206Y05658D02*
Y05719D01*
X028D02*
X03206D01*
X03378D02*
X03784D01*
X03378Y05658D02*
Y05719D01*
X03328Y05607D02*
X03378Y05658D01*
X05225Y05607D02*
X05296D01*
X05175Y05658D02*
X05225Y05607D01*
X05175Y05658D02*
Y05719D01*
X04769D02*
X05175D01*
X05347D02*
X05753D01*
X05347Y05658D02*
Y05719D01*
X05296Y05607D02*
X05347Y05658D01*
X07143D02*
Y05719D01*
X06737D02*
X07143D01*
X07315D02*
X07721D01*
X07315Y05658D02*
Y05719D01*
X09162Y05607D02*
X09233D01*
X09112Y05658D02*
X09162Y05607D01*
X09112Y05658D02*
Y05719D01*
X08706D02*
X09112D01*
X09284D02*
X0969D01*
X09284Y05658D02*
Y05719D01*
X09233Y05607D02*
X09284Y05658D01*
X07721Y05719D02*
X08706D01*
X05753D02*
X06737D01*
X03784D02*
X04769D01*
X03256Y04623D02*
X03328D01*
X03206Y04674D02*
X03256Y04623D01*
X03206Y04674D02*
Y04734D01*
X028D02*
X03206D01*
X03378D02*
X03784D01*
X03378Y04674D02*
Y04734D01*
X03328Y04623D02*
X03378Y04674D01*
X05225Y04623D02*
X05296D01*
X05175Y04674D02*
X05225Y04623D01*
X05175Y04674D02*
Y04734D01*
X04769D02*
X05175D01*
X05347D02*
X05753D01*
X05347Y04674D02*
Y04734D01*
X05296Y04623D02*
X05347Y04674D01*
X07143D02*
Y04734D01*
X06737D02*
X07143D01*
X07194Y04623D02*
X07265D01*
X07143Y04674D02*
X07194Y04623D01*
X07315Y04734D02*
X07721D01*
X07315Y04674D02*
Y04734D01*
X07265Y04623D02*
X07315Y04674D01*
X09162Y04623D02*
X09233D01*
X09112Y04674D02*
X09162Y04623D01*
X09112Y04674D02*
Y04734D01*
X08706D02*
X09112D01*
X09284D02*
X0969D01*
X09284Y04674D02*
Y04734D01*
X09233Y04623D02*
X09284Y04674D01*
X07721Y04734D02*
X08706D01*
X05753D02*
X06737D01*
X03784D02*
X04769D01*
X05347Y0375D02*
X05753D01*
X05347Y03689D02*
Y0375D01*
X05296Y03639D02*
X05347Y03689D01*
X05225Y03639D02*
X05296D01*
X04769Y0375D02*
X05175D01*
X03378D02*
X03784D01*
X03378Y03689D02*
Y0375D01*
X03328Y03639D02*
X03378Y03689D01*
X03256Y03639D02*
X03328D01*
X03206Y03689D02*
X03256Y03639D01*
X03206Y03689D02*
Y0375D01*
X028D02*
X03206D01*
X05753D02*
X06737D01*
X03784D02*
X04769D01*
X07194Y03639D02*
X07265D01*
X07143Y03689D02*
X07194Y03639D01*
X07143Y03689D02*
Y0375D01*
X06737D02*
X07143D01*
X07315D02*
X07721D01*
X07315Y03689D02*
Y0375D01*
X07265Y03639D02*
X07315Y03689D01*
X07721Y0375D02*
X08706D01*
X09162Y03639D02*
X09233D01*
X09112Y03689D02*
X09162Y03639D01*
X09112Y03689D02*
Y0375D01*
X08706D02*
X09112D01*
X09284D02*
X0969D01*
X09284Y03689D02*
Y0375D01*
X09233Y03639D02*
X09284Y03689D01*
X08706Y038D02*
X09151D01*
X07721D02*
X08706D01*
X07276D02*
X07721D01*
X06737D02*
X07182D01*
X05753D02*
X06737D01*
X03784D02*
X04769D01*
X03339D02*
X03784D01*
X09244D02*
X0969D01*
X09233Y03811D02*
X09244Y038D01*
X09162Y03811D02*
X09233D01*
X09151Y038D02*
X09162Y03811D01*
X07265D02*
X07276Y038D01*
X07194Y03811D02*
X07265D01*
X07182Y038D02*
X07194Y03811D01*
X03328D02*
X03339Y038D01*
X03256Y03811D02*
X03328D01*
X03245Y038D02*
X03256Y03811D01*
X028Y038D02*
X03245D01*
X08706Y04784D02*
X09151D01*
X07721D02*
X08706D01*
X07276D02*
X07721D01*
X06737D02*
X07182D01*
X05753D02*
X06737D01*
X05307D02*
X05753D01*
X04769D02*
X05214D01*
X03784D02*
X04769D01*
X03339D02*
X03784D01*
X028D02*
X03245D01*
X03256Y04795*
X03328*
X03339Y04784*
X05214D02*
X05225Y04795D01*
X05296*
X05307Y04784*
X07182D02*
X07194Y04795D01*
X07265*
X07276Y04784*
X09151D02*
X09162Y04795D01*
X09233*
X09244Y04784*
X0969*
X08706Y05769D02*
X09151D01*
X07721D02*
X08706D01*
X05753D02*
X06737D01*
X05307D02*
X05753D01*
X04769D02*
X05214D01*
X03784D02*
X04769D01*
X03339D02*
X03784D01*
X09244D02*
X0969D01*
X09233Y0578D02*
X09244Y05769D01*
X09162Y0578D02*
X09233D01*
X09151Y05769D02*
X09162Y0578D01*
X05296D02*
X05307Y05769D01*
X05225Y0578D02*
X05296D01*
X05214Y05769D02*
X05225Y0578D01*
X03328D02*
X03339Y05769D01*
X03256Y0578D02*
X03328D01*
X03245Y05769D02*
X03256Y0578D01*
X028Y05769D02*
X03245D01*
X08706Y06753D02*
X09151D01*
X07721D02*
X08706D01*
X07276D02*
X07721D01*
X06737D02*
X07182D01*
X05753D02*
X06737D01*
X05307D02*
X05753D01*
X04769D02*
X05214D01*
X03784D02*
X04769D01*
X03339D02*
X03784D01*
X028D02*
X03245D01*
X03256Y06764*
X03328*
X03339Y06753*
X05214D02*
X05225Y06764D01*
X05296*
X05307Y06753*
X07182D02*
X07194Y06764D01*
X07265*
X07276Y06753*
X09151D02*
X09162Y06764D01*
X09233*
X09244Y06753*
X0969*
X08706Y07737D02*
X09151D01*
X07721D02*
X08706D01*
X05753D02*
X06737D01*
X05307D02*
X05753D01*
X04769D02*
X05214D01*
X03784D02*
X04769D01*
X03339D02*
X03784D01*
X09244D02*
X0969D01*
X09233Y07748D02*
X09244Y07737D01*
X09162Y07748D02*
X09233D01*
X09151Y07737D02*
X09162Y07748D01*
X05296D02*
X05307Y07737D01*
X05225Y07748D02*
X05296D01*
X05214Y07737D02*
X05225Y07748D01*
X03328D02*
X03339Y07737D01*
X03256Y07748D02*
X03328D01*
X03245Y07737D02*
X03256Y07748D01*
X028Y07737D02*
X03245D01*
X08706Y08721D02*
X09151D01*
X07721D02*
X08706D01*
X07276D02*
X07721D01*
X06737D02*
X07182D01*
X05753D02*
X06737D01*
X05307D02*
X05753D01*
X04769D02*
X05214D01*
X03784D02*
X04769D01*
X03339D02*
X03784D01*
X028D02*
X03245D01*
X03256Y08732*
X03328*
X03339Y08721*
X05214D02*
X05225Y08732D01*
X05296*
X05307Y08721*
X07182D02*
X07194Y08732D01*
X07265*
X07276Y08721*
X09151D02*
X09162Y08732D01*
X09233*
X09244Y08721*
X0969*
X08706Y09706D02*
X09151D01*
X07721D02*
X08706D01*
X05753D02*
X06737D01*
X05307D02*
X05753D01*
X04769D02*
X05214D01*
X03784D02*
X04769D01*
X03339D02*
X03784D01*
X09244D02*
X0969D01*
X09233Y09717D02*
X09244Y09706D01*
X09162Y09717D02*
X09233D01*
X09151Y09706D02*
X09162Y09717D01*
X05296D02*
X05307Y09706D01*
X05225Y09717D02*
X05296D01*
X05214Y09706D02*
X05225Y09717D01*
X03328D02*
X03339Y09706D01*
X03256Y09717D02*
X03328D01*
X03245Y09706D02*
X03256Y09717D01*
X028Y09706D02*
X03245D01*
X07721Y1069D02*
X08706D01*
X05753D02*
X06737D01*
X05307D02*
X05753D01*
X04769D02*
X05214D01*
X03784D02*
X04769D01*
X03339D02*
X03784D01*
X028D02*
X03245D01*
X03256Y10701*
X03328*
X03339Y1069*
X05214D02*
X05225Y10701D01*
X05296*
X05307Y1069*
X09151D02*
X09162Y10701D01*
X09233*
X09244Y1069*
X0969*
X03154Y03461D02*
X0321D01*
X03449*
X07265Y09544D02*
X07315Y09595D01*
X07265Y05607D02*
X07315Y05658D01*
X07265Y10529D02*
X07315Y10579D01*
X07265Y07576D02*
X07315Y07626D01*
X07091Y03461D02*
X0739D01*
X07276Y07737D02*
X07721D01*
X07265Y07748D02*
X07276Y07737D01*
X07194Y07748D02*
X07265D01*
X07182Y07737D02*
X07194Y07748D01*
X06737Y07737D02*
X07182D01*
X07194Y07576D02*
X07265D01*
X07143Y07626D02*
X07194Y07576D01*
X07177Y07536D02*
X07281D01*
X07126Y07587D02*
X07177Y07536D01*
X07276Y1069D02*
X07721D01*
X07265Y10701D02*
X07276Y1069D01*
X07194Y10701D02*
X07265D01*
X07182Y1069D02*
X07194Y10701D01*
X06737Y1069D02*
X07182D01*
X07194Y10529D02*
X07265D01*
X07143Y10579D02*
X07194Y10529D01*
X07177Y10489D02*
X07281D01*
X07276Y05769D02*
X07721D01*
X07265Y0578D02*
X07276Y05769D01*
X07194Y0578D02*
X07265D01*
X07182Y05769D02*
X07194Y0578D01*
X06737Y05769D02*
X07182D01*
X07194Y05607D02*
X07265D01*
X07143Y05658D02*
X07194Y05607D01*
X07177Y05567D02*
X07281D01*
X07126Y05619D02*
X07177Y05567D01*
X07276Y09706D02*
X07721D01*
X07265Y09717D02*
X07276Y09706D01*
X07194Y09717D02*
X07265D01*
X07182Y09706D02*
X07194Y09717D01*
X06737Y09706D02*
X07182D01*
X07194Y09544D02*
X07265D01*
X07143Y09595D02*
X07194Y09544D01*
X07177Y09504D02*
X07281D01*
X07126Y09556D02*
X07177Y09504D01*
X0745Y11255D02*
X075D01*
X077Y11055*
X0845Y11255D02*
X085D01*
X087Y11055*
X066Y11305D02*
X06606D01*
X07774Y11355D02*
X087D01*
X08774D02*
X097D01*
X1045Y10955D02*
X1062D01*
X1045Y0978D02*
X1062D01*
X1045Y0781D02*
X1062D01*
X1045Y08985D02*
X1062D01*
X1045Y0584D02*
X1062D01*
X1045Y07015D02*
X1062D01*
X1045Y03875D02*
X1062D01*
X1045Y0505D02*
X1062D01*
X1005Y09825D02*
X10117D01*
X10375Y09905D02*
X1045Y0998D01*
X10375Y09755D02*
X1045Y0968D01*
X102Y0983D02*
X10375D01*
Y09905*
Y09755D02*
Y0983D01*
Y07785D02*
Y0786D01*
Y07935*
X102Y0786D02*
X10375D01*
Y07785D02*
X1045Y0771D01*
X10375Y07935D02*
X1045Y0801D01*
X1005Y07855D02*
X10117D01*
X10375Y05815D02*
Y0589D01*
Y05965*
X102Y0589D02*
X10375D01*
Y05815D02*
X1045Y0574D01*
X10375Y05965D02*
X1045Y0604D01*
X10375Y0385D02*
Y03925D01*
Y04*
X102Y03925D02*
X10375D01*
Y0385D02*
X1045Y03775D01*
X10375Y04D02*
X1045Y04075D01*
X1005Y0392D02*
X10117D01*
X1005Y05885D02*
X10117D01*
X09638Y0606D02*
X0987D01*
X1015Y0634*
X09604Y0598D02*
X09951D01*
X09588Y0594D02*
X09968D01*
X09695Y05671D02*
X09761D01*
X10026Y05936*
X10146*
X09621Y0602D02*
X0993D01*
X1015Y0624*
X09968Y0594D02*
X10068Y0604D01*
X1015*
X09951Y0598D02*
X10112Y0614D01*
X1015*
X06606Y11305D02*
X0666Y1136D01*
X07695*
X077Y11355*
X07722Y11408D02*
X07774Y11355D01*
X06603Y11408D02*
X07722D01*
X065Y11305D02*
X06603Y11408D01*
X08682Y11448D02*
X08774Y11355D01*
X06543Y11448D02*
X08682D01*
X064Y11305D02*
X06543Y11448D01*
X05753Y0365D02*
X06737D01*
G54D13*
X09545Y113D02*
X09605D01*
X1015Y10755*
X08772Y11302D02*
X09387D01*
X067Y11305D02*
X07385D01*
X07103Y11205D02*
Y11303D01*
X067Y11205D02*
Y11305D01*
X066Y11205D02*
X067D01*
X065D02*
X066D01*
X064D02*
X065D01*
X063D02*
X064D01*
X0613Y0283D02*
X06139D01*
X0603D02*
X0613D01*
X0593D02*
X0603D01*
X0583D02*
X0593D01*
X0573D02*
X0583D01*
X0563D02*
X0573D01*
X0553D02*
X0563D01*
X0543D02*
X0553D01*
X06139D02*
X0623Y02921D01*
Y0306*
X1045Y0594D02*
X1055D01*
X1015Y10755D02*
X1055D01*
X1015Y0485D02*
X1055D01*
X1045Y0988D02*
X1055D01*
X1015Y08785D02*
X1055D01*
X1045Y0791D02*
X1055D01*
X1045Y03975D02*
X1055D01*
X1015Y06814D02*
X1055D01*
X07741Y11302D02*
X08363D01*
G54D14*
X09285Y0946D02*
X0952D01*
X09285Y0847D02*
X0952D01*
X09285Y1044D02*
X0952D01*
X09285Y0749D02*
X0952D01*
X09285Y065D02*
X0952D01*
X09285Y0552D02*
X0952D01*
X09285Y0453D02*
X0952D01*
X09285Y0355D02*
X0952D01*
X0691Y1044D02*
X07145D01*
X0691Y0946D02*
X07145D01*
X0691Y0749D02*
X07145D01*
X0691Y0847D02*
X07145D01*
X0691Y065D02*
X07145D01*
X0691Y0552D02*
X07145D01*
X0691Y0453D02*
X07145D01*
X04943Y1044D02*
X05175D01*
X04943Y0946D02*
X05175D01*
X04943Y0847D02*
X05175D01*
X04943Y0749D02*
X05175D01*
X04943Y065D02*
X05175D01*
X0494Y0552D02*
X0518D01*
X04944Y03551D02*
X0518D01*
X0494Y0453D02*
X05175D01*
X02974Y1044D02*
X03205D01*
X02974Y0847D02*
X03205D01*
X02974Y0946D02*
X03205D01*
X02974Y0749D02*
X03205D01*
X02974Y065D02*
X03205D01*
X02974Y0453D02*
X03205D01*
X02974Y03551D02*
X03209D01*
X02974Y0552D02*
X03205D01*
X04419Y0385D02*
X05403D01*
X0944Y0345D02*
X09738D01*
X09849Y03561*
X09738Y04434D02*
X09849Y04545D01*
X0944Y04434D02*
X09738D01*
X0944Y05419D02*
X09738D01*
X09849Y0553*
X09738Y06403D02*
X09849Y06514D01*
X0944Y06403D02*
X09738D01*
Y1034D02*
X09849Y10451D01*
X0944Y1034D02*
X09738D01*
X0944Y07387D02*
X09738D01*
X09849Y07498*
X09738Y08371D02*
X09849Y08482D01*
X0944Y08371D02*
X09738D01*
X0944Y09356D02*
X09738D01*
X09849Y09467*
X0255Y0345D02*
X02631Y03531D01*
Y03561*
X03534Y0345D02*
X03615Y03531D01*
Y03561*
X04519Y0345D02*
X046Y03531D01*
Y03561*
X05503Y0345D02*
X05584Y03531D01*
Y03561*
X06487Y0345D02*
X06568Y03531D01*
Y03561*
X07471Y0345D02*
X07552Y03531D01*
Y03561*
X08456Y0345D02*
X08537Y03531D01*
Y03561*
X08456Y04434D02*
X08537Y04515D01*
Y04545*
X07471Y04434D02*
X07552Y04515D01*
Y04545*
X06487Y04434D02*
X06568Y04515D01*
Y04545*
X05503Y04434D02*
X05584Y04515D01*
Y04545*
X04519Y04434D02*
X046Y04515D01*
Y04545*
X03534Y04434D02*
X03615Y04515D01*
Y04545*
X0255Y04434D02*
X02631Y04515D01*
Y04545*
X0255Y05419D02*
X02631Y055D01*
Y0553*
X03534Y05419D02*
X03615Y055D01*
Y0553*
X04519Y05419D02*
X046Y055D01*
Y0553*
X05503Y05419D02*
X05584Y055D01*
Y0553*
X06487Y05419D02*
X06568Y055D01*
Y0553*
X07471Y05419D02*
X07552Y055D01*
Y0553*
X08456Y05419D02*
X08537Y055D01*
Y0553*
X08456Y06403D02*
X08537Y06484D01*
Y06514*
X07471Y06403D02*
X07552Y06484D01*
Y06514*
X06487Y06403D02*
X06568Y06484D01*
Y06514*
X05503Y06403D02*
X05584Y06484D01*
Y06514*
X04519Y06403D02*
X046Y06484D01*
Y06514*
X03534Y06403D02*
X03615Y06484D01*
Y06514*
X0255Y06403D02*
X02631Y06484D01*
Y06514*
X0255Y07387D02*
X02631Y07468D01*
Y07498*
X03534Y07387D02*
X03615Y07468D01*
Y07498*
X04519Y07387D02*
X046Y07468D01*
Y07498*
X05503Y07387D02*
X05584Y07468D01*
Y07498*
X06487Y07387D02*
X06568Y07468D01*
Y07498*
X07471Y07387D02*
X07552Y07468D01*
Y07498*
X08456Y07387D02*
X08537Y07468D01*
Y07498*
X08456Y08371D02*
X08537Y08452D01*
Y08482*
X07471Y08371D02*
X07552Y08452D01*
Y08482*
X06487Y08371D02*
X06568Y08452D01*
Y08482*
X05503Y08371D02*
X05584Y08452D01*
Y08482*
X04519Y08371D02*
X046Y08452D01*
Y08482*
X03534Y08371D02*
X03615Y08452D01*
Y08482*
X0255Y08371D02*
X02631Y08452D01*
Y08482*
X0255Y09356D02*
X02631Y09437D01*
Y09467*
X03534Y09356D02*
X03615Y09437D01*
Y09467*
X04519Y09356D02*
X046Y09437D01*
Y09467*
X05503Y09356D02*
X05584Y09437D01*
Y09467*
X06487Y09356D02*
X06568Y09437D01*
Y09467*
X07471Y09356D02*
X07552Y09437D01*
Y09467*
X08456Y09356D02*
X08537Y09437D01*
Y09467*
X08456Y1034D02*
X08537Y10421D01*
Y10451*
X07471Y1034D02*
X07552Y10421D01*
Y10451*
X06487Y1034D02*
X06568Y10421D01*
Y10451*
X05503Y1034D02*
X05584Y10421D01*
Y10451*
X04519Y1034D02*
X046Y10421D01*
Y10451*
X03534Y1034D02*
X03615Y10421D01*
Y10451*
X02631Y10421D02*
Y10451D01*
X0255Y1034D02*
X02631Y10421D01*
X0215Y071D02*
X02447Y06803D01*
X03434*
X02237Y05047D02*
X0245Y04834D01*
X02237Y05047D02*
Y06813D01*
X0215Y069D02*
X02237Y06813D01*
X0215Y07D02*
X02267Y06883D01*
Y06002D02*
Y06883D01*
Y06002D02*
X0245Y05819D01*
X0215Y068D02*
X02207Y06743D01*
Y04093D02*
Y06743D01*
Y04093D02*
X0245Y0385D01*
X02207Y10497D02*
X0245Y1074D01*
X02207Y07557D02*
Y10497D01*
X02237Y09543D02*
X0245Y09756D01*
X02237Y07487D02*
Y09543D01*
X02267Y08588D02*
X0245Y08771D01*
X02267Y07417D02*
Y08588D01*
X02297Y07347D02*
Y0764D01*
X02444Y07787*
X03434*
X0215Y075D02*
X02207Y07557D01*
X0215Y074D02*
X02237Y07487D01*
X0215Y073D02*
X02267Y07417D01*
X0215Y072D02*
X02297Y07347D01*
X08356Y0385D02*
X0934D01*
X07371D02*
X08356D01*
X06387D02*
X07371D01*
X05403D02*
X06387D01*
X03434D02*
X04419D01*
X0245D02*
X03434D01*
X08356Y04834D02*
X0934D01*
X07371D02*
X08356D01*
X06387D02*
X07371D01*
X05403D02*
X06387D01*
X04419D02*
X05403D01*
X03434D02*
X04419D01*
X0245D02*
X03434D01*
X08356Y05819D02*
X0934D01*
X07371D02*
X08356D01*
X05403D02*
X06387D01*
X04419D02*
X05403D01*
X03434D02*
X04419D01*
X0245D02*
X03434D01*
X08356Y06803D02*
X0934D01*
X07371D02*
X08356D01*
X06387D02*
X07371D01*
X05403D02*
X06387D01*
X04419D02*
X05403D01*
X03434D02*
X04419D01*
X08356Y07787D02*
X0934D01*
X07371D02*
X08356D01*
X05403D02*
X06387D01*
X04419D02*
X05403D01*
X03434D02*
X04419D01*
X08356Y08771D02*
X0934D01*
X07371D02*
X08356D01*
X06387D02*
X07371D01*
X05403D02*
X06387D01*
X04419D02*
X05403D01*
X03434D02*
X04419D01*
X0245D02*
X03434D01*
X08356Y09756D02*
X0934D01*
X07371D02*
X08356D01*
X05403D02*
X06387D01*
X04419D02*
X05403D01*
X03434D02*
X04419D01*
X0245D02*
X03434D01*
X08356Y1074D02*
X0934D01*
X07371D02*
X08356D01*
X05403D02*
X06387D01*
X04419D02*
X05403D01*
X03434D02*
X04419D01*
X0245D02*
X03434D01*
X0396Y0946D02*
X04195D01*
X0396Y0749D02*
X04195D01*
X0396Y0847D02*
X04195D01*
X0396Y1044D02*
X04195D01*
X0396Y065D02*
X04195D01*
X03964Y03551D02*
X04199D01*
X0396Y0552D02*
X04195D01*
X0396Y0453D02*
X04195D01*
X0593Y0946D02*
X06165D01*
X0593Y0749D02*
X06165D01*
X0593Y0847D02*
X06165D01*
X0593Y1044D02*
X06165D01*
X0593Y065D02*
X06165D01*
X05934Y03551D02*
X06169D01*
X0593Y0552D02*
X06165D01*
X0593Y0453D02*
X06165D01*
X06914Y03551D02*
X07149D01*
X079Y0946D02*
X08135D01*
X079Y0749D02*
X08135D01*
X079Y0847D02*
X08135D01*
X079Y1044D02*
X08135D01*
X079Y065D02*
X08135D01*
X07904Y03551D02*
X08139D01*
X079Y0552D02*
X08135D01*
X079Y0453D02*
X08135D01*
X0888Y0946D02*
X09115D01*
X0888Y0749D02*
X09115D01*
X0888Y0847D02*
X09115D01*
X0888Y1044D02*
X09115D01*
X0888Y065D02*
X09115D01*
X08884Y03551D02*
X09119D01*
X0888Y0552D02*
X09115D01*
X0888Y0453D02*
X09115D01*
X06387Y07787D02*
X07371D01*
X06387Y1074D02*
X07371D01*
X06387Y05819D02*
X07371D01*
X06387Y09756D02*
X07371D01*
X10117Y09825D02*
X10122Y0983D01*
X102*
X10122Y0786D02*
X102D01*
X10122Y0589D02*
X102D01*
X10122Y03925D02*
X102D01*
X06295Y1131D02*
X06305D01*
X0982Y11485D02*
X102Y11105D01*
X0648Y11485D02*
X0982D01*
X06305Y1131D02*
X0648Y11485D01*
X0989Y11515D02*
X1025Y11155D01*
X0641Y11515D02*
X0989D01*
X062Y11305D02*
X0641Y11515D01*
X0996Y11545D02*
X103Y11205D01*
X0634Y11545D02*
X0996D01*
X061Y11305D02*
X0634Y11545D01*
X10202Y0963D02*
X104D01*
X1045Y0958*
X1025Y1008D02*
X1045D01*
X103Y1018D02*
X1045D01*
X1035Y1028D02*
X1045D01*
X10202Y0766D02*
X104D01*
X1045Y0761*
X1025Y0811D02*
X1045D01*
X103Y0821D02*
X1045D01*
X1035Y0831D02*
X1045D01*
X10202Y0569D02*
X104D01*
X1045Y0564*
X1025Y0614D02*
X1045D01*
X103Y0624D02*
X1045D01*
X1035Y0634D02*
X1045D01*
X10202Y03725D02*
X104D01*
X1045Y03675*
X1025Y04175D02*
X1045D01*
X103Y04275D02*
X1045D01*
X1035Y04375D02*
X1045D01*
X1025Y0943D02*
X10535D01*
X10605Y0936*
Y0935D02*
Y0936D01*
G54D15*
X0543Y0283D03*
X0553D03*
X0563D03*
X0573D03*
X0583D03*
X0593D03*
X0603D03*
X0613D03*
X0543Y0293D03*
X0553D03*
X0563D03*
X0573D03*
X0583D03*
X0593D03*
X0603D03*
X058Y11205D03*
X059D03*
X06D03*
X061D03*
X062D03*
X063D03*
X064D03*
X065D03*
X066D03*
X067D03*
X058Y11305D03*
X059D03*
X06D03*
X061D03*
X062D03*
X063D03*
X064D03*
X065D03*
X066D03*
X0215Y074D03*
Y073D03*
Y072D03*
Y071D03*
Y07D03*
Y069D03*
Y068D03*
G54D16*
X0613Y0293D03*
X067Y11305D03*
G54D17*
X06907Y11205D03*
G54D18*
X07103Y11205D03*
G54D19*
X0944Y1034D03*
X08456D03*
X07471D03*
X06487D03*
X05503D03*
X04519D03*
X03534D03*
X0255D03*
X0944Y09356D03*
X08456D03*
X07471D03*
X06487D03*
X05503D03*
X04519D03*
X03534D03*
X0255D03*
X0944Y08371D03*
X08456D03*
X07471D03*
X06487D03*
X05503D03*
X04519D03*
X03534D03*
X0255D03*
X0944Y07387D03*
X08456D03*
X07471D03*
X06487D03*
X05503D03*
X04519D03*
X03534D03*
X0255D03*
X0944Y06403D03*
X08456D03*
X07471D03*
X06487D03*
X05503D03*
X04519D03*
X03534D03*
X0255D03*
X0944Y05419D03*
X08456D03*
X07471D03*
X06487D03*
X05503D03*
X04519D03*
X03534D03*
X0255D03*
X0944Y04434D03*
X08456D03*
X07471D03*
X06487D03*
X05503D03*
X04519D03*
X03534D03*
X0255D03*
X0944Y0345D03*
X08456D03*
X07471D03*
X06487D03*
X05503D03*
X04519D03*
X03534D03*
X0255D03*
X05123Y037D03*
X0906Y0346D03*
Y037D03*
X08076Y0346D03*
Y037D03*
X07091Y0346D03*
Y037D03*
X06107Y0346D03*
X05123D03*
X04139D03*
Y037D03*
X03154Y0346D03*
Y037D03*
Y04444D03*
Y04684D03*
X04139Y04444D03*
Y04684D03*
X05123Y04444D03*
Y04684D03*
X06107Y04444D03*
Y04684D03*
X07091D03*
Y04444D03*
X08076Y04684D03*
Y04444D03*
X0906Y04684D03*
Y04444D03*
Y05669D03*
Y05429D03*
X08076Y05669D03*
Y05429D03*
X07091Y05669D03*
Y05429D03*
X06107Y05669D03*
Y05429D03*
X05123Y05669D03*
Y05429D03*
X04139Y05669D03*
Y05429D03*
X03154Y05669D03*
Y05429D03*
Y06653D03*
Y06413D03*
X04139Y06653D03*
Y06413D03*
X05123Y06653D03*
Y06413D03*
X06107Y06653D03*
Y06413D03*
X07091Y06653D03*
Y06413D03*
X08076Y06653D03*
Y06413D03*
X0906Y06653D03*
Y06413D03*
Y07637D03*
Y07397D03*
X08076Y07637D03*
Y07397D03*
X07091Y07637D03*
Y07397D03*
X06107Y07637D03*
Y07397D03*
X05123Y07637D03*
Y07397D03*
X04139Y07637D03*
Y07397D03*
X03154Y07637D03*
Y07397D03*
Y08621D03*
Y08381D03*
X04139Y08621D03*
Y08381D03*
X05123Y08621D03*
Y08381D03*
X06107Y08621D03*
Y08381D03*
X07091Y08621D03*
Y08381D03*
X08076Y08621D03*
Y08381D03*
X0906Y08621D03*
Y08381D03*
Y09606D03*
Y09366D03*
X08076Y09606D03*
Y09366D03*
X07091Y09606D03*
Y09366D03*
X06107Y09606D03*
Y09366D03*
X05123Y09606D03*
Y09366D03*
X04139Y09606D03*
Y09366D03*
X03154Y09606D03*
Y09366D03*
Y1059D03*
Y1035D03*
X04139Y1059D03*
Y1035D03*
X05123Y1059D03*
Y1035D03*
X06107Y1059D03*
Y1035D03*
X07091Y1059D03*
Y1035D03*
X08076Y1059D03*
Y1035D03*
X0906D03*
Y1059D03*
X0934Y1074D03*
X08356D03*
X07371D03*
X06387D03*
X05403D03*
X04419D03*
X03434D03*
X0245D03*
X0934Y09756D03*
X08356D03*
X07371D03*
X06387D03*
X05403D03*
X04419D03*
X03434D03*
X0245D03*
X0934Y08771D03*
X08356D03*
X07371D03*
X06387D03*
X05403D03*
X04419D03*
X03434D03*
X0245D03*
X0934Y07787D03*
X08356D03*
X07371D03*
X06387D03*
X05403D03*
X04419D03*
X03434D03*
X0245D03*
X0934Y06803D03*
X08356D03*
X07371D03*
X06387D03*
X05403D03*
X04419D03*
X03434D03*
X0245D03*
X0934Y05819D03*
X08356D03*
X07371D03*
X06387D03*
X05403D03*
X04419D03*
X03434D03*
X0245D03*
X0934Y04834D03*
X08356D03*
X07371D03*
X06387D03*
X05403D03*
X04419D03*
X03434D03*
X0245D03*
X0934Y0385D03*
X08356D03*
X07371D03*
X06387D03*
X05403D03*
X04419D03*
X03434D03*
X0245D03*
X0321Y0355D03*
Y1044D03*
Y0946D03*
Y0847D03*
Y0749D03*
Y065D03*
Y0552D03*
Y0453D03*
X042D03*
Y0552D03*
Y065D03*
Y0749D03*
Y0847D03*
Y0946D03*
Y1044D03*
X0518Y0453D03*
Y065D03*
Y0749D03*
Y0847D03*
Y0946D03*
Y1044D03*
X0617Y0453D03*
Y0552D03*
Y065D03*
Y0749D03*
Y0847D03*
Y0946D03*
Y1044D03*
Y0355D03*
X0814Y0453D03*
Y0552D03*
Y065D03*
Y0749D03*
Y0847D03*
Y0946D03*
Y1044D03*
Y0355D03*
X0912Y0453D03*
Y0552D03*
Y065D03*
Y0749D03*
Y0847D03*
Y0946D03*
Y1044D03*
Y0355D03*
X0518Y0552D03*
Y0355D03*
X042D03*
X0715D03*
Y0453D03*
Y0749D03*
Y1044D03*
Y0552D03*
Y065D03*
Y0847D03*
Y0946D03*
X0928Y1044D03*
Y0946D03*
Y0847D03*
Y0749D03*
Y065D03*
Y0552D03*
Y0453D03*
Y0355D03*
X0435Y0365D03*
Y04634D03*
Y05619D03*
Y06603D03*
Y07587D03*
Y08571D03*
Y09556D03*
Y1054D03*
X06331Y1064D03*
Y09656D03*
Y08671D03*
Y07687D03*
Y06703D03*
Y05719D03*
Y04734D03*
Y0375D03*
X083Y1069D03*
Y09706D03*
Y08721D03*
Y07737D03*
Y06753D03*
Y05769D03*
Y04784D03*
Y038D03*
X1055Y0988D03*
Y10755D03*
Y08785D03*
Y0791D03*
Y06814D03*
Y0485D03*
Y03975D03*
X1062Y10955D03*
Y0978D03*
Y0781D03*
Y08985D03*
Y0584D03*
Y07015D03*
X1055Y0594D03*
X1062Y03875D03*
Y0505D03*
X1005Y09825D03*
Y07855D03*
Y0392D03*
Y05885D03*
X06107Y037D03*
G54D20*
X0969Y1054D03*
Y1064D03*
Y1069D03*
X08706D03*
Y1064D03*
Y1054D03*
X07721D03*
Y1064D03*
Y1069D03*
X06737D03*
Y1064D03*
Y1054D03*
X05753D03*
Y1064D03*
Y1069D03*
X04769D03*
Y1064D03*
Y1054D03*
X03784D03*
Y1064D03*
Y1069D03*
X028D03*
Y1064D03*
Y1054D03*
X0969Y09556D03*
Y09656D03*
Y09706D03*
X08706D03*
Y09656D03*
Y09556D03*
X07721D03*
Y09656D03*
Y09706D03*
X06737D03*
Y09656D03*
Y09556D03*
X05753D03*
Y09656D03*
Y09706D03*
X04769D03*
Y09656D03*
Y09556D03*
X03784D03*
Y09656D03*
Y09706D03*
X028D03*
Y09656D03*
Y09556D03*
X0969Y08571D03*
Y08671D03*
Y08721D03*
X08706D03*
Y08671D03*
Y08571D03*
X07721D03*
Y08671D03*
Y08721D03*
X06737D03*
Y08671D03*
Y08571D03*
X05753D03*
Y08671D03*
Y08721D03*
X04769D03*
Y08671D03*
Y08571D03*
X03784D03*
Y08671D03*
Y08721D03*
X028D03*
Y08671D03*
Y08571D03*
X0969Y07587D03*
Y07687D03*
Y07737D03*
X08706D03*
Y07687D03*
Y07587D03*
X07721D03*
Y07687D03*
Y07737D03*
X06737D03*
Y07687D03*
Y07587D03*
X05753D03*
Y07687D03*
Y07737D03*
X04769D03*
Y07687D03*
Y07587D03*
X03784D03*
Y07687D03*
Y07737D03*
X028D03*
Y07687D03*
Y07587D03*
X0969Y06603D03*
Y06703D03*
Y06753D03*
X08706D03*
Y06703D03*
Y06603D03*
X07721D03*
Y06703D03*
Y06753D03*
X06737D03*
Y06703D03*
Y06603D03*
X05753D03*
Y06703D03*
Y06753D03*
X04769D03*
Y06703D03*
Y06603D03*
X03784D03*
Y06703D03*
Y06753D03*
X028D03*
Y06703D03*
Y06603D03*
X0969Y05619D03*
Y05719D03*
Y05769D03*
X08706D03*
Y05719D03*
Y05619D03*
X07721D03*
Y05719D03*
Y05769D03*
X06737D03*
Y05719D03*
Y05619D03*
X05753D03*
Y05719D03*
Y05769D03*
X04769D03*
Y05719D03*
Y05619D03*
X03784D03*
Y05719D03*
Y05769D03*
X028D03*
Y05719D03*
Y05619D03*
X0969Y04634D03*
Y04734D03*
Y04784D03*
X08706D03*
Y04734D03*
Y04634D03*
X07721D03*
Y04734D03*
Y04784D03*
X06737D03*
Y04734D03*
Y04634D03*
X05753D03*
Y04734D03*
Y04784D03*
X04769D03*
Y04734D03*
Y04634D03*
X03784D03*
Y04734D03*
Y04784D03*
X028D03*
Y04734D03*
Y04634D03*
X0969Y0365D03*
Y0375D03*
Y038D03*
X08706D03*
Y0375D03*
Y0365D03*
X07721D03*
Y0375D03*
Y038D03*
X06737D03*
Y0375D03*
Y0365D03*
X05753D03*
Y0375D03*
Y038D03*
X04769D03*
Y0375D03*
Y0365D03*
X03784D03*
Y0375D03*
Y038D03*
X028D03*
Y0375D03*
Y0365D03*
G54D21*
X0969Y1059D03*
X08706D03*
X07721D03*
X06737D03*
X05753D03*
X04769D03*
X03784D03*
X028D03*
X0969Y09606D03*
X08706D03*
X07721D03*
X06737D03*
X05753D03*
X04769D03*
X03784D03*
X028D03*
X0969Y08621D03*
X08706D03*
X07721D03*
X06737D03*
X05753D03*
X04769D03*
X03784D03*
X028D03*
X0969Y07637D03*
X08706D03*
X07721D03*
X06737D03*
X05753D03*
X04769D03*
X03784D03*
X028D03*
X0969Y06653D03*
X08706D03*
X07721D03*
X06737D03*
X05753D03*
X04769D03*
X03784D03*
X028D03*
X0969Y05669D03*
X08706D03*
X07721D03*
X06737D03*
X05753D03*
X04769D03*
X03784D03*
X028D03*
X0969Y04684D03*
X08706D03*
X07721D03*
X06737D03*
X05753D03*
X04769D03*
X03784D03*
X028D03*
X0969Y037D03*
X08706D03*
X07721D03*
X06737D03*
X05753D03*
X04769D03*
X03784D03*
X028D03*
G54D22*
X077Y11055D03*
Y11355D03*
X087Y11055D03*
Y11355D03*
X097Y11055D03*
Y11355D03*
X1015Y0505D03*
X1045D03*
X1015Y07015D03*
X1045D03*
X1015Y08985D03*
X1045D03*
X1015Y10955D03*
X1045D03*
X10615Y0935D03*
Y0965D03*
G54D23*
X0745Y11205D03*
Y11305D03*
X0845Y11205D03*
Y11305D03*
X0945Y11205D03*
Y11305D03*
G54D24*
X0745Y11255D03*
X0845D03*
X0945D03*
G54D25*
X1045Y03375D03*
Y03475D03*
Y03575D03*
Y03675D03*
Y03775D03*
Y03875D03*
Y03975D03*
Y04075D03*
Y04175D03*
Y04275D03*
Y04375D03*
Y04475D03*
Y04575D03*
Y04675D03*
X1015Y03375D03*
Y03475D03*
Y03575D03*
Y03675D03*
Y03775D03*
Y03875D03*
Y03975D03*
Y04075D03*
Y04175D03*
Y04275D03*
Y04375D03*
Y04475D03*
Y04575D03*
X1045Y0534D03*
Y0544D03*
Y0554D03*
Y0564D03*
Y0574D03*
Y0584D03*
Y0594D03*
Y0604D03*
Y0614D03*
Y0624D03*
Y0634D03*
Y0644D03*
Y0654D03*
Y0664D03*
X1015Y0534D03*
Y0544D03*
Y0554D03*
Y0564D03*
Y0574D03*
Y0584D03*
Y0594D03*
Y0604D03*
Y0614D03*
Y0624D03*
Y0634D03*
Y0644D03*
Y0654D03*
X1045Y0731D03*
Y0741D03*
Y0751D03*
Y0761D03*
Y0771D03*
Y0781D03*
Y0791D03*
Y0801D03*
Y0811D03*
Y0821D03*
Y0831D03*
Y0841D03*
Y0851D03*
Y0861D03*
X1015Y0731D03*
Y0741D03*
Y0751D03*
Y0761D03*
Y0771D03*
Y0781D03*
Y0791D03*
Y0801D03*
Y0811D03*
Y0821D03*
Y0831D03*
Y0841D03*
Y0851D03*
X1045Y0928D03*
Y0938D03*
Y0948D03*
Y0958D03*
Y0968D03*
Y0978D03*
Y0988D03*
Y0998D03*
Y1008D03*
Y1018D03*
Y1028D03*
Y1038D03*
Y1048D03*
Y1058D03*
X1015Y0928D03*
Y0938D03*
Y0948D03*
Y0958D03*
Y0968D03*
Y0978D03*
Y0988D03*
Y0998D03*
Y1008D03*
Y1018D03*
Y1028D03*
Y1038D03*
Y1048D03*
X0613Y0306D03*
X0603D03*
X0593D03*
X0583D03*
X0573D03*
X0563D03*
X0553D03*
X0543D03*
G54D26*
X1015Y04675D03*
Y0664D03*
Y0861D03*
Y1058D03*
G54D27*
X0215Y075D03*
G54D28*
X0623Y0306D03*
G54D29*
X1015Y10855D03*
Y10755D03*
Y08885D03*
Y08785D03*
Y06915D03*
Y06815D03*
Y0495D03*
Y0485D03*
G54D30*
X103Y11205D03*
X1025Y11155D03*
X102Y11105D03*
X1025Y1008D03*
X103Y1018D03*
X10202Y0963D03*
X1035Y1028D03*
X1025Y0811D03*
X103Y0821D03*
X10202Y0766D03*
X1035Y0831D03*
X1025Y0614D03*
X103Y0624D03*
X10202Y0569D03*
X1035Y0634D03*
X1025Y04175D03*
X103Y04275D03*
X10202Y03725D03*
X1035Y04375D03*
X1025Y0943D03*
M02*