%FSTAX23Y23*%
%MOIN*%
%SFA1B1*%

%IPPOS*%
%AMD38*
4,1,8,-0.084000,-0.039000,0.084000,-0.039000,0.104000,-0.019000,0.104000,0.019000,0.084000,0.039000,-0.084000,0.039000,-0.104000,0.019000,-0.104000,-0.019000,-0.084000,-0.039000,0.0*
1,1,0.040000,-0.084000,-0.019000*
1,1,0.040000,0.084000,-0.019000*
1,1,0.040000,0.084000,0.019000*
1,1,0.040000,-0.084000,0.019000*
%
G04~CAMADD=38~8~0.0~0.0~2080.0~780.0~200.0~0.0~15~0.0~0.0~0.0~0.0~0~0.0~0.0~0.0~0.0~0~0.0~0.0~0.0~180.0~2080.0~780.0*
%ADD38D38*%
%ADD39R,0.208000X0.078000*%
%ADD40C,0.067000*%
%ADD41R,0.067000X0.067000*%
%ADD42C,0.061000*%
%ADD43R,0.061000X0.061000*%
%ADD44C,0.008000*%
%ADD45C,0.058000*%
%ADD46O,0.088000X0.048000*%
%ADD47R,0.088000X0.048000*%
%ADD48C,0.063000*%
%ADD49O,0.087000X0.047000*%
%ADD50O,0.087000X0.047000*%
%ADD51C,0.068000*%
%ADD52R,0.068000X0.068000*%
%ADD53R,0.067000X0.067000*%
%ADD54R,0.068000X0.068000*%
%ADD55C,0.073000*%
%ADD56C,0.048000*%
%LNchronomepcbv2_2-1*%
%LPD*%
G54D38*
X09476Y03561D03*
Y10451D03*
X0888D03*
X07895D03*
X06911D03*
X05927D03*
X04943D03*
X03958D03*
X02974D03*
X09476Y09467D03*
X0888D03*
X07895D03*
X06911D03*
X05927D03*
X04943D03*
X03958D03*
X02974D03*
X09476Y08482D03*
X0888D03*
X07895D03*
X06911D03*
X05927D03*
X04943D03*
X03958D03*
X02974D03*
X09476Y07498D03*
X0888D03*
X07895D03*
X06911D03*
X05927D03*
X04943D03*
X03958D03*
X02974D03*
X09476Y06514D03*
X0888D03*
X07895D03*
X06911D03*
X05927D03*
X04943D03*
X03958D03*
X02974D03*
X09476Y0553D03*
X0888D03*
X07895D03*
X06911D03*
X05927D03*
X04943D03*
X03958D03*
X02974D03*
X09476Y04545D03*
X0888D03*
X07895D03*
X06911D03*
X05927D03*
X04943D03*
X03958D03*
X02974D03*
X0888Y03561D03*
X07895D03*
X06911D03*
X05927D03*
X04943D03*
X03958D03*
X02974D03*
G54D39*
X09819Y03561D03*
Y10451D03*
X08537D03*
X07552D03*
X06568D03*
X05584D03*
X046D03*
X03615D03*
X02631D03*
X09819Y09467D03*
X08537D03*
X07552D03*
X06568D03*
X05584D03*
X046D03*
X03615D03*
X02631D03*
X09819Y08482D03*
X08537D03*
X07552D03*
X06568D03*
X05584D03*
X046D03*
X03615D03*
X02631D03*
X09819Y07498D03*
X08537D03*
X07552D03*
X06568D03*
X05584D03*
X046D03*
X03615D03*
X02631D03*
X09819Y06514D03*
X08537D03*
X07552D03*
X06568D03*
X05584D03*
X046D03*
X03615D03*
X02631D03*
X09819Y0553D03*
X08537D03*
X07552D03*
X06568D03*
X05584D03*
X046D03*
X03615D03*
X02631D03*
X09819Y04545D03*
X08537D03*
X07552D03*
X06568D03*
X05584D03*
X046D03*
X03615D03*
X02631D03*
X08537Y03561D03*
X07552D03*
X06568D03*
X05584D03*
X046D03*
X03615D03*
X02631D03*
G54D40*
X0543Y0283D03*
X0553D03*
X0563D03*
X0573D03*
X0583D03*
X0593D03*
X0603D03*
X0613D03*
X0543Y0293D03*
X0553D03*
X0563D03*
X0573D03*
X0583D03*
X0593D03*
X0603D03*
X058Y11205D03*
X059D03*
X06D03*
X061D03*
X062D03*
X063D03*
X064D03*
X065D03*
X066D03*
X067D03*
X058Y11305D03*
X059D03*
X06D03*
X061D03*
X062D03*
X063D03*
X064D03*
X065D03*
X066D03*
X0215Y074D03*
Y073D03*
Y072D03*
Y071D03*
Y07D03*
Y069D03*
Y068D03*
G54D41*
X0613Y0293D03*
X067Y11305D03*
G54D42*
X06907Y11205D03*
G54D43*
X07103Y11205D03*
G54D44*
X01965Y1145D03*
X10525D03*
Y0289D03*
X01965D03*
X03292Y10123D03*
X06245D03*
X09198D03*
X03292Y0717D03*
X06245D03*
X09198D03*
X06245Y04217D03*
X09198D03*
X03292D03*
X028D03*
X08706Y10123D03*
X06737D03*
X028D03*
X03784D03*
X04769D03*
X05753D03*
X07721D03*
X0969D03*
X08706Y08154D03*
X06737D03*
X028D03*
X03784D03*
X04769D03*
X05753D03*
X07721D03*
X0969D03*
X08706Y06186D03*
X06737D03*
X028D03*
X03784D03*
X04769D03*
X05753D03*
X07721D03*
X0969D03*
X08706Y04217D03*
X06737D03*
X04769D03*
X03784D03*
X05753D03*
X07721D03*
X0969D03*
X03292Y10615D03*
X05261D03*
X07229D03*
X09198D03*
X03292Y09631D03*
X05261D03*
X07229D03*
X09198D03*
X03292Y08646D03*
X05261D03*
X07229D03*
X09198D03*
X03292Y07662D03*
X05261D03*
X07229D03*
X09198D03*
X03292Y06678D03*
X05261D03*
X07229D03*
X09198D03*
X03292Y05694D03*
X05261D03*
X07229D03*
X09198D03*
X03292Y04709D03*
X05261D03*
X07229D03*
X09198D03*
X05261Y03725D03*
X07229D03*
X09198D03*
X03292D03*
G54D45*
X0944Y1034D03*
X08456D03*
X07471D03*
X06487D03*
X05503D03*
X04519D03*
X03534D03*
X0255D03*
X0944Y09356D03*
X08456D03*
X07471D03*
X06487D03*
X05503D03*
X04519D03*
X03534D03*
X0255D03*
X0944Y08371D03*
X08456D03*
X07471D03*
X06487D03*
X05503D03*
X04519D03*
X03534D03*
X0255D03*
X0944Y07387D03*
X08456D03*
X07471D03*
X06487D03*
X05503D03*
X04519D03*
X03534D03*
X0255D03*
X0944Y06403D03*
X08456D03*
X07471D03*
X06487D03*
X05503D03*
X04519D03*
X03534D03*
X0255D03*
X0944Y05419D03*
X08456D03*
X07471D03*
X06487D03*
X05503D03*
X04519D03*
X03534D03*
X0255D03*
X0944Y04434D03*
X08456D03*
X07471D03*
X06487D03*
X05503D03*
X04519D03*
X03534D03*
X0255D03*
X0944Y0345D03*
X08456D03*
X07471D03*
X06487D03*
X05503D03*
X04519D03*
X03534D03*
X0255D03*
X05123Y037D03*
X0906Y0346D03*
Y037D03*
X08076Y0346D03*
Y037D03*
X07091Y0346D03*
Y037D03*
X06107Y0346D03*
X05123D03*
X04139D03*
Y037D03*
X03154Y0346D03*
Y037D03*
Y04444D03*
Y04684D03*
X04139Y04444D03*
Y04684D03*
X05123Y04444D03*
Y04684D03*
X06107Y04444D03*
Y04684D03*
X07091D03*
Y04444D03*
X08076Y04684D03*
Y04444D03*
X0906Y04684D03*
Y04444D03*
Y05669D03*
Y05429D03*
X08076Y05669D03*
Y05429D03*
X07091Y05669D03*
Y05429D03*
X06107Y05669D03*
Y05429D03*
X05123Y05669D03*
Y05429D03*
X04139Y05669D03*
Y05429D03*
X03154Y05669D03*
Y05429D03*
Y06653D03*
Y06413D03*
X04139Y06653D03*
Y06413D03*
X05123Y06653D03*
Y06413D03*
X06107Y06653D03*
Y06413D03*
X07091Y06653D03*
Y06413D03*
X08076Y06653D03*
Y06413D03*
X0906Y06653D03*
Y06413D03*
Y07637D03*
Y07397D03*
X08076Y07637D03*
Y07397D03*
X07091Y07637D03*
Y07397D03*
X06107Y07637D03*
Y07397D03*
X05123Y07637D03*
Y07397D03*
X04139Y07637D03*
Y07397D03*
X03154Y07637D03*
Y07397D03*
Y08621D03*
Y08381D03*
X04139Y08621D03*
Y08381D03*
X05123Y08621D03*
Y08381D03*
X06107Y08621D03*
Y08381D03*
X07091Y08621D03*
Y08381D03*
X08076Y08621D03*
Y08381D03*
X0906Y08621D03*
Y08381D03*
Y09606D03*
Y09366D03*
X08076Y09606D03*
Y09366D03*
X07091Y09606D03*
Y09366D03*
X06107Y09606D03*
Y09366D03*
X05123Y09606D03*
Y09366D03*
X04139Y09606D03*
Y09366D03*
X03154Y09606D03*
Y09366D03*
Y1059D03*
Y1035D03*
X04139Y1059D03*
Y1035D03*
X05123Y1059D03*
Y1035D03*
X06107Y1059D03*
Y1035D03*
X07091Y1059D03*
Y1035D03*
X08076Y1059D03*
Y1035D03*
X0906D03*
Y1059D03*
X0934Y1074D03*
X08356D03*
X07371D03*
X06387D03*
X05403D03*
X04419D03*
X03434D03*
X0245D03*
X0934Y09756D03*
X08356D03*
X07371D03*
X06387D03*
X05403D03*
X04419D03*
X03434D03*
X0245D03*
X0934Y08771D03*
X08356D03*
X07371D03*
X06387D03*
X05403D03*
X04419D03*
X03434D03*
X0245D03*
X0934Y07787D03*
X08356D03*
X07371D03*
X06387D03*
X05403D03*
X04419D03*
X03434D03*
X0245D03*
X0934Y06803D03*
X08356D03*
X07371D03*
X06387D03*
X05403D03*
X04419D03*
X03434D03*
X0245D03*
X0934Y05819D03*
X08356D03*
X07371D03*
X06387D03*
X05403D03*
X04419D03*
X03434D03*
X0245D03*
X0934Y04834D03*
X08356D03*
X07371D03*
X06387D03*
X05403D03*
X04419D03*
X03434D03*
X0245D03*
X0934Y0385D03*
X08356D03*
X07371D03*
X06387D03*
X05403D03*
X04419D03*
X03434D03*
X0245D03*
X0321Y0355D03*
Y1044D03*
Y0946D03*
Y0847D03*
Y0749D03*
Y065D03*
Y0552D03*
Y0453D03*
X042D03*
Y0552D03*
Y065D03*
Y0749D03*
Y0847D03*
Y0946D03*
Y1044D03*
X0518Y0453D03*
Y065D03*
Y0749D03*
Y0847D03*
Y0946D03*
Y1044D03*
X0617Y0453D03*
Y0552D03*
Y065D03*
Y0749D03*
Y0847D03*
Y0946D03*
Y1044D03*
Y0355D03*
X0814Y0453D03*
Y0552D03*
Y065D03*
Y0749D03*
Y0847D03*
Y0946D03*
Y1044D03*
Y0355D03*
X0912Y0453D03*
Y0552D03*
Y065D03*
Y0749D03*
Y0847D03*
Y0946D03*
Y1044D03*
Y0355D03*
X0518Y0552D03*
Y0355D03*
X042D03*
X0715D03*
Y0453D03*
Y0749D03*
Y1044D03*
Y0552D03*
Y065D03*
Y0847D03*
Y0946D03*
X0928Y1044D03*
Y0946D03*
Y0847D03*
Y0749D03*
Y065D03*
Y0552D03*
Y0453D03*
Y0355D03*
X0435Y0365D03*
Y04634D03*
Y05619D03*
Y06603D03*
Y07587D03*
Y08571D03*
Y09556D03*
Y1054D03*
X06331Y1064D03*
Y09656D03*
Y08671D03*
Y07687D03*
Y06703D03*
Y05719D03*
Y04734D03*
Y0375D03*
X083Y1069D03*
Y09706D03*
Y08721D03*
Y07737D03*
Y06753D03*
Y05769D03*
Y04784D03*
Y038D03*
X1055Y0988D03*
Y10755D03*
Y08785D03*
Y0791D03*
Y06814D03*
Y0485D03*
Y03975D03*
X1062Y10955D03*
Y0978D03*
Y0781D03*
Y08985D03*
Y0584D03*
Y07015D03*
X1055Y0594D03*
X1062Y03875D03*
Y0505D03*
X1005Y09825D03*
Y07855D03*
Y0392D03*
Y05885D03*
X06107Y037D03*
G54D46*
X0969Y1054D03*
Y1064D03*
Y1069D03*
X08706D03*
Y1064D03*
Y1054D03*
X07721D03*
Y1064D03*
Y1069D03*
X06737D03*
Y1064D03*
Y1054D03*
X05753D03*
Y1064D03*
Y1069D03*
X04769D03*
Y1064D03*
Y1054D03*
X03784D03*
Y1064D03*
Y1069D03*
X028D03*
Y1064D03*
Y1054D03*
X0969Y09556D03*
Y09656D03*
Y09706D03*
X08706D03*
Y09656D03*
Y09556D03*
X07721D03*
Y09656D03*
Y09706D03*
X06737D03*
Y09656D03*
Y09556D03*
X05753D03*
Y09656D03*
Y09706D03*
X04769D03*
Y09656D03*
Y09556D03*
X03784D03*
Y09656D03*
Y09706D03*
X028D03*
Y09656D03*
Y09556D03*
X0969Y08571D03*
Y08671D03*
Y08721D03*
X08706D03*
Y08671D03*
Y08571D03*
X07721D03*
Y08671D03*
Y08721D03*
X06737D03*
Y08671D03*
Y08571D03*
X05753D03*
Y08671D03*
Y08721D03*
X04769D03*
Y08671D03*
Y08571D03*
X03784D03*
Y08671D03*
Y08721D03*
X028D03*
Y08671D03*
Y08571D03*
X0969Y07587D03*
Y07687D03*
Y07737D03*
X08706D03*
Y07687D03*
Y07587D03*
X07721D03*
Y07687D03*
Y07737D03*
X06737D03*
Y07687D03*
Y07587D03*
X05753D03*
Y07687D03*
Y07737D03*
X04769D03*
Y07687D03*
Y07587D03*
X03784D03*
Y07687D03*
Y07737D03*
X028D03*
Y07687D03*
Y07587D03*
X0969Y06603D03*
Y06703D03*
Y06753D03*
X08706D03*
Y06703D03*
Y06603D03*
X07721D03*
Y06703D03*
Y06753D03*
X06737D03*
Y06703D03*
Y06603D03*
X05753D03*
Y06703D03*
Y06753D03*
X04769D03*
Y06703D03*
Y06603D03*
X03784D03*
Y06703D03*
Y06753D03*
X028D03*
Y06703D03*
Y06603D03*
X0969Y05619D03*
Y05719D03*
Y05769D03*
X08706D03*
Y05719D03*
Y05619D03*
X07721D03*
Y05719D03*
Y05769D03*
X06737D03*
Y05719D03*
Y05619D03*
X05753D03*
Y05719D03*
Y05769D03*
X04769D03*
Y05719D03*
Y05619D03*
X03784D03*
Y05719D03*
Y05769D03*
X028D03*
Y05719D03*
Y05619D03*
X0969Y04634D03*
Y04734D03*
Y04784D03*
X08706D03*
Y04734D03*
Y04634D03*
X07721D03*
Y04734D03*
Y04784D03*
X06737D03*
Y04734D03*
Y04634D03*
X05753D03*
Y04734D03*
Y04784D03*
X04769D03*
Y04734D03*
Y04634D03*
X03784D03*
Y04734D03*
Y04784D03*
X028D03*
Y04734D03*
Y04634D03*
X0969Y0365D03*
Y0375D03*
Y038D03*
X08706D03*
Y0375D03*
Y0365D03*
X07721D03*
Y0375D03*
Y038D03*
X06737D03*
Y0375D03*
Y0365D03*
X05753D03*
Y0375D03*
Y038D03*
X04769D03*
Y0375D03*
Y0365D03*
X03784D03*
Y0375D03*
Y038D03*
X028D03*
Y0375D03*
Y0365D03*
G54D47*
X0969Y1059D03*
X08706D03*
X07721D03*
X06737D03*
X05753D03*
X04769D03*
X03784D03*
X028D03*
X0969Y09606D03*
X08706D03*
X07721D03*
X06737D03*
X05753D03*
X04769D03*
X03784D03*
X028D03*
X0969Y08621D03*
X08706D03*
X07721D03*
X06737D03*
X05753D03*
X04769D03*
X03784D03*
X028D03*
X0969Y07637D03*
X08706D03*
X07721D03*
X06737D03*
X05753D03*
X04769D03*
X03784D03*
X028D03*
X0969Y06653D03*
X08706D03*
X07721D03*
X06737D03*
X05753D03*
X04769D03*
X03784D03*
X028D03*
X0969Y05669D03*
X08706D03*
X07721D03*
X06737D03*
X05753D03*
X04769D03*
X03784D03*
X028D03*
X0969Y04684D03*
X08706D03*
X07721D03*
X06737D03*
X05753D03*
X04769D03*
X03784D03*
X028D03*
X0969Y037D03*
X08706D03*
X07721D03*
X06737D03*
X05753D03*
X04769D03*
X03784D03*
X028D03*
G54D48*
X077Y11055D03*
Y11355D03*
X087Y11055D03*
Y11355D03*
X097Y11055D03*
Y11355D03*
X1015Y0505D03*
X1045D03*
X1015Y07015D03*
X1045D03*
X1015Y08985D03*
X1045D03*
X1015Y10955D03*
X1045D03*
X10615Y0935D03*
Y0965D03*
G54D49*
X0745Y11205D03*
Y11305D03*
X0845Y11205D03*
Y11305D03*
X0945Y11205D03*
Y11305D03*
G54D50*
X0745Y11255D03*
X0845D03*
X0945D03*
G54D51*
X1045Y03375D03*
Y03475D03*
Y03575D03*
Y03675D03*
Y03775D03*
Y03875D03*
Y03975D03*
Y04075D03*
Y04175D03*
Y04275D03*
Y04375D03*
Y04475D03*
Y04575D03*
Y04675D03*
X1015Y03375D03*
Y03475D03*
Y03575D03*
Y03675D03*
Y03775D03*
Y03875D03*
Y03975D03*
Y04075D03*
Y04175D03*
Y04275D03*
Y04375D03*
Y04475D03*
Y04575D03*
X1045Y0534D03*
Y0544D03*
Y0554D03*
Y0564D03*
Y0574D03*
Y0584D03*
Y0594D03*
Y0604D03*
Y0614D03*
Y0624D03*
Y0634D03*
Y0644D03*
Y0654D03*
Y0664D03*
X1015Y0534D03*
Y0544D03*
Y0554D03*
Y0564D03*
Y0574D03*
Y0584D03*
Y0594D03*
Y0604D03*
Y0614D03*
Y0624D03*
Y0634D03*
Y0644D03*
Y0654D03*
X1045Y0731D03*
Y0741D03*
Y0751D03*
Y0761D03*
Y0771D03*
Y0781D03*
Y0791D03*
Y0801D03*
Y0811D03*
Y0821D03*
Y0831D03*
Y0841D03*
Y0851D03*
Y0861D03*
X1015Y0731D03*
Y0741D03*
Y0751D03*
Y0761D03*
Y0771D03*
Y0781D03*
Y0791D03*
Y0801D03*
Y0811D03*
Y0821D03*
Y0831D03*
Y0841D03*
Y0851D03*
X1045Y0928D03*
Y0938D03*
Y0948D03*
Y0958D03*
Y0968D03*
Y0978D03*
Y0988D03*
Y0998D03*
Y1008D03*
Y1018D03*
Y1028D03*
Y1038D03*
Y1048D03*
Y1058D03*
X1015Y0928D03*
Y0938D03*
Y0948D03*
Y0958D03*
Y0968D03*
Y0978D03*
Y0988D03*
Y0998D03*
Y1008D03*
Y1018D03*
Y1028D03*
Y1038D03*
Y1048D03*
X0613Y0306D03*
X0603D03*
X0593D03*
X0583D03*
X0573D03*
X0563D03*
X0553D03*
X0543D03*
G54D52*
X1015Y04675D03*
Y0664D03*
Y0861D03*
Y1058D03*
G54D53*
X0215Y075D03*
G54D54*
X0623Y0306D03*
G54D55*
X1015Y10855D03*
Y10755D03*
Y08885D03*
Y08785D03*
Y06915D03*
Y06815D03*
Y0495D03*
Y0485D03*
G54D56*
X103Y11205D03*
X1025Y11155D03*
X102Y11105D03*
X1025Y1008D03*
X103Y1018D03*
X10202Y0963D03*
X1035Y1028D03*
X1025Y0811D03*
X103Y0821D03*
X10202Y0766D03*
X1035Y0831D03*
X1025Y0614D03*
X103Y0624D03*
X10202Y0569D03*
X1035Y0634D03*
X1025Y04175D03*
X103Y04275D03*
X10202Y03725D03*
X1035Y04375D03*
X1025Y0943D03*
M02*