%FSAX24Y24*%
%MOIN*%
G70*
G01*
G75*
G04 Layer_Physical_Order=2*
G04 Layer_Color=16711680*
%ADD10R,0.2000X0.0700*%
G04:AMPARAMS|DCode=11|XSize=200mil|YSize=70mil|CornerRadius=17.5mil|HoleSize=0mil|Usage=FLASHONLY|Rotation=0.000|XOffset=0mil|YOffset=0mil|HoleType=Round|Shape=RoundedRectangle|*
%AMROUNDEDRECTD11*
21,1,0.2000,0.0350,0,0,0.0*
21,1,0.1650,0.0700,0,0,0.0*
1,1,0.0350,0.0825,-0.0175*
1,1,0.0350,-0.0825,-0.0175*
1,1,0.0350,-0.0825,0.0175*
1,1,0.0350,0.0825,0.0175*
%
%ADD11ROUNDEDRECTD11*%
%ADD12C,0.0500*%
%ADD13C,0.0300*%
%ADD14C,0.0200*%
%ADD15C,0.0650*%
%ADD16C,0.0551*%
%ADD17C,0.0600*%
%ADD18R,0.0600X0.0600*%
%ADD19C,0.0591*%
%ADD20R,0.0591X0.0591*%
%ADD21R,0.0600X0.0600*%
%ADD22O,0.0787X0.0394*%
%ADD23O,0.0787X0.0394*%
%ADD24R,0.0591X0.0591*%
%ADD25C,0.0500*%
%ADD26O,0.0800X0.0400*%
%ADD27R,0.0800X0.0400*%
%ADD28R,0.0532X0.0532*%
%ADD29C,0.0532*%
%ADD30C,0.0400*%
%ADD31R,0.0098X0.0098*%
D12*
X105500Y096501D02*
X106150D01*
X105500D02*
Y098850D01*
X105500Y068140D02*
Y079100D01*
Y039750D02*
Y048500D01*
Y059400D01*
X105500Y096501D02*
X105500Y087900D01*
X100500Y069150D02*
X101500D01*
X100500Y051500D02*
Y069150D01*
Y051500D02*
X101500Y050500D01*
X100500Y098250D02*
Y108550D01*
Y090850D02*
Y098250D01*
Y071150D02*
Y088850D01*
Y071150D02*
X101500Y070150D01*
Y069150D02*
Y070150D01*
Y108550D02*
Y109550D01*
X100500Y039200D02*
Y049500D01*
X101500D01*
Y050500D01*
X100500Y088850D02*
X101500D01*
Y089850D01*
X100500Y090850D02*
X101500Y089850D01*
X100500Y108550D02*
X101500D01*
X105500Y059400D02*
Y068140D01*
Y079100D02*
Y087850D01*
Y099050D02*
Y107550D01*
X101500Y109800D02*
Y110200D01*
X097450Y114250D02*
X101500Y110200D01*
X074350Y114250D02*
X097450D01*
X058000Y112050D02*
X059000D01*
X060000D01*
X061000D01*
X062000D01*
X062900Y111150D01*
X062950D01*
X071200Y111100D02*
X074350Y114250D01*
X069066Y111184D02*
Y112050D01*
X062950Y111100D02*
X071200D01*
D13*
X061072Y034602D02*
Y037000D01*
X106200Y038750D02*
Y050500D01*
Y058400D02*
Y070150D01*
Y078100D02*
Y089850D01*
Y097800D02*
Y109550D01*
X105500Y087850D02*
Y087900D01*
X105500Y099050D02*
X105500Y099050D01*
X063309Y037500D02*
Y109009D01*
X043500Y036500D02*
Y109500D01*
X090600Y103500D02*
Y105898D01*
X080757Y103500D02*
Y105898D01*
X070915Y103500D02*
Y105898D01*
X061072Y103500D02*
Y105898D01*
X051230Y103500D02*
Y105898D01*
X041387Y103500D02*
Y105898D01*
X031545Y103500D02*
Y105898D01*
Y093658D02*
Y096055D01*
X041387Y093658D02*
Y096055D01*
X051230Y093658D02*
Y096055D01*
X061072Y093658D02*
Y096055D01*
X070915Y093658D02*
Y096055D01*
X080757Y093658D02*
Y096055D01*
X090600Y093658D02*
Y096055D01*
Y083815D02*
Y086213D01*
X080757Y083815D02*
Y086213D01*
X070915Y083815D02*
Y086213D01*
X061072Y083815D02*
Y086213D01*
X051230Y083815D02*
Y086213D01*
X041387Y083815D02*
Y086213D01*
X031545Y083815D02*
Y086213D01*
Y073972D02*
Y076370D01*
X041387Y073972D02*
Y076370D01*
X051230Y073972D02*
Y076370D01*
X061072Y073972D02*
Y076370D01*
X070915Y073972D02*
Y076370D01*
X080757Y073972D02*
Y076370D01*
X090600Y073972D02*
Y076370D01*
Y064130D02*
Y066528D01*
X080757Y064130D02*
Y066528D01*
X070915Y064130D02*
Y066528D01*
X061072Y064130D02*
Y066528D01*
X051230Y064130D02*
Y066528D01*
X041387Y064130D02*
Y066528D01*
X031545Y064130D02*
Y066528D01*
Y054287D02*
Y056685D01*
X041387Y054287D02*
Y056685D01*
X051230Y054287D02*
Y056685D01*
X061072Y054287D02*
Y056685D01*
X070915Y054287D02*
Y056685D01*
X080757Y054287D02*
Y056685D01*
X090600Y054287D02*
Y056685D01*
Y044445D02*
Y046843D01*
X080757Y044445D02*
Y046843D01*
X070915Y044445D02*
Y046843D01*
X061072Y044445D02*
Y046843D01*
X051230Y044445D02*
Y046843D01*
X041387Y044445D02*
Y046843D01*
X031545Y044445D02*
Y046843D01*
Y034602D02*
Y037000D01*
X041387Y034602D02*
Y037000D01*
X070915Y034602D02*
Y037000D01*
X080757Y034602D02*
Y037000D01*
X090600Y034602D02*
Y037000D01*
X051230Y034602D02*
Y037000D01*
X063309Y109009D02*
X064150Y109850D01*
X082300D01*
X043500Y109500D02*
X044250Y110250D01*
X072700D01*
X074500Y112050D01*
X082300Y109850D02*
X084500Y112050D01*
X083000Y038000D02*
Y108300D01*
X086750Y112050D01*
X094500D01*
D14*
X098398Y106148D02*
G03*
X098398Y106148I-001500J000000D01*
G01*
X088555D02*
G03*
X088555Y106148I-001500J000000D01*
G01*
X078713D02*
G03*
X078713Y106148I-001500J000000D01*
G01*
X068870D02*
G03*
X068870Y106148I-001500J000000D01*
G01*
X059028D02*
G03*
X059028Y106148I-001500J000000D01*
G01*
X049185D02*
G03*
X049185Y106148I-001500J000000D01*
G01*
X039343D02*
G03*
X039343Y106148I-001500J000000D01*
G01*
X029500D02*
G03*
X029500Y106148I-001500J000000D01*
G01*
X098398Y096305D02*
G03*
X098398Y096305I-001500J000000D01*
G01*
X088555D02*
G03*
X088555Y096305I-001500J000000D01*
G01*
X078713D02*
G03*
X078713Y096305I-001500J000000D01*
G01*
X068870D02*
G03*
X068870Y096305I-001500J000000D01*
G01*
X059028D02*
G03*
X059028Y096305I-001500J000000D01*
G01*
X049185D02*
G03*
X049185Y096305I-001500J000000D01*
G01*
X039343D02*
G03*
X039343Y096305I-001500J000000D01*
G01*
X029500D02*
G03*
X029500Y096305I-001500J000000D01*
G01*
X098398Y086463D02*
G03*
X098398Y086463I-001500J000000D01*
G01*
X088555D02*
G03*
X088555Y086463I-001500J000000D01*
G01*
X078713D02*
G03*
X078713Y086463I-001500J000000D01*
G01*
X068870D02*
G03*
X068870Y086463I-001500J000000D01*
G01*
X059028D02*
G03*
X059028Y086463I-001500J000000D01*
G01*
X049185D02*
G03*
X049185Y086463I-001500J000000D01*
G01*
X039343D02*
G03*
X039343Y086463I-001500J000000D01*
G01*
X029500D02*
G03*
X029500Y086463I-001500J000000D01*
G01*
X098398Y076620D02*
G03*
X098398Y076620I-001500J000000D01*
G01*
X088555D02*
G03*
X088555Y076620I-001500J000000D01*
G01*
X078713D02*
G03*
X078713Y076620I-001500J000000D01*
G01*
X068870D02*
G03*
X068870Y076620I-001500J000000D01*
G01*
X059028D02*
G03*
X059028Y076620I-001500J000000D01*
G01*
X049185D02*
G03*
X049185Y076620I-001500J000000D01*
G01*
X039343D02*
G03*
X039343Y076620I-001500J000000D01*
G01*
X029500D02*
G03*
X029500Y076620I-001500J000000D01*
G01*
X098398Y066778D02*
G03*
X098398Y066778I-001500J000000D01*
G01*
X088555D02*
G03*
X088555Y066778I-001500J000000D01*
G01*
X078713D02*
G03*
X078713Y066778I-001500J000000D01*
G01*
X068870D02*
G03*
X068870Y066778I-001500J000000D01*
G01*
X059028D02*
G03*
X059028Y066778I-001500J000000D01*
G01*
X049185D02*
G03*
X049185Y066778I-001500J000000D01*
G01*
X039343D02*
G03*
X039343Y066778I-001500J000000D01*
G01*
X029500D02*
G03*
X029500Y066778I-001500J000000D01*
G01*
X098398Y056935D02*
G03*
X098398Y056935I-001500J000000D01*
G01*
X088555D02*
G03*
X088555Y056935I-001500J000000D01*
G01*
X078713D02*
G03*
X078713Y056935I-001500J000000D01*
G01*
X068870D02*
G03*
X068870Y056935I-001500J000000D01*
G01*
X059028D02*
G03*
X059028Y056935I-001500J000000D01*
G01*
X049185D02*
G03*
X049185Y056935I-001500J000000D01*
G01*
X039343D02*
G03*
X039343Y056935I-001500J000000D01*
G01*
X029500D02*
G03*
X029500Y056935I-001500J000000D01*
G01*
X098398Y047093D02*
G03*
X098398Y047093I-001500J000000D01*
G01*
X088555D02*
G03*
X088555Y047093I-001500J000000D01*
G01*
X078713D02*
G03*
X078713Y047093I-001500J000000D01*
G01*
X068870D02*
G03*
X068870Y047093I-001500J000000D01*
G01*
X059028D02*
G03*
X059028Y047093I-001500J000000D01*
G01*
X049185D02*
G03*
X049185Y047093I-001500J000000D01*
G01*
X039343D02*
G03*
X039343Y047093I-001500J000000D01*
G01*
X029500D02*
G03*
X029500Y047093I-001500J000000D01*
G01*
X098398Y037250D02*
G03*
X098398Y037250I-001500J000000D01*
G01*
X088555D02*
G03*
X088555Y037250I-001500J000000D01*
G01*
X078713D02*
G03*
X078713Y037250I-001500J000000D01*
G01*
X068870D02*
G03*
X068870Y037250I-001500J000000D01*
G01*
X059028D02*
G03*
X059028Y037250I-001500J000000D01*
G01*
X049185D02*
G03*
X049185Y037250I-001500J000000D01*
G01*
X039343D02*
G03*
X039343Y037250I-001500J000000D01*
G01*
X029500D02*
G03*
X029500Y037250I-001500J000000D01*
G01*
X025006Y036669D02*
G03*
X025008Y037844I002994J000581D01*
G01*
X034848Y036669D02*
G03*
X034851Y037844I002994J000581D01*
G01*
X044691Y036669D02*
G03*
X044693Y037844I002994J000581D01*
G01*
X054533Y036669D02*
G03*
X054536Y037844I002994J000581D01*
G01*
X064376Y036669D02*
G03*
X064378Y037844I002994J000581D01*
G01*
X074218Y036669D02*
G03*
X074221Y037844I002994J000581D01*
G01*
X084061Y036669D02*
G03*
X084063Y037844I002994J000581D01*
G01*
X093903Y036669D02*
G03*
X093906Y037844I002994J000581D01*
G01*
X025006Y046512D02*
G03*
X025008Y047686I002994J000581D01*
G01*
X034848Y046512D02*
G03*
X034851Y047686I002994J000581D01*
G01*
X044691Y046512D02*
G03*
X044693Y047686I002994J000581D01*
G01*
X054533Y046512D02*
G03*
X054536Y047686I002994J000581D01*
G01*
X064376Y046512D02*
G03*
X064378Y047686I002994J000581D01*
G01*
X074218Y046512D02*
G03*
X074221Y047686I002994J000581D01*
G01*
X084061Y046512D02*
G03*
X084063Y047686I002994J000581D01*
G01*
X093903Y046512D02*
G03*
X093906Y047686I002994J000581D01*
G01*
X025006Y056354D02*
G03*
X025008Y057529I002994J000581D01*
G01*
X034848Y056354D02*
G03*
X034851Y057529I002994J000581D01*
G01*
X044691Y056354D02*
G03*
X044693Y057529I002994J000581D01*
G01*
X054533Y056354D02*
G03*
X054536Y057529I002994J000581D01*
G01*
X064376Y056354D02*
G03*
X064378Y057529I002994J000581D01*
G01*
X074218Y056354D02*
G03*
X074221Y057529I002994J000581D01*
G01*
X084061Y056354D02*
G03*
X084063Y057529I002994J000581D01*
G01*
X093903Y056354D02*
G03*
X093906Y057529I002994J000581D01*
G01*
X025006Y066197D02*
G03*
X025008Y067371I002994J000581D01*
G01*
X034848Y066197D02*
G03*
X034851Y067371I002994J000581D01*
G01*
X044691Y066197D02*
G03*
X044693Y067371I002994J000581D01*
G01*
X054533Y066197D02*
G03*
X054536Y067371I002994J000581D01*
G01*
X064376Y066197D02*
G03*
X064378Y067371I002994J000581D01*
G01*
X074218Y066197D02*
G03*
X074221Y067371I002994J000581D01*
G01*
X084061Y066197D02*
G03*
X084063Y067371I002994J000581D01*
G01*
X093903Y066197D02*
G03*
X093906Y067371I002994J000581D01*
G01*
X025006Y076039D02*
G03*
X025008Y077214I002994J000581D01*
G01*
X034848Y076039D02*
G03*
X034851Y077214I002994J000581D01*
G01*
X044691Y076039D02*
G03*
X044693Y077214I002994J000581D01*
G01*
X054533Y076039D02*
G03*
X054536Y077214I002994J000581D01*
G01*
X064376Y076039D02*
G03*
X064378Y077214I002994J000581D01*
G01*
X074218Y076039D02*
G03*
X074221Y077214I002994J000581D01*
G01*
X084061Y076039D02*
G03*
X084063Y077214I002994J000581D01*
G01*
X093903Y076039D02*
G03*
X093906Y077214I002994J000581D01*
G01*
X025006Y085882D02*
G03*
X025008Y087056I002994J000581D01*
G01*
X034848Y085882D02*
G03*
X034851Y087056I002994J000581D01*
G01*
X044691Y085882D02*
G03*
X044693Y087056I002994J000581D01*
G01*
X054533Y085882D02*
G03*
X054536Y087056I002994J000581D01*
G01*
X064376Y085882D02*
G03*
X064378Y087056I002994J000581D01*
G01*
X074218Y085882D02*
G03*
X074221Y087056I002994J000581D01*
G01*
X084061Y085882D02*
G03*
X084063Y087056I002994J000581D01*
G01*
X093903Y085882D02*
G03*
X093906Y087056I002994J000581D01*
G01*
X025006Y095724D02*
G03*
X025008Y096899I002994J000581D01*
G01*
X034848Y095724D02*
G03*
X034851Y096899I002994J000581D01*
G01*
X044691Y095724D02*
G03*
X044693Y096899I002994J000581D01*
G01*
X054533Y095724D02*
G03*
X054536Y096899I002994J000581D01*
G01*
X064376Y095724D02*
G03*
X064378Y096899I002994J000581D01*
G01*
X074218Y095724D02*
G03*
X074221Y096899I002994J000581D01*
G01*
X084061Y095724D02*
G03*
X084063Y096899I002994J000581D01*
G01*
X093903Y095724D02*
G03*
X093906Y096899I002994J000581D01*
G01*
X025006Y105567D02*
G03*
X025008Y106741I002994J000581D01*
G01*
X034848Y105567D02*
G03*
X034851Y106741I002994J000581D01*
G01*
X044691Y105567D02*
G03*
X044693Y106741I002994J000581D01*
G01*
X054533Y105567D02*
G03*
X054536Y106741I002994J000581D01*
G01*
X064376Y105567D02*
G03*
X064378Y106741I002994J000581D01*
G01*
X074218Y105567D02*
G03*
X074221Y106741I002994J000581D01*
G01*
X084061Y105567D02*
G03*
X084063Y106741I002994J000581D01*
G01*
X093903Y105567D02*
G03*
X093906Y106741I002994J000581D01*
G01*
X026500Y106148D02*
G03*
X028000Y104648I001500J000000D01*
G01*
D02*
G03*
X029500Y106148I000000J001500D01*
G01*
D02*
G03*
X028000Y107648I-001500J000000D01*
G01*
D02*
G03*
X026500Y106148I000000J-001500D01*
G01*
X036343D02*
G03*
X037843Y104648I001500J000000D01*
G01*
D02*
G03*
X039343Y106148I000000J001500D01*
G01*
D02*
G03*
X037843Y107648I-001500J000000D01*
G01*
D02*
G03*
X036343Y106148I000000J-001500D01*
G01*
X046185D02*
G03*
X047685Y104648I001500J000000D01*
G01*
D02*
G03*
X049185Y106148I000000J001500D01*
G01*
X056028D02*
G03*
X057528Y104648I001500J000000D01*
G01*
D02*
G03*
X059028Y106148I000000J001500D01*
G01*
D02*
G03*
X057528Y107648I-001500J000000D01*
G01*
D02*
G03*
X056028Y106148I000000J-001500D01*
G01*
X049185D02*
G03*
X047685Y107648I-001500J000000D01*
G01*
D02*
G03*
X046185Y106148I000000J-001500D01*
G01*
X065870D02*
G03*
X067370Y104648I001500J000000D01*
G01*
D02*
G03*
X068870Y106148I000000J001500D01*
G01*
D02*
G03*
X067370Y107648I-001500J000000D01*
G01*
D02*
G03*
X065870Y106148I000000J-001500D01*
G01*
X075713D02*
G03*
X077213Y104648I001500J000000D01*
G01*
D02*
G03*
X078713Y106148I000000J001500D01*
G01*
D02*
G03*
X077213Y107648I-001500J000000D01*
G01*
D02*
G03*
X075713Y106148I000000J-001500D01*
G01*
X085555D02*
G03*
X087055Y104648I001500J000000D01*
G01*
D02*
G03*
X088555Y106148I000000J001500D01*
G01*
X095398D02*
G03*
X096898Y104648I001500J000000D01*
G01*
D02*
G03*
X098398Y106148I000000J001500D01*
G01*
X088555D02*
G03*
X087055Y107648I-001500J000000D01*
G01*
D02*
G03*
X085555Y106148I000000J-001500D01*
G01*
X098398D02*
G03*
X096898Y107648I-001500J000000D01*
G01*
D02*
G03*
X095398Y106148I000000J-001500D01*
G01*
X026500Y096305D02*
G03*
X028000Y094805I001500J000000D01*
G01*
D02*
G03*
X029500Y096305I000000J001500D01*
G01*
D02*
G03*
X028000Y097805I-001500J000000D01*
G01*
D02*
G03*
X026500Y096305I000000J-001500D01*
G01*
X036343D02*
G03*
X037843Y094805I001500J000000D01*
G01*
D02*
G03*
X039343Y096305I000000J001500D01*
G01*
D02*
G03*
X037843Y097805I-001500J000000D01*
G01*
D02*
G03*
X036343Y096305I000000J-001500D01*
G01*
X046185D02*
G03*
X047685Y094805I001500J000000D01*
G01*
D02*
G03*
X049185Y096305I000000J001500D01*
G01*
X056028D02*
G03*
X057528Y094805I001500J000000D01*
G01*
D02*
G03*
X059028Y096305I000000J001500D01*
G01*
D02*
G03*
X057528Y097805I-001500J000000D01*
G01*
D02*
G03*
X056028Y096305I000000J-001500D01*
G01*
X049185D02*
G03*
X047685Y097805I-001500J000000D01*
G01*
D02*
G03*
X046185Y096305I000000J-001500D01*
G01*
X065870D02*
G03*
X067370Y094805I001500J000000D01*
G01*
D02*
G03*
X068870Y096305I000000J001500D01*
G01*
D02*
G03*
X067370Y097805I-001500J000000D01*
G01*
D02*
G03*
X065870Y096305I000000J-001500D01*
G01*
X075713D02*
G03*
X077213Y094805I001500J000000D01*
G01*
D02*
G03*
X078713Y096305I000000J001500D01*
G01*
D02*
G03*
X077213Y097805I-001500J000000D01*
G01*
D02*
G03*
X075713Y096305I000000J-001500D01*
G01*
X085555D02*
G03*
X087055Y094805I001500J000000D01*
G01*
D02*
G03*
X088555Y096305I000000J001500D01*
G01*
X095398D02*
G03*
X096898Y094805I001500J000000D01*
G01*
D02*
G03*
X098398Y096305I000000J001500D01*
G01*
X088555D02*
G03*
X087055Y097805I-001500J000000D01*
G01*
D02*
G03*
X085555Y096305I000000J-001500D01*
G01*
X098398D02*
G03*
X096898Y097805I-001500J000000D01*
G01*
D02*
G03*
X095398Y096305I000000J-001500D01*
G01*
X026500Y086463D02*
G03*
X028000Y084963I001500J000000D01*
G01*
D02*
G03*
X029500Y086463I000000J001500D01*
G01*
D02*
G03*
X028000Y087963I-001500J000000D01*
G01*
D02*
G03*
X026500Y086463I000000J-001500D01*
G01*
X036343D02*
G03*
X037843Y084963I001500J000000D01*
G01*
D02*
G03*
X039343Y086463I000000J001500D01*
G01*
D02*
G03*
X037843Y087963I-001500J000000D01*
G01*
D02*
G03*
X036343Y086463I000000J-001500D01*
G01*
X046185D02*
G03*
X047685Y084963I001500J000000D01*
G01*
D02*
G03*
X049185Y086463I000000J001500D01*
G01*
X056028D02*
G03*
X057528Y084963I001500J000000D01*
G01*
D02*
G03*
X059028Y086463I000000J001500D01*
G01*
D02*
G03*
X057528Y087963I-001500J000000D01*
G01*
D02*
G03*
X056028Y086463I000000J-001500D01*
G01*
X049185D02*
G03*
X047685Y087963I-001500J000000D01*
G01*
D02*
G03*
X046185Y086463I000000J-001500D01*
G01*
X065870D02*
G03*
X067370Y084963I001500J000000D01*
G01*
D02*
G03*
X068870Y086463I000000J001500D01*
G01*
D02*
G03*
X067370Y087963I-001500J000000D01*
G01*
D02*
G03*
X065870Y086463I000000J-001500D01*
G01*
X075713D02*
G03*
X077213Y084963I001500J000000D01*
G01*
D02*
G03*
X078713Y086463I000000J001500D01*
G01*
D02*
G03*
X077213Y087963I-001500J000000D01*
G01*
D02*
G03*
X075713Y086463I000000J-001500D01*
G01*
X085555D02*
G03*
X087055Y084963I001500J000000D01*
G01*
D02*
G03*
X088555Y086463I000000J001500D01*
G01*
X095398D02*
G03*
X096898Y084963I001500J000000D01*
G01*
D02*
G03*
X098398Y086463I000000J001500D01*
G01*
X088555D02*
G03*
X087055Y087963I-001500J000000D01*
G01*
D02*
G03*
X085555Y086463I000000J-001500D01*
G01*
X098398D02*
G03*
X096898Y087963I-001500J000000D01*
G01*
D02*
G03*
X095398Y086463I000000J-001500D01*
G01*
X026500Y076620D02*
G03*
X028000Y075120I001500J000000D01*
G01*
D02*
G03*
X029500Y076620I000000J001500D01*
G01*
D02*
G03*
X028000Y078120I-001500J000000D01*
G01*
D02*
G03*
X026500Y076620I000000J-001500D01*
G01*
X036343D02*
G03*
X037843Y075120I001500J000000D01*
G01*
D02*
G03*
X039343Y076620I000000J001500D01*
G01*
D02*
G03*
X037843Y078120I-001500J000000D01*
G01*
D02*
G03*
X036343Y076620I000000J-001500D01*
G01*
X046185D02*
G03*
X047685Y075120I001500J000000D01*
G01*
D02*
G03*
X049185Y076620I000000J001500D01*
G01*
X056028D02*
G03*
X057528Y075120I001500J000000D01*
G01*
D02*
G03*
X059028Y076620I000000J001500D01*
G01*
D02*
G03*
X057528Y078120I-001500J000000D01*
G01*
D02*
G03*
X056028Y076620I000000J-001500D01*
G01*
X049185D02*
G03*
X047685Y078120I-001500J000000D01*
G01*
D02*
G03*
X046185Y076620I000000J-001500D01*
G01*
X065870D02*
G03*
X067370Y075120I001500J000000D01*
G01*
D02*
G03*
X068870Y076620I000000J001500D01*
G01*
D02*
G03*
X067370Y078120I-001500J000000D01*
G01*
D02*
G03*
X065870Y076620I000000J-001500D01*
G01*
X075713D02*
G03*
X077213Y075120I001500J000000D01*
G01*
D02*
G03*
X078713Y076620I000000J001500D01*
G01*
D02*
G03*
X077213Y078120I-001500J000000D01*
G01*
D02*
G03*
X075713Y076620I000000J-001500D01*
G01*
X085555D02*
G03*
X087055Y075120I001500J000000D01*
G01*
D02*
G03*
X088555Y076620I000000J001500D01*
G01*
X095398D02*
G03*
X096898Y075120I001500J000000D01*
G01*
D02*
G03*
X098398Y076620I000000J001500D01*
G01*
X088555D02*
G03*
X087055Y078120I-001500J000000D01*
G01*
D02*
G03*
X085555Y076620I000000J-001500D01*
G01*
X098398D02*
G03*
X096898Y078120I-001500J000000D01*
G01*
D02*
G03*
X095398Y076620I000000J-001500D01*
G01*
X026500Y066778D02*
G03*
X028000Y065278I001500J000000D01*
G01*
D02*
G03*
X029500Y066778I000000J001500D01*
G01*
D02*
G03*
X028000Y068278I-001500J000000D01*
G01*
D02*
G03*
X026500Y066778I000000J-001500D01*
G01*
X036343D02*
G03*
X037843Y065278I001500J000000D01*
G01*
D02*
G03*
X039343Y066778I000000J001500D01*
G01*
D02*
G03*
X037843Y068278I-001500J000000D01*
G01*
D02*
G03*
X036343Y066778I000000J-001500D01*
G01*
X046185D02*
G03*
X047685Y065278I001500J000000D01*
G01*
D02*
G03*
X049185Y066778I000000J001500D01*
G01*
X056028D02*
G03*
X057528Y065278I001500J000000D01*
G01*
D02*
G03*
X059028Y066778I000000J001500D01*
G01*
D02*
G03*
X057528Y068278I-001500J000000D01*
G01*
D02*
G03*
X056028Y066778I000000J-001500D01*
G01*
X049185D02*
G03*
X047685Y068278I-001500J000000D01*
G01*
D02*
G03*
X046185Y066778I000000J-001500D01*
G01*
X065870D02*
G03*
X067370Y065278I001500J000000D01*
G01*
D02*
G03*
X068870Y066778I000000J001500D01*
G01*
D02*
G03*
X067370Y068278I-001500J000000D01*
G01*
D02*
G03*
X065870Y066778I000000J-001500D01*
G01*
X075713D02*
G03*
X077213Y065278I001500J000000D01*
G01*
D02*
G03*
X078713Y066778I000000J001500D01*
G01*
D02*
G03*
X077213Y068278I-001500J000000D01*
G01*
D02*
G03*
X075713Y066778I000000J-001500D01*
G01*
X085555D02*
G03*
X087055Y065278I001500J000000D01*
G01*
D02*
G03*
X088555Y066778I000000J001500D01*
G01*
X095398D02*
G03*
X096898Y065278I001500J000000D01*
G01*
D02*
G03*
X098398Y066778I000000J001500D01*
G01*
X088555D02*
G03*
X087055Y068278I-001500J000000D01*
G01*
D02*
G03*
X085555Y066778I000000J-001500D01*
G01*
X098398D02*
G03*
X096898Y068278I-001500J000000D01*
G01*
D02*
G03*
X095398Y066778I000000J-001500D01*
G01*
X026500Y056935D02*
G03*
X028000Y055435I001500J000000D01*
G01*
D02*
G03*
X029500Y056935I000000J001500D01*
G01*
D02*
G03*
X028000Y058435I-001500J000000D01*
G01*
D02*
G03*
X026500Y056935I000000J-001500D01*
G01*
X036343D02*
G03*
X037843Y055435I001500J000000D01*
G01*
D02*
G03*
X039343Y056935I000000J001500D01*
G01*
D02*
G03*
X037843Y058435I-001500J000000D01*
G01*
D02*
G03*
X036343Y056935I000000J-001500D01*
G01*
X046185D02*
G03*
X047685Y055435I001500J000000D01*
G01*
D02*
G03*
X049185Y056935I000000J001500D01*
G01*
X056028D02*
G03*
X057528Y055435I001500J000000D01*
G01*
D02*
G03*
X059028Y056935I000000J001500D01*
G01*
D02*
G03*
X057528Y058435I-001500J000000D01*
G01*
D02*
G03*
X056028Y056935I000000J-001500D01*
G01*
X049185D02*
G03*
X047685Y058435I-001500J000000D01*
G01*
D02*
G03*
X046185Y056935I000000J-001500D01*
G01*
X065870D02*
G03*
X067370Y055435I001500J000000D01*
G01*
D02*
G03*
X068870Y056935I000000J001500D01*
G01*
D02*
G03*
X067370Y058435I-001500J000000D01*
G01*
D02*
G03*
X065870Y056935I000000J-001500D01*
G01*
X075713D02*
G03*
X077213Y055435I001500J000000D01*
G01*
D02*
G03*
X078713Y056935I000000J001500D01*
G01*
D02*
G03*
X077213Y058435I-001500J000000D01*
G01*
D02*
G03*
X075713Y056935I000000J-001500D01*
G01*
X085555D02*
G03*
X087055Y055435I001500J000000D01*
G01*
D02*
G03*
X088555Y056935I000000J001500D01*
G01*
X095398D02*
G03*
X096898Y055435I001500J000000D01*
G01*
D02*
G03*
X098398Y056935I000000J001500D01*
G01*
X088555D02*
G03*
X087055Y058435I-001500J000000D01*
G01*
D02*
G03*
X085555Y056935I000000J-001500D01*
G01*
X098398D02*
G03*
X096898Y058435I-001500J000000D01*
G01*
D02*
G03*
X095398Y056935I000000J-001500D01*
G01*
X026500Y047093D02*
G03*
X028000Y045593I001500J000000D01*
G01*
D02*
G03*
X029500Y047093I000000J001500D01*
G01*
D02*
G03*
X028000Y048593I-001500J000000D01*
G01*
D02*
G03*
X026500Y047093I000000J-001500D01*
G01*
X036343D02*
G03*
X037843Y045593I001500J000000D01*
G01*
D02*
G03*
X039343Y047093I000000J001500D01*
G01*
D02*
G03*
X037843Y048593I-001500J000000D01*
G01*
D02*
G03*
X036343Y047093I000000J-001500D01*
G01*
X046185D02*
G03*
X047685Y045593I001500J000000D01*
G01*
D02*
G03*
X049185Y047093I000000J001500D01*
G01*
X056028D02*
G03*
X057528Y045593I001500J000000D01*
G01*
D02*
G03*
X059028Y047093I000000J001500D01*
G01*
X049185D02*
G03*
X047685Y048593I-001500J000000D01*
G01*
D02*
G03*
X046185Y047093I000000J-001500D01*
G01*
X059028D02*
G03*
X057528Y048593I-001500J000000D01*
G01*
D02*
G03*
X056028Y047093I000000J-001500D01*
G01*
X065870D02*
G03*
X067370Y045593I001500J000000D01*
G01*
D02*
G03*
X068870Y047093I000000J001500D01*
G01*
D02*
G03*
X067370Y048593I-001500J000000D01*
G01*
D02*
G03*
X065870Y047093I000000J-001500D01*
G01*
X075713D02*
G03*
X077213Y045593I001500J000000D01*
G01*
D02*
G03*
X078713Y047093I000000J001500D01*
G01*
D02*
G03*
X077213Y048593I-001500J000000D01*
G01*
D02*
G03*
X075713Y047093I000000J-001500D01*
G01*
X085555D02*
G03*
X087055Y045593I001500J000000D01*
G01*
D02*
G03*
X088555Y047093I000000J001500D01*
G01*
X095398D02*
G03*
X096898Y045593I001500J000000D01*
G01*
D02*
G03*
X098398Y047093I000000J001500D01*
G01*
X088555D02*
G03*
X087055Y048593I-001500J000000D01*
G01*
D02*
G03*
X085555Y047093I000000J-001500D01*
G01*
X098398D02*
G03*
X096898Y048593I-001500J000000D01*
G01*
D02*
G03*
X095398Y047093I000000J-001500D01*
G01*
X026500Y037250D02*
G03*
X028000Y035750I001500J000000D01*
G01*
D02*
G03*
X029500Y037250I000000J001500D01*
G01*
D02*
G03*
X028000Y038750I-001500J000000D01*
G01*
D02*
G03*
X026500Y037250I000000J-001500D01*
G01*
X036343D02*
G03*
X037843Y035750I001500J000000D01*
G01*
D02*
G03*
X039343Y037250I000000J001500D01*
G01*
D02*
G03*
X037843Y038750I-001500J000000D01*
G01*
D02*
G03*
X036343Y037250I000000J-001500D01*
G01*
X046185D02*
G03*
X047685Y035750I001500J000000D01*
G01*
D02*
G03*
X049185Y037250I000000J001500D01*
G01*
X056028D02*
G03*
X057528Y035750I001500J000000D01*
G01*
D02*
G03*
X059028Y037250I000000J001500D01*
G01*
D02*
G03*
X057528Y038750I-001500J000000D01*
G01*
D02*
G03*
X056028Y037250I000000J-001500D01*
G01*
X049185D02*
G03*
X047685Y038750I-001500J000000D01*
G01*
D02*
G03*
X046185Y037250I000000J-001500D01*
G01*
X065870D02*
G03*
X067370Y035750I001500J000000D01*
G01*
D02*
G03*
X068870Y037250I000000J001500D01*
G01*
D02*
G03*
X067370Y038750I-001500J000000D01*
G01*
D02*
G03*
X065870Y037250I000000J-001500D01*
G01*
X075713D02*
G03*
X077213Y035750I001500J000000D01*
G01*
D02*
G03*
X078713Y037250I000000J001500D01*
G01*
D02*
G03*
X077213Y038750I-001500J000000D01*
G01*
D02*
G03*
X075713Y037250I000000J-001500D01*
G01*
X085555D02*
G03*
X087055Y035750I001500J000000D01*
G01*
D02*
G03*
X088555Y037250I000000J001500D01*
G01*
X095398D02*
G03*
X096898Y035750I001500J000000D01*
G01*
D02*
G03*
X098398Y037250I000000J001500D01*
G01*
X088555D02*
G03*
X087055Y038750I-001500J000000D01*
G01*
D02*
G03*
X085555Y037250I000000J-001500D01*
G01*
X098398D02*
G03*
X096898Y038750I-001500J000000D01*
G01*
D02*
G03*
X095398Y037250I000000J-001500D01*
G01*
X058299Y030749D02*
X058499D01*
X059749Y031999D01*
X059300Y030600D02*
X059400D01*
X059300D02*
Y030650D01*
X060349Y031699D01*
X061099Y031399D02*
X061622D01*
X060300Y030600D02*
X061099Y031399D01*
X060300Y029300D02*
Y030600D01*
X061623Y031400D02*
X062807D01*
X061622Y031399D02*
X061623Y031400D01*
X061498Y031700D02*
X062931D01*
X061497Y031699D02*
X061498Y031700D01*
X060349Y031699D02*
X061497D01*
X061374Y032000D02*
X063056D01*
X061373Y031999D02*
X061374Y032000D01*
X059749Y031999D02*
X061373D01*
X061700Y032750D02*
Y035450D01*
X061249Y032299D02*
X061700Y032750D01*
X058949Y032299D02*
X061249D01*
X061800Y031100D02*
X062683D01*
X061300Y030600D02*
X061800Y031100D01*
X057300Y030650D02*
X058949Y032299D01*
X089699Y031099D02*
X092800Y034200D01*
X062684Y031099D02*
X089699D01*
X088499Y031399D02*
X091200Y034100D01*
X062808Y031399D02*
X088499D01*
X078999Y031699D02*
X081400Y034100D01*
X062933Y031699D02*
X078999D01*
X061700Y035500D02*
Y041774D01*
X063057Y031999D02*
X069399D01*
X063056Y032000D02*
X063057Y031999D01*
X062931Y031700D02*
X062933Y031699D01*
X062807Y031400D02*
X062808Y031399D01*
X062683Y031100D02*
X062684Y031099D01*
X069399Y031999D02*
X071500Y034100D01*
X054601Y031299D02*
X055300Y030600D01*
X045001Y031299D02*
X054601D01*
X042000Y034300D02*
X045001Y031299D01*
X054300Y029300D02*
Y030599D01*
X035351D02*
X054300D01*
X056300Y029300D02*
Y030648D01*
X051796Y035152D02*
X056300Y030648D01*
X051796Y035152D02*
Y035500D01*
X032100Y033850D02*
X035351Y030599D01*
X057300Y029300D02*
Y030650D01*
X103950Y054850D02*
X104500Y055400D01*
X103950Y045250D02*
Y054850D01*
Y045250D02*
X104500Y044700D01*
X103950Y074550D02*
X104500Y075100D01*
X103950Y064950D02*
Y074550D01*
Y064950D02*
X104500Y064400D01*
X103950Y084650D02*
X104500Y084100D01*
X103950Y084650D02*
Y094250D01*
X104500Y094800D01*
Y085100D02*
X105000D01*
Y065400D02*
Y085100D01*
X104500Y065400D02*
X105000D01*
Y045750D02*
Y065400D01*
X104500Y045750D02*
X105000D01*
X104500Y104800D02*
X105000D01*
X102500Y041750D02*
Y111550D01*
X102025Y037250D02*
Y111050D01*
X102000D02*
X102025Y111025D01*
X060000Y113050D02*
X061800Y114850D01*
X059000Y113050D02*
X061100Y115150D01*
X058000Y113050D02*
X060400Y115450D01*
X092800Y094600D02*
Y104400D01*
Y084700D02*
Y094600D01*
Y074900D02*
Y084700D01*
Y065000D02*
Y074900D01*
Y055200D02*
Y065000D01*
Y045300D02*
Y055200D01*
Y035600D02*
Y045300D01*
X091200Y101596D02*
Y104400D01*
Y094600D02*
Y095936D01*
Y086832D02*
Y094600D01*
Y084700D02*
Y086093D01*
Y076990D02*
Y084700D01*
Y074900D02*
Y076251D01*
Y072068D02*
Y074900D01*
Y065000D02*
Y066408D01*
Y057305D02*
Y065000D01*
Y055200D02*
Y056566D01*
Y047462D02*
Y055200D01*
Y045300D02*
Y046723D01*
Y042541D02*
Y045300D01*
X081400Y094600D02*
Y104400D01*
Y084700D02*
Y094600D01*
Y074900D02*
Y084700D01*
Y065000D02*
Y074900D01*
Y055200D02*
Y065000D01*
Y045300D02*
Y055200D01*
Y035600D02*
Y045300D01*
X071500Y096660D02*
Y104400D01*
Y094600D02*
Y095951D01*
Y086817D02*
Y094600D01*
Y084700D02*
Y086108D01*
Y076975D02*
Y084700D01*
Y074900D02*
Y076266D01*
Y067132D02*
Y074900D01*
Y065000D02*
Y066423D01*
Y057290D02*
Y065000D01*
Y055200D02*
Y056581D01*
Y047447D02*
Y055200D01*
Y045300D02*
Y046738D01*
Y037605D02*
Y045300D01*
X061700Y101623D02*
Y104400D01*
Y094600D02*
Y100829D01*
Y084700D02*
Y094600D01*
Y074900D02*
Y084700D01*
Y072096D02*
Y074900D01*
Y065000D02*
Y071302D01*
Y055200D02*
Y065000D01*
Y045300D02*
Y055200D01*
Y042568D02*
Y045300D01*
X042000Y094600D02*
Y104400D01*
Y084700D02*
Y094600D01*
Y074900D02*
Y084700D01*
Y065000D02*
Y074900D01*
Y055200D02*
Y065000D01*
Y045300D02*
Y055200D01*
Y035500D02*
Y045300D01*
X091200Y037620D02*
Y041802D01*
X091166Y037586D02*
X091200Y037620D01*
X091166Y036914D02*
Y037586D01*
Y036914D02*
X091200Y036881D01*
Y035600D02*
Y036881D01*
X091166Y047428D02*
X091200Y047462D01*
X091166Y046757D02*
Y047428D01*
Y046757D02*
X091200Y046723D01*
X091166Y057271D02*
X091200Y057305D01*
X091166Y056599D02*
Y057271D01*
Y056599D02*
X091200Y056566D01*
Y067147D02*
Y071329D01*
X091166Y067113D02*
X091200Y067147D01*
X091166Y066442D02*
Y067113D01*
Y066442D02*
X091200Y066408D01*
X091166Y072034D02*
X091200Y072068D01*
X091166Y071363D02*
Y072034D01*
Y071363D02*
X091200Y071329D01*
X091166Y101562D02*
X091200Y101596D01*
X091166Y100891D02*
Y101562D01*
Y100891D02*
X091200Y100857D01*
Y096675D02*
Y100857D01*
X091166Y042507D02*
X091200Y042541D01*
X091166Y041836D02*
Y042507D01*
Y041836D02*
X091200Y041802D01*
X091166Y076956D02*
X091200Y076990D01*
X091166Y076284D02*
Y076956D01*
Y076284D02*
X091200Y076251D01*
X091166Y086798D02*
X091200Y086832D01*
X091166Y086127D02*
Y086798D01*
Y086127D02*
X091200Y086093D01*
X091166Y096641D02*
X091200Y096675D01*
X091166Y095970D02*
Y096641D01*
Y095970D02*
X091200Y095936D01*
X071481Y037586D02*
X071500Y037605D01*
X071481Y036914D02*
Y037586D01*
Y036914D02*
X071500Y036896D01*
X071481Y047428D02*
X071500Y047447D01*
X071481Y046757D02*
Y047428D01*
Y046757D02*
X071500Y046738D01*
X071481Y057271D02*
X071500Y057290D01*
X071481Y056599D02*
Y057271D01*
Y056599D02*
X071500Y056581D01*
X071481Y067113D02*
X071500Y067132D01*
X071481Y066442D02*
Y067113D01*
Y066442D02*
X071500Y066423D01*
X071481Y076956D02*
X071500Y076975D01*
X071481Y076284D02*
Y076956D01*
Y076284D02*
X071500Y076266D01*
X071481Y086798D02*
X071500Y086817D01*
X071481Y086127D02*
Y086798D01*
Y086127D02*
X071500Y086108D01*
X071481Y096641D02*
X071500Y096660D01*
X071481Y095970D02*
Y096641D01*
Y095970D02*
X071500Y095951D01*
X061639Y072034D02*
X061700Y072096D01*
X061639Y071363D02*
Y072034D01*
Y071363D02*
X061700Y071302D01*
X061639Y101562D02*
X061700Y101623D01*
X061639Y100891D02*
Y101562D01*
Y100891D02*
X061700Y100829D01*
X061639Y042507D02*
X061700Y042568D01*
X061639Y041836D02*
Y042507D01*
Y041836D02*
X061700Y041774D01*
X032100Y094600D02*
Y104400D01*
Y084700D02*
Y094600D01*
Y074900D02*
Y084700D01*
Y065000D02*
Y074900D01*
Y055200D02*
Y065000D01*
Y045300D02*
Y055200D01*
X028578Y035861D02*
X028978Y034841D01*
X025500Y035000D02*
X025900D01*
X025500Y034500D02*
Y035000D01*
X028600Y038650D02*
X028993Y039653D01*
X029400Y036650D02*
X030400Y036250D01*
X027003Y034849D02*
X027400Y035850D01*
X025594Y038234D02*
X026600Y037850D01*
X026145Y039095D02*
X026900Y038350D01*
X026151Y035399D02*
X026900Y036150D01*
X029100D02*
X029845Y035395D01*
X029100Y038350D02*
X029851Y039099D01*
X029400Y037850D02*
X030401Y038248D01*
X025597Y036258D02*
X026600Y036650D01*
X027000Y039650D02*
X027400Y038650D01*
X028380Y039154D02*
X028579Y040154D01*
X029900Y036850D02*
X030900Y036651D01*
X027416Y034392D02*
X027606Y035349D01*
X025008Y037844D02*
X026115Y037624D01*
X029079Y038864D02*
X029679Y039764D01*
X029609Y036163D02*
X030462Y035593D01*
X026374Y034816D02*
X026922Y035636D01*
X025480Y038921D02*
X026380Y038320D01*
X026305Y039753D02*
X026891Y038877D01*
X025531Y035604D02*
X026384Y036174D01*
X029086Y035641D02*
X029628Y034830D01*
X029685Y038372D02*
X030515Y038927D01*
X029904Y037631D02*
X030904Y037830D01*
X028387Y035347D02*
X028579Y034383D01*
X025006Y036668D02*
X026112Y036888D01*
X027405Y040151D02*
X027604Y039151D01*
X024500Y037250D02*
Y038500D01*
X034343Y037250D02*
Y038500D01*
X037248Y040151D02*
X037446Y039151D01*
X034848Y036668D02*
X035955Y036888D01*
X038229Y035347D02*
X038421Y034383D01*
X039746Y037631D02*
X040746Y037830D01*
X039528Y038372D02*
X040358Y038927D01*
X038928Y035641D02*
X039470Y034830D01*
X035373Y035604D02*
X036227Y036174D01*
X036148Y039753D02*
X036733Y038877D01*
X035323Y038921D02*
X036222Y038320D01*
X036217Y034816D02*
X036764Y035636D01*
X039451Y036163D02*
X040304Y035593D01*
X038921Y038864D02*
X039522Y039764D01*
X034851Y037844D02*
X035957Y037624D01*
X037259Y034392D02*
X037449Y035349D01*
X039743Y036850D02*
X040743Y036651D01*
X038222Y039154D02*
X038421Y040154D01*
X036843Y039650D02*
X037243Y038650D01*
X035440Y036258D02*
X036443Y036650D01*
X039243Y037850D02*
X040243Y038248D01*
X038943Y038350D02*
X039693Y039099D01*
X038943Y036150D02*
X039688Y035395D01*
X035993Y035399D02*
X036743Y036150D01*
X035988Y039095D02*
X036743Y038350D01*
X035436Y038234D02*
X036443Y037850D01*
X036845Y034849D02*
X037243Y035850D01*
X039243Y036650D02*
X040243Y036250D01*
X038443Y038650D02*
X038835Y039653D01*
X035343Y034500D02*
Y035000D01*
X035743D01*
X038421Y035861D02*
X038820Y034841D01*
X048263Y035861D02*
X048663Y034841D01*
X045185Y035000D02*
X045585D01*
X045185Y034500D02*
Y035000D01*
X048285Y038650D02*
X048678Y039653D01*
X049085Y036650D02*
X050085Y036250D01*
X046688Y034849D02*
X047085Y035850D01*
X045279Y038234D02*
X046285Y037850D01*
X045830Y039095D02*
X046585Y038350D01*
X045836Y035399D02*
X046585Y036150D01*
X048785D02*
X049530Y035395D01*
X048785Y038350D02*
X049536Y039099D01*
X049085Y037850D02*
X050086Y038248D01*
X045282Y036258D02*
X046285Y036650D01*
X046685Y039650D02*
X047085Y038650D01*
X048065Y039154D02*
X048264Y040154D01*
X049585Y036850D02*
X050585Y036651D01*
X047101Y034392D02*
X047291Y035349D01*
X044693Y037844D02*
X045800Y037624D01*
X048764Y038864D02*
X049365Y039764D01*
X049294Y036163D02*
X050147Y035593D01*
X046059Y034816D02*
X046607Y035636D01*
X045165Y038921D02*
X046065Y038320D01*
X045990Y039753D02*
X046576Y038877D01*
X045216Y035604D02*
X046069Y036174D01*
X048771Y035641D02*
X049313Y034830D01*
X049370Y038372D02*
X050200Y038927D01*
X049589Y037631D02*
X050589Y037830D01*
X048072Y035347D02*
X048264Y034383D01*
X044691Y036668D02*
X045797Y036888D01*
X047090Y040151D02*
X047289Y039151D01*
X044185Y037250D02*
Y038500D01*
X054028Y037250D02*
Y038500D01*
X056933Y040151D02*
X057132Y039151D01*
X054534Y036668D02*
X055640Y036888D01*
X057915Y035347D02*
X058106Y034383D01*
X059431Y037631D02*
X060432Y037830D01*
X059213Y038372D02*
X060043Y038927D01*
X058614Y035641D02*
X059155Y034830D01*
X055058Y035604D02*
X055912Y036174D01*
X055833Y039753D02*
X056418Y038877D01*
X055008Y038921D02*
X055907Y038320D01*
X055902Y034816D02*
X056449Y035636D01*
X059136Y036163D02*
X059989Y035593D01*
X058606Y038864D02*
X059207Y039764D01*
X054536Y037844D02*
X055642Y037624D01*
X056944Y034392D02*
X057134Y035349D01*
X059428Y036850D02*
X060428Y036651D01*
X057907Y039154D02*
X058106Y040154D01*
X056528Y039650D02*
X056928Y038650D01*
X055125Y036258D02*
X056128Y036650D01*
X058928Y037850D02*
X059929Y038248D01*
X058628Y038350D02*
X059378Y039099D01*
X058628Y036150D02*
X059373Y035395D01*
X055678Y035399D02*
X056428Y036150D01*
X055673Y039095D02*
X056428Y038350D01*
X055121Y038234D02*
X056128Y037850D01*
X056530Y034849D02*
X056928Y035850D01*
X058928Y036650D02*
X059928Y036250D01*
X058128Y038650D02*
X058520Y039653D01*
X055028Y034500D02*
Y035000D01*
X055428D01*
X058106Y035861D02*
X058505Y034841D01*
X067948Y035861D02*
X068348Y034841D01*
X064870Y035000D02*
X065270D01*
X064870Y034500D02*
Y035000D01*
X067970Y038650D02*
X068363Y039653D01*
X068770Y036650D02*
X069770Y036250D01*
X066373Y034849D02*
X066770Y035850D01*
X064964Y038234D02*
X065970Y037850D01*
X065515Y039095D02*
X066270Y038350D01*
X065521Y035399D02*
X066270Y036150D01*
X068470D02*
X069215Y035395D01*
X068470Y038350D02*
X069221Y039099D01*
X068770Y037850D02*
X069771Y038248D01*
X064967Y036258D02*
X065970Y036650D01*
X066370Y039650D02*
X066770Y038650D01*
X067750Y039154D02*
X067949Y040154D01*
X069270Y036850D02*
X070270Y036651D01*
X066786Y034392D02*
X066977Y035349D01*
X064378Y037844D02*
X065485Y037624D01*
X068449Y038864D02*
X069050Y039764D01*
X068979Y036163D02*
X069832Y035593D01*
X065744Y034816D02*
X066292Y035636D01*
X064850Y038921D02*
X065750Y038320D01*
X065675Y039753D02*
X066261Y038877D01*
X064901Y035604D02*
X065754Y036174D01*
X068456Y035641D02*
X068998Y034830D01*
X069055Y038372D02*
X069885Y038927D01*
X069274Y037631D02*
X070274Y037830D01*
X067757Y035347D02*
X067949Y034383D01*
X064376Y036668D02*
X065482Y036888D01*
X066775Y040151D02*
X066974Y039151D01*
X063870Y037250D02*
Y038500D01*
X073713Y037250D02*
Y038500D01*
X076618Y040151D02*
X076817Y039151D01*
X074219Y036668D02*
X075325Y036888D01*
X077600Y035347D02*
X077792Y034383D01*
X079116Y037631D02*
X080117Y037830D01*
X078898Y038372D02*
X079728Y038927D01*
X078299Y035641D02*
X078840Y034830D01*
X074743Y035604D02*
X075597Y036174D01*
X075518Y039753D02*
X076103Y038877D01*
X074693Y038921D02*
X075592Y038320D01*
X075587Y034816D02*
X076134Y035636D01*
X078821Y036163D02*
X079674Y035593D01*
X078291Y038864D02*
X078892Y039764D01*
X074221Y037844D02*
X075327Y037624D01*
X076629Y034392D02*
X076819Y035349D01*
X079113Y036850D02*
X080113Y036651D01*
X077592Y039154D02*
X077791Y040154D01*
X076213Y039650D02*
X076613Y038650D01*
X074810Y036258D02*
X075813Y036650D01*
X078613Y037850D02*
X079614Y038248D01*
X078313Y038350D02*
X079063Y039099D01*
X078313Y036150D02*
X079058Y035395D01*
X075363Y035399D02*
X076113Y036150D01*
X075358Y039095D02*
X076113Y038350D01*
X074806Y038234D02*
X075813Y037850D01*
X076215Y034849D02*
X076613Y035850D01*
X078613Y036650D02*
X079613Y036250D01*
X077813Y038650D02*
X078205Y039653D01*
X074713Y034500D02*
Y035000D01*
X075113D01*
X077791Y035861D02*
X078190Y034841D01*
X087634Y035861D02*
X088033Y034841D01*
X084555Y035000D02*
X084955D01*
X084555Y034500D02*
Y035000D01*
X087655Y038650D02*
X088048Y039653D01*
X088455Y036650D02*
X089455Y036250D01*
X086058Y034849D02*
X086455Y035850D01*
X084649Y038234D02*
X085655Y037850D01*
X085200Y039095D02*
X085955Y038350D01*
X085206Y035399D02*
X085955Y036150D01*
X088155D02*
X088900Y035395D01*
X088155Y038350D02*
X088906Y039099D01*
X088455Y037850D02*
X089456Y038248D01*
X084652Y036258D02*
X085655Y036650D01*
X086055Y039650D02*
X086455Y038650D01*
X087435Y039154D02*
X087634Y040154D01*
X088955Y036850D02*
X089955Y036651D01*
X086471Y034392D02*
X086662Y035349D01*
X084063Y037844D02*
X085170Y037624D01*
X088134Y038864D02*
X088735Y039764D01*
X088664Y036163D02*
X089517Y035593D01*
X085429Y034816D02*
X085977Y035636D01*
X084535Y038921D02*
X085435Y038320D01*
X085360Y039753D02*
X085946Y038877D01*
X084586Y035604D02*
X085439Y036174D01*
X088141Y035641D02*
X088683Y034830D01*
X088740Y038372D02*
X089570Y038927D01*
X088959Y037631D02*
X089959Y037830D01*
X087442Y035347D02*
X087634Y034383D01*
X084061Y036668D02*
X085167Y036888D01*
X086460Y040151D02*
X086659Y039151D01*
X083555Y037250D02*
Y038500D01*
X093398Y037250D02*
Y038500D01*
X096303Y040151D02*
X096502Y039151D01*
X093904Y036668D02*
X095010Y036888D01*
X097285Y035347D02*
X097477Y034383D01*
X098801Y037631D02*
X099802Y037830D01*
X098583Y038372D02*
X099413Y038927D01*
X097984Y035641D02*
X098525Y034830D01*
X094428Y035604D02*
X095282Y036174D01*
X095203Y039753D02*
X095788Y038877D01*
X094378Y038921D02*
X095277Y038320D01*
X095272Y034816D02*
X095819Y035636D01*
X098506Y036163D02*
X099359Y035593D01*
X097976Y038864D02*
X098577Y039764D01*
X093906Y037844D02*
X095012Y037624D01*
X096314Y034392D02*
X096504Y035349D01*
X098798Y036850D02*
X099798Y036651D01*
X097277Y039154D02*
X097476Y040154D01*
X095898Y039650D02*
X096298Y038650D01*
X094495Y036258D02*
X095498Y036650D01*
X098298Y037850D02*
X099299Y038248D01*
X097998Y038350D02*
X098748Y039099D01*
X097998Y036150D02*
X098743Y035395D01*
X095048Y035399D02*
X095798Y036150D01*
X095043Y039095D02*
X095798Y038350D01*
X094491Y038234D02*
X095498Y037850D01*
X095900Y034849D02*
X096298Y035850D01*
X098298Y036650D02*
X099298Y036250D01*
X097498Y038650D02*
X097890Y039653D01*
X094398Y034500D02*
Y035000D01*
X094798D01*
X097476Y035861D02*
X097875Y034841D01*
X028578Y045703D02*
X028978Y044684D01*
X025500Y044843D02*
X025900D01*
X025500Y044343D02*
Y044843D01*
X028600Y048493D02*
X028993Y049495D01*
X029400Y046493D02*
X030400Y046093D01*
X027003Y044692D02*
X027400Y045693D01*
X025594Y048076D02*
X026600Y047693D01*
X026145Y048937D02*
X026900Y048193D01*
X026151Y045242D02*
X026900Y045993D01*
X029100D02*
X029845Y045237D01*
X029100Y048193D02*
X029851Y048942D01*
X029400Y047693D02*
X030401Y048090D01*
X025597Y046100D02*
X026600Y046493D01*
X027000Y049493D02*
X027400Y048493D01*
X028380Y048997D02*
X028579Y049997D01*
X029900Y046693D02*
X030900Y046494D01*
X027416Y044234D02*
X027606Y045191D01*
X025008Y047686D02*
X026115Y047466D01*
X029079Y048707D02*
X029679Y049606D01*
X029609Y046005D02*
X030462Y045435D01*
X026374Y044659D02*
X026922Y045478D01*
X025480Y048763D02*
X026380Y048162D01*
X026305Y049596D02*
X026891Y048720D01*
X025531Y045446D02*
X026384Y046016D01*
X029086Y045483D02*
X029628Y044673D01*
X029685Y048215D02*
X030515Y048770D01*
X029904Y047474D02*
X030904Y047673D01*
X028387Y045190D02*
X028579Y044225D01*
X025006Y046511D02*
X026112Y046731D01*
X027405Y049994D02*
X027604Y048993D01*
X024500Y047093D02*
Y048343D01*
X034343Y047093D02*
Y048343D01*
X037248Y049994D02*
X037446Y048993D01*
X034848Y046511D02*
X035955Y046731D01*
X038229Y045190D02*
X038421Y044225D01*
X039746Y047474D02*
X040746Y047673D01*
X039528Y048215D02*
X040358Y048770D01*
X038928Y045483D02*
X039470Y044673D01*
X035373Y045446D02*
X036227Y046016D01*
X036148Y049596D02*
X036733Y048720D01*
X035323Y048763D02*
X036222Y048162D01*
X036217Y044659D02*
X036764Y045478D01*
X039451Y046005D02*
X040304Y045435D01*
X038921Y048707D02*
X039522Y049606D01*
X034851Y047686D02*
X035957Y047466D01*
X037259Y044234D02*
X037449Y045191D01*
X039743Y046693D02*
X040743Y046494D01*
X038222Y048997D02*
X038421Y049997D01*
X036843Y049493D02*
X037243Y048493D01*
X035440Y046100D02*
X036443Y046493D01*
X039243Y047693D02*
X040243Y048090D01*
X038943Y048193D02*
X039693Y048942D01*
X038943Y045993D02*
X039688Y045237D01*
X035993Y045242D02*
X036743Y045993D01*
X035988Y048937D02*
X036743Y048193D01*
X035436Y048076D02*
X036443Y047693D01*
X036845Y044692D02*
X037243Y045693D01*
X039243Y046493D02*
X040243Y046093D01*
X038443Y048493D02*
X038835Y049495D01*
X035343Y044343D02*
Y044843D01*
X035743D01*
X038421Y045703D02*
X038820Y044684D01*
X048263Y045703D02*
X048663Y044684D01*
X045185Y044843D02*
X045585D01*
X045185Y044343D02*
Y044843D01*
X048285Y048493D02*
X048678Y049495D01*
X049085Y046493D02*
X050085Y046093D01*
X046688Y044692D02*
X047085Y045693D01*
X045279Y048076D02*
X046285Y047693D01*
X045830Y048937D02*
X046585Y048193D01*
X045836Y045242D02*
X046585Y045993D01*
X048785D02*
X049530Y045237D01*
X048785Y048193D02*
X049536Y048942D01*
X049085Y047693D02*
X050086Y048090D01*
X045282Y046100D02*
X046285Y046493D01*
X046685Y049493D02*
X047085Y048493D01*
X048065Y048997D02*
X048264Y049997D01*
X049585Y046693D02*
X050585Y046494D01*
X047101Y044234D02*
X047291Y045191D01*
X044693Y047686D02*
X045800Y047466D01*
X048764Y048707D02*
X049365Y049606D01*
X049294Y046005D02*
X050147Y045435D01*
X046059Y044659D02*
X046607Y045478D01*
X045165Y048763D02*
X046065Y048162D01*
X045990Y049596D02*
X046576Y048720D01*
X045216Y045446D02*
X046069Y046016D01*
X048771Y045483D02*
X049313Y044673D01*
X049370Y048215D02*
X050200Y048770D01*
X049589Y047474D02*
X050589Y047673D01*
X048072Y045190D02*
X048264Y044225D01*
X044691Y046511D02*
X045797Y046731D01*
X047090Y049994D02*
X047289Y048993D01*
X044185Y047093D02*
Y048343D01*
X054028Y047093D02*
Y048343D01*
X056933Y049994D02*
X057132Y048993D01*
X054534Y046511D02*
X055640Y046731D01*
X057915Y045190D02*
X058106Y044225D01*
X059431Y047474D02*
X060432Y047673D01*
X059213Y048215D02*
X060043Y048770D01*
X058614Y045483D02*
X059155Y044673D01*
X055058Y045446D02*
X055912Y046016D01*
X055833Y049596D02*
X056418Y048720D01*
X055008Y048763D02*
X055907Y048162D01*
X055902Y044659D02*
X056449Y045478D01*
X059136Y046005D02*
X059989Y045435D01*
X058606Y048707D02*
X059207Y049606D01*
X054536Y047686D02*
X055642Y047466D01*
X056944Y044234D02*
X057134Y045191D01*
X059428Y046693D02*
X060428Y046494D01*
X057907Y048997D02*
X058106Y049997D01*
X056528Y049493D02*
X056928Y048493D01*
X055125Y046100D02*
X056128Y046493D01*
X058928Y047693D02*
X059929Y048090D01*
X058628Y048193D02*
X059378Y048942D01*
X058628Y045993D02*
X059373Y045237D01*
X055678Y045242D02*
X056428Y045993D01*
X055673Y048937D02*
X056428Y048193D01*
X055121Y048076D02*
X056128Y047693D01*
X056530Y044692D02*
X056928Y045693D01*
X058928Y046493D02*
X059928Y046093D01*
X058128Y048493D02*
X058520Y049495D01*
X055028Y044343D02*
Y044843D01*
X055428D01*
X058106Y045703D02*
X058505Y044684D01*
X067948Y045703D02*
X068348Y044684D01*
X064870Y044843D02*
X065270D01*
X064870Y044343D02*
Y044843D01*
X067970Y048493D02*
X068363Y049495D01*
X068770Y046493D02*
X069770Y046093D01*
X066373Y044692D02*
X066770Y045693D01*
X064964Y048076D02*
X065970Y047693D01*
X065515Y048937D02*
X066270Y048193D01*
X065521Y045242D02*
X066270Y045993D01*
X068470D02*
X069215Y045237D01*
X068470Y048193D02*
X069221Y048942D01*
X068770Y047693D02*
X069771Y048090D01*
X064967Y046100D02*
X065970Y046493D01*
X066370Y049493D02*
X066770Y048493D01*
X067750Y048997D02*
X067949Y049997D01*
X069270Y046693D02*
X070270Y046494D01*
X066786Y044234D02*
X066977Y045191D01*
X064378Y047686D02*
X065485Y047466D01*
X068449Y048707D02*
X069050Y049606D01*
X068979Y046005D02*
X069832Y045435D01*
X065744Y044659D02*
X066292Y045478D01*
X064850Y048763D02*
X065750Y048162D01*
X065675Y049596D02*
X066261Y048720D01*
X064901Y045446D02*
X065754Y046016D01*
X068456Y045483D02*
X068998Y044673D01*
X069055Y048215D02*
X069885Y048770D01*
X069274Y047474D02*
X070274Y047673D01*
X067757Y045190D02*
X067949Y044225D01*
X064376Y046511D02*
X065482Y046731D01*
X066775Y049994D02*
X066974Y048993D01*
X063870Y047093D02*
Y048343D01*
X073713Y047093D02*
Y048343D01*
X076618Y049994D02*
X076817Y048993D01*
X074219Y046511D02*
X075325Y046731D01*
X077600Y045190D02*
X077792Y044225D01*
X079116Y047474D02*
X080117Y047673D01*
X078898Y048215D02*
X079728Y048770D01*
X078299Y045483D02*
X078840Y044673D01*
X074743Y045446D02*
X075597Y046016D01*
X075518Y049596D02*
X076103Y048720D01*
X074693Y048763D02*
X075592Y048162D01*
X075587Y044659D02*
X076134Y045478D01*
X078821Y046005D02*
X079674Y045435D01*
X078291Y048707D02*
X078892Y049606D01*
X074221Y047686D02*
X075327Y047466D01*
X076629Y044234D02*
X076819Y045191D01*
X079113Y046693D02*
X080113Y046494D01*
X077592Y048997D02*
X077791Y049997D01*
X076213Y049493D02*
X076613Y048493D01*
X074810Y046100D02*
X075813Y046493D01*
X078613Y047693D02*
X079614Y048090D01*
X078313Y048193D02*
X079063Y048942D01*
X078313Y045993D02*
X079058Y045237D01*
X075363Y045242D02*
X076113Y045993D01*
X075358Y048937D02*
X076113Y048193D01*
X074806Y048076D02*
X075813Y047693D01*
X076215Y044692D02*
X076613Y045693D01*
X078613Y046493D02*
X079613Y046093D01*
X077813Y048493D02*
X078205Y049495D01*
X074713Y044343D02*
Y044843D01*
X075113D01*
X077791Y045703D02*
X078190Y044684D01*
X087634Y045703D02*
X088033Y044684D01*
X084555Y044843D02*
X084955D01*
X084555Y044343D02*
Y044843D01*
X087655Y048493D02*
X088048Y049495D01*
X088455Y046493D02*
X089455Y046093D01*
X086058Y044692D02*
X086455Y045693D01*
X084649Y048076D02*
X085655Y047693D01*
X085200Y048937D02*
X085955Y048193D01*
X085206Y045242D02*
X085955Y045993D01*
X088155D02*
X088900Y045237D01*
X088155Y048193D02*
X088906Y048942D01*
X088455Y047693D02*
X089456Y048090D01*
X084652Y046100D02*
X085655Y046493D01*
X086055Y049493D02*
X086455Y048493D01*
X087435Y048997D02*
X087634Y049997D01*
X088955Y046693D02*
X089955Y046494D01*
X086471Y044234D02*
X086662Y045191D01*
X084063Y047686D02*
X085170Y047466D01*
X088134Y048707D02*
X088735Y049606D01*
X088664Y046005D02*
X089517Y045435D01*
X085429Y044659D02*
X085977Y045478D01*
X084535Y048763D02*
X085435Y048162D01*
X085360Y049596D02*
X085946Y048720D01*
X084586Y045446D02*
X085439Y046016D01*
X088141Y045483D02*
X088683Y044673D01*
X088740Y048215D02*
X089570Y048770D01*
X088959Y047474D02*
X089959Y047673D01*
X087442Y045190D02*
X087634Y044225D01*
X084061Y046511D02*
X085167Y046731D01*
X086460Y049994D02*
X086659Y048993D01*
X083555Y047093D02*
Y048343D01*
X093398Y047093D02*
Y048343D01*
X096303Y049994D02*
X096502Y048993D01*
X093904Y046511D02*
X095010Y046731D01*
X097285Y045190D02*
X097477Y044225D01*
X098801Y047474D02*
X099802Y047673D01*
X098583Y048215D02*
X099413Y048770D01*
X097984Y045483D02*
X098525Y044673D01*
X094428Y045446D02*
X095282Y046016D01*
X095203Y049596D02*
X095788Y048720D01*
X094378Y048763D02*
X095277Y048162D01*
X095272Y044659D02*
X095819Y045478D01*
X098506Y046005D02*
X099359Y045435D01*
X097976Y048707D02*
X098577Y049606D01*
X093906Y047686D02*
X095012Y047466D01*
X096314Y044234D02*
X096504Y045191D01*
X098798Y046693D02*
X099798Y046494D01*
X097277Y048997D02*
X097476Y049997D01*
X095898Y049493D02*
X096298Y048493D01*
X094495Y046100D02*
X095498Y046493D01*
X098298Y047693D02*
X099299Y048090D01*
X097998Y048193D02*
X098748Y048942D01*
X097998Y045993D02*
X098743Y045237D01*
X095048Y045242D02*
X095798Y045993D01*
X095043Y048937D02*
X095798Y048193D01*
X094491Y048076D02*
X095498Y047693D01*
X095900Y044692D02*
X096298Y045693D01*
X098298Y046493D02*
X099298Y046093D01*
X097498Y048493D02*
X097890Y049495D01*
X094398Y044343D02*
Y044843D01*
X094798D01*
X097476Y045703D02*
X097875Y044684D01*
X028578Y055546D02*
X028978Y054526D01*
X025500Y054685D02*
X025900D01*
X025500Y054185D02*
Y054685D01*
X028600Y058335D02*
X028993Y059338D01*
X029400Y056335D02*
X030400Y055935D01*
X027003Y054534D02*
X027400Y055535D01*
X025594Y057919D02*
X026600Y057535D01*
X026145Y058780D02*
X026900Y058035D01*
X026151Y055084D02*
X026900Y055835D01*
X029100D02*
X029845Y055080D01*
X029100Y058035D02*
X029851Y058784D01*
X029400Y057535D02*
X030401Y057933D01*
X025597Y055943D02*
X026600Y056335D01*
X027000Y059335D02*
X027400Y058335D01*
X028380Y058839D02*
X028579Y059839D01*
X029900Y056535D02*
X030900Y056336D01*
X027416Y054077D02*
X027606Y055034D01*
X025008Y057529D02*
X026115Y057309D01*
X029079Y058549D02*
X029679Y059449D01*
X029609Y055848D02*
X030462Y055278D01*
X026374Y054501D02*
X026922Y055321D01*
X025480Y058606D02*
X026380Y058005D01*
X026305Y059438D02*
X026891Y058562D01*
X025531Y055289D02*
X026384Y055859D01*
X029086Y055326D02*
X029628Y054515D01*
X029685Y058057D02*
X030515Y058612D01*
X029904Y057316D02*
X030904Y057515D01*
X028387Y055032D02*
X028579Y054068D01*
X025006Y056353D02*
X026112Y056574D01*
X027405Y059836D02*
X027604Y058836D01*
X024500Y056935D02*
Y058185D01*
X034343Y056935D02*
Y058185D01*
X037248Y059836D02*
X037446Y058836D01*
X034848Y056353D02*
X035955Y056574D01*
X038229Y055032D02*
X038421Y054068D01*
X039746Y057316D02*
X040746Y057515D01*
X039528Y058057D02*
X040358Y058612D01*
X038928Y055326D02*
X039470Y054515D01*
X035373Y055289D02*
X036227Y055859D01*
X036148Y059438D02*
X036733Y058562D01*
X035323Y058606D02*
X036222Y058005D01*
X036217Y054501D02*
X036764Y055321D01*
X039451Y055848D02*
X040304Y055278D01*
X038921Y058549D02*
X039522Y059449D01*
X034851Y057529D02*
X035957Y057309D01*
X037259Y054077D02*
X037449Y055034D01*
X039743Y056535D02*
X040743Y056336D01*
X038222Y058839D02*
X038421Y059839D01*
X036843Y059335D02*
X037243Y058335D01*
X035440Y055943D02*
X036443Y056335D01*
X039243Y057535D02*
X040243Y057933D01*
X038943Y058035D02*
X039693Y058784D01*
X038943Y055835D02*
X039688Y055080D01*
X035993Y055084D02*
X036743Y055835D01*
X035988Y058780D02*
X036743Y058035D01*
X035436Y057919D02*
X036443Y057535D01*
X036845Y054534D02*
X037243Y055535D01*
X039243Y056335D02*
X040243Y055935D01*
X038443Y058335D02*
X038835Y059338D01*
X035343Y054185D02*
Y054685D01*
X035743D01*
X038421Y055546D02*
X038820Y054526D01*
X048263Y055546D02*
X048663Y054526D01*
X045185Y054685D02*
X045585D01*
X045185Y054185D02*
Y054685D01*
X048285Y058335D02*
X048678Y059338D01*
X049085Y056335D02*
X050085Y055935D01*
X046688Y054534D02*
X047085Y055535D01*
X045279Y057919D02*
X046285Y057535D01*
X045830Y058780D02*
X046585Y058035D01*
X045836Y055084D02*
X046585Y055835D01*
X048785D02*
X049530Y055080D01*
X048785Y058035D02*
X049536Y058784D01*
X049085Y057535D02*
X050086Y057933D01*
X045282Y055943D02*
X046285Y056335D01*
X046685Y059335D02*
X047085Y058335D01*
X048065Y058839D02*
X048264Y059839D01*
X049585Y056535D02*
X050585Y056336D01*
X047101Y054077D02*
X047291Y055034D01*
X044693Y057529D02*
X045800Y057309D01*
X048764Y058549D02*
X049365Y059449D01*
X049294Y055848D02*
X050147Y055278D01*
X046059Y054501D02*
X046607Y055321D01*
X045165Y058606D02*
X046065Y058005D01*
X045990Y059438D02*
X046576Y058562D01*
X045216Y055289D02*
X046069Y055859D01*
X048771Y055326D02*
X049313Y054515D01*
X049370Y058057D02*
X050200Y058612D01*
X049589Y057316D02*
X050589Y057515D01*
X048072Y055032D02*
X048264Y054068D01*
X044691Y056353D02*
X045797Y056574D01*
X047090Y059836D02*
X047289Y058836D01*
X044185Y056935D02*
Y058185D01*
X054028Y056935D02*
Y058185D01*
X056933Y059836D02*
X057132Y058836D01*
X054534Y056353D02*
X055640Y056574D01*
X057915Y055032D02*
X058106Y054068D01*
X059431Y057316D02*
X060432Y057515D01*
X059213Y058057D02*
X060043Y058612D01*
X058614Y055326D02*
X059155Y054515D01*
X055058Y055289D02*
X055912Y055859D01*
X055833Y059438D02*
X056418Y058562D01*
X055008Y058606D02*
X055907Y058005D01*
X055902Y054501D02*
X056449Y055321D01*
X059136Y055848D02*
X059989Y055278D01*
X058606Y058549D02*
X059207Y059449D01*
X054536Y057529D02*
X055642Y057309D01*
X056944Y054077D02*
X057134Y055034D01*
X059428Y056535D02*
X060428Y056336D01*
X057907Y058839D02*
X058106Y059839D01*
X056528Y059335D02*
X056928Y058335D01*
X055125Y055943D02*
X056128Y056335D01*
X058928Y057535D02*
X059929Y057933D01*
X058628Y058035D02*
X059378Y058784D01*
X058628Y055835D02*
X059373Y055080D01*
X055678Y055084D02*
X056428Y055835D01*
X055673Y058780D02*
X056428Y058035D01*
X055121Y057919D02*
X056128Y057535D01*
X056530Y054534D02*
X056928Y055535D01*
X058928Y056335D02*
X059928Y055935D01*
X058128Y058335D02*
X058520Y059338D01*
X055028Y054185D02*
Y054685D01*
X055428D01*
X058106Y055546D02*
X058505Y054526D01*
X067948Y055546D02*
X068348Y054526D01*
X064870Y054685D02*
X065270D01*
X064870Y054185D02*
Y054685D01*
X067970Y058335D02*
X068363Y059338D01*
X068770Y056335D02*
X069770Y055935D01*
X066373Y054534D02*
X066770Y055535D01*
X064964Y057919D02*
X065970Y057535D01*
X065515Y058780D02*
X066270Y058035D01*
X065521Y055084D02*
X066270Y055835D01*
X068470D02*
X069215Y055080D01*
X068470Y058035D02*
X069221Y058784D01*
X068770Y057535D02*
X069771Y057933D01*
X064967Y055943D02*
X065970Y056335D01*
X066370Y059335D02*
X066770Y058335D01*
X067750Y058839D02*
X067949Y059839D01*
X069270Y056535D02*
X070270Y056336D01*
X066786Y054077D02*
X066977Y055034D01*
X064378Y057529D02*
X065485Y057309D01*
X068449Y058549D02*
X069050Y059449D01*
X068979Y055848D02*
X069832Y055278D01*
X065744Y054501D02*
X066292Y055321D01*
X064850Y058606D02*
X065750Y058005D01*
X065675Y059438D02*
X066261Y058562D01*
X064901Y055289D02*
X065754Y055859D01*
X068456Y055326D02*
X068998Y054515D01*
X069055Y058057D02*
X069885Y058612D01*
X069274Y057316D02*
X070274Y057515D01*
X067757Y055032D02*
X067949Y054068D01*
X064376Y056353D02*
X065482Y056574D01*
X066775Y059836D02*
X066974Y058836D01*
X063870Y056935D02*
Y058185D01*
X073713Y056935D02*
Y058185D01*
X076618Y059836D02*
X076817Y058836D01*
X074219Y056353D02*
X075325Y056574D01*
X077600Y055032D02*
X077792Y054068D01*
X079116Y057316D02*
X080117Y057515D01*
X078898Y058057D02*
X079728Y058612D01*
X078299Y055326D02*
X078840Y054515D01*
X074743Y055289D02*
X075597Y055859D01*
X075518Y059438D02*
X076103Y058562D01*
X074693Y058606D02*
X075592Y058005D01*
X075587Y054501D02*
X076134Y055321D01*
X078821Y055848D02*
X079674Y055278D01*
X078291Y058549D02*
X078892Y059449D01*
X074221Y057529D02*
X075327Y057309D01*
X076629Y054077D02*
X076819Y055034D01*
X079113Y056535D02*
X080113Y056336D01*
X077592Y058839D02*
X077791Y059839D01*
X076213Y059335D02*
X076613Y058335D01*
X074810Y055943D02*
X075813Y056335D01*
X078613Y057535D02*
X079614Y057933D01*
X078313Y058035D02*
X079063Y058784D01*
X078313Y055835D02*
X079058Y055080D01*
X075363Y055084D02*
X076113Y055835D01*
X075358Y058780D02*
X076113Y058035D01*
X074806Y057919D02*
X075813Y057535D01*
X076215Y054534D02*
X076613Y055535D01*
X078613Y056335D02*
X079613Y055935D01*
X077813Y058335D02*
X078205Y059338D01*
X074713Y054185D02*
Y054685D01*
X075113D01*
X077791Y055546D02*
X078190Y054526D01*
X087634Y055546D02*
X088033Y054526D01*
X084555Y054685D02*
X084955D01*
X084555Y054185D02*
Y054685D01*
X087655Y058335D02*
X088048Y059338D01*
X088455Y056335D02*
X089455Y055935D01*
X086058Y054534D02*
X086455Y055535D01*
X084649Y057919D02*
X085655Y057535D01*
X085200Y058780D02*
X085955Y058035D01*
X085206Y055084D02*
X085955Y055835D01*
X088155D02*
X088900Y055080D01*
X088155Y058035D02*
X088906Y058784D01*
X088455Y057535D02*
X089456Y057933D01*
X084652Y055943D02*
X085655Y056335D01*
X086055Y059335D02*
X086455Y058335D01*
X087435Y058839D02*
X087634Y059839D01*
X088955Y056535D02*
X089955Y056336D01*
X086471Y054077D02*
X086662Y055034D01*
X084063Y057529D02*
X085170Y057309D01*
X088134Y058549D02*
X088735Y059449D01*
X088664Y055848D02*
X089517Y055278D01*
X085429Y054501D02*
X085977Y055321D01*
X084535Y058606D02*
X085435Y058005D01*
X085360Y059438D02*
X085946Y058562D01*
X084586Y055289D02*
X085439Y055859D01*
X088141Y055326D02*
X088683Y054515D01*
X088740Y058057D02*
X089570Y058612D01*
X088959Y057316D02*
X089959Y057515D01*
X087442Y055032D02*
X087634Y054068D01*
X084061Y056353D02*
X085167Y056574D01*
X086460Y059836D02*
X086659Y058836D01*
X083555Y056935D02*
Y058185D01*
X093398Y056935D02*
Y058185D01*
X096303Y059836D02*
X096502Y058836D01*
X093904Y056353D02*
X095010Y056574D01*
X097285Y055032D02*
X097477Y054068D01*
X098801Y057316D02*
X099802Y057515D01*
X098583Y058057D02*
X099413Y058612D01*
X097984Y055326D02*
X098525Y054515D01*
X094428Y055289D02*
X095282Y055859D01*
X095203Y059438D02*
X095788Y058562D01*
X094378Y058606D02*
X095277Y058005D01*
X095272Y054501D02*
X095819Y055321D01*
X098506Y055848D02*
X099359Y055278D01*
X097976Y058549D02*
X098577Y059449D01*
X093906Y057529D02*
X095012Y057309D01*
X096314Y054077D02*
X096504Y055034D01*
X098798Y056535D02*
X099798Y056336D01*
X097277Y058839D02*
X097476Y059839D01*
X095898Y059335D02*
X096298Y058335D01*
X094495Y055943D02*
X095498Y056335D01*
X098298Y057535D02*
X099299Y057933D01*
X097998Y058035D02*
X098748Y058784D01*
X097998Y055835D02*
X098743Y055080D01*
X095048Y055084D02*
X095798Y055835D01*
X095043Y058780D02*
X095798Y058035D01*
X094491Y057919D02*
X095498Y057535D01*
X095900Y054534D02*
X096298Y055535D01*
X098298Y056335D02*
X099298Y055935D01*
X097498Y058335D02*
X097890Y059338D01*
X094398Y054185D02*
Y054685D01*
X094798D01*
X097476Y055546D02*
X097875Y054526D01*
X028578Y065388D02*
X028978Y064369D01*
X025500Y064528D02*
X025900D01*
X025500Y064028D02*
Y064528D01*
X028600Y068178D02*
X028993Y069180D01*
X029400Y066178D02*
X030400Y065778D01*
X027003Y064377D02*
X027400Y065378D01*
X025594Y067761D02*
X026600Y067378D01*
X026145Y068622D02*
X026900Y067878D01*
X026151Y064927D02*
X026900Y065678D01*
X029100D02*
X029845Y064922D01*
X029100Y067878D02*
X029851Y068627D01*
X029400Y067378D02*
X030401Y067775D01*
X025597Y065785D02*
X026600Y066178D01*
X027000Y069178D02*
X027400Y068178D01*
X028380Y068682D02*
X028579Y069682D01*
X029900Y066378D02*
X030900Y066179D01*
X027416Y063919D02*
X027606Y064876D01*
X025008Y067371D02*
X026115Y067151D01*
X029079Y068392D02*
X029679Y069291D01*
X029609Y065690D02*
X030462Y065120D01*
X026374Y064344D02*
X026922Y065163D01*
X025480Y068448D02*
X026380Y067847D01*
X026305Y069281D02*
X026891Y068405D01*
X025531Y065131D02*
X026384Y065701D01*
X029086Y065168D02*
X029628Y064358D01*
X029685Y067900D02*
X030515Y068455D01*
X029904Y067159D02*
X030904Y067358D01*
X028387Y064875D02*
X028579Y063910D01*
X025006Y066196D02*
X026112Y066416D01*
X027405Y069679D02*
X027604Y068678D01*
X024500Y066778D02*
Y068028D01*
X034343Y066778D02*
Y068028D01*
X037248Y069679D02*
X037446Y068678D01*
X034848Y066196D02*
X035955Y066416D01*
X038229Y064875D02*
X038421Y063910D01*
X039746Y067159D02*
X040746Y067358D01*
X039528Y067900D02*
X040358Y068455D01*
X038928Y065168D02*
X039470Y064358D01*
X035373Y065131D02*
X036227Y065701D01*
X036148Y069281D02*
X036733Y068405D01*
X035323Y068448D02*
X036222Y067847D01*
X036217Y064344D02*
X036764Y065163D01*
X039451Y065690D02*
X040304Y065120D01*
X038921Y068392D02*
X039522Y069291D01*
X034851Y067371D02*
X035957Y067151D01*
X037259Y063919D02*
X037449Y064876D01*
X039743Y066378D02*
X040743Y066179D01*
X038222Y068682D02*
X038421Y069682D01*
X036843Y069178D02*
X037243Y068178D01*
X035440Y065785D02*
X036443Y066178D01*
X039243Y067378D02*
X040243Y067775D01*
X038943Y067878D02*
X039693Y068627D01*
X038943Y065678D02*
X039688Y064922D01*
X035993Y064927D02*
X036743Y065678D01*
X035988Y068622D02*
X036743Y067878D01*
X035436Y067761D02*
X036443Y067378D01*
X036845Y064377D02*
X037243Y065378D01*
X039243Y066178D02*
X040243Y065778D01*
X038443Y068178D02*
X038835Y069180D01*
X035343Y064028D02*
Y064528D01*
X035743D01*
X038421Y065388D02*
X038820Y064369D01*
X048263Y065388D02*
X048663Y064369D01*
X045185Y064528D02*
X045585D01*
X045185Y064028D02*
Y064528D01*
X048285Y068178D02*
X048678Y069180D01*
X049085Y066178D02*
X050085Y065778D01*
X046688Y064377D02*
X047085Y065378D01*
X045279Y067761D02*
X046285Y067378D01*
X045830Y068622D02*
X046585Y067878D01*
X045836Y064927D02*
X046585Y065678D01*
X048785D02*
X049530Y064922D01*
X048785Y067878D02*
X049536Y068627D01*
X049085Y067378D02*
X050086Y067775D01*
X045282Y065785D02*
X046285Y066178D01*
X046685Y069178D02*
X047085Y068178D01*
X048065Y068682D02*
X048264Y069682D01*
X049585Y066378D02*
X050585Y066179D01*
X047101Y063919D02*
X047291Y064876D01*
X044693Y067371D02*
X045800Y067151D01*
X048764Y068392D02*
X049365Y069291D01*
X049294Y065690D02*
X050147Y065120D01*
X046059Y064344D02*
X046607Y065163D01*
X045165Y068448D02*
X046065Y067847D01*
X045990Y069281D02*
X046576Y068405D01*
X045216Y065131D02*
X046069Y065701D01*
X048771Y065168D02*
X049313Y064358D01*
X049370Y067900D02*
X050200Y068455D01*
X049589Y067159D02*
X050589Y067358D01*
X048072Y064875D02*
X048264Y063910D01*
X044691Y066196D02*
X045797Y066416D01*
X047090Y069679D02*
X047289Y068678D01*
X044185Y066778D02*
Y068028D01*
X054028Y066778D02*
Y068028D01*
X056933Y069679D02*
X057132Y068678D01*
X054534Y066196D02*
X055640Y066416D01*
X057915Y064875D02*
X058106Y063910D01*
X059431Y067159D02*
X060432Y067358D01*
X059213Y067900D02*
X060043Y068455D01*
X058614Y065168D02*
X059155Y064358D01*
X055058Y065131D02*
X055912Y065701D01*
X055833Y069281D02*
X056418Y068405D01*
X055008Y068448D02*
X055907Y067847D01*
X055902Y064344D02*
X056449Y065163D01*
X059136Y065690D02*
X059989Y065120D01*
X058606Y068392D02*
X059207Y069291D01*
X054536Y067371D02*
X055642Y067151D01*
X056944Y063919D02*
X057134Y064876D01*
X059428Y066378D02*
X060428Y066179D01*
X057907Y068682D02*
X058106Y069682D01*
X056528Y069178D02*
X056928Y068178D01*
X055125Y065785D02*
X056128Y066178D01*
X058928Y067378D02*
X059929Y067775D01*
X058628Y067878D02*
X059378Y068627D01*
X058628Y065678D02*
X059373Y064922D01*
X055678Y064927D02*
X056428Y065678D01*
X055673Y068622D02*
X056428Y067878D01*
X055121Y067761D02*
X056128Y067378D01*
X056530Y064377D02*
X056928Y065378D01*
X058928Y066178D02*
X059928Y065778D01*
X058128Y068178D02*
X058520Y069180D01*
X055028Y064028D02*
Y064528D01*
X055428D01*
X058106Y065388D02*
X058505Y064369D01*
X067948Y065388D02*
X068348Y064369D01*
X064870Y064528D02*
X065270D01*
X064870Y064028D02*
Y064528D01*
X067970Y068178D02*
X068363Y069180D01*
X068770Y066178D02*
X069770Y065778D01*
X066373Y064377D02*
X066770Y065378D01*
X064964Y067761D02*
X065970Y067378D01*
X065515Y068622D02*
X066270Y067878D01*
X065521Y064927D02*
X066270Y065678D01*
X068470D02*
X069215Y064922D01*
X068470Y067878D02*
X069221Y068627D01*
X068770Y067378D02*
X069771Y067775D01*
X064967Y065785D02*
X065970Y066178D01*
X066370Y069178D02*
X066770Y068178D01*
X067750Y068682D02*
X067949Y069682D01*
X069270Y066378D02*
X070270Y066179D01*
X066786Y063919D02*
X066977Y064876D01*
X064378Y067371D02*
X065485Y067151D01*
X068449Y068392D02*
X069050Y069291D01*
X068979Y065690D02*
X069832Y065120D01*
X065744Y064344D02*
X066292Y065163D01*
X064850Y068448D02*
X065750Y067847D01*
X065675Y069281D02*
X066261Y068405D01*
X064901Y065131D02*
X065754Y065701D01*
X068456Y065168D02*
X068998Y064358D01*
X069055Y067900D02*
X069885Y068455D01*
X069274Y067159D02*
X070274Y067358D01*
X067757Y064875D02*
X067949Y063910D01*
X064376Y066196D02*
X065482Y066416D01*
X066775Y069679D02*
X066974Y068678D01*
X063870Y066778D02*
Y068028D01*
X073713Y066778D02*
Y068028D01*
X076618Y069679D02*
X076817Y068678D01*
X074219Y066196D02*
X075325Y066416D01*
X077600Y064875D02*
X077792Y063910D01*
X079116Y067159D02*
X080117Y067358D01*
X078898Y067900D02*
X079728Y068455D01*
X078299Y065168D02*
X078840Y064358D01*
X074743Y065131D02*
X075597Y065701D01*
X075518Y069281D02*
X076103Y068405D01*
X074693Y068448D02*
X075592Y067847D01*
X075587Y064344D02*
X076134Y065163D01*
X078821Y065690D02*
X079674Y065120D01*
X078291Y068392D02*
X078892Y069291D01*
X074221Y067371D02*
X075327Y067151D01*
X076629Y063919D02*
X076819Y064876D01*
X079113Y066378D02*
X080113Y066179D01*
X077592Y068682D02*
X077791Y069682D01*
X076213Y069178D02*
X076613Y068178D01*
X074810Y065785D02*
X075813Y066178D01*
X078613Y067378D02*
X079614Y067775D01*
X078313Y067878D02*
X079063Y068627D01*
X078313Y065678D02*
X079058Y064922D01*
X075363Y064927D02*
X076113Y065678D01*
X075358Y068622D02*
X076113Y067878D01*
X074806Y067761D02*
X075813Y067378D01*
X076215Y064377D02*
X076613Y065378D01*
X078613Y066178D02*
X079613Y065778D01*
X077813Y068178D02*
X078205Y069180D01*
X074713Y064028D02*
Y064528D01*
X075113D01*
X077791Y065388D02*
X078190Y064369D01*
X087634Y065388D02*
X088033Y064369D01*
X084555Y064528D02*
X084955D01*
X084555Y064028D02*
Y064528D01*
X087655Y068178D02*
X088048Y069180D01*
X088455Y066178D02*
X089455Y065778D01*
X086058Y064377D02*
X086455Y065378D01*
X084649Y067761D02*
X085655Y067378D01*
X085200Y068622D02*
X085955Y067878D01*
X085206Y064927D02*
X085955Y065678D01*
X088155D02*
X088900Y064922D01*
X088155Y067878D02*
X088906Y068627D01*
X088455Y067378D02*
X089456Y067775D01*
X084652Y065785D02*
X085655Y066178D01*
X086055Y069178D02*
X086455Y068178D01*
X087435Y068682D02*
X087634Y069682D01*
X088955Y066378D02*
X089955Y066179D01*
X086471Y063919D02*
X086662Y064876D01*
X084063Y067371D02*
X085170Y067151D01*
X088134Y068392D02*
X088735Y069291D01*
X088664Y065690D02*
X089517Y065120D01*
X085429Y064344D02*
X085977Y065163D01*
X084535Y068448D02*
X085435Y067847D01*
X085360Y069281D02*
X085946Y068405D01*
X084586Y065131D02*
X085439Y065701D01*
X088141Y065168D02*
X088683Y064358D01*
X088740Y067900D02*
X089570Y068455D01*
X088959Y067159D02*
X089959Y067358D01*
X087442Y064875D02*
X087634Y063910D01*
X084061Y066196D02*
X085167Y066416D01*
X086460Y069679D02*
X086659Y068678D01*
X083555Y066778D02*
Y068028D01*
X093398Y066778D02*
Y068028D01*
X096303Y069679D02*
X096502Y068678D01*
X093904Y066196D02*
X095010Y066416D01*
X097285Y064875D02*
X097477Y063910D01*
X098801Y067159D02*
X099802Y067358D01*
X098583Y067900D02*
X099413Y068455D01*
X097984Y065168D02*
X098525Y064358D01*
X094428Y065131D02*
X095282Y065701D01*
X095203Y069281D02*
X095788Y068405D01*
X094378Y068448D02*
X095277Y067847D01*
X095272Y064344D02*
X095819Y065163D01*
X098506Y065690D02*
X099359Y065120D01*
X097976Y068392D02*
X098577Y069291D01*
X093906Y067371D02*
X095012Y067151D01*
X096314Y063919D02*
X096504Y064876D01*
X098798Y066378D02*
X099798Y066179D01*
X097277Y068682D02*
X097476Y069682D01*
X095898Y069178D02*
X096298Y068178D01*
X094495Y065785D02*
X095498Y066178D01*
X098298Y067378D02*
X099299Y067775D01*
X097998Y067878D02*
X098748Y068627D01*
X097998Y065678D02*
X098743Y064922D01*
X095048Y064927D02*
X095798Y065678D01*
X095043Y068622D02*
X095798Y067878D01*
X094491Y067761D02*
X095498Y067378D01*
X095900Y064377D02*
X096298Y065378D01*
X098298Y066178D02*
X099298Y065778D01*
X097498Y068178D02*
X097890Y069180D01*
X094398Y064028D02*
Y064528D01*
X094798D01*
X097476Y065388D02*
X097875Y064369D01*
X028578Y075231D02*
X028978Y074211D01*
X025500Y074370D02*
X025900D01*
X025500Y073870D02*
Y074370D01*
X028600Y078020D02*
X028993Y079023D01*
X029400Y076020D02*
X030400Y075620D01*
X027003Y074219D02*
X027400Y075220D01*
X025594Y077604D02*
X026600Y077220D01*
X026145Y078465D02*
X026900Y077720D01*
X026151Y074769D02*
X026900Y075520D01*
X029100D02*
X029845Y074765D01*
X029100Y077720D02*
X029851Y078469D01*
X029400Y077220D02*
X030401Y077618D01*
X025597Y075628D02*
X026600Y076020D01*
X027000Y079020D02*
X027400Y078020D01*
X028380Y078524D02*
X028579Y079524D01*
X029900Y076220D02*
X030900Y076021D01*
X027416Y073762D02*
X027606Y074719D01*
X025008Y077214D02*
X026115Y076994D01*
X029079Y078234D02*
X029679Y079134D01*
X029609Y075533D02*
X030462Y074963D01*
X026374Y074186D02*
X026922Y075006D01*
X025480Y078291D02*
X026380Y077690D01*
X026305Y079124D02*
X026891Y078247D01*
X025531Y074974D02*
X026384Y075544D01*
X029086Y075011D02*
X029628Y074200D01*
X029685Y077742D02*
X030515Y078297D01*
X029904Y077001D02*
X030904Y077200D01*
X028387Y074718D02*
X028579Y073753D01*
X025006Y076038D02*
X026112Y076259D01*
X027405Y079521D02*
X027604Y078521D01*
X024500Y076620D02*
Y077870D01*
X034343Y076620D02*
Y077870D01*
X037248Y079521D02*
X037446Y078521D01*
X034848Y076038D02*
X035955Y076259D01*
X038229Y074718D02*
X038421Y073753D01*
X039746Y077001D02*
X040746Y077200D01*
X039528Y077742D02*
X040358Y078297D01*
X038928Y075011D02*
X039470Y074200D01*
X035373Y074974D02*
X036227Y075544D01*
X036148Y079124D02*
X036733Y078247D01*
X035323Y078291D02*
X036222Y077690D01*
X036217Y074186D02*
X036764Y075006D01*
X039451Y075533D02*
X040304Y074963D01*
X038921Y078234D02*
X039522Y079134D01*
X034851Y077214D02*
X035957Y076994D01*
X037259Y073762D02*
X037449Y074719D01*
X039743Y076220D02*
X040743Y076021D01*
X038222Y078524D02*
X038421Y079524D01*
X036843Y079020D02*
X037243Y078020D01*
X035440Y075628D02*
X036443Y076020D01*
X039243Y077220D02*
X040243Y077618D01*
X038943Y077720D02*
X039693Y078469D01*
X038943Y075520D02*
X039688Y074765D01*
X035993Y074769D02*
X036743Y075520D01*
X035988Y078465D02*
X036743Y077720D01*
X035436Y077604D02*
X036443Y077220D01*
X036845Y074219D02*
X037243Y075220D01*
X039243Y076020D02*
X040243Y075620D01*
X038443Y078020D02*
X038835Y079023D01*
X035343Y073870D02*
Y074370D01*
X035743D01*
X038421Y075231D02*
X038820Y074211D01*
X048263Y075231D02*
X048663Y074211D01*
X045185Y074370D02*
X045585D01*
X045185Y073870D02*
Y074370D01*
X048285Y078020D02*
X048678Y079023D01*
X049085Y076020D02*
X050085Y075620D01*
X046688Y074219D02*
X047085Y075220D01*
X045279Y077604D02*
X046285Y077220D01*
X045830Y078465D02*
X046585Y077720D01*
X045836Y074769D02*
X046585Y075520D01*
X048785D02*
X049530Y074765D01*
X048785Y077720D02*
X049536Y078469D01*
X049085Y077220D02*
X050086Y077618D01*
X045282Y075628D02*
X046285Y076020D01*
X046685Y079020D02*
X047085Y078020D01*
X048065Y078524D02*
X048264Y079524D01*
X049585Y076220D02*
X050585Y076021D01*
X047101Y073762D02*
X047291Y074719D01*
X044693Y077214D02*
X045800Y076994D01*
X048764Y078234D02*
X049365Y079134D01*
X049294Y075533D02*
X050147Y074963D01*
X046059Y074186D02*
X046607Y075006D01*
X045165Y078291D02*
X046065Y077690D01*
X045990Y079124D02*
X046576Y078247D01*
X045216Y074974D02*
X046069Y075544D01*
X048771Y075011D02*
X049313Y074200D01*
X049370Y077742D02*
X050200Y078297D01*
X049589Y077001D02*
X050589Y077200D01*
X048072Y074718D02*
X048264Y073753D01*
X044691Y076038D02*
X045797Y076259D01*
X047090Y079521D02*
X047289Y078521D01*
X044185Y076620D02*
Y077870D01*
X054028Y076620D02*
Y077870D01*
X056933Y079521D02*
X057132Y078521D01*
X054534Y076038D02*
X055640Y076259D01*
X057915Y074718D02*
X058106Y073753D01*
X059431Y077001D02*
X060432Y077200D01*
X059213Y077742D02*
X060043Y078297D01*
X058614Y075011D02*
X059155Y074200D01*
X055058Y074974D02*
X055912Y075544D01*
X055833Y079124D02*
X056418Y078247D01*
X055008Y078291D02*
X055907Y077690D01*
X055902Y074186D02*
X056449Y075006D01*
X059136Y075533D02*
X059989Y074963D01*
X058606Y078234D02*
X059207Y079134D01*
X054536Y077214D02*
X055642Y076994D01*
X056944Y073762D02*
X057134Y074719D01*
X059428Y076220D02*
X060428Y076021D01*
X057907Y078524D02*
X058106Y079524D01*
X056528Y079020D02*
X056928Y078020D01*
X055125Y075628D02*
X056128Y076020D01*
X058928Y077220D02*
X059929Y077618D01*
X058628Y077720D02*
X059378Y078469D01*
X058628Y075520D02*
X059373Y074765D01*
X055678Y074769D02*
X056428Y075520D01*
X055673Y078465D02*
X056428Y077720D01*
X055121Y077604D02*
X056128Y077220D01*
X056530Y074219D02*
X056928Y075220D01*
X058928Y076020D02*
X059928Y075620D01*
X058128Y078020D02*
X058520Y079023D01*
X055028Y073870D02*
Y074370D01*
X055428D01*
X058106Y075231D02*
X058505Y074211D01*
X067948Y075231D02*
X068348Y074211D01*
X064870Y074370D02*
X065270D01*
X064870Y073870D02*
Y074370D01*
X067970Y078020D02*
X068363Y079023D01*
X068770Y076020D02*
X069770Y075620D01*
X066373Y074219D02*
X066770Y075220D01*
X064964Y077604D02*
X065970Y077220D01*
X065515Y078465D02*
X066270Y077720D01*
X065521Y074769D02*
X066270Y075520D01*
X068470D02*
X069215Y074765D01*
X068470Y077720D02*
X069221Y078469D01*
X068770Y077220D02*
X069771Y077618D01*
X064967Y075628D02*
X065970Y076020D01*
X066370Y079020D02*
X066770Y078020D01*
X067750Y078524D02*
X067949Y079524D01*
X069270Y076220D02*
X070270Y076021D01*
X066786Y073762D02*
X066977Y074719D01*
X064378Y077214D02*
X065485Y076994D01*
X068449Y078234D02*
X069050Y079134D01*
X068979Y075533D02*
X069832Y074963D01*
X065744Y074186D02*
X066292Y075006D01*
X064850Y078291D02*
X065750Y077690D01*
X065675Y079124D02*
X066261Y078247D01*
X064901Y074974D02*
X065754Y075544D01*
X068456Y075011D02*
X068998Y074200D01*
X069055Y077742D02*
X069885Y078297D01*
X069274Y077001D02*
X070274Y077200D01*
X067757Y074718D02*
X067949Y073753D01*
X064376Y076038D02*
X065482Y076259D01*
X066775Y079521D02*
X066974Y078521D01*
X063870Y076620D02*
Y077870D01*
X073713Y076620D02*
Y077870D01*
X076618Y079521D02*
X076817Y078521D01*
X074219Y076038D02*
X075325Y076259D01*
X077600Y074718D02*
X077792Y073753D01*
X079116Y077001D02*
X080117Y077200D01*
X078898Y077742D02*
X079728Y078297D01*
X078299Y075011D02*
X078840Y074200D01*
X074743Y074974D02*
X075597Y075544D01*
X075518Y079124D02*
X076103Y078247D01*
X074693Y078291D02*
X075592Y077690D01*
X075587Y074186D02*
X076134Y075006D01*
X078821Y075533D02*
X079674Y074963D01*
X078291Y078234D02*
X078892Y079134D01*
X074221Y077214D02*
X075327Y076994D01*
X076629Y073762D02*
X076819Y074719D01*
X079113Y076220D02*
X080113Y076021D01*
X077592Y078524D02*
X077791Y079524D01*
X076213Y079020D02*
X076613Y078020D01*
X074810Y075628D02*
X075813Y076020D01*
X078613Y077220D02*
X079614Y077618D01*
X078313Y077720D02*
X079063Y078469D01*
X078313Y075520D02*
X079058Y074765D01*
X075363Y074769D02*
X076113Y075520D01*
X075358Y078465D02*
X076113Y077720D01*
X074806Y077604D02*
X075813Y077220D01*
X076215Y074219D02*
X076613Y075220D01*
X078613Y076020D02*
X079613Y075620D01*
X077813Y078020D02*
X078205Y079023D01*
X074713Y073870D02*
Y074370D01*
X075113D01*
X077791Y075231D02*
X078190Y074211D01*
X087634Y075231D02*
X088033Y074211D01*
X084555Y074370D02*
X084955D01*
X084555Y073870D02*
Y074370D01*
X087655Y078020D02*
X088048Y079023D01*
X088455Y076020D02*
X089455Y075620D01*
X086058Y074219D02*
X086455Y075220D01*
X084649Y077604D02*
X085655Y077220D01*
X085200Y078465D02*
X085955Y077720D01*
X085206Y074769D02*
X085955Y075520D01*
X088155D02*
X088900Y074765D01*
X088155Y077720D02*
X088906Y078469D01*
X088455Y077220D02*
X089456Y077618D01*
X084652Y075628D02*
X085655Y076020D01*
X086055Y079020D02*
X086455Y078020D01*
X087435Y078524D02*
X087634Y079524D01*
X088955Y076220D02*
X089955Y076021D01*
X086471Y073762D02*
X086662Y074719D01*
X084063Y077214D02*
X085170Y076994D01*
X088134Y078234D02*
X088735Y079134D01*
X088664Y075533D02*
X089517Y074963D01*
X085429Y074186D02*
X085977Y075006D01*
X084535Y078291D02*
X085435Y077690D01*
X085360Y079124D02*
X085946Y078247D01*
X084586Y074974D02*
X085439Y075544D01*
X088141Y075011D02*
X088683Y074200D01*
X088740Y077742D02*
X089570Y078297D01*
X088959Y077001D02*
X089959Y077200D01*
X087442Y074718D02*
X087634Y073753D01*
X084061Y076038D02*
X085167Y076259D01*
X086460Y079521D02*
X086659Y078521D01*
X083555Y076620D02*
Y077870D01*
X093398Y076620D02*
Y077870D01*
X096303Y079521D02*
X096502Y078521D01*
X093904Y076038D02*
X095010Y076259D01*
X097285Y074718D02*
X097477Y073753D01*
X098801Y077001D02*
X099802Y077200D01*
X098583Y077742D02*
X099413Y078297D01*
X097984Y075011D02*
X098525Y074200D01*
X094428Y074974D02*
X095282Y075544D01*
X095203Y079124D02*
X095788Y078247D01*
X094378Y078291D02*
X095277Y077690D01*
X095272Y074186D02*
X095819Y075006D01*
X098506Y075533D02*
X099359Y074963D01*
X097976Y078234D02*
X098577Y079134D01*
X093906Y077214D02*
X095012Y076994D01*
X096314Y073762D02*
X096504Y074719D01*
X098798Y076220D02*
X099798Y076021D01*
X097277Y078524D02*
X097476Y079524D01*
X095898Y079020D02*
X096298Y078020D01*
X094495Y075628D02*
X095498Y076020D01*
X098298Y077220D02*
X099299Y077618D01*
X097998Y077720D02*
X098748Y078469D01*
X097998Y075520D02*
X098743Y074765D01*
X095048Y074769D02*
X095798Y075520D01*
X095043Y078465D02*
X095798Y077720D01*
X094491Y077604D02*
X095498Y077220D01*
X095900Y074219D02*
X096298Y075220D01*
X098298Y076020D02*
X099298Y075620D01*
X097498Y078020D02*
X097890Y079023D01*
X094398Y073870D02*
Y074370D01*
X094798D01*
X097476Y075231D02*
X097875Y074211D01*
X028578Y085073D02*
X028978Y084054D01*
X025500Y084213D02*
X025900D01*
X025500Y083713D02*
Y084213D01*
X028600Y087863D02*
X028993Y088865D01*
X029400Y085863D02*
X030400Y085463D01*
X027003Y084062D02*
X027400Y085063D01*
X025594Y087446D02*
X026600Y087063D01*
X026145Y088307D02*
X026900Y087563D01*
X026151Y084612D02*
X026900Y085363D01*
X029100D02*
X029845Y084607D01*
X029100Y087563D02*
X029851Y088312D01*
X029400Y087063D02*
X030401Y087460D01*
X025597Y085470D02*
X026600Y085863D01*
X027000Y088863D02*
X027400Y087863D01*
X028380Y088367D02*
X028579Y089367D01*
X029900Y086063D02*
X030900Y085864D01*
X027416Y083604D02*
X027606Y084561D01*
X025008Y087056D02*
X026115Y086836D01*
X029079Y088077D02*
X029679Y088976D01*
X029609Y085375D02*
X030462Y084805D01*
X026374Y084029D02*
X026922Y084848D01*
X025480Y088133D02*
X026380Y087532D01*
X026305Y088966D02*
X026891Y088090D01*
X025531Y084816D02*
X026384Y085387D01*
X029086Y084853D02*
X029628Y084043D01*
X029685Y087585D02*
X030515Y088140D01*
X029904Y086844D02*
X030904Y087043D01*
X028387Y084560D02*
X028579Y083595D01*
X025006Y085881D02*
X026112Y086101D01*
X027405Y089364D02*
X027604Y088363D01*
X024500Y086463D02*
Y087713D01*
X034343Y086463D02*
Y087713D01*
X037248Y089364D02*
X037446Y088363D01*
X034848Y085881D02*
X035955Y086101D01*
X038229Y084560D02*
X038421Y083595D01*
X039746Y086844D02*
X040746Y087043D01*
X039528Y087585D02*
X040358Y088140D01*
X038928Y084853D02*
X039470Y084043D01*
X035373Y084816D02*
X036227Y085387D01*
X036148Y088966D02*
X036733Y088090D01*
X035323Y088133D02*
X036222Y087532D01*
X036217Y084029D02*
X036764Y084848D01*
X039451Y085375D02*
X040304Y084805D01*
X038921Y088077D02*
X039522Y088976D01*
X034851Y087056D02*
X035957Y086836D01*
X037259Y083604D02*
X037449Y084561D01*
X039743Y086063D02*
X040743Y085864D01*
X038222Y088367D02*
X038421Y089367D01*
X036843Y088863D02*
X037243Y087863D01*
X035440Y085470D02*
X036443Y085863D01*
X039243Y087063D02*
X040243Y087460D01*
X038943Y087563D02*
X039693Y088312D01*
X038943Y085363D02*
X039688Y084607D01*
X035993Y084612D02*
X036743Y085363D01*
X035988Y088307D02*
X036743Y087563D01*
X035436Y087446D02*
X036443Y087063D01*
X036845Y084062D02*
X037243Y085063D01*
X039243Y085863D02*
X040243Y085463D01*
X038443Y087863D02*
X038835Y088865D01*
X035343Y083713D02*
Y084213D01*
X035743D01*
X038421Y085073D02*
X038820Y084054D01*
X048263Y085073D02*
X048663Y084054D01*
X045185Y084213D02*
X045585D01*
X045185Y083713D02*
Y084213D01*
X048285Y087863D02*
X048678Y088865D01*
X049085Y085863D02*
X050085Y085463D01*
X046688Y084062D02*
X047085Y085063D01*
X045279Y087446D02*
X046285Y087063D01*
X045830Y088307D02*
X046585Y087563D01*
X045836Y084612D02*
X046585Y085363D01*
X048785D02*
X049530Y084607D01*
X048785Y087563D02*
X049536Y088312D01*
X049085Y087063D02*
X050086Y087460D01*
X045282Y085470D02*
X046285Y085863D01*
X046685Y088863D02*
X047085Y087863D01*
X048065Y088367D02*
X048264Y089367D01*
X049585Y086063D02*
X050585Y085864D01*
X047101Y083604D02*
X047291Y084561D01*
X044693Y087056D02*
X045800Y086836D01*
X048764Y088077D02*
X049365Y088976D01*
X049294Y085375D02*
X050147Y084805D01*
X046059Y084029D02*
X046607Y084848D01*
X045165Y088133D02*
X046065Y087532D01*
X045990Y088966D02*
X046576Y088090D01*
X045216Y084816D02*
X046069Y085387D01*
X048771Y084853D02*
X049313Y084043D01*
X049370Y087585D02*
X050200Y088140D01*
X049589Y086844D02*
X050589Y087043D01*
X048072Y084560D02*
X048264Y083595D01*
X044691Y085881D02*
X045797Y086101D01*
X047090Y089364D02*
X047289Y088363D01*
X044185Y086463D02*
Y087713D01*
X054028Y086463D02*
Y087713D01*
X056933Y089364D02*
X057132Y088363D01*
X054534Y085881D02*
X055640Y086101D01*
X057915Y084560D02*
X058106Y083595D01*
X059431Y086844D02*
X060432Y087043D01*
X059213Y087585D02*
X060043Y088140D01*
X058614Y084853D02*
X059155Y084043D01*
X055058Y084816D02*
X055912Y085387D01*
X055833Y088966D02*
X056418Y088090D01*
X055008Y088133D02*
X055907Y087532D01*
X055902Y084029D02*
X056449Y084848D01*
X059136Y085375D02*
X059989Y084805D01*
X058606Y088077D02*
X059207Y088976D01*
X054536Y087056D02*
X055642Y086836D01*
X056944Y083604D02*
X057134Y084561D01*
X059428Y086063D02*
X060428Y085864D01*
X057907Y088367D02*
X058106Y089367D01*
X056528Y088863D02*
X056928Y087863D01*
X055125Y085470D02*
X056128Y085863D01*
X058928Y087063D02*
X059929Y087460D01*
X058628Y087563D02*
X059378Y088312D01*
X058628Y085363D02*
X059373Y084607D01*
X055678Y084612D02*
X056428Y085363D01*
X055673Y088307D02*
X056428Y087563D01*
X055121Y087446D02*
X056128Y087063D01*
X056530Y084062D02*
X056928Y085063D01*
X058928Y085863D02*
X059928Y085463D01*
X058128Y087863D02*
X058520Y088865D01*
X055028Y083713D02*
Y084213D01*
X055428D01*
X058106Y085073D02*
X058505Y084054D01*
X067948Y085073D02*
X068348Y084054D01*
X064870Y084213D02*
X065270D01*
X064870Y083713D02*
Y084213D01*
X067970Y087863D02*
X068363Y088865D01*
X068770Y085863D02*
X069770Y085463D01*
X066373Y084062D02*
X066770Y085063D01*
X064964Y087446D02*
X065970Y087063D01*
X065515Y088307D02*
X066270Y087563D01*
X065521Y084612D02*
X066270Y085363D01*
X068470D02*
X069215Y084607D01*
X068470Y087563D02*
X069221Y088312D01*
X068770Y087063D02*
X069771Y087460D01*
X064967Y085470D02*
X065970Y085863D01*
X066370Y088863D02*
X066770Y087863D01*
X067750Y088367D02*
X067949Y089367D01*
X069270Y086063D02*
X070270Y085864D01*
X066786Y083604D02*
X066977Y084561D01*
X064378Y087056D02*
X065485Y086836D01*
X068449Y088077D02*
X069050Y088976D01*
X068979Y085375D02*
X069832Y084805D01*
X065744Y084029D02*
X066292Y084848D01*
X064850Y088133D02*
X065750Y087532D01*
X065675Y088966D02*
X066261Y088090D01*
X064901Y084816D02*
X065754Y085387D01*
X068456Y084853D02*
X068998Y084043D01*
X069055Y087585D02*
X069885Y088140D01*
X069274Y086844D02*
X070274Y087043D01*
X067757Y084560D02*
X067949Y083595D01*
X064376Y085881D02*
X065482Y086101D01*
X066775Y089364D02*
X066974Y088363D01*
X063870Y086463D02*
Y087713D01*
X073713Y086463D02*
Y087713D01*
X076618Y089364D02*
X076817Y088363D01*
X074219Y085881D02*
X075325Y086101D01*
X077600Y084560D02*
X077792Y083595D01*
X079116Y086844D02*
X080117Y087043D01*
X078898Y087585D02*
X079728Y088140D01*
X078299Y084853D02*
X078840Y084043D01*
X074743Y084816D02*
X075597Y085387D01*
X075518Y088966D02*
X076103Y088090D01*
X074693Y088133D02*
X075592Y087532D01*
X075587Y084029D02*
X076134Y084848D01*
X078821Y085375D02*
X079674Y084805D01*
X078291Y088077D02*
X078892Y088976D01*
X074221Y087056D02*
X075327Y086836D01*
X076629Y083604D02*
X076819Y084561D01*
X079113Y086063D02*
X080113Y085864D01*
X077592Y088367D02*
X077791Y089367D01*
X076213Y088863D02*
X076613Y087863D01*
X074810Y085470D02*
X075813Y085863D01*
X078613Y087063D02*
X079614Y087460D01*
X078313Y087563D02*
X079063Y088312D01*
X078313Y085363D02*
X079058Y084607D01*
X075363Y084612D02*
X076113Y085363D01*
X075358Y088307D02*
X076113Y087563D01*
X074806Y087446D02*
X075813Y087063D01*
X076215Y084062D02*
X076613Y085063D01*
X078613Y085863D02*
X079613Y085463D01*
X077813Y087863D02*
X078205Y088865D01*
X074713Y083713D02*
Y084213D01*
X075113D01*
X077791Y085073D02*
X078190Y084054D01*
X087634Y085073D02*
X088033Y084054D01*
X084555Y084213D02*
X084955D01*
X084555Y083713D02*
Y084213D01*
X087655Y087863D02*
X088048Y088865D01*
X088455Y085863D02*
X089455Y085463D01*
X086058Y084062D02*
X086455Y085063D01*
X084649Y087446D02*
X085655Y087063D01*
X085200Y088307D02*
X085955Y087563D01*
X085206Y084612D02*
X085955Y085363D01*
X088155D02*
X088900Y084607D01*
X088155Y087563D02*
X088906Y088312D01*
X088455Y087063D02*
X089456Y087460D01*
X084652Y085470D02*
X085655Y085863D01*
X086055Y088863D02*
X086455Y087863D01*
X087435Y088367D02*
X087634Y089367D01*
X088955Y086063D02*
X089955Y085864D01*
X086471Y083604D02*
X086662Y084561D01*
X084063Y087056D02*
X085170Y086836D01*
X088134Y088077D02*
X088735Y088976D01*
X088664Y085375D02*
X089517Y084805D01*
X085429Y084029D02*
X085977Y084848D01*
X084535Y088133D02*
X085435Y087532D01*
X085360Y088966D02*
X085946Y088090D01*
X084586Y084816D02*
X085439Y085387D01*
X088141Y084853D02*
X088683Y084043D01*
X088740Y087585D02*
X089570Y088140D01*
X088959Y086844D02*
X089959Y087043D01*
X087442Y084560D02*
X087634Y083595D01*
X084061Y085881D02*
X085167Y086101D01*
X086460Y089364D02*
X086659Y088363D01*
X083555Y086463D02*
Y087713D01*
X093398Y086463D02*
Y087713D01*
X096303Y089364D02*
X096502Y088363D01*
X093904Y085881D02*
X095010Y086101D01*
X097285Y084560D02*
X097477Y083595D01*
X098801Y086844D02*
X099802Y087043D01*
X098583Y087585D02*
X099413Y088140D01*
X097984Y084853D02*
X098525Y084043D01*
X094428Y084816D02*
X095282Y085387D01*
X095203Y088966D02*
X095788Y088090D01*
X094378Y088133D02*
X095277Y087532D01*
X095272Y084029D02*
X095819Y084848D01*
X098506Y085375D02*
X099359Y084805D01*
X097976Y088077D02*
X098577Y088976D01*
X093906Y087056D02*
X095012Y086836D01*
X096314Y083604D02*
X096504Y084561D01*
X098798Y086063D02*
X099798Y085864D01*
X097277Y088367D02*
X097476Y089367D01*
X095898Y088863D02*
X096298Y087863D01*
X094495Y085470D02*
X095498Y085863D01*
X098298Y087063D02*
X099299Y087460D01*
X097998Y087563D02*
X098748Y088312D01*
X097998Y085363D02*
X098743Y084607D01*
X095048Y084612D02*
X095798Y085363D01*
X095043Y088307D02*
X095798Y087563D01*
X094491Y087446D02*
X095498Y087063D01*
X095900Y084062D02*
X096298Y085063D01*
X098298Y085863D02*
X099298Y085463D01*
X097498Y087863D02*
X097890Y088865D01*
X094398Y083713D02*
Y084213D01*
X094798D01*
X097476Y085073D02*
X097875Y084054D01*
X028578Y094916D02*
X028978Y093896D01*
X025500Y094055D02*
X025900D01*
X025500Y093555D02*
Y094055D01*
X028600Y097705D02*
X028993Y098708D01*
X029400Y095705D02*
X030400Y095305D01*
X027003Y093904D02*
X027400Y094905D01*
X025594Y097289D02*
X026600Y096905D01*
X026145Y098150D02*
X026900Y097405D01*
X026151Y094454D02*
X026900Y095205D01*
X029100D02*
X029845Y094450D01*
X029100Y097405D02*
X029851Y098154D01*
X029400Y096905D02*
X030401Y097303D01*
X025597Y095313D02*
X026600Y095705D01*
X027000Y098705D02*
X027400Y097705D01*
X028380Y098209D02*
X028579Y099209D01*
X029900Y095905D02*
X030900Y095706D01*
X027416Y093447D02*
X027606Y094404D01*
X025008Y096899D02*
X026115Y096679D01*
X029079Y097920D02*
X029679Y098819D01*
X029609Y095218D02*
X030462Y094648D01*
X026374Y093871D02*
X026922Y094691D01*
X025480Y097976D02*
X026380Y097375D01*
X026305Y098809D02*
X026891Y097932D01*
X025531Y094659D02*
X026384Y095229D01*
X029086Y094696D02*
X029628Y093885D01*
X029685Y097428D02*
X030515Y097982D01*
X029904Y096686D02*
X030904Y096885D01*
X028387Y094403D02*
X028579Y093438D01*
X025006Y095724D02*
X026112Y095944D01*
X027405Y099206D02*
X027604Y098206D01*
X024500Y096305D02*
Y097555D01*
X034343Y096305D02*
Y097555D01*
X037248Y099206D02*
X037446Y098206D01*
X034848Y095724D02*
X035955Y095944D01*
X038229Y094403D02*
X038421Y093438D01*
X039746Y096686D02*
X040746Y096885D01*
X039528Y097428D02*
X040358Y097982D01*
X038928Y094696D02*
X039470Y093885D01*
X035373Y094659D02*
X036227Y095229D01*
X036148Y098809D02*
X036733Y097932D01*
X035323Y097976D02*
X036222Y097375D01*
X036217Y093871D02*
X036764Y094691D01*
X039451Y095218D02*
X040304Y094648D01*
X038921Y097920D02*
X039522Y098819D01*
X034851Y096899D02*
X035957Y096679D01*
X037259Y093447D02*
X037449Y094404D01*
X039743Y095905D02*
X040743Y095706D01*
X038222Y098209D02*
X038421Y099209D01*
X036843Y098705D02*
X037243Y097705D01*
X035440Y095313D02*
X036443Y095705D01*
X039243Y096905D02*
X040243Y097303D01*
X038943Y097405D02*
X039693Y098154D01*
X038943Y095205D02*
X039688Y094450D01*
X035993Y094454D02*
X036743Y095205D01*
X035988Y098150D02*
X036743Y097405D01*
X035436Y097289D02*
X036443Y096905D01*
X036845Y093904D02*
X037243Y094905D01*
X039243Y095705D02*
X040243Y095305D01*
X038443Y097705D02*
X038835Y098708D01*
X035343Y093555D02*
Y094055D01*
X035743D01*
X038421Y094916D02*
X038820Y093896D01*
X048263Y094916D02*
X048663Y093896D01*
X045185Y094055D02*
X045585D01*
X045185Y093555D02*
Y094055D01*
X048285Y097705D02*
X048678Y098708D01*
X049085Y095705D02*
X050085Y095305D01*
X046688Y093904D02*
X047085Y094905D01*
X045279Y097289D02*
X046285Y096905D01*
X045830Y098150D02*
X046585Y097405D01*
X045836Y094454D02*
X046585Y095205D01*
X048785D02*
X049530Y094450D01*
X048785Y097405D02*
X049536Y098154D01*
X049085Y096905D02*
X050086Y097303D01*
X045282Y095313D02*
X046285Y095705D01*
X046685Y098705D02*
X047085Y097705D01*
X048065Y098209D02*
X048264Y099209D01*
X049585Y095905D02*
X050585Y095706D01*
X047101Y093447D02*
X047291Y094404D01*
X044693Y096899D02*
X045800Y096679D01*
X048764Y097920D02*
X049365Y098819D01*
X049294Y095218D02*
X050147Y094648D01*
X046059Y093871D02*
X046607Y094691D01*
X045165Y097976D02*
X046065Y097375D01*
X045990Y098809D02*
X046576Y097932D01*
X045216Y094659D02*
X046069Y095229D01*
X048771Y094696D02*
X049313Y093885D01*
X049370Y097428D02*
X050200Y097982D01*
X049589Y096686D02*
X050589Y096885D01*
X048072Y094403D02*
X048264Y093438D01*
X044691Y095724D02*
X045797Y095944D01*
X047090Y099206D02*
X047289Y098206D01*
X044185Y096305D02*
Y097555D01*
X054028Y096305D02*
Y097555D01*
X056933Y099206D02*
X057132Y098206D01*
X054534Y095724D02*
X055640Y095944D01*
X057915Y094403D02*
X058106Y093438D01*
X059431Y096686D02*
X060432Y096885D01*
X059213Y097428D02*
X060043Y097982D01*
X058614Y094696D02*
X059155Y093885D01*
X055058Y094659D02*
X055912Y095229D01*
X055833Y098809D02*
X056418Y097932D01*
X055008Y097976D02*
X055907Y097375D01*
X055902Y093871D02*
X056449Y094691D01*
X059136Y095218D02*
X059989Y094648D01*
X058606Y097920D02*
X059207Y098819D01*
X054536Y096899D02*
X055642Y096679D01*
X056944Y093447D02*
X057134Y094404D01*
X059428Y095905D02*
X060428Y095706D01*
X057907Y098209D02*
X058106Y099209D01*
X056528Y098705D02*
X056928Y097705D01*
X055125Y095313D02*
X056128Y095705D01*
X058928Y096905D02*
X059929Y097303D01*
X058628Y097405D02*
X059378Y098154D01*
X058628Y095205D02*
X059373Y094450D01*
X055678Y094454D02*
X056428Y095205D01*
X055673Y098150D02*
X056428Y097405D01*
X055121Y097289D02*
X056128Y096905D01*
X056530Y093904D02*
X056928Y094905D01*
X058928Y095705D02*
X059928Y095305D01*
X058128Y097705D02*
X058520Y098708D01*
X055028Y093555D02*
Y094055D01*
X055428D01*
X058106Y094916D02*
X058505Y093896D01*
X067948Y094916D02*
X068348Y093896D01*
X064870Y094055D02*
X065270D01*
X064870Y093555D02*
Y094055D01*
X067970Y097705D02*
X068363Y098708D01*
X068770Y095705D02*
X069770Y095305D01*
X066373Y093904D02*
X066770Y094905D01*
X064964Y097289D02*
X065970Y096905D01*
X065515Y098150D02*
X066270Y097405D01*
X065521Y094454D02*
X066270Y095205D01*
X068470D02*
X069215Y094450D01*
X068470Y097405D02*
X069221Y098154D01*
X068770Y096905D02*
X069771Y097303D01*
X064967Y095313D02*
X065970Y095705D01*
X066370Y098705D02*
X066770Y097705D01*
X067750Y098209D02*
X067949Y099209D01*
X069270Y095905D02*
X070270Y095706D01*
X066786Y093447D02*
X066977Y094404D01*
X064378Y096899D02*
X065485Y096679D01*
X068449Y097920D02*
X069050Y098819D01*
X068979Y095218D02*
X069832Y094648D01*
X065744Y093871D02*
X066292Y094691D01*
X064850Y097976D02*
X065750Y097375D01*
X065675Y098809D02*
X066261Y097932D01*
X064901Y094659D02*
X065754Y095229D01*
X068456Y094696D02*
X068998Y093885D01*
X069055Y097428D02*
X069885Y097982D01*
X069274Y096686D02*
X070274Y096885D01*
X067757Y094403D02*
X067949Y093438D01*
X064376Y095724D02*
X065482Y095944D01*
X066775Y099206D02*
X066974Y098206D01*
X063870Y096305D02*
Y097555D01*
X073713Y096305D02*
Y097555D01*
X076618Y099206D02*
X076817Y098206D01*
X074219Y095724D02*
X075325Y095944D01*
X077600Y094403D02*
X077792Y093438D01*
X079116Y096686D02*
X080117Y096885D01*
X078898Y097428D02*
X079728Y097982D01*
X078299Y094696D02*
X078840Y093885D01*
X074743Y094659D02*
X075597Y095229D01*
X075518Y098809D02*
X076103Y097932D01*
X074693Y097976D02*
X075592Y097375D01*
X075587Y093871D02*
X076134Y094691D01*
X078821Y095218D02*
X079674Y094648D01*
X078291Y097920D02*
X078892Y098819D01*
X074221Y096899D02*
X075327Y096679D01*
X076629Y093447D02*
X076819Y094404D01*
X079113Y095905D02*
X080113Y095706D01*
X077592Y098209D02*
X077791Y099209D01*
X076213Y098705D02*
X076613Y097705D01*
X074810Y095313D02*
X075813Y095705D01*
X078613Y096905D02*
X079614Y097303D01*
X078313Y097405D02*
X079063Y098154D01*
X078313Y095205D02*
X079058Y094450D01*
X075363Y094454D02*
X076113Y095205D01*
X075358Y098150D02*
X076113Y097405D01*
X074806Y097289D02*
X075813Y096905D01*
X076215Y093904D02*
X076613Y094905D01*
X078613Y095705D02*
X079613Y095305D01*
X077813Y097705D02*
X078205Y098708D01*
X074713Y093555D02*
Y094055D01*
X075113D01*
X077791Y094916D02*
X078190Y093896D01*
X087634Y094916D02*
X088033Y093896D01*
X084555Y094055D02*
X084955D01*
X084555Y093555D02*
Y094055D01*
X087655Y097705D02*
X088048Y098708D01*
X088455Y095705D02*
X089455Y095305D01*
X086058Y093904D02*
X086455Y094905D01*
X084649Y097289D02*
X085655Y096905D01*
X085200Y098150D02*
X085955Y097405D01*
X085206Y094454D02*
X085955Y095205D01*
X088155D02*
X088900Y094450D01*
X088155Y097405D02*
X088906Y098154D01*
X088455Y096905D02*
X089456Y097303D01*
X084652Y095313D02*
X085655Y095705D01*
X086055Y098705D02*
X086455Y097705D01*
X087435Y098209D02*
X087634Y099209D01*
X088955Y095905D02*
X089955Y095706D01*
X086471Y093447D02*
X086662Y094404D01*
X084063Y096899D02*
X085170Y096679D01*
X088134Y097920D02*
X088735Y098819D01*
X088664Y095218D02*
X089517Y094648D01*
X085429Y093871D02*
X085977Y094691D01*
X084535Y097976D02*
X085435Y097375D01*
X085360Y098809D02*
X085946Y097932D01*
X084586Y094659D02*
X085439Y095229D01*
X088141Y094696D02*
X088683Y093885D01*
X088740Y097428D02*
X089570Y097982D01*
X088959Y096686D02*
X089959Y096885D01*
X087442Y094403D02*
X087634Y093438D01*
X084061Y095724D02*
X085167Y095944D01*
X086460Y099206D02*
X086659Y098206D01*
X083555Y096305D02*
Y097555D01*
X093398Y096305D02*
Y097555D01*
X096303Y099206D02*
X096502Y098206D01*
X093904Y095724D02*
X095010Y095944D01*
X097285Y094403D02*
X097477Y093438D01*
X098801Y096686D02*
X099802Y096885D01*
X098583Y097428D02*
X099413Y097982D01*
X097984Y094696D02*
X098525Y093885D01*
X094428Y094659D02*
X095282Y095229D01*
X095203Y098809D02*
X095788Y097932D01*
X094378Y097976D02*
X095277Y097375D01*
X095272Y093871D02*
X095819Y094691D01*
X098506Y095218D02*
X099359Y094648D01*
X097976Y097920D02*
X098577Y098819D01*
X093906Y096899D02*
X095012Y096679D01*
X096314Y093447D02*
X096504Y094404D01*
X098798Y095905D02*
X099798Y095706D01*
X097277Y098209D02*
X097476Y099209D01*
X095898Y098705D02*
X096298Y097705D01*
X094495Y095313D02*
X095498Y095705D01*
X098298Y096905D02*
X099299Y097303D01*
X097998Y097405D02*
X098748Y098154D01*
X097998Y095205D02*
X098743Y094450D01*
X095048Y094454D02*
X095798Y095205D01*
X095043Y098150D02*
X095798Y097405D01*
X094491Y097289D02*
X095498Y096905D01*
X095900Y093904D02*
X096298Y094905D01*
X098298Y095705D02*
X099298Y095305D01*
X097498Y097705D02*
X097890Y098708D01*
X094398Y093555D02*
Y094055D01*
X094798D01*
X097476Y094916D02*
X097875Y093896D01*
X028578Y104758D02*
X028978Y103739D01*
X025500Y103898D02*
X025900D01*
X025500Y103398D02*
Y103898D01*
X028600Y107548D02*
X028993Y108551D01*
X029400Y105548D02*
X030400Y105148D01*
X027003Y103747D02*
X027400Y104748D01*
X025594Y107131D02*
X026600Y106748D01*
X026145Y107992D02*
X026900Y107248D01*
X026151Y104297D02*
X026900Y105048D01*
X029100D02*
X029845Y104292D01*
X029100Y107248D02*
X029851Y107997D01*
X029400Y106748D02*
X030401Y107145D01*
X025597Y105155D02*
X026600Y105548D01*
X027000Y108548D02*
X027400Y107548D01*
X028380Y108052D02*
X028579Y109052D01*
X029900Y105748D02*
X030900Y105549D01*
X027416Y103289D02*
X027606Y104246D01*
X025008Y106741D02*
X026115Y106521D01*
X029079Y107762D02*
X029679Y108661D01*
X029609Y105060D02*
X030462Y104490D01*
X026374Y103714D02*
X026922Y104533D01*
X025480Y107818D02*
X026380Y107217D01*
X026305Y108651D02*
X026891Y107775D01*
X025531Y104501D02*
X026384Y105072D01*
X029086Y104538D02*
X029628Y103728D01*
X029685Y107270D02*
X030515Y107825D01*
X029904Y106529D02*
X030904Y106728D01*
X028387Y104245D02*
X028579Y103280D01*
X025006Y105566D02*
X026112Y105786D01*
X027405Y109049D02*
X027604Y108048D01*
X024500Y106148D02*
Y107398D01*
X034343Y106148D02*
Y107398D01*
X037248Y109049D02*
X037446Y108048D01*
X034848Y105566D02*
X035955Y105786D01*
X038229Y104245D02*
X038421Y103280D01*
X039746Y106529D02*
X040746Y106728D01*
X039528Y107270D02*
X040358Y107825D01*
X038928Y104538D02*
X039470Y103728D01*
X035373Y104501D02*
X036227Y105072D01*
X036148Y108651D02*
X036733Y107775D01*
X035323Y107818D02*
X036222Y107217D01*
X036217Y103714D02*
X036764Y104533D01*
X039451Y105060D02*
X040304Y104490D01*
X038921Y107762D02*
X039522Y108661D01*
X034851Y106741D02*
X035957Y106521D01*
X037259Y103289D02*
X037449Y104246D01*
X039743Y105748D02*
X040743Y105549D01*
X038222Y108052D02*
X038421Y109052D01*
X036843Y108548D02*
X037243Y107548D01*
X035440Y105155D02*
X036443Y105548D01*
X039243Y106748D02*
X040243Y107145D01*
X038943Y107248D02*
X039693Y107997D01*
X038943Y105048D02*
X039688Y104292D01*
X035993Y104297D02*
X036743Y105048D01*
X035988Y107992D02*
X036743Y107248D01*
X035436Y107131D02*
X036443Y106748D01*
X036845Y103747D02*
X037243Y104748D01*
X039243Y105548D02*
X040243Y105148D01*
X038443Y107548D02*
X038835Y108551D01*
X035343Y103398D02*
Y103898D01*
X035743D01*
X038421Y104758D02*
X038820Y103739D01*
X048263Y104758D02*
X048663Y103739D01*
X045185Y103898D02*
X045585D01*
X045185Y103398D02*
Y103898D01*
X048285Y107548D02*
X048678Y108551D01*
X049085Y105548D02*
X050085Y105148D01*
X046688Y103747D02*
X047085Y104748D01*
X045279Y107131D02*
X046285Y106748D01*
X045830Y107992D02*
X046585Y107248D01*
X045836Y104297D02*
X046585Y105048D01*
X048785D02*
X049530Y104292D01*
X048785Y107248D02*
X049536Y107997D01*
X049085Y106748D02*
X050086Y107145D01*
X045282Y105155D02*
X046285Y105548D01*
X046685Y108548D02*
X047085Y107548D01*
X048065Y108052D02*
X048264Y109052D01*
X049585Y105748D02*
X050585Y105549D01*
X047101Y103289D02*
X047291Y104246D01*
X044693Y106741D02*
X045800Y106521D01*
X048764Y107762D02*
X049365Y108661D01*
X049294Y105060D02*
X050147Y104490D01*
X046059Y103714D02*
X046607Y104533D01*
X045165Y107818D02*
X046065Y107217D01*
X045990Y108651D02*
X046576Y107775D01*
X045216Y104501D02*
X046069Y105072D01*
X048771Y104538D02*
X049313Y103728D01*
X049370Y107270D02*
X050200Y107825D01*
X049589Y106529D02*
X050589Y106728D01*
X048072Y104245D02*
X048264Y103280D01*
X044691Y105566D02*
X045797Y105786D01*
X047090Y109049D02*
X047289Y108048D01*
X044185Y106148D02*
Y107398D01*
X054028Y106148D02*
Y107398D01*
X056933Y109049D02*
X057132Y108048D01*
X054534Y105566D02*
X055640Y105786D01*
X057915Y104245D02*
X058106Y103280D01*
X059431Y106529D02*
X060432Y106728D01*
X059213Y107270D02*
X060043Y107825D01*
X058614Y104538D02*
X059155Y103728D01*
X055058Y104501D02*
X055912Y105072D01*
X055833Y108651D02*
X056418Y107775D01*
X055008Y107818D02*
X055907Y107217D01*
X055902Y103714D02*
X056449Y104533D01*
X059136Y105060D02*
X059989Y104490D01*
X058606Y107762D02*
X059207Y108661D01*
X054536Y106741D02*
X055642Y106521D01*
X056944Y103289D02*
X057134Y104246D01*
X059428Y105748D02*
X060428Y105549D01*
X057907Y108052D02*
X058106Y109052D01*
X056528Y108548D02*
X056928Y107548D01*
X055125Y105155D02*
X056128Y105548D01*
X058928Y106748D02*
X059929Y107145D01*
X058628Y107248D02*
X059378Y107997D01*
X058628Y105048D02*
X059373Y104292D01*
X055678Y104297D02*
X056428Y105048D01*
X055673Y107992D02*
X056428Y107248D01*
X055121Y107131D02*
X056128Y106748D01*
X056530Y103747D02*
X056928Y104748D01*
X058928Y105548D02*
X059928Y105148D01*
X058128Y107548D02*
X058520Y108551D01*
X055028Y103398D02*
Y103898D01*
X055428D01*
X058106Y104758D02*
X058505Y103739D01*
X067948Y104758D02*
X068348Y103739D01*
X064870Y103898D02*
X065270D01*
X064870Y103398D02*
Y103898D01*
X067970Y107548D02*
X068363Y108551D01*
X068770Y105548D02*
X069770Y105148D01*
X066373Y103747D02*
X066770Y104748D01*
X064964Y107131D02*
X065970Y106748D01*
X065515Y107992D02*
X066270Y107248D01*
X065521Y104297D02*
X066270Y105048D01*
X068470D02*
X069215Y104292D01*
X068470Y107248D02*
X069221Y107997D01*
X068770Y106748D02*
X069771Y107145D01*
X064967Y105155D02*
X065970Y105548D01*
X066370Y108548D02*
X066770Y107548D01*
X067750Y108052D02*
X067949Y109052D01*
X069270Y105748D02*
X070270Y105549D01*
X066786Y103289D02*
X066977Y104246D01*
X064378Y106741D02*
X065485Y106521D01*
X068449Y107762D02*
X069050Y108661D01*
X068979Y105060D02*
X069832Y104490D01*
X065744Y103714D02*
X066292Y104533D01*
X064850Y107818D02*
X065750Y107217D01*
X065675Y108651D02*
X066261Y107775D01*
X064901Y104501D02*
X065754Y105072D01*
X068456Y104538D02*
X068998Y103728D01*
X069055Y107270D02*
X069885Y107825D01*
X069274Y106529D02*
X070274Y106728D01*
X067757Y104245D02*
X067949Y103280D01*
X064376Y105566D02*
X065482Y105786D01*
X066775Y109049D02*
X066974Y108048D01*
X063870Y106148D02*
Y107398D01*
X073713Y106148D02*
Y107398D01*
X076618Y109049D02*
X076817Y108048D01*
X074219Y105566D02*
X075325Y105786D01*
X077600Y104245D02*
X077792Y103280D01*
X079116Y106529D02*
X080117Y106728D01*
X078898Y107270D02*
X079728Y107825D01*
X078299Y104538D02*
X078840Y103728D01*
X074743Y104501D02*
X075597Y105072D01*
X075518Y108651D02*
X076103Y107775D01*
X074693Y107818D02*
X075592Y107217D01*
X075587Y103714D02*
X076134Y104533D01*
X078821Y105060D02*
X079674Y104490D01*
X078291Y107762D02*
X078892Y108661D01*
X074221Y106741D02*
X075327Y106521D01*
X076629Y103289D02*
X076819Y104246D01*
X079113Y105748D02*
X080113Y105549D01*
X077592Y108052D02*
X077791Y109052D01*
X076213Y108548D02*
X076613Y107548D01*
X074810Y105155D02*
X075813Y105548D01*
X078613Y106748D02*
X079614Y107145D01*
X078313Y107248D02*
X079063Y107997D01*
X078313Y105048D02*
X079058Y104292D01*
X075363Y104297D02*
X076113Y105048D01*
X075358Y107992D02*
X076113Y107248D01*
X074806Y107131D02*
X075813Y106748D01*
X076215Y103747D02*
X076613Y104748D01*
X078613Y105548D02*
X079613Y105148D01*
X077813Y107548D02*
X078205Y108551D01*
X074713Y103398D02*
Y103898D01*
X075113D01*
X077791Y104758D02*
X078190Y103739D01*
X087634Y104758D02*
X088033Y103739D01*
X084555Y103898D02*
X084955D01*
X084555Y103398D02*
Y103898D01*
X087655Y107548D02*
X088048Y108551D01*
X088455Y105548D02*
X089455Y105148D01*
X086058Y103747D02*
X086455Y104748D01*
X084649Y107131D02*
X085655Y106748D01*
X085200Y107992D02*
X085955Y107248D01*
X085206Y104297D02*
X085955Y105048D01*
X088155D02*
X088900Y104292D01*
X088155Y107248D02*
X088906Y107997D01*
X088455Y106748D02*
X089456Y107145D01*
X084652Y105155D02*
X085655Y105548D01*
X086055Y108548D02*
X086455Y107548D01*
X087435Y108052D02*
X087634Y109052D01*
X088955Y105748D02*
X089955Y105549D01*
X086471Y103289D02*
X086662Y104246D01*
X084063Y106741D02*
X085170Y106521D01*
X088134Y107762D02*
X088735Y108661D01*
X088664Y105060D02*
X089517Y104490D01*
X085429Y103714D02*
X085977Y104533D01*
X084535Y107818D02*
X085435Y107217D01*
X085360Y108651D02*
X085946Y107775D01*
X084586Y104501D02*
X085439Y105072D01*
X088141Y104538D02*
X088683Y103728D01*
X088740Y107270D02*
X089570Y107825D01*
X088959Y106529D02*
X089959Y106728D01*
X087442Y104245D02*
X087634Y103280D01*
X084061Y105566D02*
X085167Y105786D01*
X086460Y109049D02*
X086659Y108048D01*
X083555Y106148D02*
Y107398D01*
X093398Y106148D02*
Y107398D01*
X096303Y109049D02*
X096502Y108048D01*
X093904Y105566D02*
X095010Y105786D01*
X097285Y104245D02*
X097477Y103280D01*
X098801Y106529D02*
X099802Y106728D01*
X098583Y107270D02*
X099413Y107825D01*
X097984Y104538D02*
X098525Y103728D01*
X094428Y104501D02*
X095282Y105072D01*
X095203Y108651D02*
X095788Y107775D01*
X094378Y107818D02*
X095277Y107217D01*
X095272Y103714D02*
X095819Y104533D01*
X098506Y105060D02*
X099359Y104490D01*
X097976Y107762D02*
X098577Y108661D01*
X093906Y106741D02*
X095012Y106521D01*
X096314Y103289D02*
X096504Y104246D01*
X098798Y105748D02*
X099798Y105549D01*
X097277Y108052D02*
X097476Y109052D01*
X095898Y108548D02*
X096298Y107548D01*
X094495Y105155D02*
X095498Y105548D01*
X098298Y106748D02*
X099299Y107145D01*
X097998Y107248D02*
X098748Y107997D01*
X097998Y105048D02*
X098743Y104292D01*
X095048Y104297D02*
X095798Y105048D01*
X095043Y107992D02*
X095798Y107248D01*
X094491Y107131D02*
X095498Y106748D01*
X095900Y103747D02*
X096298Y104748D01*
X098298Y105548D02*
X099298Y105148D01*
X097498Y107548D02*
X097890Y108551D01*
X094398Y103398D02*
Y103898D01*
X094798D01*
X097476Y104758D02*
X097875Y103739D01*
X028000Y103548D02*
Y104648D01*
X037843Y103548D02*
Y104648D01*
X024500Y106148D02*
X024950D01*
X026500D01*
X029500D02*
X030600D01*
X047685Y103548D02*
Y104648D01*
X057528Y103548D02*
Y104648D01*
X039343Y106148D02*
X040443D01*
X054028D02*
X054478D01*
X056028D01*
X034343D02*
X034793D01*
X036343D01*
X028000Y107648D02*
Y108748D01*
X037843Y107648D02*
Y108748D01*
X044185Y106148D02*
X044635D01*
X046185D01*
X049185D02*
X050285D01*
X047685Y107648D02*
Y108748D01*
X057528Y107648D02*
Y108748D01*
X067370Y103548D02*
Y104648D01*
X077213Y103548D02*
Y104648D01*
X063870Y106148D02*
X064320D01*
X065870D01*
X073713D02*
X074163D01*
X075713D01*
X068870D02*
X069970D01*
X087055Y103548D02*
Y104648D01*
X096898Y103548D02*
Y104648D01*
X078713Y106148D02*
X079813D01*
X083555D02*
X084005D01*
X085555D01*
X098398D02*
X099498D01*
X059028D02*
X060128D01*
X067370Y107648D02*
Y108748D01*
X077213Y107648D02*
Y108748D01*
X088555Y106148D02*
X089655D01*
X093398D02*
X093848D01*
X095398D01*
X087055Y107648D02*
Y108748D01*
X096898Y107648D02*
Y108748D01*
X028000Y093705D02*
Y094805D01*
X037843Y093705D02*
Y094805D01*
X024500Y096305D02*
X024950D01*
X026500D01*
X029500D02*
X030600D01*
X047685Y093705D02*
Y094805D01*
X057528Y093705D02*
Y094805D01*
X039343Y096305D02*
X040443D01*
X054028D02*
X054478D01*
X056028D01*
X034343D02*
X034793D01*
X036343D01*
X028000Y097805D02*
Y098905D01*
X037843Y097805D02*
Y098905D01*
X044185Y096305D02*
X044635D01*
X046185D01*
X049185D02*
X050285D01*
X047685Y097805D02*
Y098905D01*
X057528Y097805D02*
Y098905D01*
X067370Y093705D02*
Y094805D01*
X077213Y093705D02*
Y094805D01*
X063870Y096305D02*
X064320D01*
X065870D01*
X073713D02*
X074163D01*
X075713D01*
X068870D02*
X069970D01*
X087055Y093705D02*
Y094805D01*
X096898Y093705D02*
Y094805D01*
X078713Y096305D02*
X079813D01*
X083555D02*
X084005D01*
X085555D01*
X098398D02*
X099498D01*
X059028D02*
X060128D01*
X067370Y097805D02*
Y098905D01*
X077213Y097805D02*
Y098905D01*
X088555Y096305D02*
X089655D01*
X093398D02*
X093848D01*
X095398D01*
X087055Y097805D02*
Y098905D01*
X096898Y097805D02*
Y098905D01*
X028000Y083863D02*
Y084963D01*
X037843Y083863D02*
Y084963D01*
X024500Y086463D02*
X024950D01*
X026500D01*
X029500D02*
X030600D01*
X047685Y083863D02*
Y084963D01*
X057528Y083863D02*
Y084963D01*
X039343Y086463D02*
X040443D01*
X054028D02*
X054478D01*
X056028D01*
X034343D02*
X034793D01*
X036343D01*
X028000Y087963D02*
Y089063D01*
X037843Y087963D02*
Y089063D01*
X044185Y086463D02*
X044635D01*
X046185D01*
X049185D02*
X050285D01*
X047685Y087963D02*
Y089063D01*
X057528Y087963D02*
Y089063D01*
X067370Y083863D02*
Y084963D01*
X077213Y083863D02*
Y084963D01*
X063870Y086463D02*
X064320D01*
X065870D01*
X073713D02*
X074163D01*
X075713D01*
X068870D02*
X069970D01*
X087055Y083863D02*
Y084963D01*
X096898Y083863D02*
Y084963D01*
X078713Y086463D02*
X079813D01*
X083555D02*
X084005D01*
X085555D01*
X098398D02*
X099498D01*
X059028D02*
X060128D01*
X067370Y087963D02*
Y089063D01*
X077213Y087963D02*
Y089063D01*
X088555Y086463D02*
X089655D01*
X093398D02*
X093848D01*
X095398D01*
X087055Y087963D02*
Y089063D01*
X096898Y087963D02*
Y089063D01*
X028000Y074020D02*
Y075120D01*
X037843Y074020D02*
Y075120D01*
X024500Y076620D02*
X024950D01*
X026500D01*
X029500D02*
X030600D01*
X047685Y074020D02*
Y075120D01*
X057528Y074020D02*
Y075120D01*
X039343Y076620D02*
X040443D01*
X054028D02*
X054478D01*
X056028D01*
X034343D02*
X034793D01*
X036343D01*
X028000Y078120D02*
Y079220D01*
X037843Y078120D02*
Y079220D01*
X044185Y076620D02*
X044635D01*
X046185D01*
X049185D02*
X050285D01*
X047685Y078120D02*
Y079220D01*
X057528Y078120D02*
Y079220D01*
X067370Y074020D02*
Y075120D01*
X077213Y074020D02*
Y075120D01*
X063870Y076620D02*
X064320D01*
X065870D01*
X073713D02*
X074163D01*
X075713D01*
X068870D02*
X069970D01*
X087055Y074020D02*
Y075120D01*
X096898Y074020D02*
Y075120D01*
X078713Y076620D02*
X079813D01*
X083555D02*
X084005D01*
X085555D01*
X098398D02*
X099498D01*
X059028D02*
X060128D01*
X067370Y078120D02*
Y079220D01*
X077213Y078120D02*
Y079220D01*
X088555Y076620D02*
X089655D01*
X093398D02*
X093848D01*
X095398D01*
X087055Y078120D02*
Y079220D01*
X096898Y078120D02*
Y079220D01*
X028000Y064178D02*
Y065278D01*
X037843Y064178D02*
Y065278D01*
X024500Y066778D02*
X024950D01*
X026500D01*
X029500D02*
X030600D01*
X047685Y064178D02*
Y065278D01*
X057528Y064178D02*
Y065278D01*
X039343Y066778D02*
X040443D01*
X054028D02*
X054478D01*
X056028D01*
X034343D02*
X034793D01*
X036343D01*
X028000Y068278D02*
Y069378D01*
X037843Y068278D02*
Y069378D01*
X044185Y066778D02*
X044635D01*
X046185D01*
X049185D02*
X050285D01*
X047685Y068278D02*
Y069378D01*
X057528Y068278D02*
Y069378D01*
X067370Y064178D02*
Y065278D01*
X077213Y064178D02*
Y065278D01*
X063870Y066778D02*
X064320D01*
X065870D01*
X073713D02*
X074163D01*
X075713D01*
X068870D02*
X069970D01*
X087055Y064178D02*
Y065278D01*
X096898Y064178D02*
Y065278D01*
X078713Y066778D02*
X079813D01*
X083555D02*
X084005D01*
X085555D01*
X098398D02*
X099498D01*
X059028D02*
X060128D01*
X067370Y068278D02*
Y069378D01*
X077213Y068278D02*
Y069378D01*
X088555Y066778D02*
X089655D01*
X093398D02*
X093848D01*
X095398D01*
X087055Y068278D02*
Y069378D01*
X096898Y068278D02*
Y069378D01*
X028000Y054335D02*
Y055435D01*
X037843Y054335D02*
Y055435D01*
X024500Y056935D02*
X024950D01*
X026500D01*
X034343D02*
X034793D01*
X036343D01*
X029500D02*
X030600D01*
X047685Y054335D02*
Y055435D01*
X057528Y054335D02*
Y055435D01*
X054028Y056935D02*
X054478D01*
X056028D01*
X039343D02*
X040443D01*
X028000Y058435D02*
Y059535D01*
X037843Y058435D02*
Y059535D01*
X044185Y056935D02*
X044635D01*
X046185D01*
X049185D02*
X050285D01*
X047685Y058435D02*
Y059535D01*
X057528Y058435D02*
Y059535D01*
X067370Y054335D02*
Y055435D01*
X077213Y054335D02*
Y055435D01*
X063870Y056935D02*
X064320D01*
X065870D01*
X073713D02*
X074163D01*
X075713D01*
X068870D02*
X069970D01*
X087055Y054335D02*
Y055435D01*
X096898Y054335D02*
Y055435D01*
X078713Y056935D02*
X079813D01*
X083555D02*
X084005D01*
X085555D01*
X098398D02*
X099498D01*
X059028D02*
X060128D01*
X067370Y058435D02*
Y059535D01*
X077213Y058435D02*
Y059535D01*
X088555Y056935D02*
X089655D01*
X093398D02*
X093848D01*
X095398D01*
X087055Y058435D02*
Y059535D01*
X096898Y058435D02*
Y059535D01*
X028000Y044493D02*
Y045593D01*
X037843Y044493D02*
Y045593D01*
X024500Y047093D02*
X024950D01*
X026500D01*
X034343D02*
X034793D01*
X036343D01*
X047685Y044493D02*
Y045593D01*
X057528Y044493D02*
Y045593D01*
X039343Y047093D02*
X040443D01*
X044185D02*
X044635D01*
X046185D01*
X049185D02*
X050285D01*
X029500D02*
X030600D01*
X028000Y048593D02*
Y049693D01*
X037843Y048593D02*
Y049693D01*
X054028Y047093D02*
X054478D01*
X056028D01*
X047685Y048593D02*
Y049693D01*
X057528Y048593D02*
Y049693D01*
X067370Y044493D02*
Y045593D01*
X077213Y044493D02*
Y045593D01*
X063870Y047093D02*
X064320D01*
X065870D01*
X073713D02*
X074163D01*
X075713D01*
X068870D02*
X069970D01*
X087055Y044493D02*
Y045593D01*
X096898Y044493D02*
Y045593D01*
X078713Y047093D02*
X079813D01*
X083555D02*
X084005D01*
X085555D01*
X098398D02*
X099498D01*
X059028D02*
X060128D01*
X067370Y048593D02*
Y049693D01*
X077213Y048593D02*
Y049693D01*
X088555Y047093D02*
X089655D01*
X093398D02*
X093848D01*
X095398D01*
X087055Y048593D02*
Y049693D01*
X096898Y048593D02*
Y049693D01*
X028000Y034650D02*
Y035750D01*
X037843Y034650D02*
Y035750D01*
X024500Y037250D02*
X024950D01*
X026500D01*
X029500D02*
X030600D01*
X047685Y034650D02*
Y035750D01*
X057528Y034650D02*
Y035750D01*
X039343Y037250D02*
X040443D01*
X054028D02*
X054478D01*
X056028D01*
X034343D02*
X034793D01*
X036343D01*
X028000Y038750D02*
Y039850D01*
X037843Y038750D02*
Y039850D01*
X044185Y037250D02*
X044635D01*
X046185D01*
X049185D02*
X050285D01*
X047685Y038750D02*
Y039850D01*
X057528Y038750D02*
Y039850D01*
X067370Y034650D02*
Y035750D01*
X077213Y034650D02*
Y035750D01*
X063870Y037250D02*
X064320D01*
X065870D01*
X073713D02*
X074163D01*
X075713D01*
X068870D02*
X069970D01*
X087055Y034650D02*
Y035750D01*
X096898Y034650D02*
Y035750D01*
X078713Y037250D02*
X079813D01*
X083555D02*
X084005D01*
X085555D01*
X098398D02*
X099498D01*
X059028D02*
X060128D01*
X067370Y038750D02*
Y039850D01*
X077213Y038750D02*
Y039850D01*
X088555Y037250D02*
X089655D01*
X093398D02*
X093848D01*
X095398D01*
X087055Y038750D02*
Y039850D01*
X096898Y038750D02*
Y039850D01*
X103000Y042750D02*
Y112050D01*
X060400Y115450D02*
X101100D01*
X061100Y115150D02*
X100976D01*
X061800Y114850D02*
X100851D01*
X042000Y034300D02*
Y035500D01*
X081400Y034100D02*
Y035500D01*
X091200Y034100D02*
Y035500D01*
X092800Y034200D02*
Y035500D01*
X032100Y033850D02*
Y035500D01*
Y045300D01*
X061700Y035450D02*
Y035500D01*
Y035450D02*
X061710Y035440D01*
X071500Y034100D02*
Y035500D01*
Y036896D01*
X055300Y029300D02*
Y030600D01*
X051796Y035500D02*
Y055200D01*
Y104400D01*
X058300Y029300D02*
Y030600D01*
X059300Y029300D02*
Y030600D01*
X061300Y029300D02*
Y030600D01*
X103500Y043750D02*
Y112200D01*
X103250Y112450D02*
X103500Y112200D01*
X103250Y112450D02*
Y112451D01*
X100851Y114850D02*
X103250Y112451D01*
X100976Y115150D02*
X104000Y112126D01*
Y104300D02*
X104500Y103800D01*
X104000Y104300D02*
Y112126D01*
X101100Y115450D02*
X105000Y111550D01*
Y085100D02*
Y111550D01*
D15*
X101500Y048500D02*
D03*
Y049500D02*
D03*
Y068150D02*
D03*
Y069150D02*
D03*
Y087850D02*
D03*
Y088850D02*
D03*
Y107550D02*
D03*
Y108550D02*
D03*
D16*
X106150Y096500D02*
D03*
Y093500D02*
D03*
X104500Y109550D02*
D03*
X101500D02*
D03*
X104500Y089850D02*
D03*
X101500D02*
D03*
X104500Y070150D02*
D03*
X101500D02*
D03*
X104500Y050500D02*
D03*
X101500D02*
D03*
X097000Y113550D02*
D03*
Y110550D02*
D03*
X087000Y113550D02*
D03*
Y110550D02*
D03*
X077000Y113550D02*
D03*
Y110550D02*
D03*
D17*
X054300Y030600D02*
D03*
X055300D02*
D03*
X056300D02*
D03*
X057300D02*
D03*
X058300D02*
D03*
X059300D02*
D03*
X060300D02*
D03*
X061300D02*
D03*
X101500Y104800D02*
D03*
Y103800D02*
D03*
Y102800D02*
D03*
Y101800D02*
D03*
Y100800D02*
D03*
Y099800D02*
D03*
Y098800D02*
D03*
Y097800D02*
D03*
Y096800D02*
D03*
Y095800D02*
D03*
Y094800D02*
D03*
Y093800D02*
D03*
Y092800D02*
D03*
X104500Y105800D02*
D03*
Y104800D02*
D03*
Y103800D02*
D03*
Y102800D02*
D03*
Y101800D02*
D03*
Y100800D02*
D03*
Y099800D02*
D03*
Y098800D02*
D03*
Y097800D02*
D03*
Y096800D02*
D03*
Y095800D02*
D03*
Y094800D02*
D03*
Y093800D02*
D03*
Y092800D02*
D03*
X101500Y085100D02*
D03*
Y084100D02*
D03*
Y083100D02*
D03*
Y082100D02*
D03*
Y081100D02*
D03*
Y080100D02*
D03*
Y079100D02*
D03*
Y078100D02*
D03*
Y077100D02*
D03*
Y076100D02*
D03*
Y075100D02*
D03*
Y074100D02*
D03*
Y073100D02*
D03*
X104500Y086100D02*
D03*
Y085100D02*
D03*
Y084100D02*
D03*
Y083100D02*
D03*
Y082100D02*
D03*
Y081100D02*
D03*
Y080100D02*
D03*
Y079100D02*
D03*
Y078100D02*
D03*
Y077100D02*
D03*
Y076100D02*
D03*
Y075100D02*
D03*
Y074100D02*
D03*
Y073100D02*
D03*
X101500Y065400D02*
D03*
Y064400D02*
D03*
Y063400D02*
D03*
Y062400D02*
D03*
Y061400D02*
D03*
Y060400D02*
D03*
Y059400D02*
D03*
Y058400D02*
D03*
Y057400D02*
D03*
Y056400D02*
D03*
Y055400D02*
D03*
Y054400D02*
D03*
Y053400D02*
D03*
X104500Y066400D02*
D03*
Y065400D02*
D03*
Y064400D02*
D03*
Y063400D02*
D03*
Y062400D02*
D03*
Y061400D02*
D03*
Y060400D02*
D03*
Y059400D02*
D03*
Y058400D02*
D03*
Y057400D02*
D03*
Y056400D02*
D03*
Y055400D02*
D03*
Y054400D02*
D03*
Y053400D02*
D03*
X101500Y045750D02*
D03*
Y044750D02*
D03*
Y043750D02*
D03*
Y042750D02*
D03*
Y041750D02*
D03*
Y040750D02*
D03*
Y039750D02*
D03*
Y038750D02*
D03*
Y037750D02*
D03*
Y036750D02*
D03*
Y035750D02*
D03*
Y034750D02*
D03*
Y033750D02*
D03*
X104500Y046750D02*
D03*
Y045750D02*
D03*
Y044750D02*
D03*
Y043750D02*
D03*
Y042750D02*
D03*
Y041750D02*
D03*
Y040750D02*
D03*
Y039750D02*
D03*
Y038750D02*
D03*
Y037750D02*
D03*
Y036750D02*
D03*
Y035750D02*
D03*
Y034750D02*
D03*
Y033750D02*
D03*
D18*
X062300Y030600D02*
D03*
D19*
X021500Y068000D02*
D03*
Y069000D02*
D03*
Y070000D02*
D03*
Y071000D02*
D03*
Y072000D02*
D03*
Y073000D02*
D03*
Y074000D02*
D03*
X066000Y113050D02*
D03*
X065000D02*
D03*
X064000D02*
D03*
X063000D02*
D03*
X062000D02*
D03*
X061000D02*
D03*
X060000D02*
D03*
X059000D02*
D03*
X058000D02*
D03*
X067000Y112050D02*
D03*
X066000D02*
D03*
X065000D02*
D03*
X064000D02*
D03*
X063000D02*
D03*
X062000D02*
D03*
X061000D02*
D03*
X060000D02*
D03*
X059000D02*
D03*
X058000D02*
D03*
X060300Y029300D02*
D03*
X059300D02*
D03*
X058300D02*
D03*
X057300D02*
D03*
X056300D02*
D03*
X055300D02*
D03*
X054300D02*
D03*
X061300Y028300D02*
D03*
X060300D02*
D03*
X059300D02*
D03*
X058300D02*
D03*
X057300D02*
D03*
X056300D02*
D03*
X055300D02*
D03*
X054300D02*
D03*
D20*
X021500Y075000D02*
D03*
D21*
X101500Y105800D02*
D03*
Y086100D02*
D03*
Y066400D02*
D03*
Y046750D02*
D03*
D22*
X094500Y113050D02*
D03*
Y112050D02*
D03*
X084500Y113050D02*
D03*
Y112050D02*
D03*
X074500Y113050D02*
D03*
Y112050D02*
D03*
D23*
X094500Y112550D02*
D03*
X084500D02*
D03*
X074500D02*
D03*
D24*
X067000Y113050D02*
D03*
X061300Y029300D02*
D03*
D25*
X025500Y034500D02*
D03*
X035343D02*
D03*
X045185D02*
D03*
X055028D02*
D03*
X064870D02*
D03*
X074713D02*
D03*
X084555D02*
D03*
X094398D02*
D03*
X025500Y044343D02*
D03*
X035343D02*
D03*
X045185D02*
D03*
X055028D02*
D03*
X064870D02*
D03*
X074713D02*
D03*
X084555D02*
D03*
X094398D02*
D03*
X025500Y054185D02*
D03*
X035343D02*
D03*
X045185D02*
D03*
X055028D02*
D03*
X064870D02*
D03*
X074713D02*
D03*
X084555D02*
D03*
X094398D02*
D03*
X025500Y064028D02*
D03*
X035343D02*
D03*
X045185D02*
D03*
X055028D02*
D03*
X064870D02*
D03*
X074713D02*
D03*
X084555D02*
D03*
X094398D02*
D03*
X025500Y073870D02*
D03*
X035343D02*
D03*
X045185D02*
D03*
X055028D02*
D03*
X064870D02*
D03*
X074713D02*
D03*
X084555D02*
D03*
X094398D02*
D03*
X025500Y083713D02*
D03*
X035343D02*
D03*
X045185D02*
D03*
X055028D02*
D03*
X064870D02*
D03*
X074713D02*
D03*
X084555D02*
D03*
X094398D02*
D03*
X025500Y093555D02*
D03*
X035343D02*
D03*
X045185D02*
D03*
X055028D02*
D03*
X064870D02*
D03*
X074713D02*
D03*
X084555D02*
D03*
X094398D02*
D03*
X025500Y103398D02*
D03*
X035343D02*
D03*
X045185D02*
D03*
X055028D02*
D03*
X064870D02*
D03*
X074713D02*
D03*
X084555D02*
D03*
X094398D02*
D03*
X061072Y037000D02*
D03*
X100500Y058850D02*
D03*
Y039200D02*
D03*
Y078550D02*
D03*
Y098250D02*
D03*
X106200Y050500D02*
D03*
Y038750D02*
D03*
X105500Y059400D02*
D03*
X106200Y070150D02*
D03*
Y058400D02*
D03*
Y089850D02*
D03*
Y078100D02*
D03*
Y097800D02*
D03*
Y109550D02*
D03*
X105500Y039750D02*
D03*
Y048500D02*
D03*
Y068140D02*
D03*
Y079100D02*
D03*
Y087850D02*
D03*
Y107550D02*
D03*
Y098800D02*
D03*
X083000Y038000D02*
D03*
Y047843D02*
D03*
Y057685D02*
D03*
Y067528D02*
D03*
Y077370D02*
D03*
Y087213D02*
D03*
Y097055D02*
D03*
Y106898D02*
D03*
X063309Y037500D02*
D03*
Y047343D02*
D03*
Y057185D02*
D03*
Y067028D02*
D03*
Y076870D02*
D03*
Y086713D02*
D03*
Y096555D02*
D03*
Y106398D02*
D03*
X043500Y105398D02*
D03*
Y095555D02*
D03*
Y085713D02*
D03*
Y075870D02*
D03*
Y066028D02*
D03*
Y056185D02*
D03*
Y046343D02*
D03*
Y036500D02*
D03*
X092800Y035500D02*
D03*
Y045300D02*
D03*
Y055200D02*
D03*
Y065000D02*
D03*
Y074900D02*
D03*
Y084700D02*
D03*
Y094600D02*
D03*
Y104400D02*
D03*
X071500Y094600D02*
D03*
Y084700D02*
D03*
Y065000D02*
D03*
Y055200D02*
D03*
Y104400D02*
D03*
Y074900D02*
D03*
Y045300D02*
D03*
Y035500D02*
D03*
X042000D02*
D03*
X051796D02*
D03*
Y055200D02*
D03*
X091200Y035500D02*
D03*
Y104400D02*
D03*
Y094600D02*
D03*
Y084700D02*
D03*
Y074900D02*
D03*
Y065000D02*
D03*
Y055200D02*
D03*
Y045300D02*
D03*
X081400Y035500D02*
D03*
Y104400D02*
D03*
Y094600D02*
D03*
Y084700D02*
D03*
Y074900D02*
D03*
Y065000D02*
D03*
Y055200D02*
D03*
Y045300D02*
D03*
X061700Y035500D02*
D03*
Y104400D02*
D03*
Y094600D02*
D03*
Y084700D02*
D03*
Y074900D02*
D03*
Y065000D02*
D03*
Y055200D02*
D03*
Y045300D02*
D03*
X051800Y104400D02*
D03*
Y094600D02*
D03*
Y084700D02*
D03*
Y074900D02*
D03*
Y065000D02*
D03*
Y045300D02*
D03*
X042000Y104400D02*
D03*
Y094600D02*
D03*
Y084700D02*
D03*
Y074900D02*
D03*
Y065000D02*
D03*
Y055200D02*
D03*
Y045300D02*
D03*
X032100D02*
D03*
Y055200D02*
D03*
Y065000D02*
D03*
Y074900D02*
D03*
Y084700D02*
D03*
Y094600D02*
D03*
Y104400D02*
D03*
Y035500D02*
D03*
X024500Y038500D02*
D03*
X034343D02*
D03*
X044185D02*
D03*
X054028D02*
D03*
X063870D02*
D03*
X073713D02*
D03*
X083555D02*
D03*
X093398D02*
D03*
X024500Y048343D02*
D03*
X034343D02*
D03*
X044185D02*
D03*
X054028D02*
D03*
X063870D02*
D03*
X073713D02*
D03*
X083555D02*
D03*
X093398D02*
D03*
X024500Y058185D02*
D03*
X034343D02*
D03*
X044185D02*
D03*
X054028D02*
D03*
X063870D02*
D03*
X073713D02*
D03*
X083555D02*
D03*
X093398D02*
D03*
X024500Y068028D02*
D03*
X034343D02*
D03*
X044185D02*
D03*
X054028D02*
D03*
X063870D02*
D03*
X073713D02*
D03*
X083555D02*
D03*
X093398D02*
D03*
X024500Y077870D02*
D03*
X034343D02*
D03*
X044185D02*
D03*
X054028D02*
D03*
X063870D02*
D03*
X073713D02*
D03*
X083555D02*
D03*
X093398D02*
D03*
X024500Y087713D02*
D03*
X034343D02*
D03*
X044185D02*
D03*
X054028D02*
D03*
X063870D02*
D03*
X073713D02*
D03*
X083555D02*
D03*
X093398D02*
D03*
X024500Y097555D02*
D03*
X034343D02*
D03*
X044185D02*
D03*
X054028D02*
D03*
X063870D02*
D03*
X073713D02*
D03*
X083555D02*
D03*
X093398D02*
D03*
X024500Y107398D02*
D03*
X034343D02*
D03*
X044185D02*
D03*
X054028D02*
D03*
X063870D02*
D03*
X073713D02*
D03*
X083555D02*
D03*
X093398D02*
D03*
X090600Y105898D02*
D03*
Y103500D02*
D03*
X080757D02*
D03*
Y105898D02*
D03*
X070915Y103500D02*
D03*
Y105898D02*
D03*
X061072Y103500D02*
D03*
Y105898D02*
D03*
X051230Y103500D02*
D03*
Y105898D02*
D03*
X041387Y103500D02*
D03*
Y105898D02*
D03*
X031545Y103500D02*
D03*
Y105898D02*
D03*
Y093658D02*
D03*
Y096055D02*
D03*
X041387Y093658D02*
D03*
Y096055D02*
D03*
X051230Y093658D02*
D03*
Y096055D02*
D03*
X061072Y093658D02*
D03*
Y096055D02*
D03*
X070915Y093658D02*
D03*
Y096055D02*
D03*
X080757Y093658D02*
D03*
Y096055D02*
D03*
X090600Y093658D02*
D03*
Y096055D02*
D03*
Y083815D02*
D03*
Y086213D02*
D03*
X080757Y083815D02*
D03*
Y086213D02*
D03*
X070915Y083815D02*
D03*
Y086213D02*
D03*
X061072Y083815D02*
D03*
Y086213D02*
D03*
X051230Y083815D02*
D03*
Y086213D02*
D03*
X041387Y083815D02*
D03*
Y086213D02*
D03*
X031545Y083815D02*
D03*
Y086213D02*
D03*
Y073972D02*
D03*
Y076370D02*
D03*
X041387Y073972D02*
D03*
Y076370D02*
D03*
X051230Y073972D02*
D03*
Y076370D02*
D03*
X061072Y073972D02*
D03*
Y076370D02*
D03*
X070915Y073972D02*
D03*
Y076370D02*
D03*
X080757Y073972D02*
D03*
Y076370D02*
D03*
X090600Y073972D02*
D03*
Y076370D02*
D03*
Y064130D02*
D03*
Y066528D02*
D03*
X080757Y064130D02*
D03*
Y066528D02*
D03*
X070915Y064130D02*
D03*
Y066528D02*
D03*
X061072Y064130D02*
D03*
Y066528D02*
D03*
X051230Y064130D02*
D03*
Y066528D02*
D03*
X041387Y064130D02*
D03*
Y066528D02*
D03*
X031545Y064130D02*
D03*
Y066528D02*
D03*
Y054287D02*
D03*
Y056685D02*
D03*
X041387Y054287D02*
D03*
Y056685D02*
D03*
X051230Y054287D02*
D03*
Y056685D02*
D03*
X061072Y054287D02*
D03*
Y056685D02*
D03*
X070915Y054287D02*
D03*
Y056685D02*
D03*
X080757Y054287D02*
D03*
Y056685D02*
D03*
X090600Y054287D02*
D03*
Y056685D02*
D03*
Y044445D02*
D03*
Y046843D02*
D03*
X080757Y044445D02*
D03*
Y046843D02*
D03*
X070915Y044445D02*
D03*
Y046843D02*
D03*
X061072D02*
D03*
Y044445D02*
D03*
X051230Y046843D02*
D03*
Y044445D02*
D03*
X041387Y046843D02*
D03*
Y044445D02*
D03*
X031545Y046843D02*
D03*
Y044445D02*
D03*
Y037000D02*
D03*
Y034602D02*
D03*
X041387Y037000D02*
D03*
Y034602D02*
D03*
X051230D02*
D03*
X061072D02*
D03*
X070915Y037000D02*
D03*
Y034602D02*
D03*
X080757Y037000D02*
D03*
Y034602D02*
D03*
X090600Y037000D02*
D03*
Y034602D02*
D03*
X051230Y037000D02*
D03*
D26*
X028000Y036500D02*
D03*
Y037500D02*
D03*
Y038000D02*
D03*
X037843D02*
D03*
Y037500D02*
D03*
Y036500D02*
D03*
X047685D02*
D03*
Y037500D02*
D03*
Y038000D02*
D03*
X057528D02*
D03*
Y037500D02*
D03*
Y036500D02*
D03*
X067370D02*
D03*
Y037500D02*
D03*
Y038000D02*
D03*
X077213D02*
D03*
Y037500D02*
D03*
Y036500D02*
D03*
X087055D02*
D03*
Y037500D02*
D03*
Y038000D02*
D03*
X096898D02*
D03*
Y037500D02*
D03*
Y036500D02*
D03*
X028000Y046343D02*
D03*
Y047343D02*
D03*
Y047843D02*
D03*
X037843D02*
D03*
Y047343D02*
D03*
Y046343D02*
D03*
X047685D02*
D03*
Y047343D02*
D03*
Y047843D02*
D03*
X057528D02*
D03*
Y047343D02*
D03*
Y046343D02*
D03*
X067370D02*
D03*
Y047343D02*
D03*
Y047843D02*
D03*
X077213D02*
D03*
Y047343D02*
D03*
Y046343D02*
D03*
X087055D02*
D03*
Y047343D02*
D03*
Y047843D02*
D03*
X096898D02*
D03*
Y047343D02*
D03*
Y046343D02*
D03*
X028000Y056185D02*
D03*
Y057185D02*
D03*
Y057685D02*
D03*
X037843D02*
D03*
Y057185D02*
D03*
Y056185D02*
D03*
X047685D02*
D03*
Y057185D02*
D03*
Y057685D02*
D03*
X057528D02*
D03*
Y057185D02*
D03*
Y056185D02*
D03*
X067370D02*
D03*
Y057185D02*
D03*
Y057685D02*
D03*
X077213D02*
D03*
Y057185D02*
D03*
Y056185D02*
D03*
X087055D02*
D03*
Y057185D02*
D03*
Y057685D02*
D03*
X096898D02*
D03*
Y057185D02*
D03*
Y056185D02*
D03*
X028000Y066028D02*
D03*
Y067028D02*
D03*
Y067528D02*
D03*
X037843D02*
D03*
Y067028D02*
D03*
Y066028D02*
D03*
X047685D02*
D03*
Y067028D02*
D03*
Y067528D02*
D03*
X057528D02*
D03*
Y067028D02*
D03*
Y066028D02*
D03*
X067370D02*
D03*
Y067028D02*
D03*
Y067528D02*
D03*
X077213D02*
D03*
Y067028D02*
D03*
Y066028D02*
D03*
X087055D02*
D03*
Y067028D02*
D03*
Y067528D02*
D03*
X096898D02*
D03*
Y067028D02*
D03*
Y066028D02*
D03*
X028000Y075870D02*
D03*
Y076870D02*
D03*
Y077370D02*
D03*
X037843D02*
D03*
Y076870D02*
D03*
Y075870D02*
D03*
X047685D02*
D03*
Y076870D02*
D03*
Y077370D02*
D03*
X057528D02*
D03*
Y076870D02*
D03*
Y075870D02*
D03*
X067370D02*
D03*
Y076870D02*
D03*
Y077370D02*
D03*
X077213D02*
D03*
Y076870D02*
D03*
Y075870D02*
D03*
X087055D02*
D03*
Y076870D02*
D03*
Y077370D02*
D03*
X096898D02*
D03*
Y076870D02*
D03*
Y075870D02*
D03*
X028000Y085713D02*
D03*
Y086713D02*
D03*
Y087213D02*
D03*
X037843D02*
D03*
Y086713D02*
D03*
Y085713D02*
D03*
X047685D02*
D03*
Y086713D02*
D03*
Y087213D02*
D03*
X057528D02*
D03*
Y086713D02*
D03*
Y085713D02*
D03*
X067370D02*
D03*
Y086713D02*
D03*
Y087213D02*
D03*
X077213D02*
D03*
Y086713D02*
D03*
Y085713D02*
D03*
X087055D02*
D03*
Y086713D02*
D03*
Y087213D02*
D03*
X096898D02*
D03*
Y086713D02*
D03*
Y085713D02*
D03*
X028000Y095555D02*
D03*
Y096555D02*
D03*
Y097055D02*
D03*
X037843D02*
D03*
Y096555D02*
D03*
Y095555D02*
D03*
X047685D02*
D03*
Y096555D02*
D03*
Y097055D02*
D03*
X057528D02*
D03*
Y096555D02*
D03*
Y095555D02*
D03*
X067370D02*
D03*
Y096555D02*
D03*
Y097055D02*
D03*
X077213D02*
D03*
Y096555D02*
D03*
Y095555D02*
D03*
X087055D02*
D03*
Y096555D02*
D03*
Y097055D02*
D03*
X096898D02*
D03*
Y096555D02*
D03*
Y095555D02*
D03*
X028000Y105398D02*
D03*
Y106398D02*
D03*
Y106898D02*
D03*
X037843D02*
D03*
Y106398D02*
D03*
Y105398D02*
D03*
X047685D02*
D03*
Y106398D02*
D03*
Y106898D02*
D03*
X057528D02*
D03*
Y106398D02*
D03*
Y105398D02*
D03*
X067370D02*
D03*
Y106398D02*
D03*
Y106898D02*
D03*
X077213D02*
D03*
Y106398D02*
D03*
Y105398D02*
D03*
X087055D02*
D03*
Y106398D02*
D03*
Y106898D02*
D03*
X096898D02*
D03*
Y106398D02*
D03*
Y105398D02*
D03*
D27*
X028000Y037000D02*
D03*
X037843D02*
D03*
X047685D02*
D03*
X057528D02*
D03*
X067370D02*
D03*
X077213D02*
D03*
X087055D02*
D03*
X096898D02*
D03*
X028000Y046843D02*
D03*
X037843D02*
D03*
X047685D02*
D03*
X057528D02*
D03*
X067370D02*
D03*
X077213D02*
D03*
X087055D02*
D03*
X096898D02*
D03*
X028000Y056685D02*
D03*
X037843D02*
D03*
X047685D02*
D03*
X057528D02*
D03*
X067370D02*
D03*
X077213D02*
D03*
X087055D02*
D03*
X096898D02*
D03*
X028000Y066528D02*
D03*
X037843D02*
D03*
X047685D02*
D03*
X057528D02*
D03*
X067370D02*
D03*
X077213D02*
D03*
X087055D02*
D03*
X096898D02*
D03*
X028000Y076370D02*
D03*
X037843D02*
D03*
X047685D02*
D03*
X057528D02*
D03*
X067370D02*
D03*
X077213D02*
D03*
X087055D02*
D03*
X096898D02*
D03*
X028000Y086213D02*
D03*
X037843D02*
D03*
X047685D02*
D03*
X057528D02*
D03*
X067370D02*
D03*
X077213D02*
D03*
X087055D02*
D03*
X096898D02*
D03*
X028000Y096055D02*
D03*
X037843D02*
D03*
X047685D02*
D03*
X057528D02*
D03*
X067370D02*
D03*
X077213D02*
D03*
X087055D02*
D03*
X096898D02*
D03*
X028000Y105898D02*
D03*
X037843D02*
D03*
X047685D02*
D03*
X057528D02*
D03*
X067370D02*
D03*
X077213D02*
D03*
X087055D02*
D03*
X096898D02*
D03*
D28*
X071034Y112050D02*
D03*
D29*
X069066Y112050D02*
D03*
D30*
X102500Y094300D02*
D03*
X103500Y043750D02*
D03*
X102025Y037250D02*
D03*
X103000Y042750D02*
D03*
X102500Y041750D02*
D03*
X103500Y063400D02*
D03*
X102025Y056900D02*
D03*
X103000Y062400D02*
D03*
X102500Y061400D02*
D03*
X103500Y083100D02*
D03*
X102025Y076600D02*
D03*
X103000Y082100D02*
D03*
X102500Y081100D02*
D03*
X103500Y102800D02*
D03*
X102025Y096300D02*
D03*
X103000Y101800D02*
D03*
X102500Y100800D02*
D03*
X102000Y111050D02*
D03*
X102500Y111550D02*
D03*
X103000Y112050D02*
D03*
D31*
X024950Y037250D02*
D03*
X034793D02*
D03*
X044635D02*
D03*
X054478D02*
D03*
X064320D02*
D03*
X074163D02*
D03*
X084005D02*
D03*
X093848D02*
D03*
X024950Y047093D02*
D03*
X034793D02*
D03*
X044635D02*
D03*
X054478D02*
D03*
X064320D02*
D03*
X074163D02*
D03*
X084005D02*
D03*
X093848D02*
D03*
X024950Y056935D02*
D03*
X034793D02*
D03*
X044635D02*
D03*
X054478D02*
D03*
X064320D02*
D03*
X074163D02*
D03*
X084005D02*
D03*
X093848D02*
D03*
X024950Y066778D02*
D03*
X034793D02*
D03*
X044635D02*
D03*
X054478D02*
D03*
X064320D02*
D03*
X074163D02*
D03*
X084005D02*
D03*
X093848D02*
D03*
X024950Y076620D02*
D03*
X034793D02*
D03*
X044635D02*
D03*
X054478D02*
D03*
X064320D02*
D03*
X074163D02*
D03*
X084005D02*
D03*
X093848D02*
D03*
X024950Y086463D02*
D03*
X034793D02*
D03*
X044635D02*
D03*
X054478D02*
D03*
X064320D02*
D03*
X074163D02*
D03*
X084005D02*
D03*
X093848D02*
D03*
X024950Y096305D02*
D03*
X034793D02*
D03*
X044635D02*
D03*
X054478D02*
D03*
X064320D02*
D03*
X074163D02*
D03*
X084005D02*
D03*
X093848D02*
D03*
X024950Y106148D02*
D03*
X034793D02*
D03*
X044635D02*
D03*
X054478D02*
D03*
X064320D02*
D03*
X074163D02*
D03*
X084005D02*
D03*
X093848D02*
D03*
M02*
