%FSAX24Y24*%
%MOIN*%
G70*
G01*
G75*
G04 Layer_Color=32896*
%ADD10R,0.2000X0.0700*%
G04:AMPARAMS|DCode=11|XSize=200mil|YSize=70mil|CornerRadius=17.5mil|HoleSize=0mil|Usage=FLASHONLY|Rotation=0.000|XOffset=0mil|YOffset=0mil|HoleType=Round|Shape=RoundedRectangle|*
%AMROUNDEDRECTD11*
21,1,0.2000,0.0350,0,0,0.0*
21,1,0.1650,0.0700,0,0,0.0*
1,1,0.0350,0.0825,-0.0175*
1,1,0.0350,-0.0825,-0.0175*
1,1,0.0350,-0.0825,0.0175*
1,1,0.0350,0.0825,0.0175*
%
%ADD11ROUNDEDRECTD11*%
%ADD12C,0.0500*%
%ADD13C,0.0300*%
%ADD14C,0.0200*%
%ADD15C,0.0650*%
%ADD16C,0.0551*%
%ADD17C,0.0600*%
%ADD18R,0.0600X0.0600*%
%ADD19C,0.0591*%
%ADD20R,0.0591X0.0591*%
%ADD21R,0.0600X0.0600*%
%ADD22O,0.0787X0.0394*%
%ADD23O,0.0787X0.0394*%
%ADD24R,0.0591X0.0591*%
%ADD25C,0.0500*%
%ADD26O,0.0800X0.0400*%
%ADD27R,0.0800X0.0400*%
%ADD28R,0.0532X0.0532*%
%ADD29C,0.0532*%
%ADD30C,0.0400*%
%ADD31R,0.0098X0.0098*%
%ADD32C,0.0100*%
%ADD33C,0.0079*%
%ADD34C,0.0118*%
%ADD35C,0.0197*%
%ADD36C,0.0080*%
%ADD37C,0.0059*%
%ADD38R,0.2080X0.0780*%
G04:AMPARAMS|DCode=39|XSize=208mil|YSize=78mil|CornerRadius=19.5mil|HoleSize=0mil|Usage=FLASHONLY|Rotation=0.000|XOffset=0mil|YOffset=0mil|HoleType=Round|Shape=RoundedRectangle|*
%AMROUNDEDRECTD39*
21,1,0.2080,0.0390,0,0,0.0*
21,1,0.1690,0.0780,0,0,0.0*
1,1,0.0390,0.0845,-0.0195*
1,1,0.0390,-0.0845,-0.0195*
1,1,0.0390,-0.0845,0.0195*
1,1,0.0390,0.0845,0.0195*
%
%ADD39ROUNDEDRECTD39*%
%ADD40C,0.0730*%
%ADD41C,0.0631*%
%ADD42C,0.0680*%
%ADD43R,0.0680X0.0680*%
%ADD44C,0.0671*%
%ADD45R,0.0671X0.0671*%
%ADD46R,0.0680X0.0680*%
%ADD47O,0.0867X0.0474*%
%ADD48O,0.0867X0.0474*%
%ADD49R,0.0671X0.0671*%
%ADD50C,0.0080*%
%ADD51C,0.0580*%
%ADD52O,0.0880X0.0480*%
%ADD53R,0.0880X0.0480*%
%ADD54R,0.0612X0.0612*%
%ADD55C,0.0612*%
%ADD56C,0.0480*%
%ADD57C,0.1950*%
D32*
X028486Y036208D02*
G03*
X027523Y036203I-000486J001042D01*
G01*
X038329Y036208D02*
G03*
X037366Y036203I-000486J001042D01*
G01*
X048171Y036208D02*
G03*
X047208Y036203I-000486J001042D01*
G01*
X058014Y036208D02*
G03*
X057051Y036203I-000486J001042D01*
G01*
X067856Y036208D02*
G03*
X066893Y036203I-000486J001042D01*
G01*
X077699Y036208D02*
G03*
X076736Y036203I-000486J001042D01*
G01*
X087541Y036208D02*
G03*
X086578Y036203I-000486J001042D01*
G01*
X097384Y036208D02*
G03*
X096421Y036203I-000486J001042D01*
G01*
X028486Y046050D02*
G03*
X027523Y046046I-000486J001042D01*
G01*
X038329Y046050D02*
G03*
X037366Y046046I-000486J001042D01*
G01*
X048171Y046050D02*
G03*
X047208Y046046I-000486J001042D01*
G01*
X058014Y046050D02*
G03*
X057051Y046046I-000486J001042D01*
G01*
X067856Y046050D02*
G03*
X066893Y046046I-000486J001042D01*
G01*
X077699Y046050D02*
G03*
X076736Y046046I-000486J001042D01*
G01*
X087541Y046050D02*
G03*
X086578Y046046I-000486J001042D01*
G01*
X097384Y046050D02*
G03*
X096421Y046046I-000486J001042D01*
G01*
X028486Y055893D02*
G03*
X027523Y055889I-000486J001042D01*
G01*
X038329Y055893D02*
G03*
X037366Y055889I-000486J001042D01*
G01*
X048171Y055893D02*
G03*
X047208Y055889I-000486J001042D01*
G01*
X058014Y055893D02*
G03*
X057051Y055889I-000486J001042D01*
G01*
X067856Y055893D02*
G03*
X066893Y055889I-000486J001042D01*
G01*
X077699Y055893D02*
G03*
X076736Y055889I-000486J001042D01*
G01*
X087541Y055893D02*
G03*
X086578Y055889I-000486J001042D01*
G01*
X097384Y055893D02*
G03*
X096421Y055889I-000486J001042D01*
G01*
X028486Y065735D02*
G03*
X027523Y065731I-000486J001042D01*
G01*
X038329Y065735D02*
G03*
X037366Y065731I-000486J001042D01*
G01*
X048171Y065735D02*
G03*
X047208Y065731I-000486J001042D01*
G01*
X058014Y065735D02*
G03*
X057051Y065731I-000486J001042D01*
G01*
X067856Y065735D02*
G03*
X066893Y065731I-000486J001042D01*
G01*
X077699Y065735D02*
G03*
X076736Y065731I-000486J001042D01*
G01*
X087541Y065735D02*
G03*
X086578Y065731I-000486J001042D01*
G01*
X097384Y065735D02*
G03*
X096421Y065731I-000486J001042D01*
G01*
X028486Y075578D02*
G03*
X027523Y075574I-000486J001042D01*
G01*
X038329Y075578D02*
G03*
X037366Y075574I-000486J001042D01*
G01*
X048171Y075578D02*
G03*
X047208Y075574I-000486J001042D01*
G01*
X058014Y075578D02*
G03*
X057051Y075574I-000486J001042D01*
G01*
X067856Y075578D02*
G03*
X066893Y075574I-000486J001042D01*
G01*
X077699Y075578D02*
G03*
X076736Y075574I-000486J001042D01*
G01*
X087541Y075578D02*
G03*
X086578Y075574I-000486J001042D01*
G01*
X097384Y075578D02*
G03*
X096421Y075574I-000486J001042D01*
G01*
X028486Y085420D02*
G03*
X027523Y085416I-000486J001042D01*
G01*
X038329Y085420D02*
G03*
X037366Y085416I-000486J001042D01*
G01*
X048171Y085420D02*
G03*
X047208Y085416I-000486J001042D01*
G01*
X058014Y085420D02*
G03*
X057051Y085416I-000486J001042D01*
G01*
X067856Y085420D02*
G03*
X066893Y085416I-000486J001042D01*
G01*
X077699Y085420D02*
G03*
X076736Y085416I-000486J001042D01*
G01*
X087541Y085420D02*
G03*
X086578Y085416I-000486J001042D01*
G01*
X097384Y085420D02*
G03*
X096421Y085416I-000486J001042D01*
G01*
X028486Y095263D02*
G03*
X027523Y095259I-000486J001042D01*
G01*
X038329Y095263D02*
G03*
X037366Y095259I-000486J001042D01*
G01*
X048171Y095263D02*
G03*
X047208Y095259I-000486J001042D01*
G01*
X058014Y095263D02*
G03*
X057051Y095259I-000486J001042D01*
G01*
X067856Y095263D02*
G03*
X066893Y095259I-000486J001042D01*
G01*
X077699Y095263D02*
G03*
X076736Y095259I-000486J001042D01*
G01*
X087541Y095263D02*
G03*
X086578Y095259I-000486J001042D01*
G01*
X097384Y095263D02*
G03*
X096421Y095259I-000486J001042D01*
G01*
X028486Y105105D02*
G03*
X027523Y105101I-000486J001042D01*
G01*
X038329Y105105D02*
G03*
X037366Y105101I-000486J001042D01*
G01*
X048171Y105105D02*
G03*
X047208Y105101I-000486J001042D01*
G01*
X058014Y105105D02*
G03*
X057051Y105101I-000486J001042D01*
G01*
X067856Y105105D02*
G03*
X066893Y105101I-000486J001042D01*
G01*
X077699Y105105D02*
G03*
X076736Y105101I-000486J001042D01*
G01*
X087541Y105105D02*
G03*
X086578Y105101I-000486J001042D01*
G01*
X097384Y105105D02*
G03*
X096421Y105101I-000486J001042D01*
G01*
X027530Y036200D02*
X027750D01*
X028249Y036199D02*
X028469D01*
X038092D02*
X038312D01*
X037373Y036200D02*
X037593D01*
X047215D02*
X047435D01*
X047934Y036199D02*
X048154D01*
X057777D02*
X057997D01*
X057058Y036200D02*
X057278D01*
X066900D02*
X067120D01*
X067619Y036199D02*
X067839D01*
X077462D02*
X077682D01*
X076743Y036200D02*
X076963D01*
X086585D02*
X086805D01*
X087304Y036199D02*
X087524D01*
X097147D02*
X097367D01*
X096428Y036200D02*
X096648D01*
X027530Y046043D02*
X027750D01*
X028249Y046042D02*
X028469D01*
X038092D02*
X038312D01*
X037373Y046043D02*
X037593D01*
X047215D02*
X047435D01*
X047934Y046042D02*
X048154D01*
X057777D02*
X057997D01*
X057058Y046043D02*
X057278D01*
X066900D02*
X067120D01*
X067619Y046042D02*
X067839D01*
X077462D02*
X077682D01*
X076743Y046043D02*
X076963D01*
X086585D02*
X086805D01*
X087304Y046042D02*
X087524D01*
X097147D02*
X097367D01*
X096428Y046043D02*
X096648D01*
X027530Y055885D02*
X027750D01*
X028249Y055884D02*
X028469D01*
X038092D02*
X038312D01*
X037373Y055885D02*
X037593D01*
X047215D02*
X047435D01*
X047934Y055884D02*
X048154D01*
X057777D02*
X057997D01*
X057058Y055885D02*
X057278D01*
X066900D02*
X067120D01*
X067619Y055884D02*
X067839D01*
X077462D02*
X077682D01*
X076743Y055885D02*
X076963D01*
X086585D02*
X086805D01*
X087304Y055884D02*
X087524D01*
X097147D02*
X097367D01*
X096428Y055885D02*
X096648D01*
X027530Y065728D02*
X027750D01*
X028249Y065727D02*
X028469D01*
X038092D02*
X038312D01*
X037373Y065728D02*
X037593D01*
X047215D02*
X047435D01*
X047934Y065727D02*
X048154D01*
X057777D02*
X057997D01*
X057058Y065728D02*
X057278D01*
X066900D02*
X067120D01*
X067619Y065727D02*
X067839D01*
X077462D02*
X077682D01*
X076743Y065728D02*
X076963D01*
X086585D02*
X086805D01*
X087304Y065727D02*
X087524D01*
X097147D02*
X097367D01*
X096428Y065728D02*
X096648D01*
X027530Y075570D02*
X027750D01*
X028249Y075569D02*
X028469D01*
X038092D02*
X038312D01*
X037373Y075570D02*
X037593D01*
X047215D02*
X047435D01*
X047934Y075569D02*
X048154D01*
X057777D02*
X057997D01*
X057058Y075570D02*
X057278D01*
X066900D02*
X067120D01*
X067619Y075569D02*
X067839D01*
X077462D02*
X077682D01*
X076743Y075570D02*
X076963D01*
X086585D02*
X086805D01*
X087304Y075569D02*
X087524D01*
X097147D02*
X097367D01*
X096428Y075570D02*
X096648D01*
X027530Y085413D02*
X027750D01*
X028249Y085412D02*
X028469D01*
X038092D02*
X038312D01*
X037373Y085413D02*
X037593D01*
X047215D02*
X047435D01*
X047934Y085412D02*
X048154D01*
X057777D02*
X057997D01*
X057058Y085413D02*
X057278D01*
X066900D02*
X067120D01*
X067619Y085412D02*
X067839D01*
X077462D02*
X077682D01*
X076743Y085413D02*
X076963D01*
X086585D02*
X086805D01*
X087304Y085412D02*
X087524D01*
X097147D02*
X097367D01*
X096428Y085413D02*
X096648D01*
X027530Y095255D02*
X027750D01*
X028249Y095254D02*
X028469D01*
X038092D02*
X038312D01*
X037373Y095255D02*
X037593D01*
X047215D02*
X047435D01*
X047934Y095254D02*
X048154D01*
X057777D02*
X057997D01*
X057058Y095255D02*
X057278D01*
X066900D02*
X067120D01*
X067619Y095254D02*
X067839D01*
X077462D02*
X077682D01*
X076743Y095255D02*
X076963D01*
X086585D02*
X086805D01*
X087304Y095254D02*
X087524D01*
X097147D02*
X097367D01*
X096428Y095255D02*
X096648D01*
X027530Y105098D02*
X027750D01*
X028249Y105097D02*
X028469D01*
X038092D02*
X038312D01*
X037373Y105098D02*
X037593D01*
X047215D02*
X047435D01*
X047934Y105097D02*
X048154D01*
X057777D02*
X057997D01*
X057058Y105098D02*
X057278D01*
X066900D02*
X067120D01*
X067619Y105097D02*
X067839D01*
X077462D02*
X077682D01*
X076743Y105098D02*
X076963D01*
X086585D02*
X086805D01*
X087304Y105097D02*
X087524D01*
X097147D02*
X097367D01*
X096428Y105098D02*
X096648D01*
X099650Y109800D02*
Y110200D01*
X099750Y110300D01*
X099950D01*
X100050Y110200D01*
Y109800D01*
X099950Y109700D01*
X099750D01*
X099850Y109900D02*
X099650Y109700D01*
X099750D02*
X099650Y109800D01*
X099450Y109700D02*
X099250D01*
X099350D01*
Y110300D01*
X099450Y110200D01*
X030750Y109800D02*
Y110200D01*
X030850Y110300D01*
X031050D01*
X031150Y110200D01*
Y109800D01*
X031050Y109700D01*
X030850D01*
X030950Y109900D02*
X030750Y109700D01*
X030850D02*
X030750Y109800D01*
X030550Y110200D02*
X030450Y110300D01*
X030250D01*
X030150Y110200D01*
Y110100D01*
X030250Y110000D01*
X030150Y109900D01*
Y109800D01*
X030250Y109700D01*
X030450D01*
X030550Y109800D01*
Y109900D01*
X030450Y110000D01*
X030550Y110100D01*
Y110200D01*
X030450Y110000D02*
X030250D01*
X099650Y040900D02*
Y041300D01*
X099750Y041400D01*
X099950D01*
X100050Y041300D01*
Y040900D01*
X099950Y040800D01*
X099750D01*
X099850Y041000D02*
X099650Y040800D01*
X099750D02*
X099650Y040900D01*
X099050Y041400D02*
X099450D01*
Y041100D01*
X099250Y041200D01*
X099150D01*
X099050Y041100D01*
Y040900D01*
X099150Y040800D01*
X099350D01*
X099450Y040900D01*
X098850Y041400D02*
X098451D01*
Y041300D01*
X098850Y040900D01*
Y040800D01*
X030750Y040900D02*
Y041300D01*
X030850Y041400D01*
X031050D01*
X031150Y041300D01*
Y040900D01*
X031050Y040800D01*
X030850D01*
X030950Y041000D02*
X030750Y040800D01*
X030850D02*
X030750Y040900D01*
X030150Y041400D02*
X030350Y041300D01*
X030550Y041100D01*
Y040900D01*
X030450Y040800D01*
X030250D01*
X030150Y040900D01*
Y041000D01*
X030250Y041100D01*
X030550D01*
X029650Y040800D02*
Y041400D01*
X029950Y041100D01*
X029551D01*
M02*
