%FSAX24Y24*%
%MOIN*%
G70*
G01*
G75*
G04 Layer_Color=65535*
%ADD10R,0.2000X0.0700*%
G04:AMPARAMS|DCode=11|XSize=200mil|YSize=70mil|CornerRadius=17.5mil|HoleSize=0mil|Usage=FLASHONLY|Rotation=0.000|XOffset=0mil|YOffset=0mil|HoleType=Round|Shape=RoundedRectangle|*
%AMROUNDEDRECTD11*
21,1,0.2000,0.0350,0,0,0.0*
21,1,0.1650,0.0700,0,0,0.0*
1,1,0.0350,0.0825,-0.0175*
1,1,0.0350,-0.0825,-0.0175*
1,1,0.0350,-0.0825,0.0175*
1,1,0.0350,0.0825,0.0175*
%
%ADD11ROUNDEDRECTD11*%
%ADD12C,0.0500*%
%ADD13C,0.0300*%
%ADD14C,0.0200*%
%ADD15C,0.0650*%
%ADD16C,0.0551*%
%ADD17C,0.0600*%
%ADD18R,0.0600X0.0600*%
%ADD19C,0.0591*%
%ADD20R,0.0591X0.0591*%
%ADD21R,0.0600X0.0600*%
%ADD22O,0.0787X0.0394*%
%ADD23O,0.0787X0.0394*%
%ADD24R,0.0591X0.0591*%
%ADD25C,0.0500*%
%ADD26O,0.0800X0.0400*%
%ADD27R,0.0800X0.0400*%
%ADD28R,0.0532X0.0532*%
%ADD29C,0.0532*%
%ADD30C,0.0400*%
%ADD31R,0.0098X0.0098*%
%ADD32C,0.0100*%
%ADD33C,0.0079*%
%ADD34C,0.0118*%
%ADD35C,0.0197*%
%ADD36C,0.0080*%
%ADD37C,0.0059*%
D32*
X102750Y106300D02*
G03*
X103250Y106300I000250J000000D01*
G01*
X102750Y086600D02*
G03*
X103250Y086600I000250J000000D01*
G01*
X102750Y066900D02*
G03*
X103250Y066900I000250J000000D01*
G01*
X102750Y047250D02*
G03*
X103250Y047250I000250J000000D01*
G01*
X102150Y106300D02*
X102750D01*
X103250D02*
X103850D01*
Y092300D02*
Y106300D01*
X102150Y092300D02*
X103850D01*
X102150D02*
Y106300D01*
Y086600D02*
X102750D01*
X103250D02*
X103850D01*
Y072600D02*
Y086600D01*
X102150Y072600D02*
X103850D01*
X102150D02*
Y086600D01*
Y066900D02*
X102750D01*
X103250D02*
X103850D01*
Y052900D02*
Y066900D01*
X102150Y052900D02*
X103850D01*
X102150D02*
Y066900D01*
Y047250D02*
X102750D01*
X103250D02*
X103850D01*
Y033250D02*
Y047250D01*
X102150Y033250D02*
X103850D01*
X102150D02*
Y047250D01*
X100099Y049199D02*
X099999Y049299D01*
X099799D01*
X099699Y049199D01*
Y048799D01*
X099799Y048699D01*
X099999D01*
X100099Y048799D01*
X100698Y049299D02*
X100299D01*
Y048999D01*
X100499Y049099D01*
X100599D01*
X100698Y048999D01*
Y048799D01*
X100599Y048699D01*
X100399D01*
X100299Y048799D01*
X100199Y068849D02*
X100099Y068949D01*
X099899D01*
X099799Y068849D01*
Y068449D01*
X099899Y068349D01*
X100099D01*
X100199Y068449D01*
X100699Y068349D02*
Y068949D01*
X100399Y068649D01*
X100799D01*
X100099Y088549D02*
X099999Y088649D01*
X099799D01*
X099699Y088549D01*
Y088149D01*
X099799Y088049D01*
X099999D01*
X100099Y088149D01*
X100299Y088549D02*
X100399Y088649D01*
X100599D01*
X100698Y088549D01*
Y088449D01*
X100599Y088349D01*
X100499D01*
X100599D01*
X100698Y088249D01*
Y088149D01*
X100599Y088049D01*
X100399D01*
X100299Y088149D01*
X105449Y092449D02*
Y093049D01*
X105749D01*
X105849Y092949D01*
Y092749D01*
X105749Y092649D01*
X105449D01*
X105649D02*
X105849Y092449D01*
X106049Y092949D02*
X106149Y093049D01*
X106349D01*
X106448Y092949D01*
Y092849D01*
X106349Y092749D01*
X106448Y092649D01*
Y092549D01*
X106349Y092449D01*
X106149D01*
X106049Y092549D01*
Y092649D01*
X106149Y092749D01*
X106049Y092849D01*
Y092949D01*
X106149Y092749D02*
X106349D01*
X100049Y108299D02*
X099949Y108399D01*
X099749D01*
X099649Y108299D01*
Y107899D01*
X099749Y107799D01*
X099949D01*
X100049Y107899D01*
X100648Y107799D02*
X100249D01*
X100648Y108199D01*
Y108299D01*
X100549Y108399D01*
X100349D01*
X100249Y108299D01*
X076760Y114170D02*
Y114770D01*
X077060D01*
X077160Y114670D01*
Y114470D01*
X077060Y114370D01*
X076760D01*
X076960D02*
X077160Y114170D01*
X077360D02*
X077560D01*
X077460D01*
Y114770D01*
X077360Y114670D01*
X086760Y114170D02*
Y114770D01*
X087060D01*
X087160Y114670D01*
Y114470D01*
X087060Y114370D01*
X086760D01*
X086960D02*
X087160Y114170D01*
X087760D02*
X087360D01*
X087760Y114570D01*
Y114670D01*
X087660Y114770D01*
X087460D01*
X087360Y114670D01*
X096760Y114170D02*
Y114770D01*
X097060D01*
X097160Y114670D01*
Y114470D01*
X097060Y114370D01*
X096760D01*
X096960D02*
X097160Y114170D01*
X097360Y114670D02*
X097460Y114770D01*
X097660D01*
X097760Y114670D01*
Y114570D01*
X097660Y114470D01*
X097560D01*
X097660D01*
X097760Y114370D01*
Y114270D01*
X097660Y114170D01*
X097460D01*
X097360Y114270D01*
X101280Y110190D02*
Y110790D01*
X101580D01*
X101680Y110690D01*
Y110490D01*
X101580Y110390D01*
X101280D01*
X101480D02*
X101680Y110190D01*
X102180D02*
Y110790D01*
X101880Y110490D01*
X102280D01*
X101280Y090490D02*
Y091090D01*
X101580D01*
X101680Y090990D01*
Y090790D01*
X101580Y090690D01*
X101280D01*
X101480D02*
X101680Y090490D01*
X102280Y091090D02*
X101880D01*
Y090790D01*
X102080Y090890D01*
X102180D01*
X102280Y090790D01*
Y090590D01*
X102180Y090490D01*
X101980D01*
X101880Y090590D01*
X101280Y070790D02*
Y071390D01*
X101580D01*
X101680Y071290D01*
Y071090D01*
X101580Y070990D01*
X101280D01*
X101480D02*
X101680Y070790D01*
X102280Y071390D02*
X102080Y071290D01*
X101880Y071090D01*
Y070890D01*
X101980Y070790D01*
X102180D01*
X102280Y070890D01*
Y070990D01*
X102180Y071090D01*
X101880D01*
X101280Y051140D02*
Y051740D01*
X101580D01*
X101680Y051640D01*
Y051440D01*
X101580Y051340D01*
X101280D01*
X101480D02*
X101680Y051140D01*
X101880Y051740D02*
X102280D01*
Y051640D01*
X101880Y051240D01*
Y051140D01*
X069260Y113680D02*
X069160Y113780D01*
X068960D01*
X068860Y113680D01*
Y113280D01*
X068960Y113180D01*
X069160D01*
X069260Y113280D01*
X069860Y113780D02*
X069660Y113680D01*
X069460Y113480D01*
Y113280D01*
X069560Y113180D01*
X069760D01*
X069860Y113280D01*
Y113380D01*
X069760Y113480D01*
X069460D01*
X103300Y101400D02*
Y101000D01*
Y101200D01*
X102700D01*
X103300Y100800D02*
X102700D01*
Y100400D01*
X103200Y099801D02*
X103300Y099901D01*
Y100100D01*
X103200Y100200D01*
X102800D01*
X102700Y100100D01*
Y099901D01*
X102800Y099801D01*
X103300Y099201D02*
Y099601D01*
X103000D01*
X103100Y099401D01*
Y099301D01*
X103000Y099201D01*
X102800D01*
X102700Y099301D01*
Y099501D01*
X102800Y099601D01*
Y099001D02*
X102700Y098901D01*
Y098701D01*
X102800Y098601D01*
X103200D01*
X103300Y098701D01*
Y098901D01*
X103200Y099001D01*
X103100D01*
X103000Y098901D01*
Y098601D01*
X102700Y098101D02*
X103300D01*
X103000Y098401D01*
Y098001D01*
X103200Y097801D02*
X103300Y097701D01*
Y097501D01*
X103200Y097401D01*
X102800D01*
X102700Y097501D01*
Y097701D01*
X102800Y097801D01*
X103200D01*
X103300Y081700D02*
Y081300D01*
Y081500D01*
X102700D01*
X103300Y081100D02*
X102700D01*
Y080700D01*
X103200Y080101D02*
X103300Y080201D01*
Y080400D01*
X103200Y080500D01*
X102800D01*
X102700Y080400D01*
Y080201D01*
X102800Y080101D01*
X103300Y079501D02*
Y079901D01*
X103000D01*
X103100Y079701D01*
Y079601D01*
X103000Y079501D01*
X102800D01*
X102700Y079601D01*
Y079801D01*
X102800Y079901D01*
Y079301D02*
X102700Y079201D01*
Y079001D01*
X102800Y078901D01*
X103200D01*
X103300Y079001D01*
Y079201D01*
X103200Y079301D01*
X103100D01*
X103000Y079201D01*
Y078901D01*
X102700Y078401D02*
X103300D01*
X103000Y078701D01*
Y078301D01*
X103200Y078101D02*
X103300Y078001D01*
Y077801D01*
X103200Y077701D01*
X102800D01*
X102700Y077801D01*
Y078001D01*
X102800Y078101D01*
X103200D01*
X103300Y062000D02*
Y061600D01*
Y061800D01*
X102700D01*
X103300Y061400D02*
X102700D01*
Y061000D01*
X103200Y060401D02*
X103300Y060501D01*
Y060700D01*
X103200Y060800D01*
X102800D01*
X102700Y060700D01*
Y060501D01*
X102800Y060401D01*
X103300Y059801D02*
Y060201D01*
X103000D01*
X103100Y060001D01*
Y059901D01*
X103000Y059801D01*
X102800D01*
X102700Y059901D01*
Y060101D01*
X102800Y060201D01*
Y059601D02*
X102700Y059501D01*
Y059301D01*
X102800Y059201D01*
X103200D01*
X103300Y059301D01*
Y059501D01*
X103200Y059601D01*
X103100D01*
X103000Y059501D01*
Y059201D01*
X102700Y058701D02*
X103300D01*
X103000Y059001D01*
Y058601D01*
X103200Y058401D02*
X103300Y058301D01*
Y058101D01*
X103200Y058001D01*
X102800D01*
X102700Y058101D01*
Y058301D01*
X102800Y058401D01*
X103200D01*
X103300Y042350D02*
Y041950D01*
Y042150D01*
X102700D01*
X103300Y041750D02*
X102700D01*
Y041350D01*
X103200Y040751D02*
X103300Y040851D01*
Y041050D01*
X103200Y041150D01*
X102800D01*
X102700Y041050D01*
Y040851D01*
X102800Y040751D01*
X103300Y040151D02*
Y040551D01*
X103000D01*
X103100Y040351D01*
Y040251D01*
X103000Y040151D01*
X102800D01*
X102700Y040251D01*
Y040451D01*
X102800Y040551D01*
Y039951D02*
X102700Y039851D01*
Y039651D01*
X102800Y039551D01*
X103200D01*
X103300Y039651D01*
Y039851D01*
X103200Y039951D01*
X103100D01*
X103000Y039851D01*
Y039551D01*
X102700Y039051D02*
X103300D01*
X103000Y039351D01*
Y038951D01*
X103200Y038751D02*
X103300Y038651D01*
Y038451D01*
X103200Y038351D01*
X102800D01*
X102700Y038451D01*
Y038651D01*
X102800Y038751D01*
X103200D01*
X026049Y113399D02*
X025949Y113499D01*
X025749D01*
X025649Y113399D01*
Y112999D01*
X025749Y112899D01*
X025949D01*
X026049Y112999D01*
X026249Y113499D02*
Y112899D01*
Y113199D01*
X026349Y113299D01*
X026549D01*
X026648Y113199D01*
Y112899D01*
X026848Y113299D02*
Y112899D01*
Y113099D01*
X026948Y113199D01*
X027048Y113299D01*
X027148D01*
X027548Y112899D02*
X027748D01*
X027848Y112999D01*
Y113199D01*
X027748Y113299D01*
X027548D01*
X027448Y113199D01*
Y112999D01*
X027548Y112899D01*
X028048D02*
Y113299D01*
X028348D01*
X028448Y113199D01*
Y112899D01*
X028748D02*
X028948D01*
X029048Y112999D01*
Y113199D01*
X028948Y113299D01*
X028748D01*
X028648Y113199D01*
Y112999D01*
X028748Y112899D01*
X029248D02*
Y113299D01*
X029348D01*
X029448Y113199D01*
Y112899D01*
Y113199D01*
X029548Y113299D01*
X029648Y113199D01*
Y112899D01*
X030147D02*
X029947D01*
X029847Y112999D01*
Y113199D01*
X029947Y113299D01*
X030147D01*
X030247Y113199D01*
Y113099D01*
X029847D01*
X031047Y113499D02*
Y113099D01*
X031247Y112899D01*
X031447Y113099D01*
Y113499D01*
X032047Y112899D02*
X031647D01*
X032047Y113299D01*
Y113399D01*
X031947Y113499D01*
X031747D01*
X031647Y113399D01*
X032247Y112899D02*
Y112999D01*
X032347D01*
Y112899D01*
X032247D01*
X033146D02*
X032747D01*
X033146Y113299D01*
Y113399D01*
X033046Y113499D01*
X032846D01*
X032747Y113399D01*
X033946Y113499D02*
Y112899D01*
X034246D01*
X034346Y112999D01*
Y113099D01*
Y113199D01*
X034246Y113299D01*
X033946D01*
X034546D02*
Y112999D01*
X034646Y112899D01*
X034946D01*
Y112799D01*
X034846Y112699D01*
X034746D01*
X034946Y112899D02*
Y113299D01*
X036045Y113499D02*
X035846D01*
X035746Y113399D01*
Y112999D01*
X035846Y112899D01*
X036045D01*
X036145Y112999D01*
Y113399D01*
X036045Y113499D01*
X036345Y113299D02*
Y112999D01*
X036445Y112899D01*
X036545Y112999D01*
X036645Y112899D01*
X036745Y112999D01*
Y113299D01*
X037245Y112899D02*
X037045D01*
X036945Y112999D01*
Y113199D01*
X037045Y113299D01*
X037245D01*
X037345Y113199D01*
Y113099D01*
X036945D01*
X037545Y112899D02*
Y113299D01*
X037845D01*
X037945Y113199D01*
Y112899D01*
X038745Y113499D02*
Y113099D01*
X038945Y112899D01*
X039144Y113099D01*
Y113499D01*
X039444Y113299D02*
X039644D01*
X039744Y113199D01*
Y112899D01*
X039444D01*
X039344Y112999D01*
X039444Y113099D01*
X039744D01*
X039944Y112899D02*
X040144D01*
X040044D01*
Y113499D01*
X039944D01*
X040444Y112899D02*
X040644D01*
X040544D01*
Y113499D01*
X040444D01*
X040944Y112899D02*
X041144D01*
X041044D01*
Y113299D01*
X040944D01*
X041444Y112899D02*
X041744D01*
X041844Y112999D01*
X041744Y113099D01*
X041544D01*
X041444Y113199D01*
X041544Y113299D01*
X041844D01*
X043043Y112899D02*
X042643D01*
X043043Y113299D01*
Y113399D01*
X042943Y113499D01*
X042743D01*
X042643Y113399D01*
X043243D02*
X043343Y113499D01*
X043543D01*
X043643Y113399D01*
Y112999D01*
X043543Y112899D01*
X043343D01*
X043243Y112999D01*
Y113399D01*
X043843Y112899D02*
X044043D01*
X043943D01*
Y113499D01*
X043843Y113399D01*
X044343Y112899D02*
X044543D01*
X044443D01*
Y113499D01*
X044343Y113399D01*
D33*
X093909Y111771D02*
G03*
X093909Y113330I000591J000780D01*
G01*
X083909Y111771D02*
G03*
X083909Y113330I000591J000780D01*
G01*
X073909Y111771D02*
G03*
X073909Y113330I000591J000780D01*
G01*
X070714Y112473D02*
G03*
X069334Y112377I-000664J-000423D01*
G01*
Y111723D02*
G03*
X070714Y111627I000716J000327D01*
G01*
X100870Y050004D02*
X102130D01*
X100870Y047996D02*
X102130D01*
X100870D02*
Y050004D01*
X102130Y047996D02*
Y050004D01*
X100870Y069654D02*
X102130D01*
X100870Y067646D02*
X102130D01*
X100870D02*
Y069654D01*
X102130Y067646D02*
Y069654D01*
X100870Y089354D02*
X102130D01*
X100870Y087346D02*
X102130D01*
X100870D02*
Y089354D01*
X102130Y087346D02*
Y089354D01*
X106150Y093910D02*
Y094000D01*
Y096000D02*
Y096090D01*
X105850Y094000D02*
X106150D01*
X105850D02*
Y096000D01*
X106450D01*
Y094000D02*
Y096000D01*
X106150Y094000D02*
X106450D01*
X100870Y109054D02*
X102130D01*
X100870Y107046D02*
X102130D01*
X100870D02*
Y109054D01*
X102130Y107046D02*
Y109054D01*
X022000Y067500D02*
Y075500D01*
X021000D02*
X022000D01*
X021000Y067500D02*
Y075500D01*
Y067500D02*
X022000D01*
X101910Y109550D02*
X102000D01*
X104000D02*
X104090D01*
X102000D02*
Y109850D01*
X104000D01*
Y109250D02*
Y109850D01*
X102000Y109250D02*
X104000D01*
X102000D02*
Y109550D01*
X101910Y089850D02*
X102000D01*
X104000D02*
X104090D01*
X102000D02*
Y090150D01*
X104000D01*
Y089550D02*
Y090150D01*
X102000Y089550D02*
X104000D01*
X102000D02*
Y089850D01*
X101910Y070150D02*
X102000D01*
X104000D02*
X104090D01*
X102000D02*
Y070450D01*
X104000D01*
Y069850D02*
Y070450D01*
X102000Y069850D02*
X104000D01*
X102000D02*
Y070150D01*
X101910Y050500D02*
X102000D01*
X104000D02*
X104090D01*
X102000D02*
Y050800D01*
X104000D01*
Y050200D02*
Y050800D01*
X102000Y050200D02*
X104000D01*
X102000D02*
Y050500D01*
X093909Y111770D02*
Y113330D01*
X097000Y110960D02*
Y111050D01*
Y113050D02*
Y113140D01*
X096700Y111050D02*
X097000D01*
X096700D02*
Y113050D01*
X097300D01*
Y111050D02*
Y113050D01*
X097000Y111050D02*
X097300D01*
X083909Y111770D02*
Y113330D01*
X087000Y110960D02*
Y111050D01*
Y113050D02*
Y113140D01*
X086700Y111050D02*
X087000D01*
X086700D02*
Y113050D01*
X087300D01*
Y111050D02*
Y113050D01*
X087000Y111050D02*
X087300D01*
X073909Y111770D02*
Y113330D01*
X077000Y110960D02*
Y111050D01*
Y113050D02*
Y113140D01*
X076700Y111050D02*
X077000D01*
X076700D02*
Y113050D01*
X077300D01*
Y111050D02*
Y113050D01*
X077000Y111050D02*
X077300D01*
X057500Y111550D02*
Y113550D01*
X067500D01*
Y111550D02*
Y113550D01*
X057500Y111550D02*
X067500D01*
X061800Y027800D02*
Y029800D01*
X053800Y027800D02*
Y029800D01*
X061800D01*
X053800Y027800D02*
X061800D01*
D34*
X028200Y035280D02*
Y035930D01*
X027450Y035940D02*
X028600D01*
Y035280D02*
Y035940D01*
X027450Y035280D02*
X028600D01*
X027450D02*
Y035940D01*
X037293Y035280D02*
Y035940D01*
Y035280D02*
X038443D01*
Y035940D01*
X037293D02*
X038443D01*
X038043Y035280D02*
Y035930D01*
X047885Y035280D02*
Y035930D01*
X047135Y035940D02*
X048285D01*
Y035280D02*
Y035940D01*
X047135Y035280D02*
X048285D01*
X047135D02*
Y035940D01*
X056978Y035280D02*
Y035940D01*
Y035280D02*
X058128D01*
Y035940D01*
X056978D02*
X058128D01*
X057728Y035280D02*
Y035930D01*
X067570Y035280D02*
Y035930D01*
X066820Y035940D02*
X067970D01*
Y035280D02*
Y035940D01*
X066820Y035280D02*
X067970D01*
X066820D02*
Y035940D01*
X076663Y035280D02*
Y035940D01*
Y035280D02*
X077813D01*
Y035940D01*
X076663D02*
X077813D01*
X077413Y035280D02*
Y035930D01*
X087255Y035280D02*
Y035930D01*
X086505Y035940D02*
X087655D01*
Y035280D02*
Y035940D01*
X086505Y035280D02*
X087655D01*
X086505D02*
Y035940D01*
X027450Y045123D02*
Y045783D01*
Y045123D02*
X028600D01*
Y045783D01*
X027450D02*
X028600D01*
X028200Y045123D02*
Y045773D01*
X038043Y045123D02*
Y045773D01*
X037293Y045783D02*
X038443D01*
Y045123D02*
Y045783D01*
X037293Y045123D02*
X038443D01*
X037293D02*
Y045783D01*
X047135Y045123D02*
Y045783D01*
Y045123D02*
X048285D01*
Y045783D01*
X047135D02*
X048285D01*
X047885Y045123D02*
Y045773D01*
X057728Y045123D02*
Y045773D01*
X056978Y045783D02*
X058128D01*
Y045123D02*
Y045783D01*
X056978Y045123D02*
X058128D01*
X056978D02*
Y045783D01*
X066820Y045123D02*
Y045783D01*
Y045123D02*
X067970D01*
Y045783D01*
X066820D02*
X067970D01*
X067570Y045123D02*
Y045773D01*
X077413Y045123D02*
Y045773D01*
X076663Y045783D02*
X077813D01*
Y045123D02*
Y045783D01*
X076663Y045123D02*
X077813D01*
X076663D02*
Y045783D01*
X086505Y045123D02*
Y045783D01*
Y045123D02*
X087655D01*
Y045783D01*
X086505D02*
X087655D01*
X087255Y045123D02*
Y045773D01*
X096300Y045133D02*
Y045783D01*
X095900Y045123D02*
X097050D01*
X095900D02*
Y045783D01*
X097050D01*
Y045123D02*
Y045783D01*
X027450Y054965D02*
Y055625D01*
Y054965D02*
X028600D01*
Y055625D01*
X027450D02*
X028600D01*
X028200Y054965D02*
Y055615D01*
X038043Y054965D02*
Y055615D01*
X037293Y055625D02*
X038443D01*
Y054965D02*
Y055625D01*
X037293Y054965D02*
X038443D01*
X037293D02*
Y055625D01*
X047135Y054965D02*
Y055625D01*
Y054965D02*
X048285D01*
Y055625D01*
X047135D02*
X048285D01*
X047885Y054965D02*
Y055615D01*
X057728Y054965D02*
Y055615D01*
X056978Y055625D02*
X058128D01*
Y054965D02*
Y055625D01*
X056978Y054965D02*
X058128D01*
X056978D02*
Y055625D01*
X066820Y054965D02*
Y055625D01*
Y054965D02*
X067970D01*
Y055625D01*
X066820D02*
X067970D01*
X067570Y054965D02*
Y055615D01*
X077413Y054965D02*
Y055615D01*
X076663Y055625D02*
X077813D01*
Y054965D02*
Y055625D01*
X076663Y054965D02*
X077813D01*
X076663D02*
Y055625D01*
X086505Y054965D02*
Y055625D01*
Y054965D02*
X087655D01*
Y055625D01*
X086505D02*
X087655D01*
X087255Y054965D02*
Y055615D01*
X096300Y054975D02*
Y055625D01*
X095900Y054965D02*
X097050D01*
X095900D02*
Y055625D01*
X097050D01*
Y054965D02*
Y055625D01*
X027450Y064808D02*
Y065468D01*
Y064808D02*
X028600D01*
Y065468D01*
X027450D02*
X028600D01*
X028200Y064808D02*
Y065458D01*
X038043Y064808D02*
Y065458D01*
X037293Y065468D02*
X038443D01*
Y064808D02*
Y065468D01*
X037293Y064808D02*
X038443D01*
X037293D02*
Y065468D01*
X047135Y064808D02*
Y065468D01*
Y064808D02*
X048285D01*
Y065468D01*
X047135D02*
X048285D01*
X047885Y064808D02*
Y065458D01*
X057728Y064808D02*
Y065458D01*
X056978Y065468D02*
X058128D01*
Y064808D02*
Y065468D01*
X056978Y064808D02*
X058128D01*
X056978D02*
Y065468D01*
X066820Y064808D02*
Y065468D01*
Y064808D02*
X067970D01*
Y065468D01*
X066820D02*
X067970D01*
X067570Y064808D02*
Y065458D01*
X077413Y064808D02*
Y065458D01*
X076663Y065468D02*
X077813D01*
Y064808D02*
Y065468D01*
X076663Y064808D02*
X077813D01*
X076663D02*
Y065468D01*
X086505Y064808D02*
Y065468D01*
Y064808D02*
X087655D01*
Y065468D01*
X086505D02*
X087655D01*
X087255Y064808D02*
Y065458D01*
X096300Y064818D02*
Y065468D01*
X095900Y064808D02*
X097050D01*
X095900D02*
Y065468D01*
X097050D01*
Y064808D02*
Y065468D01*
X027450Y074650D02*
Y075310D01*
Y074650D02*
X028600D01*
Y075310D01*
X027450D02*
X028600D01*
X028200Y074650D02*
Y075300D01*
X038043Y074650D02*
Y075300D01*
X037293Y075310D02*
X038443D01*
Y074650D02*
Y075310D01*
X037293Y074650D02*
X038443D01*
X037293D02*
Y075310D01*
X047135Y074650D02*
Y075310D01*
Y074650D02*
X048285D01*
Y075310D01*
X047135D02*
X048285D01*
X047885Y074650D02*
Y075300D01*
X057728Y074650D02*
Y075300D01*
X056978Y075310D02*
X058128D01*
Y074650D02*
Y075310D01*
X056978Y074650D02*
X058128D01*
X056978D02*
Y075310D01*
X066820Y074650D02*
Y075310D01*
Y074650D02*
X067970D01*
Y075310D01*
X066820D02*
X067970D01*
X067570Y074650D02*
Y075300D01*
X077413Y074650D02*
Y075300D01*
X076663Y075310D02*
X077813D01*
Y074650D02*
Y075310D01*
X076663Y074650D02*
X077813D01*
X076663D02*
Y075310D01*
X086505Y074650D02*
Y075310D01*
Y074650D02*
X087655D01*
Y075310D01*
X086505D02*
X087655D01*
X087255Y074650D02*
Y075300D01*
X096300Y074660D02*
Y075310D01*
X095900Y074650D02*
X097050D01*
X095900D02*
Y075310D01*
X097050D01*
Y074650D02*
Y075310D01*
X027450Y084493D02*
Y085153D01*
Y084493D02*
X028600D01*
Y085153D01*
X027450D02*
X028600D01*
X028200Y084493D02*
Y085143D01*
X038043Y084493D02*
Y085143D01*
X037293Y085153D02*
X038443D01*
Y084493D02*
Y085153D01*
X037293Y084493D02*
X038443D01*
X037293D02*
Y085153D01*
X047135Y084493D02*
Y085153D01*
Y084493D02*
X048285D01*
Y085153D01*
X047135D02*
X048285D01*
X047885Y084493D02*
Y085143D01*
X057728Y084493D02*
Y085143D01*
X056978Y085153D02*
X058128D01*
Y084493D02*
Y085153D01*
X056978Y084493D02*
X058128D01*
X056978D02*
Y085153D01*
X066820Y084493D02*
Y085153D01*
Y084493D02*
X067970D01*
Y085153D01*
X066820D02*
X067970D01*
X067570Y084493D02*
Y085143D01*
X077413Y084493D02*
Y085143D01*
X076663Y085153D02*
X077813D01*
Y084493D02*
Y085153D01*
X076663Y084493D02*
X077813D01*
X076663D02*
Y085153D01*
X086505Y084493D02*
Y085153D01*
Y084493D02*
X087655D01*
Y085153D01*
X086505D02*
X087655D01*
X087255Y084493D02*
Y085143D01*
X096300Y084503D02*
Y085153D01*
X095900Y084493D02*
X097050D01*
X095900D02*
Y085153D01*
X097050D01*
Y084493D02*
Y085153D01*
X027450Y094335D02*
Y094995D01*
Y094335D02*
X028600D01*
Y094995D01*
X027450D02*
X028600D01*
X028200Y094335D02*
Y094985D01*
X038043Y094335D02*
Y094985D01*
X037293Y094995D02*
X038443D01*
Y094335D02*
Y094995D01*
X037293Y094335D02*
X038443D01*
X037293D02*
Y094995D01*
X047135Y094335D02*
Y094995D01*
Y094335D02*
X048285D01*
Y094995D01*
X047135D02*
X048285D01*
X047885Y094335D02*
Y094985D01*
X057728Y094335D02*
Y094985D01*
X056978Y094995D02*
X058128D01*
Y094335D02*
Y094995D01*
X056978Y094335D02*
X058128D01*
X056978D02*
Y094995D01*
X066820Y094335D02*
Y094995D01*
Y094335D02*
X067970D01*
Y094995D01*
X066820D02*
X067970D01*
X067570Y094335D02*
Y094985D01*
X077413Y094335D02*
Y094985D01*
X076663Y094995D02*
X077813D01*
Y094335D02*
Y094995D01*
X076663Y094335D02*
X077813D01*
X076663D02*
Y094995D01*
X086505Y094335D02*
Y094995D01*
Y094335D02*
X087655D01*
Y094995D01*
X086505D02*
X087655D01*
X087255Y094335D02*
Y094985D01*
X096300Y094345D02*
Y094995D01*
X095900Y094335D02*
X097050D01*
X095900D02*
Y094995D01*
X097050D01*
Y094335D02*
Y094995D01*
X027450Y104178D02*
Y104838D01*
Y104178D02*
X028600D01*
Y104838D01*
X027450D02*
X028600D01*
X028200Y104178D02*
Y104828D01*
X038043Y104178D02*
Y104828D01*
X037293Y104838D02*
X038443D01*
Y104178D02*
Y104838D01*
X037293Y104178D02*
X038443D01*
X037293D02*
Y104838D01*
X047135Y104178D02*
Y104838D01*
Y104178D02*
X048285D01*
Y104838D01*
X047135D02*
X048285D01*
X047885Y104178D02*
Y104828D01*
X057728Y104178D02*
Y104828D01*
X056978Y104838D02*
X058128D01*
Y104178D02*
Y104838D01*
X056978Y104178D02*
X058128D01*
X056978D02*
Y104838D01*
X066820Y104178D02*
Y104838D01*
Y104178D02*
X067970D01*
Y104838D01*
X066820D02*
X067970D01*
X067570Y104178D02*
Y104828D01*
X077413Y104178D02*
Y104828D01*
X076663Y104838D02*
X077813D01*
Y104178D02*
Y104838D01*
X076663Y104178D02*
X077813D01*
X076663D02*
Y104838D01*
X086505Y104178D02*
Y104838D01*
Y104178D02*
X087655D01*
Y104838D01*
X086505D02*
X087655D01*
X087255Y104178D02*
Y104828D01*
X096300Y104188D02*
Y104838D01*
X095900Y104178D02*
X097050D01*
X095900D02*
Y104838D01*
X097050D01*
Y104178D02*
Y104838D01*
X096300Y035290D02*
Y035940D01*
X095900Y035280D02*
X097050D01*
X095900D02*
Y035940D01*
X097050D01*
Y035280D02*
Y035940D01*
D35*
X062800Y030100D02*
Y031100D01*
X061800Y030100D02*
Y031100D01*
X062800D01*
X053800D02*
X062800D01*
X053800Y030100D02*
Y031100D01*
Y030100D02*
X062800D01*
Y031000D01*
D36*
X056083Y112167D02*
X056000Y112250D01*
X055833D01*
X055750Y112167D01*
Y111833D01*
X055833Y111750D01*
X056000D01*
X056083Y111833D01*
Y112000D01*
X055917D01*
X056250Y111750D02*
Y112250D01*
X056583Y111750D01*
Y112250D01*
X056750D02*
Y111750D01*
X057000D01*
X057083Y111833D01*
Y112167D01*
X057000Y112250D01*
X056750D01*
X055350Y113350D02*
Y113017D01*
X055517Y112850D01*
X055683Y113017D01*
Y113350D01*
X055850Y112850D02*
Y113350D01*
X056100D01*
X056183Y113267D01*
Y113100D01*
X056100Y113017D01*
X055850D01*
X056350Y112850D02*
Y113350D01*
X056600D01*
X056683Y113267D01*
Y113100D01*
X056600Y113017D01*
X056350D01*
X056516D02*
X056683Y112850D01*
X057183Y113267D02*
X057099Y113350D01*
X056933D01*
X056850Y113267D01*
Y112933D01*
X056933Y112850D01*
X057099D01*
X057183Y112933D01*
Y113100D01*
X057016D01*
X062049Y029049D02*
X062215D01*
X062132D01*
Y029549D01*
X062049Y029465D01*
X062832Y028415D02*
X062749Y028499D01*
X062582D01*
X062499Y028415D01*
Y028082D01*
X062582Y027999D01*
X062749D01*
X062832Y028082D01*
Y028249D01*
X062665D01*
X062999Y027999D02*
Y028499D01*
X063332Y027999D01*
Y028499D01*
X063499D02*
Y027999D01*
X063748D01*
X063832Y028082D01*
Y028415D01*
X063748Y028499D01*
X063499D01*
X062499Y029049D02*
Y029382D01*
X062665Y029549D01*
X062832Y029382D01*
Y029049D01*
Y029299D01*
X062499D01*
X062999Y029549D02*
Y029049D01*
X063249D01*
X063332Y029132D01*
Y029465D01*
X063249Y029549D01*
X062999D01*
X063832Y029465D02*
X063748Y029549D01*
X063582D01*
X063499Y029465D01*
Y029132D01*
X063582Y029049D01*
X063748D01*
X063832Y029132D01*
X021199Y075999D02*
Y075832D01*
Y075916D01*
X021699D01*
X021615Y075999D01*
D37*
X093499Y112799D02*
X093696D01*
X093597D01*
Y113389D01*
X093499Y113291D01*
X083449Y112799D02*
X083646D01*
X083547D01*
Y113389D01*
X083449Y113291D01*
X073499Y112849D02*
X073696D01*
X073597D01*
Y113439D01*
X073499Y113341D01*
M02*
