%FSAX24Y24*%
%MOIN*%
G70*
G01*
G75*
G04 Layer_Color=8421504*
%ADD10R,0.2000X0.0700*%
G04:AMPARAMS|DCode=11|XSize=200mil|YSize=70mil|CornerRadius=17.5mil|HoleSize=0mil|Usage=FLASHONLY|Rotation=0.000|XOffset=0mil|YOffset=0mil|HoleType=Round|Shape=RoundedRectangle|*
%AMROUNDEDRECTD11*
21,1,0.2000,0.0350,0,0,0.0*
21,1,0.1650,0.0700,0,0,0.0*
1,1,0.0350,0.0825,-0.0175*
1,1,0.0350,-0.0825,-0.0175*
1,1,0.0350,-0.0825,0.0175*
1,1,0.0350,0.0825,0.0175*
%
%ADD11ROUNDEDRECTD11*%
%ADD12C,0.0500*%
%ADD13C,0.0300*%
%ADD14C,0.0200*%
%ADD15C,0.0650*%
%ADD16C,0.0551*%
%ADD17C,0.0600*%
%ADD18R,0.0600X0.0600*%
%ADD19C,0.0591*%
%ADD20R,0.0591X0.0591*%
%ADD21R,0.0600X0.0600*%
%ADD22O,0.0787X0.0394*%
%ADD23O,0.0787X0.0394*%
%ADD24R,0.0591X0.0591*%
%ADD25C,0.0500*%
%ADD26O,0.0800X0.0400*%
%ADD27R,0.0800X0.0400*%
%ADD28R,0.0532X0.0532*%
%ADD29C,0.0532*%
%ADD30C,0.0400*%
%ADD31R,0.0098X0.0098*%
%ADD32C,0.0100*%
%ADD33C,0.0079*%
%ADD34C,0.0118*%
%ADD35C,0.0197*%
%ADD36C,0.0080*%
%ADD37C,0.0059*%
D10*
X026310Y035610D02*
D03*
X036153D02*
D03*
X045995D02*
D03*
X055838D02*
D03*
X065680D02*
D03*
X075523D02*
D03*
X085365D02*
D03*
X026310Y045453D02*
D03*
X036153D02*
D03*
X045995D02*
D03*
X055838D02*
D03*
X065680D02*
D03*
X075523D02*
D03*
X085365D02*
D03*
X098190D02*
D03*
X026310Y055295D02*
D03*
X036153D02*
D03*
X045995D02*
D03*
X055838D02*
D03*
X065680D02*
D03*
X075523D02*
D03*
X085365D02*
D03*
X098190Y055295D02*
D03*
X026310Y065138D02*
D03*
X036153D02*
D03*
X045995D02*
D03*
X055838D02*
D03*
X065680D02*
D03*
X075523D02*
D03*
X085365D02*
D03*
X098190Y065138D02*
D03*
X026310Y074980D02*
D03*
X036153D02*
D03*
X045995D02*
D03*
X055838D02*
D03*
X065680D02*
D03*
X075523D02*
D03*
X085365D02*
D03*
X098190Y074980D02*
D03*
X026310Y084823D02*
D03*
X036153D02*
D03*
X045995D02*
D03*
X055838D02*
D03*
X065680D02*
D03*
X075523D02*
D03*
X085365D02*
D03*
X098190Y084823D02*
D03*
X026310Y094665D02*
D03*
X036153D02*
D03*
X045995D02*
D03*
X055838D02*
D03*
X065680D02*
D03*
X075523D02*
D03*
X085365D02*
D03*
X098190Y094665D02*
D03*
X026310Y104508D02*
D03*
X036153D02*
D03*
X045995D02*
D03*
X055838D02*
D03*
X065680D02*
D03*
X075523D02*
D03*
X085365D02*
D03*
X098190Y104508D02*
D03*
Y035610D02*
D03*
D11*
X029740D02*
D03*
X039583D02*
D03*
X049425D02*
D03*
X059268D02*
D03*
X069110D02*
D03*
X078953D02*
D03*
X088795D02*
D03*
X029740Y045453D02*
D03*
X039583D02*
D03*
X049425D02*
D03*
X059268D02*
D03*
X069110D02*
D03*
X078953D02*
D03*
X088795D02*
D03*
X094760D02*
D03*
X029740Y055295D02*
D03*
X039583D02*
D03*
X049425D02*
D03*
X059268D02*
D03*
X069110D02*
D03*
X078953D02*
D03*
X088795D02*
D03*
X094760Y055295D02*
D03*
X029740Y065138D02*
D03*
X039583D02*
D03*
X049425D02*
D03*
X059268D02*
D03*
X069110D02*
D03*
X078953D02*
D03*
X088795D02*
D03*
X094760Y065138D02*
D03*
X029740Y074980D02*
D03*
X039583D02*
D03*
X049425D02*
D03*
X059268D02*
D03*
X069110D02*
D03*
X078953D02*
D03*
X088795D02*
D03*
X094760Y074980D02*
D03*
X029740Y084823D02*
D03*
X039583D02*
D03*
X049425D02*
D03*
X059268D02*
D03*
X069110D02*
D03*
X078953D02*
D03*
X088795D02*
D03*
X094760Y084823D02*
D03*
X029740Y094665D02*
D03*
X039583D02*
D03*
X049425D02*
D03*
X059268D02*
D03*
X069110D02*
D03*
X078953D02*
D03*
X088795D02*
D03*
X094760Y094665D02*
D03*
X029740Y104508D02*
D03*
X039583D02*
D03*
X049425D02*
D03*
X059268D02*
D03*
X069110D02*
D03*
X078953D02*
D03*
X088795D02*
D03*
X094760Y104508D02*
D03*
Y035610D02*
D03*
M02*
