%FSAX24Y24*%
%MOIN*%
G70*
G01*
G75*
G04 Layer_Color=2752767*
%ADD10R,0.2000X0.0700*%
G04:AMPARAMS|DCode=11|XSize=200mil|YSize=70mil|CornerRadius=17.5mil|HoleSize=0mil|Usage=FLASHONLY|Rotation=0.000|XOffset=0mil|YOffset=0mil|HoleType=Round|Shape=RoundedRectangle|*
%AMROUNDEDRECTD11*
21,1,0.2000,0.0350,0,0,0.0*
21,1,0.1650,0.0700,0,0,0.0*
1,1,0.0350,0.0825,-0.0175*
1,1,0.0350,-0.0825,-0.0175*
1,1,0.0350,-0.0825,0.0175*
1,1,0.0350,0.0825,0.0175*
%
%ADD11ROUNDEDRECTD11*%
%ADD12C,0.0500*%
%ADD13C,0.0300*%
%ADD14C,0.0200*%
%ADD15C,0.0650*%
%ADD16C,0.0551*%
%ADD17C,0.0600*%
%ADD18R,0.0600X0.0600*%
%ADD19C,0.0591*%
%ADD20R,0.0591X0.0591*%
%ADD21R,0.0600X0.0600*%
%ADD22O,0.0787X0.0394*%
%ADD23O,0.0787X0.0394*%
%ADD24R,0.0591X0.0591*%
%ADD25C,0.0500*%
%ADD26O,0.0800X0.0400*%
%ADD27R,0.0800X0.0400*%
%ADD28R,0.0532X0.0532*%
%ADD29C,0.0532*%
%ADD30C,0.0400*%
%ADD31R,0.0098X0.0098*%
%ADD32C,0.0100*%
%ADD33C,0.0079*%
%ADD34C,0.0118*%
%ADD35C,0.0197*%
%ADD36C,0.0080*%
%ADD37C,0.0059*%
%ADD38R,0.2080X0.0780*%
G04:AMPARAMS|DCode=39|XSize=208mil|YSize=78mil|CornerRadius=19.5mil|HoleSize=0mil|Usage=FLASHONLY|Rotation=0.000|XOffset=0mil|YOffset=0mil|HoleType=Round|Shape=RoundedRectangle|*
%AMROUNDEDRECTD39*
21,1,0.2080,0.0390,0,0,0.0*
21,1,0.1690,0.0780,0,0,0.0*
1,1,0.0390,0.0845,-0.0195*
1,1,0.0390,-0.0845,-0.0195*
1,1,0.0390,-0.0845,0.0195*
1,1,0.0390,0.0845,0.0195*
%
%ADD39ROUNDEDRECTD39*%
%ADD40C,0.0730*%
%ADD41C,0.0631*%
%ADD42C,0.0680*%
%ADD43R,0.0680X0.0680*%
%ADD44C,0.0671*%
%ADD45R,0.0671X0.0671*%
%ADD46R,0.0680X0.0680*%
%ADD47O,0.0867X0.0474*%
%ADD48O,0.0867X0.0474*%
%ADD49R,0.0671X0.0671*%
%ADD50C,0.0080*%
%ADD51C,0.0580*%
%ADD52O,0.0880X0.0480*%
%ADD53R,0.0880X0.0480*%
%ADD54R,0.0612X0.0612*%
%ADD55C,0.0612*%
%ADD56C,0.0480*%
%ADD57C,0.1950*%
%ADD58C,0.0067*%
%ADD59C,0.0040*%
D37*
X101300Y048300D02*
Y048700D01*
X101700D01*
Y048300D01*
X101300D01*
Y049300D02*
Y049700D01*
X101700D01*
Y049300D01*
X101300D01*
Y067950D02*
Y068350D01*
X101700D01*
Y067950D01*
X101300D01*
Y068950D02*
Y069350D01*
X101700D01*
Y068950D01*
X101300D01*
Y087650D02*
Y088050D01*
X101700D01*
Y087650D01*
X101300D01*
Y088650D02*
Y089050D01*
X101700D01*
Y088650D01*
X101300D01*
Y107350D02*
Y107750D01*
X101700D01*
Y107350D01*
X101300D01*
Y108350D02*
Y108750D01*
X101700D01*
Y108350D01*
X101300D01*
X054300Y030400D02*
X054100Y030800D01*
X054500D01*
X054300Y030400D01*
X055300D02*
X055100Y030800D01*
X055500D01*
X055300Y030400D01*
X056300D02*
X056100Y030800D01*
X056500D01*
X056300Y030400D01*
X057300D02*
X057100Y030800D01*
X057500D01*
X057300Y030400D01*
X058300D02*
X058100Y030800D01*
X058500D01*
X058300Y030400D01*
X059300D02*
X059100Y030800D01*
X059500D01*
X059300Y030400D01*
X060300D02*
X060100Y030800D01*
X060500D01*
X060300Y030400D01*
X061300D02*
X061100Y030800D01*
X061500D01*
X061300Y030400D01*
X062300D02*
X062100Y030800D01*
X062500D01*
X062300Y030400D01*
X021500Y067800D02*
X021600Y067900D01*
X021700D01*
X021600Y068000D01*
X021700Y068100D01*
X021600D01*
X021500Y068200D01*
X021400Y068100D01*
X021300D01*
X021400Y068000D01*
X021300Y067900D01*
X021400D01*
X021500Y067800D01*
Y068800D02*
X021600Y068900D01*
X021700D01*
X021600Y069000D01*
X021700Y069100D01*
X021600D01*
X021500Y069200D01*
X021400Y069100D01*
X021300D01*
X021400Y069000D01*
X021300Y068900D01*
X021400D01*
X021500Y068800D01*
Y069800D02*
X021600Y069900D01*
X021700D01*
X021600Y070000D01*
X021700Y070100D01*
X021600D01*
X021500Y070200D01*
X021400Y070100D01*
X021300D01*
X021400Y070000D01*
X021300Y069900D01*
X021400D01*
X021500Y069800D01*
Y070800D02*
X021600Y070900D01*
X021700D01*
X021600Y071000D01*
X021700Y071100D01*
X021600D01*
X021500Y071200D01*
X021400Y071100D01*
X021300D01*
X021400Y071000D01*
X021300Y070900D01*
X021400D01*
X021500Y070800D01*
Y071800D02*
X021600Y071900D01*
X021700D01*
X021600Y072000D01*
X021700Y072100D01*
X021600D01*
X021500Y072200D01*
X021400Y072100D01*
X021300D01*
X021400Y072000D01*
X021300Y071900D01*
X021400D01*
X021500Y071800D01*
Y072800D02*
X021600Y072900D01*
X021700D01*
X021600Y073000D01*
X021700Y073100D01*
X021600D01*
X021500Y073200D01*
X021400Y073100D01*
X021300D01*
X021400Y073000D01*
X021300Y072900D01*
X021400D01*
X021500Y072800D01*
Y073800D02*
X021600Y073900D01*
X021700D01*
X021600Y074000D01*
X021700Y074100D01*
X021600D01*
X021500Y074200D01*
X021400Y074100D01*
X021300D01*
X021400Y074000D01*
X021300Y073900D01*
X021400D01*
X021500Y073800D01*
Y074800D02*
X021600Y074900D01*
X021700D01*
X021600Y075000D01*
X021700Y075100D01*
X021600D01*
X021500Y075200D01*
X021400Y075100D01*
X021300D01*
X021400Y075000D01*
X021300Y074900D01*
X021400D01*
X021500Y074800D01*
X101500Y105600D02*
X101300Y106000D01*
X101700D01*
X101500Y105600D01*
Y104600D02*
X101300Y105000D01*
X101700D01*
X101500Y104600D01*
Y103600D02*
X101300Y104000D01*
X101700D01*
X101500Y103600D01*
Y102600D02*
X101300Y103000D01*
X101700D01*
X101500Y102600D01*
Y101600D02*
X101300Y102000D01*
X101700D01*
X101500Y101600D01*
Y100600D02*
X101300Y101000D01*
X101700D01*
X101500Y100600D01*
Y099600D02*
X101300Y100000D01*
X101700D01*
X101500Y099600D01*
Y098600D02*
X101300Y099000D01*
X101700D01*
X101500Y098600D01*
Y097600D02*
X101300Y098000D01*
X101700D01*
X101500Y097600D01*
Y096600D02*
X101300Y097000D01*
X101700D01*
X101500Y096600D01*
Y095600D02*
X101300Y096000D01*
X101700D01*
X101500Y095600D01*
Y094600D02*
X101300Y095000D01*
X101700D01*
X101500Y094600D01*
Y093600D02*
X101300Y094000D01*
X101700D01*
X101500Y093600D01*
Y092600D02*
X101300Y093000D01*
X101700D01*
X101500Y092600D01*
X104500Y105600D02*
X104300Y106000D01*
X104700D01*
X104500Y105600D01*
Y104600D02*
X104300Y105000D01*
X104700D01*
X104500Y104600D01*
Y103600D02*
X104300Y104000D01*
X104700D01*
X104500Y103600D01*
Y102600D02*
X104300Y103000D01*
X104700D01*
X104500Y102600D01*
Y101600D02*
X104300Y102000D01*
X104700D01*
X104500Y101600D01*
Y100600D02*
X104300Y101000D01*
X104700D01*
X104500Y100600D01*
Y099600D02*
X104300Y100000D01*
X104700D01*
X104500Y099600D01*
Y098600D02*
X104300Y099000D01*
X104700D01*
X104500Y098600D01*
Y097600D02*
X104300Y098000D01*
X104700D01*
X104500Y097600D01*
Y096600D02*
X104300Y097000D01*
X104700D01*
X104500Y096600D01*
Y095600D02*
X104300Y096000D01*
X104700D01*
X104500Y095600D01*
Y094600D02*
X104300Y095000D01*
X104700D01*
X104500Y094600D01*
Y093600D02*
X104300Y094000D01*
X104700D01*
X104500Y093600D01*
Y092600D02*
X104300Y093000D01*
X104700D01*
X104500Y092600D01*
X101500Y085900D02*
X101300Y086300D01*
X101700D01*
X101500Y085900D01*
Y084900D02*
X101300Y085300D01*
X101700D01*
X101500Y084900D01*
Y083900D02*
X101300Y084300D01*
X101700D01*
X101500Y083900D01*
Y082900D02*
X101300Y083300D01*
X101700D01*
X101500Y082900D01*
Y081900D02*
X101300Y082300D01*
X101700D01*
X101500Y081900D01*
Y080900D02*
X101300Y081300D01*
X101700D01*
X101500Y080900D01*
Y079900D02*
X101300Y080300D01*
X101700D01*
X101500Y079900D01*
Y078900D02*
X101300Y079300D01*
X101700D01*
X101500Y078900D01*
Y077900D02*
X101300Y078300D01*
X101700D01*
X101500Y077900D01*
Y076900D02*
X101300Y077300D01*
X101700D01*
X101500Y076900D01*
Y075900D02*
X101300Y076300D01*
X101700D01*
X101500Y075900D01*
Y074900D02*
X101300Y075300D01*
X101700D01*
X101500Y074900D01*
Y073900D02*
X101300Y074300D01*
X101700D01*
X101500Y073900D01*
Y072900D02*
X101300Y073300D01*
X101700D01*
X101500Y072900D01*
X104500Y085900D02*
X104300Y086300D01*
X104700D01*
X104500Y085900D01*
Y084900D02*
X104300Y085300D01*
X104700D01*
X104500Y084900D01*
Y083900D02*
X104300Y084300D01*
X104700D01*
X104500Y083900D01*
Y082900D02*
X104300Y083300D01*
X104700D01*
X104500Y082900D01*
Y081900D02*
X104300Y082300D01*
X104700D01*
X104500Y081900D01*
Y080900D02*
X104300Y081300D01*
X104700D01*
X104500Y080900D01*
Y079900D02*
X104300Y080300D01*
X104700D01*
X104500Y079900D01*
Y078900D02*
X104300Y079300D01*
X104700D01*
X104500Y078900D01*
Y077900D02*
X104300Y078300D01*
X104700D01*
X104500Y077900D01*
Y076900D02*
X104300Y077300D01*
X104700D01*
X104500Y076900D01*
Y075900D02*
X104300Y076300D01*
X104700D01*
X104500Y075900D01*
Y074900D02*
X104300Y075300D01*
X104700D01*
X104500Y074900D01*
Y073900D02*
X104300Y074300D01*
X104700D01*
X104500Y073900D01*
Y072900D02*
X104300Y073300D01*
X104700D01*
X104500Y072900D01*
X101500Y066200D02*
X101300Y066600D01*
X101700D01*
X101500Y066200D01*
Y065200D02*
X101300Y065600D01*
X101700D01*
X101500Y065200D01*
Y064200D02*
X101300Y064600D01*
X101700D01*
X101500Y064200D01*
Y063200D02*
X101300Y063600D01*
X101700D01*
X101500Y063200D01*
Y062200D02*
X101300Y062600D01*
X101700D01*
X101500Y062200D01*
Y061200D02*
X101300Y061600D01*
X101700D01*
X101500Y061200D01*
Y060200D02*
X101300Y060600D01*
X101700D01*
X101500Y060200D01*
Y059200D02*
X101300Y059600D01*
X101700D01*
X101500Y059200D01*
Y058200D02*
X101300Y058600D01*
X101700D01*
X101500Y058200D01*
Y057200D02*
X101300Y057600D01*
X101700D01*
X101500Y057200D01*
Y056200D02*
X101300Y056600D01*
X101700D01*
X101500Y056200D01*
Y055200D02*
X101300Y055600D01*
X101700D01*
X101500Y055200D01*
Y054200D02*
X101300Y054600D01*
X101700D01*
X101500Y054200D01*
Y053200D02*
X101300Y053600D01*
X101700D01*
X101500Y053200D01*
X104500Y066200D02*
X104300Y066600D01*
X104700D01*
X104500Y066200D01*
Y065200D02*
X104300Y065600D01*
X104700D01*
X104500Y065200D01*
Y064200D02*
X104300Y064600D01*
X104700D01*
X104500Y064200D01*
Y063200D02*
X104300Y063600D01*
X104700D01*
X104500Y063200D01*
Y062200D02*
X104300Y062600D01*
X104700D01*
X104500Y062200D01*
Y061200D02*
X104300Y061600D01*
X104700D01*
X104500Y061200D01*
Y060200D02*
X104300Y060600D01*
X104700D01*
X104500Y060200D01*
Y059200D02*
X104300Y059600D01*
X104700D01*
X104500Y059200D01*
Y058200D02*
X104300Y058600D01*
X104700D01*
X104500Y058200D01*
Y057200D02*
X104300Y057600D01*
X104700D01*
X104500Y057200D01*
Y056200D02*
X104300Y056600D01*
X104700D01*
X104500Y056200D01*
Y055200D02*
X104300Y055600D01*
X104700D01*
X104500Y055200D01*
Y054200D02*
X104300Y054600D01*
X104700D01*
X104500Y054200D01*
Y053200D02*
X104300Y053600D01*
X104700D01*
X104500Y053200D01*
X094500Y112850D02*
X094600Y112950D01*
X094700D01*
X094600Y113050D01*
X094700Y113150D01*
X094600D01*
X094500Y113250D01*
X094400Y113150D01*
X094300D01*
X094400Y113050D01*
X094300Y112950D01*
X094400D01*
X094500Y112850D01*
Y112350D02*
X094600Y112450D01*
X094700D01*
X094600Y112550D01*
X094700Y112650D01*
X094600D01*
X094500Y112750D01*
X094400Y112650D01*
X094300D01*
X094400Y112550D01*
X094300Y112450D01*
X094400D01*
X094500Y112350D01*
Y111850D02*
X094600Y111950D01*
X094700D01*
X094600Y112050D01*
X094700Y112150D01*
X094600D01*
X094500Y112250D01*
X094400Y112150D01*
X094300D01*
X094400Y112050D01*
X094300Y111950D01*
X094400D01*
X094500Y111850D01*
X084500Y112850D02*
X084600Y112950D01*
X084700D01*
X084600Y113050D01*
X084700Y113150D01*
X084600D01*
X084500Y113250D01*
X084400Y113150D01*
X084300D01*
X084400Y113050D01*
X084300Y112950D01*
X084400D01*
X084500Y112850D01*
Y112350D02*
X084600Y112450D01*
X084700D01*
X084600Y112550D01*
X084700Y112650D01*
X084600D01*
X084500Y112750D01*
X084400Y112650D01*
X084300D01*
X084400Y112550D01*
X084300Y112450D01*
X084400D01*
X084500Y112350D01*
Y111850D02*
X084600Y111950D01*
X084700D01*
X084600Y112050D01*
X084700Y112150D01*
X084600D01*
X084500Y112250D01*
X084400Y112150D01*
X084300D01*
X084400Y112050D01*
X084300Y111950D01*
X084400D01*
X084500Y111850D01*
X101500Y046550D02*
X101300Y046950D01*
X101700D01*
X101500Y046550D01*
Y045550D02*
X101300Y045950D01*
X101700D01*
X101500Y045550D01*
Y044550D02*
X101300Y044950D01*
X101700D01*
X101500Y044550D01*
Y043550D02*
X101300Y043950D01*
X101700D01*
X101500Y043550D01*
Y042550D02*
X101300Y042950D01*
X101700D01*
X101500Y042550D01*
Y041550D02*
X101300Y041950D01*
X101700D01*
X101500Y041550D01*
Y040550D02*
X101300Y040950D01*
X101700D01*
X101500Y040550D01*
Y039550D02*
X101300Y039950D01*
X101700D01*
X101500Y039550D01*
Y038550D02*
X101300Y038950D01*
X101700D01*
X101500Y038550D01*
Y037550D02*
X101300Y037950D01*
X101700D01*
X101500Y037550D01*
Y036550D02*
X101300Y036950D01*
X101700D01*
X101500Y036550D01*
Y035550D02*
X101300Y035950D01*
X101700D01*
X101500Y035550D01*
Y034550D02*
X101300Y034950D01*
X101700D01*
X101500Y034550D01*
Y033550D02*
X101300Y033950D01*
X101700D01*
X101500Y033550D01*
X104500Y046550D02*
X104300Y046950D01*
X104700D01*
X104500Y046550D01*
Y045550D02*
X104300Y045950D01*
X104700D01*
X104500Y045550D01*
Y044550D02*
X104300Y044950D01*
X104700D01*
X104500Y044550D01*
Y043550D02*
X104300Y043950D01*
X104700D01*
X104500Y043550D01*
Y042550D02*
X104300Y042950D01*
X104700D01*
X104500Y042550D01*
Y041550D02*
X104300Y041950D01*
X104700D01*
X104500Y041550D01*
Y040550D02*
X104300Y040950D01*
X104700D01*
X104500Y040550D01*
Y039550D02*
X104300Y039950D01*
X104700D01*
X104500Y039550D01*
Y038550D02*
X104300Y038950D01*
X104700D01*
X104500Y038550D01*
Y037550D02*
X104300Y037950D01*
X104700D01*
X104500Y037550D01*
Y036550D02*
X104300Y036950D01*
X104700D01*
X104500Y036550D01*
Y035550D02*
X104300Y035950D01*
X104700D01*
X104500Y035550D01*
Y034550D02*
X104300Y034950D01*
X104700D01*
X104500Y034550D01*
Y033550D02*
X104300Y033950D01*
X104700D01*
X104500Y033550D01*
X074500Y112850D02*
X074600Y112950D01*
X074700D01*
X074600Y113050D01*
X074700Y113150D01*
X074600D01*
X074500Y113250D01*
X074400Y113150D01*
X074300D01*
X074400Y113050D01*
X074300Y112950D01*
X074400D01*
X074500Y112850D01*
Y112350D02*
X074600Y112450D01*
X074700D01*
X074600Y112550D01*
X074700Y112650D01*
X074600D01*
X074500Y112750D01*
X074400Y112650D01*
X074300D01*
X074400Y112550D01*
X074300Y112450D01*
X074400D01*
X074500Y112350D01*
Y111850D02*
X074600Y111950D01*
X074700D01*
X074600Y112050D01*
X074700Y112150D01*
X074600D01*
X074500Y112250D01*
X074400Y112150D01*
X074300D01*
X074400Y112050D01*
X074300Y111950D01*
X074400D01*
X074500Y111850D01*
X067000Y112850D02*
X067100Y112950D01*
X067200D01*
X067100Y113050D01*
X067200Y113150D01*
X067100D01*
X067000Y113250D01*
X066900Y113150D01*
X066800D01*
X066900Y113050D01*
X066800Y112950D01*
X066900D01*
X067000Y112850D01*
X066000D02*
X066100Y112950D01*
X066200D01*
X066100Y113050D01*
X066200Y113150D01*
X066100D01*
X066000Y113250D01*
X065900Y113150D01*
X065800D01*
X065900Y113050D01*
X065800Y112950D01*
X065900D01*
X066000Y112850D01*
X065000D02*
X065100Y112950D01*
X065200D01*
X065100Y113050D01*
X065200Y113150D01*
X065100D01*
X065000Y113250D01*
X064900Y113150D01*
X064800D01*
X064900Y113050D01*
X064800Y112950D01*
X064900D01*
X065000Y112850D01*
X064000D02*
X064100Y112950D01*
X064200D01*
X064100Y113050D01*
X064200Y113150D01*
X064100D01*
X064000Y113250D01*
X063900Y113150D01*
X063800D01*
X063900Y113050D01*
X063800Y112950D01*
X063900D01*
X064000Y112850D01*
X063000D02*
X063100Y112950D01*
X063200D01*
X063100Y113050D01*
X063200Y113150D01*
X063100D01*
X063000Y113250D01*
X062900Y113150D01*
X062800D01*
X062900Y113050D01*
X062800Y112950D01*
X062900D01*
X063000Y112850D01*
X062000D02*
X062100Y112950D01*
X062200D01*
X062100Y113050D01*
X062200Y113150D01*
X062100D01*
X062000Y113250D01*
X061900Y113150D01*
X061800D01*
X061900Y113050D01*
X061800Y112950D01*
X061900D01*
X062000Y112850D01*
X061000D02*
X061100Y112950D01*
X061200D01*
X061100Y113050D01*
X061200Y113150D01*
X061100D01*
X061000Y113250D01*
X060900Y113150D01*
X060800D01*
X060900Y113050D01*
X060800Y112950D01*
X060900D01*
X061000Y112850D01*
X060000D02*
X060100Y112950D01*
X060200D01*
X060100Y113050D01*
X060200Y113150D01*
X060100D01*
X060000Y113250D01*
X059900Y113150D01*
X059800D01*
X059900Y113050D01*
X059800Y112950D01*
X059900D01*
X060000Y112850D01*
X059000D02*
X059100Y112950D01*
X059200D01*
X059100Y113050D01*
X059200Y113150D01*
X059100D01*
X059000Y113250D01*
X058900Y113150D01*
X058800D01*
X058900Y113050D01*
X058800Y112950D01*
X058900D01*
X059000Y112850D01*
X058000D02*
X058100Y112950D01*
X058200D01*
X058100Y113050D01*
X058200Y113150D01*
X058100D01*
X058000Y113250D01*
X057900Y113150D01*
X057800D01*
X057900Y113050D01*
X057800Y112950D01*
X057900D01*
X058000Y112850D01*
X067000Y111850D02*
X067100Y111950D01*
X067200D01*
X067100Y112050D01*
X067200Y112150D01*
X067100D01*
X067000Y112250D01*
X066900Y112150D01*
X066800D01*
X066900Y112050D01*
X066800Y111950D01*
X066900D01*
X067000Y111850D01*
X066000D02*
X066100Y111950D01*
X066200D01*
X066100Y112050D01*
X066200Y112150D01*
X066100D01*
X066000Y112250D01*
X065900Y112150D01*
X065800D01*
X065900Y112050D01*
X065800Y111950D01*
X065900D01*
X066000Y111850D01*
X065000D02*
X065100Y111950D01*
X065200D01*
X065100Y112050D01*
X065200Y112150D01*
X065100D01*
X065000Y112250D01*
X064900Y112150D01*
X064800D01*
X064900Y112050D01*
X064800Y111950D01*
X064900D01*
X065000Y111850D01*
X064000D02*
X064100Y111950D01*
X064200D01*
X064100Y112050D01*
X064200Y112150D01*
X064100D01*
X064000Y112250D01*
X063900Y112150D01*
X063800D01*
X063900Y112050D01*
X063800Y111950D01*
X063900D01*
X064000Y111850D01*
X063000D02*
X063100Y111950D01*
X063200D01*
X063100Y112050D01*
X063200Y112150D01*
X063100D01*
X063000Y112250D01*
X062900Y112150D01*
X062800D01*
X062900Y112050D01*
X062800Y111950D01*
X062900D01*
X063000Y111850D01*
X062000D02*
X062100Y111950D01*
X062200D01*
X062100Y112050D01*
X062200Y112150D01*
X062100D01*
X062000Y112250D01*
X061900Y112150D01*
X061800D01*
X061900Y112050D01*
X061800Y111950D01*
X061900D01*
X062000Y111850D01*
X061000D02*
X061100Y111950D01*
X061200D01*
X061100Y112050D01*
X061200Y112150D01*
X061100D01*
X061000Y112250D01*
X060900Y112150D01*
X060800D01*
X060900Y112050D01*
X060800Y111950D01*
X060900D01*
X061000Y111850D01*
X060000D02*
X060100Y111950D01*
X060200D01*
X060100Y112050D01*
X060200Y112150D01*
X060100D01*
X060000Y112250D01*
X059900Y112150D01*
X059800D01*
X059900Y112050D01*
X059800Y111950D01*
X059900D01*
X060000Y111850D01*
X059000D02*
X059100Y111950D01*
X059200D01*
X059100Y112050D01*
X059200Y112150D01*
X059100D01*
X059000Y112250D01*
X058900Y112150D01*
X058800D01*
X058900Y112050D01*
X058800Y111950D01*
X058900D01*
X059000Y111850D01*
X058000D02*
X058100Y111950D01*
X058200D01*
X058100Y112050D01*
X058200Y112150D01*
X058100D01*
X058000Y112250D01*
X057900Y112150D01*
X057800D01*
X057900Y112050D01*
X057800Y111950D01*
X057900D01*
X058000Y111850D01*
X032721Y037050D02*
X032821Y037250D01*
X032721Y037450D01*
X032921Y037350D01*
X033121Y037450D01*
X033021Y037250D01*
X033121Y037050D01*
X032921Y037150D01*
X032721Y037050D01*
X091776D02*
X091876Y037250D01*
X091776Y037450D01*
X091976Y037350D01*
X092176Y037450D01*
X092076Y037250D01*
X092176Y037050D01*
X091976Y037150D01*
X091776Y037050D01*
X072091D02*
X072191Y037250D01*
X072091Y037450D01*
X072291Y037350D01*
X072491Y037450D01*
X072391Y037250D01*
X072491Y037050D01*
X072291Y037150D01*
X072091Y037050D01*
X052406D02*
X052506Y037250D01*
X052406Y037450D01*
X052606Y037350D01*
X052806Y037450D01*
X052706Y037250D01*
X052806Y037050D01*
X052606Y037150D01*
X052406Y037050D01*
X091776Y046893D02*
X091876Y047093D01*
X091776Y047293D01*
X091976Y047193D01*
X092176Y047293D01*
X092076Y047093D01*
X092176Y046893D01*
X091976Y046993D01*
X091776Y046893D01*
X072091D02*
X072191Y047093D01*
X072091Y047293D01*
X072291Y047193D01*
X072491Y047293D01*
X072391Y047093D01*
X072491Y046893D01*
X072291Y046993D01*
X072091Y046893D01*
X052406D02*
X052506Y047093D01*
X052406Y047293D01*
X052606Y047193D01*
X052806Y047293D01*
X052706Y047093D01*
X052806Y046893D01*
X052606Y046993D01*
X052406Y046893D01*
X032721D02*
X032821Y047093D01*
X032721Y047293D01*
X032921Y047193D01*
X033121Y047293D01*
X033021Y047093D01*
X033121Y046893D01*
X032921Y046993D01*
X032721Y046893D01*
X091776Y056735D02*
X091876Y056935D01*
X091776Y057135D01*
X091976Y057035D01*
X092176Y057135D01*
X092076Y056935D01*
X092176Y056735D01*
X091976Y056835D01*
X091776Y056735D01*
X072091D02*
X072191Y056935D01*
X072091Y057135D01*
X072291Y057035D01*
X072491Y057135D01*
X072391Y056935D01*
X072491Y056735D01*
X072291Y056835D01*
X072091Y056735D01*
X052406D02*
X052506Y056935D01*
X052406Y057135D01*
X052606Y057035D01*
X052806Y057135D01*
X052706Y056935D01*
X052806Y056735D01*
X052606Y056835D01*
X052406Y056735D01*
X032721D02*
X032821Y056935D01*
X032721Y057135D01*
X032921Y057035D01*
X033121Y057135D01*
X033021Y056935D01*
X033121Y056735D01*
X032921Y056835D01*
X032721Y056735D01*
X091776Y066578D02*
X091876Y066778D01*
X091776Y066978D01*
X091976Y066878D01*
X092176Y066978D01*
X092076Y066778D01*
X092176Y066578D01*
X091976Y066678D01*
X091776Y066578D01*
X072091D02*
X072191Y066778D01*
X072091Y066978D01*
X072291Y066878D01*
X072491Y066978D01*
X072391Y066778D01*
X072491Y066578D01*
X072291Y066678D01*
X072091Y066578D01*
X052406D02*
X052506Y066778D01*
X052406Y066978D01*
X052606Y066878D01*
X052806Y066978D01*
X052706Y066778D01*
X052806Y066578D01*
X052606Y066678D01*
X052406Y066578D01*
X032721D02*
X032821Y066778D01*
X032721Y066978D01*
X032921Y066878D01*
X033121Y066978D01*
X033021Y066778D01*
X033121Y066578D01*
X032921Y066678D01*
X032721Y066578D01*
X091776Y076420D02*
X091876Y076620D01*
X091776Y076820D01*
X091976Y076720D01*
X092176Y076820D01*
X092076Y076620D01*
X092176Y076420D01*
X091976Y076520D01*
X091776Y076420D01*
X072091D02*
X072191Y076620D01*
X072091Y076820D01*
X072291Y076720D01*
X072491Y076820D01*
X072391Y076620D01*
X072491Y076420D01*
X072291Y076520D01*
X072091Y076420D01*
X052406D02*
X052506Y076620D01*
X052406Y076820D01*
X052606Y076720D01*
X052806Y076820D01*
X052706Y076620D01*
X052806Y076420D01*
X052606Y076520D01*
X052406Y076420D01*
X032721D02*
X032821Y076620D01*
X032721Y076820D01*
X032921Y076720D01*
X033121Y076820D01*
X033021Y076620D01*
X033121Y076420D01*
X032921Y076520D01*
X032721Y076420D01*
X091776Y086263D02*
X091876Y086463D01*
X091776Y086663D01*
X091976Y086563D01*
X092176Y086663D01*
X092076Y086463D01*
X092176Y086263D01*
X091976Y086363D01*
X091776Y086263D01*
X072091D02*
X072191Y086463D01*
X072091Y086663D01*
X072291Y086563D01*
X072491Y086663D01*
X072391Y086463D01*
X072491Y086263D01*
X072291Y086363D01*
X072091Y086263D01*
X052406D02*
X052506Y086463D01*
X052406Y086663D01*
X052606Y086563D01*
X052806Y086663D01*
X052706Y086463D01*
X052806Y086263D01*
X052606Y086363D01*
X052406Y086263D01*
X032721D02*
X032821Y086463D01*
X032721Y086663D01*
X032921Y086563D01*
X033121Y086663D01*
X033021Y086463D01*
X033121Y086263D01*
X032921Y086363D01*
X032721Y086263D01*
X091776Y096105D02*
X091876Y096305D01*
X091776Y096505D01*
X091976Y096405D01*
X092176Y096505D01*
X092076Y096305D01*
X092176Y096105D01*
X091976Y096205D01*
X091776Y096105D01*
X072091D02*
X072191Y096305D01*
X072091Y096505D01*
X072291Y096405D01*
X072491Y096505D01*
X072391Y096305D01*
X072491Y096105D01*
X072291Y096205D01*
X072091Y096105D01*
X052406D02*
X052506Y096305D01*
X052406Y096505D01*
X052606Y096405D01*
X052806Y096505D01*
X052706Y096305D01*
X052806Y096105D01*
X052606Y096205D01*
X052406Y096105D01*
X032721D02*
X032821Y096305D01*
X032721Y096505D01*
X032921Y096405D01*
X033121Y096505D01*
X033021Y096305D01*
X033121Y096105D01*
X032921Y096205D01*
X032721Y096105D01*
X091776Y105948D02*
X091876Y106148D01*
X091776Y106348D01*
X091976Y106248D01*
X092176Y106348D01*
X092076Y106148D01*
X092176Y105948D01*
X091976Y106048D01*
X091776Y105948D01*
X072091D02*
X072191Y106148D01*
X072091Y106348D01*
X072291Y106248D01*
X072491Y106348D01*
X072391Y106148D01*
X072491Y105948D01*
X072291Y106048D01*
X072091Y105948D01*
X052406D02*
X052506Y106148D01*
X052406Y106348D01*
X052606Y106248D01*
X052806Y106348D01*
X052706Y106148D01*
X052806Y105948D01*
X052606Y106048D01*
X052406Y105948D01*
X032721D02*
X032821Y106148D01*
X032721Y106348D01*
X032921Y106248D01*
X033121Y106348D01*
X033021Y106148D01*
X033121Y105948D01*
X032921Y106048D01*
X032721Y105948D01*
X096698Y041971D02*
X096798Y042171D01*
X096698Y042371D01*
X096898Y042271D01*
X097098Y042371D01*
X096998Y042171D01*
X097098Y041971D01*
X096898Y042071D01*
X096698Y041971D01*
X077013D02*
X077113Y042171D01*
X077013Y042371D01*
X077213Y042271D01*
X077413Y042371D01*
X077313Y042171D01*
X077413Y041971D01*
X077213Y042071D01*
X077013Y041971D01*
X057328D02*
X057428Y042171D01*
X057328Y042371D01*
X057528Y042271D01*
X057728Y042371D01*
X057628Y042171D01*
X057728Y041971D01*
X057528Y042071D01*
X057328Y041971D01*
X037643D02*
X037743Y042171D01*
X037643Y042371D01*
X037843Y042271D01*
X038043Y042371D01*
X037943Y042171D01*
X038043Y041971D01*
X037843Y042071D01*
X037643Y041971D01*
X047485Y041970D02*
X047585Y042170D01*
X047485Y042370D01*
X047685Y042270D01*
X047885Y042370D01*
X047785Y042170D01*
X047885Y041970D01*
X047685Y042070D01*
X047485Y041970D01*
X067170D02*
X067270Y042170D01*
X067170Y042370D01*
X067370Y042270D01*
X067570Y042370D01*
X067470Y042170D01*
X067570Y041970D01*
X067370Y042070D01*
X067170Y041970D01*
X086855D02*
X086955Y042170D01*
X086855Y042370D01*
X087055Y042270D01*
X087255Y042370D01*
X087155Y042170D01*
X087255Y041970D01*
X087055Y042070D01*
X086855Y041970D01*
X096698Y061656D02*
X096798Y061856D01*
X096698Y062056D01*
X096898Y061956D01*
X097098Y062056D01*
X096998Y061856D01*
X097098Y061656D01*
X096898Y061756D01*
X096698Y061656D01*
X077013D02*
X077113Y061856D01*
X077013Y062056D01*
X077213Y061956D01*
X077413Y062056D01*
X077313Y061856D01*
X077413Y061656D01*
X077213Y061756D01*
X077013Y061656D01*
X057328D02*
X057428Y061856D01*
X057328Y062056D01*
X057528Y061956D01*
X057728Y062056D01*
X057628Y061856D01*
X057728Y061656D01*
X057528Y061756D01*
X057328Y061656D01*
X047485D02*
X047585Y061856D01*
X047485Y062056D01*
X047685Y061956D01*
X047885Y062056D01*
X047785Y061856D01*
X047885Y061656D01*
X047685Y061756D01*
X047485Y061656D01*
X037643D02*
X037743Y061856D01*
X037643Y062056D01*
X037843Y061956D01*
X038043Y062056D01*
X037943Y061856D01*
X038043Y061656D01*
X037843Y061756D01*
X037643Y061656D01*
X027800D02*
X027900Y061856D01*
X027800Y062056D01*
X028000Y061956D01*
X028200Y062056D01*
X028100Y061856D01*
X028200Y061656D01*
X028000Y061756D01*
X027800Y061656D01*
X067170Y061655D02*
X067270Y061855D01*
X067170Y062055D01*
X067370Y061955D01*
X067570Y062055D01*
X067470Y061855D01*
X067570Y061655D01*
X067370Y061755D01*
X067170Y061655D01*
X086855D02*
X086955Y061855D01*
X086855Y062055D01*
X087055Y061955D01*
X087255Y062055D01*
X087155Y061855D01*
X087255Y061655D01*
X087055Y061755D01*
X086855Y061655D01*
X096698Y081341D02*
X096798Y081541D01*
X096698Y081741D01*
X096898Y081641D01*
X097098Y081741D01*
X096998Y081541D01*
X097098Y081341D01*
X096898Y081441D01*
X096698Y081341D01*
X077013D02*
X077113Y081541D01*
X077013Y081741D01*
X077213Y081641D01*
X077413Y081741D01*
X077313Y081541D01*
X077413Y081341D01*
X077213Y081441D01*
X077013Y081341D01*
X057328D02*
X057428Y081541D01*
X057328Y081741D01*
X057528Y081641D01*
X057728Y081741D01*
X057628Y081541D01*
X057728Y081341D01*
X057528Y081441D01*
X057328Y081341D01*
X047485D02*
X047585Y081541D01*
X047485Y081741D01*
X047685Y081641D01*
X047885Y081741D01*
X047785Y081541D01*
X047885Y081341D01*
X047685Y081441D01*
X047485Y081341D01*
X037643D02*
X037743Y081541D01*
X037643Y081741D01*
X037843Y081641D01*
X038043Y081741D01*
X037943Y081541D01*
X038043Y081341D01*
X037843Y081441D01*
X037643Y081341D01*
X027800D02*
X027900Y081541D01*
X027800Y081741D01*
X028000Y081641D01*
X028200Y081741D01*
X028100Y081541D01*
X028200Y081341D01*
X028000Y081441D01*
X027800Y081341D01*
X067170Y081340D02*
X067270Y081540D01*
X067170Y081740D01*
X067370Y081640D01*
X067570Y081740D01*
X067470Y081540D01*
X067570Y081340D01*
X067370Y081440D01*
X067170Y081340D01*
X086855D02*
X086955Y081540D01*
X086855Y081740D01*
X087055Y081640D01*
X087255Y081740D01*
X087155Y081540D01*
X087255Y081340D01*
X087055Y081440D01*
X086855Y081340D01*
X096698Y101026D02*
X096798Y101226D01*
X096698Y101426D01*
X096898Y101326D01*
X097098Y101426D01*
X096998Y101226D01*
X097098Y101026D01*
X096898Y101126D01*
X096698Y101026D01*
X077013D02*
X077113Y101226D01*
X077013Y101426D01*
X077213Y101326D01*
X077413Y101426D01*
X077313Y101226D01*
X077413Y101026D01*
X077213Y101126D01*
X077013Y101026D01*
X057328D02*
X057428Y101226D01*
X057328Y101426D01*
X057528Y101326D01*
X057728Y101426D01*
X057628Y101226D01*
X057728Y101026D01*
X057528Y101126D01*
X057328Y101026D01*
X047485D02*
X047585Y101226D01*
X047485Y101426D01*
X047685Y101326D01*
X047885Y101426D01*
X047785Y101226D01*
X047885Y101026D01*
X047685Y101126D01*
X047485Y101026D01*
X037643D02*
X037743Y101226D01*
X037643Y101426D01*
X037843Y101326D01*
X038043Y101426D01*
X037943Y101226D01*
X038043Y101026D01*
X037843Y101126D01*
X037643Y101026D01*
X027800D02*
X027900Y101226D01*
X027800Y101426D01*
X028000Y101326D01*
X028200Y101426D01*
X028100Y101226D01*
X028200Y101026D01*
X028000Y101126D01*
X027800Y101026D01*
X067170Y101025D02*
X067270Y101225D01*
X067170Y101425D01*
X067370Y101325D01*
X067570Y101425D01*
X067470Y101225D01*
X067570Y101025D01*
X067370Y101125D01*
X067170Y101025D01*
X086855D02*
X086955Y101225D01*
X086855Y101425D01*
X087055Y101325D01*
X087255Y101425D01*
X087155Y101225D01*
X087255Y101025D01*
X087055Y101125D01*
X086855Y101025D01*
X027800Y041971D02*
X027900Y042171D01*
X027800Y042371D01*
X028000Y042271D01*
X028200Y042371D01*
X028100Y042171D01*
X028200Y041971D01*
X028000Y042071D01*
X027800Y041971D01*
X032721D02*
X032821Y042171D01*
X032721Y042371D01*
X032921Y042271D01*
X033121Y042371D01*
X033021Y042171D01*
X033121Y041971D01*
X032921Y042071D01*
X032721Y041971D01*
X091776D02*
X091876Y042171D01*
X091776Y042371D01*
X091976Y042271D01*
X092176Y042371D01*
X092076Y042171D01*
X092176Y041971D01*
X091976Y042071D01*
X091776Y041971D01*
X062249D02*
X062349Y042171D01*
X062249Y042371D01*
X062449Y042271D01*
X062649Y042371D01*
X062549Y042171D01*
X062649Y041971D01*
X062449Y042071D01*
X062249Y041971D01*
X091776Y071499D02*
X091876Y071699D01*
X091776Y071899D01*
X091976Y071799D01*
X092176Y071899D01*
X092076Y071699D01*
X092176Y071499D01*
X091976Y071599D01*
X091776Y071499D01*
X062249D02*
X062349Y071699D01*
X062249Y071899D01*
X062449Y071799D01*
X062649Y071899D01*
X062549Y071699D01*
X062649Y071499D01*
X062449Y071599D01*
X062249Y071499D01*
X032721D02*
X032821Y071699D01*
X032721Y071899D01*
X032921Y071799D01*
X033121Y071899D01*
X033021Y071699D01*
X033121Y071499D01*
X032921Y071599D01*
X032721Y071499D01*
X091776Y101026D02*
X091876Y101226D01*
X091776Y101426D01*
X091976Y101326D01*
X092176Y101426D01*
X092076Y101226D01*
X092176Y101026D01*
X091976Y101126D01*
X091776Y101026D01*
X062249D02*
X062349Y101226D01*
X062249Y101426D01*
X062449Y101326D01*
X062649Y101426D01*
X062549Y101226D01*
X062649Y101026D01*
X062449Y101126D01*
X062249Y101026D01*
X032721D02*
X032821Y101226D01*
X032721Y101426D01*
X032921Y101326D01*
X033121Y101426D01*
X033021Y101226D01*
X033121Y101026D01*
X032921Y101126D01*
X032721Y101026D01*
X025500Y034300D02*
X025300Y034700D01*
X025700D01*
X025500Y034300D01*
X027900Y036400D02*
Y036300D01*
X028100D01*
Y036400D01*
X028200D01*
Y036600D01*
X028100D01*
Y036700D01*
X027900D01*
Y036600D01*
X027800D01*
Y036400D01*
X027900D01*
Y036900D02*
Y036800D01*
X028100D01*
Y036900D01*
X028200D01*
Y037100D01*
X028100D01*
Y037200D01*
X027900D01*
Y037100D01*
X027800D01*
Y036900D01*
X027900D01*
Y037400D02*
Y037300D01*
X028100D01*
Y037400D01*
X028200D01*
Y037600D01*
X028100D01*
Y037700D01*
X027900D01*
Y037600D01*
X027800D01*
Y037400D01*
X027900D01*
Y037900D02*
Y037800D01*
X028100D01*
Y037900D01*
X028200D01*
Y038100D01*
X028100D01*
Y038200D01*
X027900D01*
Y038100D01*
X027800D01*
Y037900D01*
X027900D01*
X037743D02*
Y037800D01*
X037943D01*
Y037900D01*
X038043D01*
Y038100D01*
X037943D01*
Y038200D01*
X037743D01*
Y038100D01*
X037643D01*
Y037900D01*
X037743D01*
Y037400D02*
Y037300D01*
X037943D01*
Y037400D01*
X038043D01*
Y037600D01*
X037943D01*
Y037700D01*
X037743D01*
Y037600D01*
X037643D01*
Y037400D01*
X037743D01*
Y036900D02*
Y036800D01*
X037943D01*
Y036900D01*
X038043D01*
Y037100D01*
X037943D01*
Y037200D01*
X037743D01*
Y037100D01*
X037643D01*
Y036900D01*
X037743D01*
Y036400D02*
Y036300D01*
X037943D01*
Y036400D01*
X038043D01*
Y036600D01*
X037943D01*
Y036700D01*
X037743D01*
Y036600D01*
X037643D01*
Y036400D01*
X037743D01*
X035343Y034300D02*
X035143Y034700D01*
X035543D01*
X035343Y034300D01*
X045185D02*
X044985Y034700D01*
X045385D01*
X045185Y034300D01*
X047585Y036400D02*
Y036300D01*
X047785D01*
Y036400D01*
X047885D01*
Y036600D01*
X047785D01*
Y036700D01*
X047585D01*
Y036600D01*
X047485D01*
Y036400D01*
X047585D01*
Y036900D02*
Y036800D01*
X047785D01*
Y036900D01*
X047885D01*
Y037100D01*
X047785D01*
Y037200D01*
X047585D01*
Y037100D01*
X047485D01*
Y036900D01*
X047585D01*
Y037400D02*
Y037300D01*
X047785D01*
Y037400D01*
X047885D01*
Y037600D01*
X047785D01*
Y037700D01*
X047585D01*
Y037600D01*
X047485D01*
Y037400D01*
X047585D01*
Y037900D02*
Y037800D01*
X047785D01*
Y037900D01*
X047885D01*
Y038100D01*
X047785D01*
Y038200D01*
X047585D01*
Y038100D01*
X047485D01*
Y037900D01*
X047585D01*
X057428D02*
Y037800D01*
X057628D01*
Y037900D01*
X057728D01*
Y038100D01*
X057628D01*
Y038200D01*
X057428D01*
Y038100D01*
X057328D01*
Y037900D01*
X057428D01*
Y037400D02*
Y037300D01*
X057628D01*
Y037400D01*
X057728D01*
Y037600D01*
X057628D01*
Y037700D01*
X057428D01*
Y037600D01*
X057328D01*
Y037400D01*
X057428D01*
Y036900D02*
Y036800D01*
X057628D01*
Y036900D01*
X057728D01*
Y037100D01*
X057628D01*
Y037200D01*
X057428D01*
Y037100D01*
X057328D01*
Y036900D01*
X057428D01*
Y036400D02*
Y036300D01*
X057628D01*
Y036400D01*
X057728D01*
Y036600D01*
X057628D01*
Y036700D01*
X057428D01*
Y036600D01*
X057328D01*
Y036400D01*
X057428D01*
X055028Y034300D02*
X054828Y034700D01*
X055228D01*
X055028Y034300D01*
X064870D02*
X064670Y034700D01*
X065070D01*
X064870Y034300D01*
X067270Y036400D02*
Y036300D01*
X067470D01*
Y036400D01*
X067570D01*
Y036600D01*
X067470D01*
Y036700D01*
X067270D01*
Y036600D01*
X067170D01*
Y036400D01*
X067270D01*
Y036900D02*
Y036800D01*
X067470D01*
Y036900D01*
X067570D01*
Y037100D01*
X067470D01*
Y037200D01*
X067270D01*
Y037100D01*
X067170D01*
Y036900D01*
X067270D01*
Y037400D02*
Y037300D01*
X067470D01*
Y037400D01*
X067570D01*
Y037600D01*
X067470D01*
Y037700D01*
X067270D01*
Y037600D01*
X067170D01*
Y037400D01*
X067270D01*
Y037900D02*
Y037800D01*
X067470D01*
Y037900D01*
X067570D01*
Y038100D01*
X067470D01*
Y038200D01*
X067270D01*
Y038100D01*
X067170D01*
Y037900D01*
X067270D01*
X077113D02*
Y037800D01*
X077313D01*
Y037900D01*
X077413D01*
Y038100D01*
X077313D01*
Y038200D01*
X077113D01*
Y038100D01*
X077013D01*
Y037900D01*
X077113D01*
Y037400D02*
Y037300D01*
X077313D01*
Y037400D01*
X077413D01*
Y037600D01*
X077313D01*
Y037700D01*
X077113D01*
Y037600D01*
X077013D01*
Y037400D01*
X077113D01*
Y036900D02*
Y036800D01*
X077313D01*
Y036900D01*
X077413D01*
Y037100D01*
X077313D01*
Y037200D01*
X077113D01*
Y037100D01*
X077013D01*
Y036900D01*
X077113D01*
Y036400D02*
Y036300D01*
X077313D01*
Y036400D01*
X077413D01*
Y036600D01*
X077313D01*
Y036700D01*
X077113D01*
Y036600D01*
X077013D01*
Y036400D01*
X077113D01*
X074713Y034300D02*
X074513Y034700D01*
X074913D01*
X074713Y034300D01*
X084555D02*
X084355Y034700D01*
X084755D01*
X084555Y034300D01*
X086955Y036400D02*
Y036300D01*
X087155D01*
Y036400D01*
X087255D01*
Y036600D01*
X087155D01*
Y036700D01*
X086955D01*
Y036600D01*
X086855D01*
Y036400D01*
X086955D01*
Y036900D02*
Y036800D01*
X087155D01*
Y036900D01*
X087255D01*
Y037100D01*
X087155D01*
Y037200D01*
X086955D01*
Y037100D01*
X086855D01*
Y036900D01*
X086955D01*
Y037400D02*
Y037300D01*
X087155D01*
Y037400D01*
X087255D01*
Y037600D01*
X087155D01*
Y037700D01*
X086955D01*
Y037600D01*
X086855D01*
Y037400D01*
X086955D01*
Y037900D02*
Y037800D01*
X087155D01*
Y037900D01*
X087255D01*
Y038100D01*
X087155D01*
Y038200D01*
X086955D01*
Y038100D01*
X086855D01*
Y037900D01*
X086955D01*
X096798D02*
Y037800D01*
X096998D01*
Y037900D01*
X097098D01*
Y038100D01*
X096998D01*
Y038200D01*
X096798D01*
Y038100D01*
X096698D01*
Y037900D01*
X096798D01*
Y037400D02*
Y037300D01*
X096998D01*
Y037400D01*
X097098D01*
Y037600D01*
X096998D01*
Y037700D01*
X096798D01*
Y037600D01*
X096698D01*
Y037400D01*
X096798D01*
Y036900D02*
Y036800D01*
X096998D01*
Y036900D01*
X097098D01*
Y037100D01*
X096998D01*
Y037200D01*
X096798D01*
Y037100D01*
X096698D01*
Y036900D01*
X096798D01*
Y036400D02*
Y036300D01*
X096998D01*
Y036400D01*
X097098D01*
Y036600D01*
X096998D01*
Y036700D01*
X096798D01*
Y036600D01*
X096698D01*
Y036400D01*
X096798D01*
X094398Y034300D02*
X094198Y034700D01*
X094598D01*
X094398Y034300D01*
X025500Y044143D02*
X025300Y044543D01*
X025700D01*
X025500Y044143D01*
X027900Y046243D02*
Y046143D01*
X028100D01*
Y046243D01*
X028200D01*
Y046443D01*
X028100D01*
Y046543D01*
X027900D01*
Y046443D01*
X027800D01*
Y046243D01*
X027900D01*
Y046743D02*
Y046643D01*
X028100D01*
Y046743D01*
X028200D01*
Y046943D01*
X028100D01*
Y047043D01*
X027900D01*
Y046943D01*
X027800D01*
Y046743D01*
X027900D01*
Y047243D02*
Y047143D01*
X028100D01*
Y047243D01*
X028200D01*
Y047443D01*
X028100D01*
Y047543D01*
X027900D01*
Y047443D01*
X027800D01*
Y047243D01*
X027900D01*
Y047743D02*
Y047643D01*
X028100D01*
Y047743D01*
X028200D01*
Y047943D01*
X028100D01*
Y048043D01*
X027900D01*
Y047943D01*
X027800D01*
Y047743D01*
X027900D01*
X037743D02*
Y047643D01*
X037943D01*
Y047743D01*
X038043D01*
Y047943D01*
X037943D01*
Y048043D01*
X037743D01*
Y047943D01*
X037643D01*
Y047743D01*
X037743D01*
Y047243D02*
Y047143D01*
X037943D01*
Y047243D01*
X038043D01*
Y047443D01*
X037943D01*
Y047543D01*
X037743D01*
Y047443D01*
X037643D01*
Y047243D01*
X037743D01*
Y046743D02*
Y046643D01*
X037943D01*
Y046743D01*
X038043D01*
Y046943D01*
X037943D01*
Y047043D01*
X037743D01*
Y046943D01*
X037643D01*
Y046743D01*
X037743D01*
Y046243D02*
Y046143D01*
X037943D01*
Y046243D01*
X038043D01*
Y046443D01*
X037943D01*
Y046543D01*
X037743D01*
Y046443D01*
X037643D01*
Y046243D01*
X037743D01*
X035343Y044143D02*
X035143Y044543D01*
X035543D01*
X035343Y044143D01*
X045185D02*
X044985Y044543D01*
X045385D01*
X045185Y044143D01*
X047585Y046243D02*
Y046143D01*
X047785D01*
Y046243D01*
X047885D01*
Y046443D01*
X047785D01*
Y046543D01*
X047585D01*
Y046443D01*
X047485D01*
Y046243D01*
X047585D01*
Y046743D02*
Y046643D01*
X047785D01*
Y046743D01*
X047885D01*
Y046943D01*
X047785D01*
Y047043D01*
X047585D01*
Y046943D01*
X047485D01*
Y046743D01*
X047585D01*
Y047243D02*
Y047143D01*
X047785D01*
Y047243D01*
X047885D01*
Y047443D01*
X047785D01*
Y047543D01*
X047585D01*
Y047443D01*
X047485D01*
Y047243D01*
X047585D01*
Y047743D02*
Y047643D01*
X047785D01*
Y047743D01*
X047885D01*
Y047943D01*
X047785D01*
Y048043D01*
X047585D01*
Y047943D01*
X047485D01*
Y047743D01*
X047585D01*
X057428D02*
Y047643D01*
X057628D01*
Y047743D01*
X057728D01*
Y047943D01*
X057628D01*
Y048043D01*
X057428D01*
Y047943D01*
X057328D01*
Y047743D01*
X057428D01*
Y047243D02*
Y047143D01*
X057628D01*
Y047243D01*
X057728D01*
Y047443D01*
X057628D01*
Y047543D01*
X057428D01*
Y047443D01*
X057328D01*
Y047243D01*
X057428D01*
Y046743D02*
Y046643D01*
X057628D01*
Y046743D01*
X057728D01*
Y046943D01*
X057628D01*
Y047043D01*
X057428D01*
Y046943D01*
X057328D01*
Y046743D01*
X057428D01*
Y046243D02*
Y046143D01*
X057628D01*
Y046243D01*
X057728D01*
Y046443D01*
X057628D01*
Y046543D01*
X057428D01*
Y046443D01*
X057328D01*
Y046243D01*
X057428D01*
X055028Y044143D02*
X054828Y044543D01*
X055228D01*
X055028Y044143D01*
X064870D02*
X064670Y044543D01*
X065070D01*
X064870Y044143D01*
X067270Y046243D02*
Y046143D01*
X067470D01*
Y046243D01*
X067570D01*
Y046443D01*
X067470D01*
Y046543D01*
X067270D01*
Y046443D01*
X067170D01*
Y046243D01*
X067270D01*
Y046743D02*
Y046643D01*
X067470D01*
Y046743D01*
X067570D01*
Y046943D01*
X067470D01*
Y047043D01*
X067270D01*
Y046943D01*
X067170D01*
Y046743D01*
X067270D01*
Y047243D02*
Y047143D01*
X067470D01*
Y047243D01*
X067570D01*
Y047443D01*
X067470D01*
Y047543D01*
X067270D01*
Y047443D01*
X067170D01*
Y047243D01*
X067270D01*
Y047743D02*
Y047643D01*
X067470D01*
Y047743D01*
X067570D01*
Y047943D01*
X067470D01*
Y048043D01*
X067270D01*
Y047943D01*
X067170D01*
Y047743D01*
X067270D01*
X077113D02*
Y047643D01*
X077313D01*
Y047743D01*
X077413D01*
Y047943D01*
X077313D01*
Y048043D01*
X077113D01*
Y047943D01*
X077013D01*
Y047743D01*
X077113D01*
Y047243D02*
Y047143D01*
X077313D01*
Y047243D01*
X077413D01*
Y047443D01*
X077313D01*
Y047543D01*
X077113D01*
Y047443D01*
X077013D01*
Y047243D01*
X077113D01*
Y046743D02*
Y046643D01*
X077313D01*
Y046743D01*
X077413D01*
Y046943D01*
X077313D01*
Y047043D01*
X077113D01*
Y046943D01*
X077013D01*
Y046743D01*
X077113D01*
Y046243D02*
Y046143D01*
X077313D01*
Y046243D01*
X077413D01*
Y046443D01*
X077313D01*
Y046543D01*
X077113D01*
Y046443D01*
X077013D01*
Y046243D01*
X077113D01*
X074713Y044143D02*
X074513Y044543D01*
X074913D01*
X074713Y044143D01*
X084555D02*
X084355Y044543D01*
X084755D01*
X084555Y044143D01*
X086955Y046243D02*
Y046143D01*
X087155D01*
Y046243D01*
X087255D01*
Y046443D01*
X087155D01*
Y046543D01*
X086955D01*
Y046443D01*
X086855D01*
Y046243D01*
X086955D01*
Y046743D02*
Y046643D01*
X087155D01*
Y046743D01*
X087255D01*
Y046943D01*
X087155D01*
Y047043D01*
X086955D01*
Y046943D01*
X086855D01*
Y046743D01*
X086955D01*
Y047243D02*
Y047143D01*
X087155D01*
Y047243D01*
X087255D01*
Y047443D01*
X087155D01*
Y047543D01*
X086955D01*
Y047443D01*
X086855D01*
Y047243D01*
X086955D01*
Y047743D02*
Y047643D01*
X087155D01*
Y047743D01*
X087255D01*
Y047943D01*
X087155D01*
Y048043D01*
X086955D01*
Y047943D01*
X086855D01*
Y047743D01*
X086955D01*
X096798D02*
Y047643D01*
X096998D01*
Y047743D01*
X097098D01*
Y047943D01*
X096998D01*
Y048043D01*
X096798D01*
Y047943D01*
X096698D01*
Y047743D01*
X096798D01*
Y047243D02*
Y047143D01*
X096998D01*
Y047243D01*
X097098D01*
Y047443D01*
X096998D01*
Y047543D01*
X096798D01*
Y047443D01*
X096698D01*
Y047243D01*
X096798D01*
Y046743D02*
Y046643D01*
X096998D01*
Y046743D01*
X097098D01*
Y046943D01*
X096998D01*
Y047043D01*
X096798D01*
Y046943D01*
X096698D01*
Y046743D01*
X096798D01*
Y046243D02*
Y046143D01*
X096998D01*
Y046243D01*
X097098D01*
Y046443D01*
X096998D01*
Y046543D01*
X096798D01*
Y046443D01*
X096698D01*
Y046243D01*
X096798D01*
X094398Y044143D02*
X094198Y044543D01*
X094598D01*
X094398Y044143D01*
X025500Y053985D02*
X025300Y054385D01*
X025700D01*
X025500Y053985D01*
X027900Y056085D02*
Y055985D01*
X028100D01*
Y056085D01*
X028200D01*
Y056285D01*
X028100D01*
Y056385D01*
X027900D01*
Y056285D01*
X027800D01*
Y056085D01*
X027900D01*
Y056585D02*
Y056485D01*
X028100D01*
Y056585D01*
X028200D01*
Y056785D01*
X028100D01*
Y056885D01*
X027900D01*
Y056785D01*
X027800D01*
Y056585D01*
X027900D01*
Y057085D02*
Y056985D01*
X028100D01*
Y057085D01*
X028200D01*
Y057285D01*
X028100D01*
Y057385D01*
X027900D01*
Y057285D01*
X027800D01*
Y057085D01*
X027900D01*
Y057585D02*
Y057485D01*
X028100D01*
Y057585D01*
X028200D01*
Y057785D01*
X028100D01*
Y057885D01*
X027900D01*
Y057785D01*
X027800D01*
Y057585D01*
X027900D01*
X037743D02*
Y057485D01*
X037943D01*
Y057585D01*
X038043D01*
Y057785D01*
X037943D01*
Y057885D01*
X037743D01*
Y057785D01*
X037643D01*
Y057585D01*
X037743D01*
Y057085D02*
Y056985D01*
X037943D01*
Y057085D01*
X038043D01*
Y057285D01*
X037943D01*
Y057385D01*
X037743D01*
Y057285D01*
X037643D01*
Y057085D01*
X037743D01*
Y056585D02*
Y056485D01*
X037943D01*
Y056585D01*
X038043D01*
Y056785D01*
X037943D01*
Y056885D01*
X037743D01*
Y056785D01*
X037643D01*
Y056585D01*
X037743D01*
Y056085D02*
Y055985D01*
X037943D01*
Y056085D01*
X038043D01*
Y056285D01*
X037943D01*
Y056385D01*
X037743D01*
Y056285D01*
X037643D01*
Y056085D01*
X037743D01*
X035343Y053985D02*
X035143Y054385D01*
X035543D01*
X035343Y053985D01*
X045185D02*
X044985Y054385D01*
X045385D01*
X045185Y053985D01*
X047585Y056085D02*
Y055985D01*
X047785D01*
Y056085D01*
X047885D01*
Y056285D01*
X047785D01*
Y056385D01*
X047585D01*
Y056285D01*
X047485D01*
Y056085D01*
X047585D01*
Y056585D02*
Y056485D01*
X047785D01*
Y056585D01*
X047885D01*
Y056785D01*
X047785D01*
Y056885D01*
X047585D01*
Y056785D01*
X047485D01*
Y056585D01*
X047585D01*
Y057085D02*
Y056985D01*
X047785D01*
Y057085D01*
X047885D01*
Y057285D01*
X047785D01*
Y057385D01*
X047585D01*
Y057285D01*
X047485D01*
Y057085D01*
X047585D01*
Y057585D02*
Y057485D01*
X047785D01*
Y057585D01*
X047885D01*
Y057785D01*
X047785D01*
Y057885D01*
X047585D01*
Y057785D01*
X047485D01*
Y057585D01*
X047585D01*
X057428D02*
Y057485D01*
X057628D01*
Y057585D01*
X057728D01*
Y057785D01*
X057628D01*
Y057885D01*
X057428D01*
Y057785D01*
X057328D01*
Y057585D01*
X057428D01*
Y057085D02*
Y056985D01*
X057628D01*
Y057085D01*
X057728D01*
Y057285D01*
X057628D01*
Y057385D01*
X057428D01*
Y057285D01*
X057328D01*
Y057085D01*
X057428D01*
Y056585D02*
Y056485D01*
X057628D01*
Y056585D01*
X057728D01*
Y056785D01*
X057628D01*
Y056885D01*
X057428D01*
Y056785D01*
X057328D01*
Y056585D01*
X057428D01*
Y056085D02*
Y055985D01*
X057628D01*
Y056085D01*
X057728D01*
Y056285D01*
X057628D01*
Y056385D01*
X057428D01*
Y056285D01*
X057328D01*
Y056085D01*
X057428D01*
X055028Y053985D02*
X054828Y054385D01*
X055228D01*
X055028Y053985D01*
X064870D02*
X064670Y054385D01*
X065070D01*
X064870Y053985D01*
X067270Y056085D02*
Y055985D01*
X067470D01*
Y056085D01*
X067570D01*
Y056285D01*
X067470D01*
Y056385D01*
X067270D01*
Y056285D01*
X067170D01*
Y056085D01*
X067270D01*
Y056585D02*
Y056485D01*
X067470D01*
Y056585D01*
X067570D01*
Y056785D01*
X067470D01*
Y056885D01*
X067270D01*
Y056785D01*
X067170D01*
Y056585D01*
X067270D01*
Y057085D02*
Y056985D01*
X067470D01*
Y057085D01*
X067570D01*
Y057285D01*
X067470D01*
Y057385D01*
X067270D01*
Y057285D01*
X067170D01*
Y057085D01*
X067270D01*
Y057585D02*
Y057485D01*
X067470D01*
Y057585D01*
X067570D01*
Y057785D01*
X067470D01*
Y057885D01*
X067270D01*
Y057785D01*
X067170D01*
Y057585D01*
X067270D01*
X077113D02*
Y057485D01*
X077313D01*
Y057585D01*
X077413D01*
Y057785D01*
X077313D01*
Y057885D01*
X077113D01*
Y057785D01*
X077013D01*
Y057585D01*
X077113D01*
Y057085D02*
Y056985D01*
X077313D01*
Y057085D01*
X077413D01*
Y057285D01*
X077313D01*
Y057385D01*
X077113D01*
Y057285D01*
X077013D01*
Y057085D01*
X077113D01*
Y056585D02*
Y056485D01*
X077313D01*
Y056585D01*
X077413D01*
Y056785D01*
X077313D01*
Y056885D01*
X077113D01*
Y056785D01*
X077013D01*
Y056585D01*
X077113D01*
Y056085D02*
Y055985D01*
X077313D01*
Y056085D01*
X077413D01*
Y056285D01*
X077313D01*
Y056385D01*
X077113D01*
Y056285D01*
X077013D01*
Y056085D01*
X077113D01*
X074713Y053985D02*
X074513Y054385D01*
X074913D01*
X074713Y053985D01*
X084555D02*
X084355Y054385D01*
X084755D01*
X084555Y053985D01*
X086955Y056085D02*
Y055985D01*
X087155D01*
Y056085D01*
X087255D01*
Y056285D01*
X087155D01*
Y056385D01*
X086955D01*
Y056285D01*
X086855D01*
Y056085D01*
X086955D01*
Y056585D02*
Y056485D01*
X087155D01*
Y056585D01*
X087255D01*
Y056785D01*
X087155D01*
Y056885D01*
X086955D01*
Y056785D01*
X086855D01*
Y056585D01*
X086955D01*
Y057085D02*
Y056985D01*
X087155D01*
Y057085D01*
X087255D01*
Y057285D01*
X087155D01*
Y057385D01*
X086955D01*
Y057285D01*
X086855D01*
Y057085D01*
X086955D01*
Y057585D02*
Y057485D01*
X087155D01*
Y057585D01*
X087255D01*
Y057785D01*
X087155D01*
Y057885D01*
X086955D01*
Y057785D01*
X086855D01*
Y057585D01*
X086955D01*
X096798D02*
Y057485D01*
X096998D01*
Y057585D01*
X097098D01*
Y057785D01*
X096998D01*
Y057885D01*
X096798D01*
Y057785D01*
X096698D01*
Y057585D01*
X096798D01*
Y057085D02*
Y056985D01*
X096998D01*
Y057085D01*
X097098D01*
Y057285D01*
X096998D01*
Y057385D01*
X096798D01*
Y057285D01*
X096698D01*
Y057085D01*
X096798D01*
Y056585D02*
Y056485D01*
X096998D01*
Y056585D01*
X097098D01*
Y056785D01*
X096998D01*
Y056885D01*
X096798D01*
Y056785D01*
X096698D01*
Y056585D01*
X096798D01*
Y056085D02*
Y055985D01*
X096998D01*
Y056085D01*
X097098D01*
Y056285D01*
X096998D01*
Y056385D01*
X096798D01*
Y056285D01*
X096698D01*
Y056085D01*
X096798D01*
X094398Y053985D02*
X094198Y054385D01*
X094598D01*
X094398Y053985D01*
X025500Y063828D02*
X025300Y064228D01*
X025700D01*
X025500Y063828D01*
X027900Y065928D02*
Y065828D01*
X028100D01*
Y065928D01*
X028200D01*
Y066128D01*
X028100D01*
Y066228D01*
X027900D01*
Y066128D01*
X027800D01*
Y065928D01*
X027900D01*
Y066428D02*
Y066328D01*
X028100D01*
Y066428D01*
X028200D01*
Y066628D01*
X028100D01*
Y066728D01*
X027900D01*
Y066628D01*
X027800D01*
Y066428D01*
X027900D01*
Y066928D02*
Y066828D01*
X028100D01*
Y066928D01*
X028200D01*
Y067128D01*
X028100D01*
Y067228D01*
X027900D01*
Y067128D01*
X027800D01*
Y066928D01*
X027900D01*
Y067428D02*
Y067328D01*
X028100D01*
Y067428D01*
X028200D01*
Y067628D01*
X028100D01*
Y067728D01*
X027900D01*
Y067628D01*
X027800D01*
Y067428D01*
X027900D01*
X037743D02*
Y067328D01*
X037943D01*
Y067428D01*
X038043D01*
Y067628D01*
X037943D01*
Y067728D01*
X037743D01*
Y067628D01*
X037643D01*
Y067428D01*
X037743D01*
Y066928D02*
Y066828D01*
X037943D01*
Y066928D01*
X038043D01*
Y067128D01*
X037943D01*
Y067228D01*
X037743D01*
Y067128D01*
X037643D01*
Y066928D01*
X037743D01*
Y066428D02*
Y066328D01*
X037943D01*
Y066428D01*
X038043D01*
Y066628D01*
X037943D01*
Y066728D01*
X037743D01*
Y066628D01*
X037643D01*
Y066428D01*
X037743D01*
Y065928D02*
Y065828D01*
X037943D01*
Y065928D01*
X038043D01*
Y066128D01*
X037943D01*
Y066228D01*
X037743D01*
Y066128D01*
X037643D01*
Y065928D01*
X037743D01*
X035343Y063828D02*
X035143Y064228D01*
X035543D01*
X035343Y063828D01*
X045185D02*
X044985Y064228D01*
X045385D01*
X045185Y063828D01*
X047585Y065928D02*
Y065828D01*
X047785D01*
Y065928D01*
X047885D01*
Y066128D01*
X047785D01*
Y066228D01*
X047585D01*
Y066128D01*
X047485D01*
Y065928D01*
X047585D01*
Y066428D02*
Y066328D01*
X047785D01*
Y066428D01*
X047885D01*
Y066628D01*
X047785D01*
Y066728D01*
X047585D01*
Y066628D01*
X047485D01*
Y066428D01*
X047585D01*
Y066928D02*
Y066828D01*
X047785D01*
Y066928D01*
X047885D01*
Y067128D01*
X047785D01*
Y067228D01*
X047585D01*
Y067128D01*
X047485D01*
Y066928D01*
X047585D01*
Y067428D02*
Y067328D01*
X047785D01*
Y067428D01*
X047885D01*
Y067628D01*
X047785D01*
Y067728D01*
X047585D01*
Y067628D01*
X047485D01*
Y067428D01*
X047585D01*
X057428D02*
Y067328D01*
X057628D01*
Y067428D01*
X057728D01*
Y067628D01*
X057628D01*
Y067728D01*
X057428D01*
Y067628D01*
X057328D01*
Y067428D01*
X057428D01*
Y066928D02*
Y066828D01*
X057628D01*
Y066928D01*
X057728D01*
Y067128D01*
X057628D01*
Y067228D01*
X057428D01*
Y067128D01*
X057328D01*
Y066928D01*
X057428D01*
Y066428D02*
Y066328D01*
X057628D01*
Y066428D01*
X057728D01*
Y066628D01*
X057628D01*
Y066728D01*
X057428D01*
Y066628D01*
X057328D01*
Y066428D01*
X057428D01*
Y065928D02*
Y065828D01*
X057628D01*
Y065928D01*
X057728D01*
Y066128D01*
X057628D01*
Y066228D01*
X057428D01*
Y066128D01*
X057328D01*
Y065928D01*
X057428D01*
X055028Y063828D02*
X054828Y064228D01*
X055228D01*
X055028Y063828D01*
X064870D02*
X064670Y064228D01*
X065070D01*
X064870Y063828D01*
X067270Y065928D02*
Y065828D01*
X067470D01*
Y065928D01*
X067570D01*
Y066128D01*
X067470D01*
Y066228D01*
X067270D01*
Y066128D01*
X067170D01*
Y065928D01*
X067270D01*
Y066428D02*
Y066328D01*
X067470D01*
Y066428D01*
X067570D01*
Y066628D01*
X067470D01*
Y066728D01*
X067270D01*
Y066628D01*
X067170D01*
Y066428D01*
X067270D01*
Y066928D02*
Y066828D01*
X067470D01*
Y066928D01*
X067570D01*
Y067128D01*
X067470D01*
Y067228D01*
X067270D01*
Y067128D01*
X067170D01*
Y066928D01*
X067270D01*
Y067428D02*
Y067328D01*
X067470D01*
Y067428D01*
X067570D01*
Y067628D01*
X067470D01*
Y067728D01*
X067270D01*
Y067628D01*
X067170D01*
Y067428D01*
X067270D01*
X077113D02*
Y067328D01*
X077313D01*
Y067428D01*
X077413D01*
Y067628D01*
X077313D01*
Y067728D01*
X077113D01*
Y067628D01*
X077013D01*
Y067428D01*
X077113D01*
Y066928D02*
Y066828D01*
X077313D01*
Y066928D01*
X077413D01*
Y067128D01*
X077313D01*
Y067228D01*
X077113D01*
Y067128D01*
X077013D01*
Y066928D01*
X077113D01*
Y066428D02*
Y066328D01*
X077313D01*
Y066428D01*
X077413D01*
Y066628D01*
X077313D01*
Y066728D01*
X077113D01*
Y066628D01*
X077013D01*
Y066428D01*
X077113D01*
Y065928D02*
Y065828D01*
X077313D01*
Y065928D01*
X077413D01*
Y066128D01*
X077313D01*
Y066228D01*
X077113D01*
Y066128D01*
X077013D01*
Y065928D01*
X077113D01*
X074713Y063828D02*
X074513Y064228D01*
X074913D01*
X074713Y063828D01*
X084555D02*
X084355Y064228D01*
X084755D01*
X084555Y063828D01*
X086955Y065928D02*
Y065828D01*
X087155D01*
Y065928D01*
X087255D01*
Y066128D01*
X087155D01*
Y066228D01*
X086955D01*
Y066128D01*
X086855D01*
Y065928D01*
X086955D01*
Y066428D02*
Y066328D01*
X087155D01*
Y066428D01*
X087255D01*
Y066628D01*
X087155D01*
Y066728D01*
X086955D01*
Y066628D01*
X086855D01*
Y066428D01*
X086955D01*
Y066928D02*
Y066828D01*
X087155D01*
Y066928D01*
X087255D01*
Y067128D01*
X087155D01*
Y067228D01*
X086955D01*
Y067128D01*
X086855D01*
Y066928D01*
X086955D01*
Y067428D02*
Y067328D01*
X087155D01*
Y067428D01*
X087255D01*
Y067628D01*
X087155D01*
Y067728D01*
X086955D01*
Y067628D01*
X086855D01*
Y067428D01*
X086955D01*
X096798D02*
Y067328D01*
X096998D01*
Y067428D01*
X097098D01*
Y067628D01*
X096998D01*
Y067728D01*
X096798D01*
Y067628D01*
X096698D01*
Y067428D01*
X096798D01*
Y066928D02*
Y066828D01*
X096998D01*
Y066928D01*
X097098D01*
Y067128D01*
X096998D01*
Y067228D01*
X096798D01*
Y067128D01*
X096698D01*
Y066928D01*
X096798D01*
Y066428D02*
Y066328D01*
X096998D01*
Y066428D01*
X097098D01*
Y066628D01*
X096998D01*
Y066728D01*
X096798D01*
Y066628D01*
X096698D01*
Y066428D01*
X096798D01*
Y065928D02*
Y065828D01*
X096998D01*
Y065928D01*
X097098D01*
Y066128D01*
X096998D01*
Y066228D01*
X096798D01*
Y066128D01*
X096698D01*
Y065928D01*
X096798D01*
X094398Y063828D02*
X094198Y064228D01*
X094598D01*
X094398Y063828D01*
X025500Y073670D02*
X025300Y074070D01*
X025700D01*
X025500Y073670D01*
X027900Y075770D02*
Y075670D01*
X028100D01*
Y075770D01*
X028200D01*
Y075970D01*
X028100D01*
Y076070D01*
X027900D01*
Y075970D01*
X027800D01*
Y075770D01*
X027900D01*
Y076270D02*
Y076170D01*
X028100D01*
Y076270D01*
X028200D01*
Y076470D01*
X028100D01*
Y076570D01*
X027900D01*
Y076470D01*
X027800D01*
Y076270D01*
X027900D01*
Y076770D02*
Y076670D01*
X028100D01*
Y076770D01*
X028200D01*
Y076970D01*
X028100D01*
Y077070D01*
X027900D01*
Y076970D01*
X027800D01*
Y076770D01*
X027900D01*
Y077270D02*
Y077170D01*
X028100D01*
Y077270D01*
X028200D01*
Y077470D01*
X028100D01*
Y077570D01*
X027900D01*
Y077470D01*
X027800D01*
Y077270D01*
X027900D01*
X037743D02*
Y077170D01*
X037943D01*
Y077270D01*
X038043D01*
Y077470D01*
X037943D01*
Y077570D01*
X037743D01*
Y077470D01*
X037643D01*
Y077270D01*
X037743D01*
Y076770D02*
Y076670D01*
X037943D01*
Y076770D01*
X038043D01*
Y076970D01*
X037943D01*
Y077070D01*
X037743D01*
Y076970D01*
X037643D01*
Y076770D01*
X037743D01*
Y076270D02*
Y076170D01*
X037943D01*
Y076270D01*
X038043D01*
Y076470D01*
X037943D01*
Y076570D01*
X037743D01*
Y076470D01*
X037643D01*
Y076270D01*
X037743D01*
Y075770D02*
Y075670D01*
X037943D01*
Y075770D01*
X038043D01*
Y075970D01*
X037943D01*
Y076070D01*
X037743D01*
Y075970D01*
X037643D01*
Y075770D01*
X037743D01*
X035343Y073670D02*
X035143Y074070D01*
X035543D01*
X035343Y073670D01*
X045185D02*
X044985Y074070D01*
X045385D01*
X045185Y073670D01*
X047585Y075770D02*
Y075670D01*
X047785D01*
Y075770D01*
X047885D01*
Y075970D01*
X047785D01*
Y076070D01*
X047585D01*
Y075970D01*
X047485D01*
Y075770D01*
X047585D01*
Y076270D02*
Y076170D01*
X047785D01*
Y076270D01*
X047885D01*
Y076470D01*
X047785D01*
Y076570D01*
X047585D01*
Y076470D01*
X047485D01*
Y076270D01*
X047585D01*
Y076770D02*
Y076670D01*
X047785D01*
Y076770D01*
X047885D01*
Y076970D01*
X047785D01*
Y077070D01*
X047585D01*
Y076970D01*
X047485D01*
Y076770D01*
X047585D01*
Y077270D02*
Y077170D01*
X047785D01*
Y077270D01*
X047885D01*
Y077470D01*
X047785D01*
Y077570D01*
X047585D01*
Y077470D01*
X047485D01*
Y077270D01*
X047585D01*
X057428D02*
Y077170D01*
X057628D01*
Y077270D01*
X057728D01*
Y077470D01*
X057628D01*
Y077570D01*
X057428D01*
Y077470D01*
X057328D01*
Y077270D01*
X057428D01*
Y076770D02*
Y076670D01*
X057628D01*
Y076770D01*
X057728D01*
Y076970D01*
X057628D01*
Y077070D01*
X057428D01*
Y076970D01*
X057328D01*
Y076770D01*
X057428D01*
Y076270D02*
Y076170D01*
X057628D01*
Y076270D01*
X057728D01*
Y076470D01*
X057628D01*
Y076570D01*
X057428D01*
Y076470D01*
X057328D01*
Y076270D01*
X057428D01*
Y075770D02*
Y075670D01*
X057628D01*
Y075770D01*
X057728D01*
Y075970D01*
X057628D01*
Y076070D01*
X057428D01*
Y075970D01*
X057328D01*
Y075770D01*
X057428D01*
X055028Y073670D02*
X054828Y074070D01*
X055228D01*
X055028Y073670D01*
X064870D02*
X064670Y074070D01*
X065070D01*
X064870Y073670D01*
X067270Y075770D02*
Y075670D01*
X067470D01*
Y075770D01*
X067570D01*
Y075970D01*
X067470D01*
Y076070D01*
X067270D01*
Y075970D01*
X067170D01*
Y075770D01*
X067270D01*
Y076270D02*
Y076170D01*
X067470D01*
Y076270D01*
X067570D01*
Y076470D01*
X067470D01*
Y076570D01*
X067270D01*
Y076470D01*
X067170D01*
Y076270D01*
X067270D01*
Y076770D02*
Y076670D01*
X067470D01*
Y076770D01*
X067570D01*
Y076970D01*
X067470D01*
Y077070D01*
X067270D01*
Y076970D01*
X067170D01*
Y076770D01*
X067270D01*
Y077270D02*
Y077170D01*
X067470D01*
Y077270D01*
X067570D01*
Y077470D01*
X067470D01*
Y077570D01*
X067270D01*
Y077470D01*
X067170D01*
Y077270D01*
X067270D01*
X077113D02*
Y077170D01*
X077313D01*
Y077270D01*
X077413D01*
Y077470D01*
X077313D01*
Y077570D01*
X077113D01*
Y077470D01*
X077013D01*
Y077270D01*
X077113D01*
Y076770D02*
Y076670D01*
X077313D01*
Y076770D01*
X077413D01*
Y076970D01*
X077313D01*
Y077070D01*
X077113D01*
Y076970D01*
X077013D01*
Y076770D01*
X077113D01*
Y076270D02*
Y076170D01*
X077313D01*
Y076270D01*
X077413D01*
Y076470D01*
X077313D01*
Y076570D01*
X077113D01*
Y076470D01*
X077013D01*
Y076270D01*
X077113D01*
Y075770D02*
Y075670D01*
X077313D01*
Y075770D01*
X077413D01*
Y075970D01*
X077313D01*
Y076070D01*
X077113D01*
Y075970D01*
X077013D01*
Y075770D01*
X077113D01*
X074713Y073670D02*
X074513Y074070D01*
X074913D01*
X074713Y073670D01*
X084555D02*
X084355Y074070D01*
X084755D01*
X084555Y073670D01*
X086955Y075770D02*
Y075670D01*
X087155D01*
Y075770D01*
X087255D01*
Y075970D01*
X087155D01*
Y076070D01*
X086955D01*
Y075970D01*
X086855D01*
Y075770D01*
X086955D01*
Y076270D02*
Y076170D01*
X087155D01*
Y076270D01*
X087255D01*
Y076470D01*
X087155D01*
Y076570D01*
X086955D01*
Y076470D01*
X086855D01*
Y076270D01*
X086955D01*
Y076770D02*
Y076670D01*
X087155D01*
Y076770D01*
X087255D01*
Y076970D01*
X087155D01*
Y077070D01*
X086955D01*
Y076970D01*
X086855D01*
Y076770D01*
X086955D01*
Y077270D02*
Y077170D01*
X087155D01*
Y077270D01*
X087255D01*
Y077470D01*
X087155D01*
Y077570D01*
X086955D01*
Y077470D01*
X086855D01*
Y077270D01*
X086955D01*
X096798D02*
Y077170D01*
X096998D01*
Y077270D01*
X097098D01*
Y077470D01*
X096998D01*
Y077570D01*
X096798D01*
Y077470D01*
X096698D01*
Y077270D01*
X096798D01*
Y076770D02*
Y076670D01*
X096998D01*
Y076770D01*
X097098D01*
Y076970D01*
X096998D01*
Y077070D01*
X096798D01*
Y076970D01*
X096698D01*
Y076770D01*
X096798D01*
Y076270D02*
Y076170D01*
X096998D01*
Y076270D01*
X097098D01*
Y076470D01*
X096998D01*
Y076570D01*
X096798D01*
Y076470D01*
X096698D01*
Y076270D01*
X096798D01*
Y075770D02*
Y075670D01*
X096998D01*
Y075770D01*
X097098D01*
Y075970D01*
X096998D01*
Y076070D01*
X096798D01*
Y075970D01*
X096698D01*
Y075770D01*
X096798D01*
X094398Y073670D02*
X094198Y074070D01*
X094598D01*
X094398Y073670D01*
X025500Y083513D02*
X025300Y083913D01*
X025700D01*
X025500Y083513D01*
X027900Y085613D02*
Y085513D01*
X028100D01*
Y085613D01*
X028200D01*
Y085813D01*
X028100D01*
Y085913D01*
X027900D01*
Y085813D01*
X027800D01*
Y085613D01*
X027900D01*
Y086113D02*
Y086013D01*
X028100D01*
Y086113D01*
X028200D01*
Y086313D01*
X028100D01*
Y086413D01*
X027900D01*
Y086313D01*
X027800D01*
Y086113D01*
X027900D01*
Y086613D02*
Y086513D01*
X028100D01*
Y086613D01*
X028200D01*
Y086813D01*
X028100D01*
Y086913D01*
X027900D01*
Y086813D01*
X027800D01*
Y086613D01*
X027900D01*
Y087113D02*
Y087013D01*
X028100D01*
Y087113D01*
X028200D01*
Y087313D01*
X028100D01*
Y087413D01*
X027900D01*
Y087313D01*
X027800D01*
Y087113D01*
X027900D01*
X037743D02*
Y087013D01*
X037943D01*
Y087113D01*
X038043D01*
Y087313D01*
X037943D01*
Y087413D01*
X037743D01*
Y087313D01*
X037643D01*
Y087113D01*
X037743D01*
Y086613D02*
Y086513D01*
X037943D01*
Y086613D01*
X038043D01*
Y086813D01*
X037943D01*
Y086913D01*
X037743D01*
Y086813D01*
X037643D01*
Y086613D01*
X037743D01*
Y086113D02*
Y086013D01*
X037943D01*
Y086113D01*
X038043D01*
Y086313D01*
X037943D01*
Y086413D01*
X037743D01*
Y086313D01*
X037643D01*
Y086113D01*
X037743D01*
Y085613D02*
Y085513D01*
X037943D01*
Y085613D01*
X038043D01*
Y085813D01*
X037943D01*
Y085913D01*
X037743D01*
Y085813D01*
X037643D01*
Y085613D01*
X037743D01*
X035343Y083513D02*
X035143Y083913D01*
X035543D01*
X035343Y083513D01*
X045185D02*
X044985Y083913D01*
X045385D01*
X045185Y083513D01*
X047585Y085613D02*
Y085513D01*
X047785D01*
Y085613D01*
X047885D01*
Y085813D01*
X047785D01*
Y085913D01*
X047585D01*
Y085813D01*
X047485D01*
Y085613D01*
X047585D01*
Y086113D02*
Y086013D01*
X047785D01*
Y086113D01*
X047885D01*
Y086313D01*
X047785D01*
Y086413D01*
X047585D01*
Y086313D01*
X047485D01*
Y086113D01*
X047585D01*
Y086613D02*
Y086513D01*
X047785D01*
Y086613D01*
X047885D01*
Y086813D01*
X047785D01*
Y086913D01*
X047585D01*
Y086813D01*
X047485D01*
Y086613D01*
X047585D01*
Y087113D02*
Y087013D01*
X047785D01*
Y087113D01*
X047885D01*
Y087313D01*
X047785D01*
Y087413D01*
X047585D01*
Y087313D01*
X047485D01*
Y087113D01*
X047585D01*
X057428D02*
Y087013D01*
X057628D01*
Y087113D01*
X057728D01*
Y087313D01*
X057628D01*
Y087413D01*
X057428D01*
Y087313D01*
X057328D01*
Y087113D01*
X057428D01*
Y086613D02*
Y086513D01*
X057628D01*
Y086613D01*
X057728D01*
Y086813D01*
X057628D01*
Y086913D01*
X057428D01*
Y086813D01*
X057328D01*
Y086613D01*
X057428D01*
Y086113D02*
Y086013D01*
X057628D01*
Y086113D01*
X057728D01*
Y086313D01*
X057628D01*
Y086413D01*
X057428D01*
Y086313D01*
X057328D01*
Y086113D01*
X057428D01*
Y085613D02*
Y085513D01*
X057628D01*
Y085613D01*
X057728D01*
Y085813D01*
X057628D01*
Y085913D01*
X057428D01*
Y085813D01*
X057328D01*
Y085613D01*
X057428D01*
X055028Y083513D02*
X054828Y083913D01*
X055228D01*
X055028Y083513D01*
X064870D02*
X064670Y083913D01*
X065070D01*
X064870Y083513D01*
X067270Y085613D02*
Y085513D01*
X067470D01*
Y085613D01*
X067570D01*
Y085813D01*
X067470D01*
Y085913D01*
X067270D01*
Y085813D01*
X067170D01*
Y085613D01*
X067270D01*
Y086113D02*
Y086013D01*
X067470D01*
Y086113D01*
X067570D01*
Y086313D01*
X067470D01*
Y086413D01*
X067270D01*
Y086313D01*
X067170D01*
Y086113D01*
X067270D01*
Y086613D02*
Y086513D01*
X067470D01*
Y086613D01*
X067570D01*
Y086813D01*
X067470D01*
Y086913D01*
X067270D01*
Y086813D01*
X067170D01*
Y086613D01*
X067270D01*
Y087113D02*
Y087013D01*
X067470D01*
Y087113D01*
X067570D01*
Y087313D01*
X067470D01*
Y087413D01*
X067270D01*
Y087313D01*
X067170D01*
Y087113D01*
X067270D01*
X077113D02*
Y087013D01*
X077313D01*
Y087113D01*
X077413D01*
Y087313D01*
X077313D01*
Y087413D01*
X077113D01*
Y087313D01*
X077013D01*
Y087113D01*
X077113D01*
Y086613D02*
Y086513D01*
X077313D01*
Y086613D01*
X077413D01*
Y086813D01*
X077313D01*
Y086913D01*
X077113D01*
Y086813D01*
X077013D01*
Y086613D01*
X077113D01*
Y086113D02*
Y086013D01*
X077313D01*
Y086113D01*
X077413D01*
Y086313D01*
X077313D01*
Y086413D01*
X077113D01*
Y086313D01*
X077013D01*
Y086113D01*
X077113D01*
Y085613D02*
Y085513D01*
X077313D01*
Y085613D01*
X077413D01*
Y085813D01*
X077313D01*
Y085913D01*
X077113D01*
Y085813D01*
X077013D01*
Y085613D01*
X077113D01*
X074713Y083513D02*
X074513Y083913D01*
X074913D01*
X074713Y083513D01*
X084555D02*
X084355Y083913D01*
X084755D01*
X084555Y083513D01*
X086955Y085613D02*
Y085513D01*
X087155D01*
Y085613D01*
X087255D01*
Y085813D01*
X087155D01*
Y085913D01*
X086955D01*
Y085813D01*
X086855D01*
Y085613D01*
X086955D01*
Y086113D02*
Y086013D01*
X087155D01*
Y086113D01*
X087255D01*
Y086313D01*
X087155D01*
Y086413D01*
X086955D01*
Y086313D01*
X086855D01*
Y086113D01*
X086955D01*
Y086613D02*
Y086513D01*
X087155D01*
Y086613D01*
X087255D01*
Y086813D01*
X087155D01*
Y086913D01*
X086955D01*
Y086813D01*
X086855D01*
Y086613D01*
X086955D01*
Y087113D02*
Y087013D01*
X087155D01*
Y087113D01*
X087255D01*
Y087313D01*
X087155D01*
Y087413D01*
X086955D01*
Y087313D01*
X086855D01*
Y087113D01*
X086955D01*
X096798D02*
Y087013D01*
X096998D01*
Y087113D01*
X097098D01*
Y087313D01*
X096998D01*
Y087413D01*
X096798D01*
Y087313D01*
X096698D01*
Y087113D01*
X096798D01*
Y086613D02*
Y086513D01*
X096998D01*
Y086613D01*
X097098D01*
Y086813D01*
X096998D01*
Y086913D01*
X096798D01*
Y086813D01*
X096698D01*
Y086613D01*
X096798D01*
Y086113D02*
Y086013D01*
X096998D01*
Y086113D01*
X097098D01*
Y086313D01*
X096998D01*
Y086413D01*
X096798D01*
Y086313D01*
X096698D01*
Y086113D01*
X096798D01*
Y085613D02*
Y085513D01*
X096998D01*
Y085613D01*
X097098D01*
Y085813D01*
X096998D01*
Y085913D01*
X096798D01*
Y085813D01*
X096698D01*
Y085613D01*
X096798D01*
X094398Y083513D02*
X094198Y083913D01*
X094598D01*
X094398Y083513D01*
X025500Y093355D02*
X025300Y093755D01*
X025700D01*
X025500Y093355D01*
X027900Y095455D02*
Y095355D01*
X028100D01*
Y095455D01*
X028200D01*
Y095655D01*
X028100D01*
Y095755D01*
X027900D01*
Y095655D01*
X027800D01*
Y095455D01*
X027900D01*
Y095955D02*
Y095855D01*
X028100D01*
Y095955D01*
X028200D01*
Y096155D01*
X028100D01*
Y096255D01*
X027900D01*
Y096155D01*
X027800D01*
Y095955D01*
X027900D01*
Y096455D02*
Y096355D01*
X028100D01*
Y096455D01*
X028200D01*
Y096655D01*
X028100D01*
Y096755D01*
X027900D01*
Y096655D01*
X027800D01*
Y096455D01*
X027900D01*
Y096955D02*
Y096855D01*
X028100D01*
Y096955D01*
X028200D01*
Y097155D01*
X028100D01*
Y097255D01*
X027900D01*
Y097155D01*
X027800D01*
Y096955D01*
X027900D01*
X037743D02*
Y096855D01*
X037943D01*
Y096955D01*
X038043D01*
Y097155D01*
X037943D01*
Y097255D01*
X037743D01*
Y097155D01*
X037643D01*
Y096955D01*
X037743D01*
Y096455D02*
Y096355D01*
X037943D01*
Y096455D01*
X038043D01*
Y096655D01*
X037943D01*
Y096755D01*
X037743D01*
Y096655D01*
X037643D01*
Y096455D01*
X037743D01*
Y095955D02*
Y095855D01*
X037943D01*
Y095955D01*
X038043D01*
Y096155D01*
X037943D01*
Y096255D01*
X037743D01*
Y096155D01*
X037643D01*
Y095955D01*
X037743D01*
Y095455D02*
Y095355D01*
X037943D01*
Y095455D01*
X038043D01*
Y095655D01*
X037943D01*
Y095755D01*
X037743D01*
Y095655D01*
X037643D01*
Y095455D01*
X037743D01*
X035343Y093355D02*
X035143Y093755D01*
X035543D01*
X035343Y093355D01*
X045185D02*
X044985Y093755D01*
X045385D01*
X045185Y093355D01*
X047585Y095455D02*
Y095355D01*
X047785D01*
Y095455D01*
X047885D01*
Y095655D01*
X047785D01*
Y095755D01*
X047585D01*
Y095655D01*
X047485D01*
Y095455D01*
X047585D01*
Y095955D02*
Y095855D01*
X047785D01*
Y095955D01*
X047885D01*
Y096155D01*
X047785D01*
Y096255D01*
X047585D01*
Y096155D01*
X047485D01*
Y095955D01*
X047585D01*
Y096455D02*
Y096355D01*
X047785D01*
Y096455D01*
X047885D01*
Y096655D01*
X047785D01*
Y096755D01*
X047585D01*
Y096655D01*
X047485D01*
Y096455D01*
X047585D01*
Y096955D02*
Y096855D01*
X047785D01*
Y096955D01*
X047885D01*
Y097155D01*
X047785D01*
Y097255D01*
X047585D01*
Y097155D01*
X047485D01*
Y096955D01*
X047585D01*
X057428D02*
Y096855D01*
X057628D01*
Y096955D01*
X057728D01*
Y097155D01*
X057628D01*
Y097255D01*
X057428D01*
Y097155D01*
X057328D01*
Y096955D01*
X057428D01*
Y096455D02*
Y096355D01*
X057628D01*
Y096455D01*
X057728D01*
Y096655D01*
X057628D01*
Y096755D01*
X057428D01*
Y096655D01*
X057328D01*
Y096455D01*
X057428D01*
Y095955D02*
Y095855D01*
X057628D01*
Y095955D01*
X057728D01*
Y096155D01*
X057628D01*
Y096255D01*
X057428D01*
Y096155D01*
X057328D01*
Y095955D01*
X057428D01*
Y095455D02*
Y095355D01*
X057628D01*
Y095455D01*
X057728D01*
Y095655D01*
X057628D01*
Y095755D01*
X057428D01*
Y095655D01*
X057328D01*
Y095455D01*
X057428D01*
X055028Y093355D02*
X054828Y093755D01*
X055228D01*
X055028Y093355D01*
X064870D02*
X064670Y093755D01*
X065070D01*
X064870Y093355D01*
X067270Y095455D02*
Y095355D01*
X067470D01*
Y095455D01*
X067570D01*
Y095655D01*
X067470D01*
Y095755D01*
X067270D01*
Y095655D01*
X067170D01*
Y095455D01*
X067270D01*
Y095955D02*
Y095855D01*
X067470D01*
Y095955D01*
X067570D01*
Y096155D01*
X067470D01*
Y096255D01*
X067270D01*
Y096155D01*
X067170D01*
Y095955D01*
X067270D01*
Y096455D02*
Y096355D01*
X067470D01*
Y096455D01*
X067570D01*
Y096655D01*
X067470D01*
Y096755D01*
X067270D01*
Y096655D01*
X067170D01*
Y096455D01*
X067270D01*
Y096955D02*
Y096855D01*
X067470D01*
Y096955D01*
X067570D01*
Y097155D01*
X067470D01*
Y097255D01*
X067270D01*
Y097155D01*
X067170D01*
Y096955D01*
X067270D01*
X077113D02*
Y096855D01*
X077313D01*
Y096955D01*
X077413D01*
Y097155D01*
X077313D01*
Y097255D01*
X077113D01*
Y097155D01*
X077013D01*
Y096955D01*
X077113D01*
Y096455D02*
Y096355D01*
X077313D01*
Y096455D01*
X077413D01*
Y096655D01*
X077313D01*
Y096755D01*
X077113D01*
Y096655D01*
X077013D01*
Y096455D01*
X077113D01*
Y095955D02*
Y095855D01*
X077313D01*
Y095955D01*
X077413D01*
Y096155D01*
X077313D01*
Y096255D01*
X077113D01*
Y096155D01*
X077013D01*
Y095955D01*
X077113D01*
Y095455D02*
Y095355D01*
X077313D01*
Y095455D01*
X077413D01*
Y095655D01*
X077313D01*
Y095755D01*
X077113D01*
Y095655D01*
X077013D01*
Y095455D01*
X077113D01*
X074713Y093355D02*
X074513Y093755D01*
X074913D01*
X074713Y093355D01*
X084555D02*
X084355Y093755D01*
X084755D01*
X084555Y093355D01*
X086955Y095455D02*
Y095355D01*
X087155D01*
Y095455D01*
X087255D01*
Y095655D01*
X087155D01*
Y095755D01*
X086955D01*
Y095655D01*
X086855D01*
Y095455D01*
X086955D01*
Y095955D02*
Y095855D01*
X087155D01*
Y095955D01*
X087255D01*
Y096155D01*
X087155D01*
Y096255D01*
X086955D01*
Y096155D01*
X086855D01*
Y095955D01*
X086955D01*
Y096455D02*
Y096355D01*
X087155D01*
Y096455D01*
X087255D01*
Y096655D01*
X087155D01*
Y096755D01*
X086955D01*
Y096655D01*
X086855D01*
Y096455D01*
X086955D01*
Y096955D02*
Y096855D01*
X087155D01*
Y096955D01*
X087255D01*
Y097155D01*
X087155D01*
Y097255D01*
X086955D01*
Y097155D01*
X086855D01*
Y096955D01*
X086955D01*
X096798D02*
Y096855D01*
X096998D01*
Y096955D01*
X097098D01*
Y097155D01*
X096998D01*
Y097255D01*
X096798D01*
Y097155D01*
X096698D01*
Y096955D01*
X096798D01*
Y096455D02*
Y096355D01*
X096998D01*
Y096455D01*
X097098D01*
Y096655D01*
X096998D01*
Y096755D01*
X096798D01*
Y096655D01*
X096698D01*
Y096455D01*
X096798D01*
Y095955D02*
Y095855D01*
X096998D01*
Y095955D01*
X097098D01*
Y096155D01*
X096998D01*
Y096255D01*
X096798D01*
Y096155D01*
X096698D01*
Y095955D01*
X096798D01*
Y095455D02*
Y095355D01*
X096998D01*
Y095455D01*
X097098D01*
Y095655D01*
X096998D01*
Y095755D01*
X096798D01*
Y095655D01*
X096698D01*
Y095455D01*
X096798D01*
X094398Y093355D02*
X094198Y093755D01*
X094598D01*
X094398Y093355D01*
X025500Y103198D02*
X025300Y103598D01*
X025700D01*
X025500Y103198D01*
X027900Y105298D02*
Y105198D01*
X028100D01*
Y105298D01*
X028200D01*
Y105498D01*
X028100D01*
Y105598D01*
X027900D01*
Y105498D01*
X027800D01*
Y105298D01*
X027900D01*
Y105798D02*
Y105698D01*
X028100D01*
Y105798D01*
X028200D01*
Y105998D01*
X028100D01*
Y106098D01*
X027900D01*
Y105998D01*
X027800D01*
Y105798D01*
X027900D01*
Y106298D02*
Y106198D01*
X028100D01*
Y106298D01*
X028200D01*
Y106498D01*
X028100D01*
Y106598D01*
X027900D01*
Y106498D01*
X027800D01*
Y106298D01*
X027900D01*
Y106798D02*
Y106698D01*
X028100D01*
Y106798D01*
X028200D01*
Y106998D01*
X028100D01*
Y107098D01*
X027900D01*
Y106998D01*
X027800D01*
Y106798D01*
X027900D01*
X037743D02*
Y106698D01*
X037943D01*
Y106798D01*
X038043D01*
Y106998D01*
X037943D01*
Y107098D01*
X037743D01*
Y106998D01*
X037643D01*
Y106798D01*
X037743D01*
Y106298D02*
Y106198D01*
X037943D01*
Y106298D01*
X038043D01*
Y106498D01*
X037943D01*
Y106598D01*
X037743D01*
Y106498D01*
X037643D01*
Y106298D01*
X037743D01*
Y105798D02*
Y105698D01*
X037943D01*
Y105798D01*
X038043D01*
Y105998D01*
X037943D01*
Y106098D01*
X037743D01*
Y105998D01*
X037643D01*
Y105798D01*
X037743D01*
Y105298D02*
Y105198D01*
X037943D01*
Y105298D01*
X038043D01*
Y105498D01*
X037943D01*
Y105598D01*
X037743D01*
Y105498D01*
X037643D01*
Y105298D01*
X037743D01*
X035343Y103198D02*
X035143Y103598D01*
X035543D01*
X035343Y103198D01*
X045185D02*
X044985Y103598D01*
X045385D01*
X045185Y103198D01*
X047585Y105298D02*
Y105198D01*
X047785D01*
Y105298D01*
X047885D01*
Y105498D01*
X047785D01*
Y105598D01*
X047585D01*
Y105498D01*
X047485D01*
Y105298D01*
X047585D01*
Y105798D02*
Y105698D01*
X047785D01*
Y105798D01*
X047885D01*
Y105998D01*
X047785D01*
Y106098D01*
X047585D01*
Y105998D01*
X047485D01*
Y105798D01*
X047585D01*
Y106298D02*
Y106198D01*
X047785D01*
Y106298D01*
X047885D01*
Y106498D01*
X047785D01*
Y106598D01*
X047585D01*
Y106498D01*
X047485D01*
Y106298D01*
X047585D01*
Y106798D02*
Y106698D01*
X047785D01*
Y106798D01*
X047885D01*
Y106998D01*
X047785D01*
Y107098D01*
X047585D01*
Y106998D01*
X047485D01*
Y106798D01*
X047585D01*
X057428D02*
Y106698D01*
X057628D01*
Y106798D01*
X057728D01*
Y106998D01*
X057628D01*
Y107098D01*
X057428D01*
Y106998D01*
X057328D01*
Y106798D01*
X057428D01*
Y106298D02*
Y106198D01*
X057628D01*
Y106298D01*
X057728D01*
Y106498D01*
X057628D01*
Y106598D01*
X057428D01*
Y106498D01*
X057328D01*
Y106298D01*
X057428D01*
Y105798D02*
Y105698D01*
X057628D01*
Y105798D01*
X057728D01*
Y105998D01*
X057628D01*
Y106098D01*
X057428D01*
Y105998D01*
X057328D01*
Y105798D01*
X057428D01*
Y105298D02*
Y105198D01*
X057628D01*
Y105298D01*
X057728D01*
Y105498D01*
X057628D01*
Y105598D01*
X057428D01*
Y105498D01*
X057328D01*
Y105298D01*
X057428D01*
X055028Y103198D02*
X054828Y103598D01*
X055228D01*
X055028Y103198D01*
X064870D02*
X064670Y103598D01*
X065070D01*
X064870Y103198D01*
X067270Y105298D02*
Y105198D01*
X067470D01*
Y105298D01*
X067570D01*
Y105498D01*
X067470D01*
Y105598D01*
X067270D01*
Y105498D01*
X067170D01*
Y105298D01*
X067270D01*
Y105798D02*
Y105698D01*
X067470D01*
Y105798D01*
X067570D01*
Y105998D01*
X067470D01*
Y106098D01*
X067270D01*
Y105998D01*
X067170D01*
Y105798D01*
X067270D01*
Y106298D02*
Y106198D01*
X067470D01*
Y106298D01*
X067570D01*
Y106498D01*
X067470D01*
Y106598D01*
X067270D01*
Y106498D01*
X067170D01*
Y106298D01*
X067270D01*
Y106798D02*
Y106698D01*
X067470D01*
Y106798D01*
X067570D01*
Y106998D01*
X067470D01*
Y107098D01*
X067270D01*
Y106998D01*
X067170D01*
Y106798D01*
X067270D01*
X077113D02*
Y106698D01*
X077313D01*
Y106798D01*
X077413D01*
Y106998D01*
X077313D01*
Y107098D01*
X077113D01*
Y106998D01*
X077013D01*
Y106798D01*
X077113D01*
Y106298D02*
Y106198D01*
X077313D01*
Y106298D01*
X077413D01*
Y106498D01*
X077313D01*
Y106598D01*
X077113D01*
Y106498D01*
X077013D01*
Y106298D01*
X077113D01*
Y105798D02*
Y105698D01*
X077313D01*
Y105798D01*
X077413D01*
Y105998D01*
X077313D01*
Y106098D01*
X077113D01*
Y105998D01*
X077013D01*
Y105798D01*
X077113D01*
Y105298D02*
Y105198D01*
X077313D01*
Y105298D01*
X077413D01*
Y105498D01*
X077313D01*
Y105598D01*
X077113D01*
Y105498D01*
X077013D01*
Y105298D01*
X077113D01*
X074713Y103198D02*
X074513Y103598D01*
X074913D01*
X074713Y103198D01*
X084555D02*
X084355Y103598D01*
X084755D01*
X084555Y103198D01*
X086955Y105298D02*
Y105198D01*
X087155D01*
Y105298D01*
X087255D01*
Y105498D01*
X087155D01*
Y105598D01*
X086955D01*
Y105498D01*
X086855D01*
Y105298D01*
X086955D01*
Y105798D02*
Y105698D01*
X087155D01*
Y105798D01*
X087255D01*
Y105998D01*
X087155D01*
Y106098D01*
X086955D01*
Y105998D01*
X086855D01*
Y105798D01*
X086955D01*
Y106298D02*
Y106198D01*
X087155D01*
Y106298D01*
X087255D01*
Y106498D01*
X087155D01*
Y106598D01*
X086955D01*
Y106498D01*
X086855D01*
Y106298D01*
X086955D01*
Y106798D02*
Y106698D01*
X087155D01*
Y106798D01*
X087255D01*
Y106998D01*
X087155D01*
Y107098D01*
X086955D01*
Y106998D01*
X086855D01*
Y106798D01*
X086955D01*
X096798D02*
Y106698D01*
X096998D01*
Y106798D01*
X097098D01*
Y106998D01*
X096998D01*
Y107098D01*
X096798D01*
Y106998D01*
X096698D01*
Y106798D01*
X096798D01*
Y106298D02*
Y106198D01*
X096998D01*
Y106298D01*
X097098D01*
Y106498D01*
X096998D01*
Y106598D01*
X096798D01*
Y106498D01*
X096698D01*
Y106298D01*
X096798D01*
Y105798D02*
Y105698D01*
X096998D01*
Y105798D01*
X097098D01*
Y105998D01*
X096998D01*
Y106098D01*
X096798D01*
Y105998D01*
X096698D01*
Y105798D01*
X096798D01*
Y105298D02*
Y105198D01*
X096998D01*
Y105298D01*
X097098D01*
Y105498D01*
X096998D01*
Y105598D01*
X096798D01*
Y105498D01*
X096698D01*
Y105298D01*
X096798D01*
X094398Y103198D02*
X094198Y103598D01*
X094598D01*
X094398Y103198D01*
X019449Y028699D02*
X019549D01*
X019649Y028799D01*
X019749Y028699D01*
X019849D01*
Y028799D01*
X019749Y028899D01*
X019849Y028999D01*
Y029099D01*
X019749D01*
X019649Y028999D01*
X019549Y029099D01*
X019449D01*
Y028999D01*
X019549Y028899D01*
X019449Y028799D01*
Y028699D01*
X105049D02*
X105149D01*
X105249Y028799D01*
X105349Y028699D01*
X105449D01*
Y028799D01*
X105349Y028899D01*
X105449Y028999D01*
Y029099D01*
X105349D01*
X105249Y028999D01*
X105149Y029099D01*
X105049D01*
Y028999D01*
X105149Y028899D01*
X105049Y028799D01*
Y028699D01*
Y114299D02*
X105149D01*
X105249Y114399D01*
X105349Y114299D01*
X105449D01*
Y114399D01*
X105349Y114499D01*
X105449Y114599D01*
Y114699D01*
X105349D01*
X105249Y114599D01*
X105149Y114699D01*
X105049D01*
Y114599D01*
X105149Y114499D01*
X105049Y114399D01*
Y114299D01*
X019449D02*
X019549D01*
X019649Y114399D01*
X019749Y114299D01*
X019849D01*
Y114399D01*
X019749Y114499D01*
X019849Y114599D01*
Y114699D01*
X019749D01*
X019649Y114599D01*
X019549Y114699D01*
X019449D01*
Y114599D01*
X019549Y114499D01*
X019449Y114399D01*
Y114299D01*
X070834Y112050D02*
X071034Y112250D01*
X071234Y112050D01*
X071034Y111850D01*
X070834Y112050D01*
X068866Y112050D02*
X069066Y112250D01*
X069266Y112050D01*
X069066Y111850D01*
X068866Y112050D01*
X061300Y029100D02*
X061400Y029200D01*
X061500D01*
X061400Y029300D01*
X061500Y029400D01*
X061400D01*
X061300Y029500D01*
X061200Y029400D01*
X061100D01*
X061200Y029300D01*
X061100Y029200D01*
X061200D01*
X061300Y029100D01*
X060300D02*
X060400Y029200D01*
X060500D01*
X060400Y029300D01*
X060500Y029400D01*
X060400D01*
X060300Y029500D01*
X060200Y029400D01*
X060100D01*
X060200Y029300D01*
X060100Y029200D01*
X060200D01*
X060300Y029100D01*
X059300D02*
X059400Y029200D01*
X059500D01*
X059400Y029300D01*
X059500Y029400D01*
X059400D01*
X059300Y029500D01*
X059200Y029400D01*
X059100D01*
X059200Y029300D01*
X059100Y029200D01*
X059200D01*
X059300Y029100D01*
X058300D02*
X058400Y029200D01*
X058500D01*
X058400Y029300D01*
X058500Y029400D01*
X058400D01*
X058300Y029500D01*
X058200Y029400D01*
X058100D01*
X058200Y029300D01*
X058100Y029200D01*
X058200D01*
X058300Y029100D01*
X057300D02*
X057400Y029200D01*
X057500D01*
X057400Y029300D01*
X057500Y029400D01*
X057400D01*
X057300Y029500D01*
X057200Y029400D01*
X057100D01*
X057200Y029300D01*
X057100Y029200D01*
X057200D01*
X057300Y029100D01*
X056300D02*
X056400Y029200D01*
X056500D01*
X056400Y029300D01*
X056500Y029400D01*
X056400D01*
X056300Y029500D01*
X056200Y029400D01*
X056100D01*
X056200Y029300D01*
X056100Y029200D01*
X056200D01*
X056300Y029100D01*
X055300D02*
X055400Y029200D01*
X055500D01*
X055400Y029300D01*
X055500Y029400D01*
X055400D01*
X055300Y029500D01*
X055200Y029400D01*
X055100D01*
X055200Y029300D01*
X055100Y029200D01*
X055200D01*
X055300Y029100D01*
X054300D02*
X054400Y029200D01*
X054500D01*
X054400Y029300D01*
X054500Y029400D01*
X054400D01*
X054300Y029500D01*
X054200Y029400D01*
X054100D01*
X054200Y029300D01*
X054100Y029200D01*
X054200D01*
X054300Y029100D01*
X061300Y028100D02*
X061400Y028200D01*
X061500D01*
X061400Y028300D01*
X061500Y028400D01*
X061400D01*
X061300Y028500D01*
X061200Y028400D01*
X061100D01*
X061200Y028300D01*
X061100Y028200D01*
X061200D01*
X061300Y028100D01*
X060300D02*
X060400Y028200D01*
X060500D01*
X060400Y028300D01*
X060500Y028400D01*
X060400D01*
X060300Y028500D01*
X060200Y028400D01*
X060100D01*
X060200Y028300D01*
X060100Y028200D01*
X060200D01*
X060300Y028100D01*
X059300D02*
X059400Y028200D01*
X059500D01*
X059400Y028300D01*
X059500Y028400D01*
X059400D01*
X059300Y028500D01*
X059200Y028400D01*
X059100D01*
X059200Y028300D01*
X059100Y028200D01*
X059200D01*
X059300Y028100D01*
X058300D02*
X058400Y028200D01*
X058500D01*
X058400Y028300D01*
X058500Y028400D01*
X058400D01*
X058300Y028500D01*
X058200Y028400D01*
X058100D01*
X058200Y028300D01*
X058100Y028200D01*
X058200D01*
X058300Y028100D01*
X057300D02*
X057400Y028200D01*
X057500D01*
X057400Y028300D01*
X057500Y028400D01*
X057400D01*
X057300Y028500D01*
X057200Y028400D01*
X057100D01*
X057200Y028300D01*
X057100Y028200D01*
X057200D01*
X057300Y028100D01*
X056300D02*
X056400Y028200D01*
X056500D01*
X056400Y028300D01*
X056500Y028400D01*
X056400D01*
X056300Y028500D01*
X056200Y028400D01*
X056100D01*
X056200Y028300D01*
X056100Y028200D01*
X056200D01*
X056300Y028100D01*
X055300D02*
X055400Y028200D01*
X055500D01*
X055400Y028300D01*
X055500Y028400D01*
X055400D01*
X055300Y028500D01*
X055200Y028400D01*
X055100D01*
X055200Y028300D01*
X055100Y028200D01*
X055200D01*
X055300Y028100D01*
X054300D02*
X054400Y028200D01*
X054500D01*
X054400Y028300D01*
X054500Y028400D01*
X054400D01*
X054300Y028500D01*
X054200Y028400D01*
X054100D01*
X054200Y028300D01*
X054100Y028200D01*
X054200D01*
X054300Y028100D01*
X060872Y036800D02*
Y037200D01*
X061272D01*
Y036800D01*
X060872D01*
X060952Y036880D02*
Y037120D01*
X061192D01*
Y036880D01*
X060952D01*
D58*
X106350Y096500D02*
G03*
X106350Y096500I-000200J000000D01*
G01*
Y093500D02*
G03*
X106350Y093500I-000200J000000D01*
G01*
X104700Y109550D02*
G03*
X104700Y109550I-000200J000000D01*
G01*
X101700D02*
G03*
X101700Y109550I-000200J000000D01*
G01*
X104700Y089850D02*
G03*
X104700Y089850I-000200J000000D01*
G01*
X101700D02*
G03*
X101700Y089850I-000200J000000D01*
G01*
X104700Y070150D02*
G03*
X104700Y070150I-000200J000000D01*
G01*
X101700D02*
G03*
X101700Y070150I-000200J000000D01*
G01*
X104700Y050500D02*
G03*
X104700Y050500I-000200J000000D01*
G01*
X101700D02*
G03*
X101700Y050500I-000200J000000D01*
G01*
X097200Y113550D02*
G03*
X097200Y113550I-000200J000000D01*
G01*
Y110550D02*
G03*
X097200Y110550I-000200J000000D01*
G01*
X087200Y113550D02*
G03*
X087200Y113550I-000200J000000D01*
G01*
Y110550D02*
G03*
X087200Y110550I-000200J000000D01*
G01*
X077200Y113550D02*
G03*
X077200Y113550I-000200J000000D01*
G01*
Y110550D02*
G03*
X077200Y110550I-000200J000000D01*
G01*
X102700Y094300D02*
G03*
X102700Y094300I-000200J000000D01*
G01*
X103700Y043750D02*
G03*
X103700Y043750I-000200J000000D01*
G01*
X102225Y037250D02*
G03*
X102225Y037250I-000200J000000D01*
G01*
X103200Y042750D02*
G03*
X103200Y042750I-000200J000000D01*
G01*
X102700Y041750D02*
G03*
X102700Y041750I-000200J000000D01*
G01*
X103700Y063400D02*
G03*
X103700Y063400I-000200J000000D01*
G01*
X102225Y056900D02*
G03*
X102225Y056900I-000200J000000D01*
G01*
X103200Y062400D02*
G03*
X103200Y062400I-000200J000000D01*
G01*
X102700Y061400D02*
G03*
X102700Y061400I-000200J000000D01*
G01*
X103700Y083100D02*
G03*
X103700Y083100I-000200J000000D01*
G01*
X102225Y076600D02*
G03*
X102225Y076600I-000200J000000D01*
G01*
X103200Y082100D02*
G03*
X103200Y082100I-000200J000000D01*
G01*
X102700Y081100D02*
G03*
X102700Y081100I-000200J000000D01*
G01*
X103700Y102800D02*
G03*
X103700Y102800I-000200J000000D01*
G01*
X102225Y096300D02*
G03*
X102225Y096300I-000200J000000D01*
G01*
X103200Y101800D02*
G03*
X103200Y101800I-000200J000000D01*
G01*
X102700Y100800D02*
G03*
X102700Y100800I-000200J000000D01*
G01*
X102200Y111050D02*
G03*
X102200Y111050I-000200J000000D01*
G01*
X102700Y111550D02*
G03*
X102700Y111550I-000200J000000D01*
G01*
X103200Y112050D02*
G03*
X103200Y112050I-000200J000000D01*
G01*
D59*
X102620Y094300D02*
G03*
X102620Y094300I-000120J000000D01*
G01*
X103620Y043750D02*
G03*
X103620Y043750I-000120J000000D01*
G01*
X102145Y037250D02*
G03*
X102145Y037250I-000120J000000D01*
G01*
X103120Y042750D02*
G03*
X103120Y042750I-000120J000000D01*
G01*
X102620Y041750D02*
G03*
X102620Y041750I-000120J000000D01*
G01*
X103620Y063400D02*
G03*
X103620Y063400I-000120J000000D01*
G01*
X102145Y056900D02*
G03*
X102145Y056900I-000120J000000D01*
G01*
X103120Y062400D02*
G03*
X103120Y062400I-000120J000000D01*
G01*
X102620Y061400D02*
G03*
X102620Y061400I-000120J000000D01*
G01*
X103620Y083100D02*
G03*
X103620Y083100I-000120J000000D01*
G01*
X102145Y076600D02*
G03*
X102145Y076600I-000120J000000D01*
G01*
X103120Y082100D02*
G03*
X103120Y082100I-000120J000000D01*
G01*
X102620Y081100D02*
G03*
X102620Y081100I-000120J000000D01*
G01*
X103620Y102800D02*
G03*
X103620Y102800I-000120J000000D01*
G01*
X102145Y096300D02*
G03*
X102145Y096300I-000120J000000D01*
G01*
X103120Y101800D02*
G03*
X103120Y101800I-000120J000000D01*
G01*
X102620Y100800D02*
G03*
X102620Y100800I-000120J000000D01*
G01*
X102120Y111050D02*
G03*
X102120Y111050I-000120J000000D01*
G01*
X102620Y111550D02*
G03*
X102620Y111550I-000120J000000D01*
G01*
X100300Y058650D02*
Y059050D01*
X100700D01*
Y058650D01*
X100300D01*
X100380Y058730D02*
Y058970D01*
X100620D01*
Y058730D01*
X100380D01*
X100300Y039000D02*
Y039400D01*
X100700D01*
Y039000D01*
X100300D01*
X100380Y039080D02*
Y039320D01*
X100620D01*
Y039080D01*
X100380D01*
X100300Y078350D02*
Y078750D01*
X100700D01*
Y078350D01*
X100300D01*
X100380Y078430D02*
Y078670D01*
X100620D01*
Y078430D01*
X100380D01*
X100300Y098050D02*
Y098450D01*
X100700D01*
Y098050D01*
X100300D01*
X100380Y098130D02*
Y098370D01*
X100620D01*
Y098130D01*
X100380D01*
X106000Y050300D02*
Y050700D01*
X106400D01*
Y050300D01*
X106000D01*
X106080Y050380D02*
Y050620D01*
X106320D01*
Y050380D01*
X106080D01*
X106000Y038550D02*
Y038950D01*
X106400D01*
Y038550D01*
X106000D01*
X106080Y038630D02*
Y038870D01*
X106320D01*
Y038630D01*
X106080D01*
X105300Y059200D02*
Y059600D01*
X105700D01*
Y059200D01*
X105300D01*
X105380Y059280D02*
Y059520D01*
X105620D01*
Y059280D01*
X105380D01*
X106000Y069950D02*
Y070350D01*
X106400D01*
Y069950D01*
X106000D01*
X106080Y070030D02*
Y070270D01*
X106320D01*
Y070030D01*
X106080D01*
X106000Y058200D02*
Y058600D01*
X106400D01*
Y058200D01*
X106000D01*
X106080Y058280D02*
Y058520D01*
X106320D01*
Y058280D01*
X106080D01*
X106000Y089650D02*
Y090050D01*
X106400D01*
Y089650D01*
X106000D01*
X106080Y089730D02*
Y089970D01*
X106320D01*
Y089730D01*
X106080D01*
X106000Y077900D02*
Y078300D01*
X106400D01*
Y077900D01*
X106000D01*
X106080Y077980D02*
Y078220D01*
X106320D01*
Y077980D01*
X106080D01*
X106000Y097600D02*
Y098000D01*
X106400D01*
Y097600D01*
X106000D01*
X106080Y097680D02*
Y097920D01*
X106320D01*
Y097680D01*
X106080D01*
X106000Y109350D02*
Y109750D01*
X106400D01*
Y109350D01*
X106000D01*
X106080Y109430D02*
Y109670D01*
X106320D01*
Y109430D01*
X106080D01*
X105300Y039550D02*
Y039950D01*
X105700D01*
Y039550D01*
X105300D01*
X105380Y039630D02*
Y039870D01*
X105620D01*
Y039630D01*
X105380D01*
X105300Y048300D02*
Y048700D01*
X105700D01*
Y048300D01*
X105300D01*
X105380Y048380D02*
Y048620D01*
X105620D01*
Y048380D01*
X105380D01*
X105300Y067940D02*
Y068340D01*
X105700D01*
Y067940D01*
X105300D01*
X105380Y068020D02*
Y068260D01*
X105620D01*
Y068020D01*
X105380D01*
X105300Y078900D02*
Y079300D01*
X105700D01*
Y078900D01*
X105300D01*
X105380Y078980D02*
Y079220D01*
X105620D01*
Y078980D01*
X105380D01*
X105300Y087650D02*
Y088050D01*
X105700D01*
Y087650D01*
X105300D01*
X105380Y087730D02*
Y087970D01*
X105620D01*
Y087730D01*
X105380D01*
X105300Y107350D02*
Y107750D01*
X105700D01*
Y107350D01*
X105300D01*
X105380Y107430D02*
Y107670D01*
X105620D01*
Y107430D01*
X105380D01*
X105300Y098600D02*
Y099000D01*
X105700D01*
Y098600D01*
X105300D01*
X105380Y098680D02*
Y098920D01*
X105620D01*
Y098680D01*
X105380D01*
X082800Y037800D02*
Y038200D01*
X083200D01*
Y037800D01*
X082800D01*
X082880Y037880D02*
Y038120D01*
X083120D01*
Y037880D01*
X082880D01*
X082800Y047643D02*
Y048043D01*
X083200D01*
Y047643D01*
X082800D01*
X082880Y047723D02*
Y047963D01*
X083120D01*
Y047723D01*
X082880D01*
X082800Y057485D02*
Y057885D01*
X083200D01*
Y057485D01*
X082800D01*
X082880Y057565D02*
Y057805D01*
X083120D01*
Y057565D01*
X082880D01*
X082800Y067328D02*
Y067728D01*
X083200D01*
Y067328D01*
X082800D01*
X082880Y067408D02*
Y067648D01*
X083120D01*
Y067408D01*
X082880D01*
X082800Y077170D02*
Y077570D01*
X083200D01*
Y077170D01*
X082800D01*
X082880Y077250D02*
Y077490D01*
X083120D01*
Y077250D01*
X082880D01*
X082800Y087013D02*
Y087413D01*
X083200D01*
Y087013D01*
X082800D01*
X082880Y087093D02*
Y087333D01*
X083120D01*
Y087093D01*
X082880D01*
X082800Y096855D02*
Y097255D01*
X083200D01*
Y096855D01*
X082800D01*
X082880Y096935D02*
Y097175D01*
X083120D01*
Y096935D01*
X082880D01*
X082800Y106698D02*
Y107098D01*
X083200D01*
Y106698D01*
X082800D01*
X082880Y106778D02*
Y107018D01*
X083120D01*
Y106778D01*
X082880D01*
X063109Y037300D02*
Y037700D01*
X063509D01*
Y037300D01*
X063109D01*
X063189Y037380D02*
Y037620D01*
X063429D01*
Y037380D01*
X063189D01*
X063109Y047143D02*
Y047543D01*
X063509D01*
Y047143D01*
X063109D01*
X063189Y047223D02*
Y047463D01*
X063429D01*
Y047223D01*
X063189D01*
X063109Y056985D02*
Y057385D01*
X063509D01*
Y056985D01*
X063109D01*
X063189Y057065D02*
Y057305D01*
X063429D01*
Y057065D01*
X063189D01*
X063109Y066828D02*
Y067228D01*
X063509D01*
Y066828D01*
X063109D01*
X063189Y066908D02*
Y067148D01*
X063429D01*
Y066908D01*
X063189D01*
X063109Y076670D02*
Y077070D01*
X063509D01*
Y076670D01*
X063109D01*
X063189Y076750D02*
Y076990D01*
X063429D01*
Y076750D01*
X063189D01*
X063109Y086513D02*
Y086913D01*
X063509D01*
Y086513D01*
X063109D01*
X063189Y086593D02*
Y086833D01*
X063429D01*
Y086593D01*
X063189D01*
X063109Y096355D02*
Y096755D01*
X063509D01*
Y096355D01*
X063109D01*
X063189Y096435D02*
Y096675D01*
X063429D01*
Y096435D01*
X063189D01*
X063109Y106198D02*
Y106598D01*
X063509D01*
Y106198D01*
X063109D01*
X063189Y106278D02*
Y106518D01*
X063429D01*
Y106278D01*
X063189D01*
X043300Y105198D02*
Y105598D01*
X043700D01*
Y105198D01*
X043300D01*
X043380Y105278D02*
Y105518D01*
X043620D01*
Y105278D01*
X043380D01*
X043300Y095355D02*
Y095755D01*
X043700D01*
Y095355D01*
X043300D01*
X043380Y095435D02*
Y095675D01*
X043620D01*
Y095435D01*
X043380D01*
X043300Y085513D02*
Y085913D01*
X043700D01*
Y085513D01*
X043300D01*
X043380Y085593D02*
Y085833D01*
X043620D01*
Y085593D01*
X043380D01*
X043300Y075670D02*
Y076070D01*
X043700D01*
Y075670D01*
X043300D01*
X043380Y075750D02*
Y075990D01*
X043620D01*
Y075750D01*
X043380D01*
X043300Y065828D02*
Y066228D01*
X043700D01*
Y065828D01*
X043300D01*
X043380Y065908D02*
Y066148D01*
X043620D01*
Y065908D01*
X043380D01*
X043300Y055985D02*
Y056385D01*
X043700D01*
Y055985D01*
X043300D01*
X043380Y056065D02*
Y056305D01*
X043620D01*
Y056065D01*
X043380D01*
X043300Y046143D02*
Y046543D01*
X043700D01*
Y046143D01*
X043300D01*
X043380Y046223D02*
Y046463D01*
X043620D01*
Y046223D01*
X043380D01*
X043300Y036300D02*
Y036700D01*
X043700D01*
Y036300D01*
X043300D01*
X043380Y036380D02*
Y036620D01*
X043620D01*
Y036380D01*
X043380D01*
X092600Y035300D02*
Y035700D01*
X093000D01*
Y035300D01*
X092600D01*
X092680Y035380D02*
Y035620D01*
X092920D01*
Y035380D01*
X092680D01*
X092600Y045100D02*
Y045500D01*
X093000D01*
Y045100D01*
X092600D01*
X092680Y045180D02*
Y045420D01*
X092920D01*
Y045180D01*
X092680D01*
X092600Y055000D02*
Y055400D01*
X093000D01*
Y055000D01*
X092600D01*
X092680Y055080D02*
Y055320D01*
X092920D01*
Y055080D01*
X092680D01*
X092600Y064800D02*
Y065200D01*
X093000D01*
Y064800D01*
X092600D01*
X092680Y064880D02*
Y065120D01*
X092920D01*
Y064880D01*
X092680D01*
X092600Y074700D02*
Y075100D01*
X093000D01*
Y074700D01*
X092600D01*
X092680Y074780D02*
Y075020D01*
X092920D01*
Y074780D01*
X092680D01*
X092600Y084500D02*
Y084900D01*
X093000D01*
Y084500D01*
X092600D01*
X092680Y084580D02*
Y084820D01*
X092920D01*
Y084580D01*
X092680D01*
X092600Y094400D02*
Y094800D01*
X093000D01*
Y094400D01*
X092600D01*
X092680Y094480D02*
Y094720D01*
X092920D01*
Y094480D01*
X092680D01*
X092600Y104200D02*
Y104600D01*
X093000D01*
Y104200D01*
X092600D01*
X092680Y104280D02*
Y104520D01*
X092920D01*
Y104280D01*
X092680D01*
X071300Y094400D02*
Y094800D01*
X071700D01*
Y094400D01*
X071300D01*
X071380Y094480D02*
Y094720D01*
X071620D01*
Y094480D01*
X071380D01*
X071300Y084500D02*
Y084900D01*
X071700D01*
Y084500D01*
X071300D01*
X071380Y084580D02*
Y084820D01*
X071620D01*
Y084580D01*
X071380D01*
X071300Y064800D02*
Y065200D01*
X071700D01*
Y064800D01*
X071300D01*
X071380Y064880D02*
Y065120D01*
X071620D01*
Y064880D01*
X071380D01*
X071300Y055000D02*
Y055400D01*
X071700D01*
Y055000D01*
X071300D01*
X071380Y055080D02*
Y055320D01*
X071620D01*
Y055080D01*
X071380D01*
X071300Y104200D02*
Y104600D01*
X071700D01*
Y104200D01*
X071300D01*
X071380Y104280D02*
Y104520D01*
X071620D01*
Y104280D01*
X071380D01*
X071300Y074700D02*
Y075100D01*
X071700D01*
Y074700D01*
X071300D01*
X071380Y074780D02*
Y075020D01*
X071620D01*
Y074780D01*
X071380D01*
X071300Y045100D02*
Y045500D01*
X071700D01*
Y045100D01*
X071300D01*
X071380Y045180D02*
Y045420D01*
X071620D01*
Y045180D01*
X071380D01*
X071300Y035300D02*
Y035700D01*
X071700D01*
Y035300D01*
X071300D01*
X071380Y035380D02*
Y035620D01*
X071620D01*
Y035380D01*
X071380D01*
X041800Y035300D02*
Y035700D01*
X042200D01*
Y035300D01*
X041800D01*
X041880Y035380D02*
Y035620D01*
X042120D01*
Y035380D01*
X041880D01*
X051596Y035300D02*
Y035700D01*
X051996D01*
Y035300D01*
X051596D01*
X051676Y035380D02*
Y035620D01*
X051916D01*
Y035380D01*
X051676D01*
X051596Y055000D02*
Y055400D01*
X051996D01*
Y055000D01*
X051596D01*
X051676Y055080D02*
Y055320D01*
X051916D01*
Y055080D01*
X051676D01*
X091000Y035300D02*
Y035700D01*
X091400D01*
Y035300D01*
X091000D01*
X091080Y035380D02*
Y035620D01*
X091320D01*
Y035380D01*
X091080D01*
X091000Y104200D02*
Y104600D01*
X091400D01*
Y104200D01*
X091000D01*
X091080Y104280D02*
Y104520D01*
X091320D01*
Y104280D01*
X091080D01*
X091000Y094400D02*
Y094800D01*
X091400D01*
Y094400D01*
X091000D01*
X091080Y094480D02*
Y094720D01*
X091320D01*
Y094480D01*
X091080D01*
X091000Y084500D02*
Y084900D01*
X091400D01*
Y084500D01*
X091000D01*
X091080Y084580D02*
Y084820D01*
X091320D01*
Y084580D01*
X091080D01*
X091000Y074700D02*
Y075100D01*
X091400D01*
Y074700D01*
X091000D01*
X091080Y074780D02*
Y075020D01*
X091320D01*
Y074780D01*
X091080D01*
X091000Y064800D02*
Y065200D01*
X091400D01*
Y064800D01*
X091000D01*
X091080Y064880D02*
Y065120D01*
X091320D01*
Y064880D01*
X091080D01*
X091000Y055000D02*
Y055400D01*
X091400D01*
Y055000D01*
X091000D01*
X091080Y055080D02*
Y055320D01*
X091320D01*
Y055080D01*
X091080D01*
X091000Y045100D02*
Y045500D01*
X091400D01*
Y045100D01*
X091000D01*
X091080Y045180D02*
Y045420D01*
X091320D01*
Y045180D01*
X091080D01*
X081200Y035300D02*
Y035700D01*
X081600D01*
Y035300D01*
X081200D01*
X081280Y035380D02*
Y035620D01*
X081520D01*
Y035380D01*
X081280D01*
X081200Y104200D02*
Y104600D01*
X081600D01*
Y104200D01*
X081200D01*
X081280Y104280D02*
Y104520D01*
X081520D01*
Y104280D01*
X081280D01*
X081200Y094400D02*
Y094800D01*
X081600D01*
Y094400D01*
X081200D01*
X081280Y094480D02*
Y094720D01*
X081520D01*
Y094480D01*
X081280D01*
X081200Y084500D02*
Y084900D01*
X081600D01*
Y084500D01*
X081200D01*
X081280Y084580D02*
Y084820D01*
X081520D01*
Y084580D01*
X081280D01*
X081200Y074700D02*
Y075100D01*
X081600D01*
Y074700D01*
X081200D01*
X081280Y074780D02*
Y075020D01*
X081520D01*
Y074780D01*
X081280D01*
X081200Y064800D02*
Y065200D01*
X081600D01*
Y064800D01*
X081200D01*
X081280Y064880D02*
Y065120D01*
X081520D01*
Y064880D01*
X081280D01*
X081200Y055000D02*
Y055400D01*
X081600D01*
Y055000D01*
X081200D01*
X081280Y055080D02*
Y055320D01*
X081520D01*
Y055080D01*
X081280D01*
X081200Y045100D02*
Y045500D01*
X081600D01*
Y045100D01*
X081200D01*
X081280Y045180D02*
Y045420D01*
X081520D01*
Y045180D01*
X081280D01*
X061500Y035300D02*
Y035700D01*
X061900D01*
Y035300D01*
X061500D01*
X061580Y035380D02*
Y035620D01*
X061820D01*
Y035380D01*
X061580D01*
X061500Y104200D02*
Y104600D01*
X061900D01*
Y104200D01*
X061500D01*
X061580Y104280D02*
Y104520D01*
X061820D01*
Y104280D01*
X061580D01*
X061500Y094400D02*
Y094800D01*
X061900D01*
Y094400D01*
X061500D01*
X061580Y094480D02*
Y094720D01*
X061820D01*
Y094480D01*
X061580D01*
X061500Y084500D02*
Y084900D01*
X061900D01*
Y084500D01*
X061500D01*
X061580Y084580D02*
Y084820D01*
X061820D01*
Y084580D01*
X061580D01*
X061500Y074700D02*
Y075100D01*
X061900D01*
Y074700D01*
X061500D01*
X061580Y074780D02*
Y075020D01*
X061820D01*
Y074780D01*
X061580D01*
X061500Y064800D02*
Y065200D01*
X061900D01*
Y064800D01*
X061500D01*
X061580Y064880D02*
Y065120D01*
X061820D01*
Y064880D01*
X061580D01*
X061500Y055000D02*
Y055400D01*
X061900D01*
Y055000D01*
X061500D01*
X061580Y055080D02*
Y055320D01*
X061820D01*
Y055080D01*
X061580D01*
X061500Y045100D02*
Y045500D01*
X061900D01*
Y045100D01*
X061500D01*
X061580Y045180D02*
Y045420D01*
X061820D01*
Y045180D01*
X061580D01*
X051600Y104200D02*
Y104600D01*
X052000D01*
Y104200D01*
X051600D01*
X051680Y104280D02*
Y104520D01*
X051920D01*
Y104280D01*
X051680D01*
X051600Y094400D02*
Y094800D01*
X052000D01*
Y094400D01*
X051600D01*
X051680Y094480D02*
Y094720D01*
X051920D01*
Y094480D01*
X051680D01*
X051600Y084500D02*
Y084900D01*
X052000D01*
Y084500D01*
X051600D01*
X051680Y084580D02*
Y084820D01*
X051920D01*
Y084580D01*
X051680D01*
X051600Y074700D02*
Y075100D01*
X052000D01*
Y074700D01*
X051600D01*
X051680Y074780D02*
Y075020D01*
X051920D01*
Y074780D01*
X051680D01*
X051600Y064800D02*
Y065200D01*
X052000D01*
Y064800D01*
X051600D01*
X051680Y064880D02*
Y065120D01*
X051920D01*
Y064880D01*
X051680D01*
X051600Y045100D02*
Y045500D01*
X052000D01*
Y045100D01*
X051600D01*
X051680Y045180D02*
Y045420D01*
X051920D01*
Y045180D01*
X051680D01*
X041800Y104200D02*
Y104600D01*
X042200D01*
Y104200D01*
X041800D01*
X041880Y104280D02*
Y104520D01*
X042120D01*
Y104280D01*
X041880D01*
X041800Y094400D02*
Y094800D01*
X042200D01*
Y094400D01*
X041800D01*
X041880Y094480D02*
Y094720D01*
X042120D01*
Y094480D01*
X041880D01*
X041800Y084500D02*
Y084900D01*
X042200D01*
Y084500D01*
X041800D01*
X041880Y084580D02*
Y084820D01*
X042120D01*
Y084580D01*
X041880D01*
X041800Y074700D02*
Y075100D01*
X042200D01*
Y074700D01*
X041800D01*
X041880Y074780D02*
Y075020D01*
X042120D01*
Y074780D01*
X041880D01*
X041800Y064800D02*
Y065200D01*
X042200D01*
Y064800D01*
X041800D01*
X041880Y064880D02*
Y065120D01*
X042120D01*
Y064880D01*
X041880D01*
X041800Y055000D02*
Y055400D01*
X042200D01*
Y055000D01*
X041800D01*
X041880Y055080D02*
Y055320D01*
X042120D01*
Y055080D01*
X041880D01*
X041800Y045100D02*
Y045500D01*
X042200D01*
Y045100D01*
X041800D01*
X041880Y045180D02*
Y045420D01*
X042120D01*
Y045180D01*
X041880D01*
X031900Y045100D02*
Y045500D01*
X032300D01*
Y045100D01*
X031900D01*
X031980Y045180D02*
Y045420D01*
X032220D01*
Y045180D01*
X031980D01*
X031900Y055000D02*
Y055400D01*
X032300D01*
Y055000D01*
X031900D01*
X031980Y055080D02*
Y055320D01*
X032220D01*
Y055080D01*
X031980D01*
X031900Y064800D02*
Y065200D01*
X032300D01*
Y064800D01*
X031900D01*
X031980Y064880D02*
Y065120D01*
X032220D01*
Y064880D01*
X031980D01*
X031900Y074700D02*
Y075100D01*
X032300D01*
Y074700D01*
X031900D01*
X031980Y074780D02*
Y075020D01*
X032220D01*
Y074780D01*
X031980D01*
X031900Y084500D02*
Y084900D01*
X032300D01*
Y084500D01*
X031900D01*
X031980Y084580D02*
Y084820D01*
X032220D01*
Y084580D01*
X031980D01*
X031900Y094400D02*
Y094800D01*
X032300D01*
Y094400D01*
X031900D01*
X031980Y094480D02*
Y094720D01*
X032220D01*
Y094480D01*
X031980D01*
X031900Y104200D02*
Y104600D01*
X032300D01*
Y104200D01*
X031900D01*
X031980Y104280D02*
Y104520D01*
X032220D01*
Y104280D01*
X031980D01*
X031900Y035300D02*
Y035700D01*
X032300D01*
Y035300D01*
X031900D01*
X031980Y035380D02*
Y035620D01*
X032220D01*
Y035380D01*
X031980D01*
X024300Y038300D02*
Y038700D01*
X024700D01*
Y038300D01*
X024300D01*
X024380Y038380D02*
Y038620D01*
X024620D01*
Y038380D01*
X024380D01*
X034143Y038300D02*
Y038700D01*
X034543D01*
Y038300D01*
X034143D01*
X034223Y038380D02*
Y038620D01*
X034463D01*
Y038380D01*
X034223D01*
X043985Y038300D02*
Y038700D01*
X044385D01*
Y038300D01*
X043985D01*
X044065Y038380D02*
Y038620D01*
X044305D01*
Y038380D01*
X044065D01*
X053828Y038300D02*
Y038700D01*
X054228D01*
Y038300D01*
X053828D01*
X053908Y038380D02*
Y038620D01*
X054148D01*
Y038380D01*
X053908D01*
X063670Y038300D02*
Y038700D01*
X064070D01*
Y038300D01*
X063670D01*
X063750Y038380D02*
Y038620D01*
X063990D01*
Y038380D01*
X063750D01*
X073513Y038300D02*
Y038700D01*
X073913D01*
Y038300D01*
X073513D01*
X073593Y038380D02*
Y038620D01*
X073833D01*
Y038380D01*
X073593D01*
X083355Y038300D02*
Y038700D01*
X083755D01*
Y038300D01*
X083355D01*
X083435Y038380D02*
Y038620D01*
X083675D01*
Y038380D01*
X083435D01*
X093198Y038300D02*
Y038700D01*
X093598D01*
Y038300D01*
X093198D01*
X093278Y038380D02*
Y038620D01*
X093518D01*
Y038380D01*
X093278D01*
X024300Y048143D02*
Y048543D01*
X024700D01*
Y048143D01*
X024300D01*
X024380Y048223D02*
Y048463D01*
X024620D01*
Y048223D01*
X024380D01*
X034143Y048143D02*
Y048543D01*
X034543D01*
Y048143D01*
X034143D01*
X034223Y048223D02*
Y048463D01*
X034463D01*
Y048223D01*
X034223D01*
X043985Y048143D02*
Y048543D01*
X044385D01*
Y048143D01*
X043985D01*
X044065Y048223D02*
Y048463D01*
X044305D01*
Y048223D01*
X044065D01*
X053828Y048143D02*
Y048543D01*
X054228D01*
Y048143D01*
X053828D01*
X053908Y048223D02*
Y048463D01*
X054148D01*
Y048223D01*
X053908D01*
X063670Y048143D02*
Y048543D01*
X064070D01*
Y048143D01*
X063670D01*
X063750Y048223D02*
Y048463D01*
X063990D01*
Y048223D01*
X063750D01*
X073513Y048143D02*
Y048543D01*
X073913D01*
Y048143D01*
X073513D01*
X073593Y048223D02*
Y048463D01*
X073833D01*
Y048223D01*
X073593D01*
X083355Y048143D02*
Y048543D01*
X083755D01*
Y048143D01*
X083355D01*
X083435Y048223D02*
Y048463D01*
X083675D01*
Y048223D01*
X083435D01*
X093198Y048143D02*
Y048543D01*
X093598D01*
Y048143D01*
X093198D01*
X093278Y048223D02*
Y048463D01*
X093518D01*
Y048223D01*
X093278D01*
X024300Y057985D02*
Y058385D01*
X024700D01*
Y057985D01*
X024300D01*
X024380Y058065D02*
Y058305D01*
X024620D01*
Y058065D01*
X024380D01*
X034143Y057985D02*
Y058385D01*
X034543D01*
Y057985D01*
X034143D01*
X034223Y058065D02*
Y058305D01*
X034463D01*
Y058065D01*
X034223D01*
X043985Y057985D02*
Y058385D01*
X044385D01*
Y057985D01*
X043985D01*
X044065Y058065D02*
Y058305D01*
X044305D01*
Y058065D01*
X044065D01*
X053828Y057985D02*
Y058385D01*
X054228D01*
Y057985D01*
X053828D01*
X053908Y058065D02*
Y058305D01*
X054148D01*
Y058065D01*
X053908D01*
X063670Y057985D02*
Y058385D01*
X064070D01*
Y057985D01*
X063670D01*
X063750Y058065D02*
Y058305D01*
X063990D01*
Y058065D01*
X063750D01*
X073513Y057985D02*
Y058385D01*
X073913D01*
Y057985D01*
X073513D01*
X073593Y058065D02*
Y058305D01*
X073833D01*
Y058065D01*
X073593D01*
X083355Y057985D02*
Y058385D01*
X083755D01*
Y057985D01*
X083355D01*
X083435Y058065D02*
Y058305D01*
X083675D01*
Y058065D01*
X083435D01*
X093198Y057985D02*
Y058385D01*
X093598D01*
Y057985D01*
X093198D01*
X093278Y058065D02*
Y058305D01*
X093518D01*
Y058065D01*
X093278D01*
X024300Y067828D02*
Y068228D01*
X024700D01*
Y067828D01*
X024300D01*
X024380Y067908D02*
Y068148D01*
X024620D01*
Y067908D01*
X024380D01*
X034143Y067828D02*
Y068228D01*
X034543D01*
Y067828D01*
X034143D01*
X034223Y067908D02*
Y068148D01*
X034463D01*
Y067908D01*
X034223D01*
X043985Y067828D02*
Y068228D01*
X044385D01*
Y067828D01*
X043985D01*
X044065Y067908D02*
Y068148D01*
X044305D01*
Y067908D01*
X044065D01*
X053828Y067828D02*
Y068228D01*
X054228D01*
Y067828D01*
X053828D01*
X053908Y067908D02*
Y068148D01*
X054148D01*
Y067908D01*
X053908D01*
X063670Y067828D02*
Y068228D01*
X064070D01*
Y067828D01*
X063670D01*
X063750Y067908D02*
Y068148D01*
X063990D01*
Y067908D01*
X063750D01*
X073513Y067828D02*
Y068228D01*
X073913D01*
Y067828D01*
X073513D01*
X073593Y067908D02*
Y068148D01*
X073833D01*
Y067908D01*
X073593D01*
X083355Y067828D02*
Y068228D01*
X083755D01*
Y067828D01*
X083355D01*
X083435Y067908D02*
Y068148D01*
X083675D01*
Y067908D01*
X083435D01*
X093198Y067828D02*
Y068228D01*
X093598D01*
Y067828D01*
X093198D01*
X093278Y067908D02*
Y068148D01*
X093518D01*
Y067908D01*
X093278D01*
X024300Y077670D02*
Y078070D01*
X024700D01*
Y077670D01*
X024300D01*
X024380Y077750D02*
Y077990D01*
X024620D01*
Y077750D01*
X024380D01*
X034143Y077670D02*
Y078070D01*
X034543D01*
Y077670D01*
X034143D01*
X034223Y077750D02*
Y077990D01*
X034463D01*
Y077750D01*
X034223D01*
X043985Y077670D02*
Y078070D01*
X044385D01*
Y077670D01*
X043985D01*
X044065Y077750D02*
Y077990D01*
X044305D01*
Y077750D01*
X044065D01*
X053828Y077670D02*
Y078070D01*
X054228D01*
Y077670D01*
X053828D01*
X053908Y077750D02*
Y077990D01*
X054148D01*
Y077750D01*
X053908D01*
X063670Y077670D02*
Y078070D01*
X064070D01*
Y077670D01*
X063670D01*
X063750Y077750D02*
Y077990D01*
X063990D01*
Y077750D01*
X063750D01*
X073513Y077670D02*
Y078070D01*
X073913D01*
Y077670D01*
X073513D01*
X073593Y077750D02*
Y077990D01*
X073833D01*
Y077750D01*
X073593D01*
X083355Y077670D02*
Y078070D01*
X083755D01*
Y077670D01*
X083355D01*
X083435Y077750D02*
Y077990D01*
X083675D01*
Y077750D01*
X083435D01*
X093198Y077670D02*
Y078070D01*
X093598D01*
Y077670D01*
X093198D01*
X093278Y077750D02*
Y077990D01*
X093518D01*
Y077750D01*
X093278D01*
X024300Y087513D02*
Y087913D01*
X024700D01*
Y087513D01*
X024300D01*
X024380Y087593D02*
Y087833D01*
X024620D01*
Y087593D01*
X024380D01*
X034143Y087513D02*
Y087913D01*
X034543D01*
Y087513D01*
X034143D01*
X034223Y087593D02*
Y087833D01*
X034463D01*
Y087593D01*
X034223D01*
X043985Y087513D02*
Y087913D01*
X044385D01*
Y087513D01*
X043985D01*
X044065Y087593D02*
Y087833D01*
X044305D01*
Y087593D01*
X044065D01*
X053828Y087513D02*
Y087913D01*
X054228D01*
Y087513D01*
X053828D01*
X053908Y087593D02*
Y087833D01*
X054148D01*
Y087593D01*
X053908D01*
X063670Y087513D02*
Y087913D01*
X064070D01*
Y087513D01*
X063670D01*
X063750Y087593D02*
Y087833D01*
X063990D01*
Y087593D01*
X063750D01*
X073513Y087513D02*
Y087913D01*
X073913D01*
Y087513D01*
X073513D01*
X073593Y087593D02*
Y087833D01*
X073833D01*
Y087593D01*
X073593D01*
X083355Y087513D02*
Y087913D01*
X083755D01*
Y087513D01*
X083355D01*
X083435Y087593D02*
Y087833D01*
X083675D01*
Y087593D01*
X083435D01*
X093198Y087513D02*
Y087913D01*
X093598D01*
Y087513D01*
X093198D01*
X093278Y087593D02*
Y087833D01*
X093518D01*
Y087593D01*
X093278D01*
X024300Y097355D02*
Y097755D01*
X024700D01*
Y097355D01*
X024300D01*
X024380Y097435D02*
Y097675D01*
X024620D01*
Y097435D01*
X024380D01*
X034143Y097355D02*
Y097755D01*
X034543D01*
Y097355D01*
X034143D01*
X034223Y097435D02*
Y097675D01*
X034463D01*
Y097435D01*
X034223D01*
X043985Y097355D02*
Y097755D01*
X044385D01*
Y097355D01*
X043985D01*
X044065Y097435D02*
Y097675D01*
X044305D01*
Y097435D01*
X044065D01*
X053828Y097355D02*
Y097755D01*
X054228D01*
Y097355D01*
X053828D01*
X053908Y097435D02*
Y097675D01*
X054148D01*
Y097435D01*
X053908D01*
X063670Y097355D02*
Y097755D01*
X064070D01*
Y097355D01*
X063670D01*
X063750Y097435D02*
Y097675D01*
X063990D01*
Y097435D01*
X063750D01*
X073513Y097355D02*
Y097755D01*
X073913D01*
Y097355D01*
X073513D01*
X073593Y097435D02*
Y097675D01*
X073833D01*
Y097435D01*
X073593D01*
X083355Y097355D02*
Y097755D01*
X083755D01*
Y097355D01*
X083355D01*
X083435Y097435D02*
Y097675D01*
X083675D01*
Y097435D01*
X083435D01*
X093198Y097355D02*
Y097755D01*
X093598D01*
Y097355D01*
X093198D01*
X093278Y097435D02*
Y097675D01*
X093518D01*
Y097435D01*
X093278D01*
X024300Y107198D02*
Y107598D01*
X024700D01*
Y107198D01*
X024300D01*
X024380Y107278D02*
Y107518D01*
X024620D01*
Y107278D01*
X024380D01*
X034143Y107198D02*
Y107598D01*
X034543D01*
Y107198D01*
X034143D01*
X034223Y107278D02*
Y107518D01*
X034463D01*
Y107278D01*
X034223D01*
X043985Y107198D02*
Y107598D01*
X044385D01*
Y107198D01*
X043985D01*
X044065Y107278D02*
Y107518D01*
X044305D01*
Y107278D01*
X044065D01*
X053828Y107198D02*
Y107598D01*
X054228D01*
Y107198D01*
X053828D01*
X053908Y107278D02*
Y107518D01*
X054148D01*
Y107278D01*
X053908D01*
X063670Y107198D02*
Y107598D01*
X064070D01*
Y107198D01*
X063670D01*
X063750Y107278D02*
Y107518D01*
X063990D01*
Y107278D01*
X063750D01*
X073513Y107198D02*
Y107598D01*
X073913D01*
Y107198D01*
X073513D01*
X073593Y107278D02*
Y107518D01*
X073833D01*
Y107278D01*
X073593D01*
X083355Y107198D02*
Y107598D01*
X083755D01*
Y107198D01*
X083355D01*
X083435Y107278D02*
Y107518D01*
X083675D01*
Y107278D01*
X083435D01*
X093198Y107198D02*
Y107598D01*
X093598D01*
Y107198D01*
X093198D01*
X093278Y107278D02*
Y107518D01*
X093518D01*
Y107278D01*
X093278D01*
X090400Y105698D02*
Y106098D01*
X090800D01*
Y105698D01*
X090400D01*
X090480Y105778D02*
Y106018D01*
X090720D01*
Y105778D01*
X090480D01*
X090400Y103300D02*
Y103700D01*
X090800D01*
Y103300D01*
X090400D01*
X090480Y103380D02*
Y103620D01*
X090720D01*
Y103380D01*
X090480D01*
X080557Y103300D02*
Y103700D01*
X080957D01*
Y103300D01*
X080557D01*
X080637Y103380D02*
Y103620D01*
X080877D01*
Y103380D01*
X080637D01*
X080557Y105698D02*
Y106098D01*
X080957D01*
Y105698D01*
X080557D01*
X080637Y105778D02*
Y106018D01*
X080877D01*
Y105778D01*
X080637D01*
X070715Y103300D02*
Y103700D01*
X071115D01*
Y103300D01*
X070715D01*
X070795Y103380D02*
Y103620D01*
X071035D01*
Y103380D01*
X070795D01*
X070715Y105698D02*
Y106098D01*
X071115D01*
Y105698D01*
X070715D01*
X070795Y105778D02*
Y106018D01*
X071035D01*
Y105778D01*
X070795D01*
X060872Y103300D02*
Y103700D01*
X061272D01*
Y103300D01*
X060872D01*
X060952Y103380D02*
Y103620D01*
X061192D01*
Y103380D01*
X060952D01*
X060872Y105698D02*
Y106098D01*
X061272D01*
Y105698D01*
X060872D01*
X060952Y105778D02*
Y106018D01*
X061192D01*
Y105778D01*
X060952D01*
X051030Y103300D02*
Y103700D01*
X051430D01*
Y103300D01*
X051030D01*
X051110Y103380D02*
Y103620D01*
X051350D01*
Y103380D01*
X051110D01*
X051030Y105698D02*
Y106098D01*
X051430D01*
Y105698D01*
X051030D01*
X051110Y105778D02*
Y106018D01*
X051350D01*
Y105778D01*
X051110D01*
X041187Y103300D02*
Y103700D01*
X041587D01*
Y103300D01*
X041187D01*
X041267Y103380D02*
Y103620D01*
X041507D01*
Y103380D01*
X041267D01*
X041187Y105698D02*
Y106098D01*
X041587D01*
Y105698D01*
X041187D01*
X041267Y105778D02*
Y106018D01*
X041507D01*
Y105778D01*
X041267D01*
X031345Y103300D02*
Y103700D01*
X031745D01*
Y103300D01*
X031345D01*
X031425Y103380D02*
Y103620D01*
X031665D01*
Y103380D01*
X031425D01*
X031345Y105698D02*
Y106098D01*
X031745D01*
Y105698D01*
X031345D01*
X031425Y105778D02*
Y106018D01*
X031665D01*
Y105778D01*
X031425D01*
X031345Y093458D02*
Y093858D01*
X031745D01*
Y093458D01*
X031345D01*
X031425Y093538D02*
Y093778D01*
X031665D01*
Y093538D01*
X031425D01*
X031345Y095855D02*
Y096255D01*
X031745D01*
Y095855D01*
X031345D01*
X031425Y095935D02*
Y096175D01*
X031665D01*
Y095935D01*
X031425D01*
X041187Y093458D02*
Y093858D01*
X041587D01*
Y093458D01*
X041187D01*
X041267Y093538D02*
Y093778D01*
X041507D01*
Y093538D01*
X041267D01*
X041187Y095855D02*
Y096255D01*
X041587D01*
Y095855D01*
X041187D01*
X041267Y095935D02*
Y096175D01*
X041507D01*
Y095935D01*
X041267D01*
X051030Y093458D02*
Y093858D01*
X051430D01*
Y093458D01*
X051030D01*
X051110Y093538D02*
Y093778D01*
X051350D01*
Y093538D01*
X051110D01*
X051030Y095855D02*
Y096255D01*
X051430D01*
Y095855D01*
X051030D01*
X051110Y095935D02*
Y096175D01*
X051350D01*
Y095935D01*
X051110D01*
X060872Y093458D02*
Y093858D01*
X061272D01*
Y093458D01*
X060872D01*
X060952Y093538D02*
Y093778D01*
X061192D01*
Y093538D01*
X060952D01*
X060872Y095855D02*
Y096255D01*
X061272D01*
Y095855D01*
X060872D01*
X060952Y095935D02*
Y096175D01*
X061192D01*
Y095935D01*
X060952D01*
X070715Y093458D02*
Y093858D01*
X071115D01*
Y093458D01*
X070715D01*
X070795Y093538D02*
Y093778D01*
X071035D01*
Y093538D01*
X070795D01*
X070715Y095855D02*
Y096255D01*
X071115D01*
Y095855D01*
X070715D01*
X070795Y095935D02*
Y096175D01*
X071035D01*
Y095935D01*
X070795D01*
X080557Y093458D02*
Y093858D01*
X080957D01*
Y093458D01*
X080557D01*
X080637Y093538D02*
Y093778D01*
X080877D01*
Y093538D01*
X080637D01*
X080557Y095855D02*
Y096255D01*
X080957D01*
Y095855D01*
X080557D01*
X080637Y095935D02*
Y096175D01*
X080877D01*
Y095935D01*
X080637D01*
X090400Y093458D02*
Y093858D01*
X090800D01*
Y093458D01*
X090400D01*
X090480Y093538D02*
Y093778D01*
X090720D01*
Y093538D01*
X090480D01*
X090400Y095855D02*
Y096255D01*
X090800D01*
Y095855D01*
X090400D01*
X090480Y095935D02*
Y096175D01*
X090720D01*
Y095935D01*
X090480D01*
X090400Y083615D02*
Y084015D01*
X090800D01*
Y083615D01*
X090400D01*
X090480Y083695D02*
Y083935D01*
X090720D01*
Y083695D01*
X090480D01*
X090400Y086013D02*
Y086413D01*
X090800D01*
Y086013D01*
X090400D01*
X090480Y086093D02*
Y086333D01*
X090720D01*
Y086093D01*
X090480D01*
X080557Y083615D02*
Y084015D01*
X080957D01*
Y083615D01*
X080557D01*
X080637Y083695D02*
Y083935D01*
X080877D01*
Y083695D01*
X080637D01*
X080557Y086013D02*
Y086413D01*
X080957D01*
Y086013D01*
X080557D01*
X080637Y086093D02*
Y086333D01*
X080877D01*
Y086093D01*
X080637D01*
X070715Y083615D02*
Y084015D01*
X071115D01*
Y083615D01*
X070715D01*
X070795Y083695D02*
Y083935D01*
X071035D01*
Y083695D01*
X070795D01*
X070715Y086013D02*
Y086413D01*
X071115D01*
Y086013D01*
X070715D01*
X070795Y086093D02*
Y086333D01*
X071035D01*
Y086093D01*
X070795D01*
X060872Y083615D02*
Y084015D01*
X061272D01*
Y083615D01*
X060872D01*
X060952Y083695D02*
Y083935D01*
X061192D01*
Y083695D01*
X060952D01*
X060872Y086013D02*
Y086413D01*
X061272D01*
Y086013D01*
X060872D01*
X060952Y086093D02*
Y086333D01*
X061192D01*
Y086093D01*
X060952D01*
X051030Y083615D02*
Y084015D01*
X051430D01*
Y083615D01*
X051030D01*
X051110Y083695D02*
Y083935D01*
X051350D01*
Y083695D01*
X051110D01*
X051030Y086013D02*
Y086413D01*
X051430D01*
Y086013D01*
X051030D01*
X051110Y086093D02*
Y086333D01*
X051350D01*
Y086093D01*
X051110D01*
X041187Y083615D02*
Y084015D01*
X041587D01*
Y083615D01*
X041187D01*
X041267Y083695D02*
Y083935D01*
X041507D01*
Y083695D01*
X041267D01*
X041187Y086013D02*
Y086413D01*
X041587D01*
Y086013D01*
X041187D01*
X041267Y086093D02*
Y086333D01*
X041507D01*
Y086093D01*
X041267D01*
X031345Y083615D02*
Y084015D01*
X031745D01*
Y083615D01*
X031345D01*
X031425Y083695D02*
Y083935D01*
X031665D01*
Y083695D01*
X031425D01*
X031345Y086013D02*
Y086413D01*
X031745D01*
Y086013D01*
X031345D01*
X031425Y086093D02*
Y086333D01*
X031665D01*
Y086093D01*
X031425D01*
X031345Y073772D02*
Y074172D01*
X031745D01*
Y073772D01*
X031345D01*
X031425Y073852D02*
Y074092D01*
X031665D01*
Y073852D01*
X031425D01*
X031345Y076170D02*
Y076570D01*
X031745D01*
Y076170D01*
X031345D01*
X031425Y076250D02*
Y076490D01*
X031665D01*
Y076250D01*
X031425D01*
X041187Y073772D02*
Y074172D01*
X041587D01*
Y073772D01*
X041187D01*
X041267Y073852D02*
Y074092D01*
X041507D01*
Y073852D01*
X041267D01*
X041187Y076170D02*
Y076570D01*
X041587D01*
Y076170D01*
X041187D01*
X041267Y076250D02*
Y076490D01*
X041507D01*
Y076250D01*
X041267D01*
X051030Y073772D02*
Y074172D01*
X051430D01*
Y073772D01*
X051030D01*
X051110Y073852D02*
Y074092D01*
X051350D01*
Y073852D01*
X051110D01*
X051030Y076170D02*
Y076570D01*
X051430D01*
Y076170D01*
X051030D01*
X051110Y076250D02*
Y076490D01*
X051350D01*
Y076250D01*
X051110D01*
X060872Y073772D02*
Y074172D01*
X061272D01*
Y073772D01*
X060872D01*
X060952Y073852D02*
Y074092D01*
X061192D01*
Y073852D01*
X060952D01*
X060872Y076170D02*
Y076570D01*
X061272D01*
Y076170D01*
X060872D01*
X060952Y076250D02*
Y076490D01*
X061192D01*
Y076250D01*
X060952D01*
X070715Y073772D02*
Y074172D01*
X071115D01*
Y073772D01*
X070715D01*
X070795Y073852D02*
Y074092D01*
X071035D01*
Y073852D01*
X070795D01*
X070715Y076170D02*
Y076570D01*
X071115D01*
Y076170D01*
X070715D01*
X070795Y076250D02*
Y076490D01*
X071035D01*
Y076250D01*
X070795D01*
X080557Y073772D02*
Y074172D01*
X080957D01*
Y073772D01*
X080557D01*
X080637Y073852D02*
Y074092D01*
X080877D01*
Y073852D01*
X080637D01*
X080557Y076170D02*
Y076570D01*
X080957D01*
Y076170D01*
X080557D01*
X080637Y076250D02*
Y076490D01*
X080877D01*
Y076250D01*
X080637D01*
X090400Y073772D02*
Y074172D01*
X090800D01*
Y073772D01*
X090400D01*
X090480Y073852D02*
Y074092D01*
X090720D01*
Y073852D01*
X090480D01*
X090400Y076170D02*
Y076570D01*
X090800D01*
Y076170D01*
X090400D01*
X090480Y076250D02*
Y076490D01*
X090720D01*
Y076250D01*
X090480D01*
X090400Y063930D02*
Y064330D01*
X090800D01*
Y063930D01*
X090400D01*
X090480Y064010D02*
Y064250D01*
X090720D01*
Y064010D01*
X090480D01*
X090400Y066328D02*
Y066728D01*
X090800D01*
Y066328D01*
X090400D01*
X090480Y066408D02*
Y066648D01*
X090720D01*
Y066408D01*
X090480D01*
X080557Y063930D02*
Y064330D01*
X080957D01*
Y063930D01*
X080557D01*
X080637Y064010D02*
Y064250D01*
X080877D01*
Y064010D01*
X080637D01*
X080557Y066328D02*
Y066728D01*
X080957D01*
Y066328D01*
X080557D01*
X080637Y066408D02*
Y066648D01*
X080877D01*
Y066408D01*
X080637D01*
X070715Y063930D02*
Y064330D01*
X071115D01*
Y063930D01*
X070715D01*
X070795Y064010D02*
Y064250D01*
X071035D01*
Y064010D01*
X070795D01*
X070715Y066328D02*
Y066728D01*
X071115D01*
Y066328D01*
X070715D01*
X070795Y066408D02*
Y066648D01*
X071035D01*
Y066408D01*
X070795D01*
X060872Y063930D02*
Y064330D01*
X061272D01*
Y063930D01*
X060872D01*
X060952Y064010D02*
Y064250D01*
X061192D01*
Y064010D01*
X060952D01*
X060872Y066328D02*
Y066728D01*
X061272D01*
Y066328D01*
X060872D01*
X060952Y066408D02*
Y066648D01*
X061192D01*
Y066408D01*
X060952D01*
X051030Y063930D02*
Y064330D01*
X051430D01*
Y063930D01*
X051030D01*
X051110Y064010D02*
Y064250D01*
X051350D01*
Y064010D01*
X051110D01*
X051030Y066328D02*
Y066728D01*
X051430D01*
Y066328D01*
X051030D01*
X051110Y066408D02*
Y066648D01*
X051350D01*
Y066408D01*
X051110D01*
X041187Y063930D02*
Y064330D01*
X041587D01*
Y063930D01*
X041187D01*
X041267Y064010D02*
Y064250D01*
X041507D01*
Y064010D01*
X041267D01*
X041187Y066328D02*
Y066728D01*
X041587D01*
Y066328D01*
X041187D01*
X041267Y066408D02*
Y066648D01*
X041507D01*
Y066408D01*
X041267D01*
X031345Y063930D02*
Y064330D01*
X031745D01*
Y063930D01*
X031345D01*
X031425Y064010D02*
Y064250D01*
X031665D01*
Y064010D01*
X031425D01*
X031345Y066328D02*
Y066728D01*
X031745D01*
Y066328D01*
X031345D01*
X031425Y066408D02*
Y066648D01*
X031665D01*
Y066408D01*
X031425D01*
X031345Y054087D02*
Y054487D01*
X031745D01*
Y054087D01*
X031345D01*
X031425Y054167D02*
Y054407D01*
X031665D01*
Y054167D01*
X031425D01*
X031345Y056485D02*
Y056885D01*
X031745D01*
Y056485D01*
X031345D01*
X031425Y056565D02*
Y056805D01*
X031665D01*
Y056565D01*
X031425D01*
X041187Y054087D02*
Y054487D01*
X041587D01*
Y054087D01*
X041187D01*
X041267Y054167D02*
Y054407D01*
X041507D01*
Y054167D01*
X041267D01*
X041187Y056485D02*
Y056885D01*
X041587D01*
Y056485D01*
X041187D01*
X041267Y056565D02*
Y056805D01*
X041507D01*
Y056565D01*
X041267D01*
X051030Y054087D02*
Y054487D01*
X051430D01*
Y054087D01*
X051030D01*
X051110Y054167D02*
Y054407D01*
X051350D01*
Y054167D01*
X051110D01*
X051030Y056485D02*
Y056885D01*
X051430D01*
Y056485D01*
X051030D01*
X051110Y056565D02*
Y056805D01*
X051350D01*
Y056565D01*
X051110D01*
X060872Y054087D02*
Y054487D01*
X061272D01*
Y054087D01*
X060872D01*
X060952Y054167D02*
Y054407D01*
X061192D01*
Y054167D01*
X060952D01*
X060872Y056485D02*
Y056885D01*
X061272D01*
Y056485D01*
X060872D01*
X060952Y056565D02*
Y056805D01*
X061192D01*
Y056565D01*
X060952D01*
X070715Y054087D02*
Y054487D01*
X071115D01*
Y054087D01*
X070715D01*
X070795Y054167D02*
Y054407D01*
X071035D01*
Y054167D01*
X070795D01*
X070715Y056485D02*
Y056885D01*
X071115D01*
Y056485D01*
X070715D01*
X070795Y056565D02*
Y056805D01*
X071035D01*
Y056565D01*
X070795D01*
X080557Y054087D02*
Y054487D01*
X080957D01*
Y054087D01*
X080557D01*
X080637Y054167D02*
Y054407D01*
X080877D01*
Y054167D01*
X080637D01*
X080557Y056485D02*
Y056885D01*
X080957D01*
Y056485D01*
X080557D01*
X080637Y056565D02*
Y056805D01*
X080877D01*
Y056565D01*
X080637D01*
X090400Y054087D02*
Y054487D01*
X090800D01*
Y054087D01*
X090400D01*
X090480Y054167D02*
Y054407D01*
X090720D01*
Y054167D01*
X090480D01*
X090400Y056485D02*
Y056885D01*
X090800D01*
Y056485D01*
X090400D01*
X090480Y056565D02*
Y056805D01*
X090720D01*
Y056565D01*
X090480D01*
X090400Y044245D02*
Y044645D01*
X090800D01*
Y044245D01*
X090400D01*
X090480Y044325D02*
Y044565D01*
X090720D01*
Y044325D01*
X090480D01*
X090400Y046643D02*
Y047043D01*
X090800D01*
Y046643D01*
X090400D01*
X090480Y046723D02*
Y046963D01*
X090720D01*
Y046723D01*
X090480D01*
X080557Y044245D02*
Y044645D01*
X080957D01*
Y044245D01*
X080557D01*
X080637Y044325D02*
Y044565D01*
X080877D01*
Y044325D01*
X080637D01*
X080557Y046643D02*
Y047043D01*
X080957D01*
Y046643D01*
X080557D01*
X080637Y046723D02*
Y046963D01*
X080877D01*
Y046723D01*
X080637D01*
X070715Y044245D02*
Y044645D01*
X071115D01*
Y044245D01*
X070715D01*
X070795Y044325D02*
Y044565D01*
X071035D01*
Y044325D01*
X070795D01*
X070715Y046643D02*
Y047043D01*
X071115D01*
Y046643D01*
X070715D01*
X070795Y046723D02*
Y046963D01*
X071035D01*
Y046723D01*
X070795D01*
X060872Y046643D02*
Y047043D01*
X061272D01*
Y046643D01*
X060872D01*
X060952Y046723D02*
Y046963D01*
X061192D01*
Y046723D01*
X060952D01*
X060872Y044245D02*
Y044645D01*
X061272D01*
Y044245D01*
X060872D01*
X060952Y044325D02*
Y044565D01*
X061192D01*
Y044325D01*
X060952D01*
X051030Y046643D02*
Y047043D01*
X051430D01*
Y046643D01*
X051030D01*
X051110Y046723D02*
Y046963D01*
X051350D01*
Y046723D01*
X051110D01*
X051030Y044245D02*
Y044645D01*
X051430D01*
Y044245D01*
X051030D01*
X051110Y044325D02*
Y044565D01*
X051350D01*
Y044325D01*
X051110D01*
X041187Y046643D02*
Y047043D01*
X041587D01*
Y046643D01*
X041187D01*
X041267Y046723D02*
Y046963D01*
X041507D01*
Y046723D01*
X041267D01*
X041187Y044245D02*
Y044645D01*
X041587D01*
Y044245D01*
X041187D01*
X041267Y044325D02*
Y044565D01*
X041507D01*
Y044325D01*
X041267D01*
X031345Y046643D02*
Y047043D01*
X031745D01*
Y046643D01*
X031345D01*
X031425Y046723D02*
Y046963D01*
X031665D01*
Y046723D01*
X031425D01*
X031345Y044245D02*
Y044645D01*
X031745D01*
Y044245D01*
X031345D01*
X031425Y044325D02*
Y044565D01*
X031665D01*
Y044325D01*
X031425D01*
X031345Y036800D02*
Y037200D01*
X031745D01*
Y036800D01*
X031345D01*
X031425Y036880D02*
Y037120D01*
X031665D01*
Y036880D01*
X031425D01*
X031345Y034402D02*
Y034802D01*
X031745D01*
Y034402D01*
X031345D01*
X031425Y034482D02*
Y034722D01*
X031665D01*
Y034482D01*
X031425D01*
X041187Y036800D02*
Y037200D01*
X041587D01*
Y036800D01*
X041187D01*
X041267Y036880D02*
Y037120D01*
X041507D01*
Y036880D01*
X041267D01*
X041187Y034402D02*
Y034802D01*
X041587D01*
Y034402D01*
X041187D01*
X041267Y034482D02*
Y034722D01*
X041507D01*
Y034482D01*
X041267D01*
X051030Y034402D02*
Y034802D01*
X051430D01*
Y034402D01*
X051030D01*
X051110Y034482D02*
Y034722D01*
X051350D01*
Y034482D01*
X051110D01*
X060872Y034402D02*
Y034802D01*
X061272D01*
Y034402D01*
X060872D01*
X060952Y034482D02*
Y034722D01*
X061192D01*
Y034482D01*
X060952D01*
X070715Y036800D02*
Y037200D01*
X071115D01*
Y036800D01*
X070715D01*
X070795Y036880D02*
Y037120D01*
X071035D01*
Y036880D01*
X070795D01*
X070715Y034402D02*
Y034802D01*
X071115D01*
Y034402D01*
X070715D01*
X070795Y034482D02*
Y034722D01*
X071035D01*
Y034482D01*
X070795D01*
X080557Y036800D02*
Y037200D01*
X080957D01*
Y036800D01*
X080557D01*
X080637Y036880D02*
Y037120D01*
X080877D01*
Y036880D01*
X080637D01*
X080557Y034402D02*
Y034802D01*
X080957D01*
Y034402D01*
X080557D01*
X080637Y034482D02*
Y034722D01*
X080877D01*
Y034482D01*
X080637D01*
X090400Y036800D02*
Y037200D01*
X090800D01*
Y036800D01*
X090400D01*
X090480Y036880D02*
Y037120D01*
X090720D01*
Y036880D01*
X090480D01*
X090400Y034402D02*
Y034802D01*
X090800D01*
Y034402D01*
X090400D01*
X090480Y034482D02*
Y034722D01*
X090720D01*
Y034482D01*
X090480D01*
X103120Y112050D02*
G03*
X103120Y112050I-000120J000000D01*
G01*
X051030Y036800D02*
Y037200D01*
X051430D01*
Y036800D01*
X051030D01*
X051110Y036880D02*
Y037120D01*
X051350D01*
Y036880D01*
X051110D01*
M02*
