%FSAX23Y23*%
%MOIN*%
G70*
G01*
G75*
G04 Layer_Physical_Order=1*
G04 Layer_Color=255*
G04:AMPARAMS|DCode=10|XSize=200mil|YSize=70mil|CornerRadius=18mil|HoleSize=0mil|Usage=FLASHONLY|Rotation=180.000|XOffset=0mil|YOffset=0mil|HoleType=Round|Shape=RoundedRectangle|*
%AMROUNDEDRECTD10*
21,1,0.200,0.035,0,0,180.0*
21,1,0.165,0.070,0,0,180.0*
1,1,0.035,-0.083,0.018*
1,1,0.035,0.083,0.018*
1,1,0.035,0.083,-0.018*
1,1,0.035,-0.083,-0.018*
%
%ADD10ROUNDEDRECTD10*%
%ADD11R,0.200X0.070*%
%ADD12C,0.030*%
%ADD13C,0.050*%
%ADD14C,0.020*%
%ADD15C,0.059*%
%ADD16R,0.059X0.059*%
%ADD17C,0.053*%
%ADD18R,0.053X0.053*%
%ADD19C,0.050*%
%ADD20O,0.080X0.040*%
%ADD21R,0.080X0.040*%
%ADD22C,0.055*%
%ADD23O,0.079X0.039*%
%ADD24O,0.079X0.039*%
%ADD25C,0.060*%
%ADD26R,0.060X0.060*%
%ADD27R,0.059X0.059*%
%ADD28R,0.060X0.060*%
%ADD29C,0.065*%
%ADD30C,0.040*%
D10*
X09476Y03561D02*
D03*
Y10451D02*
D03*
X08880Y10451D02*
D03*
X07895D02*
D03*
X06911D02*
D03*
X05927D02*
D03*
X04943D02*
D03*
X03958D02*
D03*
X02974D02*
D03*
X09476Y09467D02*
D03*
X08880Y09467D02*
D03*
X07895D02*
D03*
X06911D02*
D03*
X05927D02*
D03*
X04943D02*
D03*
X03958D02*
D03*
X02974D02*
D03*
X09476Y08482D02*
D03*
X08880Y08482D02*
D03*
X07895D02*
D03*
X06911D02*
D03*
X05927D02*
D03*
X04943D02*
D03*
X03958D02*
D03*
X02974D02*
D03*
X09476Y07498D02*
D03*
X08880Y07498D02*
D03*
X07895D02*
D03*
X06911D02*
D03*
X05927D02*
D03*
X04943D02*
D03*
X03958D02*
D03*
X02974D02*
D03*
X09476Y06514D02*
D03*
X08880Y06514D02*
D03*
X07895D02*
D03*
X06911D02*
D03*
X05927D02*
D03*
X04943D02*
D03*
X03958D02*
D03*
X02974D02*
D03*
X09476Y05530D02*
D03*
X08880Y05530D02*
D03*
X07895D02*
D03*
X06911D02*
D03*
X05927D02*
D03*
X04943D02*
D03*
X03958D02*
D03*
X02974D02*
D03*
X09476Y04545D02*
D03*
X08880D02*
D03*
X07895D02*
D03*
X06911D02*
D03*
X05927D02*
D03*
X04943D02*
D03*
X03958D02*
D03*
X02974D02*
D03*
X08880Y03561D02*
D03*
X07895D02*
D03*
X06911D02*
D03*
X05927D02*
D03*
X04943D02*
D03*
X03958D02*
D03*
X02974D02*
D03*
D11*
X09819D02*
D03*
Y10451D02*
D03*
X08537Y10451D02*
D03*
X07552D02*
D03*
X06568D02*
D03*
X05584D02*
D03*
X04600D02*
D03*
X03615D02*
D03*
X02631D02*
D03*
X09819Y09467D02*
D03*
X08537Y09467D02*
D03*
X07552D02*
D03*
X06568D02*
D03*
X05584D02*
D03*
X04600D02*
D03*
X03615D02*
D03*
X02631D02*
D03*
X09819Y08482D02*
D03*
X08537Y08482D02*
D03*
X07552D02*
D03*
X06568D02*
D03*
X05584D02*
D03*
X04600D02*
D03*
X03615D02*
D03*
X02631D02*
D03*
X09819Y07498D02*
D03*
X08537Y07498D02*
D03*
X07552D02*
D03*
X06568D02*
D03*
X05584D02*
D03*
X04600D02*
D03*
X03615D02*
D03*
X02631D02*
D03*
X09819Y06514D02*
D03*
X08537Y06514D02*
D03*
X07552D02*
D03*
X06568D02*
D03*
X05584D02*
D03*
X04600D02*
D03*
X03615D02*
D03*
X02631D02*
D03*
X09819Y05530D02*
D03*
X08537Y05530D02*
D03*
X07552D02*
D03*
X06568D02*
D03*
X05584D02*
D03*
X04600D02*
D03*
X03615D02*
D03*
X02631D02*
D03*
X09819Y04545D02*
D03*
X08537D02*
D03*
X07552D02*
D03*
X06568D02*
D03*
X05584D02*
D03*
X04600D02*
D03*
X03615D02*
D03*
X02631D02*
D03*
X08537Y03561D02*
D03*
X07552D02*
D03*
X06568D02*
D03*
X05584D02*
D03*
X04600D02*
D03*
X03615D02*
D03*
X02631D02*
D03*
D12*
X09387Y11305D02*
X09540D01*
X09545Y11300D01*
X09500Y11255D02*
X09700Y11055D01*
X09450Y11255D02*
X09500D01*
X08363Y11302D02*
X08772D01*
X07388D02*
X07722D01*
X07385Y11305D02*
X07388Y11302D01*
X06695Y11305D02*
X06700D01*
X05175Y03689D02*
Y03750D01*
Y03689D02*
X05225Y03639D01*
X05307Y03800D02*
X05753D01*
X05296Y03811D02*
X05307Y03800D01*
X05225Y03811D02*
X05296D01*
X05214Y03800D02*
X05225Y03811D01*
X04769Y03800D02*
X05214D01*
X05157Y03650D02*
X05208Y03599D01*
X04769Y03650D02*
X05157D01*
X10055Y03437D02*
X10070Y03452D01*
X10015Y03453D02*
X10030Y03468D01*
X09975Y03470D02*
X09990Y03485D01*
Y03615D01*
X10030Y03468D02*
Y03555D01*
X10070Y03452D02*
Y03495D01*
X10150Y03575D01*
X10030Y03555D02*
X10150Y03675D01*
X09990Y03615D02*
X10150Y03775D01*
X09950Y03675D02*
X10150Y03875D01*
X09950Y03522D02*
Y03675D01*
X09930Y03502D02*
X09950Y03522D01*
X09930Y03430D02*
Y03502D01*
X09900Y03400D02*
X09930Y03430D01*
X09975Y03405D02*
Y03470D01*
X10015Y03388D02*
Y03453D01*
X10055Y03372D02*
Y03437D01*
X10095Y03420D02*
X10150Y03475D01*
X10095Y03355D02*
Y03420D01*
X09930Y03360D02*
X09975Y03405D01*
X08475Y03360D02*
X09930D01*
X09947Y03320D02*
X10015Y03388D01*
X07531Y03320D02*
X09947D01*
X09963Y03280D02*
X10055Y03372D01*
X06587Y03280D02*
X09963D01*
X09980Y03240D02*
X10095Y03355D01*
X06570Y03240D02*
X09980D01*
X10149Y03353D02*
Y03356D01*
X09996Y03200D02*
X10149Y03353D01*
X06554Y03200D02*
X09996D01*
X06537Y03160D02*
X10013D01*
X09419Y03400D02*
X09900D01*
X09390Y03429D02*
X09419Y03400D01*
X09390Y03429D02*
Y03430D01*
X09359Y03461D02*
X09390Y03430D01*
X09060Y03461D02*
X09359D01*
X09690Y03700D02*
X09749D01*
X10021Y03971D01*
X10013Y03160D02*
X10228Y03375D01*
X10149Y03356D02*
X10150Y03357D01*
Y03375D01*
X10030Y05520D02*
X10150Y05640D01*
X10030Y05430D02*
Y05520D01*
X09990Y05580D02*
X10150Y05740D01*
X09990Y05450D02*
Y05580D01*
X09906Y05246D02*
X10070Y05410D01*
X09886Y05286D02*
X10030Y05430D01*
X09866Y05326D02*
X09990Y05450D01*
X10070Y05410D02*
Y05460D01*
X10150Y05540D01*
X09950Y05640D02*
X10150Y05840D01*
X09950Y05470D02*
Y05640D01*
X09846Y05366D02*
X09950Y05470D01*
X09419Y05366D02*
X09846D01*
X09060Y05426D02*
X09359D01*
X08475Y05326D02*
X09866D01*
X08458Y05286D02*
X09886D01*
X09922Y05206D02*
X10150Y05433D01*
X10113Y05340D02*
X10150D01*
X09939Y05166D02*
X10113Y05340D01*
X08442Y05246D02*
X09906D01*
X08425Y05206D02*
X09922D01*
X10150Y05433D02*
Y05440D01*
X08409Y05166D02*
X09939D01*
X09418Y07337D02*
X09830D01*
X08475Y07297D02*
X09846D01*
X08458Y07257D02*
X09863D01*
X09406Y07216D02*
X09878D01*
X09863Y07257D02*
X10095Y07489D01*
X10055Y07506D02*
Y07615D01*
X09846Y07297D02*
X10055Y07506D01*
X10010Y07517D02*
Y07680D01*
X09830Y07337D02*
X10010Y07517D01*
X09422Y07176D02*
X09926D01*
X09976Y07136D02*
X10150Y07310D01*
X09439Y07136D02*
X09976D01*
X09926Y07176D02*
X10150Y07400D01*
X09878Y09186D02*
X09979Y09287D01*
X09979D01*
X10064Y09371D01*
Y09372D01*
X10150Y09458D01*
Y09480D01*
X10024Y09388D02*
Y09388D01*
X09962Y09327D02*
X10024Y09388D01*
X09962Y09327D02*
X09962D01*
X09984Y09405D02*
Y09405D01*
X09946Y09367D02*
X09984Y09405D01*
X09946Y09367D02*
X09946D01*
X09944Y09421D02*
Y09421D01*
X09929Y09407D02*
X09944Y09421D01*
X09929Y09407D02*
X09929D01*
X08442Y09186D02*
X09878D01*
X10024Y09388D02*
X10090Y09454D01*
X09861Y09226D02*
X09962Y09327D01*
X08458Y09226D02*
X09861D01*
X10050Y09471D02*
Y09580D01*
X09984Y09405D02*
X10050Y09471D01*
X09845Y09266D02*
X09946Y09367D01*
X08475Y09266D02*
X09845D01*
X10010Y09487D02*
Y09640D01*
X09944Y09421D02*
X10010Y09487D01*
X09828Y09306D02*
X09929Y09407D01*
X09419Y09306D02*
X09828D01*
X10090Y09454D02*
Y09520D01*
X09916Y09146D02*
X10140Y09370D01*
X08425Y09146D02*
X09916D01*
X10140Y09370D02*
X10160D01*
X09976Y09106D02*
X10150Y09280D01*
X08409Y09106D02*
X09976D01*
X10150Y07400D02*
Y07410D01*
X10140Y07810D02*
X10150D01*
X10010Y07680D02*
X10140Y07810D01*
X09878Y07216D02*
X10155Y07493D01*
X10095Y07489D02*
Y07555D01*
X10155Y07493D02*
Y07495D01*
X10013Y07096D02*
X10228Y07310D01*
X09456Y07096D02*
X10013D01*
X10055Y07615D02*
X10150Y07710D01*
X10095Y07555D02*
X10150Y07610D01*
X10090Y09520D02*
X10150Y09580D01*
X10050D02*
X10150Y09680D01*
X10010Y09640D02*
X10150Y09780D01*
X10015Y09066D02*
X10175Y09226D01*
X08312Y09146D02*
X08392Y09066D01*
X08375Y09366D02*
X08475Y09266D01*
X08378Y09306D02*
X08458Y09226D01*
X08362Y09266D02*
X08442Y09186D01*
X08345Y09226D02*
X08425Y09146D01*
X08329Y09186D02*
X08409Y09106D01*
X08392Y09066D02*
X10015D01*
X09359Y09366D02*
X09419Y09306D01*
X10175Y09227D02*
X10228Y09280D01*
X10175Y09226D02*
Y09227D01*
X08313Y07176D02*
X08392Y07097D01*
X08330Y07216D02*
X08409Y07137D01*
X08380Y07336D02*
X08458Y07257D01*
X08376Y07396D02*
X08475Y07297D01*
X08363Y07296D02*
X08442Y07217D01*
X09023D01*
X08347Y07256D02*
X08425Y07177D01*
X09006D01*
X08409Y07137D02*
X08990D01*
X08392Y07097D02*
X08973D01*
X09106Y06964D01*
X08990Y07137D02*
X09123Y07004D01*
X09006Y07177D02*
X09139Y07044D01*
X09023Y07217D02*
X09156Y07084D01*
X06473Y07216D02*
X08330D01*
X06490Y07256D02*
X08347D01*
X06506Y07296D02*
X08363D01*
X07451Y07336D02*
X08380D01*
X08076Y07396D02*
X08376D01*
X06457Y07176D02*
X08313D01*
X09156Y07084D02*
X09274D01*
X09139Y07044D02*
X09291D01*
X09123Y07004D02*
X09307D01*
X09106Y06964D02*
X09324D01*
X09274Y07084D02*
X09406Y07216D01*
X09291Y07044D02*
X09422Y07176D01*
X09307Y07004D02*
X09439Y07136D01*
X09324Y06964D02*
X09456Y07096D01*
X09359Y07396D02*
X09418Y07337D01*
X09060Y07396D02*
X09359D01*
X03595Y03315D02*
X06382D01*
X03449Y03461D02*
X03595Y03315D01*
X08374Y03461D02*
X08475Y03360D01*
X07451Y03400D02*
X07531Y03320D01*
X06467Y03400D02*
X06587Y03280D01*
X06450Y03360D02*
X06570Y03240D01*
X06434Y03320D02*
X06554Y03200D01*
X06417Y03280D02*
X06537Y03160D01*
X08076Y03461D02*
X08374D01*
X07451Y03400D02*
X07451D01*
X07421Y03429D02*
X07451Y03400D01*
X07421Y03429D02*
Y03430D01*
X07390Y03461D02*
X07421Y03430D01*
X05541Y03361D02*
X06393D01*
X05540Y03360D02*
X05541Y03361D01*
X05465Y03360D02*
X05540D01*
X05465Y03361D02*
X05465Y03360D01*
X04534Y03361D02*
X05465D01*
X05524Y03401D02*
X06409D01*
X05523Y03400D02*
X05524Y03401D01*
X05482Y03400D02*
X05523D01*
X05453Y03429D02*
X05482Y03400D01*
X05453Y03429D02*
Y03430D01*
X05422Y03461D02*
X05453Y03430D01*
X06417Y03280D02*
X06417D01*
X06382Y03315D02*
X06417Y03280D01*
X06433Y03320D02*
X06434D01*
X06393Y03361D02*
X06433Y03320D01*
X06450Y03360D02*
X06450D01*
X06409Y03401D02*
X06450Y03360D01*
X06466Y03400D02*
X06467D01*
X06437Y03429D02*
X06466Y03400D01*
X06437Y03429D02*
Y03430D01*
X06406Y03461D02*
X06437Y03430D01*
X04434Y03461D02*
X04534Y03361D01*
X09416Y04384D02*
X09863D01*
X09355Y04445D02*
X09416Y04384D01*
X09060Y04445D02*
X09355D01*
X09979Y04304D02*
X10150Y04475D01*
X08369Y04384D02*
X08449Y04304D01*
X09919Y04344D02*
X10150Y04575D01*
X08365Y04445D02*
X08466Y04344D01*
X09863Y04384D02*
X09989Y04510D01*
X08466Y04344D02*
X09919D01*
X08449Y04304D02*
X09979D01*
X09989Y04511D02*
X10150Y04672D01*
X09989Y04510D02*
Y04511D01*
X09283Y04011D02*
X09604D01*
X09283Y04011D02*
X09283Y04011D01*
X09112Y04011D02*
X09283D01*
X09112Y04011D02*
X09112Y04011D01*
X08791Y04011D02*
X09112D01*
X09267Y04051D02*
X09621D01*
X09266Y04051D02*
X09267Y04051D01*
X09129Y04051D02*
X09266D01*
X09128Y04051D02*
X09129Y04051D01*
X08775Y04051D02*
X09128D01*
X09250Y04091D02*
X09637D01*
X09250Y04091D02*
X09250Y04091D01*
X09145Y04091D02*
X09250D01*
X09145Y04091D02*
X09145Y04091D01*
X08758Y04091D02*
X09145D01*
X09234Y04131D02*
X09654D01*
X09233Y04131D02*
X09234Y04131D01*
X09162Y04131D02*
X09233D01*
X09162Y04131D02*
X09162Y04131D01*
X08742Y04131D02*
X09162D01*
X08791Y04011D02*
X08791Y04011D01*
X08620Y04011D02*
X08791D01*
X08620Y04011D02*
X08620Y04011D01*
X08524Y04011D02*
X08620D01*
X08774Y04051D02*
X08775Y04051D01*
X08637Y04051D02*
X08774D01*
X08636Y04051D02*
X08637Y04051D01*
X08758Y04091D02*
X08758Y04091D01*
X08653Y04091D02*
X08758D01*
X08653Y04091D02*
X08653Y04091D01*
X08549Y04091D02*
X08653D01*
X08741Y04131D02*
X08742Y04131D01*
X08670Y04131D02*
X08741D01*
X08669Y04131D02*
X08670Y04131D01*
X08565Y04131D02*
X08669D01*
X09775Y04011D02*
X10043D01*
X09775Y04011D02*
X09775Y04011D01*
X09604Y04011D02*
X09775D01*
X09604Y04011D02*
X09604Y04011D01*
X09759Y04051D02*
X10026D01*
X09759Y04051D02*
X09759Y04051D01*
X09621Y04051D02*
X09759D01*
X09621Y04051D02*
X09621Y04051D01*
X09742Y04091D02*
X09966D01*
X09742Y04091D02*
X09742Y04091D01*
X09638Y04091D02*
X09742D01*
X09637Y04091D02*
X09638Y04091D01*
X09726Y04131D02*
X09906D01*
X09725Y04131D02*
X09726Y04131D01*
X09654Y04131D02*
X09725D01*
X09654Y04131D02*
X09654Y04131D01*
X08516Y04011D02*
X08524D01*
X08442Y04085D02*
X08516Y04011D01*
X05660Y04085D02*
X08442D01*
X08532Y04051D02*
X08636D01*
X08459Y04125D02*
X08532Y04051D01*
X05680Y04125D02*
X08459D01*
X08353Y04344D02*
X08565Y04131D01*
X08337Y04304D02*
X08549Y04091D01*
X06506Y04344D02*
X08353D01*
X05561Y04304D02*
X08337D01*
X07451Y04384D02*
X08369D01*
X08076Y04445D02*
X08365D01*
X06405D02*
X06506Y04344D01*
X07421Y04414D02*
X07451Y04384D01*
X07421Y04414D02*
Y04414D01*
X07390Y04445D02*
X07421Y04414D01*
X06107Y04445D02*
X06405D01*
X05405Y04340D02*
X05660Y04085D01*
X03555Y04340D02*
X05405D01*
X03450Y04445D02*
X03555Y04340D01*
X04495Y04380D02*
X05425D01*
X04430Y04445D02*
X04495Y04380D01*
X05425D02*
X05680Y04125D01*
X09810Y06100D02*
X10150Y06440D01*
X09654Y06100D02*
X09810D01*
X07091Y07396D02*
X07390D01*
X08450Y06050D02*
X08561Y05939D01*
X08468Y06090D02*
X08579Y05979D01*
X08343Y06272D02*
X08595Y06019D01*
X08360Y06312D02*
X08612Y06059D01*
X08376Y06352D02*
X08629Y06099D01*
X08741D01*
X08612Y06059D02*
X08758D01*
X08595Y06019D02*
X08774D01*
X08579Y05979D02*
X08791D01*
X08561Y05939D02*
X08807D01*
X08808Y05940D02*
X09587D01*
X08807Y05939D02*
X08808Y05940D01*
X08791Y05980D02*
X09604D01*
X08791Y05979D02*
X08791Y05980D01*
X08775Y06020D02*
X09621D01*
X08774Y06019D02*
X08775Y06020D01*
X08758Y06060D02*
X09637D01*
X08758Y06059D02*
X08758Y06060D01*
X08742Y06100D02*
X09654D01*
X08741Y06099D02*
X08742Y06100D01*
X09587Y05940D02*
X09588Y05940D01*
X09604Y05980D02*
X09604Y05980D01*
X09621Y06020D02*
X09621Y06020D01*
X09637Y06060D02*
X09638Y06060D01*
X09654Y06100D02*
X09654Y06100D01*
X08475Y06310D02*
X09920D01*
X09419Y06350D02*
X09863D01*
X09920Y06310D02*
X10150Y06540D01*
X08375Y06410D02*
X08475Y06310D01*
X09863Y06350D02*
X10150Y06637D01*
X09359Y06410D02*
X09419Y06350D01*
X09060Y06410D02*
X09359D01*
X07686Y06272D02*
X08343D01*
X07669Y06312D02*
X08360D01*
X07652Y06352D02*
X08376D01*
X05790Y06270D02*
X06700D01*
X05788Y06272D02*
X05790Y06270D01*
X05717Y06272D02*
X05788D01*
X05715Y06270D02*
X05717Y06272D01*
X05560Y06270D02*
X05715D01*
X07651Y06350D02*
X07652Y06352D01*
X07450Y06350D02*
X07651D01*
X07667Y06310D02*
X07669Y06312D01*
X06791Y06310D02*
X07667D01*
X07684Y06270D02*
X07686Y06272D01*
X06774Y06270D02*
X07684D01*
X06789Y06312D02*
X06791Y06310D01*
X06685Y06312D02*
X06789D01*
X06683Y06310D02*
X06685Y06312D01*
X06506Y06310D02*
X06683D01*
X06773Y06272D02*
X06774Y06270D01*
X06701Y06272D02*
X06773D01*
X06700Y06270D02*
X06701Y06272D01*
X07390Y06410D02*
X07450Y06350D01*
X06406Y06410D02*
X06506Y06310D01*
X05420Y06410D02*
X05560Y06270D01*
X07091Y06410D02*
X07390D01*
X05422Y07396D02*
X05482Y07336D01*
X04434Y07396D02*
X04534Y07296D01*
X03484Y07365D02*
X03593Y07256D01*
X06409Y07336D02*
X06490Y07256D01*
X06393Y07296D02*
X06473Y07216D01*
X06376Y07256D02*
X06457Y07176D01*
X03593Y07256D02*
X06376D01*
X04534Y07296D02*
X06393D01*
X05482Y07336D02*
X06409D01*
X08345Y08240D02*
X08558Y08026D01*
X08378Y08320D02*
X08458Y08240D01*
X08361Y08280D02*
X08575Y08066D01*
X07686Y08240D02*
X08345D01*
X07669Y08280D02*
X08361D01*
X07652Y08320D02*
X08378D01*
X05789Y08240D02*
X06701D01*
X05788Y08240D02*
X05789Y08240D01*
X05717Y08240D02*
X05788D01*
X05717Y08240D02*
X05717Y08240D01*
X05560Y08240D02*
X05717D01*
X07652Y08320D02*
X07652Y08320D01*
X07450Y08320D02*
X07652D01*
X07669Y08280D02*
X07669Y08280D01*
X06789Y08280D02*
X07669D01*
X07685Y08240D02*
X07686Y08240D01*
X06773Y08240D02*
X07685D01*
X06789Y08280D02*
X06789Y08280D01*
X06685Y08280D02*
X06789D01*
X06685Y08280D02*
X06685Y08280D01*
X06506Y08280D02*
X06685D01*
X06773Y08240D02*
X06773Y08240D01*
X06701Y08240D02*
X06773D01*
X06701Y08240D02*
X06701Y08240D01*
X07390Y08380D02*
X07450Y08320D01*
X06406Y08380D02*
X06506Y08280D01*
X05420Y08380D02*
X05560Y08240D01*
X07091Y08380D02*
X07390D01*
X08375D02*
X08475Y08280D01*
X08758D02*
X09637D01*
X08758Y08280D02*
X08758Y08280D01*
X08653Y08280D02*
X08758D01*
X08653Y08280D02*
X08653Y08280D01*
X08475Y08280D02*
X08653D01*
X08741Y08240D02*
X09654D01*
X08741Y08240D02*
X08741Y08240D01*
X08670Y08240D02*
X08741D01*
X08670Y08240D02*
X08670Y08240D01*
X08458Y08240D02*
X08670D01*
X09759Y08320D02*
X09863D01*
X09759Y08320D02*
X09759Y08320D01*
X09621Y08320D02*
X09759D01*
X09621Y08320D02*
X09621Y08320D01*
X09419Y08320D02*
X09621D01*
X09742Y08280D02*
X09920D01*
X09742Y08280D02*
X09742Y08280D01*
X09638Y08280D02*
X09742D01*
X09637Y08280D02*
X09638Y08280D01*
X09726Y08240D02*
X09980D01*
X09725Y08240D02*
X09726Y08240D01*
X09654Y08240D02*
X09725D01*
X09654Y08240D02*
X09654Y08240D01*
X09863Y08320D02*
X10150Y08607D01*
X09359Y08380D02*
X09419Y08320D01*
X09920Y08280D02*
X10150Y08510D01*
X09980Y08240D02*
X10150Y08410D01*
X09060Y08380D02*
X09359D01*
X10245Y04675D02*
X10450D01*
X10190Y04730D02*
X10245Y04675D01*
X10110Y04730D02*
X10190D01*
X10064Y04685D02*
X10110Y04730D01*
X09690Y04685D02*
X10064D01*
X07091Y04445D02*
X07390D01*
X10107Y04075D02*
X10150D01*
X05123Y04445D02*
X05420D01*
X05561Y04304D01*
X04139Y04445D02*
X04430D01*
X03154D02*
X03450D01*
X09906Y04131D02*
X10150Y04375D01*
X09966Y04091D02*
X10150Y04275D01*
X10026Y04051D02*
X10150Y04175D01*
X10043Y04011D02*
X10107Y04075D01*
X10021Y03971D02*
X10146D01*
X06107Y03461D02*
X06406D01*
X05123D02*
X05422D01*
X10228Y03375D02*
X10450D01*
X04139Y03461D02*
X04434D01*
X10245Y06640D02*
X10450D01*
X10190Y06695D02*
X10245Y06640D01*
X10110Y06695D02*
X10190D01*
X10064Y06650D02*
X10110Y06695D01*
X09690Y06650D02*
X10064D01*
X08076Y06410D02*
X08375D01*
X06107D02*
X06406D01*
X05123D02*
X05420D01*
X04139D02*
X04430D01*
X04539Y06350D02*
X05420D01*
X04556Y06310D02*
X04556Y06310D01*
X04430Y06410D02*
X04490Y06350D01*
X04539D01*
X03154Y06410D02*
X03450D01*
X03550Y06310D01*
X04556D01*
X04556Y06310D02*
X05400D01*
X05660Y06050D01*
X08450D01*
X05420Y06350D02*
X05680Y06090D01*
X08468D01*
X09359Y05426D02*
X09419Y05366D01*
X08375Y05426D02*
X08475Y05326D01*
X08076Y05426D02*
X08375D01*
X08378Y05366D02*
X08458Y05286D01*
X07451Y05366D02*
X08378D01*
X07390Y05426D02*
X07451Y05366D01*
X07091Y05426D02*
X07390D01*
X08362Y05326D02*
X08442Y05246D01*
X06506Y05326D02*
X08362D01*
X06406Y05426D02*
X06506Y05326D01*
X06107Y05426D02*
X06406D01*
X08345Y05286D02*
X08425Y05206D01*
X06490Y05286D02*
X08345D01*
X05123Y05426D02*
X05422D01*
X08329Y05246D02*
X08409Y05166D01*
X06473Y05246D02*
X08329D01*
X10228Y05340D02*
X10450D01*
X10013Y05126D02*
X10228Y05340D01*
X08392Y05126D02*
X10013D01*
X08312Y05206D02*
X08392Y05126D01*
X06457Y05206D02*
X08312D01*
X03154Y05426D02*
X03454D01*
X03484Y05396D01*
X04139Y05426D02*
X04434D01*
X06393Y05326D02*
X06473Y05246D01*
X06410Y05366D02*
X06490Y05286D01*
X05422Y05426D02*
X05482Y05366D01*
X06410D01*
X04534Y05326D02*
X06393D01*
X03484Y05395D02*
X03599Y05280D01*
X06382D01*
X06457Y05206D01*
X04434Y05426D02*
X04534Y05326D01*
X10245Y08610D02*
X10450D01*
X10190Y08665D02*
X10245Y08610D01*
X10110Y08665D02*
X10190D01*
X10064Y08620D02*
X10110Y08665D01*
X09690Y08620D02*
X10064D01*
X08076Y08380D02*
X08375D01*
X06107D02*
X06406D01*
X10107Y08010D02*
X10150D01*
X05123Y08380D02*
X05420D01*
X04139D02*
X04430D01*
X04539Y08320D02*
X05420D01*
X04556Y08280D02*
X04556Y08280D01*
X04430Y08380D02*
X04490Y08320D01*
X04539D01*
X03154Y08380D02*
X03450D01*
X03550Y08280D01*
X04556D01*
X09906Y08066D02*
X10150Y08310D01*
X09966Y08026D02*
X10150Y08210D01*
X10026Y07986D02*
X10150Y08110D01*
X10043Y07946D02*
X10107Y08010D01*
X08575Y08066D02*
X09906D01*
X08558Y08026D02*
X09966D01*
X08542Y07986D02*
X10026D01*
X08524Y07946D02*
X10043D01*
X04556Y08280D02*
X05400D01*
X05660Y08020D01*
X08450D01*
X08524Y07946D01*
X05420Y08320D02*
X05680Y08060D01*
X08468D01*
X08542Y07986D01*
X10021Y07906D02*
X10146D01*
X09755Y07641D02*
X10021Y07906D01*
X09695Y07641D02*
X09755D01*
X07390Y07396D02*
X07451Y07336D01*
X06406Y07396D02*
X06506Y07296D01*
X06107Y07396D02*
X06406D01*
X05123D02*
X05422D01*
X10228Y07310D02*
X10450D01*
X03154Y07396D02*
X03454D01*
X03484Y07366D01*
X04139Y07396D02*
X04434D01*
Y09366D02*
X04534Y09266D01*
X06382Y09220D02*
X06457Y09146D01*
X03599Y09220D02*
X06382D01*
X03484Y09335D02*
X03599Y09220D01*
X04534Y09266D02*
X06393D01*
X05482Y09306D02*
X06410D01*
X05422Y09366D02*
X05482Y09306D01*
X06410D02*
X06490Y09226D01*
X06393Y09266D02*
X06473Y09186D01*
X04139Y09366D02*
X04434D01*
X10150Y08608D02*
Y08610D01*
X03484Y09335D02*
Y09336D01*
X03454Y09366D02*
X03484Y09336D01*
X03154Y09366D02*
X03454D01*
X06457Y09146D02*
X08312D01*
X10228Y09280D02*
X10450D01*
X06473Y09186D02*
X08329D01*
X05123Y09366D02*
X05422D01*
X06490Y09226D02*
X08345D01*
X06107Y09366D02*
X06406D01*
X06506Y09266D01*
X08362D01*
X07091Y09366D02*
X07390D01*
X07451Y09306D01*
X08378D01*
X08076Y09366D02*
X08375D01*
X09060D02*
X09359D01*
X09690Y09606D02*
X09695Y09611D01*
X09755D01*
X10021Y09876D01*
X10146D01*
X10150Y09880D01*
X08468Y10030D02*
X08542Y09956D01*
X05680Y10030D02*
X08468D01*
X05420Y10290D02*
X05680Y10030D01*
X08450Y09990D02*
X08524Y09916D01*
X05660Y09990D02*
X08450D01*
X05400Y10250D02*
X05660Y09990D01*
X04556Y10250D02*
X05400D01*
X08524Y09916D02*
X10043D01*
X08542Y09956D02*
X10026D01*
X08558Y09996D02*
X09966D01*
X08346Y10209D02*
X08558Y09996D01*
X08575Y10036D02*
X09906D01*
X08362Y10250D02*
X08575Y10036D01*
X10043Y09916D02*
X10107Y09980D01*
X10026Y09956D02*
X10150Y10080D01*
X09966Y09996D02*
X10150Y10180D01*
X09906Y10036D02*
X10150Y10280D01*
X03550Y10250D02*
X04556D01*
X03450Y10350D02*
X03550Y10250D01*
X03154Y10350D02*
X03450D01*
X04490Y10290D02*
X04539D01*
X04430Y10350D02*
X04490Y10290D01*
X04556Y10250D02*
X04556Y10250D01*
X04539Y10290D02*
X04539Y10290D01*
X05420D01*
X04139Y10350D02*
X04430D01*
X05561Y10209D02*
X08346D01*
X05420Y10350D02*
X05561Y10209D01*
X05123Y10350D02*
X05420D01*
X10107Y09980D02*
X10150D01*
X06406Y10350D02*
X06506Y10250D01*
X06107Y10350D02*
X06406D01*
X06506Y10250D02*
X08362D01*
X07091Y10350D02*
X07390D01*
X08458Y10210D02*
X09980D01*
X10150Y10380D01*
X07390Y10350D02*
X07451Y10290D01*
X08378D01*
X08458Y10210D01*
X09060Y10350D02*
X09359D01*
X09419Y10290D02*
X09863D01*
X10150Y10577D01*
X09359Y10350D02*
X09419Y10290D01*
X10150Y10577D02*
Y10580D01*
X08076Y10350D02*
X08375D01*
X08475Y10250D01*
X09920D01*
X10150Y10480D01*
X08706Y03700D02*
X09060D01*
X07721D02*
X08076D01*
X06737D02*
X07091D01*
X05753D02*
X06107D01*
X04769D02*
X05123D01*
X03784D02*
X04139D01*
X02800D02*
X03154D01*
X02800Y04684D02*
X03154D01*
X03784D02*
X04139D01*
X04769D02*
X05123D01*
X05753D02*
X06107D01*
X06737D02*
X07091D01*
X07721D02*
X08076D01*
X08706D02*
X09060D01*
X08706Y05669D02*
X09060D01*
X07721D02*
X08076D01*
X06737D02*
X07091D01*
X05753D02*
X06107D01*
X04769D02*
X05123D01*
X03784D02*
X04139D01*
X02800D02*
X03154D01*
X02800Y06653D02*
X03154D01*
X03784D02*
X04139D01*
X04769D02*
X05123D01*
X05753D02*
X06107D01*
X06737D02*
X07091D01*
X07721D02*
X08076D01*
X08706D02*
X09060D01*
X08706Y07637D02*
X09060D01*
X07721D02*
X08076D01*
X06737D02*
X07091D01*
X05753D02*
X06107D01*
X04769D02*
X05123D01*
X03784D02*
X04139D01*
X02800D02*
X03154D01*
X02800Y08621D02*
X03154D01*
X03784D02*
X04139D01*
X04769D02*
X05123D01*
X05753D02*
X06107D01*
X06737D02*
X07091D01*
X07721D02*
X08076D01*
X08706D02*
X09060D01*
X08706Y09606D02*
X09060D01*
X07721D02*
X08076D01*
X06737D02*
X07091D01*
X05753D02*
X06107D01*
X04769D02*
X05123D01*
X03784D02*
X04139D01*
X02800D02*
X03154D01*
X02800Y10590D02*
X03154D01*
X03784D02*
X04139D01*
X04769D02*
X05123D01*
X05753D02*
X06107D01*
X06737D02*
X07091D01*
X07721D02*
X08076D01*
X08706Y10640D02*
X09112D01*
Y10579D02*
Y10640D01*
Y10579D02*
X09162Y10529D01*
X08706Y10690D02*
X09151D01*
X08706Y10540D02*
X09094D01*
X08706Y10590D02*
X09060D01*
X09690D02*
X10064D01*
X10110Y10635D01*
X10190D01*
X10245Y10580D01*
X10450D01*
X08706Y03650D02*
X09094D01*
X07721D02*
X08706D01*
X07332D02*
X07721D01*
X06737D02*
X07126D01*
X05364D02*
X05753D01*
X03784D02*
X04769D01*
X03395D02*
X03784D01*
X09301D02*
X09690D01*
X09250Y03599D02*
X09301Y03650D01*
X09145Y03599D02*
X09250D01*
X09094Y03650D02*
X09145Y03599D01*
X07281D02*
X07332Y03650D01*
X07177Y03599D02*
X07281D01*
X07126Y03650D02*
X07177Y03599D01*
X05313D02*
X05364Y03650D01*
X05208Y03599D02*
X05313D01*
X03344D02*
X03395Y03650D01*
X03240Y03599D02*
X03344D01*
X03189Y03650D02*
X03240Y03599D01*
X02800Y03650D02*
X03189D01*
X06737Y04634D02*
X07126D01*
X05753D02*
X06737D01*
X05364D02*
X05753D01*
X04769D02*
X05157D01*
X03784D02*
X04769D01*
X03395D02*
X03784D01*
X02800D02*
X03189D01*
X03240Y04583D01*
X03344D01*
X03395Y04634D01*
X05157D02*
X05208Y04583D01*
X05313D01*
X05364Y04634D01*
X07126D02*
X07177Y04583D01*
X07281D01*
X07332Y04634D01*
X07721D01*
X08706D02*
X09094D01*
X07721D02*
X08706D01*
X09094D02*
X09145Y04583D01*
X09250D01*
X09301Y04634D01*
X09690D01*
X08706Y05619D02*
X09094D01*
X07721D02*
X08706D01*
X07332D02*
X07721D01*
X06737D02*
X07126D01*
X05753D02*
X06737D01*
X05364D02*
X05753D01*
X04769D02*
X05157D01*
X03784D02*
X04769D01*
X03395D02*
X03784D01*
X09301D02*
X09690D01*
X09250Y05567D02*
X09301Y05619D01*
X09145Y05567D02*
X09250D01*
X09094Y05619D02*
X09145Y05567D01*
X07281D02*
X07332Y05619D01*
X05313Y05567D02*
X05364Y05619D01*
X05208Y05567D02*
X05313D01*
X05157Y05619D02*
X05208Y05567D01*
X03344D02*
X03395Y05619D01*
X03240Y05567D02*
X03344D01*
X03189Y05619D02*
X03240Y05567D01*
X02800Y05619D02*
X03189D01*
X08706Y06603D02*
X09094D01*
X07721D02*
X08706D01*
X07332D02*
X07721D01*
X06737D02*
X07126D01*
X05753D02*
X06737D01*
X05364D02*
X05753D01*
X04769D02*
X05157D01*
X03784D02*
X04769D01*
X03395D02*
X03784D01*
X02800D02*
X03189D01*
X03240Y06552D01*
X03344D01*
X03395Y06603D01*
X05157D02*
X05208Y06552D01*
X05313D01*
X05364Y06603D01*
X07126D02*
X07177Y06552D01*
X07281D01*
X07332Y06603D01*
X09094D02*
X09145Y06552D01*
X09250D01*
X09301Y06603D01*
X09690D01*
X08706Y07587D02*
X09094D01*
X07721D02*
X08706D01*
X07332D02*
X07721D01*
X06737D02*
X07126D01*
X05753D02*
X06737D01*
X05364D02*
X05753D01*
X04769D02*
X05157D01*
X03784D02*
X04769D01*
X03395D02*
X03784D01*
X09301D02*
X09690D01*
X09250Y07536D02*
X09301Y07587D01*
X09145Y07536D02*
X09250D01*
X09094Y07587D02*
X09145Y07536D01*
X07281D02*
X07332Y07587D01*
X05313Y07536D02*
X05364Y07587D01*
X05208Y07536D02*
X05313D01*
X05157Y07587D02*
X05208Y07536D01*
X03344D02*
X03395Y07587D01*
X03240Y07536D02*
X03344D01*
X03189Y07587D02*
X03240Y07536D01*
X02800Y07587D02*
X03189D01*
X08706Y08571D02*
X09094D01*
X07721D02*
X08706D01*
X07332D02*
X07721D01*
X06737D02*
X07126D01*
X05753D02*
X06737D01*
X05364D02*
X05753D01*
X04769D02*
X05157D01*
X03784D02*
X04769D01*
X03395D02*
X03784D01*
X02800D02*
X03189D01*
X03240Y08520D01*
X03344D01*
X03395Y08571D01*
X05157D02*
X05208Y08520D01*
X05313D01*
X05364Y08571D01*
X07126D02*
X07177Y08520D01*
X07281D01*
X07332Y08571D01*
X09094D02*
X09145Y08520D01*
X09250D01*
X09301Y08571D01*
X09690D01*
X08706Y09556D02*
X09094D01*
X07721D02*
X08706D01*
X07332D02*
X07721D01*
X06737D02*
X07126D01*
X05753D02*
X06737D01*
X05364D02*
X05753D01*
X04769D02*
X05157D01*
X03784D02*
X04769D01*
X03395D02*
X03784D01*
X09301D02*
X09690D01*
X09250Y09504D02*
X09301Y09556D01*
X09145Y09504D02*
X09250D01*
X09094Y09556D02*
X09145Y09504D01*
X07281D02*
X07332Y09556D01*
X05313Y09504D02*
X05364Y09556D01*
X05208Y09504D02*
X05313D01*
X05157Y09556D02*
X05208Y09504D01*
X03344D02*
X03395Y09556D01*
X03240Y09504D02*
X03344D01*
X03189Y09556D02*
X03240Y09504D01*
X02800Y09556D02*
X03189D01*
X07721Y10540D02*
X08706D01*
X07332D02*
X07721D01*
X06737D02*
X07126D01*
X05753D02*
X06737D01*
X05364D02*
X05753D01*
X04769D02*
X05157D01*
X03784D02*
X04769D01*
X03395D02*
X03784D01*
X02800D02*
X03189D01*
X03240Y10489D01*
X03344D01*
X03395Y10540D01*
X05157D02*
X05208Y10489D01*
X05313D01*
X05364Y10540D01*
X07126D02*
X07177Y10489D01*
X07281D02*
X07332Y10540D01*
X09094D02*
X09145Y10489D01*
X09250D01*
X09301Y10540D01*
X09690D01*
X03378Y10640D02*
X03784D01*
X03378Y10579D02*
Y10640D01*
X03328Y10529D02*
X03378Y10579D01*
X03256Y10529D02*
X03328D01*
X03206Y10579D02*
X03256Y10529D01*
X03206Y10579D02*
Y10640D01*
X02800D02*
X03206D01*
X05347D02*
X05753D01*
X05347Y10579D02*
Y10640D01*
X05296Y10529D02*
X05347Y10579D01*
X05225Y10529D02*
X05296D01*
X05175Y10579D02*
X05225Y10529D01*
X05175Y10579D02*
Y10640D01*
X04769D02*
X05175D01*
X07143Y10579D02*
Y10640D01*
X06737D02*
X07143D01*
X07315D02*
X07721D01*
X07315Y10579D02*
Y10640D01*
X09162Y10529D02*
X09233D01*
X09284Y10640D02*
X09690D01*
X09284Y10579D02*
Y10640D01*
X09233Y10529D02*
X09284Y10579D01*
X07721Y10640D02*
X08706D01*
X05753D02*
X06737D01*
X03784D02*
X04769D01*
X03256Y09544D02*
X03328D01*
X03206Y09595D02*
X03256Y09544D01*
X03206Y09595D02*
Y09656D01*
X02800D02*
X03206D01*
X03378D02*
X03784D01*
X03378Y09595D02*
Y09656D01*
X03328Y09544D02*
X03378Y09595D01*
X05225Y09544D02*
X05296D01*
X05175Y09595D02*
X05225Y09544D01*
X05175Y09595D02*
Y09656D01*
X04769D02*
X05175D01*
X05347D02*
X05753D01*
X05347Y09595D02*
Y09656D01*
X05296Y09544D02*
X05347Y09595D01*
X07143D02*
Y09656D01*
X06737D02*
X07143D01*
X07315D02*
X07721D01*
X07315Y09595D02*
Y09656D01*
X09162Y09544D02*
X09233D01*
X09112Y09595D02*
X09162Y09544D01*
X09112Y09595D02*
Y09656D01*
X08706D02*
X09112D01*
X09284D02*
X09690D01*
X09284Y09595D02*
Y09656D01*
X09233Y09544D02*
X09284Y09595D01*
X07721Y09656D02*
X08706D01*
X05753D02*
X06737D01*
X03784D02*
X04769D01*
X03378Y08671D02*
X03784D01*
X03378Y08611D02*
Y08671D01*
X03328Y08560D02*
X03378Y08611D01*
X03256Y08560D02*
X03328D01*
X03206Y08611D02*
X03256Y08560D01*
X03206Y08611D02*
Y08671D01*
X02800D02*
X03206D01*
X05225Y08560D02*
X05296D01*
X05175Y08611D02*
X05225Y08560D01*
X05175Y08611D02*
Y08671D01*
X04769D02*
X05175D01*
X05347D02*
X05753D01*
X05347Y08611D02*
Y08671D01*
X05296Y08560D02*
X05347Y08611D01*
X07194Y08560D02*
X07265D01*
X07143Y08611D02*
X07194Y08560D01*
X07143Y08611D02*
Y08671D01*
X06737D02*
X07143D01*
X07315D02*
X07721D01*
X07315Y08611D02*
Y08671D01*
X07265Y08560D02*
X07315Y08611D01*
X09162Y08560D02*
X09233D01*
X09112Y08611D02*
X09162Y08560D01*
X09112Y08611D02*
Y08671D01*
X08706D02*
X09112D01*
X09284D02*
X09690D01*
X09284Y08611D02*
Y08671D01*
X09233Y08560D02*
X09284Y08611D01*
X07721Y08671D02*
X08706D01*
X05753D02*
X06737D01*
X03784D02*
X04769D01*
X03256Y07576D02*
X03328D01*
X03206Y07626D02*
X03256Y07576D01*
X03206Y07626D02*
Y07687D01*
X02800D02*
X03206D01*
X03378Y07686D02*
X03379Y07687D01*
X03378Y07626D02*
Y07686D01*
X03328Y07576D02*
X03378Y07626D01*
X03379Y07687D02*
X03784D01*
X05225Y07576D02*
X05296D01*
X05175Y07626D02*
X05225Y07576D01*
X05175Y07626D02*
Y07687D01*
X04769D02*
X05175D01*
X05347D02*
X05753D01*
X05347Y07626D02*
Y07687D01*
X05296Y07576D02*
X05347Y07626D01*
X07143D02*
Y07687D01*
X06737D02*
X07143D01*
X07315D02*
X07721D01*
X07315Y07626D02*
Y07687D01*
X09162Y07576D02*
X09233D01*
X09112Y07626D02*
X09162Y07576D01*
X09112Y07626D02*
Y07687D01*
X08706D02*
X09112D01*
X09284D02*
X09690D01*
X09284Y07626D02*
Y07687D01*
X09233Y07576D02*
X09284Y07626D01*
X07721Y07687D02*
X08706D01*
X05753D02*
X06737D01*
X03784D02*
X04769D01*
X03378Y06703D02*
X03784D01*
X03378Y06642D02*
Y06703D01*
X03328Y06592D02*
X03378Y06642D01*
X03256Y06592D02*
X03328D01*
X03206Y06642D02*
X03256Y06592D01*
X03206Y06642D02*
Y06703D01*
X02800D02*
X03206D01*
X05225Y06592D02*
X05296D01*
X05175Y06642D02*
X05225Y06592D01*
X05175Y06642D02*
Y06703D01*
X04769D02*
X05175D01*
X05347D02*
X05753D01*
X05347Y06642D02*
Y06703D01*
X05296Y06592D02*
X05347Y06642D01*
X07194Y06592D02*
X07265D01*
X07143Y06642D02*
X07194Y06592D01*
X07143Y06642D02*
Y06703D01*
X06737D02*
X07143D01*
X07315D02*
X07721D01*
X07315Y06642D02*
Y06703D01*
X07265Y06592D02*
X07315Y06642D01*
X09162Y06592D02*
X09233D01*
X09112Y06642D02*
X09162Y06592D01*
X09112Y06642D02*
Y06703D01*
X08706D02*
X09112D01*
X09284D02*
X09690D01*
X09284Y06642D02*
Y06703D01*
X09233Y06592D02*
X09284Y06642D01*
X07721Y06703D02*
X08706D01*
X05753D02*
X06737D01*
X03784D02*
X04769D01*
X03256Y05607D02*
X03328D01*
X03206Y05658D02*
X03256Y05607D01*
X03206Y05658D02*
Y05719D01*
X02800D02*
X03206D01*
X03378D02*
X03784D01*
X03378Y05658D02*
Y05719D01*
X03328Y05607D02*
X03378Y05658D01*
X05225Y05607D02*
X05296D01*
X05175Y05658D02*
X05225Y05607D01*
X05175Y05658D02*
Y05719D01*
X04769D02*
X05175D01*
X05347D02*
X05753D01*
X05347Y05658D02*
Y05719D01*
X05296Y05607D02*
X05347Y05658D01*
X07143D02*
Y05719D01*
X06737D02*
X07143D01*
X07315D02*
X07721D01*
X07315Y05658D02*
Y05719D01*
X09162Y05607D02*
X09233D01*
X09112Y05658D02*
X09162Y05607D01*
X09112Y05658D02*
Y05719D01*
X08706D02*
X09112D01*
X09284D02*
X09690D01*
X09284Y05658D02*
Y05719D01*
X09233Y05607D02*
X09284Y05658D01*
X07721Y05719D02*
X08706D01*
X05753D02*
X06737D01*
X03784D02*
X04769D01*
X03256Y04623D02*
X03328D01*
X03206Y04674D02*
X03256Y04623D01*
X03206Y04674D02*
Y04734D01*
X02800D02*
X03206D01*
X03378D02*
X03784D01*
X03378Y04674D02*
Y04734D01*
X03328Y04623D02*
X03378Y04674D01*
X05225Y04623D02*
X05296D01*
X05175Y04674D02*
X05225Y04623D01*
X05175Y04674D02*
Y04734D01*
X04769D02*
X05175D01*
X05347D02*
X05753D01*
X05347Y04674D02*
Y04734D01*
X05296Y04623D02*
X05347Y04674D01*
X07143D02*
Y04734D01*
X06737D02*
X07143D01*
X07194Y04623D02*
X07265D01*
X07143Y04674D02*
X07194Y04623D01*
X07315Y04734D02*
X07721D01*
X07315Y04674D02*
Y04734D01*
X07265Y04623D02*
X07315Y04674D01*
X09162Y04623D02*
X09233D01*
X09112Y04674D02*
X09162Y04623D01*
X09112Y04674D02*
Y04734D01*
X08706D02*
X09112D01*
X09284D02*
X09690D01*
X09284Y04674D02*
Y04734D01*
X09233Y04623D02*
X09284Y04674D01*
X07721Y04734D02*
X08706D01*
X05753D02*
X06737D01*
X03784D02*
X04769D01*
X05347Y03750D02*
X05753D01*
X05347Y03689D02*
Y03750D01*
X05296Y03639D02*
X05347Y03689D01*
X05225Y03639D02*
X05296D01*
X04769Y03750D02*
X05175D01*
X03378D02*
X03784D01*
X03378Y03689D02*
Y03750D01*
X03328Y03639D02*
X03378Y03689D01*
X03256Y03639D02*
X03328D01*
X03206Y03689D02*
X03256Y03639D01*
X03206Y03689D02*
Y03750D01*
X02800D02*
X03206D01*
X05753D02*
X06737D01*
X03784D02*
X04769D01*
X07194Y03639D02*
X07265D01*
X07143Y03689D02*
X07194Y03639D01*
X07143Y03689D02*
Y03750D01*
X06737D02*
X07143D01*
X07315D02*
X07721D01*
X07315Y03689D02*
Y03750D01*
X07265Y03639D02*
X07315Y03689D01*
X07721Y03750D02*
X08706D01*
X09162Y03639D02*
X09233D01*
X09112Y03689D02*
X09162Y03639D01*
X09112Y03689D02*
Y03750D01*
X08706D02*
X09112D01*
X09284D02*
X09690D01*
X09284Y03689D02*
Y03750D01*
X09233Y03639D02*
X09284Y03689D01*
X08706Y03800D02*
X09151D01*
X07721D02*
X08706D01*
X07276D02*
X07721D01*
X06737D02*
X07182D01*
X05753D02*
X06737D01*
X03784D02*
X04769D01*
X03339D02*
X03784D01*
X09244D02*
X09690D01*
X09233Y03811D02*
X09244Y03800D01*
X09162Y03811D02*
X09233D01*
X09151Y03800D02*
X09162Y03811D01*
X07265D02*
X07276Y03800D01*
X07194Y03811D02*
X07265D01*
X07182Y03800D02*
X07194Y03811D01*
X03328D02*
X03339Y03800D01*
X03256Y03811D02*
X03328D01*
X03245Y03800D02*
X03256Y03811D01*
X02800Y03800D02*
X03245D01*
X08706Y04784D02*
X09151D01*
X07721D02*
X08706D01*
X07276D02*
X07721D01*
X06737D02*
X07182D01*
X05753D02*
X06737D01*
X05307D02*
X05753D01*
X04769D02*
X05214D01*
X03784D02*
X04769D01*
X03339D02*
X03784D01*
X02800D02*
X03245D01*
X03256Y04795D01*
X03328D01*
X03339Y04784D01*
X05214D02*
X05225Y04795D01*
X05296D01*
X05307Y04784D01*
X07182D02*
X07194Y04795D01*
X07265D01*
X07276Y04784D01*
X09151D02*
X09162Y04795D01*
X09233D01*
X09244Y04784D01*
X09690D01*
X08706Y05769D02*
X09151D01*
X07721D02*
X08706D01*
X05753D02*
X06737D01*
X05307D02*
X05753D01*
X04769D02*
X05214D01*
X03784D02*
X04769D01*
X03339D02*
X03784D01*
X09244D02*
X09690D01*
X09233Y05780D02*
X09244Y05769D01*
X09162Y05780D02*
X09233D01*
X09151Y05769D02*
X09162Y05780D01*
X05296D02*
X05307Y05769D01*
X05225Y05780D02*
X05296D01*
X05214Y05769D02*
X05225Y05780D01*
X03328D02*
X03339Y05769D01*
X03256Y05780D02*
X03328D01*
X03245Y05769D02*
X03256Y05780D01*
X02800Y05769D02*
X03245D01*
X08706Y06753D02*
X09151D01*
X07721D02*
X08706D01*
X07276D02*
X07721D01*
X06737D02*
X07182D01*
X05753D02*
X06737D01*
X05307D02*
X05753D01*
X04769D02*
X05214D01*
X03784D02*
X04769D01*
X03339D02*
X03784D01*
X02800D02*
X03245D01*
X03256Y06764D01*
X03328D01*
X03339Y06753D01*
X05214D02*
X05225Y06764D01*
X05296D01*
X05307Y06753D01*
X07182D02*
X07194Y06764D01*
X07265D01*
X07276Y06753D01*
X09151D02*
X09162Y06764D01*
X09233D01*
X09244Y06753D01*
X09690D01*
X08706Y07737D02*
X09151D01*
X07721D02*
X08706D01*
X05753D02*
X06737D01*
X05307D02*
X05753D01*
X04769D02*
X05214D01*
X03784D02*
X04769D01*
X03339D02*
X03784D01*
X09244D02*
X09690D01*
X09233Y07748D02*
X09244Y07737D01*
X09162Y07748D02*
X09233D01*
X09151Y07737D02*
X09162Y07748D01*
X05296D02*
X05307Y07737D01*
X05225Y07748D02*
X05296D01*
X05214Y07737D02*
X05225Y07748D01*
X03328D02*
X03339Y07737D01*
X03256Y07748D02*
X03328D01*
X03245Y07737D02*
X03256Y07748D01*
X02800Y07737D02*
X03245D01*
X08706Y08721D02*
X09151D01*
X07721D02*
X08706D01*
X07276D02*
X07721D01*
X06737D02*
X07182D01*
X05753D02*
X06737D01*
X05307D02*
X05753D01*
X04769D02*
X05214D01*
X03784D02*
X04769D01*
X03339D02*
X03784D01*
X02800D02*
X03245D01*
X03256Y08732D01*
X03328D01*
X03339Y08721D01*
X05214D02*
X05225Y08732D01*
X05296D01*
X05307Y08721D01*
X07182D02*
X07194Y08732D01*
X07265D01*
X07276Y08721D01*
X09151D02*
X09162Y08732D01*
X09233D01*
X09244Y08721D01*
X09690D01*
X08706Y09706D02*
X09151D01*
X07721D02*
X08706D01*
X05753D02*
X06737D01*
X05307D02*
X05753D01*
X04769D02*
X05214D01*
X03784D02*
X04769D01*
X03339D02*
X03784D01*
X09244D02*
X09690D01*
X09233Y09717D02*
X09244Y09706D01*
X09162Y09717D02*
X09233D01*
X09151Y09706D02*
X09162Y09717D01*
X05296D02*
X05307Y09706D01*
X05225Y09717D02*
X05296D01*
X05214Y09706D02*
X05225Y09717D01*
X03328D02*
X03339Y09706D01*
X03256Y09717D02*
X03328D01*
X03245Y09706D02*
X03256Y09717D01*
X02800Y09706D02*
X03245D01*
X07721Y10690D02*
X08706D01*
X05753D02*
X06737D01*
X05307D02*
X05753D01*
X04769D02*
X05214D01*
X03784D02*
X04769D01*
X03339D02*
X03784D01*
X02800D02*
X03245D01*
X03256Y10701D01*
X03328D01*
X03339Y10690D01*
X05214D02*
X05225Y10701D01*
X05296D01*
X05307Y10690D01*
X09151D02*
X09162Y10701D01*
X09233D01*
X09244Y10690D01*
X09690D01*
X03154Y03461D02*
X03210D01*
X03449D01*
X07265Y09544D02*
X07315Y09595D01*
X07265Y05607D02*
X07315Y05658D01*
X07265Y10529D02*
X07315Y10579D01*
X07265Y07576D02*
X07315Y07626D01*
X07091Y03461D02*
X07390D01*
X07276Y07737D02*
X07721D01*
X07265Y07748D02*
X07276Y07737D01*
X07194Y07748D02*
X07265D01*
X07182Y07737D02*
X07194Y07748D01*
X06737Y07737D02*
X07182D01*
X07194Y07576D02*
X07265D01*
X07143Y07626D02*
X07194Y07576D01*
X07177Y07536D02*
X07281D01*
X07126Y07587D02*
X07177Y07536D01*
X07276Y10690D02*
X07721D01*
X07265Y10701D02*
X07276Y10690D01*
X07194Y10701D02*
X07265D01*
X07182Y10690D02*
X07194Y10701D01*
X06737Y10690D02*
X07182D01*
X07194Y10529D02*
X07265D01*
X07143Y10579D02*
X07194Y10529D01*
X07177Y10489D02*
X07281D01*
X07276Y05769D02*
X07721D01*
X07265Y05780D02*
X07276Y05769D01*
X07194Y05780D02*
X07265D01*
X07182Y05769D02*
X07194Y05780D01*
X06737Y05769D02*
X07182D01*
X07194Y05607D02*
X07265D01*
X07143Y05658D02*
X07194Y05607D01*
X07177Y05567D02*
X07281D01*
X07126Y05619D02*
X07177Y05567D01*
X07276Y09706D02*
X07721D01*
X07265Y09717D02*
X07276Y09706D01*
X07194Y09717D02*
X07265D01*
X07182Y09706D02*
X07194Y09717D01*
X06737Y09706D02*
X07182D01*
X07194Y09544D02*
X07265D01*
X07143Y09595D02*
X07194Y09544D01*
X07177Y09504D02*
X07281D01*
X07126Y09556D02*
X07177Y09504D01*
X07450Y11255D02*
X07500D01*
X07700Y11055D01*
X08450Y11255D02*
X08500D01*
X08700Y11055D01*
X06600Y11305D02*
X06606D01*
X07774Y11355D02*
X08700D01*
X08774D02*
X09700D01*
X10450Y10955D02*
X10620D01*
X10450Y09780D02*
X10620D01*
X10450Y07810D02*
X10620D01*
X10450Y08985D02*
X10620D01*
X10450Y05840D02*
X10620D01*
X10450Y07015D02*
X10620D01*
X10450Y03875D02*
X10620D01*
X10450Y05050D02*
X10620D01*
X10050Y09825D02*
X10117D01*
X10375Y09905D02*
X10450Y09980D01*
X10375Y09755D02*
X10450Y09680D01*
X10200Y09830D02*
X10375D01*
Y09905D01*
Y09755D02*
Y09830D01*
Y07785D02*
Y07860D01*
Y07935D01*
X10200Y07860D02*
X10375D01*
Y07785D02*
X10450Y07710D01*
X10375Y07935D02*
X10450Y08010D01*
X10050Y07855D02*
X10117D01*
X10375Y05815D02*
Y05890D01*
Y05965D01*
X10200Y05890D02*
X10375D01*
Y05815D02*
X10450Y05740D01*
X10375Y05965D02*
X10450Y06040D01*
X10375Y03850D02*
Y03925D01*
Y04000D01*
X10200Y03925D02*
X10375D01*
Y03850D02*
X10450Y03775D01*
X10375Y04000D02*
X10450Y04075D01*
X10050Y03920D02*
X10117D01*
X10050Y05885D02*
X10117D01*
X09638Y06060D02*
X09870D01*
X10150Y06340D01*
X09604Y05980D02*
X09951D01*
X09588Y05940D02*
X09968D01*
X09695Y05671D02*
X09761D01*
X10026Y05936D01*
X10146D01*
X09621Y06020D02*
X09930D01*
X10150Y06240D01*
X09968Y05940D02*
X10068Y06040D01*
X10150D01*
X09951Y05980D02*
X10112Y06140D01*
X10150D01*
X06606Y11305D02*
X06660Y11360D01*
X07695D01*
X07700Y11355D01*
X07722Y11408D02*
X07774Y11355D01*
X06603Y11408D02*
X07722D01*
X06500Y11305D02*
X06603Y11408D01*
X08682Y11448D02*
X08774Y11355D01*
X06543Y11448D02*
X08682D01*
X06400Y11305D02*
X06543Y11448D01*
X05753Y03650D02*
X06737D01*
D13*
X09545Y11300D02*
X09605D01*
X10150Y10755D01*
X08772Y11302D02*
X09387D01*
X06700Y11305D02*
X07385D01*
X07103Y11205D02*
Y11303D01*
X06700Y11205D02*
Y11305D01*
X06600Y11205D02*
X06700D01*
X06500D02*
X06600D01*
X06400D02*
X06500D01*
X06300D02*
X06400D01*
X06130Y02830D02*
X06139D01*
X06030Y02830D02*
X06130D01*
X05930D02*
X06030D01*
X05830D02*
X05930D01*
X05730D02*
X05830D01*
X05630D02*
X05730D01*
X05530D02*
X05630D01*
X05430D02*
X05530D01*
X06139D02*
X06230Y02921D01*
Y03060D01*
X10450Y05940D02*
X10550D01*
X10150Y10755D02*
X10550D01*
X10150Y04850D02*
X10550D01*
X10450Y09880D02*
X10550D01*
X10150Y08785D02*
X10550D01*
X10450Y07910D02*
X10550D01*
X10450Y03975D02*
X10550D01*
X10150Y06814D02*
X10550D01*
X07741Y11302D02*
X08363D01*
D14*
X09285Y09460D02*
X09520D01*
X09285Y08470D02*
X09520D01*
X09285Y10440D02*
X09520D01*
X09285Y07490D02*
X09520D01*
X09285Y06500D02*
X09520D01*
X09285Y05520D02*
X09520D01*
X09285Y04530D02*
X09520D01*
X09285Y03550D02*
X09520D01*
X06910Y10440D02*
X07145D01*
X06910Y09460D02*
X07145D01*
X06910Y07490D02*
X07145D01*
X06910Y08470D02*
X07145D01*
X06910Y06500D02*
X07145D01*
X06910Y05520D02*
X07145D01*
X06910Y04530D02*
X07145D01*
X04943Y10440D02*
X05175D01*
X04943Y09460D02*
X05175D01*
X04943Y08470D02*
X05175D01*
X04943Y07490D02*
X05175D01*
X04943Y06500D02*
X05175D01*
X04940Y05520D02*
X05180D01*
X04944Y03551D02*
X05180D01*
X04940Y04530D02*
X05175D01*
X02974Y10440D02*
X03205D01*
X02974Y08470D02*
X03205D01*
X02974Y09460D02*
X03205D01*
X02974Y07490D02*
X03205D01*
X02974Y06500D02*
X03205D01*
X02974Y04530D02*
X03205D01*
X02974Y03551D02*
X03209D01*
X02974Y05520D02*
X03205D01*
X04419Y03850D02*
X05403D01*
X09440Y03450D02*
X09738D01*
X09849Y03561D01*
X09738Y04434D02*
X09849Y04545D01*
X09440Y04434D02*
X09738D01*
X09440Y05419D02*
X09738D01*
X09849Y05530D01*
X09738Y06403D02*
X09849Y06514D01*
X09440Y06403D02*
X09738D01*
Y10340D02*
X09849Y10451D01*
X09440Y10340D02*
X09738D01*
X09440Y07387D02*
X09738D01*
X09849Y07498D01*
X09738Y08371D02*
X09849Y08482D01*
X09440Y08371D02*
X09738D01*
X09440Y09356D02*
X09738D01*
X09849Y09467D01*
X02550Y03450D02*
X02631Y03531D01*
Y03561D01*
X03534Y03450D02*
X03615Y03531D01*
Y03561D01*
X04519Y03450D02*
X04600Y03531D01*
Y03561D01*
X05503Y03450D02*
X05584Y03531D01*
Y03561D01*
X06487Y03450D02*
X06568Y03531D01*
Y03561D01*
X07471Y03450D02*
X07552Y03531D01*
Y03561D01*
X08456Y03450D02*
X08537Y03531D01*
Y03561D01*
X08456Y04434D02*
X08537Y04515D01*
Y04545D01*
X07471Y04434D02*
X07552Y04515D01*
Y04545D01*
X06487Y04434D02*
X06568Y04515D01*
Y04545D01*
X05503Y04434D02*
X05584Y04515D01*
Y04545D01*
X04519Y04434D02*
X04600Y04515D01*
Y04545D01*
X03534Y04434D02*
X03615Y04515D01*
Y04545D01*
X02550Y04434D02*
X02631Y04515D01*
Y04545D01*
X02550Y05419D02*
X02631Y05500D01*
Y05530D01*
X03534Y05419D02*
X03615Y05500D01*
Y05530D01*
X04519Y05419D02*
X04600Y05500D01*
Y05530D01*
X05503Y05419D02*
X05584Y05500D01*
Y05530D01*
X06487Y05419D02*
X06568Y05500D01*
Y05530D01*
X07471Y05419D02*
X07552Y05500D01*
Y05530D01*
X08456Y05419D02*
X08537Y05500D01*
Y05530D01*
X08456Y06403D02*
X08537Y06484D01*
Y06514D01*
X07471Y06403D02*
X07552Y06484D01*
Y06514D01*
X06487Y06403D02*
X06568Y06484D01*
Y06514D01*
X05503Y06403D02*
X05584Y06484D01*
Y06514D01*
X04519Y06403D02*
X04600Y06484D01*
Y06514D01*
X03534Y06403D02*
X03615Y06484D01*
Y06514D01*
X02550Y06403D02*
X02631Y06484D01*
Y06514D01*
X02550Y07387D02*
X02631Y07468D01*
Y07498D01*
X03534Y07387D02*
X03615Y07468D01*
Y07498D01*
X04519Y07387D02*
X04600Y07468D01*
Y07498D01*
X05503Y07387D02*
X05584Y07468D01*
Y07498D01*
X06487Y07387D02*
X06568Y07468D01*
Y07498D01*
X07471Y07387D02*
X07552Y07468D01*
Y07498D01*
X08456Y07387D02*
X08537Y07468D01*
Y07498D01*
X08456Y08371D02*
X08537Y08452D01*
Y08482D01*
X07471Y08371D02*
X07552Y08452D01*
Y08482D01*
X06487Y08371D02*
X06568Y08452D01*
Y08482D01*
X05503Y08371D02*
X05584Y08452D01*
Y08482D01*
X04519Y08371D02*
X04600Y08452D01*
Y08482D01*
X03534Y08371D02*
X03615Y08452D01*
Y08482D01*
X02550Y08371D02*
X02631Y08452D01*
Y08482D01*
X02550Y09356D02*
X02631Y09437D01*
Y09467D01*
X03534Y09356D02*
X03615Y09437D01*
Y09467D01*
X04519Y09356D02*
X04600Y09437D01*
Y09467D01*
X05503Y09356D02*
X05584Y09437D01*
Y09467D01*
X06487Y09356D02*
X06568Y09437D01*
Y09467D01*
X07471Y09356D02*
X07552Y09437D01*
Y09467D01*
X08456Y09356D02*
X08537Y09437D01*
Y09467D01*
X08456Y10340D02*
X08537Y10421D01*
Y10451D01*
X07471Y10340D02*
X07552Y10421D01*
Y10451D01*
X06487Y10340D02*
X06568Y10421D01*
Y10451D01*
X05503Y10340D02*
X05584Y10421D01*
Y10451D01*
X04519Y10340D02*
X04600Y10421D01*
Y10451D01*
X03534Y10340D02*
X03615Y10421D01*
Y10451D01*
X02631Y10421D02*
Y10451D01*
X02550Y10340D02*
X02631Y10421D01*
X02150Y07100D02*
X02447Y06803D01*
X03434D01*
X02237Y05047D02*
X02450Y04834D01*
X02237Y05047D02*
Y06813D01*
X02150Y06900D02*
X02237Y06813D01*
X02150Y07000D02*
X02267Y06883D01*
Y06002D02*
Y06883D01*
Y06002D02*
X02450Y05819D01*
X02150Y06800D02*
X02207Y06743D01*
Y04093D02*
Y06743D01*
Y04093D02*
X02450Y03850D01*
X02207Y10497D02*
X02450Y10740D01*
X02207Y07557D02*
Y10497D01*
X02237Y09543D02*
X02450Y09756D01*
X02237Y07487D02*
Y09543D01*
X02267Y08588D02*
X02450Y08771D01*
X02267Y07417D02*
Y08588D01*
X02297Y07347D02*
Y07640D01*
X02444Y07787D01*
X03434D01*
X02150Y07500D02*
X02207Y07557D01*
X02150Y07400D02*
X02237Y07487D01*
X02150Y07300D02*
X02267Y07417D01*
X02150Y07200D02*
X02297Y07347D01*
X08356Y03850D02*
X09340D01*
X07371D02*
X08356D01*
X06387D02*
X07371D01*
X05403D02*
X06387D01*
X03434D02*
X04419D01*
X02450D02*
X03434D01*
X08356Y04834D02*
X09340D01*
X07371D02*
X08356D01*
X06387D02*
X07371D01*
X05403D02*
X06387D01*
X04419D02*
X05403D01*
X03434D02*
X04419D01*
X02450D02*
X03434D01*
X08356Y05819D02*
X09340D01*
X07371D02*
X08356D01*
X05403D02*
X06387D01*
X04419D02*
X05403D01*
X03434D02*
X04419D01*
X02450D02*
X03434D01*
X08356Y06803D02*
X09340D01*
X07371D02*
X08356D01*
X06387D02*
X07371D01*
X05403D02*
X06387D01*
X04419D02*
X05403D01*
X03434D02*
X04419D01*
X08356Y07787D02*
X09340D01*
X07371D02*
X08356D01*
X05403D02*
X06387D01*
X04419D02*
X05403D01*
X03434D02*
X04419D01*
X08356Y08771D02*
X09340D01*
X07371D02*
X08356D01*
X06387D02*
X07371D01*
X05403D02*
X06387D01*
X04419D02*
X05403D01*
X03434D02*
X04419D01*
X02450D02*
X03434D01*
X08356Y09756D02*
X09340D01*
X07371D02*
X08356D01*
X05403D02*
X06387D01*
X04419D02*
X05403D01*
X03434D02*
X04419D01*
X02450D02*
X03434D01*
X08356Y10740D02*
X09340D01*
X07371D02*
X08356D01*
X05403D02*
X06387D01*
X04419D02*
X05403D01*
X03434D02*
X04419D01*
X02450D02*
X03434D01*
X03960Y09460D02*
X04195D01*
X03960Y07490D02*
X04195D01*
X03960Y08470D02*
X04195D01*
X03960Y10440D02*
X04195D01*
X03960Y06500D02*
X04195D01*
X03964Y03551D02*
X04199D01*
X03960Y05520D02*
X04195D01*
X03960Y04530D02*
X04195D01*
X05930Y09460D02*
X06165D01*
X05930Y07490D02*
X06165D01*
X05930Y08470D02*
X06165D01*
X05930Y10440D02*
X06165D01*
X05930Y06500D02*
X06165D01*
X05934Y03551D02*
X06169D01*
X05930Y05520D02*
X06165D01*
X05930Y04530D02*
X06165D01*
X06914Y03551D02*
X07149D01*
X07900Y09460D02*
X08135D01*
X07900Y07490D02*
X08135D01*
X07900Y08470D02*
X08135D01*
X07900Y10440D02*
X08135D01*
X07900Y06500D02*
X08135D01*
X07904Y03551D02*
X08139D01*
X07900Y05520D02*
X08135D01*
X07900Y04530D02*
X08135D01*
X08880Y09460D02*
X09115D01*
X08880Y07490D02*
X09115D01*
X08880Y08470D02*
X09115D01*
X08880Y10440D02*
X09115D01*
X08880Y06500D02*
X09115D01*
X08884Y03551D02*
X09119D01*
X08880Y05520D02*
X09115D01*
X08880Y04530D02*
X09115D01*
X06387Y07787D02*
X07371D01*
X06387Y10740D02*
X07371D01*
X06387Y05819D02*
X07371D01*
X06387Y09756D02*
X07371D01*
X10117Y09825D02*
X10122Y09830D01*
X10200D01*
X10122Y07860D02*
X10200D01*
X10122Y05890D02*
X10200D01*
X10122Y03925D02*
X10200D01*
X06295Y11310D02*
X06305D01*
X09820Y11485D02*
X10200Y11105D01*
X06480Y11485D02*
X09820D01*
X06305Y11310D02*
X06480Y11485D01*
X09890Y11515D02*
X10250Y11155D01*
X06410Y11515D02*
X09890D01*
X06200Y11305D02*
X06410Y11515D01*
X09960Y11545D02*
X10300Y11205D01*
X06340Y11545D02*
X09960D01*
X06100Y11305D02*
X06340Y11545D01*
X10202Y09630D02*
X10400D01*
X10450Y09580D01*
X10250Y10080D02*
X10450D01*
X10300Y10180D02*
X10450D01*
X10350Y10280D02*
X10450D01*
X10202Y07660D02*
X10400D01*
X10450Y07610D01*
X10250Y08110D02*
X10450D01*
X10300Y08210D02*
X10450D01*
X10350Y08310D02*
X10450D01*
X10202Y05690D02*
X10400D01*
X10450Y05640D01*
X10250Y06140D02*
X10450D01*
X10300Y06240D02*
X10450D01*
X10350Y06340D02*
X10450D01*
X10202Y03725D02*
X10400D01*
X10450Y03675D01*
X10250Y04175D02*
X10450D01*
X10300Y04275D02*
X10450D01*
X10350Y04375D02*
X10450D01*
X10250Y09430D02*
X10535D01*
X10605Y09360D01*
Y09350D02*
Y09360D01*
D15*
X05430Y02830D02*
D03*
X05530D02*
D03*
X05630D02*
D03*
X05730D02*
D03*
X05830D02*
D03*
X05930D02*
D03*
X06030D02*
D03*
X06130D02*
D03*
X05430Y02930D02*
D03*
X05530D02*
D03*
X05630D02*
D03*
X05730D02*
D03*
X05830D02*
D03*
X05930D02*
D03*
X06030D02*
D03*
X05800Y11205D02*
D03*
X05900D02*
D03*
X06000D02*
D03*
X06100D02*
D03*
X06200D02*
D03*
X06300D02*
D03*
X06400D02*
D03*
X06500D02*
D03*
X06600D02*
D03*
X06700D02*
D03*
X05800Y11305D02*
D03*
X05900D02*
D03*
X06000D02*
D03*
X06100D02*
D03*
X06200D02*
D03*
X06300D02*
D03*
X06400D02*
D03*
X06500D02*
D03*
X06600D02*
D03*
X02150Y07400D02*
D03*
Y07300D02*
D03*
Y07200D02*
D03*
Y07100D02*
D03*
Y07000D02*
D03*
Y06900D02*
D03*
Y06800D02*
D03*
D16*
X06130Y02930D02*
D03*
X06700Y11305D02*
D03*
D17*
X06907Y11205D02*
D03*
D18*
X07103Y11205D02*
D03*
D19*
X09440Y10340D02*
D03*
X08456D02*
D03*
X07471D02*
D03*
X06487D02*
D03*
X05503D02*
D03*
X04519D02*
D03*
X03534D02*
D03*
X02550D02*
D03*
X09440Y09356D02*
D03*
X08456D02*
D03*
X07471D02*
D03*
X06487D02*
D03*
X05503D02*
D03*
X04519D02*
D03*
X03534D02*
D03*
X02550D02*
D03*
X09440Y08371D02*
D03*
X08456D02*
D03*
X07471D02*
D03*
X06487D02*
D03*
X05503D02*
D03*
X04519D02*
D03*
X03534D02*
D03*
X02550D02*
D03*
X09440Y07387D02*
D03*
X08456D02*
D03*
X07471D02*
D03*
X06487D02*
D03*
X05503D02*
D03*
X04519D02*
D03*
X03534D02*
D03*
X02550D02*
D03*
X09440Y06403D02*
D03*
X08456D02*
D03*
X07471D02*
D03*
X06487D02*
D03*
X05503D02*
D03*
X04519D02*
D03*
X03534D02*
D03*
X02550D02*
D03*
X09440Y05419D02*
D03*
X08456D02*
D03*
X07471D02*
D03*
X06487D02*
D03*
X05503D02*
D03*
X04519D02*
D03*
X03534D02*
D03*
X02550D02*
D03*
X09440Y04434D02*
D03*
X08456D02*
D03*
X07471D02*
D03*
X06487D02*
D03*
X05503D02*
D03*
X04519D02*
D03*
X03534D02*
D03*
X02550D02*
D03*
X09440Y03450D02*
D03*
X08456D02*
D03*
X07471D02*
D03*
X06487D02*
D03*
X05503D02*
D03*
X04519D02*
D03*
X03534D02*
D03*
X02550D02*
D03*
X05123Y03700D02*
D03*
X09060Y03460D02*
D03*
Y03700D02*
D03*
X08076Y03460D02*
D03*
Y03700D02*
D03*
X07091Y03460D02*
D03*
Y03700D02*
D03*
X06107Y03460D02*
D03*
X05123D02*
D03*
X04139D02*
D03*
Y03700D02*
D03*
X03154Y03460D02*
D03*
Y03700D02*
D03*
Y04444D02*
D03*
Y04684D02*
D03*
X04139Y04444D02*
D03*
Y04684D02*
D03*
X05123Y04444D02*
D03*
Y04684D02*
D03*
X06107Y04444D02*
D03*
Y04684D02*
D03*
X07091D02*
D03*
Y04444D02*
D03*
X08076Y04684D02*
D03*
Y04444D02*
D03*
X09060Y04684D02*
D03*
Y04444D02*
D03*
Y05669D02*
D03*
Y05429D02*
D03*
X08076Y05669D02*
D03*
Y05429D02*
D03*
X07091Y05669D02*
D03*
Y05429D02*
D03*
X06107Y05669D02*
D03*
Y05429D02*
D03*
X05123Y05669D02*
D03*
Y05429D02*
D03*
X04139Y05669D02*
D03*
Y05429D02*
D03*
X03154Y05669D02*
D03*
Y05429D02*
D03*
Y06653D02*
D03*
Y06413D02*
D03*
X04139Y06653D02*
D03*
Y06413D02*
D03*
X05123Y06653D02*
D03*
Y06413D02*
D03*
X06107Y06653D02*
D03*
Y06413D02*
D03*
X07091Y06653D02*
D03*
Y06413D02*
D03*
X08076Y06653D02*
D03*
Y06413D02*
D03*
X09060Y06653D02*
D03*
Y06413D02*
D03*
Y07637D02*
D03*
Y07397D02*
D03*
X08076Y07637D02*
D03*
Y07397D02*
D03*
X07091Y07637D02*
D03*
Y07397D02*
D03*
X06107Y07637D02*
D03*
Y07397D02*
D03*
X05123Y07637D02*
D03*
Y07397D02*
D03*
X04139Y07637D02*
D03*
Y07397D02*
D03*
X03154Y07637D02*
D03*
Y07397D02*
D03*
Y08621D02*
D03*
Y08381D02*
D03*
X04139Y08621D02*
D03*
Y08381D02*
D03*
X05123Y08621D02*
D03*
Y08381D02*
D03*
X06107Y08621D02*
D03*
Y08381D02*
D03*
X07091Y08621D02*
D03*
Y08381D02*
D03*
X08076Y08621D02*
D03*
Y08381D02*
D03*
X09060Y08621D02*
D03*
Y08381D02*
D03*
Y09606D02*
D03*
Y09366D02*
D03*
X08076Y09606D02*
D03*
Y09366D02*
D03*
X07091Y09606D02*
D03*
Y09366D02*
D03*
X06107Y09606D02*
D03*
Y09366D02*
D03*
X05123Y09606D02*
D03*
Y09366D02*
D03*
X04139Y09606D02*
D03*
Y09366D02*
D03*
X03154Y09606D02*
D03*
Y09366D02*
D03*
Y10590D02*
D03*
Y10350D02*
D03*
X04139Y10590D02*
D03*
Y10350D02*
D03*
X05123Y10590D02*
D03*
Y10350D02*
D03*
X06107Y10590D02*
D03*
Y10350D02*
D03*
X07091Y10590D02*
D03*
Y10350D02*
D03*
X08076Y10590D02*
D03*
Y10350D02*
D03*
X09060D02*
D03*
Y10590D02*
D03*
X09340Y10740D02*
D03*
X08356D02*
D03*
X07371D02*
D03*
X06387D02*
D03*
X05403D02*
D03*
X04419D02*
D03*
X03434D02*
D03*
X02450D02*
D03*
X09340Y09756D02*
D03*
X08356D02*
D03*
X07371D02*
D03*
X06387D02*
D03*
X05403D02*
D03*
X04419D02*
D03*
X03434D02*
D03*
X02450D02*
D03*
X09340Y08771D02*
D03*
X08356D02*
D03*
X07371D02*
D03*
X06387D02*
D03*
X05403D02*
D03*
X04419D02*
D03*
X03434D02*
D03*
X02450D02*
D03*
X09340Y07787D02*
D03*
X08356D02*
D03*
X07371D02*
D03*
X06387D02*
D03*
X05403D02*
D03*
X04419D02*
D03*
X03434D02*
D03*
X02450D02*
D03*
X09340Y06803D02*
D03*
X08356D02*
D03*
X07371D02*
D03*
X06387D02*
D03*
X05403D02*
D03*
X04419D02*
D03*
X03434D02*
D03*
X02450D02*
D03*
X09340Y05819D02*
D03*
X08356D02*
D03*
X07371D02*
D03*
X06387D02*
D03*
X05403D02*
D03*
X04419D02*
D03*
X03434D02*
D03*
X02450D02*
D03*
X09340Y04834D02*
D03*
X08356D02*
D03*
X07371D02*
D03*
X06387D02*
D03*
X05403D02*
D03*
X04419D02*
D03*
X03434D02*
D03*
X02450D02*
D03*
X09340Y03850D02*
D03*
X08356D02*
D03*
X07371D02*
D03*
X06387D02*
D03*
X05403D02*
D03*
X04419D02*
D03*
X03434D02*
D03*
X02450D02*
D03*
X03210Y03550D02*
D03*
Y10440D02*
D03*
Y09460D02*
D03*
Y08470D02*
D03*
Y07490D02*
D03*
Y06500D02*
D03*
Y05520D02*
D03*
Y04530D02*
D03*
X04200D02*
D03*
Y05520D02*
D03*
Y06500D02*
D03*
Y07490D02*
D03*
Y08470D02*
D03*
Y09460D02*
D03*
Y10440D02*
D03*
X05180Y04530D02*
D03*
Y06500D02*
D03*
Y07490D02*
D03*
Y08470D02*
D03*
Y09460D02*
D03*
Y10440D02*
D03*
X06170Y04530D02*
D03*
Y05520D02*
D03*
Y06500D02*
D03*
Y07490D02*
D03*
Y08470D02*
D03*
Y09460D02*
D03*
Y10440D02*
D03*
Y03550D02*
D03*
X08140Y04530D02*
D03*
Y05520D02*
D03*
Y06500D02*
D03*
Y07490D02*
D03*
Y08470D02*
D03*
Y09460D02*
D03*
Y10440D02*
D03*
Y03550D02*
D03*
X09120Y04530D02*
D03*
Y05520D02*
D03*
Y06500D02*
D03*
Y07490D02*
D03*
Y08470D02*
D03*
Y09460D02*
D03*
Y10440D02*
D03*
Y03550D02*
D03*
X05180Y05520D02*
D03*
Y03550D02*
D03*
X04200D02*
D03*
X07150D02*
D03*
Y04530D02*
D03*
Y07490D02*
D03*
Y10440D02*
D03*
Y05520D02*
D03*
Y06500D02*
D03*
Y08470D02*
D03*
Y09460D02*
D03*
X09280Y10440D02*
D03*
Y09460D02*
D03*
Y08470D02*
D03*
Y07490D02*
D03*
Y06500D02*
D03*
Y05520D02*
D03*
Y04530D02*
D03*
Y03550D02*
D03*
X04350Y03650D02*
D03*
Y04634D02*
D03*
Y05619D02*
D03*
Y06603D02*
D03*
Y07587D02*
D03*
Y08571D02*
D03*
Y09556D02*
D03*
Y10540D02*
D03*
X06331Y10640D02*
D03*
Y09656D02*
D03*
Y08671D02*
D03*
Y07687D02*
D03*
Y06703D02*
D03*
Y05719D02*
D03*
Y04734D02*
D03*
Y03750D02*
D03*
X08300Y10690D02*
D03*
Y09706D02*
D03*
Y08721D02*
D03*
Y07737D02*
D03*
Y06753D02*
D03*
Y05769D02*
D03*
Y04784D02*
D03*
Y03800D02*
D03*
X10550Y09880D02*
D03*
Y10755D02*
D03*
Y08785D02*
D03*
Y07910D02*
D03*
Y06814D02*
D03*
Y04850D02*
D03*
Y03975D02*
D03*
X10620Y10955D02*
D03*
Y09780D02*
D03*
Y07810D02*
D03*
Y08985D02*
D03*
Y05840D02*
D03*
Y07015D02*
D03*
X10550Y05940D02*
D03*
X10620Y03875D02*
D03*
Y05050D02*
D03*
X10050Y09825D02*
D03*
Y07855D02*
D03*
Y03920D02*
D03*
Y05885D02*
D03*
X06107Y03700D02*
D03*
D20*
X09690Y10540D02*
D03*
Y10640D02*
D03*
Y10690D02*
D03*
X08706D02*
D03*
Y10640D02*
D03*
Y10540D02*
D03*
X07721D02*
D03*
Y10640D02*
D03*
Y10690D02*
D03*
X06737D02*
D03*
Y10640D02*
D03*
Y10540D02*
D03*
X05753D02*
D03*
Y10640D02*
D03*
Y10690D02*
D03*
X04769D02*
D03*
Y10640D02*
D03*
Y10540D02*
D03*
X03784D02*
D03*
Y10640D02*
D03*
Y10690D02*
D03*
X02800D02*
D03*
Y10640D02*
D03*
Y10540D02*
D03*
X09690Y09556D02*
D03*
Y09656D02*
D03*
Y09706D02*
D03*
X08706D02*
D03*
Y09656D02*
D03*
Y09556D02*
D03*
X07721D02*
D03*
Y09656D02*
D03*
Y09706D02*
D03*
X06737D02*
D03*
Y09656D02*
D03*
Y09556D02*
D03*
X05753D02*
D03*
Y09656D02*
D03*
Y09706D02*
D03*
X04769D02*
D03*
Y09656D02*
D03*
Y09556D02*
D03*
X03784D02*
D03*
Y09656D02*
D03*
Y09706D02*
D03*
X02800D02*
D03*
Y09656D02*
D03*
Y09556D02*
D03*
X09690Y08571D02*
D03*
Y08671D02*
D03*
Y08721D02*
D03*
X08706D02*
D03*
Y08671D02*
D03*
Y08571D02*
D03*
X07721D02*
D03*
Y08671D02*
D03*
Y08721D02*
D03*
X06737D02*
D03*
Y08671D02*
D03*
Y08571D02*
D03*
X05753D02*
D03*
Y08671D02*
D03*
Y08721D02*
D03*
X04769D02*
D03*
Y08671D02*
D03*
Y08571D02*
D03*
X03784D02*
D03*
Y08671D02*
D03*
Y08721D02*
D03*
X02800D02*
D03*
Y08671D02*
D03*
Y08571D02*
D03*
X09690Y07587D02*
D03*
Y07687D02*
D03*
Y07737D02*
D03*
X08706D02*
D03*
Y07687D02*
D03*
Y07587D02*
D03*
X07721D02*
D03*
Y07687D02*
D03*
Y07737D02*
D03*
X06737D02*
D03*
Y07687D02*
D03*
Y07587D02*
D03*
X05753D02*
D03*
Y07687D02*
D03*
Y07737D02*
D03*
X04769D02*
D03*
Y07687D02*
D03*
Y07587D02*
D03*
X03784D02*
D03*
Y07687D02*
D03*
Y07737D02*
D03*
X02800D02*
D03*
Y07687D02*
D03*
Y07587D02*
D03*
X09690Y06603D02*
D03*
Y06703D02*
D03*
Y06753D02*
D03*
X08706D02*
D03*
Y06703D02*
D03*
Y06603D02*
D03*
X07721D02*
D03*
Y06703D02*
D03*
Y06753D02*
D03*
X06737D02*
D03*
Y06703D02*
D03*
Y06603D02*
D03*
X05753D02*
D03*
Y06703D02*
D03*
Y06753D02*
D03*
X04769D02*
D03*
Y06703D02*
D03*
Y06603D02*
D03*
X03784D02*
D03*
Y06703D02*
D03*
Y06753D02*
D03*
X02800D02*
D03*
Y06703D02*
D03*
Y06603D02*
D03*
X09690Y05619D02*
D03*
Y05719D02*
D03*
Y05769D02*
D03*
X08706D02*
D03*
Y05719D02*
D03*
Y05619D02*
D03*
X07721D02*
D03*
Y05719D02*
D03*
Y05769D02*
D03*
X06737D02*
D03*
Y05719D02*
D03*
Y05619D02*
D03*
X05753D02*
D03*
Y05719D02*
D03*
Y05769D02*
D03*
X04769D02*
D03*
Y05719D02*
D03*
Y05619D02*
D03*
X03784D02*
D03*
Y05719D02*
D03*
Y05769D02*
D03*
X02800D02*
D03*
Y05719D02*
D03*
Y05619D02*
D03*
X09690Y04634D02*
D03*
Y04734D02*
D03*
Y04784D02*
D03*
X08706D02*
D03*
Y04734D02*
D03*
Y04634D02*
D03*
X07721D02*
D03*
Y04734D02*
D03*
Y04784D02*
D03*
X06737D02*
D03*
Y04734D02*
D03*
Y04634D02*
D03*
X05753D02*
D03*
Y04734D02*
D03*
Y04784D02*
D03*
X04769D02*
D03*
Y04734D02*
D03*
Y04634D02*
D03*
X03784D02*
D03*
Y04734D02*
D03*
Y04784D02*
D03*
X02800D02*
D03*
Y04734D02*
D03*
Y04634D02*
D03*
X09690Y03650D02*
D03*
Y03750D02*
D03*
Y03800D02*
D03*
X08706D02*
D03*
Y03750D02*
D03*
Y03650D02*
D03*
X07721D02*
D03*
Y03750D02*
D03*
Y03800D02*
D03*
X06737D02*
D03*
Y03750D02*
D03*
Y03650D02*
D03*
X05753D02*
D03*
Y03750D02*
D03*
Y03800D02*
D03*
X04769D02*
D03*
Y03750D02*
D03*
Y03650D02*
D03*
X03784D02*
D03*
Y03750D02*
D03*
Y03800D02*
D03*
X02800D02*
D03*
Y03750D02*
D03*
Y03650D02*
D03*
D21*
X09690Y10590D02*
D03*
X08706D02*
D03*
X07721D02*
D03*
X06737D02*
D03*
X05753D02*
D03*
X04769D02*
D03*
X03784D02*
D03*
X02800D02*
D03*
X09690Y09606D02*
D03*
X08706D02*
D03*
X07721D02*
D03*
X06737D02*
D03*
X05753D02*
D03*
X04769D02*
D03*
X03784D02*
D03*
X02800D02*
D03*
X09690Y08621D02*
D03*
X08706D02*
D03*
X07721D02*
D03*
X06737D02*
D03*
X05753D02*
D03*
X04769D02*
D03*
X03784D02*
D03*
X02800D02*
D03*
X09690Y07637D02*
D03*
X08706D02*
D03*
X07721D02*
D03*
X06737D02*
D03*
X05753D02*
D03*
X04769D02*
D03*
X03784D02*
D03*
X02800D02*
D03*
X09690Y06653D02*
D03*
X08706D02*
D03*
X07721D02*
D03*
X06737D02*
D03*
X05753D02*
D03*
X04769D02*
D03*
X03784D02*
D03*
X02800D02*
D03*
X09690Y05669D02*
D03*
X08706D02*
D03*
X07721D02*
D03*
X06737D02*
D03*
X05753D02*
D03*
X04769D02*
D03*
X03784D02*
D03*
X02800D02*
D03*
X09690Y04684D02*
D03*
X08706D02*
D03*
X07721D02*
D03*
X06737D02*
D03*
X05753D02*
D03*
X04769D02*
D03*
X03784D02*
D03*
X02800D02*
D03*
X09690Y03700D02*
D03*
X08706D02*
D03*
X07721D02*
D03*
X06737D02*
D03*
X05753D02*
D03*
X04769D02*
D03*
X03784D02*
D03*
X02800D02*
D03*
D22*
X07700Y11055D02*
D03*
Y11355D02*
D03*
X08700Y11055D02*
D03*
Y11355D02*
D03*
X09700Y11055D02*
D03*
Y11355D02*
D03*
X10150Y05050D02*
D03*
X10450D02*
D03*
X10150Y07015D02*
D03*
X10450D02*
D03*
X10150Y08985D02*
D03*
X10450D02*
D03*
X10150Y10955D02*
D03*
X10450D02*
D03*
X10615Y09350D02*
D03*
Y09650D02*
D03*
D23*
X07450Y11205D02*
D03*
Y11305D02*
D03*
X08450Y11205D02*
D03*
Y11305D02*
D03*
X09450Y11205D02*
D03*
Y11305D02*
D03*
D24*
X07450Y11255D02*
D03*
X08450D02*
D03*
X09450D02*
D03*
D25*
X10450Y03375D02*
D03*
Y03475D02*
D03*
Y03575D02*
D03*
Y03675D02*
D03*
Y03775D02*
D03*
Y03875D02*
D03*
Y03975D02*
D03*
Y04075D02*
D03*
Y04175D02*
D03*
Y04275D02*
D03*
Y04375D02*
D03*
Y04475D02*
D03*
Y04575D02*
D03*
Y04675D02*
D03*
X10150Y03375D02*
D03*
Y03475D02*
D03*
Y03575D02*
D03*
Y03675D02*
D03*
Y03775D02*
D03*
Y03875D02*
D03*
Y03975D02*
D03*
Y04075D02*
D03*
Y04175D02*
D03*
Y04275D02*
D03*
Y04375D02*
D03*
Y04475D02*
D03*
Y04575D02*
D03*
X10450Y05340D02*
D03*
Y05440D02*
D03*
Y05540D02*
D03*
Y05640D02*
D03*
Y05740D02*
D03*
Y05840D02*
D03*
Y05940D02*
D03*
Y06040D02*
D03*
Y06140D02*
D03*
Y06240D02*
D03*
Y06340D02*
D03*
Y06440D02*
D03*
Y06540D02*
D03*
Y06640D02*
D03*
X10150Y05340D02*
D03*
Y05440D02*
D03*
Y05540D02*
D03*
Y05640D02*
D03*
Y05740D02*
D03*
Y05840D02*
D03*
Y05940D02*
D03*
Y06040D02*
D03*
Y06140D02*
D03*
Y06240D02*
D03*
Y06340D02*
D03*
Y06440D02*
D03*
Y06540D02*
D03*
X10450Y07310D02*
D03*
Y07410D02*
D03*
Y07510D02*
D03*
Y07610D02*
D03*
Y07710D02*
D03*
Y07810D02*
D03*
Y07910D02*
D03*
Y08010D02*
D03*
Y08110D02*
D03*
Y08210D02*
D03*
Y08310D02*
D03*
Y08410D02*
D03*
Y08510D02*
D03*
Y08610D02*
D03*
X10150Y07310D02*
D03*
Y07410D02*
D03*
Y07510D02*
D03*
Y07610D02*
D03*
Y07710D02*
D03*
Y07810D02*
D03*
Y07910D02*
D03*
Y08010D02*
D03*
Y08110D02*
D03*
Y08210D02*
D03*
Y08310D02*
D03*
Y08410D02*
D03*
Y08510D02*
D03*
X10450Y09280D02*
D03*
Y09380D02*
D03*
Y09480D02*
D03*
Y09580D02*
D03*
Y09680D02*
D03*
Y09780D02*
D03*
Y09880D02*
D03*
Y09980D02*
D03*
Y10080D02*
D03*
Y10180D02*
D03*
Y10280D02*
D03*
Y10380D02*
D03*
Y10480D02*
D03*
Y10580D02*
D03*
X10150Y09280D02*
D03*
Y09380D02*
D03*
Y09480D02*
D03*
Y09580D02*
D03*
Y09680D02*
D03*
Y09780D02*
D03*
Y09880D02*
D03*
Y09980D02*
D03*
Y10080D02*
D03*
Y10180D02*
D03*
Y10280D02*
D03*
Y10380D02*
D03*
Y10480D02*
D03*
X06130Y03060D02*
D03*
X06030D02*
D03*
X05930D02*
D03*
X05830D02*
D03*
X05730D02*
D03*
X05630D02*
D03*
X05530D02*
D03*
X05430D02*
D03*
D26*
X10150Y04675D02*
D03*
Y06640D02*
D03*
Y08610D02*
D03*
Y10580D02*
D03*
D27*
X02150Y07500D02*
D03*
D28*
X06230Y03060D02*
D03*
D29*
X10150Y10855D02*
D03*
Y10755D02*
D03*
Y08885D02*
D03*
Y08785D02*
D03*
Y06915D02*
D03*
Y06815D02*
D03*
Y04950D02*
D03*
Y04850D02*
D03*
D30*
X10300Y11205D02*
D03*
X10250Y11155D02*
D03*
X10200Y11105D02*
D03*
X10250Y10080D02*
D03*
X10300Y10180D02*
D03*
X10202Y09630D02*
D03*
X10350Y10280D02*
D03*
X10250Y08110D02*
D03*
X10300Y08210D02*
D03*
X10202Y07660D02*
D03*
X10350Y08310D02*
D03*
X10250Y06140D02*
D03*
X10300Y06240D02*
D03*
X10202Y05690D02*
D03*
X10350Y06340D02*
D03*
X10250Y04175D02*
D03*
X10300Y04275D02*
D03*
X10202Y03725D02*
D03*
X10350Y04375D02*
D03*
X10250Y09430D02*
D03*
M02*
