M48
;Layer_Color=9474304
;FILE_FORMAT=2:3
INCH
;TYPE=PLATED
T1F00S00C0.020
T2F00S00C0.028
T3F00S00C0.030
T4F00S00C0.031
T5F00S00C0.033
T6F00S00C0.035
T7F00S00C0.039
T8F00S00C0.122
%
T01
X10202Y03725
X10250Y04175
X10300Y04275
X10350Y04375
X10202Y05690
X10250Y06140
X10300Y06240
X10350Y06340
X10202Y07660
X10250Y08110
X10300Y08210
X10350Y08310
X10250Y09430
X10202Y09630
X10250Y10080
X10300Y10180
X10350Y10280
X10300Y11205
X10250Y11155
X10200Y11105
T02
X02450Y03850
X03154Y03700
X03210Y03550
X03154Y03460
X03434Y03850
X04139Y03700
X04200Y03550
X04139Y03460
X04350Y03650
X04419Y03850
X04350Y04634
X04200Y04530
X04139Y04444
Y04684
X03154
X03210Y04530
X03154Y04444
X05123
X05180Y04530
X05123Y04684
Y03700
X05180Y03550
X05123Y03460
X05403Y03850
X06107Y03700
X06170Y03550
X06107Y03460
Y04444
X06170Y04530
X06107Y04684
X07091
X07150Y04530
X07091Y04444
Y03700
X07150Y03550
X07091Y03460
X07371Y03850
X06387
X06331Y03750
X08076Y03700
X08140Y03550
X08076Y03460
X08300Y03800
X08356Y03850
X09060Y03700
X09120Y03550
X09060Y03460
X09280Y03550
X09340Y03850
X09280Y04530
X09120
X09060Y04444
Y04684
X08076
X08140Y04530
X08076Y04444
X10050Y03920
X10550Y03975
X10620Y03875
X10550Y04850
X10620Y05050
Y05840
X10550Y05940
X10050Y05885
X09340Y05819
X09280Y05520
X09120
X09060Y05429
Y05669
X08356Y05819
X08300Y05769
X08076Y05669
X08140Y05520
X08076Y05429
X08300Y04784
X08356Y04834
X09340
X07371
X07091Y05429
X07150Y05520
X07091Y05669
X07371Y05819
X06387
X06331Y05719
X06387Y04834
X06331Y04734
X06107Y05429
X06170Y05520
X06107Y05669
X05403Y05819
X05123Y05669
X05180Y05520
X05123Y05429
X05403Y04834
X04419
X04350Y05619
X04200Y05520
X04139Y05429
Y05669
X04419Y05819
X03434
X03154Y05669
X03210Y05520
X03154Y05429
X03434Y04834
X02450
Y05819
Y06803
Y07787
X03154Y07637
X03210Y07490
X03154Y07397
X03434Y07787
X04139Y07637
X04200Y07490
X04139Y07397
X04350Y07587
X04419Y07787
Y06803
X04350Y06603
X04200Y06500
X04139Y06413
Y06653
X03434Y06803
X03154Y06653
X03210Y06500
X03154Y06413
X05123
X05180Y06500
X05123Y06653
X05403Y06803
X06107Y06653
X06170Y06500
X06107Y06413
Y07397
X06170Y07490
X06107Y07637
X05403Y07787
X05123Y07637
X05180Y07490
X05123Y07397
X06331Y07687
X06387Y07787
X07091Y07637
X07150Y07490
X07091Y07397
X07371Y07787
Y06803
X07091Y06653
X07150Y06500
X07091Y06413
X06331Y06703
X06387Y06803
X08076Y06653
X08140Y06500
X08076Y06413
X08300Y06753
X08356Y06803
X09060Y06653
X09120Y06500
X09060Y06413
X09280Y06500
X09340Y06803
X09280Y07490
X09120
X09060Y07397
Y07637
X09340Y07787
X08356
X08300Y07737
X08076Y07637
X08140Y07490
X08076Y07397
X10620Y07015
X10550Y06814
X10620Y07810
X10550Y07910
X10050Y07855
X10550Y08785
X10620Y08985
X09340Y08771
X09280Y08470
X09120
X09060Y08381
Y08621
Y09366
X08076
Y08621
X08140Y08470
X08076Y08381
X08300Y08721
X08356Y08771
X07371
X07091Y08621
X07150Y08470
X07091Y08381
Y09366
X06387Y08771
X06331Y08671
X06107Y08621
X06170Y08470
X06107Y08381
X05123
X05180Y08470
X05123Y08621
X05403Y08771
X05123Y09366
X06107
X04139
Y08621
X04200Y08470
X04139Y08381
X04350Y08571
X04419Y08771
X03434
X03154Y08621
X03210Y08470
X03154Y08381
Y09366
X02450Y08771
Y09756
Y10740
X03154Y10590
X03210Y10440
X03154Y10350
X03434Y10740
X04139Y10590
X04200Y10440
X04139Y10350
X04350Y10540
X04419Y10740
Y09756
X04350Y09556
X04200Y09460
X04139Y09606
X03434Y09756
X03154Y09606
X03210Y09460
X05180
X05123Y09606
X05403Y09756
X06107Y09606
X06170Y09460
X06107Y10350
X06170Y10440
X06107Y10590
X05403Y10740
X05123Y10590
X05180Y10440
X05123Y10350
X06331Y10640
X06387Y10740
X07091Y10590
X07150Y10440
X07091Y10350
X07371Y10740
Y09756
X07091Y09606
X07150Y09460
X06331Y09656
X06387Y09756
X08076Y09606
X08140Y09460
X08300Y09706
X08356Y09756
X09060Y09606
X09120Y09460
X09280
X09340Y09756
X09280Y10440
X09120
X09060Y10350
Y10590
X09340Y10740
X08356
X08300Y10690
X08076Y10590
X08140Y10440
X08076Y10350
X10050Y09825
X10550Y09880
X10620Y09780
X10550Y10755
X10620Y10955
T03
X05430Y03060
X05530
X05630
X05730
X05830
X05930
X06030
X06130
X06230
X02550Y03450
Y04434
X03534
X04519
Y03450
X03534
X05503
Y04434
X06487
X07471
Y03450
X06487
X08456
Y04434
X09440
X10150Y04475
Y04375
Y04275
Y04175
Y04075
Y03975
Y03875
Y03775
Y03675
Y03575
Y03475
Y03375
X10450
Y03475
Y03575
Y03675
Y03775
Y03875
Y03975
Y04075
Y04175
Y04275
Y04375
Y04475
Y04575
Y04675
X10150
Y04575
X09440Y03450
Y05419
X10150Y05440
Y05340
Y05540
Y05640
Y05740
Y05840
Y05940
Y06040
Y06140
Y06240
X10450
Y06140
Y06040
Y05940
Y05840
Y05740
Y05640
Y05540
Y05440
Y05340
X08456Y05419
X07471
X06487
X05503
X04519
X03534
X02550
Y06403
Y07387
X03534
X04519
Y06403
X03534
X05503
Y07387
X06487
X07471
Y06403
X06487
X08456
Y07387
X09440
X10150Y07410
Y07310
Y07510
Y07610
Y07710
Y07810
X10450
Y07710
Y07610
Y07510
Y07410
Y07310
Y06640
Y06540
Y06440
Y06340
X10150
Y06440
Y06540
Y06640
X09440Y06403
Y08371
X10150Y08410
Y08310
Y08210
Y08110
Y08010
Y07910
X10450
Y08010
Y08110
Y08210
Y08310
Y08410
Y08510
Y08610
X10150
Y08510
Y09280
X10450
X09440Y09356
X08456
Y08371
X07471
X06487
Y09356
X07471
X05503
Y08371
X04519
X03534
Y09356
X04519
X02550
Y08371
Y10340
X03534
X04519
X05503
X06487
X07471
X08456
X09440
X10150Y10380
Y10280
Y10180
Y10080
Y09980
Y09880
Y09780
Y09680
Y09580
Y09480
Y09380
X10450
Y09480
Y09580
Y09680
Y09780
Y09880
Y09980
Y10080
Y10180
Y10280
Y10380
Y10480
Y10580
X10150
Y10480
T04
X06907Y11205
X07103Y11205
T05
X10150Y05050
X10450
Y07015
X10150
Y08985
X10450
X10615Y09350
Y09650
X10450Y10955
X10150
X09700Y11055
Y11355
X08700
Y11055
X07700
Y11355
T06
X05430Y02830
X05530
X05630
X05730
X05830
X05930
X06030
X06130
Y02930
X06030
X05930
X05830
X05730
X05630
X05530
X05430
X02800Y03650
Y03700
Y03750
Y03800
Y04634
Y04684
X03784
Y04634
Y03800
Y03750
Y03700
Y03650
X04769
Y03700
Y03750
Y03800
Y04634
Y04684
X05753
Y04634
Y03800
Y03750
Y03700
Y03650
X06737
Y03700
Y03750
Y03800
Y04634
Y04684
X07721
Y04634
Y03800
Y03750
Y03700
Y03650
X08706
Y03700
Y03750
Y03800
Y04634
Y04684
X09690
Y04634
Y03800
Y03750
Y03700
Y03650
Y04734
Y04784
Y05619
Y05669
Y05719
Y05769
X08706
Y05719
Y05669
Y05619
Y04784
Y04734
X07721
Y04784
Y05619
Y05669
Y05719
Y05769
X06737
Y05719
Y05669
Y05619
Y04784
Y04734
X05753
Y04784
Y05619
Y05669
Y05719
Y05769
X04769
Y05719
Y05669
Y05619
Y04784
Y04734
X03784
Y04784
Y05619
Y05669
Y05719
Y05769
X02800
Y05719
Y05669
Y05619
Y04784
Y04734
Y06603
Y06653
Y06703
Y06753
X02150Y06800
Y06900
Y07000
Y07100
Y07200
Y07300
Y07400
Y07500
X02800Y07587
Y07637
Y07687
Y07737
X03784
Y07687
Y07637
Y07587
Y06753
Y06703
Y06653
Y06603
X04769
Y06653
Y06703
Y06753
Y07587
Y07637
Y07687
Y07737
X05753
Y07687
Y07637
Y07587
Y06753
Y06703
Y06653
Y06603
X06737
Y06653
Y06703
Y06753
Y07587
Y07637
Y07687
Y07737
X07721
Y07687
Y07637
Y07587
Y06753
Y06703
Y06653
Y06603
X08706
Y06653
Y06703
Y06753
Y07587
Y07637
Y07687
Y07737
X09690
Y07687
Y07637
Y07587
Y06753
Y06703
Y06653
Y06603
Y08571
Y08621
Y08671
Y08721
X08706
Y08671
Y08621
Y08571
X07721
Y08621
Y08671
Y08721
X06737
Y08671
Y08621
Y08571
X05753
Y08621
Y08671
Y08721
X04769
Y08671
Y08621
Y08571
X03784
Y08621
Y08671
Y08721
X02800
Y08671
Y08621
Y08571
Y09556
Y09606
Y09656
Y09706
Y10540
Y10590
Y10640
Y10690
X03784
Y10640
Y10590
Y10540
Y09706
Y09656
Y09606
Y09556
X04769
Y09606
Y09656
Y09706
Y10540
Y10590
Y10640
Y10690
X05753
Y10640
Y10590
Y10540
Y09706
Y09656
Y09606
Y09556
X06737
Y09606
Y09656
Y09706
Y10540
Y10590
Y10640
Y10690
X07721
Y10640
Y10590
Y10540
Y09706
Y09656
Y09606
Y09556
X08706
Y09606
Y09656
Y09706
Y10540
Y10590
Y10640
Y10690
X09690
Y10640
Y10590
Y10540
Y09706
Y09656
Y09606
Y09556
X09450Y11205
Y11255
Y11305
X08450
Y11255
Y11205
X07450
Y11255
Y11305
X06700
Y11205
X06600
X06500
X06400
X06300
Y11305
X06400
X06500
X06600
X06200
Y11205
X06100
X06000
X05900
X05800
Y11305
X05900
X06000
X06100
T07
X10150Y04850
Y04950
Y06815
Y06915
Y08785
Y08885
Y10755
Y10855
T08
X10525Y02890
X01965
X02800Y04217
X03292
X03784
X03292Y03725
X04769Y04217
X05261Y03725
X05753Y04217
X06245
X06737Y04217
X07229Y03725
X07721Y04217
X08706Y04217
X09198Y04217
Y03725
X09690Y04217
Y06186
X09198Y05694
X08706Y06186
X09198Y04709
X07229
Y05694
X06737Y06186
X07721Y06186
X05753
X04769
X05261Y05694
Y04709
X03292
Y05694
X03784Y06186
X02800
X03292Y06678
Y07170
Y07662
X05261
Y06678
X06245Y07170
X07229Y07662
Y06678
X09198
Y07170
Y07662
X09690Y08154
X09198Y08646
X08706Y08154
X07721Y08154
X07229Y08646
X06737Y08154
X05753Y08154
X04769
X05261Y08646
X03784Y08154
X03292Y08646
X02800Y08154
Y10123
X03292
X03784
X03292Y10615
Y09631
X04769Y10123
X05753
X06245
X05261Y10615
Y09631
X06737Y10123
X07229Y09631
X07721Y10123
X07229Y10615
X09198
Y10123
Y09631
X08706Y10123
X09690Y10123
X10525Y11450
X01965
M30
