%FSAX23Y23*%
%MOIN*%
G70*
G01*
G75*
G04 Layer_Color=32896*
G04:AMPARAMS|DCode=10|XSize=200mil|YSize=70mil|CornerRadius=18mil|HoleSize=0mil|Usage=FLASHONLY|Rotation=180.000|XOffset=0mil|YOffset=0mil|HoleType=Round|Shape=RoundedRectangle|*
%AMROUNDEDRECTD10*
21,1,0.200,0.035,0,0,180.0*
21,1,0.165,0.070,0,0,180.0*
1,1,0.035,-0.083,0.018*
1,1,0.035,0.083,0.018*
1,1,0.035,0.083,-0.018*
1,1,0.035,-0.083,-0.018*
%
%ADD10ROUNDEDRECTD10*%
%ADD11R,0.200X0.070*%
%ADD12C,0.030*%
%ADD13C,0.050*%
%ADD14C,0.020*%
%ADD15C,0.059*%
%ADD16R,0.059X0.059*%
%ADD17C,0.053*%
%ADD18R,0.053X0.053*%
%ADD19C,0.050*%
%ADD20O,0.080X0.040*%
%ADD21R,0.080X0.040*%
%ADD22C,0.055*%
%ADD23O,0.079X0.039*%
%ADD24O,0.079X0.039*%
%ADD25C,0.060*%
%ADD26R,0.060X0.060*%
%ADD27R,0.059X0.059*%
%ADD28R,0.060X0.060*%
%ADD29C,0.065*%
%ADD30C,0.040*%
%ADD31R,0.010X0.010*%
%ADD32C,0.008*%
%ADD33C,0.010*%
%ADD34C,0.020*%
%ADD35C,0.012*%
%ADD36C,0.008*%
%ADD37C,0.006*%
G04:AMPARAMS|DCode=38|XSize=208mil|YSize=78mil|CornerRadius=20mil|HoleSize=0mil|Usage=FLASHONLY|Rotation=180.000|XOffset=0mil|YOffset=0mil|HoleType=Round|Shape=RoundedRectangle|*
%AMROUNDEDRECTD38*
21,1,0.208,0.039,0,0,180.0*
21,1,0.169,0.078,0,0,180.0*
1,1,0.039,-0.085,0.020*
1,1,0.039,0.085,0.020*
1,1,0.039,0.085,-0.020*
1,1,0.039,-0.085,-0.020*
%
%ADD38ROUNDEDRECTD38*%
%ADD39R,0.208X0.078*%
%ADD40C,0.067*%
%ADD41R,0.067X0.067*%
%ADD42C,0.061*%
%ADD43R,0.061X0.061*%
%ADD44C,0.008*%
%ADD45C,0.058*%
%ADD46O,0.088X0.048*%
%ADD47R,0.088X0.048*%
%ADD48C,0.063*%
%ADD49O,0.087X0.047*%
%ADD50O,0.087X0.047*%
%ADD51C,0.068*%
%ADD52R,0.068X0.068*%
%ADD53R,0.067X0.067*%
%ADD54R,0.068X0.068*%
%ADD55C,0.073*%
%ADD56C,0.048*%
%ADD57C,0.195*%
D33*
X09738Y10511D02*
G03*
X09642Y10510I-00049J00104D01*
G01*
X08754Y10511D02*
G03*
X08658Y10510I-00049J00104D01*
G01*
X07770Y10511D02*
G03*
X07674Y10510I-00049J00104D01*
G01*
X06786Y10511D02*
G03*
X06689Y10510I-00049J00104D01*
G01*
X05801Y10511D02*
G03*
X05705Y10510I-00049J00104D01*
G01*
X04817Y10511D02*
G03*
X04721Y10510I-00049J00104D01*
G01*
X03833Y10511D02*
G03*
X03737Y10510I-00049J00104D01*
G01*
X02849Y10511D02*
G03*
X02752Y10510I-00049J00104D01*
G01*
X09738Y09526D02*
G03*
X09642Y09526I-00049J00104D01*
G01*
X08754Y09526D02*
G03*
X08658Y09526I-00049J00104D01*
G01*
X07770Y09526D02*
G03*
X07674Y09526I-00049J00104D01*
G01*
X06786Y09526D02*
G03*
X06689Y09526I-00049J00104D01*
G01*
X05801Y09526D02*
G03*
X05705Y09526I-00049J00104D01*
G01*
X04817Y09526D02*
G03*
X04721Y09526I-00049J00104D01*
G01*
X03833Y09526D02*
G03*
X03737Y09526I-00049J00104D01*
G01*
X02849Y09526D02*
G03*
X02752Y09526I-00049J00104D01*
G01*
X09738Y08542D02*
G03*
X09642Y08542I-00049J00104D01*
G01*
X08754Y08542D02*
G03*
X08658Y08542I-00049J00104D01*
G01*
X07770Y08542D02*
G03*
X07674Y08542I-00049J00104D01*
G01*
X06786Y08542D02*
G03*
X06689Y08542I-00049J00104D01*
G01*
X05801Y08542D02*
G03*
X05705Y08542I-00049J00104D01*
G01*
X04817Y08542D02*
G03*
X04721Y08542I-00049J00104D01*
G01*
X03833Y08542D02*
G03*
X03737Y08542I-00049J00104D01*
G01*
X02849Y08542D02*
G03*
X02752Y08542I-00049J00104D01*
G01*
X09738Y07558D02*
G03*
X09642Y07557I-00049J00104D01*
G01*
X08754Y07558D02*
G03*
X08658Y07557I-00049J00104D01*
G01*
X07770Y07558D02*
G03*
X07674Y07557I-00049J00104D01*
G01*
X06786Y07558D02*
G03*
X06689Y07557I-00049J00104D01*
G01*
X05801Y07558D02*
G03*
X05705Y07557I-00049J00104D01*
G01*
X04817Y07558D02*
G03*
X04721Y07557I-00049J00104D01*
G01*
X03833Y07558D02*
G03*
X03737Y07557I-00049J00104D01*
G01*
X02849Y07558D02*
G03*
X02752Y07557I-00049J00104D01*
G01*
X09738Y06574D02*
G03*
X09642Y06573I-00049J00104D01*
G01*
X08754Y06574D02*
G03*
X08658Y06573I-00049J00104D01*
G01*
X07770Y06574D02*
G03*
X07674Y06573I-00049J00104D01*
G01*
X06786Y06574D02*
G03*
X06689Y06573I-00049J00104D01*
G01*
X05801Y06574D02*
G03*
X05705Y06573I-00049J00104D01*
G01*
X04817Y06574D02*
G03*
X04721Y06573I-00049J00104D01*
G01*
X03833Y06574D02*
G03*
X03737Y06573I-00049J00104D01*
G01*
X02849Y06574D02*
G03*
X02752Y06573I-00049J00104D01*
G01*
X09738Y05589D02*
G03*
X09642Y05589I-00049J00104D01*
G01*
X08754Y05589D02*
G03*
X08658Y05589I-00049J00104D01*
G01*
X07770Y05589D02*
G03*
X07674Y05589I-00049J00104D01*
G01*
X06786Y05589D02*
G03*
X06689Y05589I-00049J00104D01*
G01*
X05801Y05589D02*
G03*
X05705Y05589I-00049J00104D01*
G01*
X04817Y05589D02*
G03*
X04721Y05589I-00049J00104D01*
G01*
X03833Y05589D02*
G03*
X03737Y05589I-00049J00104D01*
G01*
X02849Y05589D02*
G03*
X02752Y05589I-00049J00104D01*
G01*
X09738Y04605D02*
G03*
X09642Y04605I-00049J00104D01*
G01*
X08754Y04605D02*
G03*
X08658Y04605I-00049J00104D01*
G01*
X07770Y04605D02*
G03*
X07674Y04605I-00049J00104D01*
G01*
X06786Y04605D02*
G03*
X06689Y04605I-00049J00104D01*
G01*
X05801Y04605D02*
G03*
X05705Y04605I-00049J00104D01*
G01*
X04817Y04605D02*
G03*
X04721Y04605I-00049J00104D01*
G01*
X03833Y04605D02*
G03*
X03737Y04605I-00049J00104D01*
G01*
X02849Y04605D02*
G03*
X02752Y04605I-00049J00104D01*
G01*
X09738Y03621D02*
G03*
X09642Y03620I-00049J00104D01*
G01*
X08754Y03621D02*
G03*
X08658Y03620I-00049J00104D01*
G01*
X07770Y03621D02*
G03*
X07674Y03620I-00049J00104D01*
G01*
X06786Y03621D02*
G03*
X06689Y03620I-00049J00104D01*
G01*
X05801Y03621D02*
G03*
X05705Y03620I-00049J00104D01*
G01*
X04817Y03621D02*
G03*
X04721Y03620I-00049J00104D01*
G01*
X03833Y03621D02*
G03*
X03737Y03620I-00049J00104D01*
G01*
X02849Y03621D02*
G03*
X02752Y03620I-00049J00104D01*
G01*
X09643Y10510D02*
X09665D01*
X09715Y10510D02*
X09737D01*
X08730D02*
X08752D01*
X08659Y10510D02*
X08681D01*
X07674D02*
X07696D01*
X07746Y10510D02*
X07768D01*
X06762D02*
X06784D01*
X06690Y10510D02*
X06712D01*
X05706D02*
X05728D01*
X05778Y10510D02*
X05800D01*
X04793D02*
X04815D01*
X04722Y10510D02*
X04744D01*
X03737D02*
X03759D01*
X03809Y10510D02*
X03831D01*
X02825D02*
X02847D01*
X02753Y10510D02*
X02775D01*
X09643Y09526D02*
X09665D01*
X09715Y09525D02*
X09737D01*
X08730D02*
X08752D01*
X08659Y09526D02*
X08681D01*
X07674D02*
X07696D01*
X07746Y09525D02*
X07768D01*
X06762D02*
X06784D01*
X06690Y09526D02*
X06712D01*
X05706D02*
X05728D01*
X05778Y09525D02*
X05800D01*
X04793D02*
X04815D01*
X04722Y09526D02*
X04744D01*
X03737D02*
X03759D01*
X03809Y09525D02*
X03831D01*
X02825D02*
X02847D01*
X02753Y09526D02*
X02775D01*
X09643Y08541D02*
X09665D01*
X09715Y08541D02*
X09737D01*
X08730D02*
X08752D01*
X08659Y08541D02*
X08681D01*
X07674D02*
X07696D01*
X07746Y08541D02*
X07768D01*
X06762D02*
X06784D01*
X06690Y08541D02*
X06712D01*
X05706D02*
X05728D01*
X05778Y08541D02*
X05800D01*
X04793D02*
X04815D01*
X04722Y08541D02*
X04744D01*
X03737D02*
X03759D01*
X03809Y08541D02*
X03831D01*
X02825D02*
X02847D01*
X02753Y08541D02*
X02775D01*
X09643Y07557D02*
X09665D01*
X09715Y07557D02*
X09737D01*
X08730D02*
X08752D01*
X08659Y07557D02*
X08681D01*
X07674D02*
X07696D01*
X07746Y07557D02*
X07768D01*
X06762D02*
X06784D01*
X06690Y07557D02*
X06712D01*
X05706D02*
X05728D01*
X05778Y07557D02*
X05800D01*
X04793D02*
X04815D01*
X04722Y07557D02*
X04744D01*
X03737D02*
X03759D01*
X03809Y07557D02*
X03831D01*
X02825D02*
X02847D01*
X02753Y07557D02*
X02775D01*
X09643Y06573D02*
X09665D01*
X09715Y06573D02*
X09737D01*
X08730D02*
X08752D01*
X08659Y06573D02*
X08681D01*
X07674D02*
X07696D01*
X07746Y06573D02*
X07768D01*
X06762D02*
X06784D01*
X06690Y06573D02*
X06712D01*
X05706D02*
X05728D01*
X05778Y06573D02*
X05800D01*
X04793D02*
X04815D01*
X04722Y06573D02*
X04744D01*
X03737D02*
X03759D01*
X03809Y06573D02*
X03831D01*
X02825D02*
X02847D01*
X02753Y06573D02*
X02775D01*
X09643Y05589D02*
X09665D01*
X09715Y05588D02*
X09737D01*
X08730D02*
X08752D01*
X08659Y05589D02*
X08681D01*
X07674D02*
X07696D01*
X07746Y05588D02*
X07768D01*
X06762D02*
X06784D01*
X06690Y05589D02*
X06712D01*
X05706D02*
X05728D01*
X05778Y05588D02*
X05800D01*
X04793D02*
X04815D01*
X04722Y05589D02*
X04744D01*
X03737D02*
X03759D01*
X03809Y05588D02*
X03831D01*
X02825D02*
X02847D01*
X02753Y05589D02*
X02775D01*
X09643Y04604D02*
X09665D01*
X09715Y04604D02*
X09737D01*
X08730D02*
X08752D01*
X08659Y04604D02*
X08681D01*
X07674D02*
X07696D01*
X07746Y04604D02*
X07768D01*
X06762D02*
X06784D01*
X06690Y04604D02*
X06712D01*
X05706D02*
X05728D01*
X05778Y04604D02*
X05800D01*
X04793D02*
X04815D01*
X04722Y04604D02*
X04744D01*
X03737D02*
X03759D01*
X03809Y04604D02*
X03831D01*
X02825D02*
X02847D01*
X02753Y04604D02*
X02775D01*
X09643Y03620D02*
X09665D01*
X09715Y03620D02*
X09737D01*
X08730D02*
X08752D01*
X08659Y03620D02*
X08681D01*
X07674D02*
X07696D01*
X07746Y03620D02*
X07768D01*
X06762D02*
X06784D01*
X06690Y03620D02*
X06712D01*
X05706D02*
X05728D01*
X05778Y03620D02*
X05800D01*
X04793D02*
X04815D01*
X04722Y03620D02*
X04744D01*
X03737D02*
X03759D01*
X03809Y03620D02*
X03831D01*
X02825D02*
X02847D01*
X02753Y03620D02*
X02775D01*
X03075Y04090D02*
Y04130D01*
X03085Y04140D01*
X03105D01*
X03115Y04130D01*
Y04090D01*
X03105Y04080D01*
X03085D01*
X03095Y04100D02*
X03075Y04080D01*
X03085D02*
X03075Y04090D01*
X03015Y04140D02*
X03035Y04130D01*
X03055Y04110D01*
Y04090D01*
X03045Y04080D01*
X03025D01*
X03015Y04090D01*
Y04100D01*
X03025Y04110D01*
X03055D01*
X02965Y04080D02*
Y04140D01*
X02995Y04110D01*
X02955D01*
X09965Y04090D02*
Y04130D01*
X09975Y04140D01*
X09995D01*
X10005Y04130D01*
Y04090D01*
X09995Y04080D01*
X09975D01*
X09985Y04100D02*
X09965Y04080D01*
X09975D02*
X09965Y04090D01*
X09905Y04140D02*
X09945D01*
Y04110D01*
X09925Y04120D01*
X09915D01*
X09905Y04110D01*
Y04090D01*
X09915Y04080D01*
X09935D01*
X09945Y04090D01*
X09885Y04140D02*
X09845D01*
Y04130D01*
X09885Y04090D01*
Y04080D01*
X03075Y10980D02*
Y11020D01*
X03085Y11030D01*
X03105D01*
X03115Y11020D01*
Y10980D01*
X03105Y10970D01*
X03085D01*
X03095Y10990D02*
X03075Y10970D01*
X03085D02*
X03075Y10980D01*
X03055Y11020D02*
X03045Y11030D01*
X03025D01*
X03015Y11020D01*
Y11010D01*
X03025Y11000D01*
X03015Y10990D01*
Y10980D01*
X03025Y10970D01*
X03045D01*
X03055Y10980D01*
Y10990D01*
X03045Y11000D01*
X03055Y11010D01*
Y11020D01*
X03045Y11000D02*
X03025D01*
X09965Y10980D02*
Y11020D01*
X09975Y11030D01*
X09995D01*
X10005Y11020D01*
Y10980D01*
X09995Y10970D01*
X09975D01*
X09985Y10990D02*
X09965Y10970D01*
X09975D02*
X09965Y10980D01*
X09945Y10970D02*
X09925D01*
X09935D01*
Y11030D01*
X09945Y11020D01*
M02*
