%FSAX23Y23*%
%MOIN*%
G70*
G01*
G75*
G04 Layer_Color=65535*
G04:AMPARAMS|DCode=10|XSize=200mil|YSize=70mil|CornerRadius=18mil|HoleSize=0mil|Usage=FLASHONLY|Rotation=180.000|XOffset=0mil|YOffset=0mil|HoleType=Round|Shape=RoundedRectangle|*
%AMROUNDEDRECTD10*
21,1,0.200,0.035,0,0,180.0*
21,1,0.165,0.070,0,0,180.0*
1,1,0.035,-0.083,0.018*
1,1,0.035,0.083,0.018*
1,1,0.035,0.083,-0.018*
1,1,0.035,-0.083,-0.018*
%
%ADD10ROUNDEDRECTD10*%
%ADD11R,0.200X0.070*%
%ADD12C,0.030*%
%ADD13C,0.050*%
%ADD14C,0.020*%
%ADD15C,0.059*%
%ADD16R,0.059X0.059*%
%ADD17C,0.053*%
%ADD18R,0.053X0.053*%
%ADD19C,0.050*%
%ADD20O,0.080X0.040*%
%ADD21R,0.080X0.040*%
%ADD22C,0.055*%
%ADD23O,0.079X0.039*%
%ADD24O,0.079X0.039*%
%ADD25C,0.060*%
%ADD26R,0.060X0.060*%
%ADD27R,0.059X0.059*%
%ADD28R,0.060X0.060*%
%ADD29C,0.065*%
%ADD30C,0.040*%
%ADD31R,0.010X0.010*%
%ADD32C,0.008*%
%ADD33C,0.010*%
%ADD34C,0.020*%
%ADD35C,0.012*%
%ADD36C,0.008*%
%ADD37C,0.006*%
D32*
X06933Y11172D02*
G03*
X07071Y11163I00072J00033D01*
G01*
Y11247D02*
G03*
X06933Y11238I-00066J-00042D01*
G01*
X07391Y11177D02*
G03*
X07391Y11333I00059J00078D01*
G01*
X08391Y11177D02*
G03*
X08391Y11333I00059J00078D01*
G01*
X09391Y11177D02*
G03*
X09391Y11333I00059J00078D01*
G01*
X05380Y02780D02*
X06180D01*
X05380Y02980D02*
X06180D01*
X05380Y02780D02*
Y02980D01*
X06180Y02780D02*
Y02980D01*
X05750Y11155D02*
X06750D01*
Y11355D01*
X05750D02*
X06750D01*
X05750Y11155D02*
Y11355D01*
X07700Y11105D02*
X07730D01*
Y11305D01*
X07670D02*
X07730D01*
X07670Y11105D02*
Y11305D01*
Y11105D02*
X07700D01*
Y11305D02*
Y11314D01*
Y11096D02*
Y11105D01*
X07391Y11177D02*
Y11333D01*
X08700Y11105D02*
X08730D01*
Y11305D01*
X08670D02*
X08730D01*
X08670Y11105D02*
Y11305D01*
Y11105D02*
X08700D01*
Y11305D02*
Y11314D01*
Y11096D02*
Y11105D01*
X08391Y11177D02*
Y11333D01*
X09700Y11105D02*
X09730D01*
Y11305D01*
X09670D02*
X09730D01*
X09670Y11105D02*
Y11305D01*
Y11105D02*
X09700D01*
Y11305D02*
Y11314D01*
Y11096D02*
Y11105D01*
X09391Y11177D02*
Y11333D01*
X10200Y05020D02*
Y05050D01*
Y05020D02*
X10400D01*
Y05080D01*
X10200D02*
X10400D01*
X10200Y05050D02*
Y05080D01*
X10400Y05050D02*
X10409D01*
X10191D02*
X10200D01*
Y06985D02*
Y07015D01*
Y06985D02*
X10400D01*
Y07045D01*
X10200D02*
X10400D01*
X10200Y07015D02*
Y07045D01*
X10400Y07015D02*
X10409D01*
X10191D02*
X10200D01*
Y08955D02*
Y08985D01*
Y08955D02*
X10400D01*
Y09015D01*
X10200D02*
X10400D01*
X10200Y08985D02*
Y09015D01*
X10400Y08985D02*
X10409D01*
X10191D02*
X10200D01*
Y10925D02*
Y10955D01*
Y10925D02*
X10400D01*
Y10985D01*
X10200D02*
X10400D01*
X10200Y10955D02*
Y10985D01*
X10400Y10955D02*
X10409D01*
X10191D02*
X10200D01*
X02100Y06750D02*
X02200D01*
X02100D02*
Y07550D01*
X02200D01*
Y06750D02*
Y07550D01*
X10213Y10705D02*
Y10905D01*
X10087Y10705D02*
Y10905D01*
Y10705D02*
X10213D01*
X10087Y10905D02*
X10213D01*
X10615Y09400D02*
X10645D01*
Y09600D01*
X10585D02*
X10645D01*
X10585Y09400D02*
Y09600D01*
Y09400D02*
X10615D01*
Y09600D02*
Y09609D01*
Y09391D02*
Y09400D01*
X10213Y08735D02*
Y08935D01*
X10087Y08735D02*
Y08935D01*
Y08735D02*
X10213D01*
X10087Y08935D02*
X10213D01*
Y06765D02*
Y06965D01*
X10087Y06765D02*
Y06965D01*
Y06765D02*
X10213D01*
X10087Y06965D02*
X10213D01*
Y04800D02*
Y05000D01*
X10087Y04800D02*
Y05000D01*
Y04800D02*
X10213D01*
X10087Y05000D02*
X10213D01*
D33*
X10275Y04725D02*
G03*
X10325Y04725I00025J00000D01*
G01*
X10275Y06690D02*
G03*
X10325Y06690I00025J00000D01*
G01*
X10275Y08660D02*
G03*
X10325Y08660I00025J00000D01*
G01*
X10275Y10630D02*
G03*
X10325Y10630I00025J00000D01*
G01*
X10215Y03325D02*
Y04725D01*
Y03325D02*
X10385D01*
Y04725D01*
X10325D02*
X10385D01*
X10215D02*
X10275D01*
X10215Y05290D02*
Y06690D01*
Y05290D02*
X10385D01*
Y06690D01*
X10325D02*
X10385D01*
X10215D02*
X10275D01*
X10215Y07260D02*
Y08660D01*
Y07260D02*
X10385D01*
Y08660D01*
X10325D02*
X10385D01*
X10215D02*
X10275D01*
X10215Y09230D02*
Y10630D01*
Y09230D02*
X10385D01*
Y10630D01*
X10325D02*
X10385D01*
X10215D02*
X10275D01*
X06926Y11368D02*
X06916Y11378D01*
X06896D01*
X06886Y11368D01*
Y11328D01*
X06896Y11318D01*
X06916D01*
X06926Y11328D01*
X06986Y11378D02*
X06966Y11368D01*
X06946Y11348D01*
Y11328D01*
X06956Y11318D01*
X06976D01*
X06986Y11328D01*
Y11338D01*
X06976Y11348D01*
X06946D01*
X10545Y09245D02*
Y09305D01*
X10575D01*
X10585Y09295D01*
Y09275D01*
X10575Y09265D01*
X10545D01*
X10565D02*
X10585Y09245D01*
X10605Y09295D02*
X10615Y09305D01*
X10635D01*
X10645Y09295D01*
Y09285D01*
X10635Y09275D01*
X10645Y09265D01*
Y09255D01*
X10635Y09245D01*
X10615D01*
X10605Y09255D01*
Y09265D01*
X10615Y09275D01*
X10605Y09285D01*
Y09295D01*
X10615Y09275D02*
X10635D01*
X10128Y05114D02*
Y05174D01*
X10158D01*
X10168Y05164D01*
Y05144D01*
X10158Y05134D01*
X10128D01*
X10148D02*
X10168Y05114D01*
X10188Y05174D02*
X10228D01*
Y05164D01*
X10188Y05124D01*
Y05114D01*
X10128Y07079D02*
Y07139D01*
X10158D01*
X10168Y07129D01*
Y07109D01*
X10158Y07099D01*
X10128D01*
X10148D02*
X10168Y07079D01*
X10228Y07139D02*
X10208Y07129D01*
X10188Y07109D01*
Y07089D01*
X10198Y07079D01*
X10218D01*
X10228Y07089D01*
Y07099D01*
X10218Y07109D01*
X10188D01*
X10128Y09049D02*
Y09109D01*
X10158D01*
X10168Y09099D01*
Y09079D01*
X10158Y09069D01*
X10128D01*
X10148D02*
X10168Y09049D01*
X10228Y09109D02*
X10188D01*
Y09079D01*
X10208Y09089D01*
X10218D01*
X10228Y09079D01*
Y09059D01*
X10218Y09049D01*
X10198D01*
X10188Y09059D01*
X10128Y11019D02*
Y11079D01*
X10158D01*
X10168Y11069D01*
Y11049D01*
X10158Y11039D01*
X10128D01*
X10148D02*
X10168Y11019D01*
X10218D02*
Y11079D01*
X10188Y11049D01*
X10228D01*
X09676Y11417D02*
Y11477D01*
X09706D01*
X09716Y11467D01*
Y11447D01*
X09706Y11437D01*
X09676D01*
X09696D02*
X09716Y11417D01*
X09736Y11467D02*
X09746Y11477D01*
X09766D01*
X09776Y11467D01*
Y11457D01*
X09766Y11447D01*
X09756D01*
X09766D01*
X09776Y11437D01*
Y11427D01*
X09766Y11417D01*
X09746D01*
X09736Y11427D01*
X08676Y11417D02*
Y11477D01*
X08706D01*
X08716Y11467D01*
Y11447D01*
X08706Y11437D01*
X08676D01*
X08696D02*
X08716Y11417D01*
X08776D02*
X08736D01*
X08776Y11457D01*
Y11467D01*
X08766Y11477D01*
X08746D01*
X08736Y11467D01*
X07676Y11417D02*
Y11477D01*
X07706D01*
X07716Y11467D01*
Y11447D01*
X07706Y11437D01*
X07676D01*
X07696D02*
X07716Y11417D01*
X07736D02*
X07756D01*
X07746D01*
Y11477D01*
X07736Y11467D01*
X10010Y04920D02*
X10000Y04930D01*
X09980D01*
X09970Y04920D01*
Y04880D01*
X09980Y04870D01*
X10000D01*
X10010Y04880D01*
X10070Y04930D02*
X10030D01*
Y04900D01*
X10050Y04910D01*
X10060D01*
X10070Y04900D01*
Y04880D01*
X10060Y04870D01*
X10040D01*
X10030Y04880D01*
X10020Y06885D02*
X10010Y06895D01*
X09990D01*
X09980Y06885D01*
Y06845D01*
X09990Y06835D01*
X10010D01*
X10020Y06845D01*
X10070Y06835D02*
Y06895D01*
X10040Y06865D01*
X10080D01*
X10010Y08855D02*
X10000Y08865D01*
X09980D01*
X09970Y08855D01*
Y08815D01*
X09980Y08805D01*
X10000D01*
X10010Y08815D01*
X10030Y08855D02*
X10040Y08865D01*
X10060D01*
X10070Y08855D01*
Y08845D01*
X10060Y08835D01*
X10050D01*
X10060D01*
X10070Y08825D01*
Y08815D01*
X10060Y08805D01*
X10040D01*
X10030Y08815D01*
X10005Y10830D02*
X09995Y10840D01*
X09975D01*
X09965Y10830D01*
Y10790D01*
X09975Y10780D01*
X09995D01*
X10005Y10790D01*
X10065Y10780D02*
X10025D01*
X10065Y10820D01*
Y10830D01*
X10055Y10840D01*
X10035D01*
X10025Y10830D01*
X02605Y11340D02*
X02595Y11350D01*
X02575D01*
X02565Y11340D01*
Y11300D01*
X02575Y11290D01*
X02595D01*
X02605Y11300D01*
X02625Y11350D02*
Y11290D01*
Y11320D01*
X02635Y11330D01*
X02655D01*
X02665Y11320D01*
Y11290D01*
X02685Y11330D02*
Y11290D01*
Y11310D01*
X02695Y11320D01*
X02705Y11330D01*
X02715D01*
X02755Y11290D02*
X02775D01*
X02785Y11300D01*
Y11320D01*
X02775Y11330D01*
X02755D01*
X02745Y11320D01*
Y11300D01*
X02755Y11290D01*
X02805D02*
Y11330D01*
X02835D01*
X02845Y11320D01*
Y11290D01*
X02875D02*
X02895D01*
X02905Y11300D01*
Y11320D01*
X02895Y11330D01*
X02875D01*
X02865Y11320D01*
Y11300D01*
X02875Y11290D01*
X02925D02*
Y11330D01*
X02935D01*
X02945Y11320D01*
Y11290D01*
Y11320D01*
X02955Y11330D01*
X02965Y11320D01*
Y11290D01*
X03015D02*
X02995D01*
X02985Y11300D01*
Y11320D01*
X02995Y11330D01*
X03015D01*
X03025Y11320D01*
Y11310D01*
X02985D01*
X03105Y11350D02*
Y11310D01*
X03125Y11290D01*
X03145Y11310D01*
Y11350D01*
X03205Y11290D02*
X03165D01*
X03205Y11330D01*
Y11340D01*
X03195Y11350D01*
X03175D01*
X03165Y11340D01*
X03225Y11290D02*
Y11300D01*
X03235D01*
Y11290D01*
X03225D01*
X03315D02*
X03275D01*
X03315Y11330D01*
Y11340D01*
X03305Y11350D01*
X03285D01*
X03275Y11340D01*
X03395Y11350D02*
Y11290D01*
X03425D01*
X03435Y11300D01*
Y11310D01*
Y11320D01*
X03425Y11330D01*
X03395D01*
X03455D02*
Y11300D01*
X03465Y11290D01*
X03495D01*
Y11280D01*
X03485Y11270D01*
X03475D01*
X03495Y11290D02*
Y11330D01*
X03605Y11350D02*
X03585D01*
X03575Y11340D01*
Y11300D01*
X03585Y11290D01*
X03605D01*
X03615Y11300D01*
Y11340D01*
X03605Y11350D01*
X03635Y11330D02*
Y11300D01*
X03645Y11290D01*
X03655Y11300D01*
X03665Y11290D01*
X03675Y11300D01*
Y11330D01*
X03725Y11290D02*
X03705D01*
X03695Y11300D01*
Y11320D01*
X03705Y11330D01*
X03725D01*
X03735Y11320D01*
Y11310D01*
X03695D01*
X03754Y11290D02*
Y11330D01*
X03784D01*
X03794Y11320D01*
Y11290D01*
X03874Y11350D02*
Y11310D01*
X03894Y11290D01*
X03914Y11310D01*
Y11350D01*
X03944Y11330D02*
X03964D01*
X03974Y11320D01*
Y11290D01*
X03944D01*
X03934Y11300D01*
X03944Y11310D01*
X03974D01*
X03994Y11290D02*
X04014D01*
X04004D01*
Y11350D01*
X03994D01*
X04044Y11290D02*
X04064D01*
X04054D01*
Y11350D01*
X04044D01*
X04094Y11290D02*
X04114D01*
X04104D01*
Y11330D01*
X04094D01*
X04144Y11290D02*
X04174D01*
X04184Y11300D01*
X04174Y11310D01*
X04154D01*
X04144Y11320D01*
X04154Y11330D01*
X04184D01*
X04304Y11290D02*
X04264D01*
X04304Y11330D01*
Y11340D01*
X04294Y11350D01*
X04274D01*
X04264Y11340D01*
X04324D02*
X04334Y11350D01*
X04354D01*
X04364Y11340D01*
Y11300D01*
X04354Y11290D01*
X04334D01*
X04324Y11300D01*
Y11340D01*
X04384Y11290D02*
X04404D01*
X04394D01*
Y11350D01*
X04384Y11340D01*
X04434Y11290D02*
X04454D01*
X04444D01*
Y11350D01*
X04434Y11340D01*
X10330Y04235D02*
Y04195D01*
Y04215D01*
X10270D01*
X10330Y04175D02*
X10270D01*
Y04135D01*
X10320Y04075D02*
X10330Y04085D01*
Y04105D01*
X10320Y04115D01*
X10280D01*
X10270Y04105D01*
Y04085D01*
X10280Y04075D01*
X10330Y04015D02*
Y04055D01*
X10300D01*
X10310Y04035D01*
Y04025D01*
X10300Y04015D01*
X10280D01*
X10270Y04025D01*
Y04045D01*
X10280Y04055D01*
Y03995D02*
X10270Y03985D01*
Y03965D01*
X10280Y03955D01*
X10320D01*
X10330Y03965D01*
Y03985D01*
X10320Y03995D01*
X10310D01*
X10300Y03985D01*
Y03955D01*
X10270Y03905D02*
X10330D01*
X10300Y03935D01*
Y03895D01*
X10320Y03875D02*
X10330Y03865D01*
Y03845D01*
X10320Y03835D01*
X10280D01*
X10270Y03845D01*
Y03865D01*
X10280Y03875D01*
X10320D01*
X10330Y06200D02*
Y06160D01*
Y06180D01*
X10270D01*
X10330Y06140D02*
X10270D01*
Y06100D01*
X10320Y06040D02*
X10330Y06050D01*
Y06070D01*
X10320Y06080D01*
X10280D01*
X10270Y06070D01*
Y06050D01*
X10280Y06040D01*
X10330Y05980D02*
Y06020D01*
X10300D01*
X10310Y06000D01*
Y05990D01*
X10300Y05980D01*
X10280D01*
X10270Y05990D01*
Y06010D01*
X10280Y06020D01*
Y05960D02*
X10270Y05950D01*
Y05930D01*
X10280Y05920D01*
X10320D01*
X10330Y05930D01*
Y05950D01*
X10320Y05960D01*
X10310D01*
X10300Y05950D01*
Y05920D01*
X10270Y05870D02*
X10330D01*
X10300Y05900D01*
Y05860D01*
X10320Y05840D02*
X10330Y05830D01*
Y05810D01*
X10320Y05800D01*
X10280D01*
X10270Y05810D01*
Y05830D01*
X10280Y05840D01*
X10320D01*
X10330Y08170D02*
Y08130D01*
Y08150D01*
X10270D01*
X10330Y08110D02*
X10270D01*
Y08070D01*
X10320Y08010D02*
X10330Y08020D01*
Y08040D01*
X10320Y08050D01*
X10280D01*
X10270Y08040D01*
Y08020D01*
X10280Y08010D01*
X10330Y07950D02*
Y07990D01*
X10300D01*
X10310Y07970D01*
Y07960D01*
X10300Y07950D01*
X10280D01*
X10270Y07960D01*
Y07980D01*
X10280Y07990D01*
Y07930D02*
X10270Y07920D01*
Y07900D01*
X10280Y07890D01*
X10320D01*
X10330Y07900D01*
Y07920D01*
X10320Y07930D01*
X10310D01*
X10300Y07920D01*
Y07890D01*
X10270Y07840D02*
X10330D01*
X10300Y07870D01*
Y07830D01*
X10320Y07810D02*
X10330Y07800D01*
Y07780D01*
X10320Y07770D01*
X10280D01*
X10270Y07780D01*
Y07800D01*
X10280Y07810D01*
X10320D01*
X10330Y10140D02*
Y10100D01*
Y10120D01*
X10270D01*
X10330Y10080D02*
X10270D01*
Y10040D01*
X10320Y09980D02*
X10330Y09990D01*
Y10010D01*
X10320Y10020D01*
X10280D01*
X10270Y10010D01*
Y09990D01*
X10280Y09980D01*
X10330Y09920D02*
Y09960D01*
X10300D01*
X10310Y09940D01*
Y09930D01*
X10300Y09920D01*
X10280D01*
X10270Y09930D01*
Y09950D01*
X10280Y09960D01*
Y09900D02*
X10270Y09890D01*
Y09870D01*
X10280Y09860D01*
X10320D01*
X10330Y09870D01*
Y09890D01*
X10320Y09900D01*
X10310D01*
X10300Y09890D01*
Y09860D01*
X10270Y09810D02*
X10330D01*
X10300Y09840D01*
Y09800D01*
X10320Y09780D02*
X10330Y09770D01*
Y09750D01*
X10320Y09740D01*
X10280D01*
X10270Y09750D01*
Y09770D01*
X10280Y09780D01*
X10320D01*
X07175Y11205D02*
X07215D01*
X07195Y11225D02*
Y11185D01*
D34*
X06280Y03010D02*
Y03100D01*
X05380Y03010D02*
X06280D01*
X05380D02*
Y03110D01*
X06280D01*
X06180D02*
X06280D01*
X06180Y03010D02*
Y03110D01*
X06280Y03010D02*
Y03110D01*
D35*
X09705Y03528D02*
Y03594D01*
X09590D02*
X09705D01*
X09590Y03528D02*
Y03594D01*
Y03528D02*
X09705D01*
X09630Y03529D02*
Y03594D01*
X09705Y10418D02*
Y10484D01*
X09590D02*
X09705D01*
X09590Y10418D02*
Y10484D01*
Y10418D02*
X09705D01*
X09630Y10419D02*
Y10484D01*
X08726Y10418D02*
Y10483D01*
X08651Y10484D02*
X08766D01*
Y10418D02*
Y10484D01*
X08651Y10418D02*
X08766D01*
X08651D02*
Y10484D01*
X07666Y10418D02*
Y10484D01*
Y10418D02*
X07781D01*
Y10484D01*
X07666D02*
X07781D01*
X07741Y10418D02*
Y10483D01*
X06757Y10418D02*
Y10483D01*
X06682Y10484D02*
X06797D01*
Y10418D02*
Y10484D01*
X06682Y10418D02*
X06797D01*
X06682D02*
Y10484D01*
X05698Y10418D02*
Y10484D01*
Y10418D02*
X05813D01*
Y10484D01*
X05698D02*
X05813D01*
X05773Y10418D02*
Y10483D01*
X04789Y10418D02*
Y10483D01*
X04714Y10484D02*
X04829D01*
Y10418D02*
Y10484D01*
X04714Y10418D02*
X04829D01*
X04714D02*
Y10484D01*
X03729Y10418D02*
Y10484D01*
Y10418D02*
X03844D01*
Y10484D01*
X03729D02*
X03844D01*
X03804Y10418D02*
Y10483D01*
X02820Y10418D02*
Y10483D01*
X02745Y10484D02*
X02860D01*
Y10418D02*
Y10484D01*
X02745Y10418D02*
X02860D01*
X02745D02*
Y10484D01*
X09705Y09434D02*
Y09500D01*
X09590D02*
X09705D01*
X09590Y09434D02*
Y09500D01*
Y09434D02*
X09705D01*
X09630Y09435D02*
Y09500D01*
X08726Y09434D02*
Y09499D01*
X08651Y09500D02*
X08766D01*
Y09434D02*
Y09500D01*
X08651Y09434D02*
X08766D01*
X08651D02*
Y09500D01*
X07666Y09434D02*
Y09500D01*
Y09434D02*
X07781D01*
Y09500D01*
X07666D02*
X07781D01*
X07741Y09434D02*
Y09499D01*
X06757Y09434D02*
Y09499D01*
X06682Y09500D02*
X06797D01*
Y09434D02*
Y09500D01*
X06682Y09434D02*
X06797D01*
X06682D02*
Y09500D01*
X05698Y09434D02*
Y09500D01*
Y09434D02*
X05813D01*
Y09500D01*
X05698D02*
X05813D01*
X05773Y09434D02*
Y09499D01*
X04789Y09434D02*
Y09499D01*
X04714Y09500D02*
X04829D01*
Y09434D02*
Y09500D01*
X04714Y09434D02*
X04829D01*
X04714D02*
Y09500D01*
X03729Y09434D02*
Y09500D01*
Y09434D02*
X03844D01*
Y09500D01*
X03729D02*
X03844D01*
X03804Y09434D02*
Y09499D01*
X02820Y09434D02*
Y09499D01*
X02745Y09500D02*
X02860D01*
Y09434D02*
Y09500D01*
X02745Y09434D02*
X02860D01*
X02745D02*
Y09500D01*
X09705Y08449D02*
Y08515D01*
X09590D02*
X09705D01*
X09590Y08449D02*
Y08515D01*
Y08449D02*
X09705D01*
X09630Y08450D02*
Y08515D01*
X08726Y08449D02*
Y08514D01*
X08651Y08515D02*
X08766D01*
Y08449D02*
Y08515D01*
X08651Y08449D02*
X08766D01*
X08651D02*
Y08515D01*
X07666Y08449D02*
Y08515D01*
Y08449D02*
X07781D01*
Y08515D01*
X07666D02*
X07781D01*
X07741Y08449D02*
Y08514D01*
X06757Y08449D02*
Y08514D01*
X06682Y08515D02*
X06797D01*
Y08449D02*
Y08515D01*
X06682Y08449D02*
X06797D01*
X06682D02*
Y08515D01*
X05698Y08449D02*
Y08515D01*
Y08449D02*
X05813D01*
Y08515D01*
X05698D02*
X05813D01*
X05773Y08449D02*
Y08514D01*
X04789Y08449D02*
Y08514D01*
X04714Y08515D02*
X04829D01*
Y08449D02*
Y08515D01*
X04714Y08449D02*
X04829D01*
X04714D02*
Y08515D01*
X03729Y08449D02*
Y08515D01*
Y08449D02*
X03844D01*
Y08515D01*
X03729D02*
X03844D01*
X03804Y08449D02*
Y08514D01*
X02820Y08449D02*
Y08514D01*
X02745Y08515D02*
X02860D01*
Y08449D02*
Y08515D01*
X02745Y08449D02*
X02860D01*
X02745D02*
Y08515D01*
X09705Y07465D02*
Y07531D01*
X09590D02*
X09705D01*
X09590Y07465D02*
Y07531D01*
Y07465D02*
X09705D01*
X09630Y07466D02*
Y07531D01*
X08726Y07465D02*
Y07530D01*
X08651Y07531D02*
X08766D01*
Y07465D02*
Y07531D01*
X08651Y07465D02*
X08766D01*
X08651D02*
Y07531D01*
X07666Y07465D02*
Y07531D01*
Y07465D02*
X07781D01*
Y07531D01*
X07666D02*
X07781D01*
X07741Y07465D02*
Y07530D01*
X06757Y07465D02*
Y07530D01*
X06682Y07531D02*
X06797D01*
Y07465D02*
Y07531D01*
X06682Y07465D02*
X06797D01*
X06682D02*
Y07531D01*
X05698Y07465D02*
Y07531D01*
Y07465D02*
X05813D01*
Y07531D01*
X05698D02*
X05813D01*
X05773Y07465D02*
Y07530D01*
X04789Y07465D02*
Y07530D01*
X04714Y07531D02*
X04829D01*
Y07465D02*
Y07531D01*
X04714Y07465D02*
X04829D01*
X04714D02*
Y07531D01*
X03729Y07465D02*
Y07531D01*
Y07465D02*
X03844D01*
Y07531D01*
X03729D02*
X03844D01*
X03804Y07465D02*
Y07530D01*
X02820Y07465D02*
Y07530D01*
X02745Y07531D02*
X02860D01*
Y07465D02*
Y07531D01*
X02745Y07465D02*
X02860D01*
X02745D02*
Y07531D01*
X09705Y06481D02*
Y06547D01*
X09590D02*
X09705D01*
X09590Y06481D02*
Y06547D01*
Y06481D02*
X09705D01*
X09630Y06482D02*
Y06547D01*
X08726Y06481D02*
Y06546D01*
X08651Y06547D02*
X08766D01*
Y06481D02*
Y06547D01*
X08651Y06481D02*
X08766D01*
X08651D02*
Y06547D01*
X07666Y06481D02*
Y06547D01*
Y06481D02*
X07781D01*
Y06547D01*
X07666D02*
X07781D01*
X07741Y06481D02*
Y06546D01*
X06757Y06481D02*
Y06546D01*
X06682Y06547D02*
X06797D01*
Y06481D02*
Y06547D01*
X06682Y06481D02*
X06797D01*
X06682D02*
Y06547D01*
X05698Y06481D02*
Y06547D01*
Y06481D02*
X05813D01*
Y06547D01*
X05698D02*
X05813D01*
X05773Y06481D02*
Y06546D01*
X04789Y06481D02*
Y06546D01*
X04714Y06547D02*
X04829D01*
Y06481D02*
Y06547D01*
X04714Y06481D02*
X04829D01*
X04714D02*
Y06547D01*
X03729Y06481D02*
Y06547D01*
Y06481D02*
X03844D01*
Y06547D01*
X03729D02*
X03844D01*
X03804Y06481D02*
Y06546D01*
X02820Y06481D02*
Y06546D01*
X02745Y06547D02*
X02860D01*
Y06481D02*
Y06547D01*
X02745Y06481D02*
X02860D01*
X02745D02*
Y06547D01*
X09705Y05497D02*
Y05563D01*
X09590D02*
X09705D01*
X09590Y05497D02*
Y05563D01*
Y05497D02*
X09705D01*
X09630Y05498D02*
Y05563D01*
X08726Y05497D02*
Y05562D01*
X08651Y05563D02*
X08766D01*
Y05497D02*
Y05563D01*
X08651Y05497D02*
X08766D01*
X08651D02*
Y05563D01*
X07666Y05497D02*
Y05563D01*
Y05497D02*
X07781D01*
Y05563D01*
X07666D02*
X07781D01*
X07741Y05497D02*
Y05562D01*
X06757Y05497D02*
Y05562D01*
X06682Y05563D02*
X06797D01*
Y05497D02*
Y05563D01*
X06682Y05497D02*
X06797D01*
X06682D02*
Y05563D01*
X05698Y05497D02*
Y05563D01*
Y05497D02*
X05813D01*
Y05563D01*
X05698D02*
X05813D01*
X05773Y05497D02*
Y05562D01*
X04789Y05497D02*
Y05562D01*
X04714Y05563D02*
X04829D01*
Y05497D02*
Y05563D01*
X04714Y05497D02*
X04829D01*
X04714D02*
Y05563D01*
X03729Y05497D02*
Y05563D01*
Y05497D02*
X03844D01*
Y05563D01*
X03729D02*
X03844D01*
X03804Y05497D02*
Y05562D01*
X02820Y05497D02*
Y05562D01*
X02745Y05563D02*
X02860D01*
Y05497D02*
Y05563D01*
X02745Y05497D02*
X02860D01*
X02745D02*
Y05563D01*
X09705Y04512D02*
Y04578D01*
X09590D02*
X09705D01*
X09590Y04512D02*
Y04578D01*
Y04512D02*
X09705D01*
X09630Y04513D02*
Y04578D01*
X08726Y04512D02*
Y04577D01*
X08651Y04578D02*
X08766D01*
Y04512D02*
Y04578D01*
X08651Y04512D02*
X08766D01*
X08651D02*
Y04578D01*
X07666Y04512D02*
Y04578D01*
Y04512D02*
X07781D01*
Y04578D01*
X07666D02*
X07781D01*
X07741Y04512D02*
Y04577D01*
X06757Y04512D02*
Y04577D01*
X06682Y04578D02*
X06797D01*
Y04512D02*
Y04578D01*
X06682Y04512D02*
X06797D01*
X06682D02*
Y04578D01*
X05698Y04512D02*
Y04578D01*
Y04512D02*
X05813D01*
Y04578D01*
X05698D02*
X05813D01*
X05773Y04512D02*
Y04577D01*
X04789Y04512D02*
Y04577D01*
X04714Y04578D02*
X04829D01*
Y04512D02*
Y04578D01*
X04714Y04512D02*
X04829D01*
X04714D02*
Y04578D01*
X03729Y04512D02*
Y04578D01*
Y04512D02*
X03844D01*
Y04578D01*
X03729D02*
X03844D01*
X03804Y04512D02*
Y04577D01*
X02820Y04512D02*
Y04577D01*
X02745Y04578D02*
X02860D01*
Y04512D02*
Y04578D01*
X02745Y04512D02*
X02860D01*
X02745D02*
Y04578D01*
X08651Y03528D02*
Y03594D01*
Y03528D02*
X08766D01*
Y03594D01*
X08651D02*
X08766D01*
X08726Y03528D02*
Y03593D01*
X07741Y03528D02*
Y03593D01*
X07666Y03594D02*
X07781D01*
Y03528D02*
Y03594D01*
X07666Y03528D02*
X07781D01*
X07666D02*
Y03594D01*
X06682Y03528D02*
Y03594D01*
Y03528D02*
X06797D01*
Y03594D01*
X06682D02*
X06797D01*
X06757Y03528D02*
Y03593D01*
X05773Y03528D02*
Y03593D01*
X05698Y03594D02*
X05813D01*
Y03528D02*
Y03594D01*
X05698Y03528D02*
X05813D01*
X05698D02*
Y03594D01*
X04714Y03528D02*
Y03594D01*
Y03528D02*
X04829D01*
Y03594D01*
X04714D02*
X04829D01*
X04789Y03528D02*
Y03593D01*
X03804Y03528D02*
Y03593D01*
X03729Y03594D02*
X03844D01*
Y03528D02*
Y03594D01*
X03729Y03528D02*
X03844D01*
X03729D02*
Y03594D01*
X02745Y03528D02*
Y03594D01*
Y03528D02*
X02860D01*
Y03594D01*
X02745D02*
X02860D01*
X02820Y03528D02*
Y03593D01*
D36*
X02120Y07600D02*
Y07583D01*
Y07592D01*
X02170D01*
X02162Y07600D01*
X06250Y02905D02*
Y02938D01*
X06267Y02955D01*
X06283Y02938D01*
Y02905D01*
Y02930D01*
X06250D01*
X06300Y02955D02*
Y02905D01*
X06325D01*
X06333Y02913D01*
Y02947D01*
X06325Y02955D01*
X06300D01*
X06383Y02947D02*
X06375Y02955D01*
X06358D01*
X06350Y02947D01*
Y02913D01*
X06358Y02905D01*
X06375D01*
X06383Y02913D01*
X06283Y02842D02*
X06275Y02850D01*
X06258D01*
X06250Y02842D01*
Y02808D01*
X06258Y02800D01*
X06275D01*
X06283Y02808D01*
Y02825D01*
X06267D01*
X06300Y02800D02*
Y02850D01*
X06333Y02800D01*
Y02850D01*
X06350D02*
Y02800D01*
X06375D01*
X06383Y02808D01*
Y02842D01*
X06375Y02850D01*
X06350D01*
X06205Y02905D02*
X06222D01*
X06213D01*
Y02955D01*
X06205Y02947D01*
X05535Y11335D02*
Y11302D01*
X05552Y11285D01*
X05568Y11302D01*
Y11335D01*
X05585Y11285D02*
Y11335D01*
X05610D01*
X05618Y11327D01*
Y11310D01*
X05610Y11302D01*
X05585D01*
X05635Y11285D02*
Y11335D01*
X05660D01*
X05668Y11327D01*
Y11310D01*
X05660Y11302D01*
X05635D01*
X05652D02*
X05668Y11285D01*
X05718Y11327D02*
X05710Y11335D01*
X05693D01*
X05685Y11327D01*
Y11293D01*
X05693Y11285D01*
X05710D01*
X05718Y11293D01*
Y11310D01*
X05702D01*
X05608Y11217D02*
X05600Y11225D01*
X05583D01*
X05575Y11217D01*
Y11183D01*
X05583Y11175D01*
X05600D01*
X05608Y11183D01*
Y11200D01*
X05592D01*
X05625Y11175D02*
Y11225D01*
X05658Y11175D01*
Y11225D01*
X05675D02*
Y11175D01*
X05700D01*
X05708Y11183D01*
Y11217D01*
X05700Y11225D01*
X05675D01*
D37*
X07350Y11285D02*
X07370D01*
X07360D01*
Y11344D01*
X07350Y11334D01*
X08345Y11280D02*
X08365D01*
X08355D01*
Y11339D01*
X08345Y11329D01*
X09350Y11280D02*
X09370D01*
X09360D01*
Y11339D01*
X09350Y11329D01*
M02*
