%FSAX23Y23*%
%MOIN*%
G70*
G01*
G75*
G04 Layer_Color=8421504*
G04:AMPARAMS|DCode=10|XSize=200mil|YSize=70mil|CornerRadius=18mil|HoleSize=0mil|Usage=FLASHONLY|Rotation=180.000|XOffset=0mil|YOffset=0mil|HoleType=Round|Shape=RoundedRectangle|*
%AMROUNDEDRECTD10*
21,1,0.200,0.035,0,0,180.0*
21,1,0.165,0.070,0,0,180.0*
1,1,0.035,-0.083,0.018*
1,1,0.035,0.083,0.018*
1,1,0.035,0.083,-0.018*
1,1,0.035,-0.083,-0.018*
%
%ADD10ROUNDEDRECTD10*%
%ADD11R,0.200X0.070*%
%ADD12C,0.030*%
%ADD13C,0.050*%
%ADD14C,0.020*%
%ADD15C,0.059*%
%ADD16R,0.059X0.059*%
%ADD17C,0.053*%
%ADD18R,0.053X0.053*%
%ADD19C,0.050*%
%ADD20O,0.080X0.040*%
%ADD21R,0.080X0.040*%
%ADD22C,0.055*%
%ADD23O,0.079X0.039*%
%ADD24O,0.079X0.039*%
%ADD25C,0.060*%
%ADD26R,0.060X0.060*%
%ADD27R,0.059X0.059*%
%ADD28R,0.060X0.060*%
%ADD29C,0.065*%
%ADD30C,0.040*%
%ADD31R,0.010X0.010*%
%ADD32C,0.008*%
%ADD33C,0.010*%
%ADD34C,0.020*%
%ADD35C,0.012*%
%ADD36C,0.008*%
%ADD37C,0.006*%
D10*
X09476Y03561D02*
D03*
Y10451D02*
D03*
X08880Y10451D02*
D03*
X07895D02*
D03*
X06911D02*
D03*
X05927D02*
D03*
X04943D02*
D03*
X03958D02*
D03*
X02974D02*
D03*
X09476Y09467D02*
D03*
X08880Y09467D02*
D03*
X07895D02*
D03*
X06911D02*
D03*
X05927D02*
D03*
X04943D02*
D03*
X03958D02*
D03*
X02974D02*
D03*
X09476Y08482D02*
D03*
X08880Y08482D02*
D03*
X07895D02*
D03*
X06911D02*
D03*
X05927D02*
D03*
X04943D02*
D03*
X03958D02*
D03*
X02974D02*
D03*
X09476Y07498D02*
D03*
X08880Y07498D02*
D03*
X07895D02*
D03*
X06911D02*
D03*
X05927D02*
D03*
X04943D02*
D03*
X03958D02*
D03*
X02974D02*
D03*
X09476Y06514D02*
D03*
X08880Y06514D02*
D03*
X07895D02*
D03*
X06911D02*
D03*
X05927D02*
D03*
X04943D02*
D03*
X03958D02*
D03*
X02974D02*
D03*
X09476Y05530D02*
D03*
X08880Y05530D02*
D03*
X07895D02*
D03*
X06911D02*
D03*
X05927D02*
D03*
X04943D02*
D03*
X03958D02*
D03*
X02974D02*
D03*
X09476Y04545D02*
D03*
X08880D02*
D03*
X07895D02*
D03*
X06911D02*
D03*
X05927D02*
D03*
X04943D02*
D03*
X03958D02*
D03*
X02974D02*
D03*
X08880Y03561D02*
D03*
X07895D02*
D03*
X06911D02*
D03*
X05927D02*
D03*
X04943D02*
D03*
X03958D02*
D03*
X02974D02*
D03*
D11*
X09819D02*
D03*
Y10451D02*
D03*
X08537Y10451D02*
D03*
X07552D02*
D03*
X06568D02*
D03*
X05584D02*
D03*
X04600D02*
D03*
X03615D02*
D03*
X02631D02*
D03*
X09819Y09467D02*
D03*
X08537Y09467D02*
D03*
X07552D02*
D03*
X06568D02*
D03*
X05584D02*
D03*
X04600D02*
D03*
X03615D02*
D03*
X02631D02*
D03*
X09819Y08482D02*
D03*
X08537Y08482D02*
D03*
X07552D02*
D03*
X06568D02*
D03*
X05584D02*
D03*
X04600D02*
D03*
X03615D02*
D03*
X02631D02*
D03*
X09819Y07498D02*
D03*
X08537Y07498D02*
D03*
X07552D02*
D03*
X06568D02*
D03*
X05584D02*
D03*
X04600D02*
D03*
X03615D02*
D03*
X02631D02*
D03*
X09819Y06514D02*
D03*
X08537Y06514D02*
D03*
X07552D02*
D03*
X06568D02*
D03*
X05584D02*
D03*
X04600D02*
D03*
X03615D02*
D03*
X02631D02*
D03*
X09819Y05530D02*
D03*
X08537Y05530D02*
D03*
X07552D02*
D03*
X06568D02*
D03*
X05584D02*
D03*
X04600D02*
D03*
X03615D02*
D03*
X02631D02*
D03*
X09819Y04545D02*
D03*
X08537D02*
D03*
X07552D02*
D03*
X06568D02*
D03*
X05584D02*
D03*
X04600D02*
D03*
X03615D02*
D03*
X02631D02*
D03*
X08537Y03561D02*
D03*
X07552D02*
D03*
X06568D02*
D03*
X05584D02*
D03*
X04600D02*
D03*
X03615D02*
D03*
X02631D02*
D03*
M02*
