%FSAX24Y24*%
%MOIN*%
G70*
G01*
G75*
G04 Layer_Color=2752767*
G04:AMPARAMS|DCode=10|XSize=200mil|YSize=70mil|CornerRadius=17.5mil|HoleSize=0mil|Usage=FLASHONLY|Rotation=180.000|XOffset=0mil|YOffset=0mil|HoleType=Round|Shape=RoundedRectangle|*
%AMROUNDEDRECTD10*
21,1,0.2000,0.0350,0,0,180.0*
21,1,0.1650,0.0700,0,0,180.0*
1,1,0.0350,-0.0825,0.0175*
1,1,0.0350,0.0825,0.0175*
1,1,0.0350,0.0825,-0.0175*
1,1,0.0350,-0.0825,-0.0175*
%
%ADD10ROUNDEDRECTD10*%
%ADD11R,0.2000X0.0700*%
%ADD12C,0.0300*%
%ADD13C,0.0500*%
%ADD14C,0.0200*%
%ADD15C,0.0591*%
%ADD16R,0.0591X0.0591*%
%ADD17C,0.0532*%
%ADD18R,0.0532X0.0532*%
%ADD19C,0.0500*%
%ADD20O,0.0800X0.0400*%
%ADD21R,0.0800X0.0400*%
%ADD22C,0.0551*%
%ADD23O,0.0787X0.0394*%
%ADD24O,0.0787X0.0394*%
%ADD25C,0.0600*%
%ADD26R,0.0600X0.0600*%
%ADD27R,0.0591X0.0591*%
%ADD28R,0.0600X0.0600*%
%ADD29C,0.0650*%
%ADD30C,0.0400*%
%ADD31R,0.0098X0.0098*%
%ADD32C,0.0079*%
%ADD33C,0.0100*%
%ADD34C,0.0197*%
%ADD35C,0.0118*%
%ADD36C,0.0080*%
%ADD37C,0.0059*%
G04:AMPARAMS|DCode=38|XSize=208mil|YSize=78mil|CornerRadius=19.5mil|HoleSize=0mil|Usage=FLASHONLY|Rotation=180.000|XOffset=0mil|YOffset=0mil|HoleType=Round|Shape=RoundedRectangle|*
%AMROUNDEDRECTD38*
21,1,0.2080,0.0390,0,0,180.0*
21,1,0.1690,0.0780,0,0,180.0*
1,1,0.0390,-0.0845,0.0195*
1,1,0.0390,0.0845,0.0195*
1,1,0.0390,0.0845,-0.0195*
1,1,0.0390,-0.0845,-0.0195*
%
%ADD38ROUNDEDRECTD38*%
%ADD39R,0.2080X0.0780*%
%ADD40C,0.0671*%
%ADD41R,0.0671X0.0671*%
%ADD42C,0.0612*%
%ADD43R,0.0612X0.0612*%
%ADD44C,0.0080*%
%ADD45C,0.0580*%
%ADD46O,0.0880X0.0480*%
%ADD47R,0.0880X0.0480*%
%ADD48C,0.0631*%
%ADD49O,0.0867X0.0474*%
%ADD50O,0.0867X0.0474*%
%ADD51C,0.0680*%
%ADD52R,0.0680X0.0680*%
%ADD53R,0.0671X0.0671*%
%ADD54R,0.0680X0.0680*%
%ADD55C,0.0730*%
%ADD56C,0.0480*%
%ADD57C,0.1950*%
%ADD58C,0.0067*%
D37*
X054100Y028100D02*
Y028500D01*
X054500D01*
Y028100D01*
X054100D01*
X055100D02*
Y028500D01*
X055500D01*
Y028100D01*
X055100D01*
X056100D02*
Y028500D01*
X056500D01*
Y028100D01*
X056100D01*
X057100D02*
Y028500D01*
X057500D01*
Y028100D01*
X057100D01*
X058100D02*
Y028500D01*
X058500D01*
Y028100D01*
X058100D01*
X059100D02*
Y028500D01*
X059500D01*
Y028100D01*
X059100D01*
X060100D02*
Y028500D01*
X060500D01*
Y028100D01*
X060100D01*
X061100D02*
Y028500D01*
X061500D01*
Y028100D01*
X061100D01*
X054100Y029100D02*
Y029500D01*
X054500D01*
Y029100D01*
X054100D01*
X055100D02*
Y029500D01*
X055500D01*
Y029100D01*
X055100D01*
X056100D02*
Y029500D01*
X056500D01*
Y029100D01*
X056100D01*
X057100D02*
Y029500D01*
X057500D01*
Y029100D01*
X057100D01*
X058100D02*
Y029500D01*
X058500D01*
Y029100D01*
X058100D01*
X059100D02*
Y029500D01*
X059500D01*
Y029100D01*
X059100D01*
X060100D02*
Y029500D01*
X060500D01*
Y029100D01*
X060100D01*
X061100D02*
Y029500D01*
X061500D01*
Y029100D01*
X061100D01*
X019649Y114299D02*
X019449Y114699D01*
X019849D01*
X019649Y114299D01*
X105249D02*
X105049Y114699D01*
X105449D01*
X105249Y114299D01*
Y028699D02*
X105049Y029099D01*
X105449D01*
X105249Y028699D01*
X019649D02*
X019449Y029099D01*
X019849D01*
X019649Y028699D01*
X094398Y103198D02*
X094498Y103298D01*
X094598D01*
X094498Y103398D01*
X094598Y103498D01*
X094498D01*
X094398Y103598D01*
X094298Y103498D01*
X094198D01*
X094298Y103398D01*
X094198Y103298D01*
X094298D01*
X094398Y103198D01*
X096698Y105198D02*
X096798Y105398D01*
X096698Y105598D01*
X096898Y105498D01*
X097098Y105598D01*
X096998Y105398D01*
X097098Y105198D01*
X096898Y105298D01*
X096698Y105198D01*
Y105698D02*
X096798Y105898D01*
X096698Y106098D01*
X096898Y105998D01*
X097098Y106098D01*
X096998Y105898D01*
X097098Y105698D01*
X096898Y105798D01*
X096698Y105698D01*
Y106198D02*
X096798Y106398D01*
X096698Y106598D01*
X096898Y106498D01*
X097098Y106598D01*
X096998Y106398D01*
X097098Y106198D01*
X096898Y106298D01*
X096698Y106198D01*
Y106698D02*
X096798Y106898D01*
X096698Y107098D01*
X096898Y106998D01*
X097098Y107098D01*
X096998Y106898D01*
X097098Y106698D01*
X096898Y106798D01*
X096698Y106698D01*
X086855D02*
X086955Y106898D01*
X086855Y107098D01*
X087055Y106998D01*
X087255Y107098D01*
X087155Y106898D01*
X087255Y106698D01*
X087055Y106798D01*
X086855Y106698D01*
Y106198D02*
X086955Y106398D01*
X086855Y106598D01*
X087055Y106498D01*
X087255Y106598D01*
X087155Y106398D01*
X087255Y106198D01*
X087055Y106298D01*
X086855Y106198D01*
Y105698D02*
X086955Y105898D01*
X086855Y106098D01*
X087055Y105998D01*
X087255Y106098D01*
X087155Y105898D01*
X087255Y105698D01*
X087055Y105798D01*
X086855Y105698D01*
Y105198D02*
X086955Y105398D01*
X086855Y105598D01*
X087055Y105498D01*
X087255Y105598D01*
X087155Y105398D01*
X087255Y105198D01*
X087055Y105298D01*
X086855Y105198D01*
X084555Y103198D02*
X084655Y103298D01*
X084755D01*
X084655Y103398D01*
X084755Y103498D01*
X084655D01*
X084555Y103598D01*
X084455Y103498D01*
X084355D01*
X084455Y103398D01*
X084355Y103298D01*
X084455D01*
X084555Y103198D01*
X074713D02*
X074813Y103298D01*
X074913D01*
X074813Y103398D01*
X074913Y103498D01*
X074813D01*
X074713Y103598D01*
X074613Y103498D01*
X074513D01*
X074613Y103398D01*
X074513Y103298D01*
X074613D01*
X074713Y103198D01*
X077013Y105198D02*
X077113Y105398D01*
X077013Y105598D01*
X077213Y105498D01*
X077413Y105598D01*
X077313Y105398D01*
X077413Y105198D01*
X077213Y105298D01*
X077013Y105198D01*
Y105698D02*
X077113Y105898D01*
X077013Y106098D01*
X077213Y105998D01*
X077413Y106098D01*
X077313Y105898D01*
X077413Y105698D01*
X077213Y105798D01*
X077013Y105698D01*
Y106198D02*
X077113Y106398D01*
X077013Y106598D01*
X077213Y106498D01*
X077413Y106598D01*
X077313Y106398D01*
X077413Y106198D01*
X077213Y106298D01*
X077013Y106198D01*
Y106698D02*
X077113Y106898D01*
X077013Y107098D01*
X077213Y106998D01*
X077413Y107098D01*
X077313Y106898D01*
X077413Y106698D01*
X077213Y106798D01*
X077013Y106698D01*
X067170D02*
X067270Y106898D01*
X067170Y107098D01*
X067370Y106998D01*
X067570Y107098D01*
X067470Y106898D01*
X067570Y106698D01*
X067370Y106798D01*
X067170Y106698D01*
Y106198D02*
X067270Y106398D01*
X067170Y106598D01*
X067370Y106498D01*
X067570Y106598D01*
X067470Y106398D01*
X067570Y106198D01*
X067370Y106298D01*
X067170Y106198D01*
Y105698D02*
X067270Y105898D01*
X067170Y106098D01*
X067370Y105998D01*
X067570Y106098D01*
X067470Y105898D01*
X067570Y105698D01*
X067370Y105798D01*
X067170Y105698D01*
Y105198D02*
X067270Y105398D01*
X067170Y105598D01*
X067370Y105498D01*
X067570Y105598D01*
X067470Y105398D01*
X067570Y105198D01*
X067370Y105298D01*
X067170Y105198D01*
X064870Y103198D02*
X064970Y103298D01*
X065070D01*
X064970Y103398D01*
X065070Y103498D01*
X064970D01*
X064870Y103598D01*
X064770Y103498D01*
X064670D01*
X064770Y103398D01*
X064670Y103298D01*
X064770D01*
X064870Y103198D01*
X055028D02*
X055128Y103298D01*
X055228D01*
X055128Y103398D01*
X055228Y103498D01*
X055128D01*
X055028Y103598D01*
X054928Y103498D01*
X054828D01*
X054928Y103398D01*
X054828Y103298D01*
X054928D01*
X055028Y103198D01*
X057328Y105198D02*
X057428Y105398D01*
X057328Y105598D01*
X057528Y105498D01*
X057728Y105598D01*
X057628Y105398D01*
X057728Y105198D01*
X057528Y105298D01*
X057328Y105198D01*
Y105698D02*
X057428Y105898D01*
X057328Y106098D01*
X057528Y105998D01*
X057728Y106098D01*
X057628Y105898D01*
X057728Y105698D01*
X057528Y105798D01*
X057328Y105698D01*
Y106198D02*
X057428Y106398D01*
X057328Y106598D01*
X057528Y106498D01*
X057728Y106598D01*
X057628Y106398D01*
X057728Y106198D01*
X057528Y106298D01*
X057328Y106198D01*
Y106698D02*
X057428Y106898D01*
X057328Y107098D01*
X057528Y106998D01*
X057728Y107098D01*
X057628Y106898D01*
X057728Y106698D01*
X057528Y106798D01*
X057328Y106698D01*
X047485D02*
X047585Y106898D01*
X047485Y107098D01*
X047685Y106998D01*
X047885Y107098D01*
X047785Y106898D01*
X047885Y106698D01*
X047685Y106798D01*
X047485Y106698D01*
Y106198D02*
X047585Y106398D01*
X047485Y106598D01*
X047685Y106498D01*
X047885Y106598D01*
X047785Y106398D01*
X047885Y106198D01*
X047685Y106298D01*
X047485Y106198D01*
Y105698D02*
X047585Y105898D01*
X047485Y106098D01*
X047685Y105998D01*
X047885Y106098D01*
X047785Y105898D01*
X047885Y105698D01*
X047685Y105798D01*
X047485Y105698D01*
Y105198D02*
X047585Y105398D01*
X047485Y105598D01*
X047685Y105498D01*
X047885Y105598D01*
X047785Y105398D01*
X047885Y105198D01*
X047685Y105298D01*
X047485Y105198D01*
X045185Y103198D02*
X045285Y103298D01*
X045385D01*
X045285Y103398D01*
X045385Y103498D01*
X045285D01*
X045185Y103598D01*
X045085Y103498D01*
X044985D01*
X045085Y103398D01*
X044985Y103298D01*
X045085D01*
X045185Y103198D01*
X035343D02*
X035443Y103298D01*
X035543D01*
X035443Y103398D01*
X035543Y103498D01*
X035443D01*
X035343Y103598D01*
X035243Y103498D01*
X035143D01*
X035243Y103398D01*
X035143Y103298D01*
X035243D01*
X035343Y103198D01*
X037643Y105198D02*
X037743Y105398D01*
X037643Y105598D01*
X037843Y105498D01*
X038043Y105598D01*
X037943Y105398D01*
X038043Y105198D01*
X037843Y105298D01*
X037643Y105198D01*
Y105698D02*
X037743Y105898D01*
X037643Y106098D01*
X037843Y105998D01*
X038043Y106098D01*
X037943Y105898D01*
X038043Y105698D01*
X037843Y105798D01*
X037643Y105698D01*
Y106198D02*
X037743Y106398D01*
X037643Y106598D01*
X037843Y106498D01*
X038043Y106598D01*
X037943Y106398D01*
X038043Y106198D01*
X037843Y106298D01*
X037643Y106198D01*
Y106698D02*
X037743Y106898D01*
X037643Y107098D01*
X037843Y106998D01*
X038043Y107098D01*
X037943Y106898D01*
X038043Y106698D01*
X037843Y106798D01*
X037643Y106698D01*
X027800D02*
X027900Y106898D01*
X027800Y107098D01*
X028000Y106998D01*
X028200Y107098D01*
X028100Y106898D01*
X028200Y106698D01*
X028000Y106798D01*
X027800Y106698D01*
Y106198D02*
X027900Y106398D01*
X027800Y106598D01*
X028000Y106498D01*
X028200Y106598D01*
X028100Y106398D01*
X028200Y106198D01*
X028000Y106298D01*
X027800Y106198D01*
Y105698D02*
X027900Y105898D01*
X027800Y106098D01*
X028000Y105998D01*
X028200Y106098D01*
X028100Y105898D01*
X028200Y105698D01*
X028000Y105798D01*
X027800Y105698D01*
Y105198D02*
X027900Y105398D01*
X027800Y105598D01*
X028000Y105498D01*
X028200Y105598D01*
X028100Y105398D01*
X028200Y105198D01*
X028000Y105298D01*
X027800Y105198D01*
X025500Y103198D02*
X025600Y103298D01*
X025700D01*
X025600Y103398D01*
X025700Y103498D01*
X025600D01*
X025500Y103598D01*
X025400Y103498D01*
X025300D01*
X025400Y103398D01*
X025300Y103298D01*
X025400D01*
X025500Y103198D01*
X094398Y093355D02*
X094498Y093455D01*
X094598D01*
X094498Y093555D01*
X094598Y093655D01*
X094498D01*
X094398Y093755D01*
X094298Y093655D01*
X094198D01*
X094298Y093555D01*
X094198Y093455D01*
X094298D01*
X094398Y093355D01*
X096698Y095355D02*
X096798Y095555D01*
X096698Y095755D01*
X096898Y095655D01*
X097098Y095755D01*
X096998Y095555D01*
X097098Y095355D01*
X096898Y095455D01*
X096698Y095355D01*
Y095855D02*
X096798Y096055D01*
X096698Y096255D01*
X096898Y096155D01*
X097098Y096255D01*
X096998Y096055D01*
X097098Y095855D01*
X096898Y095955D01*
X096698Y095855D01*
Y096355D02*
X096798Y096555D01*
X096698Y096755D01*
X096898Y096655D01*
X097098Y096755D01*
X096998Y096555D01*
X097098Y096355D01*
X096898Y096455D01*
X096698Y096355D01*
Y096855D02*
X096798Y097055D01*
X096698Y097255D01*
X096898Y097155D01*
X097098Y097255D01*
X096998Y097055D01*
X097098Y096855D01*
X096898Y096955D01*
X096698Y096855D01*
X086855D02*
X086955Y097055D01*
X086855Y097255D01*
X087055Y097155D01*
X087255Y097255D01*
X087155Y097055D01*
X087255Y096855D01*
X087055Y096955D01*
X086855Y096855D01*
Y096355D02*
X086955Y096555D01*
X086855Y096755D01*
X087055Y096655D01*
X087255Y096755D01*
X087155Y096555D01*
X087255Y096355D01*
X087055Y096455D01*
X086855Y096355D01*
Y095855D02*
X086955Y096055D01*
X086855Y096255D01*
X087055Y096155D01*
X087255Y096255D01*
X087155Y096055D01*
X087255Y095855D01*
X087055Y095955D01*
X086855Y095855D01*
Y095355D02*
X086955Y095555D01*
X086855Y095755D01*
X087055Y095655D01*
X087255Y095755D01*
X087155Y095555D01*
X087255Y095355D01*
X087055Y095455D01*
X086855Y095355D01*
X084555Y093355D02*
X084655Y093455D01*
X084755D01*
X084655Y093555D01*
X084755Y093655D01*
X084655D01*
X084555Y093755D01*
X084455Y093655D01*
X084355D01*
X084455Y093555D01*
X084355Y093455D01*
X084455D01*
X084555Y093355D01*
X074713D02*
X074813Y093455D01*
X074913D01*
X074813Y093555D01*
X074913Y093655D01*
X074813D01*
X074713Y093755D01*
X074613Y093655D01*
X074513D01*
X074613Y093555D01*
X074513Y093455D01*
X074613D01*
X074713Y093355D01*
X077013Y095355D02*
X077113Y095555D01*
X077013Y095755D01*
X077213Y095655D01*
X077413Y095755D01*
X077313Y095555D01*
X077413Y095355D01*
X077213Y095455D01*
X077013Y095355D01*
Y095855D02*
X077113Y096055D01*
X077013Y096255D01*
X077213Y096155D01*
X077413Y096255D01*
X077313Y096055D01*
X077413Y095855D01*
X077213Y095955D01*
X077013Y095855D01*
Y096355D02*
X077113Y096555D01*
X077013Y096755D01*
X077213Y096655D01*
X077413Y096755D01*
X077313Y096555D01*
X077413Y096355D01*
X077213Y096455D01*
X077013Y096355D01*
Y096855D02*
X077113Y097055D01*
X077013Y097255D01*
X077213Y097155D01*
X077413Y097255D01*
X077313Y097055D01*
X077413Y096855D01*
X077213Y096955D01*
X077013Y096855D01*
X067170D02*
X067270Y097055D01*
X067170Y097255D01*
X067370Y097155D01*
X067570Y097255D01*
X067470Y097055D01*
X067570Y096855D01*
X067370Y096955D01*
X067170Y096855D01*
Y096355D02*
X067270Y096555D01*
X067170Y096755D01*
X067370Y096655D01*
X067570Y096755D01*
X067470Y096555D01*
X067570Y096355D01*
X067370Y096455D01*
X067170Y096355D01*
Y095855D02*
X067270Y096055D01*
X067170Y096255D01*
X067370Y096155D01*
X067570Y096255D01*
X067470Y096055D01*
X067570Y095855D01*
X067370Y095955D01*
X067170Y095855D01*
Y095355D02*
X067270Y095555D01*
X067170Y095755D01*
X067370Y095655D01*
X067570Y095755D01*
X067470Y095555D01*
X067570Y095355D01*
X067370Y095455D01*
X067170Y095355D01*
X064870Y093355D02*
X064970Y093455D01*
X065070D01*
X064970Y093555D01*
X065070Y093655D01*
X064970D01*
X064870Y093755D01*
X064770Y093655D01*
X064670D01*
X064770Y093555D01*
X064670Y093455D01*
X064770D01*
X064870Y093355D01*
X055028D02*
X055128Y093455D01*
X055228D01*
X055128Y093555D01*
X055228Y093655D01*
X055128D01*
X055028Y093755D01*
X054928Y093655D01*
X054828D01*
X054928Y093555D01*
X054828Y093455D01*
X054928D01*
X055028Y093355D01*
X057328Y095355D02*
X057428Y095555D01*
X057328Y095755D01*
X057528Y095655D01*
X057728Y095755D01*
X057628Y095555D01*
X057728Y095355D01*
X057528Y095455D01*
X057328Y095355D01*
Y095855D02*
X057428Y096055D01*
X057328Y096255D01*
X057528Y096155D01*
X057728Y096255D01*
X057628Y096055D01*
X057728Y095855D01*
X057528Y095955D01*
X057328Y095855D01*
Y096355D02*
X057428Y096555D01*
X057328Y096755D01*
X057528Y096655D01*
X057728Y096755D01*
X057628Y096555D01*
X057728Y096355D01*
X057528Y096455D01*
X057328Y096355D01*
Y096855D02*
X057428Y097055D01*
X057328Y097255D01*
X057528Y097155D01*
X057728Y097255D01*
X057628Y097055D01*
X057728Y096855D01*
X057528Y096955D01*
X057328Y096855D01*
X047485D02*
X047585Y097055D01*
X047485Y097255D01*
X047685Y097155D01*
X047885Y097255D01*
X047785Y097055D01*
X047885Y096855D01*
X047685Y096955D01*
X047485Y096855D01*
Y096355D02*
X047585Y096555D01*
X047485Y096755D01*
X047685Y096655D01*
X047885Y096755D01*
X047785Y096555D01*
X047885Y096355D01*
X047685Y096455D01*
X047485Y096355D01*
Y095855D02*
X047585Y096055D01*
X047485Y096255D01*
X047685Y096155D01*
X047885Y096255D01*
X047785Y096055D01*
X047885Y095855D01*
X047685Y095955D01*
X047485Y095855D01*
Y095355D02*
X047585Y095555D01*
X047485Y095755D01*
X047685Y095655D01*
X047885Y095755D01*
X047785Y095555D01*
X047885Y095355D01*
X047685Y095455D01*
X047485Y095355D01*
X045185Y093355D02*
X045285Y093455D01*
X045385D01*
X045285Y093555D01*
X045385Y093655D01*
X045285D01*
X045185Y093755D01*
X045085Y093655D01*
X044985D01*
X045085Y093555D01*
X044985Y093455D01*
X045085D01*
X045185Y093355D01*
X035343D02*
X035443Y093455D01*
X035543D01*
X035443Y093555D01*
X035543Y093655D01*
X035443D01*
X035343Y093755D01*
X035243Y093655D01*
X035143D01*
X035243Y093555D01*
X035143Y093455D01*
X035243D01*
X035343Y093355D01*
X037643Y095355D02*
X037743Y095555D01*
X037643Y095755D01*
X037843Y095655D01*
X038043Y095755D01*
X037943Y095555D01*
X038043Y095355D01*
X037843Y095455D01*
X037643Y095355D01*
Y095855D02*
X037743Y096055D01*
X037643Y096255D01*
X037843Y096155D01*
X038043Y096255D01*
X037943Y096055D01*
X038043Y095855D01*
X037843Y095955D01*
X037643Y095855D01*
Y096355D02*
X037743Y096555D01*
X037643Y096755D01*
X037843Y096655D01*
X038043Y096755D01*
X037943Y096555D01*
X038043Y096355D01*
X037843Y096455D01*
X037643Y096355D01*
Y096855D02*
X037743Y097055D01*
X037643Y097255D01*
X037843Y097155D01*
X038043Y097255D01*
X037943Y097055D01*
X038043Y096855D01*
X037843Y096955D01*
X037643Y096855D01*
X027800D02*
X027900Y097055D01*
X027800Y097255D01*
X028000Y097155D01*
X028200Y097255D01*
X028100Y097055D01*
X028200Y096855D01*
X028000Y096955D01*
X027800Y096855D01*
Y096355D02*
X027900Y096555D01*
X027800Y096755D01*
X028000Y096655D01*
X028200Y096755D01*
X028100Y096555D01*
X028200Y096355D01*
X028000Y096455D01*
X027800Y096355D01*
Y095855D02*
X027900Y096055D01*
X027800Y096255D01*
X028000Y096155D01*
X028200Y096255D01*
X028100Y096055D01*
X028200Y095855D01*
X028000Y095955D01*
X027800Y095855D01*
Y095355D02*
X027900Y095555D01*
X027800Y095755D01*
X028000Y095655D01*
X028200Y095755D01*
X028100Y095555D01*
X028200Y095355D01*
X028000Y095455D01*
X027800Y095355D01*
X025500Y093355D02*
X025600Y093455D01*
X025700D01*
X025600Y093555D01*
X025700Y093655D01*
X025600D01*
X025500Y093755D01*
X025400Y093655D01*
X025300D01*
X025400Y093555D01*
X025300Y093455D01*
X025400D01*
X025500Y093355D01*
X094398Y083513D02*
X094498Y083613D01*
X094598D01*
X094498Y083713D01*
X094598Y083813D01*
X094498D01*
X094398Y083913D01*
X094298Y083813D01*
X094198D01*
X094298Y083713D01*
X094198Y083613D01*
X094298D01*
X094398Y083513D01*
X096698Y085513D02*
X096798Y085713D01*
X096698Y085913D01*
X096898Y085813D01*
X097098Y085913D01*
X096998Y085713D01*
X097098Y085513D01*
X096898Y085613D01*
X096698Y085513D01*
Y086013D02*
X096798Y086213D01*
X096698Y086413D01*
X096898Y086313D01*
X097098Y086413D01*
X096998Y086213D01*
X097098Y086013D01*
X096898Y086113D01*
X096698Y086013D01*
Y086513D02*
X096798Y086713D01*
X096698Y086913D01*
X096898Y086813D01*
X097098Y086913D01*
X096998Y086713D01*
X097098Y086513D01*
X096898Y086613D01*
X096698Y086513D01*
Y087013D02*
X096798Y087213D01*
X096698Y087413D01*
X096898Y087313D01*
X097098Y087413D01*
X096998Y087213D01*
X097098Y087013D01*
X096898Y087113D01*
X096698Y087013D01*
X086855D02*
X086955Y087213D01*
X086855Y087413D01*
X087055Y087313D01*
X087255Y087413D01*
X087155Y087213D01*
X087255Y087013D01*
X087055Y087113D01*
X086855Y087013D01*
Y086513D02*
X086955Y086713D01*
X086855Y086913D01*
X087055Y086813D01*
X087255Y086913D01*
X087155Y086713D01*
X087255Y086513D01*
X087055Y086613D01*
X086855Y086513D01*
Y086013D02*
X086955Y086213D01*
X086855Y086413D01*
X087055Y086313D01*
X087255Y086413D01*
X087155Y086213D01*
X087255Y086013D01*
X087055Y086113D01*
X086855Y086013D01*
Y085513D02*
X086955Y085713D01*
X086855Y085913D01*
X087055Y085813D01*
X087255Y085913D01*
X087155Y085713D01*
X087255Y085513D01*
X087055Y085613D01*
X086855Y085513D01*
X084555Y083513D02*
X084655Y083613D01*
X084755D01*
X084655Y083713D01*
X084755Y083813D01*
X084655D01*
X084555Y083913D01*
X084455Y083813D01*
X084355D01*
X084455Y083713D01*
X084355Y083613D01*
X084455D01*
X084555Y083513D01*
X074713D02*
X074813Y083613D01*
X074913D01*
X074813Y083713D01*
X074913Y083813D01*
X074813D01*
X074713Y083913D01*
X074613Y083813D01*
X074513D01*
X074613Y083713D01*
X074513Y083613D01*
X074613D01*
X074713Y083513D01*
X077013Y085513D02*
X077113Y085713D01*
X077013Y085913D01*
X077213Y085813D01*
X077413Y085913D01*
X077313Y085713D01*
X077413Y085513D01*
X077213Y085613D01*
X077013Y085513D01*
Y086013D02*
X077113Y086213D01*
X077013Y086413D01*
X077213Y086313D01*
X077413Y086413D01*
X077313Y086213D01*
X077413Y086013D01*
X077213Y086113D01*
X077013Y086013D01*
Y086513D02*
X077113Y086713D01*
X077013Y086913D01*
X077213Y086813D01*
X077413Y086913D01*
X077313Y086713D01*
X077413Y086513D01*
X077213Y086613D01*
X077013Y086513D01*
Y087013D02*
X077113Y087213D01*
X077013Y087413D01*
X077213Y087313D01*
X077413Y087413D01*
X077313Y087213D01*
X077413Y087013D01*
X077213Y087113D01*
X077013Y087013D01*
X067170D02*
X067270Y087213D01*
X067170Y087413D01*
X067370Y087313D01*
X067570Y087413D01*
X067470Y087213D01*
X067570Y087013D01*
X067370Y087113D01*
X067170Y087013D01*
Y086513D02*
X067270Y086713D01*
X067170Y086913D01*
X067370Y086813D01*
X067570Y086913D01*
X067470Y086713D01*
X067570Y086513D01*
X067370Y086613D01*
X067170Y086513D01*
Y086013D02*
X067270Y086213D01*
X067170Y086413D01*
X067370Y086313D01*
X067570Y086413D01*
X067470Y086213D01*
X067570Y086013D01*
X067370Y086113D01*
X067170Y086013D01*
Y085513D02*
X067270Y085713D01*
X067170Y085913D01*
X067370Y085813D01*
X067570Y085913D01*
X067470Y085713D01*
X067570Y085513D01*
X067370Y085613D01*
X067170Y085513D01*
X064870Y083513D02*
X064970Y083613D01*
X065070D01*
X064970Y083713D01*
X065070Y083813D01*
X064970D01*
X064870Y083913D01*
X064770Y083813D01*
X064670D01*
X064770Y083713D01*
X064670Y083613D01*
X064770D01*
X064870Y083513D01*
X055028D02*
X055128Y083613D01*
X055228D01*
X055128Y083713D01*
X055228Y083813D01*
X055128D01*
X055028Y083913D01*
X054928Y083813D01*
X054828D01*
X054928Y083713D01*
X054828Y083613D01*
X054928D01*
X055028Y083513D01*
X057328Y085513D02*
X057428Y085713D01*
X057328Y085913D01*
X057528Y085813D01*
X057728Y085913D01*
X057628Y085713D01*
X057728Y085513D01*
X057528Y085613D01*
X057328Y085513D01*
Y086013D02*
X057428Y086213D01*
X057328Y086413D01*
X057528Y086313D01*
X057728Y086413D01*
X057628Y086213D01*
X057728Y086013D01*
X057528Y086113D01*
X057328Y086013D01*
Y086513D02*
X057428Y086713D01*
X057328Y086913D01*
X057528Y086813D01*
X057728Y086913D01*
X057628Y086713D01*
X057728Y086513D01*
X057528Y086613D01*
X057328Y086513D01*
Y087013D02*
X057428Y087213D01*
X057328Y087413D01*
X057528Y087313D01*
X057728Y087413D01*
X057628Y087213D01*
X057728Y087013D01*
X057528Y087113D01*
X057328Y087013D01*
X047485D02*
X047585Y087213D01*
X047485Y087413D01*
X047685Y087313D01*
X047885Y087413D01*
X047785Y087213D01*
X047885Y087013D01*
X047685Y087113D01*
X047485Y087013D01*
Y086513D02*
X047585Y086713D01*
X047485Y086913D01*
X047685Y086813D01*
X047885Y086913D01*
X047785Y086713D01*
X047885Y086513D01*
X047685Y086613D01*
X047485Y086513D01*
Y086013D02*
X047585Y086213D01*
X047485Y086413D01*
X047685Y086313D01*
X047885Y086413D01*
X047785Y086213D01*
X047885Y086013D01*
X047685Y086113D01*
X047485Y086013D01*
Y085513D02*
X047585Y085713D01*
X047485Y085913D01*
X047685Y085813D01*
X047885Y085913D01*
X047785Y085713D01*
X047885Y085513D01*
X047685Y085613D01*
X047485Y085513D01*
X045185Y083513D02*
X045285Y083613D01*
X045385D01*
X045285Y083713D01*
X045385Y083813D01*
X045285D01*
X045185Y083913D01*
X045085Y083813D01*
X044985D01*
X045085Y083713D01*
X044985Y083613D01*
X045085D01*
X045185Y083513D01*
X035343D02*
X035443Y083613D01*
X035543D01*
X035443Y083713D01*
X035543Y083813D01*
X035443D01*
X035343Y083913D01*
X035243Y083813D01*
X035143D01*
X035243Y083713D01*
X035143Y083613D01*
X035243D01*
X035343Y083513D01*
X037643Y085513D02*
X037743Y085713D01*
X037643Y085913D01*
X037843Y085813D01*
X038043Y085913D01*
X037943Y085713D01*
X038043Y085513D01*
X037843Y085613D01*
X037643Y085513D01*
Y086013D02*
X037743Y086213D01*
X037643Y086413D01*
X037843Y086313D01*
X038043Y086413D01*
X037943Y086213D01*
X038043Y086013D01*
X037843Y086113D01*
X037643Y086013D01*
Y086513D02*
X037743Y086713D01*
X037643Y086913D01*
X037843Y086813D01*
X038043Y086913D01*
X037943Y086713D01*
X038043Y086513D01*
X037843Y086613D01*
X037643Y086513D01*
Y087013D02*
X037743Y087213D01*
X037643Y087413D01*
X037843Y087313D01*
X038043Y087413D01*
X037943Y087213D01*
X038043Y087013D01*
X037843Y087113D01*
X037643Y087013D01*
X027800D02*
X027900Y087213D01*
X027800Y087413D01*
X028000Y087313D01*
X028200Y087413D01*
X028100Y087213D01*
X028200Y087013D01*
X028000Y087113D01*
X027800Y087013D01*
Y086513D02*
X027900Y086713D01*
X027800Y086913D01*
X028000Y086813D01*
X028200Y086913D01*
X028100Y086713D01*
X028200Y086513D01*
X028000Y086613D01*
X027800Y086513D01*
Y086013D02*
X027900Y086213D01*
X027800Y086413D01*
X028000Y086313D01*
X028200Y086413D01*
X028100Y086213D01*
X028200Y086013D01*
X028000Y086113D01*
X027800Y086013D01*
Y085513D02*
X027900Y085713D01*
X027800Y085913D01*
X028000Y085813D01*
X028200Y085913D01*
X028100Y085713D01*
X028200Y085513D01*
X028000Y085613D01*
X027800Y085513D01*
X025500Y083513D02*
X025600Y083613D01*
X025700D01*
X025600Y083713D01*
X025700Y083813D01*
X025600D01*
X025500Y083913D01*
X025400Y083813D01*
X025300D01*
X025400Y083713D01*
X025300Y083613D01*
X025400D01*
X025500Y083513D01*
X094398Y073670D02*
X094498Y073770D01*
X094598D01*
X094498Y073870D01*
X094598Y073970D01*
X094498D01*
X094398Y074070D01*
X094298Y073970D01*
X094198D01*
X094298Y073870D01*
X094198Y073770D01*
X094298D01*
X094398Y073670D01*
X096698Y075670D02*
X096798Y075870D01*
X096698Y076070D01*
X096898Y075970D01*
X097098Y076070D01*
X096998Y075870D01*
X097098Y075670D01*
X096898Y075770D01*
X096698Y075670D01*
Y076170D02*
X096798Y076370D01*
X096698Y076570D01*
X096898Y076470D01*
X097098Y076570D01*
X096998Y076370D01*
X097098Y076170D01*
X096898Y076270D01*
X096698Y076170D01*
Y076670D02*
X096798Y076870D01*
X096698Y077070D01*
X096898Y076970D01*
X097098Y077070D01*
X096998Y076870D01*
X097098Y076670D01*
X096898Y076770D01*
X096698Y076670D01*
Y077170D02*
X096798Y077370D01*
X096698Y077570D01*
X096898Y077470D01*
X097098Y077570D01*
X096998Y077370D01*
X097098Y077170D01*
X096898Y077270D01*
X096698Y077170D01*
X086855D02*
X086955Y077370D01*
X086855Y077570D01*
X087055Y077470D01*
X087255Y077570D01*
X087155Y077370D01*
X087255Y077170D01*
X087055Y077270D01*
X086855Y077170D01*
Y076670D02*
X086955Y076870D01*
X086855Y077070D01*
X087055Y076970D01*
X087255Y077070D01*
X087155Y076870D01*
X087255Y076670D01*
X087055Y076770D01*
X086855Y076670D01*
Y076170D02*
X086955Y076370D01*
X086855Y076570D01*
X087055Y076470D01*
X087255Y076570D01*
X087155Y076370D01*
X087255Y076170D01*
X087055Y076270D01*
X086855Y076170D01*
Y075670D02*
X086955Y075870D01*
X086855Y076070D01*
X087055Y075970D01*
X087255Y076070D01*
X087155Y075870D01*
X087255Y075670D01*
X087055Y075770D01*
X086855Y075670D01*
X084555Y073670D02*
X084655Y073770D01*
X084755D01*
X084655Y073870D01*
X084755Y073970D01*
X084655D01*
X084555Y074070D01*
X084455Y073970D01*
X084355D01*
X084455Y073870D01*
X084355Y073770D01*
X084455D01*
X084555Y073670D01*
X074713D02*
X074813Y073770D01*
X074913D01*
X074813Y073870D01*
X074913Y073970D01*
X074813D01*
X074713Y074070D01*
X074613Y073970D01*
X074513D01*
X074613Y073870D01*
X074513Y073770D01*
X074613D01*
X074713Y073670D01*
X077013Y075670D02*
X077113Y075870D01*
X077013Y076070D01*
X077213Y075970D01*
X077413Y076070D01*
X077313Y075870D01*
X077413Y075670D01*
X077213Y075770D01*
X077013Y075670D01*
Y076170D02*
X077113Y076370D01*
X077013Y076570D01*
X077213Y076470D01*
X077413Y076570D01*
X077313Y076370D01*
X077413Y076170D01*
X077213Y076270D01*
X077013Y076170D01*
Y076670D02*
X077113Y076870D01*
X077013Y077070D01*
X077213Y076970D01*
X077413Y077070D01*
X077313Y076870D01*
X077413Y076670D01*
X077213Y076770D01*
X077013Y076670D01*
Y077170D02*
X077113Y077370D01*
X077013Y077570D01*
X077213Y077470D01*
X077413Y077570D01*
X077313Y077370D01*
X077413Y077170D01*
X077213Y077270D01*
X077013Y077170D01*
X067170D02*
X067270Y077370D01*
X067170Y077570D01*
X067370Y077470D01*
X067570Y077570D01*
X067470Y077370D01*
X067570Y077170D01*
X067370Y077270D01*
X067170Y077170D01*
Y076670D02*
X067270Y076870D01*
X067170Y077070D01*
X067370Y076970D01*
X067570Y077070D01*
X067470Y076870D01*
X067570Y076670D01*
X067370Y076770D01*
X067170Y076670D01*
Y076170D02*
X067270Y076370D01*
X067170Y076570D01*
X067370Y076470D01*
X067570Y076570D01*
X067470Y076370D01*
X067570Y076170D01*
X067370Y076270D01*
X067170Y076170D01*
Y075670D02*
X067270Y075870D01*
X067170Y076070D01*
X067370Y075970D01*
X067570Y076070D01*
X067470Y075870D01*
X067570Y075670D01*
X067370Y075770D01*
X067170Y075670D01*
X064870Y073670D02*
X064970Y073770D01*
X065070D01*
X064970Y073870D01*
X065070Y073970D01*
X064970D01*
X064870Y074070D01*
X064770Y073970D01*
X064670D01*
X064770Y073870D01*
X064670Y073770D01*
X064770D01*
X064870Y073670D01*
X055028D02*
X055128Y073770D01*
X055228D01*
X055128Y073870D01*
X055228Y073970D01*
X055128D01*
X055028Y074070D01*
X054928Y073970D01*
X054828D01*
X054928Y073870D01*
X054828Y073770D01*
X054928D01*
X055028Y073670D01*
X057328Y075670D02*
X057428Y075870D01*
X057328Y076070D01*
X057528Y075970D01*
X057728Y076070D01*
X057628Y075870D01*
X057728Y075670D01*
X057528Y075770D01*
X057328Y075670D01*
Y076170D02*
X057428Y076370D01*
X057328Y076570D01*
X057528Y076470D01*
X057728Y076570D01*
X057628Y076370D01*
X057728Y076170D01*
X057528Y076270D01*
X057328Y076170D01*
Y076670D02*
X057428Y076870D01*
X057328Y077070D01*
X057528Y076970D01*
X057728Y077070D01*
X057628Y076870D01*
X057728Y076670D01*
X057528Y076770D01*
X057328Y076670D01*
Y077170D02*
X057428Y077370D01*
X057328Y077570D01*
X057528Y077470D01*
X057728Y077570D01*
X057628Y077370D01*
X057728Y077170D01*
X057528Y077270D01*
X057328Y077170D01*
X047485D02*
X047585Y077370D01*
X047485Y077570D01*
X047685Y077470D01*
X047885Y077570D01*
X047785Y077370D01*
X047885Y077170D01*
X047685Y077270D01*
X047485Y077170D01*
Y076670D02*
X047585Y076870D01*
X047485Y077070D01*
X047685Y076970D01*
X047885Y077070D01*
X047785Y076870D01*
X047885Y076670D01*
X047685Y076770D01*
X047485Y076670D01*
Y076170D02*
X047585Y076370D01*
X047485Y076570D01*
X047685Y076470D01*
X047885Y076570D01*
X047785Y076370D01*
X047885Y076170D01*
X047685Y076270D01*
X047485Y076170D01*
Y075670D02*
X047585Y075870D01*
X047485Y076070D01*
X047685Y075970D01*
X047885Y076070D01*
X047785Y075870D01*
X047885Y075670D01*
X047685Y075770D01*
X047485Y075670D01*
X045185Y073670D02*
X045285Y073770D01*
X045385D01*
X045285Y073870D01*
X045385Y073970D01*
X045285D01*
X045185Y074070D01*
X045085Y073970D01*
X044985D01*
X045085Y073870D01*
X044985Y073770D01*
X045085D01*
X045185Y073670D01*
X035343D02*
X035443Y073770D01*
X035543D01*
X035443Y073870D01*
X035543Y073970D01*
X035443D01*
X035343Y074070D01*
X035243Y073970D01*
X035143D01*
X035243Y073870D01*
X035143Y073770D01*
X035243D01*
X035343Y073670D01*
X037643Y075670D02*
X037743Y075870D01*
X037643Y076070D01*
X037843Y075970D01*
X038043Y076070D01*
X037943Y075870D01*
X038043Y075670D01*
X037843Y075770D01*
X037643Y075670D01*
Y076170D02*
X037743Y076370D01*
X037643Y076570D01*
X037843Y076470D01*
X038043Y076570D01*
X037943Y076370D01*
X038043Y076170D01*
X037843Y076270D01*
X037643Y076170D01*
Y076670D02*
X037743Y076870D01*
X037643Y077070D01*
X037843Y076970D01*
X038043Y077070D01*
X037943Y076870D01*
X038043Y076670D01*
X037843Y076770D01*
X037643Y076670D01*
Y077170D02*
X037743Y077370D01*
X037643Y077570D01*
X037843Y077470D01*
X038043Y077570D01*
X037943Y077370D01*
X038043Y077170D01*
X037843Y077270D01*
X037643Y077170D01*
X027800D02*
X027900Y077370D01*
X027800Y077570D01*
X028000Y077470D01*
X028200Y077570D01*
X028100Y077370D01*
X028200Y077170D01*
X028000Y077270D01*
X027800Y077170D01*
Y076670D02*
X027900Y076870D01*
X027800Y077070D01*
X028000Y076970D01*
X028200Y077070D01*
X028100Y076870D01*
X028200Y076670D01*
X028000Y076770D01*
X027800Y076670D01*
Y076170D02*
X027900Y076370D01*
X027800Y076570D01*
X028000Y076470D01*
X028200Y076570D01*
X028100Y076370D01*
X028200Y076170D01*
X028000Y076270D01*
X027800Y076170D01*
Y075670D02*
X027900Y075870D01*
X027800Y076070D01*
X028000Y075970D01*
X028200Y076070D01*
X028100Y075870D01*
X028200Y075670D01*
X028000Y075770D01*
X027800Y075670D01*
X025500Y073670D02*
X025600Y073770D01*
X025700D01*
X025600Y073870D01*
X025700Y073970D01*
X025600D01*
X025500Y074070D01*
X025400Y073970D01*
X025300D01*
X025400Y073870D01*
X025300Y073770D01*
X025400D01*
X025500Y073670D01*
X094398Y063828D02*
X094498Y063928D01*
X094598D01*
X094498Y064028D01*
X094598Y064128D01*
X094498D01*
X094398Y064228D01*
X094298Y064128D01*
X094198D01*
X094298Y064028D01*
X094198Y063928D01*
X094298D01*
X094398Y063828D01*
X096698Y065828D02*
X096798Y066028D01*
X096698Y066228D01*
X096898Y066128D01*
X097098Y066228D01*
X096998Y066028D01*
X097098Y065828D01*
X096898Y065928D01*
X096698Y065828D01*
Y066328D02*
X096798Y066528D01*
X096698Y066728D01*
X096898Y066628D01*
X097098Y066728D01*
X096998Y066528D01*
X097098Y066328D01*
X096898Y066428D01*
X096698Y066328D01*
Y066828D02*
X096798Y067028D01*
X096698Y067228D01*
X096898Y067128D01*
X097098Y067228D01*
X096998Y067028D01*
X097098Y066828D01*
X096898Y066928D01*
X096698Y066828D01*
Y067328D02*
X096798Y067528D01*
X096698Y067728D01*
X096898Y067628D01*
X097098Y067728D01*
X096998Y067528D01*
X097098Y067328D01*
X096898Y067428D01*
X096698Y067328D01*
X086855D02*
X086955Y067528D01*
X086855Y067728D01*
X087055Y067628D01*
X087255Y067728D01*
X087155Y067528D01*
X087255Y067328D01*
X087055Y067428D01*
X086855Y067328D01*
Y066828D02*
X086955Y067028D01*
X086855Y067228D01*
X087055Y067128D01*
X087255Y067228D01*
X087155Y067028D01*
X087255Y066828D01*
X087055Y066928D01*
X086855Y066828D01*
Y066328D02*
X086955Y066528D01*
X086855Y066728D01*
X087055Y066628D01*
X087255Y066728D01*
X087155Y066528D01*
X087255Y066328D01*
X087055Y066428D01*
X086855Y066328D01*
Y065828D02*
X086955Y066028D01*
X086855Y066228D01*
X087055Y066128D01*
X087255Y066228D01*
X087155Y066028D01*
X087255Y065828D01*
X087055Y065928D01*
X086855Y065828D01*
X084555Y063828D02*
X084655Y063928D01*
X084755D01*
X084655Y064028D01*
X084755Y064128D01*
X084655D01*
X084555Y064228D01*
X084455Y064128D01*
X084355D01*
X084455Y064028D01*
X084355Y063928D01*
X084455D01*
X084555Y063828D01*
X074713D02*
X074813Y063928D01*
X074913D01*
X074813Y064028D01*
X074913Y064128D01*
X074813D01*
X074713Y064228D01*
X074613Y064128D01*
X074513D01*
X074613Y064028D01*
X074513Y063928D01*
X074613D01*
X074713Y063828D01*
X077013Y065828D02*
X077113Y066028D01*
X077013Y066228D01*
X077213Y066128D01*
X077413Y066228D01*
X077313Y066028D01*
X077413Y065828D01*
X077213Y065928D01*
X077013Y065828D01*
Y066328D02*
X077113Y066528D01*
X077013Y066728D01*
X077213Y066628D01*
X077413Y066728D01*
X077313Y066528D01*
X077413Y066328D01*
X077213Y066428D01*
X077013Y066328D01*
Y066828D02*
X077113Y067028D01*
X077013Y067228D01*
X077213Y067128D01*
X077413Y067228D01*
X077313Y067028D01*
X077413Y066828D01*
X077213Y066928D01*
X077013Y066828D01*
Y067328D02*
X077113Y067528D01*
X077013Y067728D01*
X077213Y067628D01*
X077413Y067728D01*
X077313Y067528D01*
X077413Y067328D01*
X077213Y067428D01*
X077013Y067328D01*
X067170D02*
X067270Y067528D01*
X067170Y067728D01*
X067370Y067628D01*
X067570Y067728D01*
X067470Y067528D01*
X067570Y067328D01*
X067370Y067428D01*
X067170Y067328D01*
Y066828D02*
X067270Y067028D01*
X067170Y067228D01*
X067370Y067128D01*
X067570Y067228D01*
X067470Y067028D01*
X067570Y066828D01*
X067370Y066928D01*
X067170Y066828D01*
Y066328D02*
X067270Y066528D01*
X067170Y066728D01*
X067370Y066628D01*
X067570Y066728D01*
X067470Y066528D01*
X067570Y066328D01*
X067370Y066428D01*
X067170Y066328D01*
Y065828D02*
X067270Y066028D01*
X067170Y066228D01*
X067370Y066128D01*
X067570Y066228D01*
X067470Y066028D01*
X067570Y065828D01*
X067370Y065928D01*
X067170Y065828D01*
X064870Y063828D02*
X064970Y063928D01*
X065070D01*
X064970Y064028D01*
X065070Y064128D01*
X064970D01*
X064870Y064228D01*
X064770Y064128D01*
X064670D01*
X064770Y064028D01*
X064670Y063928D01*
X064770D01*
X064870Y063828D01*
X055028D02*
X055128Y063928D01*
X055228D01*
X055128Y064028D01*
X055228Y064128D01*
X055128D01*
X055028Y064228D01*
X054928Y064128D01*
X054828D01*
X054928Y064028D01*
X054828Y063928D01*
X054928D01*
X055028Y063828D01*
X057328Y065828D02*
X057428Y066028D01*
X057328Y066228D01*
X057528Y066128D01*
X057728Y066228D01*
X057628Y066028D01*
X057728Y065828D01*
X057528Y065928D01*
X057328Y065828D01*
Y066328D02*
X057428Y066528D01*
X057328Y066728D01*
X057528Y066628D01*
X057728Y066728D01*
X057628Y066528D01*
X057728Y066328D01*
X057528Y066428D01*
X057328Y066328D01*
Y066828D02*
X057428Y067028D01*
X057328Y067228D01*
X057528Y067128D01*
X057728Y067228D01*
X057628Y067028D01*
X057728Y066828D01*
X057528Y066928D01*
X057328Y066828D01*
Y067328D02*
X057428Y067528D01*
X057328Y067728D01*
X057528Y067628D01*
X057728Y067728D01*
X057628Y067528D01*
X057728Y067328D01*
X057528Y067428D01*
X057328Y067328D01*
X047485D02*
X047585Y067528D01*
X047485Y067728D01*
X047685Y067628D01*
X047885Y067728D01*
X047785Y067528D01*
X047885Y067328D01*
X047685Y067428D01*
X047485Y067328D01*
Y066828D02*
X047585Y067028D01*
X047485Y067228D01*
X047685Y067128D01*
X047885Y067228D01*
X047785Y067028D01*
X047885Y066828D01*
X047685Y066928D01*
X047485Y066828D01*
Y066328D02*
X047585Y066528D01*
X047485Y066728D01*
X047685Y066628D01*
X047885Y066728D01*
X047785Y066528D01*
X047885Y066328D01*
X047685Y066428D01*
X047485Y066328D01*
Y065828D02*
X047585Y066028D01*
X047485Y066228D01*
X047685Y066128D01*
X047885Y066228D01*
X047785Y066028D01*
X047885Y065828D01*
X047685Y065928D01*
X047485Y065828D01*
X045185Y063828D02*
X045285Y063928D01*
X045385D01*
X045285Y064028D01*
X045385Y064128D01*
X045285D01*
X045185Y064228D01*
X045085Y064128D01*
X044985D01*
X045085Y064028D01*
X044985Y063928D01*
X045085D01*
X045185Y063828D01*
X035343D02*
X035443Y063928D01*
X035543D01*
X035443Y064028D01*
X035543Y064128D01*
X035443D01*
X035343Y064228D01*
X035243Y064128D01*
X035143D01*
X035243Y064028D01*
X035143Y063928D01*
X035243D01*
X035343Y063828D01*
X037643Y065828D02*
X037743Y066028D01*
X037643Y066228D01*
X037843Y066128D01*
X038043Y066228D01*
X037943Y066028D01*
X038043Y065828D01*
X037843Y065928D01*
X037643Y065828D01*
Y066328D02*
X037743Y066528D01*
X037643Y066728D01*
X037843Y066628D01*
X038043Y066728D01*
X037943Y066528D01*
X038043Y066328D01*
X037843Y066428D01*
X037643Y066328D01*
Y066828D02*
X037743Y067028D01*
X037643Y067228D01*
X037843Y067128D01*
X038043Y067228D01*
X037943Y067028D01*
X038043Y066828D01*
X037843Y066928D01*
X037643Y066828D01*
Y067328D02*
X037743Y067528D01*
X037643Y067728D01*
X037843Y067628D01*
X038043Y067728D01*
X037943Y067528D01*
X038043Y067328D01*
X037843Y067428D01*
X037643Y067328D01*
X027800D02*
X027900Y067528D01*
X027800Y067728D01*
X028000Y067628D01*
X028200Y067728D01*
X028100Y067528D01*
X028200Y067328D01*
X028000Y067428D01*
X027800Y067328D01*
Y066828D02*
X027900Y067028D01*
X027800Y067228D01*
X028000Y067128D01*
X028200Y067228D01*
X028100Y067028D01*
X028200Y066828D01*
X028000Y066928D01*
X027800Y066828D01*
Y066328D02*
X027900Y066528D01*
X027800Y066728D01*
X028000Y066628D01*
X028200Y066728D01*
X028100Y066528D01*
X028200Y066328D01*
X028000Y066428D01*
X027800Y066328D01*
Y065828D02*
X027900Y066028D01*
X027800Y066228D01*
X028000Y066128D01*
X028200Y066228D01*
X028100Y066028D01*
X028200Y065828D01*
X028000Y065928D01*
X027800Y065828D01*
X025500Y063828D02*
X025600Y063928D01*
X025700D01*
X025600Y064028D01*
X025700Y064128D01*
X025600D01*
X025500Y064228D01*
X025400Y064128D01*
X025300D01*
X025400Y064028D01*
X025300Y063928D01*
X025400D01*
X025500Y063828D01*
X094398Y053985D02*
X094498Y054085D01*
X094598D01*
X094498Y054185D01*
X094598Y054285D01*
X094498D01*
X094398Y054385D01*
X094298Y054285D01*
X094198D01*
X094298Y054185D01*
X094198Y054085D01*
X094298D01*
X094398Y053985D01*
X096698Y055985D02*
X096798Y056185D01*
X096698Y056385D01*
X096898Y056285D01*
X097098Y056385D01*
X096998Y056185D01*
X097098Y055985D01*
X096898Y056085D01*
X096698Y055985D01*
Y056485D02*
X096798Y056685D01*
X096698Y056885D01*
X096898Y056785D01*
X097098Y056885D01*
X096998Y056685D01*
X097098Y056485D01*
X096898Y056585D01*
X096698Y056485D01*
Y056985D02*
X096798Y057185D01*
X096698Y057385D01*
X096898Y057285D01*
X097098Y057385D01*
X096998Y057185D01*
X097098Y056985D01*
X096898Y057085D01*
X096698Y056985D01*
Y057485D02*
X096798Y057685D01*
X096698Y057885D01*
X096898Y057785D01*
X097098Y057885D01*
X096998Y057685D01*
X097098Y057485D01*
X096898Y057585D01*
X096698Y057485D01*
X086855D02*
X086955Y057685D01*
X086855Y057885D01*
X087055Y057785D01*
X087255Y057885D01*
X087155Y057685D01*
X087255Y057485D01*
X087055Y057585D01*
X086855Y057485D01*
Y056985D02*
X086955Y057185D01*
X086855Y057385D01*
X087055Y057285D01*
X087255Y057385D01*
X087155Y057185D01*
X087255Y056985D01*
X087055Y057085D01*
X086855Y056985D01*
Y056485D02*
X086955Y056685D01*
X086855Y056885D01*
X087055Y056785D01*
X087255Y056885D01*
X087155Y056685D01*
X087255Y056485D01*
X087055Y056585D01*
X086855Y056485D01*
Y055985D02*
X086955Y056185D01*
X086855Y056385D01*
X087055Y056285D01*
X087255Y056385D01*
X087155Y056185D01*
X087255Y055985D01*
X087055Y056085D01*
X086855Y055985D01*
X084555Y053985D02*
X084655Y054085D01*
X084755D01*
X084655Y054185D01*
X084755Y054285D01*
X084655D01*
X084555Y054385D01*
X084455Y054285D01*
X084355D01*
X084455Y054185D01*
X084355Y054085D01*
X084455D01*
X084555Y053985D01*
X074713D02*
X074813Y054085D01*
X074913D01*
X074813Y054185D01*
X074913Y054285D01*
X074813D01*
X074713Y054385D01*
X074613Y054285D01*
X074513D01*
X074613Y054185D01*
X074513Y054085D01*
X074613D01*
X074713Y053985D01*
X077013Y055985D02*
X077113Y056185D01*
X077013Y056385D01*
X077213Y056285D01*
X077413Y056385D01*
X077313Y056185D01*
X077413Y055985D01*
X077213Y056085D01*
X077013Y055985D01*
Y056485D02*
X077113Y056685D01*
X077013Y056885D01*
X077213Y056785D01*
X077413Y056885D01*
X077313Y056685D01*
X077413Y056485D01*
X077213Y056585D01*
X077013Y056485D01*
Y056985D02*
X077113Y057185D01*
X077013Y057385D01*
X077213Y057285D01*
X077413Y057385D01*
X077313Y057185D01*
X077413Y056985D01*
X077213Y057085D01*
X077013Y056985D01*
Y057485D02*
X077113Y057685D01*
X077013Y057885D01*
X077213Y057785D01*
X077413Y057885D01*
X077313Y057685D01*
X077413Y057485D01*
X077213Y057585D01*
X077013Y057485D01*
X067170D02*
X067270Y057685D01*
X067170Y057885D01*
X067370Y057785D01*
X067570Y057885D01*
X067470Y057685D01*
X067570Y057485D01*
X067370Y057585D01*
X067170Y057485D01*
Y056985D02*
X067270Y057185D01*
X067170Y057385D01*
X067370Y057285D01*
X067570Y057385D01*
X067470Y057185D01*
X067570Y056985D01*
X067370Y057085D01*
X067170Y056985D01*
Y056485D02*
X067270Y056685D01*
X067170Y056885D01*
X067370Y056785D01*
X067570Y056885D01*
X067470Y056685D01*
X067570Y056485D01*
X067370Y056585D01*
X067170Y056485D01*
Y055985D02*
X067270Y056185D01*
X067170Y056385D01*
X067370Y056285D01*
X067570Y056385D01*
X067470Y056185D01*
X067570Y055985D01*
X067370Y056085D01*
X067170Y055985D01*
X064870Y053985D02*
X064970Y054085D01*
X065070D01*
X064970Y054185D01*
X065070Y054285D01*
X064970D01*
X064870Y054385D01*
X064770Y054285D01*
X064670D01*
X064770Y054185D01*
X064670Y054085D01*
X064770D01*
X064870Y053985D01*
X055028D02*
X055128Y054085D01*
X055228D01*
X055128Y054185D01*
X055228Y054285D01*
X055128D01*
X055028Y054385D01*
X054928Y054285D01*
X054828D01*
X054928Y054185D01*
X054828Y054085D01*
X054928D01*
X055028Y053985D01*
X057328Y055985D02*
X057428Y056185D01*
X057328Y056385D01*
X057528Y056285D01*
X057728Y056385D01*
X057628Y056185D01*
X057728Y055985D01*
X057528Y056085D01*
X057328Y055985D01*
Y056485D02*
X057428Y056685D01*
X057328Y056885D01*
X057528Y056785D01*
X057728Y056885D01*
X057628Y056685D01*
X057728Y056485D01*
X057528Y056585D01*
X057328Y056485D01*
Y056985D02*
X057428Y057185D01*
X057328Y057385D01*
X057528Y057285D01*
X057728Y057385D01*
X057628Y057185D01*
X057728Y056985D01*
X057528Y057085D01*
X057328Y056985D01*
Y057485D02*
X057428Y057685D01*
X057328Y057885D01*
X057528Y057785D01*
X057728Y057885D01*
X057628Y057685D01*
X057728Y057485D01*
X057528Y057585D01*
X057328Y057485D01*
X047485D02*
X047585Y057685D01*
X047485Y057885D01*
X047685Y057785D01*
X047885Y057885D01*
X047785Y057685D01*
X047885Y057485D01*
X047685Y057585D01*
X047485Y057485D01*
Y056985D02*
X047585Y057185D01*
X047485Y057385D01*
X047685Y057285D01*
X047885Y057385D01*
X047785Y057185D01*
X047885Y056985D01*
X047685Y057085D01*
X047485Y056985D01*
Y056485D02*
X047585Y056685D01*
X047485Y056885D01*
X047685Y056785D01*
X047885Y056885D01*
X047785Y056685D01*
X047885Y056485D01*
X047685Y056585D01*
X047485Y056485D01*
Y055985D02*
X047585Y056185D01*
X047485Y056385D01*
X047685Y056285D01*
X047885Y056385D01*
X047785Y056185D01*
X047885Y055985D01*
X047685Y056085D01*
X047485Y055985D01*
X045185Y053985D02*
X045285Y054085D01*
X045385D01*
X045285Y054185D01*
X045385Y054285D01*
X045285D01*
X045185Y054385D01*
X045085Y054285D01*
X044985D01*
X045085Y054185D01*
X044985Y054085D01*
X045085D01*
X045185Y053985D01*
X035343D02*
X035443Y054085D01*
X035543D01*
X035443Y054185D01*
X035543Y054285D01*
X035443D01*
X035343Y054385D01*
X035243Y054285D01*
X035143D01*
X035243Y054185D01*
X035143Y054085D01*
X035243D01*
X035343Y053985D01*
X037643Y055985D02*
X037743Y056185D01*
X037643Y056385D01*
X037843Y056285D01*
X038043Y056385D01*
X037943Y056185D01*
X038043Y055985D01*
X037843Y056085D01*
X037643Y055985D01*
Y056485D02*
X037743Y056685D01*
X037643Y056885D01*
X037843Y056785D01*
X038043Y056885D01*
X037943Y056685D01*
X038043Y056485D01*
X037843Y056585D01*
X037643Y056485D01*
Y056985D02*
X037743Y057185D01*
X037643Y057385D01*
X037843Y057285D01*
X038043Y057385D01*
X037943Y057185D01*
X038043Y056985D01*
X037843Y057085D01*
X037643Y056985D01*
Y057485D02*
X037743Y057685D01*
X037643Y057885D01*
X037843Y057785D01*
X038043Y057885D01*
X037943Y057685D01*
X038043Y057485D01*
X037843Y057585D01*
X037643Y057485D01*
X027800D02*
X027900Y057685D01*
X027800Y057885D01*
X028000Y057785D01*
X028200Y057885D01*
X028100Y057685D01*
X028200Y057485D01*
X028000Y057585D01*
X027800Y057485D01*
Y056985D02*
X027900Y057185D01*
X027800Y057385D01*
X028000Y057285D01*
X028200Y057385D01*
X028100Y057185D01*
X028200Y056985D01*
X028000Y057085D01*
X027800Y056985D01*
Y056485D02*
X027900Y056685D01*
X027800Y056885D01*
X028000Y056785D01*
X028200Y056885D01*
X028100Y056685D01*
X028200Y056485D01*
X028000Y056585D01*
X027800Y056485D01*
Y055985D02*
X027900Y056185D01*
X027800Y056385D01*
X028000Y056285D01*
X028200Y056385D01*
X028100Y056185D01*
X028200Y055985D01*
X028000Y056085D01*
X027800Y055985D01*
X025500Y053985D02*
X025600Y054085D01*
X025700D01*
X025600Y054185D01*
X025700Y054285D01*
X025600D01*
X025500Y054385D01*
X025400Y054285D01*
X025300D01*
X025400Y054185D01*
X025300Y054085D01*
X025400D01*
X025500Y053985D01*
X094398Y044143D02*
X094498Y044243D01*
X094598D01*
X094498Y044343D01*
X094598Y044443D01*
X094498D01*
X094398Y044543D01*
X094298Y044443D01*
X094198D01*
X094298Y044343D01*
X094198Y044243D01*
X094298D01*
X094398Y044143D01*
X096698Y046143D02*
X096798Y046343D01*
X096698Y046543D01*
X096898Y046443D01*
X097098Y046543D01*
X096998Y046343D01*
X097098Y046143D01*
X096898Y046243D01*
X096698Y046143D01*
Y046643D02*
X096798Y046843D01*
X096698Y047043D01*
X096898Y046943D01*
X097098Y047043D01*
X096998Y046843D01*
X097098Y046643D01*
X096898Y046743D01*
X096698Y046643D01*
Y047143D02*
X096798Y047343D01*
X096698Y047543D01*
X096898Y047443D01*
X097098Y047543D01*
X096998Y047343D01*
X097098Y047143D01*
X096898Y047243D01*
X096698Y047143D01*
Y047643D02*
X096798Y047843D01*
X096698Y048043D01*
X096898Y047943D01*
X097098Y048043D01*
X096998Y047843D01*
X097098Y047643D01*
X096898Y047743D01*
X096698Y047643D01*
X086855D02*
X086955Y047843D01*
X086855Y048043D01*
X087055Y047943D01*
X087255Y048043D01*
X087155Y047843D01*
X087255Y047643D01*
X087055Y047743D01*
X086855Y047643D01*
Y047143D02*
X086955Y047343D01*
X086855Y047543D01*
X087055Y047443D01*
X087255Y047543D01*
X087155Y047343D01*
X087255Y047143D01*
X087055Y047243D01*
X086855Y047143D01*
Y046643D02*
X086955Y046843D01*
X086855Y047043D01*
X087055Y046943D01*
X087255Y047043D01*
X087155Y046843D01*
X087255Y046643D01*
X087055Y046743D01*
X086855Y046643D01*
Y046143D02*
X086955Y046343D01*
X086855Y046543D01*
X087055Y046443D01*
X087255Y046543D01*
X087155Y046343D01*
X087255Y046143D01*
X087055Y046243D01*
X086855Y046143D01*
X084555Y044143D02*
X084655Y044243D01*
X084755D01*
X084655Y044343D01*
X084755Y044443D01*
X084655D01*
X084555Y044543D01*
X084455Y044443D01*
X084355D01*
X084455Y044343D01*
X084355Y044243D01*
X084455D01*
X084555Y044143D01*
X074713D02*
X074813Y044243D01*
X074913D01*
X074813Y044343D01*
X074913Y044443D01*
X074813D01*
X074713Y044543D01*
X074613Y044443D01*
X074513D01*
X074613Y044343D01*
X074513Y044243D01*
X074613D01*
X074713Y044143D01*
X077013Y046143D02*
X077113Y046343D01*
X077013Y046543D01*
X077213Y046443D01*
X077413Y046543D01*
X077313Y046343D01*
X077413Y046143D01*
X077213Y046243D01*
X077013Y046143D01*
Y046643D02*
X077113Y046843D01*
X077013Y047043D01*
X077213Y046943D01*
X077413Y047043D01*
X077313Y046843D01*
X077413Y046643D01*
X077213Y046743D01*
X077013Y046643D01*
Y047143D02*
X077113Y047343D01*
X077013Y047543D01*
X077213Y047443D01*
X077413Y047543D01*
X077313Y047343D01*
X077413Y047143D01*
X077213Y047243D01*
X077013Y047143D01*
Y047643D02*
X077113Y047843D01*
X077013Y048043D01*
X077213Y047943D01*
X077413Y048043D01*
X077313Y047843D01*
X077413Y047643D01*
X077213Y047743D01*
X077013Y047643D01*
X067170D02*
X067270Y047843D01*
X067170Y048043D01*
X067370Y047943D01*
X067570Y048043D01*
X067470Y047843D01*
X067570Y047643D01*
X067370Y047743D01*
X067170Y047643D01*
Y047143D02*
X067270Y047343D01*
X067170Y047543D01*
X067370Y047443D01*
X067570Y047543D01*
X067470Y047343D01*
X067570Y047143D01*
X067370Y047243D01*
X067170Y047143D01*
Y046643D02*
X067270Y046843D01*
X067170Y047043D01*
X067370Y046943D01*
X067570Y047043D01*
X067470Y046843D01*
X067570Y046643D01*
X067370Y046743D01*
X067170Y046643D01*
Y046143D02*
X067270Y046343D01*
X067170Y046543D01*
X067370Y046443D01*
X067570Y046543D01*
X067470Y046343D01*
X067570Y046143D01*
X067370Y046243D01*
X067170Y046143D01*
X064870Y044143D02*
X064970Y044243D01*
X065070D01*
X064970Y044343D01*
X065070Y044443D01*
X064970D01*
X064870Y044543D01*
X064770Y044443D01*
X064670D01*
X064770Y044343D01*
X064670Y044243D01*
X064770D01*
X064870Y044143D01*
X055028D02*
X055128Y044243D01*
X055228D01*
X055128Y044343D01*
X055228Y044443D01*
X055128D01*
X055028Y044543D01*
X054928Y044443D01*
X054828D01*
X054928Y044343D01*
X054828Y044243D01*
X054928D01*
X055028Y044143D01*
X057328Y046143D02*
X057428Y046343D01*
X057328Y046543D01*
X057528Y046443D01*
X057728Y046543D01*
X057628Y046343D01*
X057728Y046143D01*
X057528Y046243D01*
X057328Y046143D01*
Y046643D02*
X057428Y046843D01*
X057328Y047043D01*
X057528Y046943D01*
X057728Y047043D01*
X057628Y046843D01*
X057728Y046643D01*
X057528Y046743D01*
X057328Y046643D01*
Y047143D02*
X057428Y047343D01*
X057328Y047543D01*
X057528Y047443D01*
X057728Y047543D01*
X057628Y047343D01*
X057728Y047143D01*
X057528Y047243D01*
X057328Y047143D01*
Y047643D02*
X057428Y047843D01*
X057328Y048043D01*
X057528Y047943D01*
X057728Y048043D01*
X057628Y047843D01*
X057728Y047643D01*
X057528Y047743D01*
X057328Y047643D01*
X047485D02*
X047585Y047843D01*
X047485Y048043D01*
X047685Y047943D01*
X047885Y048043D01*
X047785Y047843D01*
X047885Y047643D01*
X047685Y047743D01*
X047485Y047643D01*
Y047143D02*
X047585Y047343D01*
X047485Y047543D01*
X047685Y047443D01*
X047885Y047543D01*
X047785Y047343D01*
X047885Y047143D01*
X047685Y047243D01*
X047485Y047143D01*
Y046643D02*
X047585Y046843D01*
X047485Y047043D01*
X047685Y046943D01*
X047885Y047043D01*
X047785Y046843D01*
X047885Y046643D01*
X047685Y046743D01*
X047485Y046643D01*
Y046143D02*
X047585Y046343D01*
X047485Y046543D01*
X047685Y046443D01*
X047885Y046543D01*
X047785Y046343D01*
X047885Y046143D01*
X047685Y046243D01*
X047485Y046143D01*
X045185Y044143D02*
X045285Y044243D01*
X045385D01*
X045285Y044343D01*
X045385Y044443D01*
X045285D01*
X045185Y044543D01*
X045085Y044443D01*
X044985D01*
X045085Y044343D01*
X044985Y044243D01*
X045085D01*
X045185Y044143D01*
X035343D02*
X035443Y044243D01*
X035543D01*
X035443Y044343D01*
X035543Y044443D01*
X035443D01*
X035343Y044543D01*
X035243Y044443D01*
X035143D01*
X035243Y044343D01*
X035143Y044243D01*
X035243D01*
X035343Y044143D01*
X037643Y046143D02*
X037743Y046343D01*
X037643Y046543D01*
X037843Y046443D01*
X038043Y046543D01*
X037943Y046343D01*
X038043Y046143D01*
X037843Y046243D01*
X037643Y046143D01*
Y046643D02*
X037743Y046843D01*
X037643Y047043D01*
X037843Y046943D01*
X038043Y047043D01*
X037943Y046843D01*
X038043Y046643D01*
X037843Y046743D01*
X037643Y046643D01*
Y047143D02*
X037743Y047343D01*
X037643Y047543D01*
X037843Y047443D01*
X038043Y047543D01*
X037943Y047343D01*
X038043Y047143D01*
X037843Y047243D01*
X037643Y047143D01*
Y047643D02*
X037743Y047843D01*
X037643Y048043D01*
X037843Y047943D01*
X038043Y048043D01*
X037943Y047843D01*
X038043Y047643D01*
X037843Y047743D01*
X037643Y047643D01*
X027800D02*
X027900Y047843D01*
X027800Y048043D01*
X028000Y047943D01*
X028200Y048043D01*
X028100Y047843D01*
X028200Y047643D01*
X028000Y047743D01*
X027800Y047643D01*
Y047143D02*
X027900Y047343D01*
X027800Y047543D01*
X028000Y047443D01*
X028200Y047543D01*
X028100Y047343D01*
X028200Y047143D01*
X028000Y047243D01*
X027800Y047143D01*
Y046643D02*
X027900Y046843D01*
X027800Y047043D01*
X028000Y046943D01*
X028200Y047043D01*
X028100Y046843D01*
X028200Y046643D01*
X028000Y046743D01*
X027800Y046643D01*
Y046143D02*
X027900Y046343D01*
X027800Y046543D01*
X028000Y046443D01*
X028200Y046543D01*
X028100Y046343D01*
X028200Y046143D01*
X028000Y046243D01*
X027800Y046143D01*
X025500Y044143D02*
X025600Y044243D01*
X025700D01*
X025600Y044343D01*
X025700Y044443D01*
X025600D01*
X025500Y044543D01*
X025400Y044443D01*
X025300D01*
X025400Y044343D01*
X025300Y044243D01*
X025400D01*
X025500Y044143D01*
X094398Y034300D02*
X094498Y034400D01*
X094598D01*
X094498Y034500D01*
X094598Y034600D01*
X094498D01*
X094398Y034700D01*
X094298Y034600D01*
X094198D01*
X094298Y034500D01*
X094198Y034400D01*
X094298D01*
X094398Y034300D01*
X096698Y036300D02*
X096798Y036500D01*
X096698Y036700D01*
X096898Y036600D01*
X097098Y036700D01*
X096998Y036500D01*
X097098Y036300D01*
X096898Y036400D01*
X096698Y036300D01*
Y036800D02*
X096798Y037000D01*
X096698Y037200D01*
X096898Y037100D01*
X097098Y037200D01*
X096998Y037000D01*
X097098Y036800D01*
X096898Y036900D01*
X096698Y036800D01*
Y037300D02*
X096798Y037500D01*
X096698Y037700D01*
X096898Y037600D01*
X097098Y037700D01*
X096998Y037500D01*
X097098Y037300D01*
X096898Y037400D01*
X096698Y037300D01*
Y037800D02*
X096798Y038000D01*
X096698Y038200D01*
X096898Y038100D01*
X097098Y038200D01*
X096998Y038000D01*
X097098Y037800D01*
X096898Y037900D01*
X096698Y037800D01*
X086855D02*
X086955Y038000D01*
X086855Y038200D01*
X087055Y038100D01*
X087255Y038200D01*
X087155Y038000D01*
X087255Y037800D01*
X087055Y037900D01*
X086855Y037800D01*
Y037300D02*
X086955Y037500D01*
X086855Y037700D01*
X087055Y037600D01*
X087255Y037700D01*
X087155Y037500D01*
X087255Y037300D01*
X087055Y037400D01*
X086855Y037300D01*
Y036800D02*
X086955Y037000D01*
X086855Y037200D01*
X087055Y037100D01*
X087255Y037200D01*
X087155Y037000D01*
X087255Y036800D01*
X087055Y036900D01*
X086855Y036800D01*
Y036300D02*
X086955Y036500D01*
X086855Y036700D01*
X087055Y036600D01*
X087255Y036700D01*
X087155Y036500D01*
X087255Y036300D01*
X087055Y036400D01*
X086855Y036300D01*
X084555Y034300D02*
X084655Y034400D01*
X084755D01*
X084655Y034500D01*
X084755Y034600D01*
X084655D01*
X084555Y034700D01*
X084455Y034600D01*
X084355D01*
X084455Y034500D01*
X084355Y034400D01*
X084455D01*
X084555Y034300D01*
X074713D02*
X074813Y034400D01*
X074913D01*
X074813Y034500D01*
X074913Y034600D01*
X074813D01*
X074713Y034700D01*
X074613Y034600D01*
X074513D01*
X074613Y034500D01*
X074513Y034400D01*
X074613D01*
X074713Y034300D01*
X077013Y036300D02*
X077113Y036500D01*
X077013Y036700D01*
X077213Y036600D01*
X077413Y036700D01*
X077313Y036500D01*
X077413Y036300D01*
X077213Y036400D01*
X077013Y036300D01*
Y036800D02*
X077113Y037000D01*
X077013Y037200D01*
X077213Y037100D01*
X077413Y037200D01*
X077313Y037000D01*
X077413Y036800D01*
X077213Y036900D01*
X077013Y036800D01*
Y037300D02*
X077113Y037500D01*
X077013Y037700D01*
X077213Y037600D01*
X077413Y037700D01*
X077313Y037500D01*
X077413Y037300D01*
X077213Y037400D01*
X077013Y037300D01*
Y037800D02*
X077113Y038000D01*
X077013Y038200D01*
X077213Y038100D01*
X077413Y038200D01*
X077313Y038000D01*
X077413Y037800D01*
X077213Y037900D01*
X077013Y037800D01*
X067170D02*
X067270Y038000D01*
X067170Y038200D01*
X067370Y038100D01*
X067570Y038200D01*
X067470Y038000D01*
X067570Y037800D01*
X067370Y037900D01*
X067170Y037800D01*
Y037300D02*
X067270Y037500D01*
X067170Y037700D01*
X067370Y037600D01*
X067570Y037700D01*
X067470Y037500D01*
X067570Y037300D01*
X067370Y037400D01*
X067170Y037300D01*
Y036800D02*
X067270Y037000D01*
X067170Y037200D01*
X067370Y037100D01*
X067570Y037200D01*
X067470Y037000D01*
X067570Y036800D01*
X067370Y036900D01*
X067170Y036800D01*
Y036300D02*
X067270Y036500D01*
X067170Y036700D01*
X067370Y036600D01*
X067570Y036700D01*
X067470Y036500D01*
X067570Y036300D01*
X067370Y036400D01*
X067170Y036300D01*
X064870Y034300D02*
X064970Y034400D01*
X065070D01*
X064970Y034500D01*
X065070Y034600D01*
X064970D01*
X064870Y034700D01*
X064770Y034600D01*
X064670D01*
X064770Y034500D01*
X064670Y034400D01*
X064770D01*
X064870Y034300D01*
X055028D02*
X055128Y034400D01*
X055228D01*
X055128Y034500D01*
X055228Y034600D01*
X055128D01*
X055028Y034700D01*
X054928Y034600D01*
X054828D01*
X054928Y034500D01*
X054828Y034400D01*
X054928D01*
X055028Y034300D01*
X057328Y036300D02*
X057428Y036500D01*
X057328Y036700D01*
X057528Y036600D01*
X057728Y036700D01*
X057628Y036500D01*
X057728Y036300D01*
X057528Y036400D01*
X057328Y036300D01*
Y036800D02*
X057428Y037000D01*
X057328Y037200D01*
X057528Y037100D01*
X057728Y037200D01*
X057628Y037000D01*
X057728Y036800D01*
X057528Y036900D01*
X057328Y036800D01*
Y037300D02*
X057428Y037500D01*
X057328Y037700D01*
X057528Y037600D01*
X057728Y037700D01*
X057628Y037500D01*
X057728Y037300D01*
X057528Y037400D01*
X057328Y037300D01*
Y037800D02*
X057428Y038000D01*
X057328Y038200D01*
X057528Y038100D01*
X057728Y038200D01*
X057628Y038000D01*
X057728Y037800D01*
X057528Y037900D01*
X057328Y037800D01*
X047485D02*
X047585Y038000D01*
X047485Y038200D01*
X047685Y038100D01*
X047885Y038200D01*
X047785Y038000D01*
X047885Y037800D01*
X047685Y037900D01*
X047485Y037800D01*
Y037300D02*
X047585Y037500D01*
X047485Y037700D01*
X047685Y037600D01*
X047885Y037700D01*
X047785Y037500D01*
X047885Y037300D01*
X047685Y037400D01*
X047485Y037300D01*
Y036800D02*
X047585Y037000D01*
X047485Y037200D01*
X047685Y037100D01*
X047885Y037200D01*
X047785Y037000D01*
X047885Y036800D01*
X047685Y036900D01*
X047485Y036800D01*
Y036300D02*
X047585Y036500D01*
X047485Y036700D01*
X047685Y036600D01*
X047885Y036700D01*
X047785Y036500D01*
X047885Y036300D01*
X047685Y036400D01*
X047485Y036300D01*
X045185Y034300D02*
X045285Y034400D01*
X045385D01*
X045285Y034500D01*
X045385Y034600D01*
X045285D01*
X045185Y034700D01*
X045085Y034600D01*
X044985D01*
X045085Y034500D01*
X044985Y034400D01*
X045085D01*
X045185Y034300D01*
X035343D02*
X035443Y034400D01*
X035543D01*
X035443Y034500D01*
X035543Y034600D01*
X035443D01*
X035343Y034700D01*
X035243Y034600D01*
X035143D01*
X035243Y034500D01*
X035143Y034400D01*
X035243D01*
X035343Y034300D01*
X037643Y036300D02*
X037743Y036500D01*
X037643Y036700D01*
X037843Y036600D01*
X038043Y036700D01*
X037943Y036500D01*
X038043Y036300D01*
X037843Y036400D01*
X037643Y036300D01*
Y036800D02*
X037743Y037000D01*
X037643Y037200D01*
X037843Y037100D01*
X038043Y037200D01*
X037943Y037000D01*
X038043Y036800D01*
X037843Y036900D01*
X037643Y036800D01*
Y037300D02*
X037743Y037500D01*
X037643Y037700D01*
X037843Y037600D01*
X038043Y037700D01*
X037943Y037500D01*
X038043Y037300D01*
X037843Y037400D01*
X037643Y037300D01*
Y037800D02*
X037743Y038000D01*
X037643Y038200D01*
X037843Y038100D01*
X038043Y038200D01*
X037943Y038000D01*
X038043Y037800D01*
X037843Y037900D01*
X037643Y037800D01*
X027800D02*
X027900Y038000D01*
X027800Y038200D01*
X028000Y038100D01*
X028200Y038200D01*
X028100Y038000D01*
X028200Y037800D01*
X028000Y037900D01*
X027800Y037800D01*
Y037300D02*
X027900Y037500D01*
X027800Y037700D01*
X028000Y037600D01*
X028200Y037700D01*
X028100Y037500D01*
X028200Y037300D01*
X028000Y037400D01*
X027800Y037300D01*
Y036800D02*
X027900Y037000D01*
X027800Y037200D01*
X028000Y037100D01*
X028200Y037200D01*
X028100Y037000D01*
X028200Y036800D01*
X028000Y036900D01*
X027800Y036800D01*
Y036300D02*
X027900Y036500D01*
X027800Y036700D01*
X028000Y036600D01*
X028200Y036700D01*
X028100Y036500D01*
X028200Y036300D01*
X028000Y036400D01*
X027800Y036300D01*
X025500Y034300D02*
X025600Y034400D01*
X025700D01*
X025600Y034500D01*
X025700Y034600D01*
X025600D01*
X025500Y034700D01*
X025400Y034600D01*
X025300D01*
X025400Y034500D01*
X025300Y034400D01*
X025400D01*
X025500Y034300D01*
X032921Y101026D02*
X032721Y101426D01*
X033121D01*
X032921Y101026D01*
X062449D02*
X062249Y101426D01*
X062649D01*
X062449Y101026D01*
X091976D02*
X091776Y101426D01*
X092176D01*
X091976Y101026D01*
X032921Y071499D02*
X032721Y071899D01*
X033121D01*
X032921Y071499D01*
X062449D02*
X062249Y071899D01*
X062649D01*
X062449Y071499D01*
X091976D02*
X091776Y071899D01*
X092176D01*
X091976Y071499D01*
X062449Y041971D02*
X062249Y042371D01*
X062649D01*
X062449Y041971D01*
X091976D02*
X091776Y042371D01*
X092176D01*
X091976Y041971D01*
X032921D02*
X032721Y042371D01*
X033121D01*
X032921Y041971D01*
X028000D02*
X027800Y042371D01*
X028200D01*
X028000Y041971D01*
X087055Y101025D02*
X086855Y101425D01*
X087255D01*
X087055Y101025D01*
X067370D02*
X067170Y101425D01*
X067570D01*
X067370Y101025D01*
X028000Y101026D02*
X027800Y101426D01*
X028200D01*
X028000Y101026D01*
X037843D02*
X037643Y101426D01*
X038043D01*
X037843Y101026D01*
X047685D02*
X047485Y101426D01*
X047885D01*
X047685Y101026D01*
X057528D02*
X057328Y101426D01*
X057728D01*
X057528Y101026D01*
X077213D02*
X077013Y101426D01*
X077413D01*
X077213Y101026D01*
X096898D02*
X096698Y101426D01*
X097098D01*
X096898Y101026D01*
X087055Y081340D02*
X086855Y081740D01*
X087255D01*
X087055Y081340D01*
X067370D02*
X067170Y081740D01*
X067570D01*
X067370Y081340D01*
X028000Y081341D02*
X027800Y081741D01*
X028200D01*
X028000Y081341D01*
X037843D02*
X037643Y081741D01*
X038043D01*
X037843Y081341D01*
X047685D02*
X047485Y081741D01*
X047885D01*
X047685Y081341D01*
X057528D02*
X057328Y081741D01*
X057728D01*
X057528Y081341D01*
X077213D02*
X077013Y081741D01*
X077413D01*
X077213Y081341D01*
X096898D02*
X096698Y081741D01*
X097098D01*
X096898Y081341D01*
X087055Y061655D02*
X086855Y062055D01*
X087255D01*
X087055Y061655D01*
X067370D02*
X067170Y062055D01*
X067570D01*
X067370Y061655D01*
X028000Y061656D02*
X027800Y062056D01*
X028200D01*
X028000Y061656D01*
X037843D02*
X037643Y062056D01*
X038043D01*
X037843Y061656D01*
X047685D02*
X047485Y062056D01*
X047885D01*
X047685Y061656D01*
X057528D02*
X057328Y062056D01*
X057728D01*
X057528Y061656D01*
X077213D02*
X077013Y062056D01*
X077413D01*
X077213Y061656D01*
X096898D02*
X096698Y062056D01*
X097098D01*
X096898Y061656D01*
X087055Y041970D02*
X086855Y042370D01*
X087255D01*
X087055Y041970D01*
X067370D02*
X067170Y042370D01*
X067570D01*
X067370Y041970D01*
X047685D02*
X047485Y042370D01*
X047885D01*
X047685Y041970D01*
X037843Y041971D02*
X037643Y042371D01*
X038043D01*
X037843Y041971D01*
X057528D02*
X057328Y042371D01*
X057728D01*
X057528Y041971D01*
X077213D02*
X077013Y042371D01*
X077413D01*
X077213Y041971D01*
X096898D02*
X096698Y042371D01*
X097098D01*
X096898Y041971D01*
X032921Y105948D02*
X032721Y106348D01*
X033121D01*
X032921Y105948D01*
X052606D02*
X052406Y106348D01*
X052806D01*
X052606Y105948D01*
X072291D02*
X072091Y106348D01*
X072491D01*
X072291Y105948D01*
X091976D02*
X091776Y106348D01*
X092176D01*
X091976Y105948D01*
X032921Y096105D02*
X032721Y096505D01*
X033121D01*
X032921Y096105D01*
X052606D02*
X052406Y096505D01*
X052806D01*
X052606Y096105D01*
X072291D02*
X072091Y096505D01*
X072491D01*
X072291Y096105D01*
X091976D02*
X091776Y096505D01*
X092176D01*
X091976Y096105D01*
X032921Y086263D02*
X032721Y086663D01*
X033121D01*
X032921Y086263D01*
X052606D02*
X052406Y086663D01*
X052806D01*
X052606Y086263D01*
X072291D02*
X072091Y086663D01*
X072491D01*
X072291Y086263D01*
X091976D02*
X091776Y086663D01*
X092176D01*
X091976Y086263D01*
X032921Y076420D02*
X032721Y076820D01*
X033121D01*
X032921Y076420D01*
X052606D02*
X052406Y076820D01*
X052806D01*
X052606Y076420D01*
X072291D02*
X072091Y076820D01*
X072491D01*
X072291Y076420D01*
X091976D02*
X091776Y076820D01*
X092176D01*
X091976Y076420D01*
X032921Y066578D02*
X032721Y066978D01*
X033121D01*
X032921Y066578D01*
X052606D02*
X052406Y066978D01*
X052806D01*
X052606Y066578D01*
X072291D02*
X072091Y066978D01*
X072491D01*
X072291Y066578D01*
X091976D02*
X091776Y066978D01*
X092176D01*
X091976Y066578D01*
X032921Y056735D02*
X032721Y057135D01*
X033121D01*
X032921Y056735D01*
X052606D02*
X052406Y057135D01*
X052806D01*
X052606Y056735D01*
X072291D02*
X072091Y057135D01*
X072491D01*
X072291Y056735D01*
X091976D02*
X091776Y057135D01*
X092176D01*
X091976Y056735D01*
X032921Y046893D02*
X032721Y047293D01*
X033121D01*
X032921Y046893D01*
X052606D02*
X052406Y047293D01*
X052806D01*
X052606Y046893D01*
X072291D02*
X072091Y047293D01*
X072491D01*
X072291Y046893D01*
X091976D02*
X091776Y047293D01*
X092176D01*
X091976Y046893D01*
X052606Y037050D02*
X052406Y037450D01*
X052806D01*
X052606Y037050D01*
X072291D02*
X072091Y037450D01*
X072491D01*
X072291Y037050D01*
X091976D02*
X091776Y037450D01*
X092176D01*
X091976Y037050D01*
X032921D02*
X032721Y037450D01*
X033121D01*
X032921Y037050D01*
X057800Y111850D02*
Y112250D01*
X058200D01*
Y111850D01*
X057800D01*
X058800D02*
Y112250D01*
X059200D01*
Y111850D01*
X058800D01*
X059800D02*
Y112250D01*
X060200D01*
Y111850D01*
X059800D01*
X060800D02*
Y112250D01*
X061200D01*
Y111850D01*
X060800D01*
X061800D02*
Y112250D01*
X062200D01*
Y111850D01*
X061800D01*
X062800D02*
Y112250D01*
X063200D01*
Y111850D01*
X062800D01*
X063800D02*
Y112250D01*
X064200D01*
Y111850D01*
X063800D01*
X064800D02*
Y112250D01*
X065200D01*
Y111850D01*
X064800D01*
X065800D02*
Y112250D01*
X066200D01*
Y111850D01*
X065800D01*
X066800D02*
Y112250D01*
X067200D01*
Y111850D01*
X066800D01*
X057800Y112850D02*
Y113250D01*
X058200D01*
Y112850D01*
X057800D01*
X058800D02*
Y113250D01*
X059200D01*
Y112850D01*
X058800D01*
X059800D02*
Y113250D01*
X060200D01*
Y112850D01*
X059800D01*
X060800D02*
Y113250D01*
X061200D01*
Y112850D01*
X060800D01*
X061800D02*
Y113250D01*
X062200D01*
Y112850D01*
X061800D01*
X062800D02*
Y113250D01*
X063200D01*
Y112850D01*
X062800D01*
X063800D02*
Y113250D01*
X064200D01*
Y112850D01*
X063800D01*
X064800D02*
Y113250D01*
X065200D01*
Y112850D01*
X064800D01*
X065800D02*
Y113250D01*
X066200D01*
Y112850D01*
X065800D01*
X066800D02*
Y113250D01*
X067200D01*
Y112850D01*
X066800D01*
X076900Y110450D02*
Y110350D01*
X077100D01*
Y110450D01*
X077200D01*
Y110650D01*
X077100D01*
Y110750D01*
X076900D01*
Y110650D01*
X076800D01*
Y110450D01*
X076900D01*
Y113450D02*
Y113350D01*
X077100D01*
Y113450D01*
X077200D01*
Y113650D01*
X077100D01*
Y113750D01*
X076900D01*
Y113650D01*
X076800D01*
Y113450D01*
X076900D01*
X074300Y111850D02*
Y112250D01*
X074700D01*
Y111850D01*
X074300D01*
Y112350D02*
Y112750D01*
X074700D01*
Y112350D01*
X074300D01*
Y112850D02*
Y113250D01*
X074700D01*
Y112850D01*
X074300D01*
X104500Y033550D02*
X104600Y033650D01*
X104700D01*
X104600Y033750D01*
X104700Y033850D01*
X104600D01*
X104500Y033950D01*
X104400Y033850D01*
X104300D01*
X104400Y033750D01*
X104300Y033650D01*
X104400D01*
X104500Y033550D01*
Y034550D02*
X104600Y034650D01*
X104700D01*
X104600Y034750D01*
X104700Y034850D01*
X104600D01*
X104500Y034950D01*
X104400Y034850D01*
X104300D01*
X104400Y034750D01*
X104300Y034650D01*
X104400D01*
X104500Y034550D01*
Y035550D02*
X104600Y035650D01*
X104700D01*
X104600Y035750D01*
X104700Y035850D01*
X104600D01*
X104500Y035950D01*
X104400Y035850D01*
X104300D01*
X104400Y035750D01*
X104300Y035650D01*
X104400D01*
X104500Y035550D01*
Y036550D02*
X104600Y036650D01*
X104700D01*
X104600Y036750D01*
X104700Y036850D01*
X104600D01*
X104500Y036950D01*
X104400Y036850D01*
X104300D01*
X104400Y036750D01*
X104300Y036650D01*
X104400D01*
X104500Y036550D01*
Y037550D02*
X104600Y037650D01*
X104700D01*
X104600Y037750D01*
X104700Y037850D01*
X104600D01*
X104500Y037950D01*
X104400Y037850D01*
X104300D01*
X104400Y037750D01*
X104300Y037650D01*
X104400D01*
X104500Y037550D01*
Y038550D02*
X104600Y038650D01*
X104700D01*
X104600Y038750D01*
X104700Y038850D01*
X104600D01*
X104500Y038950D01*
X104400Y038850D01*
X104300D01*
X104400Y038750D01*
X104300Y038650D01*
X104400D01*
X104500Y038550D01*
Y039550D02*
X104600Y039650D01*
X104700D01*
X104600Y039750D01*
X104700Y039850D01*
X104600D01*
X104500Y039950D01*
X104400Y039850D01*
X104300D01*
X104400Y039750D01*
X104300Y039650D01*
X104400D01*
X104500Y039550D01*
Y040550D02*
X104600Y040650D01*
X104700D01*
X104600Y040750D01*
X104700Y040850D01*
X104600D01*
X104500Y040950D01*
X104400Y040850D01*
X104300D01*
X104400Y040750D01*
X104300Y040650D01*
X104400D01*
X104500Y040550D01*
Y041550D02*
X104600Y041650D01*
X104700D01*
X104600Y041750D01*
X104700Y041850D01*
X104600D01*
X104500Y041950D01*
X104400Y041850D01*
X104300D01*
X104400Y041750D01*
X104300Y041650D01*
X104400D01*
X104500Y041550D01*
Y042550D02*
X104600Y042650D01*
X104700D01*
X104600Y042750D01*
X104700Y042850D01*
X104600D01*
X104500Y042950D01*
X104400Y042850D01*
X104300D01*
X104400Y042750D01*
X104300Y042650D01*
X104400D01*
X104500Y042550D01*
Y043550D02*
X104600Y043650D01*
X104700D01*
X104600Y043750D01*
X104700Y043850D01*
X104600D01*
X104500Y043950D01*
X104400Y043850D01*
X104300D01*
X104400Y043750D01*
X104300Y043650D01*
X104400D01*
X104500Y043550D01*
Y044550D02*
X104600Y044650D01*
X104700D01*
X104600Y044750D01*
X104700Y044850D01*
X104600D01*
X104500Y044950D01*
X104400Y044850D01*
X104300D01*
X104400Y044750D01*
X104300Y044650D01*
X104400D01*
X104500Y044550D01*
Y045550D02*
X104600Y045650D01*
X104700D01*
X104600Y045750D01*
X104700Y045850D01*
X104600D01*
X104500Y045950D01*
X104400Y045850D01*
X104300D01*
X104400Y045750D01*
X104300Y045650D01*
X104400D01*
X104500Y045550D01*
Y046550D02*
X104600Y046650D01*
X104700D01*
X104600Y046750D01*
X104700Y046850D01*
X104600D01*
X104500Y046950D01*
X104400Y046850D01*
X104300D01*
X104400Y046750D01*
X104300Y046650D01*
X104400D01*
X104500Y046550D01*
X101500Y033550D02*
X101600Y033650D01*
X101700D01*
X101600Y033750D01*
X101700Y033850D01*
X101600D01*
X101500Y033950D01*
X101400Y033850D01*
X101300D01*
X101400Y033750D01*
X101300Y033650D01*
X101400D01*
X101500Y033550D01*
Y034550D02*
X101600Y034650D01*
X101700D01*
X101600Y034750D01*
X101700Y034850D01*
X101600D01*
X101500Y034950D01*
X101400Y034850D01*
X101300D01*
X101400Y034750D01*
X101300Y034650D01*
X101400D01*
X101500Y034550D01*
Y035550D02*
X101600Y035650D01*
X101700D01*
X101600Y035750D01*
X101700Y035850D01*
X101600D01*
X101500Y035950D01*
X101400Y035850D01*
X101300D01*
X101400Y035750D01*
X101300Y035650D01*
X101400D01*
X101500Y035550D01*
Y036550D02*
X101600Y036650D01*
X101700D01*
X101600Y036750D01*
X101700Y036850D01*
X101600D01*
X101500Y036950D01*
X101400Y036850D01*
X101300D01*
X101400Y036750D01*
X101300Y036650D01*
X101400D01*
X101500Y036550D01*
Y037550D02*
X101600Y037650D01*
X101700D01*
X101600Y037750D01*
X101700Y037850D01*
X101600D01*
X101500Y037950D01*
X101400Y037850D01*
X101300D01*
X101400Y037750D01*
X101300Y037650D01*
X101400D01*
X101500Y037550D01*
Y038550D02*
X101600Y038650D01*
X101700D01*
X101600Y038750D01*
X101700Y038850D01*
X101600D01*
X101500Y038950D01*
X101400Y038850D01*
X101300D01*
X101400Y038750D01*
X101300Y038650D01*
X101400D01*
X101500Y038550D01*
Y039550D02*
X101600Y039650D01*
X101700D01*
X101600Y039750D01*
X101700Y039850D01*
X101600D01*
X101500Y039950D01*
X101400Y039850D01*
X101300D01*
X101400Y039750D01*
X101300Y039650D01*
X101400D01*
X101500Y039550D01*
Y040550D02*
X101600Y040650D01*
X101700D01*
X101600Y040750D01*
X101700Y040850D01*
X101600D01*
X101500Y040950D01*
X101400Y040850D01*
X101300D01*
X101400Y040750D01*
X101300Y040650D01*
X101400D01*
X101500Y040550D01*
Y041550D02*
X101600Y041650D01*
X101700D01*
X101600Y041750D01*
X101700Y041850D01*
X101600D01*
X101500Y041950D01*
X101400Y041850D01*
X101300D01*
X101400Y041750D01*
X101300Y041650D01*
X101400D01*
X101500Y041550D01*
Y042550D02*
X101600Y042650D01*
X101700D01*
X101600Y042750D01*
X101700Y042850D01*
X101600D01*
X101500Y042950D01*
X101400Y042850D01*
X101300D01*
X101400Y042750D01*
X101300Y042650D01*
X101400D01*
X101500Y042550D01*
Y043550D02*
X101600Y043650D01*
X101700D01*
X101600Y043750D01*
X101700Y043850D01*
X101600D01*
X101500Y043950D01*
X101400Y043850D01*
X101300D01*
X101400Y043750D01*
X101300Y043650D01*
X101400D01*
X101500Y043550D01*
Y044550D02*
X101600Y044650D01*
X101700D01*
X101600Y044750D01*
X101700Y044850D01*
X101600D01*
X101500Y044950D01*
X101400Y044850D01*
X101300D01*
X101400Y044750D01*
X101300Y044650D01*
X101400D01*
X101500Y044550D01*
Y045550D02*
X101600Y045650D01*
X101700D01*
X101600Y045750D01*
X101700Y045850D01*
X101600D01*
X101500Y045950D01*
X101400Y045850D01*
X101300D01*
X101400Y045750D01*
X101300Y045650D01*
X101400D01*
X101500Y045550D01*
Y046550D02*
X101600Y046650D01*
X101700D01*
X101600Y046750D01*
X101700Y046850D01*
X101600D01*
X101500Y046950D01*
X101400Y046850D01*
X101300D01*
X101400Y046750D01*
X101300Y046650D01*
X101400D01*
X101500Y046550D01*
X086900Y110450D02*
Y110350D01*
X087100D01*
Y110450D01*
X087200D01*
Y110650D01*
X087100D01*
Y110750D01*
X086900D01*
Y110650D01*
X086800D01*
Y110450D01*
X086900D01*
Y113450D02*
Y113350D01*
X087100D01*
Y113450D01*
X087200D01*
Y113650D01*
X087100D01*
Y113750D01*
X086900D01*
Y113650D01*
X086800D01*
Y113450D01*
X086900D01*
X084300Y111850D02*
Y112250D01*
X084700D01*
Y111850D01*
X084300D01*
Y112350D02*
Y112750D01*
X084700D01*
Y112350D01*
X084300D01*
Y112850D02*
Y113250D01*
X084700D01*
Y112850D01*
X084300D01*
X096900Y110450D02*
Y110350D01*
X097100D01*
Y110450D01*
X097200D01*
Y110650D01*
X097100D01*
Y110750D01*
X096900D01*
Y110650D01*
X096800D01*
Y110450D01*
X096900D01*
Y113450D02*
Y113350D01*
X097100D01*
Y113450D01*
X097200D01*
Y113650D01*
X097100D01*
Y113750D01*
X096900D01*
Y113650D01*
X096800D01*
Y113450D01*
X096900D01*
X094300Y111850D02*
Y112250D01*
X094700D01*
Y111850D01*
X094300D01*
Y112350D02*
Y112750D01*
X094700D01*
Y112350D01*
X094300D01*
Y112850D02*
Y113250D01*
X094700D01*
Y112850D01*
X094300D01*
X101400Y050400D02*
Y050300D01*
X101600D01*
Y050400D01*
X101700D01*
Y050600D01*
X101600D01*
Y050700D01*
X101400D01*
Y050600D01*
X101300D01*
Y050400D01*
X101400D01*
X104400D02*
Y050300D01*
X104600D01*
Y050400D01*
X104700D01*
Y050600D01*
X104600D01*
Y050700D01*
X104400D01*
Y050600D01*
X104300D01*
Y050400D01*
X104400D01*
X104500Y053200D02*
X104600Y053300D01*
X104700D01*
X104600Y053400D01*
X104700Y053500D01*
X104600D01*
X104500Y053600D01*
X104400Y053500D01*
X104300D01*
X104400Y053400D01*
X104300Y053300D01*
X104400D01*
X104500Y053200D01*
Y054200D02*
X104600Y054300D01*
X104700D01*
X104600Y054400D01*
X104700Y054500D01*
X104600D01*
X104500Y054600D01*
X104400Y054500D01*
X104300D01*
X104400Y054400D01*
X104300Y054300D01*
X104400D01*
X104500Y054200D01*
Y055200D02*
X104600Y055300D01*
X104700D01*
X104600Y055400D01*
X104700Y055500D01*
X104600D01*
X104500Y055600D01*
X104400Y055500D01*
X104300D01*
X104400Y055400D01*
X104300Y055300D01*
X104400D01*
X104500Y055200D01*
Y056200D02*
X104600Y056300D01*
X104700D01*
X104600Y056400D01*
X104700Y056500D01*
X104600D01*
X104500Y056600D01*
X104400Y056500D01*
X104300D01*
X104400Y056400D01*
X104300Y056300D01*
X104400D01*
X104500Y056200D01*
Y057200D02*
X104600Y057300D01*
X104700D01*
X104600Y057400D01*
X104700Y057500D01*
X104600D01*
X104500Y057600D01*
X104400Y057500D01*
X104300D01*
X104400Y057400D01*
X104300Y057300D01*
X104400D01*
X104500Y057200D01*
Y058200D02*
X104600Y058300D01*
X104700D01*
X104600Y058400D01*
X104700Y058500D01*
X104600D01*
X104500Y058600D01*
X104400Y058500D01*
X104300D01*
X104400Y058400D01*
X104300Y058300D01*
X104400D01*
X104500Y058200D01*
Y059200D02*
X104600Y059300D01*
X104700D01*
X104600Y059400D01*
X104700Y059500D01*
X104600D01*
X104500Y059600D01*
X104400Y059500D01*
X104300D01*
X104400Y059400D01*
X104300Y059300D01*
X104400D01*
X104500Y059200D01*
Y060200D02*
X104600Y060300D01*
X104700D01*
X104600Y060400D01*
X104700Y060500D01*
X104600D01*
X104500Y060600D01*
X104400Y060500D01*
X104300D01*
X104400Y060400D01*
X104300Y060300D01*
X104400D01*
X104500Y060200D01*
Y061200D02*
X104600Y061300D01*
X104700D01*
X104600Y061400D01*
X104700Y061500D01*
X104600D01*
X104500Y061600D01*
X104400Y061500D01*
X104300D01*
X104400Y061400D01*
X104300Y061300D01*
X104400D01*
X104500Y061200D01*
Y062200D02*
X104600Y062300D01*
X104700D01*
X104600Y062400D01*
X104700Y062500D01*
X104600D01*
X104500Y062600D01*
X104400Y062500D01*
X104300D01*
X104400Y062400D01*
X104300Y062300D01*
X104400D01*
X104500Y062200D01*
Y063200D02*
X104600Y063300D01*
X104700D01*
X104600Y063400D01*
X104700Y063500D01*
X104600D01*
X104500Y063600D01*
X104400Y063500D01*
X104300D01*
X104400Y063400D01*
X104300Y063300D01*
X104400D01*
X104500Y063200D01*
Y064200D02*
X104600Y064300D01*
X104700D01*
X104600Y064400D01*
X104700Y064500D01*
X104600D01*
X104500Y064600D01*
X104400Y064500D01*
X104300D01*
X104400Y064400D01*
X104300Y064300D01*
X104400D01*
X104500Y064200D01*
Y065200D02*
X104600Y065300D01*
X104700D01*
X104600Y065400D01*
X104700Y065500D01*
X104600D01*
X104500Y065600D01*
X104400Y065500D01*
X104300D01*
X104400Y065400D01*
X104300Y065300D01*
X104400D01*
X104500Y065200D01*
Y066200D02*
X104600Y066300D01*
X104700D01*
X104600Y066400D01*
X104700Y066500D01*
X104600D01*
X104500Y066600D01*
X104400Y066500D01*
X104300D01*
X104400Y066400D01*
X104300Y066300D01*
X104400D01*
X104500Y066200D01*
X101500Y053200D02*
X101600Y053300D01*
X101700D01*
X101600Y053400D01*
X101700Y053500D01*
X101600D01*
X101500Y053600D01*
X101400Y053500D01*
X101300D01*
X101400Y053400D01*
X101300Y053300D01*
X101400D01*
X101500Y053200D01*
Y054200D02*
X101600Y054300D01*
X101700D01*
X101600Y054400D01*
X101700Y054500D01*
X101600D01*
X101500Y054600D01*
X101400Y054500D01*
X101300D01*
X101400Y054400D01*
X101300Y054300D01*
X101400D01*
X101500Y054200D01*
Y055200D02*
X101600Y055300D01*
X101700D01*
X101600Y055400D01*
X101700Y055500D01*
X101600D01*
X101500Y055600D01*
X101400Y055500D01*
X101300D01*
X101400Y055400D01*
X101300Y055300D01*
X101400D01*
X101500Y055200D01*
Y056200D02*
X101600Y056300D01*
X101700D01*
X101600Y056400D01*
X101700Y056500D01*
X101600D01*
X101500Y056600D01*
X101400Y056500D01*
X101300D01*
X101400Y056400D01*
X101300Y056300D01*
X101400D01*
X101500Y056200D01*
Y057200D02*
X101600Y057300D01*
X101700D01*
X101600Y057400D01*
X101700Y057500D01*
X101600D01*
X101500Y057600D01*
X101400Y057500D01*
X101300D01*
X101400Y057400D01*
X101300Y057300D01*
X101400D01*
X101500Y057200D01*
Y058200D02*
X101600Y058300D01*
X101700D01*
X101600Y058400D01*
X101700Y058500D01*
X101600D01*
X101500Y058600D01*
X101400Y058500D01*
X101300D01*
X101400Y058400D01*
X101300Y058300D01*
X101400D01*
X101500Y058200D01*
Y059200D02*
X101600Y059300D01*
X101700D01*
X101600Y059400D01*
X101700Y059500D01*
X101600D01*
X101500Y059600D01*
X101400Y059500D01*
X101300D01*
X101400Y059400D01*
X101300Y059300D01*
X101400D01*
X101500Y059200D01*
Y060200D02*
X101600Y060300D01*
X101700D01*
X101600Y060400D01*
X101700Y060500D01*
X101600D01*
X101500Y060600D01*
X101400Y060500D01*
X101300D01*
X101400Y060400D01*
X101300Y060300D01*
X101400D01*
X101500Y060200D01*
Y061200D02*
X101600Y061300D01*
X101700D01*
X101600Y061400D01*
X101700Y061500D01*
X101600D01*
X101500Y061600D01*
X101400Y061500D01*
X101300D01*
X101400Y061400D01*
X101300Y061300D01*
X101400D01*
X101500Y061200D01*
Y062200D02*
X101600Y062300D01*
X101700D01*
X101600Y062400D01*
X101700Y062500D01*
X101600D01*
X101500Y062600D01*
X101400Y062500D01*
X101300D01*
X101400Y062400D01*
X101300Y062300D01*
X101400D01*
X101500Y062200D01*
Y063200D02*
X101600Y063300D01*
X101700D01*
X101600Y063400D01*
X101700Y063500D01*
X101600D01*
X101500Y063600D01*
X101400Y063500D01*
X101300D01*
X101400Y063400D01*
X101300Y063300D01*
X101400D01*
X101500Y063200D01*
Y064200D02*
X101600Y064300D01*
X101700D01*
X101600Y064400D01*
X101700Y064500D01*
X101600D01*
X101500Y064600D01*
X101400Y064500D01*
X101300D01*
X101400Y064400D01*
X101300Y064300D01*
X101400D01*
X101500Y064200D01*
Y065200D02*
X101600Y065300D01*
X101700D01*
X101600Y065400D01*
X101700Y065500D01*
X101600D01*
X101500Y065600D01*
X101400Y065500D01*
X101300D01*
X101400Y065400D01*
X101300Y065300D01*
X101400D01*
X101500Y065200D01*
Y066200D02*
X101600Y066300D01*
X101700D01*
X101600Y066400D01*
X101700Y066500D01*
X101600D01*
X101500Y066600D01*
X101400Y066500D01*
X101300D01*
X101400Y066400D01*
X101300Y066300D01*
X101400D01*
X101500Y066200D01*
X101400Y070050D02*
Y069950D01*
X101600D01*
Y070050D01*
X101700D01*
Y070250D01*
X101600D01*
Y070350D01*
X101400D01*
Y070250D01*
X101300D01*
Y070050D01*
X101400D01*
X104400D02*
Y069950D01*
X104600D01*
Y070050D01*
X104700D01*
Y070250D01*
X104600D01*
Y070350D01*
X104400D01*
Y070250D01*
X104300D01*
Y070050D01*
X104400D01*
X104500Y072900D02*
X104600Y073000D01*
X104700D01*
X104600Y073100D01*
X104700Y073200D01*
X104600D01*
X104500Y073300D01*
X104400Y073200D01*
X104300D01*
X104400Y073100D01*
X104300Y073000D01*
X104400D01*
X104500Y072900D01*
Y073900D02*
X104600Y074000D01*
X104700D01*
X104600Y074100D01*
X104700Y074200D01*
X104600D01*
X104500Y074300D01*
X104400Y074200D01*
X104300D01*
X104400Y074100D01*
X104300Y074000D01*
X104400D01*
X104500Y073900D01*
Y074900D02*
X104600Y075000D01*
X104700D01*
X104600Y075100D01*
X104700Y075200D01*
X104600D01*
X104500Y075300D01*
X104400Y075200D01*
X104300D01*
X104400Y075100D01*
X104300Y075000D01*
X104400D01*
X104500Y074900D01*
Y075900D02*
X104600Y076000D01*
X104700D01*
X104600Y076100D01*
X104700Y076200D01*
X104600D01*
X104500Y076300D01*
X104400Y076200D01*
X104300D01*
X104400Y076100D01*
X104300Y076000D01*
X104400D01*
X104500Y075900D01*
Y076900D02*
X104600Y077000D01*
X104700D01*
X104600Y077100D01*
X104700Y077200D01*
X104600D01*
X104500Y077300D01*
X104400Y077200D01*
X104300D01*
X104400Y077100D01*
X104300Y077000D01*
X104400D01*
X104500Y076900D01*
Y077900D02*
X104600Y078000D01*
X104700D01*
X104600Y078100D01*
X104700Y078200D01*
X104600D01*
X104500Y078300D01*
X104400Y078200D01*
X104300D01*
X104400Y078100D01*
X104300Y078000D01*
X104400D01*
X104500Y077900D01*
Y078900D02*
X104600Y079000D01*
X104700D01*
X104600Y079100D01*
X104700Y079200D01*
X104600D01*
X104500Y079300D01*
X104400Y079200D01*
X104300D01*
X104400Y079100D01*
X104300Y079000D01*
X104400D01*
X104500Y078900D01*
Y079900D02*
X104600Y080000D01*
X104700D01*
X104600Y080100D01*
X104700Y080200D01*
X104600D01*
X104500Y080300D01*
X104400Y080200D01*
X104300D01*
X104400Y080100D01*
X104300Y080000D01*
X104400D01*
X104500Y079900D01*
Y080900D02*
X104600Y081000D01*
X104700D01*
X104600Y081100D01*
X104700Y081200D01*
X104600D01*
X104500Y081300D01*
X104400Y081200D01*
X104300D01*
X104400Y081100D01*
X104300Y081000D01*
X104400D01*
X104500Y080900D01*
Y081900D02*
X104600Y082000D01*
X104700D01*
X104600Y082100D01*
X104700Y082200D01*
X104600D01*
X104500Y082300D01*
X104400Y082200D01*
X104300D01*
X104400Y082100D01*
X104300Y082000D01*
X104400D01*
X104500Y081900D01*
Y082900D02*
X104600Y083000D01*
X104700D01*
X104600Y083100D01*
X104700Y083200D01*
X104600D01*
X104500Y083300D01*
X104400Y083200D01*
X104300D01*
X104400Y083100D01*
X104300Y083000D01*
X104400D01*
X104500Y082900D01*
Y083900D02*
X104600Y084000D01*
X104700D01*
X104600Y084100D01*
X104700Y084200D01*
X104600D01*
X104500Y084300D01*
X104400Y084200D01*
X104300D01*
X104400Y084100D01*
X104300Y084000D01*
X104400D01*
X104500Y083900D01*
Y084900D02*
X104600Y085000D01*
X104700D01*
X104600Y085100D01*
X104700Y085200D01*
X104600D01*
X104500Y085300D01*
X104400Y085200D01*
X104300D01*
X104400Y085100D01*
X104300Y085000D01*
X104400D01*
X104500Y084900D01*
Y085900D02*
X104600Y086000D01*
X104700D01*
X104600Y086100D01*
X104700Y086200D01*
X104600D01*
X104500Y086300D01*
X104400Y086200D01*
X104300D01*
X104400Y086100D01*
X104300Y086000D01*
X104400D01*
X104500Y085900D01*
X101500Y072900D02*
X101600Y073000D01*
X101700D01*
X101600Y073100D01*
X101700Y073200D01*
X101600D01*
X101500Y073300D01*
X101400Y073200D01*
X101300D01*
X101400Y073100D01*
X101300Y073000D01*
X101400D01*
X101500Y072900D01*
Y073900D02*
X101600Y074000D01*
X101700D01*
X101600Y074100D01*
X101700Y074200D01*
X101600D01*
X101500Y074300D01*
X101400Y074200D01*
X101300D01*
X101400Y074100D01*
X101300Y074000D01*
X101400D01*
X101500Y073900D01*
Y074900D02*
X101600Y075000D01*
X101700D01*
X101600Y075100D01*
X101700Y075200D01*
X101600D01*
X101500Y075300D01*
X101400Y075200D01*
X101300D01*
X101400Y075100D01*
X101300Y075000D01*
X101400D01*
X101500Y074900D01*
Y075900D02*
X101600Y076000D01*
X101700D01*
X101600Y076100D01*
X101700Y076200D01*
X101600D01*
X101500Y076300D01*
X101400Y076200D01*
X101300D01*
X101400Y076100D01*
X101300Y076000D01*
X101400D01*
X101500Y075900D01*
Y076900D02*
X101600Y077000D01*
X101700D01*
X101600Y077100D01*
X101700Y077200D01*
X101600D01*
X101500Y077300D01*
X101400Y077200D01*
X101300D01*
X101400Y077100D01*
X101300Y077000D01*
X101400D01*
X101500Y076900D01*
Y077900D02*
X101600Y078000D01*
X101700D01*
X101600Y078100D01*
X101700Y078200D01*
X101600D01*
X101500Y078300D01*
X101400Y078200D01*
X101300D01*
X101400Y078100D01*
X101300Y078000D01*
X101400D01*
X101500Y077900D01*
Y078900D02*
X101600Y079000D01*
X101700D01*
X101600Y079100D01*
X101700Y079200D01*
X101600D01*
X101500Y079300D01*
X101400Y079200D01*
X101300D01*
X101400Y079100D01*
X101300Y079000D01*
X101400D01*
X101500Y078900D01*
Y079900D02*
X101600Y080000D01*
X101700D01*
X101600Y080100D01*
X101700Y080200D01*
X101600D01*
X101500Y080300D01*
X101400Y080200D01*
X101300D01*
X101400Y080100D01*
X101300Y080000D01*
X101400D01*
X101500Y079900D01*
Y080900D02*
X101600Y081000D01*
X101700D01*
X101600Y081100D01*
X101700Y081200D01*
X101600D01*
X101500Y081300D01*
X101400Y081200D01*
X101300D01*
X101400Y081100D01*
X101300Y081000D01*
X101400D01*
X101500Y080900D01*
Y081900D02*
X101600Y082000D01*
X101700D01*
X101600Y082100D01*
X101700Y082200D01*
X101600D01*
X101500Y082300D01*
X101400Y082200D01*
X101300D01*
X101400Y082100D01*
X101300Y082000D01*
X101400D01*
X101500Y081900D01*
Y082900D02*
X101600Y083000D01*
X101700D01*
X101600Y083100D01*
X101700Y083200D01*
X101600D01*
X101500Y083300D01*
X101400Y083200D01*
X101300D01*
X101400Y083100D01*
X101300Y083000D01*
X101400D01*
X101500Y082900D01*
Y083900D02*
X101600Y084000D01*
X101700D01*
X101600Y084100D01*
X101700Y084200D01*
X101600D01*
X101500Y084300D01*
X101400Y084200D01*
X101300D01*
X101400Y084100D01*
X101300Y084000D01*
X101400D01*
X101500Y083900D01*
Y084900D02*
X101600Y085000D01*
X101700D01*
X101600Y085100D01*
X101700Y085200D01*
X101600D01*
X101500Y085300D01*
X101400Y085200D01*
X101300D01*
X101400Y085100D01*
X101300Y085000D01*
X101400D01*
X101500Y084900D01*
Y085900D02*
X101600Y086000D01*
X101700D01*
X101600Y086100D01*
X101700Y086200D01*
X101600D01*
X101500Y086300D01*
X101400Y086200D01*
X101300D01*
X101400Y086100D01*
X101300Y086000D01*
X101400D01*
X101500Y085900D01*
X101400Y089750D02*
Y089650D01*
X101600D01*
Y089750D01*
X101700D01*
Y089950D01*
X101600D01*
Y090050D01*
X101400D01*
Y089950D01*
X101300D01*
Y089750D01*
X101400D01*
X104400D02*
Y089650D01*
X104600D01*
Y089750D01*
X104700D01*
Y089950D01*
X104600D01*
Y090050D01*
X104400D01*
Y089950D01*
X104300D01*
Y089750D01*
X104400D01*
X104500Y092600D02*
X104600Y092700D01*
X104700D01*
X104600Y092800D01*
X104700Y092900D01*
X104600D01*
X104500Y093000D01*
X104400Y092900D01*
X104300D01*
X104400Y092800D01*
X104300Y092700D01*
X104400D01*
X104500Y092600D01*
Y093600D02*
X104600Y093700D01*
X104700D01*
X104600Y093800D01*
X104700Y093900D01*
X104600D01*
X104500Y094000D01*
X104400Y093900D01*
X104300D01*
X104400Y093800D01*
X104300Y093700D01*
X104400D01*
X104500Y093600D01*
Y094600D02*
X104600Y094700D01*
X104700D01*
X104600Y094800D01*
X104700Y094900D01*
X104600D01*
X104500Y095000D01*
X104400Y094900D01*
X104300D01*
X104400Y094800D01*
X104300Y094700D01*
X104400D01*
X104500Y094600D01*
Y095600D02*
X104600Y095700D01*
X104700D01*
X104600Y095800D01*
X104700Y095900D01*
X104600D01*
X104500Y096000D01*
X104400Y095900D01*
X104300D01*
X104400Y095800D01*
X104300Y095700D01*
X104400D01*
X104500Y095600D01*
Y096600D02*
X104600Y096700D01*
X104700D01*
X104600Y096800D01*
X104700Y096900D01*
X104600D01*
X104500Y097000D01*
X104400Y096900D01*
X104300D01*
X104400Y096800D01*
X104300Y096700D01*
X104400D01*
X104500Y096600D01*
Y097600D02*
X104600Y097700D01*
X104700D01*
X104600Y097800D01*
X104700Y097900D01*
X104600D01*
X104500Y098000D01*
X104400Y097900D01*
X104300D01*
X104400Y097800D01*
X104300Y097700D01*
X104400D01*
X104500Y097600D01*
Y098600D02*
X104600Y098700D01*
X104700D01*
X104600Y098800D01*
X104700Y098900D01*
X104600D01*
X104500Y099000D01*
X104400Y098900D01*
X104300D01*
X104400Y098800D01*
X104300Y098700D01*
X104400D01*
X104500Y098600D01*
Y099600D02*
X104600Y099700D01*
X104700D01*
X104600Y099800D01*
X104700Y099900D01*
X104600D01*
X104500Y100000D01*
X104400Y099900D01*
X104300D01*
X104400Y099800D01*
X104300Y099700D01*
X104400D01*
X104500Y099600D01*
Y100600D02*
X104600Y100700D01*
X104700D01*
X104600Y100800D01*
X104700Y100900D01*
X104600D01*
X104500Y101000D01*
X104400Y100900D01*
X104300D01*
X104400Y100800D01*
X104300Y100700D01*
X104400D01*
X104500Y100600D01*
Y101600D02*
X104600Y101700D01*
X104700D01*
X104600Y101800D01*
X104700Y101900D01*
X104600D01*
X104500Y102000D01*
X104400Y101900D01*
X104300D01*
X104400Y101800D01*
X104300Y101700D01*
X104400D01*
X104500Y101600D01*
Y102600D02*
X104600Y102700D01*
X104700D01*
X104600Y102800D01*
X104700Y102900D01*
X104600D01*
X104500Y103000D01*
X104400Y102900D01*
X104300D01*
X104400Y102800D01*
X104300Y102700D01*
X104400D01*
X104500Y102600D01*
Y103600D02*
X104600Y103700D01*
X104700D01*
X104600Y103800D01*
X104700Y103900D01*
X104600D01*
X104500Y104000D01*
X104400Y103900D01*
X104300D01*
X104400Y103800D01*
X104300Y103700D01*
X104400D01*
X104500Y103600D01*
Y104600D02*
X104600Y104700D01*
X104700D01*
X104600Y104800D01*
X104700Y104900D01*
X104600D01*
X104500Y105000D01*
X104400Y104900D01*
X104300D01*
X104400Y104800D01*
X104300Y104700D01*
X104400D01*
X104500Y104600D01*
Y105600D02*
X104600Y105700D01*
X104700D01*
X104600Y105800D01*
X104700Y105900D01*
X104600D01*
X104500Y106000D01*
X104400Y105900D01*
X104300D01*
X104400Y105800D01*
X104300Y105700D01*
X104400D01*
X104500Y105600D01*
X101500Y092600D02*
X101600Y092700D01*
X101700D01*
X101600Y092800D01*
X101700Y092900D01*
X101600D01*
X101500Y093000D01*
X101400Y092900D01*
X101300D01*
X101400Y092800D01*
X101300Y092700D01*
X101400D01*
X101500Y092600D01*
Y093600D02*
X101600Y093700D01*
X101700D01*
X101600Y093800D01*
X101700Y093900D01*
X101600D01*
X101500Y094000D01*
X101400Y093900D01*
X101300D01*
X101400Y093800D01*
X101300Y093700D01*
X101400D01*
X101500Y093600D01*
Y094600D02*
X101600Y094700D01*
X101700D01*
X101600Y094800D01*
X101700Y094900D01*
X101600D01*
X101500Y095000D01*
X101400Y094900D01*
X101300D01*
X101400Y094800D01*
X101300Y094700D01*
X101400D01*
X101500Y094600D01*
Y095600D02*
X101600Y095700D01*
X101700D01*
X101600Y095800D01*
X101700Y095900D01*
X101600D01*
X101500Y096000D01*
X101400Y095900D01*
X101300D01*
X101400Y095800D01*
X101300Y095700D01*
X101400D01*
X101500Y095600D01*
Y096600D02*
X101600Y096700D01*
X101700D01*
X101600Y096800D01*
X101700Y096900D01*
X101600D01*
X101500Y097000D01*
X101400Y096900D01*
X101300D01*
X101400Y096800D01*
X101300Y096700D01*
X101400D01*
X101500Y096600D01*
Y097600D02*
X101600Y097700D01*
X101700D01*
X101600Y097800D01*
X101700Y097900D01*
X101600D01*
X101500Y098000D01*
X101400Y097900D01*
X101300D01*
X101400Y097800D01*
X101300Y097700D01*
X101400D01*
X101500Y097600D01*
Y098600D02*
X101600Y098700D01*
X101700D01*
X101600Y098800D01*
X101700Y098900D01*
X101600D01*
X101500Y099000D01*
X101400Y098900D01*
X101300D01*
X101400Y098800D01*
X101300Y098700D01*
X101400D01*
X101500Y098600D01*
Y099600D02*
X101600Y099700D01*
X101700D01*
X101600Y099800D01*
X101700Y099900D01*
X101600D01*
X101500Y100000D01*
X101400Y099900D01*
X101300D01*
X101400Y099800D01*
X101300Y099700D01*
X101400D01*
X101500Y099600D01*
Y100600D02*
X101600Y100700D01*
X101700D01*
X101600Y100800D01*
X101700Y100900D01*
X101600D01*
X101500Y101000D01*
X101400Y100900D01*
X101300D01*
X101400Y100800D01*
X101300Y100700D01*
X101400D01*
X101500Y100600D01*
Y101600D02*
X101600Y101700D01*
X101700D01*
X101600Y101800D01*
X101700Y101900D01*
X101600D01*
X101500Y102000D01*
X101400Y101900D01*
X101300D01*
X101400Y101800D01*
X101300Y101700D01*
X101400D01*
X101500Y101600D01*
Y102600D02*
X101600Y102700D01*
X101700D01*
X101600Y102800D01*
X101700Y102900D01*
X101600D01*
X101500Y103000D01*
X101400Y102900D01*
X101300D01*
X101400Y102800D01*
X101300Y102700D01*
X101400D01*
X101500Y102600D01*
Y103600D02*
X101600Y103700D01*
X101700D01*
X101600Y103800D01*
X101700Y103900D01*
X101600D01*
X101500Y104000D01*
X101400Y103900D01*
X101300D01*
X101400Y103800D01*
X101300Y103700D01*
X101400D01*
X101500Y103600D01*
Y104600D02*
X101600Y104700D01*
X101700D01*
X101600Y104800D01*
X101700Y104900D01*
X101600D01*
X101500Y105000D01*
X101400Y104900D01*
X101300D01*
X101400Y104800D01*
X101300Y104700D01*
X101400D01*
X101500Y104600D01*
Y105600D02*
X101600Y105700D01*
X101700D01*
X101600Y105800D01*
X101700Y105900D01*
X101600D01*
X101500Y106000D01*
X101400Y105900D01*
X101300D01*
X101400Y105800D01*
X101300Y105700D01*
X101400D01*
X101500Y105600D01*
X101400Y109450D02*
Y109350D01*
X101600D01*
Y109450D01*
X101700D01*
Y109650D01*
X101600D01*
Y109750D01*
X101400D01*
Y109650D01*
X101300D01*
Y109450D01*
X101400D01*
X104400D02*
Y109350D01*
X104600D01*
Y109450D01*
X104700D01*
Y109650D01*
X104600D01*
Y109750D01*
X104400D01*
Y109650D01*
X104300D01*
Y109450D01*
X104400D01*
X021300Y074800D02*
Y075200D01*
X021700D01*
Y074800D01*
X021300D01*
Y073800D02*
Y074200D01*
X021700D01*
Y073800D01*
X021300D01*
Y072800D02*
Y073200D01*
X021700D01*
Y072800D01*
X021300D01*
Y071800D02*
Y072200D01*
X021700D01*
Y071800D01*
X021300D01*
Y070800D02*
Y071200D01*
X021700D01*
Y070800D01*
X021300D01*
Y069800D02*
Y070200D01*
X021700D01*
Y069800D01*
X021300D01*
Y068800D02*
Y069200D01*
X021700D01*
Y068800D01*
X021300D01*
Y067800D02*
Y068200D01*
X021700D01*
Y067800D01*
X021300D01*
X062300Y030400D02*
X062400Y030500D01*
X062500D01*
X062400Y030600D01*
X062500Y030700D01*
X062400D01*
X062300Y030800D01*
X062200Y030700D01*
X062100D01*
X062200Y030600D01*
X062100Y030500D01*
X062200D01*
X062300Y030400D01*
X061300D02*
X061400Y030500D01*
X061500D01*
X061400Y030600D01*
X061500Y030700D01*
X061400D01*
X061300Y030800D01*
X061200Y030700D01*
X061100D01*
X061200Y030600D01*
X061100Y030500D01*
X061200D01*
X061300Y030400D01*
X060300D02*
X060400Y030500D01*
X060500D01*
X060400Y030600D01*
X060500Y030700D01*
X060400D01*
X060300Y030800D01*
X060200Y030700D01*
X060100D01*
X060200Y030600D01*
X060100Y030500D01*
X060200D01*
X060300Y030400D01*
X059300D02*
X059400Y030500D01*
X059500D01*
X059400Y030600D01*
X059500Y030700D01*
X059400D01*
X059300Y030800D01*
X059200Y030700D01*
X059100D01*
X059200Y030600D01*
X059100Y030500D01*
X059200D01*
X059300Y030400D01*
X058300D02*
X058400Y030500D01*
X058500D01*
X058400Y030600D01*
X058500Y030700D01*
X058400D01*
X058300Y030800D01*
X058200Y030700D01*
X058100D01*
X058200Y030600D01*
X058100Y030500D01*
X058200D01*
X058300Y030400D01*
X057300D02*
X057400Y030500D01*
X057500D01*
X057400Y030600D01*
X057500Y030700D01*
X057400D01*
X057300Y030800D01*
X057200Y030700D01*
X057100D01*
X057200Y030600D01*
X057100Y030500D01*
X057200D01*
X057300Y030400D01*
X056300D02*
X056400Y030500D01*
X056500D01*
X056400Y030600D01*
X056500Y030700D01*
X056400D01*
X056300Y030800D01*
X056200Y030700D01*
X056100D01*
X056200Y030600D01*
X056100Y030500D01*
X056200D01*
X056300Y030400D01*
X055300D02*
X055400Y030500D01*
X055500D01*
X055400Y030600D01*
X055500Y030700D01*
X055400D01*
X055300Y030800D01*
X055200Y030700D01*
X055100D01*
X055200Y030600D01*
X055100Y030500D01*
X055200D01*
X055300Y030400D01*
X054300D02*
X054400Y030500D01*
X054500D01*
X054400Y030600D01*
X054500Y030700D01*
X054400D01*
X054300Y030800D01*
X054200Y030700D01*
X054100D01*
X054200Y030600D01*
X054100Y030500D01*
X054200D01*
X054300Y030400D01*
X101300Y108350D02*
X101400D01*
X101500Y108450D01*
X101600Y108350D01*
X101700D01*
Y108450D01*
X101600Y108550D01*
X101700Y108650D01*
Y108750D01*
X101600D01*
X101500Y108650D01*
X101400Y108750D01*
X101300D01*
Y108650D01*
X101400Y108550D01*
X101300Y108450D01*
Y108350D01*
Y107350D02*
X101400D01*
X101500Y107450D01*
X101600Y107350D01*
X101700D01*
Y107450D01*
X101600Y107550D01*
X101700Y107650D01*
Y107750D01*
X101600D01*
X101500Y107650D01*
X101400Y107750D01*
X101300D01*
Y107650D01*
X101400Y107550D01*
X101300Y107450D01*
Y107350D01*
X106050Y093400D02*
Y093300D01*
X106250D01*
Y093400D01*
X106350D01*
Y093600D01*
X106250D01*
Y093700D01*
X106050D01*
Y093600D01*
X105950D01*
Y093400D01*
X106050D01*
Y096400D02*
Y096300D01*
X106250D01*
Y096400D01*
X106350D01*
Y096600D01*
X106250D01*
Y096700D01*
X106050D01*
Y096600D01*
X105950D01*
Y096400D01*
X106050D01*
X101300Y088650D02*
X101400D01*
X101500Y088750D01*
X101600Y088650D01*
X101700D01*
Y088750D01*
X101600Y088850D01*
X101700Y088950D01*
Y089050D01*
X101600D01*
X101500Y088950D01*
X101400Y089050D01*
X101300D01*
Y088950D01*
X101400Y088850D01*
X101300Y088750D01*
Y088650D01*
Y087650D02*
X101400D01*
X101500Y087750D01*
X101600Y087650D01*
X101700D01*
Y087750D01*
X101600Y087850D01*
X101700Y087950D01*
Y088050D01*
X101600D01*
X101500Y087950D01*
X101400Y088050D01*
X101300D01*
Y087950D01*
X101400Y087850D01*
X101300Y087750D01*
Y087650D01*
Y068950D02*
X101400D01*
X101500Y069050D01*
X101600Y068950D01*
X101700D01*
Y069050D01*
X101600Y069150D01*
X101700Y069250D01*
Y069350D01*
X101600D01*
X101500Y069250D01*
X101400Y069350D01*
X101300D01*
Y069250D01*
X101400Y069150D01*
X101300Y069050D01*
Y068950D01*
Y067950D02*
X101400D01*
X101500Y068050D01*
X101600Y067950D01*
X101700D01*
Y068050D01*
X101600Y068150D01*
X101700Y068250D01*
Y068350D01*
X101600D01*
X101500Y068250D01*
X101400Y068350D01*
X101300D01*
Y068250D01*
X101400Y068150D01*
X101300Y068050D01*
Y067950D01*
Y049300D02*
X101400D01*
X101500Y049400D01*
X101600Y049300D01*
X101700D01*
Y049400D01*
X101600Y049500D01*
X101700Y049600D01*
Y049700D01*
X101600D01*
X101500Y049600D01*
X101400Y049700D01*
X101300D01*
Y049600D01*
X101400Y049500D01*
X101300Y049400D01*
Y049300D01*
Y048300D02*
X101400D01*
X101500Y048400D01*
X101600Y048300D01*
X101700D01*
Y048400D01*
X101600Y048500D01*
X101700Y048600D01*
Y048700D01*
X101600D01*
X101500Y048600D01*
X101400Y048700D01*
X101300D01*
Y048600D01*
X101400Y048500D01*
X101300Y048400D01*
Y048300D01*
X051030Y037000D02*
X051230Y037200D01*
X051430Y037000D01*
X051230Y036800D01*
X051030Y037000D01*
X102800Y111850D02*
Y112250D01*
X103200D01*
Y111850D01*
X102800D01*
X102880Y111930D02*
Y112170D01*
X103120D01*
Y111930D01*
X102880D01*
X090400Y034602D02*
X090600Y034802D01*
X090800Y034602D01*
X090600Y034402D01*
X090400Y034602D01*
Y037000D02*
X090600Y037200D01*
X090800Y037000D01*
X090600Y036800D01*
X090400Y037000D01*
X080557Y034602D02*
X080757Y034802D01*
X080957Y034602D01*
X080757Y034402D01*
X080557Y034602D01*
Y037000D02*
X080757Y037200D01*
X080957Y037000D01*
X080757Y036800D01*
X080557Y037000D01*
X070715Y034602D02*
X070915Y034802D01*
X071115Y034602D01*
X070915Y034402D01*
X070715Y034602D01*
Y037000D02*
X070915Y037200D01*
X071115Y037000D01*
X070915Y036800D01*
X070715Y037000D01*
X060872Y034602D02*
X061072Y034802D01*
X061272Y034602D01*
X061072Y034402D01*
X060872Y034602D01*
X051030D02*
X051230Y034802D01*
X051430Y034602D01*
X051230Y034402D01*
X051030Y034602D01*
X041187D02*
X041387Y034802D01*
X041587Y034602D01*
X041387Y034402D01*
X041187Y034602D01*
Y037000D02*
X041387Y037200D01*
X041587Y037000D01*
X041387Y036800D01*
X041187Y037000D01*
X031345Y034602D02*
X031545Y034802D01*
X031745Y034602D01*
X031545Y034402D01*
X031345Y034602D01*
Y037000D02*
X031545Y037200D01*
X031745Y037000D01*
X031545Y036800D01*
X031345Y037000D01*
Y044445D02*
X031545Y044645D01*
X031745Y044445D01*
X031545Y044245D01*
X031345Y044445D01*
Y046843D02*
X031545Y047043D01*
X031745Y046843D01*
X031545Y046643D01*
X031345Y046843D01*
X041187Y044445D02*
X041387Y044645D01*
X041587Y044445D01*
X041387Y044245D01*
X041187Y044445D01*
Y046843D02*
X041387Y047043D01*
X041587Y046843D01*
X041387Y046643D01*
X041187Y046843D01*
X051030Y044445D02*
X051230Y044645D01*
X051430Y044445D01*
X051230Y044245D01*
X051030Y044445D01*
Y046843D02*
X051230Y047043D01*
X051430Y046843D01*
X051230Y046643D01*
X051030Y046843D01*
X060872Y044445D02*
X061072Y044645D01*
X061272Y044445D01*
X061072Y044245D01*
X060872Y044445D01*
Y046843D02*
X061072Y047043D01*
X061272Y046843D01*
X061072Y046643D01*
X060872Y046843D01*
X070715D02*
X070915Y047043D01*
X071115Y046843D01*
X070915Y046643D01*
X070715Y046843D01*
Y044445D02*
X070915Y044645D01*
X071115Y044445D01*
X070915Y044245D01*
X070715Y044445D01*
X080557Y046843D02*
X080757Y047043D01*
X080957Y046843D01*
X080757Y046643D01*
X080557Y046843D01*
Y044445D02*
X080757Y044645D01*
X080957Y044445D01*
X080757Y044245D01*
X080557Y044445D01*
X090400Y046843D02*
X090600Y047043D01*
X090800Y046843D01*
X090600Y046643D01*
X090400Y046843D01*
Y044445D02*
X090600Y044645D01*
X090800Y044445D01*
X090600Y044245D01*
X090400Y044445D01*
Y056685D02*
X090600Y056885D01*
X090800Y056685D01*
X090600Y056485D01*
X090400Y056685D01*
Y054287D02*
X090600Y054487D01*
X090800Y054287D01*
X090600Y054087D01*
X090400Y054287D01*
X080557Y056685D02*
X080757Y056885D01*
X080957Y056685D01*
X080757Y056485D01*
X080557Y056685D01*
Y054287D02*
X080757Y054487D01*
X080957Y054287D01*
X080757Y054087D01*
X080557Y054287D01*
X070715Y056685D02*
X070915Y056885D01*
X071115Y056685D01*
X070915Y056485D01*
X070715Y056685D01*
Y054287D02*
X070915Y054487D01*
X071115Y054287D01*
X070915Y054087D01*
X070715Y054287D01*
X060872Y056685D02*
X061072Y056885D01*
X061272Y056685D01*
X061072Y056485D01*
X060872Y056685D01*
Y054287D02*
X061072Y054487D01*
X061272Y054287D01*
X061072Y054087D01*
X060872Y054287D01*
X051030Y056685D02*
X051230Y056885D01*
X051430Y056685D01*
X051230Y056485D01*
X051030Y056685D01*
Y054287D02*
X051230Y054487D01*
X051430Y054287D01*
X051230Y054087D01*
X051030Y054287D01*
X041187Y056685D02*
X041387Y056885D01*
X041587Y056685D01*
X041387Y056485D01*
X041187Y056685D01*
Y054287D02*
X041387Y054487D01*
X041587Y054287D01*
X041387Y054087D01*
X041187Y054287D01*
X031345Y056685D02*
X031545Y056885D01*
X031745Y056685D01*
X031545Y056485D01*
X031345Y056685D01*
Y054287D02*
X031545Y054487D01*
X031745Y054287D01*
X031545Y054087D01*
X031345Y054287D01*
Y066528D02*
X031545Y066728D01*
X031745Y066528D01*
X031545Y066328D01*
X031345Y066528D01*
Y064130D02*
X031545Y064330D01*
X031745Y064130D01*
X031545Y063930D01*
X031345Y064130D01*
X041187Y066528D02*
X041387Y066728D01*
X041587Y066528D01*
X041387Y066328D01*
X041187Y066528D01*
Y064130D02*
X041387Y064330D01*
X041587Y064130D01*
X041387Y063930D01*
X041187Y064130D01*
X051030Y066528D02*
X051230Y066728D01*
X051430Y066528D01*
X051230Y066328D01*
X051030Y066528D01*
Y064130D02*
X051230Y064330D01*
X051430Y064130D01*
X051230Y063930D01*
X051030Y064130D01*
X060872Y066528D02*
X061072Y066728D01*
X061272Y066528D01*
X061072Y066328D01*
X060872Y066528D01*
Y064130D02*
X061072Y064330D01*
X061272Y064130D01*
X061072Y063930D01*
X060872Y064130D01*
X070715Y066528D02*
X070915Y066728D01*
X071115Y066528D01*
X070915Y066328D01*
X070715Y066528D01*
Y064130D02*
X070915Y064330D01*
X071115Y064130D01*
X070915Y063930D01*
X070715Y064130D01*
X080557Y066528D02*
X080757Y066728D01*
X080957Y066528D01*
X080757Y066328D01*
X080557Y066528D01*
Y064130D02*
X080757Y064330D01*
X080957Y064130D01*
X080757Y063930D01*
X080557Y064130D01*
X090400Y066528D02*
X090600Y066728D01*
X090800Y066528D01*
X090600Y066328D01*
X090400Y066528D01*
Y064130D02*
X090600Y064330D01*
X090800Y064130D01*
X090600Y063930D01*
X090400Y064130D01*
Y076370D02*
X090600Y076570D01*
X090800Y076370D01*
X090600Y076170D01*
X090400Y076370D01*
Y073972D02*
X090600Y074172D01*
X090800Y073972D01*
X090600Y073772D01*
X090400Y073972D01*
X080557Y076370D02*
X080757Y076570D01*
X080957Y076370D01*
X080757Y076170D01*
X080557Y076370D01*
Y073972D02*
X080757Y074172D01*
X080957Y073972D01*
X080757Y073772D01*
X080557Y073972D01*
X070715Y076370D02*
X070915Y076570D01*
X071115Y076370D01*
X070915Y076170D01*
X070715Y076370D01*
Y073972D02*
X070915Y074172D01*
X071115Y073972D01*
X070915Y073772D01*
X070715Y073972D01*
X060872Y076370D02*
X061072Y076570D01*
X061272Y076370D01*
X061072Y076170D01*
X060872Y076370D01*
Y073972D02*
X061072Y074172D01*
X061272Y073972D01*
X061072Y073772D01*
X060872Y073972D01*
X051030Y076370D02*
X051230Y076570D01*
X051430Y076370D01*
X051230Y076170D01*
X051030Y076370D01*
Y073972D02*
X051230Y074172D01*
X051430Y073972D01*
X051230Y073772D01*
X051030Y073972D01*
X041187Y076370D02*
X041387Y076570D01*
X041587Y076370D01*
X041387Y076170D01*
X041187Y076370D01*
Y073972D02*
X041387Y074172D01*
X041587Y073972D01*
X041387Y073772D01*
X041187Y073972D01*
X031345Y076370D02*
X031545Y076570D01*
X031745Y076370D01*
X031545Y076170D01*
X031345Y076370D01*
Y073972D02*
X031545Y074172D01*
X031745Y073972D01*
X031545Y073772D01*
X031345Y073972D01*
Y086213D02*
X031545Y086413D01*
X031745Y086213D01*
X031545Y086013D01*
X031345Y086213D01*
Y083815D02*
X031545Y084015D01*
X031745Y083815D01*
X031545Y083615D01*
X031345Y083815D01*
X041187Y086213D02*
X041387Y086413D01*
X041587Y086213D01*
X041387Y086013D01*
X041187Y086213D01*
Y083815D02*
X041387Y084015D01*
X041587Y083815D01*
X041387Y083615D01*
X041187Y083815D01*
X051030Y086213D02*
X051230Y086413D01*
X051430Y086213D01*
X051230Y086013D01*
X051030Y086213D01*
Y083815D02*
X051230Y084015D01*
X051430Y083815D01*
X051230Y083615D01*
X051030Y083815D01*
X060872Y086213D02*
X061072Y086413D01*
X061272Y086213D01*
X061072Y086013D01*
X060872Y086213D01*
Y083815D02*
X061072Y084015D01*
X061272Y083815D01*
X061072Y083615D01*
X060872Y083815D01*
X070715Y086213D02*
X070915Y086413D01*
X071115Y086213D01*
X070915Y086013D01*
X070715Y086213D01*
Y083815D02*
X070915Y084015D01*
X071115Y083815D01*
X070915Y083615D01*
X070715Y083815D01*
X080557Y086213D02*
X080757Y086413D01*
X080957Y086213D01*
X080757Y086013D01*
X080557Y086213D01*
Y083815D02*
X080757Y084015D01*
X080957Y083815D01*
X080757Y083615D01*
X080557Y083815D01*
X090400Y086213D02*
X090600Y086413D01*
X090800Y086213D01*
X090600Y086013D01*
X090400Y086213D01*
Y083815D02*
X090600Y084015D01*
X090800Y083815D01*
X090600Y083615D01*
X090400Y083815D01*
Y096055D02*
X090600Y096255D01*
X090800Y096055D01*
X090600Y095855D01*
X090400Y096055D01*
Y093658D02*
X090600Y093858D01*
X090800Y093658D01*
X090600Y093458D01*
X090400Y093658D01*
X080557Y096055D02*
X080757Y096255D01*
X080957Y096055D01*
X080757Y095855D01*
X080557Y096055D01*
Y093658D02*
X080757Y093858D01*
X080957Y093658D01*
X080757Y093458D01*
X080557Y093658D01*
X070715Y096055D02*
X070915Y096255D01*
X071115Y096055D01*
X070915Y095855D01*
X070715Y096055D01*
Y093658D02*
X070915Y093858D01*
X071115Y093658D01*
X070915Y093458D01*
X070715Y093658D01*
X060872Y096055D02*
X061072Y096255D01*
X061272Y096055D01*
X061072Y095855D01*
X060872Y096055D01*
Y093658D02*
X061072Y093858D01*
X061272Y093658D01*
X061072Y093458D01*
X060872Y093658D01*
X051030Y096055D02*
X051230Y096255D01*
X051430Y096055D01*
X051230Y095855D01*
X051030Y096055D01*
Y093658D02*
X051230Y093858D01*
X051430Y093658D01*
X051230Y093458D01*
X051030Y093658D01*
X041187Y096055D02*
X041387Y096255D01*
X041587Y096055D01*
X041387Y095855D01*
X041187Y096055D01*
Y093658D02*
X041387Y093858D01*
X041587Y093658D01*
X041387Y093458D01*
X041187Y093658D01*
X031345Y096055D02*
X031545Y096255D01*
X031745Y096055D01*
X031545Y095855D01*
X031345Y096055D01*
Y093658D02*
X031545Y093858D01*
X031745Y093658D01*
X031545Y093458D01*
X031345Y093658D01*
Y105898D02*
X031545Y106098D01*
X031745Y105898D01*
X031545Y105698D01*
X031345Y105898D01*
Y103500D02*
X031545Y103700D01*
X031745Y103500D01*
X031545Y103300D01*
X031345Y103500D01*
X041187Y105898D02*
X041387Y106098D01*
X041587Y105898D01*
X041387Y105698D01*
X041187Y105898D01*
Y103500D02*
X041387Y103700D01*
X041587Y103500D01*
X041387Y103300D01*
X041187Y103500D01*
X051030Y105898D02*
X051230Y106098D01*
X051430Y105898D01*
X051230Y105698D01*
X051030Y105898D01*
Y103500D02*
X051230Y103700D01*
X051430Y103500D01*
X051230Y103300D01*
X051030Y103500D01*
X060872Y105898D02*
X061072Y106098D01*
X061272Y105898D01*
X061072Y105698D01*
X060872Y105898D01*
Y103500D02*
X061072Y103700D01*
X061272Y103500D01*
X061072Y103300D01*
X060872Y103500D01*
X070715Y105898D02*
X070915Y106098D01*
X071115Y105898D01*
X070915Y105698D01*
X070715Y105898D01*
Y103500D02*
X070915Y103700D01*
X071115Y103500D01*
X070915Y103300D01*
X070715Y103500D01*
X080557Y105898D02*
X080757Y106098D01*
X080957Y105898D01*
X080757Y105698D01*
X080557Y105898D01*
Y103500D02*
X080757Y103700D01*
X080957Y103500D01*
X080757Y103300D01*
X080557Y103500D01*
X090400D02*
X090600Y103700D01*
X090800Y103500D01*
X090600Y103300D01*
X090400Y103500D01*
Y105898D02*
X090600Y106098D01*
X090800Y105898D01*
X090600Y105698D01*
X090400Y105898D01*
X093198Y107398D02*
X093398Y107598D01*
X093598Y107398D01*
X093398Y107198D01*
X093198Y107398D01*
X083355D02*
X083555Y107598D01*
X083755Y107398D01*
X083555Y107198D01*
X083355Y107398D01*
X073513D02*
X073713Y107598D01*
X073913Y107398D01*
X073713Y107198D01*
X073513Y107398D01*
X063670D02*
X063870Y107598D01*
X064070Y107398D01*
X063870Y107198D01*
X063670Y107398D01*
X053828D02*
X054028Y107598D01*
X054228Y107398D01*
X054028Y107198D01*
X053828Y107398D01*
X043985D02*
X044185Y107598D01*
X044385Y107398D01*
X044185Y107198D01*
X043985Y107398D01*
X034143D02*
X034343Y107598D01*
X034543Y107398D01*
X034343Y107198D01*
X034143Y107398D01*
X024300D02*
X024500Y107598D01*
X024700Y107398D01*
X024500Y107198D01*
X024300Y107398D01*
X093198Y097555D02*
X093398Y097755D01*
X093598Y097555D01*
X093398Y097355D01*
X093198Y097555D01*
X083355D02*
X083555Y097755D01*
X083755Y097555D01*
X083555Y097355D01*
X083355Y097555D01*
X073513D02*
X073713Y097755D01*
X073913Y097555D01*
X073713Y097355D01*
X073513Y097555D01*
X063670D02*
X063870Y097755D01*
X064070Y097555D01*
X063870Y097355D01*
X063670Y097555D01*
X053828D02*
X054028Y097755D01*
X054228Y097555D01*
X054028Y097355D01*
X053828Y097555D01*
X043985D02*
X044185Y097755D01*
X044385Y097555D01*
X044185Y097355D01*
X043985Y097555D01*
X034143D02*
X034343Y097755D01*
X034543Y097555D01*
X034343Y097355D01*
X034143Y097555D01*
X024300D02*
X024500Y097755D01*
X024700Y097555D01*
X024500Y097355D01*
X024300Y097555D01*
X093198Y087713D02*
X093398Y087913D01*
X093598Y087713D01*
X093398Y087513D01*
X093198Y087713D01*
X083355D02*
X083555Y087913D01*
X083755Y087713D01*
X083555Y087513D01*
X083355Y087713D01*
X073513D02*
X073713Y087913D01*
X073913Y087713D01*
X073713Y087513D01*
X073513Y087713D01*
X063670D02*
X063870Y087913D01*
X064070Y087713D01*
X063870Y087513D01*
X063670Y087713D01*
X053828D02*
X054028Y087913D01*
X054228Y087713D01*
X054028Y087513D01*
X053828Y087713D01*
X043985D02*
X044185Y087913D01*
X044385Y087713D01*
X044185Y087513D01*
X043985Y087713D01*
X034143D02*
X034343Y087913D01*
X034543Y087713D01*
X034343Y087513D01*
X034143Y087713D01*
X024300D02*
X024500Y087913D01*
X024700Y087713D01*
X024500Y087513D01*
X024300Y087713D01*
X093198Y077870D02*
X093398Y078070D01*
X093598Y077870D01*
X093398Y077670D01*
X093198Y077870D01*
X083355D02*
X083555Y078070D01*
X083755Y077870D01*
X083555Y077670D01*
X083355Y077870D01*
X073513D02*
X073713Y078070D01*
X073913Y077870D01*
X073713Y077670D01*
X073513Y077870D01*
X063670D02*
X063870Y078070D01*
X064070Y077870D01*
X063870Y077670D01*
X063670Y077870D01*
X053828D02*
X054028Y078070D01*
X054228Y077870D01*
X054028Y077670D01*
X053828Y077870D01*
X043985D02*
X044185Y078070D01*
X044385Y077870D01*
X044185Y077670D01*
X043985Y077870D01*
X034143D02*
X034343Y078070D01*
X034543Y077870D01*
X034343Y077670D01*
X034143Y077870D01*
X024300D02*
X024500Y078070D01*
X024700Y077870D01*
X024500Y077670D01*
X024300Y077870D01*
X093198Y068028D02*
X093398Y068228D01*
X093598Y068028D01*
X093398Y067828D01*
X093198Y068028D01*
X083355D02*
X083555Y068228D01*
X083755Y068028D01*
X083555Y067828D01*
X083355Y068028D01*
X073513D02*
X073713Y068228D01*
X073913Y068028D01*
X073713Y067828D01*
X073513Y068028D01*
X063670D02*
X063870Y068228D01*
X064070Y068028D01*
X063870Y067828D01*
X063670Y068028D01*
X053828D02*
X054028Y068228D01*
X054228Y068028D01*
X054028Y067828D01*
X053828Y068028D01*
X043985D02*
X044185Y068228D01*
X044385Y068028D01*
X044185Y067828D01*
X043985Y068028D01*
X034143D02*
X034343Y068228D01*
X034543Y068028D01*
X034343Y067828D01*
X034143Y068028D01*
X024300D02*
X024500Y068228D01*
X024700Y068028D01*
X024500Y067828D01*
X024300Y068028D01*
X093198Y058185D02*
X093398Y058385D01*
X093598Y058185D01*
X093398Y057985D01*
X093198Y058185D01*
X083355D02*
X083555Y058385D01*
X083755Y058185D01*
X083555Y057985D01*
X083355Y058185D01*
X073513D02*
X073713Y058385D01*
X073913Y058185D01*
X073713Y057985D01*
X073513Y058185D01*
X063670D02*
X063870Y058385D01*
X064070Y058185D01*
X063870Y057985D01*
X063670Y058185D01*
X053828D02*
X054028Y058385D01*
X054228Y058185D01*
X054028Y057985D01*
X053828Y058185D01*
X043985D02*
X044185Y058385D01*
X044385Y058185D01*
X044185Y057985D01*
X043985Y058185D01*
X034143D02*
X034343Y058385D01*
X034543Y058185D01*
X034343Y057985D01*
X034143Y058185D01*
X024300D02*
X024500Y058385D01*
X024700Y058185D01*
X024500Y057985D01*
X024300Y058185D01*
X093198Y048343D02*
X093398Y048543D01*
X093598Y048343D01*
X093398Y048143D01*
X093198Y048343D01*
X083355D02*
X083555Y048543D01*
X083755Y048343D01*
X083555Y048143D01*
X083355Y048343D01*
X073513D02*
X073713Y048543D01*
X073913Y048343D01*
X073713Y048143D01*
X073513Y048343D01*
X063670D02*
X063870Y048543D01*
X064070Y048343D01*
X063870Y048143D01*
X063670Y048343D01*
X053828D02*
X054028Y048543D01*
X054228Y048343D01*
X054028Y048143D01*
X053828Y048343D01*
X043985D02*
X044185Y048543D01*
X044385Y048343D01*
X044185Y048143D01*
X043985Y048343D01*
X034143D02*
X034343Y048543D01*
X034543Y048343D01*
X034343Y048143D01*
X034143Y048343D01*
X024300D02*
X024500Y048543D01*
X024700Y048343D01*
X024500Y048143D01*
X024300Y048343D01*
X093198Y038500D02*
X093398Y038700D01*
X093598Y038500D01*
X093398Y038300D01*
X093198Y038500D01*
X083355D02*
X083555Y038700D01*
X083755Y038500D01*
X083555Y038300D01*
X083355Y038500D01*
X073513D02*
X073713Y038700D01*
X073913Y038500D01*
X073713Y038300D01*
X073513Y038500D01*
X063670D02*
X063870Y038700D01*
X064070Y038500D01*
X063870Y038300D01*
X063670Y038500D01*
X053828D02*
X054028Y038700D01*
X054228Y038500D01*
X054028Y038300D01*
X053828Y038500D01*
X043985D02*
X044185Y038700D01*
X044385Y038500D01*
X044185Y038300D01*
X043985Y038500D01*
X034143D02*
X034343Y038700D01*
X034543Y038500D01*
X034343Y038300D01*
X034143Y038500D01*
X024300D02*
X024500Y038700D01*
X024700Y038500D01*
X024500Y038300D01*
X024300Y038500D01*
X031900Y035500D02*
X032100Y035700D01*
X032300Y035500D01*
X032100Y035300D01*
X031900Y035500D01*
Y104400D02*
X032100Y104600D01*
X032300Y104400D01*
X032100Y104200D01*
X031900Y104400D01*
Y094600D02*
X032100Y094800D01*
X032300Y094600D01*
X032100Y094400D01*
X031900Y094600D01*
Y084700D02*
X032100Y084900D01*
X032300Y084700D01*
X032100Y084500D01*
X031900Y084700D01*
Y074900D02*
X032100Y075100D01*
X032300Y074900D01*
X032100Y074700D01*
X031900Y074900D01*
Y065000D02*
X032100Y065200D01*
X032300Y065000D01*
X032100Y064800D01*
X031900Y065000D01*
Y055200D02*
X032100Y055400D01*
X032300Y055200D01*
X032100Y055000D01*
X031900Y055200D01*
Y045300D02*
X032100Y045500D01*
X032300Y045300D01*
X032100Y045100D01*
X031900Y045300D01*
X041800D02*
X042000Y045500D01*
X042200Y045300D01*
X042000Y045100D01*
X041800Y045300D01*
Y055200D02*
X042000Y055400D01*
X042200Y055200D01*
X042000Y055000D01*
X041800Y055200D01*
Y065000D02*
X042000Y065200D01*
X042200Y065000D01*
X042000Y064800D01*
X041800Y065000D01*
Y074900D02*
X042000Y075100D01*
X042200Y074900D01*
X042000Y074700D01*
X041800Y074900D01*
Y084700D02*
X042000Y084900D01*
X042200Y084700D01*
X042000Y084500D01*
X041800Y084700D01*
Y094600D02*
X042000Y094800D01*
X042200Y094600D01*
X042000Y094400D01*
X041800Y094600D01*
Y104400D02*
X042000Y104600D01*
X042200Y104400D01*
X042000Y104200D01*
X041800Y104400D01*
X051600Y045300D02*
X051800Y045500D01*
X052000Y045300D01*
X051800Y045100D01*
X051600Y045300D01*
Y065000D02*
X051800Y065200D01*
X052000Y065000D01*
X051800Y064800D01*
X051600Y065000D01*
Y074900D02*
X051800Y075100D01*
X052000Y074900D01*
X051800Y074700D01*
X051600Y074900D01*
Y084700D02*
X051800Y084900D01*
X052000Y084700D01*
X051800Y084500D01*
X051600Y084700D01*
Y094600D02*
X051800Y094800D01*
X052000Y094600D01*
X051800Y094400D01*
X051600Y094600D01*
Y104400D02*
X051800Y104600D01*
X052000Y104400D01*
X051800Y104200D01*
X051600Y104400D01*
X061500Y045300D02*
X061700Y045500D01*
X061900Y045300D01*
X061700Y045100D01*
X061500Y045300D01*
Y055200D02*
X061700Y055400D01*
X061900Y055200D01*
X061700Y055000D01*
X061500Y055200D01*
Y065000D02*
X061700Y065200D01*
X061900Y065000D01*
X061700Y064800D01*
X061500Y065000D01*
Y074900D02*
X061700Y075100D01*
X061900Y074900D01*
X061700Y074700D01*
X061500Y074900D01*
Y084700D02*
X061700Y084900D01*
X061900Y084700D01*
X061700Y084500D01*
X061500Y084700D01*
Y094600D02*
X061700Y094800D01*
X061900Y094600D01*
X061700Y094400D01*
X061500Y094600D01*
Y104400D02*
X061700Y104600D01*
X061900Y104400D01*
X061700Y104200D01*
X061500Y104400D01*
Y035500D02*
X061700Y035700D01*
X061900Y035500D01*
X061700Y035300D01*
X061500Y035500D01*
X081200Y045300D02*
X081400Y045500D01*
X081600Y045300D01*
X081400Y045100D01*
X081200Y045300D01*
Y055200D02*
X081400Y055400D01*
X081600Y055200D01*
X081400Y055000D01*
X081200Y055200D01*
Y065000D02*
X081400Y065200D01*
X081600Y065000D01*
X081400Y064800D01*
X081200Y065000D01*
Y074900D02*
X081400Y075100D01*
X081600Y074900D01*
X081400Y074700D01*
X081200Y074900D01*
Y084700D02*
X081400Y084900D01*
X081600Y084700D01*
X081400Y084500D01*
X081200Y084700D01*
Y094600D02*
X081400Y094800D01*
X081600Y094600D01*
X081400Y094400D01*
X081200Y094600D01*
Y104400D02*
X081400Y104600D01*
X081600Y104400D01*
X081400Y104200D01*
X081200Y104400D01*
Y035500D02*
X081400Y035700D01*
X081600Y035500D01*
X081400Y035300D01*
X081200Y035500D01*
X091000Y045300D02*
X091200Y045500D01*
X091400Y045300D01*
X091200Y045100D01*
X091000Y045300D01*
Y055200D02*
X091200Y055400D01*
X091400Y055200D01*
X091200Y055000D01*
X091000Y055200D01*
Y065000D02*
X091200Y065200D01*
X091400Y065000D01*
X091200Y064800D01*
X091000Y065000D01*
Y074900D02*
X091200Y075100D01*
X091400Y074900D01*
X091200Y074700D01*
X091000Y074900D01*
Y084700D02*
X091200Y084900D01*
X091400Y084700D01*
X091200Y084500D01*
X091000Y084700D01*
Y094600D02*
X091200Y094800D01*
X091400Y094600D01*
X091200Y094400D01*
X091000Y094600D01*
Y104400D02*
X091200Y104600D01*
X091400Y104400D01*
X091200Y104200D01*
X091000Y104400D01*
Y035500D02*
X091200Y035700D01*
X091400Y035500D01*
X091200Y035300D01*
X091000Y035500D01*
X051596Y055200D02*
X051796Y055400D01*
X051996Y055200D01*
X051796Y055000D01*
X051596Y055200D01*
Y035500D02*
X051796Y035700D01*
X051996Y035500D01*
X051796Y035300D01*
X051596Y035500D01*
X041800D02*
X042000Y035700D01*
X042200Y035500D01*
X042000Y035300D01*
X041800Y035500D01*
X071300D02*
X071500Y035700D01*
X071700Y035500D01*
X071500Y035300D01*
X071300Y035500D01*
Y045300D02*
X071500Y045500D01*
X071700Y045300D01*
X071500Y045100D01*
X071300Y045300D01*
Y074900D02*
X071500Y075100D01*
X071700Y074900D01*
X071500Y074700D01*
X071300Y074900D01*
Y104400D02*
X071500Y104600D01*
X071700Y104400D01*
X071500Y104200D01*
X071300Y104400D01*
Y055200D02*
X071500Y055400D01*
X071700Y055200D01*
X071500Y055000D01*
X071300Y055200D01*
Y065000D02*
X071500Y065200D01*
X071700Y065000D01*
X071500Y064800D01*
X071300Y065000D01*
Y084700D02*
X071500Y084900D01*
X071700Y084700D01*
X071500Y084500D01*
X071300Y084700D01*
Y094600D02*
X071500Y094800D01*
X071700Y094600D01*
X071500Y094400D01*
X071300Y094600D01*
X092600Y104400D02*
X092800Y104600D01*
X093000Y104400D01*
X092800Y104200D01*
X092600Y104400D01*
Y094600D02*
X092800Y094800D01*
X093000Y094600D01*
X092800Y094400D01*
X092600Y094600D01*
Y084700D02*
X092800Y084900D01*
X093000Y084700D01*
X092800Y084500D01*
X092600Y084700D01*
Y074900D02*
X092800Y075100D01*
X093000Y074900D01*
X092800Y074700D01*
X092600Y074900D01*
Y065000D02*
X092800Y065200D01*
X093000Y065000D01*
X092800Y064800D01*
X092600Y065000D01*
Y055200D02*
X092800Y055400D01*
X093000Y055200D01*
X092800Y055000D01*
X092600Y055200D01*
Y045300D02*
X092800Y045500D01*
X093000Y045300D01*
X092800Y045100D01*
X092600Y045300D01*
Y035500D02*
X092800Y035700D01*
X093000Y035500D01*
X092800Y035300D01*
X092600Y035500D01*
X043300Y036500D02*
X043500Y036700D01*
X043700Y036500D01*
X043500Y036300D01*
X043300Y036500D01*
Y046343D02*
X043500Y046543D01*
X043700Y046343D01*
X043500Y046143D01*
X043300Y046343D01*
Y056185D02*
X043500Y056385D01*
X043700Y056185D01*
X043500Y055985D01*
X043300Y056185D01*
Y066028D02*
X043500Y066228D01*
X043700Y066028D01*
X043500Y065828D01*
X043300Y066028D01*
Y075870D02*
X043500Y076070D01*
X043700Y075870D01*
X043500Y075670D01*
X043300Y075870D01*
Y085713D02*
X043500Y085913D01*
X043700Y085713D01*
X043500Y085513D01*
X043300Y085713D01*
Y095555D02*
X043500Y095755D01*
X043700Y095555D01*
X043500Y095355D01*
X043300Y095555D01*
Y105398D02*
X043500Y105598D01*
X043700Y105398D01*
X043500Y105198D01*
X043300Y105398D01*
X063109Y106398D02*
X063309Y106598D01*
X063509Y106398D01*
X063309Y106198D01*
X063109Y106398D01*
Y096555D02*
X063309Y096755D01*
X063509Y096555D01*
X063309Y096355D01*
X063109Y096555D01*
Y086713D02*
X063309Y086913D01*
X063509Y086713D01*
X063309Y086513D01*
X063109Y086713D01*
Y076870D02*
X063309Y077070D01*
X063509Y076870D01*
X063309Y076670D01*
X063109Y076870D01*
Y067028D02*
X063309Y067228D01*
X063509Y067028D01*
X063309Y066828D01*
X063109Y067028D01*
Y057185D02*
X063309Y057385D01*
X063509Y057185D01*
X063309Y056985D01*
X063109Y057185D01*
Y047343D02*
X063309Y047543D01*
X063509Y047343D01*
X063309Y047143D01*
X063109Y047343D01*
Y037500D02*
X063309Y037700D01*
X063509Y037500D01*
X063309Y037300D01*
X063109Y037500D01*
X082800Y106898D02*
X083000Y107098D01*
X083200Y106898D01*
X083000Y106698D01*
X082800Y106898D01*
Y097055D02*
X083000Y097255D01*
X083200Y097055D01*
X083000Y096855D01*
X082800Y097055D01*
Y087213D02*
X083000Y087413D01*
X083200Y087213D01*
X083000Y087013D01*
X082800Y087213D01*
Y077370D02*
X083000Y077570D01*
X083200Y077370D01*
X083000Y077170D01*
X082800Y077370D01*
Y067528D02*
X083000Y067728D01*
X083200Y067528D01*
X083000Y067328D01*
X082800Y067528D01*
Y057685D02*
X083000Y057885D01*
X083200Y057685D01*
X083000Y057485D01*
X082800Y057685D01*
Y047843D02*
X083000Y048043D01*
X083200Y047843D01*
X083000Y047643D01*
X082800Y047843D01*
Y038000D02*
X083000Y038200D01*
X083200Y038000D01*
X083000Y037800D01*
X082800Y038000D01*
X105300Y098800D02*
X105500Y099000D01*
X105700Y098800D01*
X105500Y098600D01*
X105300Y098800D01*
Y107550D02*
X105500Y107750D01*
X105700Y107550D01*
X105500Y107350D01*
X105300Y107550D01*
Y087850D02*
X105500Y088050D01*
X105700Y087850D01*
X105500Y087650D01*
X105300Y087850D01*
Y079100D02*
X105500Y079300D01*
X105700Y079100D01*
X105500Y078900D01*
X105300Y079100D01*
Y068140D02*
X105500Y068340D01*
X105700Y068140D01*
X105500Y067940D01*
X105300Y068140D01*
Y048500D02*
X105500Y048700D01*
X105700Y048500D01*
X105500Y048300D01*
X105300Y048500D01*
Y039750D02*
X105500Y039950D01*
X105700Y039750D01*
X105500Y039550D01*
X105300Y039750D01*
X106000Y109550D02*
X106200Y109750D01*
X106400Y109550D01*
X106200Y109350D01*
X106000Y109550D01*
Y097800D02*
X106200Y098000D01*
X106400Y097800D01*
X106200Y097600D01*
X106000Y097800D01*
Y078100D02*
X106200Y078300D01*
X106400Y078100D01*
X106200Y077900D01*
X106000Y078100D01*
Y089850D02*
X106200Y090050D01*
X106400Y089850D01*
X106200Y089650D01*
X106000Y089850D01*
Y058400D02*
X106200Y058600D01*
X106400Y058400D01*
X106200Y058200D01*
X106000Y058400D01*
Y070150D02*
X106200Y070350D01*
X106400Y070150D01*
X106200Y069950D01*
X106000Y070150D01*
X105300Y059400D02*
X105500Y059600D01*
X105700Y059400D01*
X105500Y059200D01*
X105300Y059400D01*
X106000Y038750D02*
X106200Y038950D01*
X106400Y038750D01*
X106200Y038550D01*
X106000Y038750D01*
Y050500D02*
X106200Y050700D01*
X106400Y050500D01*
X106200Y050300D01*
X106000Y050500D01*
X100300Y098250D02*
X100500Y098450D01*
X100700Y098250D01*
X100500Y098050D01*
X100300Y098250D01*
Y078550D02*
X100500Y078750D01*
X100700Y078550D01*
X100500Y078350D01*
X100300Y078550D01*
Y039200D02*
X100500Y039400D01*
X100700Y039200D01*
X100500Y039000D01*
X100300Y039200D01*
Y058850D02*
X100500Y059050D01*
X100700Y058850D01*
X100500Y058650D01*
X100300Y058850D01*
X102300Y111350D02*
Y111750D01*
X102700D01*
Y111350D01*
X102300D01*
X102380Y111430D02*
Y111670D01*
X102620D01*
Y111430D01*
X102380D01*
X101800Y110850D02*
Y111250D01*
X102200D01*
Y110850D01*
X101800D01*
X101880Y110930D02*
Y111170D01*
X102120D01*
Y110930D01*
X101880D01*
X102300Y100600D02*
Y101000D01*
X102700D01*
Y100600D01*
X102300D01*
X102380Y100680D02*
Y100920D01*
X102620D01*
Y100680D01*
X102380D01*
X102800Y101600D02*
Y102000D01*
X103200D01*
Y101600D01*
X102800D01*
X102880Y101680D02*
Y101920D01*
X103120D01*
Y101680D01*
X102880D01*
X101825Y096100D02*
Y096500D01*
X102225D01*
Y096100D01*
X101825D01*
X101905Y096180D02*
Y096420D01*
X102145D01*
Y096180D01*
X101905D01*
X103300Y102600D02*
Y103000D01*
X103700D01*
Y102600D01*
X103300D01*
X103380Y102680D02*
Y102920D01*
X103620D01*
Y102680D01*
X103380D01*
X102300Y080900D02*
Y081300D01*
X102700D01*
Y080900D01*
X102300D01*
X102380Y080980D02*
Y081220D01*
X102620D01*
Y080980D01*
X102380D01*
X102800Y081900D02*
Y082300D01*
X103200D01*
Y081900D01*
X102800D01*
X102880Y081980D02*
Y082220D01*
X103120D01*
Y081980D01*
X102880D01*
X101825Y076400D02*
Y076800D01*
X102225D01*
Y076400D01*
X101825D01*
X101905Y076480D02*
Y076720D01*
X102145D01*
Y076480D01*
X101905D01*
X103300Y082900D02*
Y083300D01*
X103700D01*
Y082900D01*
X103300D01*
X103380Y082980D02*
Y083220D01*
X103620D01*
Y082980D01*
X103380D01*
X102300Y061200D02*
Y061600D01*
X102700D01*
Y061200D01*
X102300D01*
X102380Y061280D02*
Y061520D01*
X102620D01*
Y061280D01*
X102380D01*
X102800Y062200D02*
Y062600D01*
X103200D01*
Y062200D01*
X102800D01*
X102880Y062280D02*
Y062520D01*
X103120D01*
Y062280D01*
X102880D01*
X101825Y056700D02*
Y057100D01*
X102225D01*
Y056700D01*
X101825D01*
X101905Y056780D02*
Y057020D01*
X102145D01*
Y056780D01*
X101905D01*
X103300Y063200D02*
Y063600D01*
X103700D01*
Y063200D01*
X103300D01*
X103380Y063280D02*
Y063520D01*
X103620D01*
Y063280D01*
X103380D01*
X102300Y041550D02*
Y041950D01*
X102700D01*
Y041550D01*
X102300D01*
X102380Y041630D02*
Y041870D01*
X102620D01*
Y041630D01*
X102380D01*
X102800Y042550D02*
Y042950D01*
X103200D01*
Y042550D01*
X102800D01*
X102880Y042630D02*
Y042870D01*
X103120D01*
Y042630D01*
X102880D01*
X101825Y037050D02*
Y037450D01*
X102225D01*
Y037050D01*
X101825D01*
X101905Y037130D02*
Y037370D01*
X102145D01*
Y037130D01*
X101905D01*
X103300Y043550D02*
Y043950D01*
X103700D01*
Y043550D01*
X103300D01*
X103380Y043630D02*
Y043870D01*
X103620D01*
Y043630D01*
X103380D01*
X102300Y094100D02*
Y094500D01*
X102700D01*
Y094100D01*
X102300D01*
X102380Y094180D02*
Y094420D01*
X102620D01*
Y094180D01*
X102380D01*
X060872Y037000D02*
X061072Y037200D01*
X061272Y037000D01*
X061072Y036800D01*
X060872Y037000D01*
D58*
X069266Y112050D02*
G03*
X069266Y112050I-000200J000000D01*
G01*
X071234Y112050D02*
G03*
X071234Y112050I-000200J000000D01*
G01*
M02*
